
<svg xmlns="http://www.w3.org/2000/svg" xmlns:xlink="http://www.w3.org/1999/xlink" width="16px" height="16px" viewBox="0 0 16 16" version="1.1">
<g id="surface1">
<path style=" stroke:none;fill-rule:nonzero;fill:rgb(12.156863%,2.745098%,25.098041%);fill-opacity:1;" d="M 10.875 6.550781 C 9.9375 6.664062 9.9375 7.699219 9.9375 7.699219 L 11.800781 7.699219 C 11.8125 7.699219 11.898438 6.550781 10.875 6.550781 Z M 10.875 6.550781 "/>
<path style=" stroke:none;fill-rule:nonzero;fill:rgb(12.156863%,2.745098%,25.098041%);fill-opacity:1;" d="M 4.773438 7.886719 L 6.375 7.886719 L 5.574219 4.835938 Z M 4.773438 7.886719 "/>
<path style=" stroke:none;fill-rule:nonzero;fill:rgb(12.156863%,2.745098%,25.098041%);fill-opacity:1;" d="M 0 0 L 0 16 L 16 16 L 16 0 Z M 7.1875 11.074219 L 6.625 9.0625 L 4.523438 9.0625 L 3.976562 11.074219 L 2.800781 11.074219 L 4.800781 4.210938 L 4.800781 3.738281 L 6.324219 3.738281 L 8.488281 11.074219 Z M 12.9375 8.625 L 9.9375 8.625 C 10.175781 11.023438 12.585938 9.875 12.585938 9.875 L 12.585938 10.875 C 12.585938 10.875 12.425781 11.199219 10.738281 11.199219 C 9.050781 11.199219 8.699219 8.914062 8.699219 8.914062 L 8.699219 8.324219 C 8.699219 8.324219 8.863281 5.574219 10.863281 5.574219 C 12.863281 5.574219 12.925781 7.398438 12.925781 7.398438 L 12.925781 8.625 Z M 12.9375 8.625 "/>
</g>
</svg>
