
<svg xmlns="http://www.w3.org/2000/svg" xmlns:xlink="http://www.w3.org/1999/xlink" width="24px" height="24px" viewBox="0 0 24 24" version="1.1">
<g id="surface1">
<path style=" stroke:none;fill-rule:nonzero;fill:rgb(0%,0%,0%);fill-opacity:1;" d="M 18.75 6 L 5.25 6 L 5.25 18.75 L 18.75 18.75 Z M 13.050781 15.226562 L 12.300781 15.226562 C 12.148438 15.226562 12.148438 15.226562 12.074219 15.074219 C 11.925781 14.550781 11.699219 13.949219 11.550781 13.425781 C 11.550781 13.351562 11.476562 13.273438 11.324219 13.273438 L 9.75 13.273438 C 9.601562 13.273438 9.601562 13.351562 9.523438 13.425781 C 9.375 13.949219 9.226562 14.550781 9.074219 15.074219 C 9.074219 15.148438 9 15.226562 8.925781 15.226562 L 8.101562 15.226562 C 7.949219 15.226562 7.949219 15.148438 7.949219 15.074219 C 8.25 14.101562 8.476562 13.125 8.773438 12.148438 C 9.074219 11.023438 9.449219 9.824219 9.75 8.699219 C 9.824219 8.550781 9.824219 8.476562 9.976562 8.550781 L 11.101562 8.550781 C 11.175781 8.550781 11.25 8.550781 11.25 8.699219 C 11.625 9.824219 11.925781 11.023438 12.300781 12.148438 L 13.199219 15.074219 C 13.273438 15.226562 13.273438 15.226562 13.050781 15.226562 Z M 15.300781 14.851562 C 15.300781 15.226562 15.300781 15.226562 14.925781 15.226562 L 14.398438 15.226562 C 14.25 15.226562 14.25 15.226562 14.25 15.074219 L 14.25 10.199219 C 14.25 10.050781 14.324219 9.976562 14.398438 10.050781 L 15.074219 10.050781 C 15.226562 10.050781 15.226562 10.125 15.226562 10.199219 C 15.300781 11.773438 15.300781 13.351562 15.300781 14.851562 Z M 14.773438 9.523438 C 14.476562 9.523438 14.175781 9.300781 14.175781 9 C 14.175781 8.699219 14.398438 8.398438 14.773438 8.398438 C 15.074219 8.398438 15.375 8.625 15.375 8.925781 C 15.375 9.300781 15.148438 9.523438 14.773438 9.523438 Z M 14.773438 9.523438 "/>
<path style=" stroke:none;fill-rule:nonzero;fill:rgb(0%,0%,0%);fill-opacity:1;" d="M 10.648438 9.976562 C 10.648438 9.898438 10.574219 9.898438 10.5 9.976562 C 10.5 10.050781 10.425781 10.125 10.425781 10.199219 C 10.273438 10.875 10.125 11.550781 9.898438 12.148438 C 9.898438 12.226562 9.898438 12.300781 9.976562 12.300781 L 11.023438 12.300781 C 11.175781 12.300781 11.175781 12.226562 11.101562 12.148438 C 11.023438 11.398438 10.875 10.648438 10.648438 9.976562 Z M 10.648438 9.976562 "/>
</g>
</svg>
