
<svg xmlns="http://www.w3.org/2000/svg" xmlns:xlink="http://www.w3.org/1999/xlink" width="16px" height="16px" viewBox="0 0 16 16" version="1.1">
<g id="surface1">
<path style=" stroke:none;fill-rule:nonzero;fill:rgb(64.313728%,76.862746%,22.352941%);fill-opacity:1;" d="M 2.625 5.375 C 2.117188 5.375 1.707031 5.785156 1.707031 6.292969 L 1.707031 10.136719 C 1.710938 10.644531 2.121094 11.054688 2.625 11.054688 C 3.132812 11.054688 3.542969 10.644531 3.542969 10.136719 L 3.542969 6.292969 C 3.542969 5.785156 3.132812 5.375 2.625 5.375 M 10.023438 1.925781 L 10.664062 0.753906 C 10.699219 0.695312 10.675781 0.617188 10.613281 0.582031 C 10.550781 0.550781 10.476562 0.570312 10.441406 0.632812 L 9.796875 1.816406 C 9.25 1.574219 8.640625 1.4375 7.996094 1.4375 C 7.355469 1.4375 6.746094 1.570312 6.203125 1.8125 L 5.554688 0.632812 C 5.523438 0.570312 5.445312 0.550781 5.382812 0.582031 C 5.320312 0.617188 5.300781 0.695312 5.332031 0.757812 L 5.972656 1.925781 C 4.714844 2.574219 3.863281 3.808594 3.867188 5.230469 L 12.128906 5.226562 C 12.128906 3.808594 11.28125 2.574219 10.023438 1.925781 M 6.117188 3.730469 C 5.925781 3.730469 5.773438 3.578125 5.773438 3.386719 C 5.773438 3.195312 5.925781 3.039062 6.117188 3.039062 C 6.308594 3.039062 6.464844 3.195312 6.464844 3.386719 C 6.464844 3.578125 6.308594 3.730469 6.117188 3.730469 M 9.882812 3.730469 C 9.691406 3.730469 9.535156 3.578125 9.535156 3.386719 C 9.535156 3.195312 9.691406 3.039062 9.882812 3.039062 C 10.070312 3.039062 10.226562 3.195312 10.226562 3.386719 C 10.226562 3.578125 10.070312 3.730469 9.882812 3.730469 M 3.898438 5.546875 L 3.902344 11.503906 C 3.898438 12.042969 4.339844 12.480469 4.878906 12.480469 L 5.546875 12.480469 L 5.546875 14.515625 C 5.546875 15.023438 5.957031 15.433594 6.464844 15.433594 C 6.972656 15.433594 7.382812 15.019531 7.382812 14.515625 L 7.382812 12.480469 L 8.621094 12.480469 L 8.621094 14.515625 C 8.621094 15.019531 9.03125 15.433594 9.539062 15.433594 C 10.042969 15.433594 10.457031 15.019531 10.457031 14.515625 L 10.453125 12.480469 L 11.125 12.480469 C 11.664062 12.480469 12.101562 12.042969 12.101562 11.5 L 12.101562 5.546875 Z M 14.292969 6.292969 C 14.289062 5.785156 13.878906 5.375 13.375 5.375 C 12.867188 5.375 12.457031 5.785156 12.457031 6.292969 L 12.457031 10.132812 C 12.457031 10.640625 12.867188 11.050781 13.375 11.050781 C 13.882812 11.050781 14.292969 10.640625 14.292969 10.132812 Z M 14.292969 6.292969 "/>
</g>
</svg>
