
<svg xmlns="http://www.w3.org/2000/svg" xmlns:xlink="http://www.w3.org/1999/xlink" width="16px" height="16px" viewBox="0 0 16 16" version="1.1">
<g id="surface1">
<path style=" stroke:none;fill-rule:nonzero;fill:rgb(18.82353%,19.607843%,51.764709%);fill-opacity:1;" d="M 15.949219 9.488281 L 15.914062 9.425781 L 15.886719 9.414062 L 15.886719 9.363281 L 15.875 9.3125 L 15.851562 9.273438 L 15.800781 9.25 L 15.789062 9.25 L 15.773438 9.226562 L 15.738281 9.199219 L 15.699219 9.175781 L 15.648438 9.164062 L 15.625 9.164062 L 15.574219 9.113281 L 15.511719 9.074219 L 15.4375 9.039062 L 15.363281 9.011719 L 15.335938 9.011719 L 15.273438 8.9375 L 15.199219 8.886719 L 15.125 8.851562 L 15.050781 8.824219 L 15.039062 8.824219 L 14.960938 8.773438 L 14.863281 8.738281 L 14.800781 8.726562 L 14.738281 8.675781 L 14.675781 8.648438 L 14.550781 8.625 L 14.488281 8.625 L 14.414062 8.636719 L 14.398438 8.636719 L 14.351562 8.5625 L 14.273438 8.511719 L 14.175781 8.488281 L 14.0625 8.488281 L 13.9375 8.511719 L 13.886719 8.523438 L 13.789062 8.488281 L 13.6875 8.460938 L 13.363281 8.460938 L 13.238281 8.414062 L 13.125 8.375 L 13.011719 8.363281 L 12.9375 8.363281 L 12.835938 8.261719 L 12.726562 8.1875 L 12.625 8.136719 L 12.523438 8.113281 L 12.425781 8.113281 L 12.375 8.148438 L 12.3125 8.101562 L 12.238281 8.0625 L 12.148438 8.050781 L 12.074219 8.0625 L 11.988281 8.023438 L 11.898438 8 L 11.773438 8 L 11.636719 7.949219 L 11.488281 7.914062 L 11.351562 7.898438 L 11.324219 7.898438 L 11.175781 7.8125 L 11.023438 7.773438 L 10.886719 7.773438 L 10.898438 7.773438 L 10.6875 7.726562 L 10.550781 7.710938 L 10.488281 7.710938 L 10.398438 7.625 L 10.300781 7.5625 L 10.1875 7.539062 L 10.074219 7.550781 L 10 7.574219 L 9.898438 7.5625 L 9.675781 7.5625 L 9.675781 7.539062 L 9.5 7.5 L 9.324219 7.476562 L 9.164062 7.460938 L 9.101562 7.476562 L 9.101562 7.460938 L 8.851562 7.4375 L 8.835938 7.4375 L 8.699219 7.375 L 8.5625 7.335938 L 8.4375 7.324219 L 8.335938 7.324219 L 8.199219 7.273438 L 8.085938 7.25 L 7.960938 7.25 L 7.824219 7.148438 L 7.710938 7.113281 L 7.625 7.101562 L 7.523438 7.050781 L 7.375 7.023438 L 7.238281 7.023438 L 7.101562 6.960938 L 6.976562 6.9375 L 6.898438 6.9375 L 6.75 6.863281 L 6.625 6.824219 L 6.5 6.8125 L 6.460938 6.824219 L 6.476562 6.824219 L 6.300781 6.726562 L 6.164062 6.675781 L 6.039062 6.664062 L 6.023438 6.664062 L 5.9375 6.601562 L 5.863281 6.5625 L 5.789062 6.539062 L 5.699219 6.523438 L 5.613281 6.539062 L 5.511719 6.460938 L 5.425781 6.425781 L 5.3125 6.414062 L 5.210938 6.414062 L 5.101562 6.4375 L 5.074219 6.449219 L 4.949219 6.386719 L 4.824219 6.351562 L 4.710938 6.351562 L 4.613281 6.289062 L 4.523438 6.25 L 4.425781 6.25 L 4.335938 6.261719 L 4.25 6.289062 L 4.238281 6.289062 L 4.148438 6.199219 L 4.074219 6.148438 L 3.988281 6.136719 L 3.898438 6.148438 L 3.824219 6.1875 L 3.800781 6.175781 L 3.761719 6.148438 L 3.726562 6.136719 L 3.6875 6.125 L 3.601562 6.125 L 3.5625 6.136719 L 3.5 6.175781 L 3.488281 6.1875 L 3.375 6.164062 L 3.273438 6.164062 L 3.1875 6.1875 L 3.113281 6.25 L 3.0625 6.3125 L 3.023438 6.398438 L 2.988281 6.5 L 2.960938 6.601562 L 2.949219 6.699219 L 2.9375 6.898438 L 2.949219 7.125 L 2.949219 7.164062 C 2.886719 7.136719 2.824219 7.113281 2.75 7.085938 L 2.75 7.039062 L 2.761719 6.960938 L 2.773438 6.800781 L 2.789062 6.648438 L 2.773438 6.5 L 2.761719 6.425781 L 2.738281 6.300781 L 2.710938 6.238281 L 2.6875 6.1875 L 2.648438 6.136719 L 2.613281 6.085938 L 2.539062 6.023438 L 2.5625 6.136719 L 2.574219 6.210938 L 2.585938 6.289062 L 2.601562 6.351562 L 2.613281 6.425781 L 2.625 6.488281 L 2.625 6.5 L 2.625 6.488281 L 2.613281 6.449219 L 2.601562 6.414062 L 2.574219 6.335938 L 2.539062 6.210938 L 2.523438 6.175781 L 2.5 6.011719 L 2.5 5.960938 L 2.511719 5.875 L 2.523438 5.835938 L 2.550781 5.75 L 2.523438 5.75 L 2.460938 5.824219 L 2.425781 5.914062 L 2.386719 6 L 2.375 6.074219 L 2.375 6.25 L 2.386719 6.335938 L 2.398438 6.425781 L 2.386719 6.414062 L 2.351562 6.363281 L 2.3125 6.3125 L 2.289062 6.25 L 2.261719 6.1875 L 2.238281 6.125 L 2.226562 6.039062 L 2.210938 5.914062 L 2.125 5.988281 L 2.085938 6.0625 L 2.0625 6.136719 L 2.0625 6.210938 L 2.074219 6.289062 L 2.101562 6.363281 L 2.136719 6.4375 L 2.148438 6.460938 L 2.125 6.488281 L 2.050781 6.476562 L 2.039062 6.5 L 2.085938 6.523438 L 2.136719 6.5625 L 2.261719 6.664062 L 2.300781 6.699219 L 2.363281 6.773438 L 2.539062 6.949219 L 2.574219 7 L 2.601562 7.023438 C 1.886719 6.738281 1.136719 6.398438 0.210938 5.960938 L 0.164062 5.9375 L 0.1875 5.988281 C 0.3125 6.199219 0.675781 6.414062 0.988281 6.613281 C 1.136719 6.699219 1.273438 6.789062 1.375 6.863281 C 1.675781 7.023438 2.074219 7.199219 2.425781 7.335938 L 2.398438 7.335938 L 2.148438 7.386719 L 1.976562 7.425781 L 1.800781 7.488281 L 1.710938 7.523438 L 1.625 7.550781 L 1.550781 7.601562 L 1.488281 7.648438 L 1.425781 7.710938 L 1.375 7.773438 L 1.335938 7.851562 L 1.3125 7.9375 L 1.335938 7.949219 L 1.363281 7.925781 L 1.425781 7.863281 L 1.449219 7.835938 L 1.523438 7.789062 L 1.5625 7.761719 L 1.601562 7.738281 L 1.675781 7.699219 L 1.726562 7.6875 L 1.761719 7.675781 L 1.851562 7.648438 L 1.9375 7.636719 L 2.011719 7.613281 L 2.175781 7.523438 L 2.25 7.476562 L 2.324219 7.425781 L 2.386719 7.386719 L 2.4375 7.363281 L 2.476562 7.351562 L 2.550781 7.375 L 2.25 7.523438 L 2.085938 7.625 L 2 7.6875 L 1.851562 7.8125 L 1.789062 7.886719 L 1.75 7.949219 L 1.726562 8.023438 L 1.710938 8.101562 L 1.726562 8.1875 L 1.773438 8.300781 L 1.835938 8.175781 L 1.886719 8.101562 L 1.9375 8.039062 L 1.988281 7.988281 L 2.039062 7.949219 L 2.148438 7.875 L 2.199219 7.851562 L 2.1875 7.898438 L 2.164062 8 L 2.164062 8.113281 L 2.175781 8.238281 L 2.210938 8.375 L 2.238281 8.375 L 2.261719 8.238281 L 2.300781 8.113281 L 2.324219 8.050781 L 2.375 7.9375 L 2.4375 7.824219 L 2.539062 7.648438 L 2.675781 7.425781 C 2.726562 7.449219 2.773438 7.460938 2.824219 7.476562 L 2.8125 7.5 L 2.726562 7.675781 L 2.675781 7.75 L 2.636719 7.835938 L 2.625 7.925781 L 2.601562 8.011719 L 2.585938 8.101562 L 2.585938 8.1875 L 2.601562 8.261719 L 2.636719 8.335938 L 2.699219 8.398438 L 2.789062 8.449219 L 2.886719 8.488281 L 2.925781 8.5625 L 2.976562 8.625 L 3.023438 8.675781 L 3.074219 8.710938 L 3.125 8.738281 L 3.175781 8.75 L 3.300781 8.75 L 3.300781 8.761719 L 3.351562 8.835938 L 3.425781 8.898438 L 3.511719 8.9375 L 3.613281 8.9375 L 3.710938 8.914062 L 3.738281 8.9375 L 3.8125 9.011719 L 3.886719 9.0625 L 3.976562 9.101562 L 4.074219 9.113281 L 4.148438 9.113281 L 4.226562 9.164062 L 4.3125 9.199219 L 4.414062 9.226562 L 4.488281 9.289062 L 4.585938 9.335938 L 4.710938 9.363281 L 4.851562 9.375 L 4.875 9.375 L 4.960938 9.449219 L 5.0625 9.5 L 5.148438 9.539062 L 5.25 9.550781 L 5.363281 9.523438 L 5.414062 9.550781 L 5.488281 9.585938 L 5.5625 9.601562 L 5.636719 9.601562 L 5.710938 9.585938 L 5.75 9.613281 L 5.875 9.648438 L 6.011719 9.664062 L 6.175781 9.648438 L 6.226562 9.675781 L 6.335938 9.710938 L 6.460938 9.726562 L 6.636719 9.710938 L 6.648438 9.710938 L 6.761719 9.75 L 6.886719 9.761719 L 7.023438 9.75 L 7.074219 9.789062 L 7.199219 9.835938 L 7.324219 9.851562 L 7.460938 9.835938 L 7.460938 9.824219 L 7.539062 9.851562 L 7.664062 9.851562 L 7.800781 9.824219 L 7.886719 9.851562 L 7.988281 9.851562 L 8.085938 9.835938 L 8.226562 9.863281 L 8.261719 9.886719 L 8.386719 9.925781 L 8.511719 9.949219 L 8.648438 9.960938 L 8.789062 9.949219 L 8.789062 9.9375 L 8.863281 9.960938 L 8.976562 9.976562 L 9.085938 9.988281 L 9.085938 9.976562 L 9.164062 10 L 9.3125 10.050781 L 9.476562 10.085938 L 9.648438 10.050781 L 9.648438 10.039062 L 9.675781 10.039062 L 9.789062 10.0625 L 9.886719 10.074219 L 10 10.074219 L 10.011719 10.085938 L 10.113281 10.164062 L 10.210938 10.210938 L 10.375 10.210938 L 10.476562 10.164062 L 10.5625 10.085938 L 10.675781 10.101562 L 10.8125 10.085938 L 10.960938 10.085938 L 10.960938 10.101562 L 11 10.125 L 11.136719 10.148438 L 11.273438 10.136719 L 11.414062 10.074219 L 11.539062 10.074219 L 11.6875 10.085938 L 11.8125 10.074219 L 11.886719 10.085938 L 12.0625 10.085938 L 12.175781 10.074219 L 12.238281 10.101562 L 12.3125 10.113281 L 12.386719 10.101562 L 12.460938 10.0625 L 12.476562 10.074219 L 12.574219 10.085938 L 12.886719 10.085938 L 12.988281 10.050781 L 13.125 10 L 13.324219 10 L 13.425781 9.988281 L 13.488281 10.011719 L 13.585938 10.039062 L 13.6875 10.050781 L 13.789062 10.039062 L 13.898438 10.011719 L 13.925781 10.023438 L 14.039062 10.074219 L 14.136719 10.113281 L 14.238281 10.113281 L 14.3125 10.074219 L 14.375 10.011719 L 14.414062 10.023438 L 14.476562 10.039062 L 14.539062 10.050781 L 14.601562 10.050781 L 14.664062 10.039062 L 14.726562 10.011719 L 14.8125 10.023438 L 14.914062 10.011719 L 15 9.976562 L 15.085938 9.976562 L 15.164062 9.960938 L 15.238281 9.925781 L 15.300781 9.875 L 15.3125 9.863281 L 15.386719 9.875 L 15.460938 9.863281 L 15.523438 9.875 L 15.636719 9.875 L 15.6875 9.835938 L 15.726562 9.8125 L 15.738281 9.789062 L 15.75 9.789062 L 15.789062 9.773438 L 15.824219 9.75 L 15.851562 9.6875 L 15.863281 9.613281 L 15.886719 9.613281 L 15.925781 9.601562 L 15.9375 9.5625 L 15.949219 9.574219 Z M 2.574219 7.449219 L 2.601562 7.386719 L 2.636719 7.398438 L 2.613281 7.425781 Z M 2.648438 6.601562 L 2.664062 6.664062 L 2.6875 6.789062 L 2.726562 6.988281 L 2.75 7.074219 L 2.699219 7.050781 L 2.710938 7.050781 L 2.6875 7.039062 L 2.625 6.988281 L 2.625 6.6875 L 2.636719 6.585938 Z M 2.648438 6.601562 "/>
</g>
</svg>
