
<svg xmlns="http://www.w3.org/2000/svg" xmlns:xlink="http://www.w3.org/1999/xlink" width="24px" height="24px" viewBox="0 0 24 24" version="1.1">
<g id="surface1">
<path style=" stroke:none;fill-rule:nonzero;fill:rgb(0%,0%,0%);fill-opacity:1;" d="M 18.449219 15.449219 C 18.375 15.601562 18.375 15.675781 18.375 15.75 C 18.074219 16.574219 17.625 17.324219 17.101562 18 C 16.875 18.300781 16.574219 18.601562 16.273438 18.824219 C 16.050781 18.976562 15.898438 19.125 15.675781 19.273438 C 15.523438 19.351562 15.300781 19.425781 15.148438 19.425781 L 14.699219 19.425781 C 14.476562 19.425781 14.25 19.351562 14.101562 19.273438 L 13.425781 19.050781 C 13.273438 18.976562 13.199219 18.976562 13.050781 18.898438 C 12.898438 18.824219 12.675781 18.824219 12.523438 18.824219 C 12.300781 18.824219 12.074219 18.824219 11.851562 18.898438 C 11.550781 18.976562 11.25 19.050781 10.949219 19.199219 C 10.800781 19.273438 10.726562 19.273438 10.574219 19.351562 C 10.351562 19.425781 10.125 19.5 9.898438 19.5 L 9.601562 19.5 C 9.375 19.5 9.148438 19.425781 9 19.273438 C 8.699219 19.125 8.398438 18.898438 8.175781 18.675781 C 7.949219 18.449219 7.726562 18.226562 7.574219 17.925781 C 7.199219 17.476562 6.898438 16.949219 6.675781 16.425781 C 6.375 15.824219 6.148438 15.226562 6 14.550781 C 5.925781 14.25 5.851562 13.949219 5.851562 13.574219 C 5.851562 13.351562 5.773438 13.125 5.773438 12.898438 L 5.773438 12.226562 C 5.773438 12.074219 5.773438 11.925781 5.851562 11.699219 C 5.851562 11.476562 5.925781 11.175781 6 10.949219 C 6.148438 10.273438 6.449219 9.75 6.898438 9.226562 C 7.351562 8.699219 7.949219 8.324219 8.550781 8.175781 C 8.851562 8.101562 9.226562 8.023438 9.523438 8.023438 L 10.273438 8.023438 C 10.5 8.023438 10.726562 8.101562 10.949219 8.175781 C 11.101562 8.25 11.324219 8.324219 11.476562 8.398438 C 11.625 8.476562 11.773438 8.550781 11.925781 8.550781 C 12.074219 8.625 12.300781 8.625 12.449219 8.625 C 12.601562 8.625 12.824219 8.550781 12.976562 8.476562 L 13.648438 8.25 C 14.023438 8.101562 14.476562 8.023438 14.925781 8.023438 C 15.300781 8.023438 15.675781 8.023438 15.976562 8.101562 C 16.351562 8.175781 16.648438 8.25 16.949219 8.476562 C 17.476562 8.699219 17.851562 9.074219 18.226562 9.523438 C 18 9.675781 17.773438 9.898438 17.550781 10.125 C 17.25 10.425781 17.023438 10.726562 16.875 11.023438 C 16.726562 11.398438 16.574219 11.699219 16.574219 12.074219 L 16.574219 12.601562 C 16.574219 12.824219 16.648438 12.976562 16.648438 13.199219 C 16.800781 13.800781 17.101562 14.25 17.550781 14.699219 C 17.773438 14.925781 18.074219 15.148438 18.449219 15.375 C 18.300781 15.375 18.375 15.375 18.449219 15.449219 Z M 18.449219 15.449219 "/>
<path style=" stroke:none;fill-rule:nonzero;fill:rgb(0%,0%,0%);fill-opacity:1;" d="M 15 4.5 L 15 5.101562 C 15 5.625 14.773438 6.148438 14.476562 6.601562 C 14.175781 7.050781 13.800781 7.425781 13.351562 7.648438 C 13.050781 7.875 12.675781 7.949219 12.300781 8.023438 L 11.925781 8.023438 L 11.925781 7.648438 C 11.925781 7.351562 11.925781 7.125 12 6.824219 C 12.074219 6.449219 12.300781 6.148438 12.523438 5.851562 C 12.824219 5.476562 13.125 5.175781 13.5 4.949219 C 13.875 4.726562 14.25 4.5 14.699219 4.425781 C 14.773438 4.5 14.851562 4.5 15 4.5 Z M 15 4.5 "/>
</g>
</svg>
