
<svg xmlns="http://www.w3.org/2000/svg" xmlns:xlink="http://www.w3.org/1999/xlink" width="24px" height="24px" viewBox="0 0 24 24" version="1.1">
<g id="surface1">
<path style=" stroke:none;fill-rule:nonzero;fill:rgb(0%,0%,0%);fill-opacity:1;" d="M 4.5 14.71875 L 6.464844 9.257812 L 7.492188 9.257812 L 9.460938 14.71875 L 8.386719 14.71875 L 7.851562 13.257812 L 5.796875 13.257812 L 5.257812 14.71875 Z M 6.019531 12.574219 L 7.582031 12.574219 L 6.824219 10.378906 Z M 9.730469 14.671875 L 9.730469 13.742188 C 10.445312 13.988281 11.023438 14.132812 11.515625 14.132812 C 11.917969 14.132812 12.1875 14.035156 12.367188 13.9375 C 12.589844 13.792969 12.679688 13.644531 12.679688 13.402344 C 12.679688 13.207031 12.632812 13.0625 12.5 12.964844 C 12.367188 12.816406 12.140625 12.671875 11.785156 12.523438 L 11.335938 12.328125 C 10.757812 12.039062 10.355469 11.746094 10.085938 11.5 C 9.863281 11.257812 9.730469 10.964844 9.730469 10.625 C 9.730469 10.183594 9.90625 9.796875 10.308594 9.550781 C 10.710938 9.257812 11.25 9.113281 11.917969 9.113281 C 12.457031 9.113281 13.035156 9.160156 13.660156 9.308594 L 13.660156 10.183594 C 12.992188 9.988281 12.457031 9.890625 12.054688 9.890625 C 11.742188 9.890625 11.515625 9.941406 11.335938 10.039062 C 11.160156 10.183594 11.070312 10.332031 11.070312 10.476562 C 11.070312 10.625 11.113281 10.769531 11.25 10.867188 C 11.382812 10.964844 11.605469 11.109375 11.964844 11.304688 L 12.410156 11.5 C 13.035156 11.792969 13.484375 12.085938 13.707031 12.328125 C 13.929688 12.574219 14.066406 12.867188 14.066406 13.257812 C 14.066406 13.742188 13.839844 14.183594 13.394531 14.425781 C 12.992188 14.71875 12.367188 14.863281 11.5625 14.863281 C 11.070312 14.863281 10.445312 14.816406 9.730469 14.671875 Z M 14.46875 14.71875 L 14.46875 9.308594 L 15.851562 9.308594 L 17.058594 13.160156 L 18.3125 9.308594 L 19.519531 9.308594 L 19.519531 14.71875 L 18.535156 14.71875 L 18.535156 10.574219 L 17.328125 14.328125 L 16.476562 14.328125 L 15.273438 10.527344 L 15.273438 14.71875 L 14.464844 14.71875 Z M 14.46875 14.71875 "/>
</g>
</svg>
