
<svg xmlns="http://www.w3.org/2000/svg" xmlns:xlink="http://www.w3.org/1999/xlink" width="24px" height="24px" viewBox="0 0 24 24" version="1.1">
<g id="surface1">
<path style=" stroke:none;fill-rule:nonzero;fill:rgb(0%,0%,0%);fill-opacity:1;" d="M 12.226562 17.851562 C 12.074219 17.851562 11.925781 17.699219 11.773438 17.625 C 10.648438 16.648438 9.523438 15.675781 8.324219 14.699219 C 8.25 14.625 8.25 14.625 8.175781 14.625 L 5.023438 14.625 C 4.726562 14.625 4.574219 14.476562 4.5 14.25 L 4.5 9.976562 C 4.5 9.601562 4.726562 9.375 5.101562 9.375 L 8.25 9.375 C 8.324219 9.375 8.398438 9.375 8.398438 9.300781 C 9.523438 8.324219 10.726562 7.273438 11.851562 6.300781 C 12.148438 6.074219 12.449219 6.074219 12.675781 6.375 C 12.75 6.449219 12.75 6.601562 12.75 6.675781 L 12.75 17.25 C 12.75 17.476562 12.675781 17.699219 12.449219 17.773438 C 12.375 17.773438 12.375 17.773438 12.300781 17.851562 Z M 19.5 12.074219 C 19.5 12.300781 19.5 12.523438 19.425781 12.75 C 19.351562 13.648438 19.125 14.550781 18.75 15.449219 C 18.449219 16.199219 18.074219 16.875 17.550781 17.476562 C 17.476562 17.625 17.324219 17.699219 17.101562 17.773438 C 16.875 17.773438 16.726562 17.699219 16.574219 17.550781 C 16.425781 17.398438 16.425781 17.175781 16.574219 17.023438 C 16.648438 16.875 16.800781 16.726562 16.875 16.574219 C 17.625 15.523438 18.074219 14.398438 18.226562 13.199219 C 18.523438 10.949219 18 8.925781 16.574219 7.125 C 16.425781 6.898438 16.351562 6.675781 16.574219 6.449219 C 16.800781 6.148438 17.175781 6.148438 17.476562 6.449219 C 18 7.125 18.449219 7.800781 18.75 8.625 C 19.125 9.523438 19.351562 10.5 19.425781 11.476562 L 19.425781 12 C 19.5 12 19.5 12.074219 19.5 12.074219 Z M 19.5 12.074219 "/>
<path style=" stroke:none;fill-rule:nonzero;fill:rgb(0%,0%,0%);fill-opacity:1;" d="M 17.476562 11.925781 C 17.476562 13.5 17.023438 14.851562 16.199219 16.050781 C 16.125 16.199219 15.976562 16.273438 15.75 16.351562 C 15.523438 16.351562 15.375 16.273438 15.226562 16.125 C 15.074219 15.976562 15.074219 15.75 15.226562 15.523438 C 15.226562 15.449219 15.300781 15.449219 15.300781 15.375 C 15.898438 14.550781 16.199219 13.726562 16.351562 12.75 C 16.574219 11.175781 16.199219 9.75 15.226562 8.398438 C 15.148438 8.25 15.074219 8.101562 15.074219 7.949219 C 15.148438 7.726562 15.226562 7.574219 15.449219 7.5 C 15.675781 7.425781 15.898438 7.5 16.050781 7.726562 C 16.273438 8.023438 16.5 8.398438 16.726562 8.773438 C 17.101562 9.601562 17.398438 10.5 17.398438 11.398438 C 17.476562 11.699219 17.476562 11.851562 17.476562 11.925781 Z M 17.476562 11.925781 "/>
<path style=" stroke:none;fill-rule:nonzero;fill:rgb(0%,0%,0%);fill-opacity:1;" d="M 15.375 12 C 15.375 12.898438 15.148438 13.800781 14.625 14.550781 C 14.476562 14.851562 14.175781 14.925781 13.875 14.773438 C 13.648438 14.625 13.5 14.324219 13.726562 14.023438 C 14.023438 13.574219 14.175781 13.050781 14.25 12.523438 C 14.398438 11.625 14.175781 10.726562 13.726562 9.976562 C 13.574219 9.675781 13.648438 9.375 13.875 9.226562 C 14.101562 9.074219 14.476562 9.148438 14.625 9.375 C 14.925781 9.824219 15.074219 10.273438 15.226562 10.800781 C 15.300781 11.25 15.375 11.625 15.375 12 Z M 15.375 12 "/>
</g>
</svg>
