
<svg xmlns="http://www.w3.org/2000/svg" xmlns:xlink="http://www.w3.org/1999/xlink" width="24px" height="24px" viewBox="0 0 24 24" version="1.1">
<g id="surface1">
<path style=" stroke:none;fill-rule:nonzero;fill:rgb(0%,0%,0%);fill-opacity:1;" d="M 16.769531 9.285156 L 18.175781 8.019531 C 18.554688 7.417969 18.753906 6.726562 18.75 6.015625 L 18.75 5.859375 C 18.75 5.699219 18.699219 5.542969 18.644531 5.4375 C 18.386719 4.910156 17.914062 4.539062 17.34375 4.328125 C 16.820312 3.960938 15.882812 3.800781 14.527344 3.75 C 13.015625 3.960938 11.558594 4.328125 10.203125 4.910156 C 9.679688 5.277344 9.105469 5.648438 8.535156 5.964844 L 8.535156 6.070312 C 8.585938 6.070312 8.636719 6.015625 8.691406 6.015625 C 8.742188 6.015625 8.792969 6.015625 8.792969 6.070312 L 8.898438 6.015625 L 8.953125 6.015625 L 8.953125 6.070312 C 8.953125 6.070312 8.898438 6.175781 8.691406 6.28125 C 8.480469 6.386719 8.167969 6.648438 7.753906 6.964844 L 7.90625 7.070312 L 7.804688 7.019531 C 7.804688 7.070312 7.75 7.070312 7.648438 7.070312 L 7.648438 7.125 L 7.753906 7.28125 C 7.699219 7.28125 7.648438 7.28125 7.59375 7.230469 C 7.28125 7.28125 7.023438 7.492188 6.867188 7.757812 L 6.867188 7.96875 C 6.96875 7.863281 7.074219 7.757812 7.230469 7.652344 L 7.230469 7.808594 L 7.179688 7.808594 L 7.074219 7.863281 L 7.074219 7.914062 L 7.179688 8.074219 L 7.179688 8.125 C 7.21875 8.046875 7.269531 7.976562 7.335938 7.914062 L 7.597656 7.652344 L 7.699219 7.546875 L 7.753906 7.492188 L 8.011719 7.335938 C 8.167969 7.386719 8.222656 7.441406 8.222656 7.492188 L 8.324219 7.492188 C 9.105469 6.914062 9.941406 6.4375 10.828125 6.121094 L 10.828125 6.226562 C 10.773438 6.332031 10.671875 6.4375 10.617188 6.492188 C 10.566406 6.542969 10.566406 6.542969 10.515625 6.542969 C 10.515625 6.597656 10.566406 6.703125 10.621094 6.753906 C 10.304688 7.757812 9.941406 8.707031 9.472656 9.601562 C 8.277344 12.753906 6.867188 15.816406 5.25 18.773438 C 5.25 18.828125 5.300781 18.878906 5.300781 18.929688 L 5.457031 18.878906 C 5.613281 18.828125 5.71875 18.773438 5.824219 18.722656 L 5.875 18.722656 L 5.875 18.828125 L 5.980469 18.828125 L 6.085938 18.773438 L 6.1875 18.773438 L 6.1875 18.984375 C 6.136719 19.089844 6.085938 19.25 6.03125 19.355469 C 5.875 19.617188 5.71875 19.882812 5.667969 20.199219 L 5.667969 20.25 L 5.824219 20.25 L 5.980469 20.039062 C 6.34375 19.617188 6.65625 19.195312 6.867188 18.722656 L 7.386719 18.5625 C 7.753906 18.457031 8.066406 18.351562 8.324219 18.246094 L 8.429688 18.195312 C 8.949219 17.984375 9.472656 17.773438 9.992188 17.507812 C 10.566406 17.507812 11.191406 17.296875 11.660156 16.929688 L 11.660156 16.875 L 11.402344 16.980469 L 11.347656 16.980469 L 11.347656 16.875 C 11.765625 16.824219 12.128906 16.71875 12.441406 16.507812 C 13.214844 15.914062 14 15.335938 14.789062 14.765625 C 16.40625 13.554688 17.1875 12.394531 17.132812 11.289062 C 16.875 10.867188 16.5625 10.445312 16.195312 10.128906 L 16.039062 9.917969 C 16.039062 9.8125 16.246094 9.601562 16.769531 9.285156 Z M 14.265625 13.292969 L 12.808594 14.449219 C 12.234375 14.820312 11.660156 15.1875 11.089844 15.503906 C 10.152344 16.085938 9.15625 16.5625 8.117188 16.929688 C 8.0625 16.929688 7.960938 16.980469 7.90625 16.980469 L 7.855469 16.980469 C 7.90625 16.769531 8.691406 15.242188 10.148438 12.289062 C 11.191406 12.128906 12.210938 11.828125 13.171875 11.394531 L 13.539062 11.339844 C 14.109375 11.234375 14.683594 11.394531 15.101562 11.761719 L 15.101562 11.972656 C 14.839844 12.710938 14.578125 13.132812 14.265625 13.292969 Z M 15.152344 8.496094 C 14.785156 8.867188 14.363281 9.1875 13.902344 9.441406 C 13.070312 9.707031 12.234375 10.023438 11.453125 10.445312 C 11.398438 10.445312 11.398438 10.445312 11.347656 10.394531 L 11.191406 10.394531 L 11.191406 10.285156 C 11.191406 10.023438 11.296875 9.707031 11.453125 9.496094 C 11.558594 8.914062 11.660156 8.546875 11.816406 8.496094 L 13.015625 5.804688 C 13.015625 5.648438 13.277344 5.488281 13.796875 5.4375 L 13.953125 5.4375 L 13.953125 5.59375 C 14.476562 5.488281 14.789062 5.488281 14.894531 5.488281 C 15.777344 5.382812 16.246094 5.59375 16.351562 5.964844 L 16.351562 6.070312 L 16.457031 6.070312 L 16.457031 5.699219 L 16.5625 5.699219 C 16.769531 5.804688 16.925781 5.964844 16.976562 6.175781 L 16.976562 6.28125 C 16.976562 6.492188 16.875 6.703125 16.71875 6.859375 C 16.664062 6.859375 16.613281 6.808594 16.613281 6.703125 L 16.507812 6.703125 L 16.507812 7.019531 C 16.039062 7.757812 15.675781 8.125 15.464844 8.125 C 15.371094 8.257812 15.265625 8.378906 15.152344 8.496094 Z M 15.152344 8.496094 "/>
</g>
</svg>
