
<svg xmlns="http://www.w3.org/2000/svg" xmlns:xlink="http://www.w3.org/1999/xlink" width="16px" height="16px" viewBox="0 0 16 16" version="1.1">
<g id="surface1">
<path style=" stroke:none;fill-rule:nonzero;fill:rgb(16.078432%,19.215687%,21.960784%);fill-opacity:1;" d="M 13.625 3.578125 L 8.910156 0.78125 C 8.628906 0.613281 8.3125 0.53125 8 0.53125 C 7.6875 0.53125 7.371094 0.613281 7.089844 0.78125 L 2.371094 3.582031 C 1.808594 3.914062 1.460938 4.53125 1.460938 5.203125 L 1.460938 10.800781 C 1.460938 11.46875 1.808594 12.085938 2.371094 12.421875 L 7.089844 15.222656 C 7.371094 15.390625 7.683594 15.472656 8 15.472656 C 8.3125 15.472656 8.628906 15.386719 8.910156 15.222656 L 13.625 12.421875 C 14.1875 12.085938 14.535156 11.46875 14.535156 10.800781 L 14.535156 5.199219 C 14.535156 4.53125 14.191406 3.914062 13.625 3.578125 Z M 9.972656 12.324219 L 9.980469 12.726562 C 9.980469 12.773438 9.949219 12.828125 9.914062 12.851562 L 9.671875 12.988281 C 9.636719 13.007812 9.605469 12.984375 9.605469 12.933594 L 9.601562 12.539062 C 9.394531 12.625 9.1875 12.644531 9.058594 12.589844 C 9.03125 12.582031 9.019531 12.546875 9.03125 12.503906 L 9.117188 12.140625 C 9.125 12.109375 9.140625 12.082031 9.160156 12.0625 C 9.167969 12.054688 9.175781 12.050781 9.183594 12.046875 C 9.195312 12.039062 9.210938 12.039062 9.222656 12.042969 C 9.363281 12.089844 9.546875 12.070312 9.71875 11.980469 C 9.941406 11.867188 10.089844 11.640625 10.089844 11.417969 C 10.085938 11.210938 9.976562 11.128906 9.707031 11.125 C 9.363281 11.125 9.046875 11.058594 9.039062 10.554688 C 9.035156 10.140625 9.25 9.707031 9.59375 9.433594 L 9.589844 9.027344 C 9.589844 8.976562 9.621094 8.921875 9.660156 8.902344 L 9.890625 8.753906 C 9.925781 8.734375 9.960938 8.761719 9.960938 8.808594 L 9.964844 9.214844 C 10.132812 9.148438 10.28125 9.128906 10.414062 9.160156 C 10.445312 9.167969 10.457031 9.207031 10.445312 9.253906 L 10.355469 9.613281 C 10.347656 9.640625 10.332031 9.667969 10.3125 9.6875 C 10.304688 9.695312 10.296875 9.699219 10.289062 9.703125 C 10.277344 9.710938 10.265625 9.710938 10.253906 9.710938 C 10.195312 9.695312 10.046875 9.664062 9.820312 9.78125 C 9.578125 9.902344 9.496094 10.109375 9.496094 10.265625 C 9.5 10.449219 9.59375 10.507812 9.921875 10.511719 C 10.359375 10.519531 10.546875 10.707031 10.550781 11.148438 C 10.554688 11.578125 10.328125 12.042969 9.972656 12.324219 Z M 12.445312 11.648438 C 12.445312 11.683594 12.441406 11.71875 12.410156 11.738281 L 11.21875 12.460938 C 11.1875 12.480469 11.160156 12.464844 11.160156 12.425781 L 11.160156 12.121094 C 11.160156 12.082031 11.183594 12.0625 11.214844 12.042969 L 12.390625 11.339844 C 12.421875 11.324219 12.445312 11.339844 12.445312 11.375 Z M 13.265625 4.761719 L 8.804688 7.515625 C 8.246094 7.84375 7.835938 8.207031 7.835938 8.878906 L 7.835938 14.378906 C 7.835938 14.777344 8 15.039062 8.246094 15.113281 C 8.167969 15.128906 8.082031 15.140625 8 15.140625 C 7.738281 15.140625 7.480469 15.066406 7.253906 14.933594 L 2.539062 12.132812 C 2.078125 11.859375 1.792969 11.347656 1.792969 10.800781 L 1.792969 5.199219 C 1.792969 4.652344 2.078125 4.140625 2.539062 3.867188 L 7.257812 1.066406 C 7.484375 0.933594 7.738281 0.859375 8 0.859375 C 8.261719 0.859375 8.519531 0.933594 8.746094 1.066406 L 13.464844 3.867188 C 13.851562 4.097656 14.113281 4.496094 14.1875 4.945312 C 14.03125 4.609375 13.675781 4.519531 13.265625 4.761719 Z M 13.265625 4.761719 "/>
</g>
</svg>
