
<svg xmlns="http://www.w3.org/2000/svg" xmlns:xlink="http://www.w3.org/1999/xlink" width="16px" height="16px" viewBox="0 0 16 16" version="1.1">
<g id="surface1">
<path style=" stroke:none;fill-rule:nonzero;fill:rgb(11.372549%,11.372549%,10.588235%);fill-opacity:1;" d="M 6.066406 6.03125 C 6.066406 5.136719 5.457031 5.136719 5.457031 5.136719 L 2.957031 5.136719 L 2.957031 7.054688 L 5.300781 7.054688 C 5.707031 7.054688 6.066406 6.925781 6.066406 6.03125 Z M 6.066406 6.03125 "/>
<path style=" stroke:none;fill-rule:nonzero;fill:rgb(11.372549%,11.372549%,10.588235%);fill-opacity:1;" d="M 5.457031 8.382812 L 2.957031 8.382812 L 2.957031 10.679688 L 5.34375 10.679688 C 5.703125 10.671875 6.367188 10.554688 6.367188 9.5625 C 6.363281 8.375 5.457031 8.382812 5.457031 8.382812 Z M 5.457031 8.382812 "/>
<path style=" stroke:none;fill-rule:nonzero;fill:rgb(11.372549%,11.372549%,10.588235%);fill-opacity:1;" d="M 11.867188 7.054688 C 10.539062 7.054688 10.351562 8.382812 10.351562 8.382812 L 13.175781 8.382812 C 13.175781 8.382812 13.195312 7.054688 11.867188 7.054688 Z M 11.867188 7.054688 "/>
<path style=" stroke:none;fill-rule:nonzero;fill:rgb(11.372549%,11.372549%,10.588235%);fill-opacity:1;" d="M 13.90625 0.269531 L 2.09375 0.269531 C 1.085938 0.269531 0.269531 1.085938 0.269531 2.09375 L 0.269531 13.90625 C 0.269531 14.914062 1.085938 15.730469 2.09375 15.730469 L 13.90625 15.730469 C 14.914062 15.730469 15.730469 14.914062 15.730469 13.90625 L 15.730469 2.09375 C 15.730469 1.085938 14.914062 0.269531 13.90625 0.269531 Z M 9.984375 4.113281 L 13.53125 4.113281 L 13.53125 5.175781 L 9.984375 5.175781 Z M 8.1875 9.671875 C 8.1875 12.296875 5.457031 12.207031 5.457031 12.207031 L 0.984375 12.207031 L 0.984375 3.609375 L 5.457031 3.609375 C 6.816406 3.609375 7.890625 4.359375 7.890625 5.898438 C 7.890625 7.4375 6.578125 7.535156 6.578125 7.535156 C 8.308594 7.535156 8.1875 9.671875 8.1875 9.671875 Z M 14.824219 9.53125 L 10.375 9.53125 C 10.375 11.128906 11.890625 11.03125 11.890625 11.03125 C 13.316406 11.03125 13.265625 10.105469 13.265625 10.105469 L 14.773438 10.105469 C 14.773438 12.558594 11.832031 12.390625 11.832031 12.390625 C 8.300781 12.390625 8.527344 9.105469 8.527344 9.105469 C 8.527344 9.105469 8.527344 5.800781 11.832031 5.800781 C 15.3125 5.796875 14.828125 9.53125 14.828125 9.53125 Z M 14.824219 9.53125 "/>
</g>
</svg>
