
<svg xmlns="http://www.w3.org/2000/svg" xmlns:xlink="http://www.w3.org/1999/xlink" width="16px" height="16px" viewBox="0 0 16 16" version="1.1">
<g id="surface1">
<path style=" stroke:none;fill-rule:nonzero;fill:rgb(35.686275%,25.882354%,50.980395%);fill-opacity:1;" d="M 9.460938 8.199219 C 9.171875 8.105469 8.75 8.125 8.203125 8.125 L 6 8.125 L 6 11 L 8.355469 11 C 8.722656 11 8.980469 10.960938 9.132812 10.933594 C 9.394531 10.886719 9.613281 10.796875 9.789062 10.683594 C 9.964844 10.574219 10.109375 10.410156 10.222656 10.199219 C 10.335938 9.992188 10.394531 9.746094 10.394531 9.472656 C 10.394531 9.152344 10.3125 8.902344 10.148438 8.667969 C 9.984375 8.429688 9.753906 8.296875 9.460938 8.199219 Z M 9.160156 6.886719 C 9.449219 6.800781 9.667969 6.648438 9.816406 6.449219 C 9.960938 6.25 10.035156 5.996094 10.035156 5.695312 C 10.035156 5.410156 9.96875 5.15625 9.828125 4.9375 C 9.691406 4.71875 9.496094 4.636719 9.242188 4.554688 C 8.988281 4.476562 8.550781 4.5 7.933594 4.5 L 6 4.5 L 6 7 L 8.074219 7 C 8.578125 7 8.941406 6.953125 9.160156 6.886719 Z M 15.75 2.328125 C 15.75 1.179688 14.820312 0.25 13.671875 0.25 L 2.203125 0.25 C 1.054688 0.25 0.125 1.179688 0.125 2.328125 L 0.125 13.796875 C 0.125 14.945312 1.054688 15.875 2.203125 15.875 L 13.671875 15.875 C 14.820312 15.875 15.75 14.945312 15.75 13.796875 Z M 11.320312 10.59375 C 11.148438 10.941406 10.9375 11.207031 10.6875 11.394531 C 10.4375 11.582031 10.121094 11.742188 9.746094 11.839844 C 9.367188 11.933594 8.902344 12 8.355469 12 L 4.875 12 L 4.875 3.375 L 8.300781 3.375 C 8.960938 3.375 9.488281 3.449219 9.886719 3.625 C 10.285156 3.800781 10.59375 4.0625 10.820312 4.425781 C 11.046875 4.785156 11.15625 5.164062 11.15625 5.558594 C 11.15625 5.925781 11.058594 6.273438 10.859375 6.597656 C 10.660156 6.921875 10.355469 7.183594 9.953125 7.382812 C 10.472656 7.535156 10.875 7.796875 11.15625 8.164062 C 11.433594 8.53125 11.574219 8.96875 11.574219 9.46875 C 11.574219 9.871094 11.488281 10.246094 11.320312 10.59375 Z M 11.320312 10.59375 "/>
</g>
</svg>
