
<svg xmlns="http://www.w3.org/2000/svg" xmlns:xlink="http://www.w3.org/1999/xlink" width="24px" height="24px" viewBox="0 0 24 24" version="1.1">
<g id="surface1">
<path style=" stroke:none;fill-rule:nonzero;fill:rgb(93.725491%,46.27451%,13.725491%);fill-opacity:1;" d="M 18.824219 11.625 C 18.601562 11.550781 18.375 11.398438 18.074219 11.324219 C 16.726562 10.949219 15.375 10.800781 14.023438 10.574219 C 13.800781 10.574219 13.574219 10.5 13.273438 10.5 C 13.351562 10.125 13.5 9.976562 14.023438 9.898438 C 14.101562 9.976562 14.101562 10.125 14.175781 10.199219 C 14.175781 10.273438 14.25 10.351562 14.324219 10.273438 L 14.851562 10.273438 C 15.75 10.125 16.351562 9.675781 16.726562 8.773438 C 16.800781 8.476562 16.875 8.175781 16.949219 7.949219 C 17.023438 7.351562 17.25 6.75 17.699219 6.300781 L 17.851562 6.148438 C 16.800781 5.851562 14.925781 6.523438 14.175781 8.101562 C 14.023438 8.023438 13.800781 8.023438 13.648438 7.949219 C 13.574219 7.949219 13.5 7.875 13.5 7.800781 C 13.199219 6.976562 12.675781 6.300781 11.851562 5.773438 C 11.25 5.398438 10.425781 5.324219 9.75 5.398438 C 8.175781 5.625 6.898438 6.375 5.925781 7.574219 C 4.949219 8.773438 4.5 10.273438 4.574219 11.773438 C 4.648438 13.351562 5.175781 14.851562 6.074219 16.199219 C 6.375 16.648438 6.898438 17.101562 7.273438 17.476562 C 7.800781 17.773438 8.476562 17.773438 8.925781 17.324219 C 9 17.25 9.074219 17.101562 9.148438 17.023438 C 9.148438 17.101562 9.226562 17.101562 9.226562 17.175781 C 9.375 17.476562 9.449219 17.925781 9.601562 18.148438 C 9.75 18.449219 10.273438 18.675781 10.648438 18.523438 C 10.726562 18.449219 10.800781 18.449219 10.875 18.523438 C 11.175781 18.675781 11.476562 18.675781 11.773438 18.523438 C 11.925781 18.449219 12 18.300781 12.148438 18.300781 C 12.300781 18.226562 12.449219 18.300781 12.601562 18.300781 C 12.976562 18.226562 13.351562 18.074219 13.351562 17.550781 C 13.351562 17.550781 13.351562 17.476562 13.425781 17.476562 C 13.574219 17.398438 13.726562 17.25 13.726562 17.101562 C 13.800781 16.875 13.800781 16.648438 13.726562 16.351562 C 13.5 15.976562 13.273438 15.449219 12.976562 15.074219 L 12.898438 15 C 13.125 15.074219 13.351562 15.148438 13.648438 15.226562 C 14.023438 15.300781 14.398438 15.300781 14.699219 15 C 14.773438 15 14.773438 15.074219 14.851562 15.074219 C 15.449219 15.449219 16.273438 15.300781 16.726562 14.773438 L 16.875 14.773438 C 17.324219 14.851562 17.699219 14.773438 18.074219 14.476562 C 18.226562 14.324219 18.375 14.175781 18.375 13.949219 L 18.375 13.875 C 19.125 13.800781 19.5 13.5 19.5 12.75 C 19.425781 12.226562 19.273438 11.851562 18.824219 11.625 Z M 15.523438 9.601562 C 15.226562 9.75 14.925781 9.824219 14.476562 9.824219 C 14.476562 9.824219 14.398438 9.824219 14.398438 9.75 C 14.324219 9.601562 14.324219 9.449219 14.25 9.300781 C 14.25 9.226562 14.25 9.226562 14.324219 9.226562 C 14.550781 9.226562 14.625 9.226562 14.625 9.523438 C 14.773438 9.300781 14.773438 9.300781 15 9.375 C 15.148438 9.449219 15.300781 9.449219 15.449219 9.523438 C 15.601562 9.601562 15.601562 9.601562 15.523438 9.601562 Z M 14.550781 8.023438 C 14.851562 7.5 15.300781 7.125 15.675781 6.824219 C 16.050781 6.601562 16.425781 6.449219 16.875 6.449219 C 16.800781 6.523438 16.726562 6.601562 16.648438 6.75 C 16.425781 7.050781 16.425781 7.5 16.351562 7.800781 C 16.273438 8.175781 16.199219 8.550781 16.050781 8.925781 C 16.050781 9.074219 15.898438 9.148438 15.898438 9.226562 C 15.675781 9 15.449219 8.851562 15.148438 8.625 L 15.148438 8.476562 C 15.449219 7.949219 15.75 7.351562 16.273438 6.976562 C 15.523438 7.273438 15.226562 7.800781 14.851562 8.476562 C 14.699219 8.398438 14.625 8.324219 14.476562 8.25 C 14.476562 8.175781 14.550781 8.101562 14.550781 8.023438 Z M 12.523438 9.300781 C 12.523438 8.925781 12.601562 8.550781 12.824219 8.25 C 12.824219 8.175781 12.976562 8.175781 12.976562 8.175781 C 13.726562 8.25 14.324219 8.476562 14.925781 8.925781 C 15.074219 9 15.148438 9.148438 15.300781 9.226562 C 15.148438 9.148438 14.925781 9.148438 14.773438 9.074219 C 14.398438 9 13.949219 9 13.574219 9.148438 C 13.273438 9.375 12.898438 9.375 12.523438 9.300781 C 12.75 9.523438 12.976562 9.523438 13.273438 9.449219 C 13.5 9.449219 13.648438 9.375 13.875 9.300781 C 13.875 9.375 13.800781 9.449219 13.800781 9.449219 C 13.5 9.675781 13.050781 9.824219 12.675781 9.976562 L 12.601562 9.976562 C 12.523438 9.75 12.523438 9.523438 12.523438 9.300781 Z M 10.273438 7.5 C 10.949219 7.5 11.625 8.101562 11.625 8.851562 C 11.625 9.601562 11.023438 10.199219 10.273438 10.199219 C 9.523438 10.199219 8.925781 9.601562 8.925781 8.851562 C 8.925781 8.023438 9.523438 7.5 10.273438 7.5 Z M 13.726562 12.074219 C 14.023438 12.148438 14.476562 12.226562 14.773438 12.226562 C 15.226562 12.300781 15.601562 12.375 16.125 12.449219 C 16.273438 12.449219 16.351562 12.523438 16.199219 12.675781 C 16.050781 12.898438 15.675781 13.050781 15.375 12.976562 L 15.226562 12.976562 C 15.300781 13.125 15.226562 13.351562 15.074219 13.425781 C 14.851562 13.648438 14.625 13.726562 14.324219 13.726562 C 14.175781 13.726562 13.949219 13.648438 13.800781 13.648438 C 13.726562 14.101562 12.898438 14.25 12.375 13.875 C 12.449219 14.101562 12.523438 14.324219 12.601562 14.625 L 12.601562 14.851562 C 12.449219 15.976562 11.550781 16.800781 10.425781 16.875 C 9.375 16.949219 8.324219 16.648438 7.425781 15.976562 C 6.601562 15.449219 6 14.699219 5.625 13.875 C 5.625 13.800781 5.550781 13.800781 5.550781 13.726562 C 5.851562 13.800781 6.148438 13.875 6.375 13.949219 C 6.898438 14.023438 7.425781 14.023438 7.949219 13.648438 L 8.101562 13.648438 C 8.625 13.800781 9.148438 13.875 9.75 13.800781 C 10.574219 13.648438 11.175781 13.199219 11.773438 12.523438 C 12 12.300781 12.148438 12 12.300781 11.699219 C 12.449219 11.476562 12.601562 11.324219 12.75 11.175781 L 12.898438 11.175781 C 13.5 11.25 14.101562 11.324219 14.773438 11.398438 C 15.601562 11.550781 16.351562 11.699219 17.25 11.851562 C 17.25 11.851562 17.324219 11.851562 17.324219 11.925781 C 16.199219 12 14.925781 12.148438 13.726562 12.074219 Z M 10.273438 9.601562 C 10.726562 9.601562 11.101562 9.300781 11.101562 8.851562 C 11.101562 8.398438 10.726562 8.101562 10.273438 8.101562 C 9.824219 8.101562 9.449219 8.476562 9.449219 8.851562 C 9.449219 9.226562 9.75 9.601562 10.273438 9.601562 Z M 9.824219 8.25 C 9.898438 8.175781 10.050781 8.175781 10.199219 8.101562 C 10.351562 8.175781 10.425781 8.175781 10.574219 8.25 C 10.726562 8.324219 10.726562 8.476562 10.574219 8.625 C 10.425781 8.773438 10.050781 8.773438 9.75 8.625 C 9.675781 8.476562 9.675781 8.324219 9.824219 8.25 Z M 9.824219 8.25 "/>
</g>
</svg>
