
<svg xmlns="http://www.w3.org/2000/svg" xmlns:xlink="http://www.w3.org/1999/xlink" width="24px" height="24px" viewBox="0 0 24 24" version="1.1">
<g id="surface1">
<path style=" stroke:none;fill-rule:nonzero;fill:rgb(0%,0%,0%);fill-opacity:1;" d="M 12.601562 14.25 L 12.601562 16.5 L 20.25 16.5 L 20.25 14.25 Z M 5.25 7.5 L 7.5 7.5 L 7.5 16.5 L 5.25 16.5 Z M 3.75 8.25 L 5.25 8.25 L 5.25 10.5 L 3.75 10.5 Z M 3.75 8.25 "/>
<path style=" stroke:none;fill-rule:nonzero;fill:rgb(0%,0%,0%);fill-opacity:1;" d="M 10.5 12 C 10.5 10.726562 11.476562 9.75 12.75 9.75 C 13.726562 9.75 14.550781 10.351562 14.851562 11.25 L 17.175781 11.25 C 16.800781 9.148438 15 7.5 12.75 7.5 C 10.273438 7.5 8.25 9.523438 8.25 12 C 8.25 14.476562 10.273438 16.5 12.75 16.5 C 14.398438 16.5 15.898438 15.601562 16.648438 14.25 L 12.75 14.25 C 11.476562 14.25 10.5 13.273438 10.5 12 Z M 10.5 12 "/>
</g>
</svg>
