
<svg xmlns="http://www.w3.org/2000/svg" xmlns:xlink="http://www.w3.org/1999/xlink" width="24px" height="24px" viewBox="0 0 24 24" version="1.1">
<g id="surface1">
<path style=" stroke:none;fill-rule:nonzero;fill:rgb(32.156864%,60.784316%,72.941178%);fill-opacity:1;" d="M 5.324219 11.925781 C 5.324219 10.949219 5.476562 10.125 5.773438 9.375 C 6.074219 8.625 6.449219 8.023438 6.976562 7.5 C 7.5 6.976562 8.101562 6.601562 8.773438 6.300781 C 9.449219 6 10.199219 5.925781 10.949219 5.925781 C 11.699219 5.925781 12.375 6.074219 12.976562 6.375 C 13.574219 6.675781 14.101562 7.050781 14.476562 7.425781 L 12.824219 9.300781 C 12.523438 9.074219 12.300781 8.851562 12 8.773438 C 11.699219 8.699219 11.398438 8.550781 10.949219 8.550781 C 10.574219 8.550781 10.273438 8.625 9.976562 8.773438 C 9.675781 8.925781 9.375 9.148438 9.148438 9.449219 C 8.925781 9.75 8.773438 10.050781 8.625 10.5 C 8.476562 10.949219 8.398438 11.398438 8.398438 11.925781 C 8.398438 13.050781 8.625 13.875 9.148438 14.398438 C 9.675781 15 10.273438 15.300781 11.101562 15.300781 C 11.476562 15.300781 11.851562 15.226562 12.148438 15.074219 C 12.449219 14.925781 12.75 14.699219 12.976562 14.398438 L 14.625 16.273438 C 14.101562 16.875 13.574219 17.25 12.976562 17.550781 C 12.375 17.851562 11.699219 18 10.949219 18 C 10.199219 18 9.449219 17.851562 8.773438 17.625 C 8.101562 17.398438 7.5 17.023438 6.976562 16.5 C 6.449219 15.976562 6.148438 15.226562 5.851562 14.476562 C 5.476562 13.800781 5.324219 12.898438 5.324219 11.925781 Z M 5.324219 11.925781 "/>
<path style=" stroke:none;fill-rule:nonzero;fill:rgb(32.156864%,60.784316%,72.941178%);fill-opacity:1;" d="M 16.351562 12.824219 L 15.601562 12.824219 L 15.300781 14.625 L 14.398438 14.625 L 14.699219 12.824219 L 13.800781 12.824219 L 13.800781 12 L 14.925781 12 L 15.074219 10.800781 L 14.101562 10.800781 L 14.101562 9.976562 L 15.226562 9.976562 L 15.523438 8.175781 L 16.425781 8.175781 L 16.125 9.976562 L 16.875 9.976562 L 17.175781 8.175781 L 18.074219 8.175781 L 17.773438 9.976562 L 18.75 9.976562 L 18.75 10.800781 L 17.550781 10.800781 L 17.398438 12 L 18.375 12 L 18.375 12.824219 L 17.175781 12.824219 L 16.875 14.625 L 15.976562 14.625 C 15.976562 14.699219 16.351562 12.824219 16.351562 12.824219 Z M 15.75 12.074219 L 16.5 12.074219 L 16.648438 10.875 L 15.898438 10.875 Z M 15.75 12.074219 "/>
</g>
</svg>
