
<svg xmlns="http://www.w3.org/2000/svg" xmlns:xlink="http://www.w3.org/1999/xlink" width="24px" height="24px" viewBox="0 0 24 24" version="1.1">
<g id="surface1">
<path style=" stroke:none;fill-rule:nonzero;fill:rgb(0%,0%,0%);fill-opacity:1;" d="M 16.726562 17.175781 C 16.191406 17.460938 15.636719 17.675781 15.058594 17.820312 C 14.488281 17.96875 13.890625 18.042969 13.265625 18.042969 C 11.402344 18.042969 9.925781 17.5 8.835938 16.421875 C 7.746094 15.335938 7.199219 13.863281 7.199219 12.003906 C 7.199219 10.144531 7.746094 8.671875 8.835938 7.585938 C 9.925781 6.496094 11.402344 5.953125 13.265625 5.953125 C 13.886719 5.953125 14.484375 6.023438 15.058594 6.171875 C 15.640625 6.316406 16.195312 6.53125 16.726562 6.816406 L 16.726562 9.234375 C 16.183594 8.851562 15.65625 8.574219 15.136719 8.398438 C 14.621094 8.222656 14.074219 8.136719 13.5 8.136719 C 12.464844 8.136719 11.65625 8.476562 11.070312 9.164062 C 10.480469 9.847656 10.183594 10.796875 10.183594 12.003906 C 10.183594 13.207031 10.480469 14.148438 11.070312 14.839844 C 11.660156 15.523438 12.46875 15.867188 13.5 15.867188 C 14.070312 15.867188 14.613281 15.777344 15.136719 15.601562 C 15.65625 15.425781 16.183594 15.148438 16.726562 14.769531 Z M 16.726562 17.175781 "/>
</g>
</svg>
