
<svg xmlns="http://www.w3.org/2000/svg" xmlns:xlink="http://www.w3.org/1999/xlink" width="16px" height="16px" viewBox="0 0 16 16" version="1.1">
<g id="surface1">
<path style=" stroke:none;fill-rule:nonzero;fill:rgb(83.137256%,23.921569%,26.666668%);fill-opacity:1;" d="M 0.25 9.210938 L 0.25 11.625 C 0.25 12.960938 3.71875 14.042969 8 14.042969 L 8 11.625 C 3.71875 11.625 0.25 10.546875 0.25 9.210938 Z M 0.25 9.210938 "/>
<path style=" stroke:none;fill-rule:nonzero;fill:rgb(83.137256%,23.921569%,26.666668%);fill-opacity:1;" d="M 8 6.792969 L 14.0625 8.292969 C 15.117188 7.878906 15.75 7.355469 15.75 6.792969 L 15.75 4.375 C 15.75 3.039062 12.28125 1.957031 8 1.957031 C 3.722656 1.957031 0.25 3.035156 0.25 4.375 L 0.25 6.792969 C 0.25 8.125 3.71875 9.210938 8 9.210938 Z M 8 6.792969 "/>
<path style=" stroke:none;fill-rule:nonzero;fill:rgb(83.137256%,23.921569%,26.666668%);fill-opacity:1;" d="M 14.0625 10.71875 L 8 9.210938 L 8 11.625 L 14.0625 13.132812 C 15.117188 12.722656 15.75 12.199219 15.75 11.625 L 15.75 9.210938 C 15.75 9.78125 15.117188 10.304688 14.0625 10.71875 Z M 14.0625 10.71875 "/>
</g>
</svg>
