
<svg xmlns="http://www.w3.org/2000/svg" xmlns:xlink="http://www.w3.org/1999/xlink" width="24px" height="24px" viewBox="0 0 24 24" version="1.1">
<g id="surface1">
<path style=" stroke:none;fill-rule:nonzero;fill:rgb(0%,0%,0%);fill-opacity:1;" d="M 12 10.875 L 12 13.199219 L 11.101562 13.199219 C 9.824219 13.125 8.625 13.050781 7.425781 12.675781 C 6.824219 12.523438 6.300781 12.300781 5.773438 12.074219 C 5.476562 12 5.25 11.851562 5.023438 11.699219 C 4.648438 11.398438 4.5 11.101562 4.5 10.648438 L 4.5 8.699219 C 4.5 8.398438 4.648438 8.101562 4.875 7.875 C 5.25 7.5 5.773438 7.273438 6.300781 7.125 C 7.351562 6.75 8.476562 6.523438 9.523438 6.449219 C 10.574219 6.375 11.550781 6.300781 12.601562 6.300781 C 14.324219 6.300781 15.976562 6.523438 17.625 7.050781 C 18.074219 7.199219 18.523438 7.5 18.976562 7.726562 C 19.351562 7.949219 19.574219 8.324219 19.574219 8.851562 L 19.574219 10.726562 C 19.574219 11.175781 19.425781 11.550781 19.050781 11.773438 C 18.75 12 18.375 12.148438 18.074219 12.300781 C 18 12.375 17.851562 12.300781 17.773438 12.300781 C 15.976562 11.851562 14.175781 11.398438 12.300781 10.949219 C 12.148438 10.875 12.074219 10.875 12 10.875 Z M 12 17.773438 L 10.5 17.773438 C 9.226562 17.699219 7.949219 17.550781 6.75 17.175781 C 6.226562 17.023438 5.699219 16.726562 5.175781 16.5 C 4.726562 16.199219 4.5 15.75 4.5 15.226562 L 4.5 13.5 C 5.175781 14.398438 6.148438 14.699219 7.125 15 C 8.625 15.375 10.125 15.523438 11.699219 15.523438 C 11.925781 15.523438 12 15.601562 12 15.824219 Z M 19.5 13.425781 L 19.5 15.523438 C 19.5 15.824219 19.351562 16.050781 19.050781 16.273438 C 18.675781 16.5 18.300781 16.726562 17.925781 16.875 C 17.851562 16.949219 17.699219 16.875 17.550781 16.875 L 13.050781 15.75 L 12.148438 15.523438 C 12.074219 15.523438 12 15.375 12 15.375 L 12 13.273438 C 12.523438 13.425781 12.976562 13.5 13.5 13.648438 C 14.925781 14.023438 16.273438 14.324219 17.699219 14.699219 L 18 14.699219 C 18.601562 14.324219 19.125 14.101562 19.5 13.425781 Z M 19.5 13.425781 "/>
</g>
</svg>
