
<svg xmlns="http://www.w3.org/2000/svg" xmlns:xlink="http://www.w3.org/1999/xlink" width="24px" height="24px" viewBox="0 0 24 24" version="1.1">
<g id="surface1">
<path style=" stroke:none;fill-rule:nonzero;fill:rgb(82.745099%,23.529412%,27.058825%);fill-opacity:1;" d="M 15.824219 12.75 C 16.199219 14.023438 17.101562 17.476562 17.101562 17.476562 L 20.175781 17.101562 L 20.175781 12.226562 Z M 10.574219 13.273438 L 5.023438 13.875 L 5.023438 18.976562 L 11.550781 18.148438 Z M 15.226562 8.324219 C 15.074219 8.625 14.925781 8.925781 14.699219 9.148438 C 14.851562 9.675781 15 10.125 15.148438 10.648438 L 20.101562 10.050781 C 20.101562 10.050781 18.898438 8.023438 17.25 6.976562 C 16.648438 6.601562 15.976562 6.300781 15.449219 6.148438 C 15.601562 6.675781 15.601562 7.425781 15.226562 8.324219 Z M 9.824219 10.726562 C 8.925781 10.648438 8.25 10.273438 7.726562 9.675781 L 5.023438 11.773438 L 9.976562 11.175781 C 9.898438 11.023438 9.898438 10.875 9.824219 10.726562 Z M 13.351562 9.226562 C 13.273438 9 13.273438 8.851562 13.425781 8.699219 C 13.574219 8.476562 13.726562 8.25 13.875 7.949219 C 14.175781 7.273438 14.25 6.523438 13.800781 5.851562 C 13.351562 5.101562 12.675781 4.875 11.851562 5.023438 C 11.625 5.023438 11.550781 5.25 11.699219 5.476562 L 12.375 6.824219 C 12.375 6.898438 12.449219 6.976562 12.300781 6.976562 C 11.851562 7.273438 11.398438 7.574219 11.023438 7.800781 C 10.949219 7.875 10.875 7.875 10.800781 7.800781 C 10.5 7.5 10.273438 7.199219 10.050781 6.898438 C 9.898438 6.75 9.675781 6.601562 9.675781 6.601562 C 9.675781 6.601562 9.449219 6.523438 9.375 6.675781 C 9 7.273438 8.773438 8.324219 9.226562 9 C 9.601562 9.601562 10.125 9.898438 10.800781 9.898438 C 10.949219 9.898438 11.101562 9.898438 11.175781 10.125 C 11.324219 10.800781 12.898438 17.324219 13.050781 18.300781 C 13.125 18.75 13.425781 19.125 13.800781 19.050781 C 14.324219 18.976562 14.925781 18.976562 15.375 18.523438 C 15.675781 18.226562 15.75 17.925781 15.675781 17.550781 C 15.449219 17.101562 13.648438 10.273438 13.351562 9.226562 Z M 13.351562 9.226562 "/>
</g>
</svg>
