
<svg xmlns="http://www.w3.org/2000/svg" xmlns:xlink="http://www.w3.org/1999/xlink" width="16px" height="16px" viewBox="0 0 16 16" version="1.1">
<g id="surface1">
<path style=" stroke:none;fill-rule:nonzero;fill:rgb(20.392157%,28.627452%,36.862746%);fill-opacity:1;" d="M 5.050781 11.308594 C 4.933594 11.277344 4.816406 11.234375 4.703125 11.183594 C 4.445312 11.585938 3.851562 12.605469 3.765625 13.527344 L 5.304688 13.527344 C 5.113281 12.800781 5.03125 12.054688 5.050781 11.308594 Z M 5.050781 11.308594 "/>
<path style=" stroke:none;fill-rule:nonzero;fill:rgb(20.392157%,28.627452%,36.862746%);fill-opacity:1;" d="M 10.035156 10.488281 C 9.726562 11.179688 9.488281 11.898438 9.320312 12.636719 C 9.253906 12.933594 9.457031 13.230469 9.417969 13.527344 L 11.351562 13.527344 C 10.84375 12.117188 10.726562 10.070312 10.464844 9.253906 C 10.457031 9.242188 10.042969 10.5 10.035156 10.488281 Z M 10.035156 10.488281 "/>
<path style=" stroke:none;fill-rule:nonzero;fill:rgb(20.392157%,28.627452%,36.862746%);fill-opacity:1;" d="M 15.539062 5.648438 C 15.101562 5.023438 14.097656 4.5 13.863281 3.785156 C 13.800781 3.601562 13.792969 3.226562 13.90625 3.050781 C 14.023438 2.878906 13.839844 2.925781 13.839844 2.925781 C 13.589844 3.023438 13.484375 2.75 13.484375 2.75 C 13.445312 2.652344 13.496094 2.359375 13.28125 2.519531 C 12.894531 2.808594 13.019531 3.519531 13.09375 3.804688 C 13.226562 4.289062 13.480469 4.734375 13.832031 5.097656 C 13.957031 5.210938 14.742188 6.078125 14.636719 6.523438 C 14.628906 6.679688 14.519531 6.8125 14.367188 6.851562 C 13.792969 6.964844 13.609375 6.261719 13.609375 6.261719 C 13.175781 4.425781 12.484375 3.78125 12.484375 3.78125 C 11.355469 3.742188 10.226562 3.839844 9.125 4.078125 C 4.828125 3.917969 1.597656 5.234375 1.597656 5.234375 C 0.652344 6.59375 0.0976562 9.109375 0.0976562 9.109375 C 0.0976562 9.109375 0.0976562 9.125 0.105469 9.125 C 0.117188 9.125 0.128906 9.121094 0.136719 9.109375 C 0.492188 8.664062 0.894531 8.257812 1.332031 7.902344 C 1.242188 11.402344 2.035156 13.527344 2.035156 13.527344 L 3.535156 13.527344 C 3.640625 12.265625 4.632812 10.875 4.632812 10.875 C 5.191406 11.296875 6.449219 11.171875 6.449219 11.171875 C 6.671875 12.015625 7.125 13.523438 7.125 13.523438 L 8.933594 13.523438 C 9.089844 12.371094 9.421875 11.25 9.917969 10.195312 C 9.917969 10.195312 10.363281 9.179688 10.375 8.875 C 10.402344 8.34375 10.90625 8.1875 11.179688 8.1875 C 11.453125 8.1875 12.691406 8.878906 13.617188 8.832031 C 15.230469 8.75 15.867188 8.003906 15.898438 7.152344 C 15.921875 6.570312 15.785156 6 15.539062 5.648438 Z M 10.355469 7.453125 C 10.34375 7.476562 10.335938 7.5 10.320312 7.519531 C 10.304688 7.542969 10.28125 7.566406 10.257812 7.578125 C 10.226562 7.59375 10.195312 7.601562 10.164062 7.597656 C 10.136719 7.597656 10.109375 7.589844 10.082031 7.578125 C 9.996094 7.539062 9.914062 7.484375 9.847656 7.414062 C 9.8125 7.382812 9.78125 7.351562 9.753906 7.320312 L 9.664062 7.230469 C 9.609375 7.183594 9.546875 7.148438 9.480469 7.125 C 9.40625 7.097656 9.328125 7.078125 9.242188 7.058594 C 9.160156 7.039062 9.074219 7.015625 8.984375 6.984375 C 8.960938 6.980469 8.9375 6.96875 8.910156 6.957031 L 8.875 6.945312 C 8.859375 6.933594 8.84375 6.921875 8.828125 6.910156 C 8.800781 6.886719 8.773438 6.855469 8.757812 6.824219 C 8.742188 6.792969 8.730469 6.761719 8.722656 6.730469 C 8.710938 6.675781 8.707031 6.621094 8.710938 6.566406 C 8.710938 6.515625 8.71875 6.46875 8.726562 6.421875 C 8.742188 6.328125 8.765625 6.242188 8.796875 6.152344 C 8.824219 6.070312 8.851562 5.988281 8.886719 5.902344 C 8.902344 5.863281 8.917969 5.824219 8.9375 5.777344 C 8.957031 5.734375 8.980469 5.695312 9.003906 5.652344 C 9.097656 5.496094 9.21875 5.359375 9.367188 5.25 C 9.4375 5.195312 9.515625 5.148438 9.59375 5.109375 C 9.671875 5.066406 9.757812 5.03125 9.84375 5.007812 C 9.703125 5.105469 9.574219 5.21875 9.457031 5.347656 C 9.347656 5.464844 9.253906 5.601562 9.183594 5.75 C 9.167969 5.785156 9.15625 5.824219 9.140625 5.859375 L 9.105469 5.984375 C 9.078125 6.066406 9.054688 6.148438 9.035156 6.230469 C 9.011719 6.308594 8.996094 6.386719 8.984375 6.46875 C 8.976562 6.507812 8.972656 6.542969 8.972656 6.582031 C 8.96875 6.613281 8.972656 6.644531 8.980469 6.675781 C 8.980469 6.691406 8.988281 6.707031 9 6.71875 L 9.015625 6.726562 L 9.066406 6.746094 C 9.136719 6.773438 9.222656 6.796875 9.304688 6.824219 C 9.390625 6.847656 9.476562 6.878906 9.5625 6.917969 C 9.65625 6.957031 9.742188 7.015625 9.8125 7.089844 C 9.84375 7.128906 9.863281 7.164062 9.890625 7.199219 L 9.96875 7.300781 C 9.992188 7.332031 10.019531 7.363281 10.046875 7.390625 C 10.070312 7.421875 10.097656 7.445312 10.128906 7.464844 C 10.152344 7.480469 10.179688 7.488281 10.207031 7.484375 C 10.238281 7.472656 10.265625 7.453125 10.28125 7.421875 C 10.300781 7.386719 10.320312 7.351562 10.335938 7.3125 C 10.351562 7.269531 10.363281 7.230469 10.378906 7.1875 C 10.386719 7.277344 10.378906 7.367188 10.355469 7.453125 Z M 11.953125 6.335938 C 11.914062 6.449219 11.8125 6.523438 11.695312 6.523438 C 11.578125 6.527344 11.472656 6.453125 11.433594 6.34375 C 11.394531 6.230469 11.429688 6.109375 11.523438 6.035156 C 11.613281 5.964844 11.742188 5.957031 11.839844 6.023438 C 11.957031 6.082031 12.003906 6.21875 11.953125 6.335938 Z M 11.953125 6.335938 "/>
</g>
</svg>
