
<svg xmlns="http://www.w3.org/2000/svg" xmlns:xlink="http://www.w3.org/1999/xlink" width="24px" height="24px" viewBox="0 0 24 24" version="1.1">
<g id="surface1">
<path style=" stroke:none;fill-rule:nonzero;fill:rgb(0%,0%,0%);fill-opacity:1;" d="M 9.898438 14.925781 C 10.050781 14.773438 10.050781 14.699219 10.125 14.699219 C 12.300781 11.476562 14.550781 8.175781 16.726562 5.023438 C 17.175781 4.425781 17.550781 4.351562 18.226562 4.800781 C 18.601562 5.023438 19.050781 5.398438 19.351562 5.625 C 19.800781 6 19.949219 6.449219 19.574219 6.898438 C 16.800781 10.875 14.101562 14.925781 11.324219 18.898438 C 10.726562 19.726562 9.976562 19.800781 9.300781 19.125 L 4.5 14.324219 C 4.050781 13.875 4.050781 13.425781 4.5 12.976562 C 4.875 12.523438 5.25 12.226562 5.476562 12 C 6.074219 11.398438 6.375 11.398438 6.976562 12 L 9.824219 14.851562 C 9.824219 14.699219 9.898438 14.851562 9.898438 14.925781 Z M 9.898438 14.925781 "/>
</g>
</svg>
