
<svg xmlns="http://www.w3.org/2000/svg" xmlns:xlink="http://www.w3.org/1999/xlink" width="24px" height="24px" viewBox="0 0 24 24" version="1.1">
<g id="surface1">
<path style=" stroke:none;fill-rule:nonzero;fill:rgb(0%,0%,0%);fill-opacity:1;" d="M 19.351562 6.375 C 18.976562 5.324219 18.226562 4.726562 17.101562 4.574219 L 7.050781 4.574219 C 6.824219 4.574219 6.523438 4.574219 6.375 4.648438 C 5.324219 5.101562 4.726562 5.851562 4.5 6.898438 L 4.5 16.949219 C 4.574219 17.175781 4.574219 17.398438 4.648438 17.625 C 5.023438 18.675781 5.773438 19.273438 6.898438 19.425781 L 16.949219 19.425781 C 17.175781 19.351562 17.398438 19.351562 17.625 19.273438 C 18.675781 18.898438 19.273438 18.148438 19.425781 17.023438 L 19.425781 6.976562 C 19.425781 6.824219 19.425781 6.523438 19.351562 6.375 Z M 17.699219 16.125 C 17.699219 16.949219 17.25 17.550781 16.5 17.699219 L 7.875 17.699219 C 7.050781 17.699219 6.449219 17.25 6.300781 16.5 L 6.300781 7.875 C 6.300781 7.273438 6.523438 6.824219 7.050781 6.523438 C 7.273438 6.375 7.574219 6.300781 7.875 6.300781 L 16.199219 6.300781 C 16.949219 6.300781 17.550781 6.75 17.699219 7.5 Z M 17.699219 16.125 "/>
</g>
</svg>
