
<svg xmlns="http://www.w3.org/2000/svg" xmlns:xlink="http://www.w3.org/1999/xlink" width="16px" height="16px" viewBox="0 0 16 16" version="1.1">
<g id="surface1">
<path style=" stroke:none;fill-rule:nonzero;fill:rgb(80.784315%,30.588236%,30.588236%);fill-opacity:1;" d="M 10.78125 8.058594 C 10.78125 9.621094 9.515625 10.886719 7.953125 10.886719 C 6.390625 10.886719 5.125 9.621094 5.125 8.058594 C 5.125 6.496094 6.390625 5.230469 7.953125 5.230469 C 9.515625 5.230469 10.78125 6.496094 10.78125 8.058594 Z M 10.78125 8.058594 "/>
<path style=" stroke:none;fill-rule:nonzero;fill:rgb(80.784315%,30.588236%,30.588236%);fill-opacity:1;" d="M 8 4.625 L 14.773438 4.625 C 13.53125 2.125 10.941406 0.421875 7.953125 0.421875 C 5.53125 0.421875 3.375 1.566406 1.984375 3.328125 L 4.621094 7.796875 C 4.75 6.058594 6 4.632812 8 4.625 Z M 15.015625 5.125 L 9.785156 5.125 C 10.710938 5.875 11.324219 6.859375 11.324219 8.046875 C 11.324219 8.628906 11.175781 9.125 10.914062 9.75 L 10.917969 9.75 L 7.449219 15.6875 C 7.613281 15.699219 7.78125 15.6875 7.953125 15.6875 C 12.152344 15.6875 15.558594 12.21875 15.558594 8.015625 C 15.558594 7.015625 15.367188 6.125 15.015625 5.125 Z M 7.953125 11.429688 C 6.492188 11.429688 5.25 10.503906 4.78125 9.207031 L 1.632812 3.824219 C 0.820312 5.035156 0.347656 6.492188 0.347656 8.058594 C 0.347656 11.886719 3.175781 15.054688 6.855469 15.585938 L 9.480469 11.066406 C 9.023438 11.296875 8.503906 11.429688 7.953125 11.429688 Z M 7.953125 11.429688 "/>
</g>
</svg>
