
<svg xmlns="http://www.w3.org/2000/svg" xmlns:xlink="http://www.w3.org/1999/xlink" width="24px" height="24px" viewBox="0 0 24 24" version="1.1">
<g id="surface1">
<path style=" stroke:none;fill-rule:nonzero;fill:rgb(0%,0%,0%);fill-opacity:1;" d="M 11.625 5.25 L 12.523438 5.25 C 12.898438 5.324219 13.199219 5.324219 13.574219 5.398438 C 14.476562 5.625 15.300781 6 16.050781 6.523438 C 16.648438 6.976562 17.101562 7.425781 17.476562 8.023438 C 18.148438 8.925781 18.523438 9.898438 18.675781 11.023438 C 18.675781 11.175781 18.75 11.324219 18.75 11.550781 L 18.75 12.523438 C 18.675781 12.824219 18.675781 13.125 18.601562 13.351562 C 18.375 14.25 18 15.148438 17.476562 15.898438 C 16.949219 16.648438 16.273438 17.25 15.449219 17.773438 C 14.625 18.226562 13.800781 18.601562 12.824219 18.675781 C 12.675781 18.675781 12.523438 18.75 12.375 18.75 L 11.398438 18.75 C 11.101562 18.675781 10.800781 18.675781 10.574219 18.601562 C 9.675781 18.375 8.773438 18 8.023438 17.476562 C 7.273438 16.949219 6.675781 16.273438 6.148438 15.449219 C 5.699219 14.625 5.324219 13.800781 5.25 12.824219 C 5.324219 12.75 5.25 12.601562 5.25 12.375 L 5.25 11.476562 C 5.324219 11.101562 5.324219 10.800781 5.398438 10.425781 C 5.625 9.523438 6 8.699219 6.523438 7.949219 C 7.050781 7.199219 7.800781 6.601562 8.550781 6.148438 C 9.300781 5.699219 10.125 5.398438 11.023438 5.324219 C 11.25 5.324219 11.398438 5.25 11.625 5.25 Z M 6.375 12.148438 C 6.449219 15.226562 9 17.699219 12.074219 17.699219 C 15.226562 17.699219 17.773438 15.074219 17.699219 11.851562 C 17.625 8.851562 15.074219 6.300781 11.851562 6.375 C 8.851562 6.449219 6.300781 8.925781 6.375 12.148438 Z M 6.375 12.148438 "/>
<path style=" stroke:none;fill-rule:nonzero;fill:rgb(0%,0%,0%);fill-opacity:1;" d="M 12.300781 12 C 12.449219 11.851562 12.675781 11.773438 12.824219 11.625 C 13.5 11.175781 14.175781 10.726562 14.773438 10.273438 C 14.851562 10.199219 14.925781 10.199219 14.925781 10.125 C 15.074219 9.976562 15.300781 10.050781 15.449219 10.199219 C 15.601562 10.351562 15.523438 10.574219 15.375 10.726562 C 15.148438 10.875 14.851562 11.101562 14.625 11.25 C 14.101562 11.625 13.5 12 12.976562 12.449219 C 12.675781 12.675781 12.449219 12.824219 12.148438 13.050781 C 11.925781 13.199219 11.625 13.050781 11.625 12.824219 L 11.625 7.949219 C 11.625 7.726562 11.699219 7.574219 11.925781 7.574219 C 12.074219 7.5 12.300781 7.648438 12.300781 7.875 L 12.300781 12 C 12.300781 11.925781 12.300781 12 12.300781 12 Z M 12.300781 12 "/>
</g>
</svg>
