
<svg xmlns="http://www.w3.org/2000/svg" xmlns:xlink="http://www.w3.org/1999/xlink" width="16px" height="16px" viewBox="0 0 16 16" version="1.1">
<g id="surface1">
<path style=" stroke:none;fill-rule:nonzero;fill:rgb(58.823532%,79.215688%,29.411766%);fill-opacity:1;" d="M 4.445312 9.96875 C 3.964844 9.96875 3.605469 9.828125 3.355469 9.550781 C 3.105469 9.269531 2.984375 8.867188 2.984375 8.347656 C 2.984375 7.816406 3.109375 7.40625 3.371094 7.121094 C 3.632812 6.832031 4.003906 6.6875 4.5 6.6875 C 4.828125 6.6875 5.132812 6.75 5.394531 6.875 L 5.191406 7.414062 C 4.910156 7.304688 4.675781 7.25 4.492188 7.25 C 3.945312 7.25 3.671875 7.609375 3.671875 8.335938 C 3.671875 8.691406 3.742188 8.957031 3.875 9.136719 C 4.011719 9.316406 4.210938 9.40625 4.476562 9.40625 C 4.773438 9.40625 5.054688 9.328125 5.324219 9.183594 L 5.324219 9.769531 C 5.203125 9.839844 5.074219 9.890625 4.9375 9.917969 C 4.804688 9.953125 4.636719 9.96875 4.445312 9.96875 Z M 7.175781 9.910156 L 6.503906 9.910156 L 6.503906 5.460938 L 7.175781 5.460938 Z M 8.25 11.316406 C 8.046875 11.316406 7.878906 11.292969 7.746094 11.246094 L 7.746094 10.710938 C 7.875 10.746094 8.007812 10.765625 8.144531 10.765625 C 8.429688 10.765625 8.570312 10.601562 8.570312 10.277344 L 8.570312 6.746094 L 9.242188 6.746094 L 9.242188 10.324219 C 9.242188 10.648438 9.15625 10.898438 8.988281 11.0625 C 8.8125 11.234375 8.570312 11.316406 8.25 11.316406 Z M 8.53125 5.910156 C 8.53125 5.789062 8.566406 5.699219 8.628906 5.632812 C 8.691406 5.570312 8.785156 5.535156 8.910156 5.535156 C 9.027344 5.535156 9.121094 5.570312 9.1875 5.632812 C 9.25 5.699219 9.285156 5.792969 9.285156 5.910156 C 9.285156 6.023438 9.25 6.113281 9.1875 6.183594 C 9.121094 6.246094 9.027344 6.28125 8.910156 6.28125 C 8.789062 6.28125 8.695312 6.246094 8.628906 6.183594 C 8.5625 6.113281 8.53125 6.023438 8.53125 5.910156 Z M 12.753906 9.011719 C 12.753906 9.324219 12.644531 9.554688 12.421875 9.722656 C 12.195312 9.890625 11.875 9.96875 11.457031 9.96875 C 11.035156 9.96875 10.699219 9.902344 10.441406 9.777344 L 10.441406 9.195312 C 10.8125 9.363281 11.15625 9.449219 11.476562 9.449219 C 11.890625 9.449219 12.097656 9.328125 12.097656 9.078125 C 12.097656 8.996094 12.074219 8.929688 12.027344 8.875 C 11.984375 8.824219 11.90625 8.765625 11.800781 8.710938 C 11.695312 8.652344 11.554688 8.589844 11.363281 8.519531 C 11.003906 8.378906 10.753906 8.234375 10.625 8.09375 C 10.5 7.953125 10.433594 7.769531 10.433594 7.546875 C 10.433594 7.273438 10.542969 7.066406 10.761719 6.914062 C 10.980469 6.765625 11.273438 6.691406 11.652344 6.691406 C 12.019531 6.691406 12.371094 6.769531 12.703125 6.917969 L 12.484375 7.425781 C 12.144531 7.285156 11.859375 7.214844 11.625 7.214844 C 11.269531 7.214844 11.09375 7.316406 11.09375 7.515625 C 11.09375 7.613281 11.140625 7.699219 11.234375 7.769531 C 11.324219 7.835938 11.527344 7.933594 11.835938 8.054688 C 12.097656 8.15625 12.285156 8.246094 12.40625 8.328125 C 12.523438 8.410156 12.609375 8.511719 12.667969 8.621094 C 12.726562 8.726562 12.753906 8.859375 12.753906 9.011719 Z M 12.753906 9.011719 "/>
<path style="fill-rule:nonzero;fill:rgb(58.823532%,79.215688%,29.411766%);fill-opacity:1;stroke-width:6;stroke-linecap:butt;stroke-linejoin:miter;stroke:rgb(58.823532%,79.215688%,29.411766%);stroke-opacity:1;stroke-miterlimit:4;" d="M 58.1875 117.875 C 30.6875 115.40625 9.03125 92.15625 9.03125 63.96875 C 9.03125 35.78125 30.6875 12.5625 58.1875 10.09375 L 58.1875 4.03125 C 27.34375 6.5 3 32.4375 3 64 C 3 95.5625 27.34375 121.5 58.1875 123.96875 Z M 67.8125 4.03125 L 67.8125 10.09375 C 95.3125 12.5625 116.96875 35.8125 116.96875 64 C 116.96875 92.1875 95.3125 115.4375 67.8125 117.90625 L 67.8125 123.96875 C 98.65625 121.5 123 95.5625 123 64 C 123 32.4375 98.65625 6.5 67.8125 4.03125 Z M 67.8125 4.03125 " transform="matrix(0.125,0,0,0.125,0,0)"/>
</g>
</svg>
