
<svg xmlns="http://www.w3.org/2000/svg" xmlns:xlink="http://www.w3.org/1999/xlink" width="24px" height="24px" viewBox="0 0 24 24" version="1.1">
<g id="surface1">
<path style=" stroke:none;fill-rule:nonzero;fill:rgb(13.725491%,12.156863%,12.54902%);fill-opacity:1;" d="M 11.773438 12.300781 L 11.550781 12.75 C 11.25 13.351562 10.949219 14.101562 10.875 14.625 C 10.800781 14.773438 10.800781 15 10.800781 15.226562 L 10.800781 15.523438 C 11.175781 15.675781 11.625 15.75 12 15.75 C 12.375 15.75 12.75 15.675781 13.125 15.601562 L 12.898438 15.375 C 12.523438 14.699219 12.226562 13.800781 11.773438 12.300781 "/>
<path style=" stroke:none;fill-rule:nonzero;fill:rgb(13.725491%,12.156863%,12.54902%);fill-opacity:1;" d="M 10.050781 9.226562 C 9.148438 9.898438 8.550781 10.949219 8.550781 12.148438 C 8.550781 13.351562 9.148438 14.398438 10.050781 15.074219 C 10.273438 14.175781 10.800781 13.351562 11.625 11.625 C 11.550781 11.476562 11.550781 11.324219 11.476562 11.175781 C 11.25 10.574219 10.949219 9.976562 10.648438 9.601562 C 10.425781 9.523438 10.199219 9.375 10.050781 9.226562 "/>
<path style=" stroke:none;fill-rule:nonzero;fill:rgb(13.725491%,12.156863%,12.54902%);fill-opacity:1;" d="M 15.226562 16.273438 C 14.773438 16.199219 14.324219 16.125 14.023438 16.050781 C 13.425781 16.351562 12.824219 16.5 12.148438 16.5 C 9.75 16.5 7.875 14.550781 7.875 12.226562 C 7.875 10.949219 8.476562 9.824219 9.300781 9 C 9.074219 8.925781 8.773438 8.925781 8.550781 8.925781 C 7.273438 8.925781 6 9.601562 5.398438 11.550781 C 5.324219 11.851562 5.324219 12 5.324219 12.300781 C 5.324219 16.050781 8.324219 19.050781 12.074219 19.050781 C 14.324219 19.050781 16.351562 17.925781 17.625 16.199219 C 16.949219 16.351562 16.351562 16.425781 15.75 16.425781 C 15.523438 16.273438 15.375 16.273438 15.226562 16.273438 "/>
<path style=" stroke:none;fill-rule:nonzero;fill:rgb(13.725491%,12.156863%,12.54902%);fill-opacity:1;" d="M 12.074219 5.398438 C 9.824219 5.398438 7.800781 6.523438 6.601562 8.25 C 7.199219 7.875 7.875 7.726562 8.476562 7.726562 C 9.226562 7.726562 9.898438 7.949219 10.199219 8.101562 C 10.273438 8.175781 10.351562 8.175781 10.425781 8.25 C 10.949219 8.023438 11.550781 7.875 12.148438 7.875 C 14.550781 7.875 16.425781 9.824219 16.425781 12.148438 C 16.425781 13.351562 15.898438 14.398438 15.148438 15.226562 L 15.75 15.226562 C 16.5 15.226562 17.324219 15.074219 17.925781 14.550781 C 18.300781 14.25 18.675781 13.726562 18.824219 12.976562 C 18.824219 12.675781 18.898438 12.375 18.898438 12.148438 C 18.824219 8.398438 15.824219 5.398438 12.074219 5.398438 "/>
</g>
</svg>
