
<svg xmlns="http://www.w3.org/2000/svg" xmlns:xlink="http://www.w3.org/1999/xlink" width="24px" height="24px" viewBox="0 0 24 24" version="1.1">
<g id="surface1">
<path style=" stroke:none;fill-rule:nonzero;fill:rgb(0%,0%,0%);fill-opacity:1;" d="M 14.46875 14.910156 C 13.933594 15.527344 13.40625 16.128906 12.886719 16.738281 C 12.761719 16.882812 12.699219 16.777344 12.617188 16.683594 C 11.652344 15.574219 10.691406 14.464844 9.726562 13.355469 C 9.652344 13.273438 9.578125 13.191406 9.488281 13.085938 C 9.070312 13.566406 8.664062 14.027344 8.257812 14.496094 C 7.636719 15.214844 7.011719 15.929688 6.394531 16.65625 C 6.257812 16.820312 6.164062 16.832031 6.019531 16.660156 C 5.53125 16.074219 5.027344 15.503906 4.441406 14.828125 C 4.574219 14.714844 4.714844 14.628906 4.824219 14.503906 C 6.324219 12.785156 7.824219 11.058594 9.320312 9.328125 C 9.449219 9.183594 9.523438 9.164062 9.652344 9.320312 C 11.210938 11.121094 12.773438 12.917969 14.332031 14.71875 C 14.378906 14.773438 14.417969 14.835938 14.46875 14.910156 Z M 14.566406 7.191406 C 16.242188 9.121094 17.894531 11.019531 19.558594 12.941406 C 18.988281 13.601562 18.429688 14.246094 17.851562 14.914062 C 16.753906 13.652344 15.660156 12.398438 14.566406 11.136719 C 14.175781 11.582031 13.800781 12.011719 13.40625 12.464844 C 12.832031 11.800781 12.273438 11.160156 11.699219 10.496094 C 12.660156 9.382812 13.601562 8.300781 14.566406 7.191406 Z M 14.566406 7.191406 "/>
</g>
</svg>
