
<svg xmlns="http://www.w3.org/2000/svg" xmlns:xlink="http://www.w3.org/1999/xlink" width="24px" height="24px" viewBox="0 0 24 24" version="1.1">
<g id="surface1">
<path style=" stroke:none;fill-rule:nonzero;fill:rgb(0%,0%,0%);fill-opacity:1;" d="M 13.785156 3.917969 C 12.757812 3.917969 11.75 4.21875 10.886719 4.785156 C 10.019531 5.351562 9.335938 6.15625 8.914062 7.101562 C 8.492188 8.054688 8.351562 9.105469 8.503906 10.132812 C 8.660156 11.160156 9.101562 12.121094 9.785156 12.902344 L 4.566406 18.902344 L 5.289062 19.558594 L 10.5 13.585938 C 11.167969 14.113281 11.953125 14.476562 12.789062 14.636719 C 13.625 14.796875 14.488281 14.753906 15.300781 14.507812 C 16.121094 14.261719 16.867188 13.824219 17.476562 13.230469 C 18.09375 12.632812 18.558594 11.898438 18.835938 11.089844 C 19.394531 9.4375 19.136719 7.617188 18.132812 6.191406 C 17.640625 5.492188 16.988281 4.921875 16.230469 4.527344 C 15.476562 4.132812 14.636719 3.925781 13.785156 3.925781 Z M 13.785156 13.742188 C 12.921875 13.742188 12.074219 13.484375 11.359375 12.996094 C 10.640625 12.507812 10.078125 11.820312 9.75 11.015625 C 9.417969 10.203125 9.332031 9.316406 9.5 8.460938 C 9.667969 7.605469 10.085938 6.816406 10.695312 6.195312 C 11.304688 5.578125 12.085938 5.15625 12.933594 4.984375 C 13.78125 4.816406 14.660156 4.902344 15.457031 5.238281 C 16.257812 5.574219 16.941406 6.140625 17.417969 6.867188 C 17.898438 7.59375 18.15625 8.449219 18.15625 9.320312 C 18.15625 10.492188 17.695312 11.613281 16.875 12.449219 C 16.058594 13.273438 14.945312 13.742188 13.785156 13.742188 Z M 13.785156 13.742188 "/>
<path style=" stroke:none;fill-rule:nonzero;fill:rgb(0%,0%,0%);fill-opacity:1;" d="M 13.804688 4.886719 C 12.949219 4.886719 12.113281 5.132812 11.398438 5.597656 C 10.679688 6.066406 10.113281 6.730469 9.761719 7.511719 C 9.046875 9.109375 9.332031 10.976562 10.484375 12.292969 L 6.15625 17.242188 L 6.757812 17.78125 L 11.074219 12.855469 C 12.804688 14.222656 15.28125 14.097656 16.863281 12.566406 C 17.375 12.074219 17.757812 11.46875 17.988281 10.796875 C 18.453125 9.4375 18.238281 7.933594 17.40625 6.757812 C 17 6.183594 16.457031 5.710938 15.832031 5.386719 C 15.203125 5.058594 14.507812 4.890625 13.804688 4.890625 Z M 13.804688 12.984375 C 13.085938 12.984375 12.386719 12.773438 11.789062 12.371094 C 11.195312 11.96875 10.730469 11.402344 10.457031 10.734375 C 9.894531 9.375 10.207031 7.808594 11.242188 6.761719 C 12.273438 5.71875 13.835938 5.40625 15.1875 5.972656 C 15.851562 6.25 16.417969 6.714844 16.816406 7.316406 C 17.773438 8.761719 17.585938 10.683594 16.363281 11.917969 C 15.6875 12.601562 14.765625 12.984375 13.804688 12.984375 Z M 13.804688 12.984375 "/>
<path style=" stroke:none;fill-rule:nonzero;fill:rgb(0%,0%,0%);fill-opacity:1;" d="M 4.230469 18.585938 L 10.140625 11.859375 L 11.835938 13.351562 L 5.925781 20.074219 Z M 4.230469 18.585938 "/>
</g>
</svg>
