
<svg xmlns="http://www.w3.org/2000/svg" xmlns:xlink="http://www.w3.org/1999/xlink" width="16px" height="16px" viewBox="0 0 16 16" version="1.1">
<g id="surface1">
<path style=" stroke:none;fill-rule:nonzero;fill:rgb(93.333334%,26.274511%,13.725491%);fill-opacity:1;" d="M 11.214844 6.109375 L 11.117188 6.058594 C 11.167969 6.175781 11.183594 6.28125 11.183594 6.371094 C 11.199219 6.296875 11.210938 6.222656 11.214844 6.140625 C 11.214844 6.238281 11.203125 6.332031 11.179688 6.417969 L 11.183594 6.371094 C 11.15625 6.488281 11.109375 6.59375 11.050781 6.691406 L 11.078125 6.660156 C 10.71875 7.261719 9.734375 7.394531 9.25 6.773438 C 8.472656 5.773438 9.269531 4.695312 9.378906 3.640625 C 9.519531 2.3125 8.6875 1.027344 7.65625 0.257812 C 8.222656 1.175781 7.476562 2.390625 6.878906 3.070312 C 6.296875 3.726562 5.589844 4.277344 4.949219 4.875 C 4.261719 5.519531 3.601562 6.195312 3.035156 6.949219 C 1.90625 8.457031 1.210938 10.355469 1.722656 12.238281 C 2.230469 14.121094 3.859375 15.320312 5.699219 15.742188 C 4.773438 15.339844 3.902344 14.320312 3.902344 13.277344 C 3.898438 12.140625 4.621094 11.171875 5.515625 10.539062 C 5.410156 10.945312 5.351562 11.316406 5.617188 11.683594 C 5.867188 12.019531 6.300781 12.1875 6.710938 12.097656 C 7.671875 11.886719 7.714844 10.832031 7.144531 10.214844 C 6.582031 9.609375 6.039062 8.921875 6.253906 8.039062 C 6.359375 7.59375 6.632812 7.179688 6.976562 6.882812 C 6.710938 7.578125 7.464844 8.265625 7.960938 8.605469 C 8.820312 9.199219 9.761719 9.648438 10.550781 10.339844 C 11.382812 11.070312 11.996094 12.058594 11.871094 13.203125 C 11.738281 14.445312 10.75 15.308594 9.644531 15.742188 C 11.984375 15.226562 14.398438 13.414062 14.449219 10.820312 C 14.488281 8.6875 13.027344 7.046875 11.214844 6.109375 Z M 11.214844 6.109375 "/>
</g>
</svg>
