
<svg xmlns="http://www.w3.org/2000/svg" xmlns:xlink="http://www.w3.org/1999/xlink" width="16px" height="16px" viewBox="0 0 16 16" version="1.1">
<g id="surface1">
<path style=" stroke:none;fill-rule:nonzero;fill:rgb(0%,0%,0%);fill-opacity:1;" d="M 15.695312 4.992188 L 8.382812 0.117188 C 8.132812 -0.0390625 7.867188 -0.0390625 7.617188 0.117188 L 0.304688 4.992188 C 0.117188 5.117188 0 5.339844 0 5.5625 L 0 10.4375 C 0 10.660156 0.117188 10.882812 0.304688 11.007812 L 7.617188 15.882812 C 7.867188 16.039062 8.132812 16.039062 8.382812 15.882812 L 15.695312 11.007812 C 15.882812 10.882812 16 10.660156 16 10.4375 L 16 5.5625 C 16 5.339844 15.882812 5.117188 15.695312 4.992188 Z M 8.6875 1.972656 L 14.070312 5.5625 L 11.667969 7.167969 L 8.6875 5.179688 Z M 7.3125 1.972656 L 7.3125 5.179688 L 4.332031 7.167969 L 1.929688 5.5625 Z M 1.375 6.847656 L 3.097656 8 L 1.375 9.152344 Z M 7.3125 14.027344 L 1.929688 10.4375 L 4.332031 8.828125 L 7.3125 10.820312 Z M 8 9.625 L 5.570312 8 L 8 6.375 L 10.429688 8 Z M 8.6875 14.027344 L 8.6875 10.820312 L 11.667969 8.828125 L 14.070312 10.4375 Z M 14.625 9.152344 L 12.902344 8 L 14.625 6.847656 Z M 14.625 9.152344 "/>
</g>
</svg>
