
<svg xmlns="http://www.w3.org/2000/svg" xmlns:xlink="http://www.w3.org/1999/xlink" width="24px" height="24px" viewBox="0 0 24 24" version="1.1">
<g id="surface1">
<path style=" stroke:none;fill-rule:nonzero;fill:rgb(80.392158%,24.705882%,27.058825%);fill-opacity:1;" d="M 12.601562 6.824219 C 12.226562 6.898438 12 7.050781 10.875 7.574219 C 10.273438 7.875 9.449219 7.949219 9.226562 7.726562 C 9 7.425781 9.300781 7.273438 9.976562 7.273438 C 10.574219 7.273438 10.726562 7.199219 10.5 7.050781 C 10.050781 6.75 9 6.976562 8.773438 7.351562 C 8.699219 7.574219 8.699219 7.648438 8.851562 7.875 C 9.226562 8.25 9.523438 8.398438 10.351562 8.324219 C 10.949219 8.324219 11.25 8.25 11.851562 7.875 C 12.75 7.425781 13.726562 7.199219 14.324219 7.273438 C 14.925781 7.351562 15.074219 7.574219 14.699219 7.800781 C 14.398438 8.023438 13.648438 8.101562 13.351562 7.800781 C 13.050781 7.648438 12.675781 7.648438 12.675781 7.949219 C 12.675781 8.324219 13.800781 8.625 14.773438 8.398438 C 15.898438 8.175781 15.898438 7.199219 14.773438 6.824219 C 14.324219 6.75 13.199219 6.675781 12.601562 6.824219 Z M 6.226562 7.800781 C 6 7.949219 5.851562 8.175781 5.851562 8.25 C 5.773438 8.550781 6.375 9 7.273438 9.300781 C 8.101562 9.523438 8.398438 9.601562 9.675781 9.75 C 10.5 9.824219 14.25 9.824219 15 9.75 C 15.300781 9.675781 15.75 9.675781 15.898438 9.601562 C 16.425781 9.523438 17.851562 9.148438 18.148438 8.925781 C 18.601562 8.699219 18.824219 8.324219 18.675781 8.101562 C 18.449219 7.648438 17.925781 7.351562 18.074219 7.800781 C 18.226562 8.398438 16.5 9 14.25 9.148438 C 13.425781 9.226562 10.949219 9.226562 10.5 9.148438 C 10.351562 9.148438 9.824219 9.074219 9.449219 9.074219 C 8.175781 9 6.75 8.476562 6.675781 8.101562 C 6.675781 8.023438 6.675781 7.800781 6.75 7.726562 C 6.824219 7.5 6.675781 7.5 6.226562 7.800781 Z M 6 9.824219 C 6 10.125 6.148438 10.574219 6.226562 10.949219 L 6.449219 11.550781 L 6.148438 11.773438 C 6 11.925781 5.699219 12.226562 5.550781 12.449219 C 5.324219 12.898438 5.25 13.050781 5.25 13.726562 C 5.25 14.625 5.398438 15 6.148438 15.523438 C 6.523438 15.824219 6.675781 15.824219 7.273438 15.824219 C 8.175781 15.824219 8.476562 15.601562 7.800781 15.523438 C 7.273438 15.449219 6.523438 14.773438 6.300781 14.175781 C 6.074219 13.648438 6.148438 12.824219 6.375 12.449219 C 6.449219 12.300781 6.601562 12.148438 6.601562 12.148438 L 6.898438 12.601562 C 7.050781 12.824219 7.5 13.5 7.875 14.101562 C 8.324219 14.699219 8.699219 15.375 8.773438 15.675781 C 9.226562 16.875 10.050781 17.25 12.300781 17.25 C 14.550781 17.25 15.449219 16.800781 15.898438 15.601562 C 15.976562 15.300781 16.425781 14.625 16.800781 14.101562 C 17.175781 13.574219 17.699219 12.824219 17.851562 12.375 C 18.226562 11.550781 18.75 9.898438 18.75 9.523438 C 18.75 9.300781 18.75 9.300781 18.523438 9.523438 C 18.148438 9.898438 16.875 10.273438 15.226562 10.425781 C 13.875 10.574219 9.601562 10.5 8.550781 10.273438 C 8.398438 10.273438 8.175781 10.199219 7.949219 10.199219 C 7.425781 10.125 6.300781 9.601562 6.074219 9.449219 C 6 9.375 5.925781 9.375 6 9.824219 Z M 6 9.824219 "/>
</g>
</svg>
