
<svg xmlns="http://www.w3.org/2000/svg" xmlns:xlink="http://www.w3.org/1999/xlink" width="24px" height="24px" viewBox="0 0 24 24" version="1.1">
<g id="surface1">
<path style=" stroke:none;fill-rule:nonzero;fill:rgb(20.392157%,40.392157%,60.392159%);fill-opacity:1;" d="M 8.101562 10.875 C 7.800781 10.875 7.425781 10.800781 7.125 10.875 C 5.925781 11.023438 4.726562 11.101562 3.976562 12.148438 C 2.925781 13.5 2.699219 15 3.449219 16.5 C 4.199219 18 5.476562 18.675781 7.125 18.75 L 10.125 18.75 C 12 18.675781 13.5 17.851562 14.625 16.351562 C 15.226562 15.601562 15.675781 14.773438 15.976562 13.875 C 16.199219 13.273438 16.5 13.050781 17.101562 13.050781 C 17.699219 13.125 18.226562 13.050781 18.824219 13.050781 C 19.050781 13.050781 19.351562 13.050781 19.351562 12.75 C 19.425781 12.148438 19.574219 11.550781 19.273438 11.023438 C 19.050781 10.574219 18.523438 10.875 18.148438 10.800781 L 17.773438 10.800781 C 17.398438 10.800781 17.25 10.726562 17.398438 10.273438 C 17.851562 9.226562 18.601562 8.398438 19.726562 8.023438 C 20.101562 7.875 20.699219 8.023438 20.851562 7.574219 C 21.074219 7.273438 21 6.75 21 6.300781 L 21 5.625 C 21 5.398438 20.851562 5.25 20.550781 5.25 C 19.125 5.398438 17.773438 5.773438 16.875 6.898438 C 15.898438 8.175781 15.226562 9.601562 14.625 11.101562 C 14.101562 12.523438 13.648438 13.949219 12.675781 15.074219 C 12.226562 15.601562 11.625 15.976562 10.949219 16.125 C 9.523438 16.351562 8.101562 16.273438 6.675781 15.976562 C 5.925781 15.824219 5.550781 15.300781 5.550781 14.625 C 5.550781 13.875 6 13.351562 6.824219 13.125 C 7.574219 12.976562 8.324219 13.050781 9.074219 12.976562 C 9.523438 12.976562 9.675781 12.824219 9.675781 12.375 C 9.675781 10.5 9.824219 10.800781 8.175781 10.800781 C 8.25 10.875 8.175781 10.875 8.101562 10.875 Z M 8.101562 10.875 "/>
</g>
</svg>
