
<svg xmlns="http://www.w3.org/2000/svg" xmlns:xlink="http://www.w3.org/1999/xlink" width="24px" height="24px" viewBox="0 0 24 24" version="1.1">
<g id="surface1">
<path style=" stroke:none;fill-rule:nonzero;fill:rgb(25.490198%,32.549021%,35.686275%);fill-opacity:1;" d="M 18.375 12.976562 C 18.074219 12.898438 17.773438 12.75 17.550781 12.675781 C 17.550781 12.148438 17.476562 11.699219 17.476562 11.175781 C 17.476562 11.101562 17.550781 11.101562 17.550781 11.023438 C 17.851562 10.875 18.074219 10.800781 18.375 10.648438 C 18.675781 10.5 18.75 10.199219 18.675781 9.898438 C 18.449219 9.375 18.226562 8.925781 18 8.398438 C 17.851562 8.101562 17.550781 7.949219 17.25 8.101562 C 16.949219 8.25 16.726562 8.324219 16.425781 8.476562 C 16.351562 8.476562 16.273438 8.476562 16.273438 8.398438 C 16.125 8.175781 15.898438 8.023438 15.75 7.875 C 15.601562 7.726562 15.375 7.574219 15.226562 7.425781 C 15.375 7.125 15.449219 6.824219 15.601562 6.523438 C 15.75 6.148438 15.601562 5.851562 15.226562 5.699219 C 14.773438 5.625 14.25 5.398438 13.800781 5.25 C 13.425781 5.101562 13.125 5.25 12.976562 5.625 C 12.898438 5.925781 12.75 6.226562 12.675781 6.449219 C 12.148438 6.449219 11.699219 6.523438 11.175781 6.523438 C 11.101562 6.523438 11.101562 6.449219 11.023438 6.449219 C 10.875 6.148438 10.800781 5.925781 10.648438 5.625 C 10.5 5.324219 10.199219 5.25 9.898438 5.324219 C 9.375 5.550781 8.925781 5.773438 8.398438 6 C 8.101562 6.148438 7.949219 6.449219 8.101562 6.75 C 8.25 7.050781 8.324219 7.273438 8.476562 7.574219 C 8.476562 7.648438 8.476562 7.726562 8.398438 7.726562 C 8.25 7.875 8.101562 7.949219 8.023438 8.101562 C 7.800781 8.324219 7.648438 8.550781 7.425781 8.773438 C 7.125 8.699219 6.824219 8.550781 6.601562 8.476562 C 6.226562 8.324219 5.925781 8.476562 5.773438 8.851562 C 5.625 9.226562 5.398438 9.75 5.25 10.199219 C 5.101562 10.648438 5.175781 10.875 5.625 11.023438 C 5.925781 11.101562 6.226562 11.25 6.449219 11.324219 C 6.449219 11.851562 6.523438 12.300781 6.523438 12.824219 C 6.523438 12.898438 6.449219 12.898438 6.449219 12.976562 C 6.148438 13.125 5.925781 13.199219 5.625 13.351562 C 5.324219 13.5 5.25 13.800781 5.324219 14.101562 C 5.550781 14.625 5.773438 15.074219 6 15.601562 C 6.148438 15.898438 6.449219 16.050781 6.75 15.898438 C 7.050781 15.75 7.273438 15.675781 7.574219 15.523438 C 7.648438 15.523438 7.726562 15.523438 7.726562 15.601562 C 7.875 15.824219 8.101562 15.976562 8.25 16.125 C 8.398438 16.273438 8.625 16.425781 8.773438 16.574219 C 8.625 16.875 8.550781 17.175781 8.398438 17.476562 C 8.25 17.851562 8.398438 18.148438 8.773438 18.300781 C 9.226562 18.449219 9.675781 18.675781 10.199219 18.824219 C 10.648438 18.976562 10.875 18.898438 11.023438 18.449219 C 11.101562 18.148438 11.25 17.851562 11.324219 17.625 C 11.851562 17.625 12.300781 17.550781 12.824219 17.550781 C 12.898438 17.550781 12.898438 17.625 12.976562 17.625 C 13.125 17.925781 13.199219 18.148438 13.351562 18.449219 C 13.5 18.75 13.800781 18.824219 14.101562 18.75 C 14.625 18.523438 15.074219 18.300781 15.601562 18.074219 C 15.898438 17.925781 16.050781 17.625 15.898438 17.324219 C 15.75 17.023438 15.675781 16.800781 15.523438 16.5 C 15.523438 16.425781 15.523438 16.351562 15.601562 16.351562 C 15.824219 16.199219 15.976562 15.976562 16.125 15.824219 C 16.273438 15.675781 16.425781 15.449219 16.574219 15.300781 C 16.875 15.375 17.175781 15.523438 17.398438 15.601562 C 17.773438 15.75 18.074219 15.601562 18.226562 15.226562 C 18.375 14.773438 18.601562 14.324219 18.75 13.800781 C 18.898438 13.425781 18.824219 13.125 18.375 12.976562 Z M 13.125 14.550781 C 11.699219 15.148438 10.125 14.550781 9.449219 13.125 C 8.851562 11.699219 9.449219 10.125 10.875 9.449219 C 12.300781 8.851562 13.875 9.449219 14.550781 10.875 C 15.148438 12.300781 14.550781 13.875 13.125 14.550781 Z M 13.125 14.550781 "/>
</g>
</svg>
