
<svg xmlns="http://www.w3.org/2000/svg" xmlns:xlink="http://www.w3.org/1999/xlink" width="16px" height="16px" viewBox="0 0 16 16" version="1.1">
<g id="surface1">
<path style=" stroke:none;fill-rule:nonzero;fill:rgb(26.666668%,26.666668%,26.666668%);fill-opacity:1;" d="M 12.675781 9.648438 C 12.675781 10.273438 12.335938 10.585938 11.726562 10.613281 L 4.238281 10.613281 C 3.625 10.613281 3.289062 10.300781 3.289062 9.648438 C 3.289062 9.023438 3.625 8.710938 4.238281 8.6875 L 11.761719 8.6875 C 12.375 8.710938 12.675781 9.023438 12.675781 9.648438 Z M 11.761719 11.085938 L 4.238281 11.085938 C 3.625 11.085938 3.289062 11.386719 3.289062 12.050781 C 3.289062 12.675781 3.625 12.976562 4.238281 13.011719 L 11.761719 13.011719 C 12.375 13.011719 12.710938 12.699219 12.710938 12.050781 C 12.675781 11.386719 12.375 11.085938 11.761719 11.085938 Z M 14.085938 5.824219 C 13.476562 5.824219 13.136719 6.136719 13.136719 6.75 L 13.136719 12.011719 C 13.136719 12.636719 13.476562 12.949219 14.085938 12.976562 C 15.011719 12.949219 15.5 12.011719 15.5 10.113281 L 15.5 7.75 C 15.5 6.476562 15.011719 5.851562 14.085938 5.824219 Z M 1.914062 5.824219 C 0.988281 5.851562 0.5 6.476562 0.5 7.75 L 0.5 10.113281 C 0.5 12.011719 0.988281 12.949219 1.914062 12.976562 C 2.523438 12.976562 2.863281 12.675781 2.863281 12.011719 L 2.863281 6.789062 C 2.835938 6.164062 2.523438 5.851562 1.914062 5.824219 Z M 14.085938 5.351562 C 14.085938 3.761719 13.261719 3.011719 11.761719 2.988281 L 4.238281 2.988281 C 2.710938 3.011719 1.914062 3.800781 1.914062 5.351562 C 2.835938 5.351562 3.324219 5.851562 3.324219 6.789062 C 3.324219 7.726562 3.8125 8.210938 4.738281 8.210938 L 11.300781 8.210938 C 12.210938 8.210938 12.710938 7.726562 12.710938 6.789062 C 12.675781 5.824219 13.199219 5.386719 14.085938 5.351562 Z M 14.085938 5.351562 "/>
</g>
</svg>
