
<svg xmlns="http://www.w3.org/2000/svg" xmlns:xlink="http://www.w3.org/1999/xlink" width="24px" height="24px" viewBox="0 0 24 24" version="1.1">
<g id="surface1">
<path style=" stroke:none;fill-rule:nonzero;fill:rgb(32.156864%,60.784316%,72.941178%);fill-opacity:1;" d="M 6.226562 11.625 C 6.226562 10.648438 6.375 9.824219 6.675781 9.074219 C 6.976562 8.324219 7.351562 7.726562 7.875 7.199219 C 8.398438 6.675781 9 6.300781 9.675781 6 C 10.351562 5.699219 11.101562 5.625 11.851562 5.625 C 12.601562 5.625 13.273438 5.773438 13.875 6.074219 C 14.476562 6.375 15 6.75 15.375 7.125 L 13.726562 9 C 13.425781 8.773438 13.199219 8.550781 12.898438 8.476562 C 12.601562 8.398438 12.300781 8.25 11.851562 8.25 C 11.476562 8.25 11.175781 8.324219 10.875 8.476562 C 10.574219 8.625 10.273438 8.851562 10.050781 9.148438 C 9.824219 9.449219 9.675781 9.75 9.523438 10.199219 C 9.375 10.648438 9.300781 11.101562 9.300781 11.625 C 9.300781 12.75 9.523438 13.574219 10.050781 14.101562 C 10.574219 14.699219 11.175781 15 12 15 C 12.375 15 12.75 14.925781 13.050781 14.773438 C 13.351562 14.625 13.648438 14.398438 13.875 14.101562 L 15.523438 15.976562 C 15 16.574219 14.476562 16.949219 13.875 17.25 C 13.273438 17.550781 12.601562 17.699219 11.851562 17.699219 C 11.101562 17.699219 10.351562 17.550781 9.675781 17.324219 C 9 17.101562 8.398438 16.726562 7.875 16.199219 C 7.351562 15.675781 7.050781 14.925781 6.75 14.175781 C 6.375 13.425781 6.226562 12.601562 6.226562 11.625 Z M 6.226562 11.625 "/>
<path style=" stroke:none;fill-rule:nonzero;fill:rgb(32.156864%,60.784316%,72.941178%);fill-opacity:1;" d="M 13.648438 9.675781 L 12.601562 9.675781 L 12.601562 10.949219 L 11.398438 10.949219 L 11.398438 12 L 12.601562 12 L 12.601562 13.351562 L 13.648438 13.351562 L 13.648438 12 L 14.851562 12 L 14.851562 10.949219 L 13.648438 10.949219 Z M 18.148438 10.875 L 18.148438 9.375 L 16.875 9.375 L 16.875 10.875 L 15.449219 10.875 L 15.449219 12.148438 L 16.875 12.148438 L 16.875 13.726562 L 18.148438 13.726562 L 18.148438 12.148438 L 19.574219 12.148438 L 19.574219 10.875 Z M 18.148438 10.875 "/>
</g>
</svg>
