
<svg xmlns="http://www.w3.org/2000/svg" xmlns:xlink="http://www.w3.org/1999/xlink" width="16px" height="16px" viewBox="0 0 16 16" version="1.1">
<g id="surface1">
<path style=" stroke:none;fill-rule:nonzero;fill:rgb(40.784314%,12.941177%,47.843137%);fill-opacity:1;" d="M 14.6875 4.1875 L 14.726562 4.164062 C 14.648438 4.023438 14.539062 3.898438 14.425781 3.835938 L 8.386719 0.363281 C 8.289062 0.300781 8.148438 0.273438 8 0.273438 C 7.851562 0.273438 7.710938 0.3125 7.613281 0.363281 L 1.613281 3.851562 C 1.398438 3.976562 1.25 4.289062 1.25 4.523438 L 1.25 11.488281 C 1.25 11.625 1.273438 11.773438 1.363281 11.914062 L 1.335938 11.925781 C 1.398438 12.023438 1.488281 12.113281 1.574219 12.164062 L 7.601562 15.648438 C 7.699219 15.710938 7.835938 15.738281 7.988281 15.738281 C 8.136719 15.738281 8.273438 15.699219 8.375 15.648438 L 14.375 12.164062 C 14.585938 12.039062 14.738281 11.726562 14.738281 11.488281 L 14.738281 4.511719 C 14.75 4.414062 14.738281 4.300781 14.6875 4.1875 Z M 8 12.9375 C 5.273438 12.9375 3.0625 10.726562 3.0625 8 C 3.0625 5.273438 5.273438 3.0625 8 3.0625 C 9.835938 3.0625 11.4375 4.074219 12.289062 5.5625 L 10.664062 6.5 C 10.136719 5.5625 9.136719 4.9375 8 4.9375 C 6.3125 4.9375 4.9375 6.3125 4.9375 8 C 4.9375 9.6875 6.3125 11.0625 8 11.0625 C 9.136719 11.0625 10.136719 10.4375 10.664062 9.511719 L 12.273438 10.460938 C 11.425781 11.9375 9.824219 12.9375 8 12.9375 Z M 14.375 7.75 L 13.976562 7.75 L 13.863281 8.25 L 14.375 8.25 L 14.375 8.875 L 13.75 8.875 L 13.601562 9.625 L 12.988281 9.625 L 13.136719 8.875 L 12.664062 8.875 L 12.511719 9.625 L 11.914062 9.625 L 12.0625 8.875 L 11.75 8.875 L 11.75 8.25 L 12.1875 8.25 L 12.300781 7.75 L 11.75 7.75 L 11.75 7.125 L 12.414062 7.125 L 12.5625 6.375 L 13.175781 6.375 L 13.023438 7.125 L 13.5 7.125 L 13.648438 6.375 L 14.25 6.375 L 14.101562 7.125 L 14.375 7.125 Z M 12.789062 8.25 L 13.261719 8.25 L 13.375 7.75 L 12.898438 7.75 Z M 12.789062 8.25 "/>
</g>
</svg>
