
<svg xmlns="http://www.w3.org/2000/svg" xmlns:xlink="http://www.w3.org/1999/xlink" width="24px" height="24px" viewBox="0 0 24 24" version="1.1">
<g id="surface1">
<path style=" stroke:none;fill-rule:nonzero;fill:rgb(32.156864%,60.784316%,72.941178%);fill-opacity:1;" d="M 7.726562 17.476562 L 8.324219 14.476562 L 6.449219 14.476562 L 6.449219 12.898438 L 8.699219 12.898438 L 9.074219 11.023438 L 7.125 11.023438 L 7.125 9.449219 L 9.449219 9.449219 L 10.050781 6.523438 L 12.148438 6.523438 L 11.550781 9.449219 L 13.648438 9.449219 L 14.25 6.523438 L 16.351562 6.523438 L 15.75 9.449219 L 17.625 9.449219 L 17.625 11.023438 L 15.449219 11.023438 L 15 12.898438 L 16.949219 12.898438 L 16.949219 14.476562 L 14.699219 14.476562 L 14.101562 17.476562 L 12 17.476562 L 12.601562 14.476562 L 10.5 14.476562 L 9.898438 17.476562 Z M 12.898438 12.898438 L 13.273438 11.023438 L 11.175781 11.023438 L 10.800781 12.898438 Z M 12.898438 12.898438 "/>
</g>
</svg>
