
<svg xmlns="http://www.w3.org/2000/svg" xmlns:xlink="http://www.w3.org/1999/xlink" width="16px" height="16px" viewBox="0 0 16 16" version="1.1">
<g id="surface1">
<path style=" stroke:none;fill-rule:nonzero;fill:rgb(8.235294%,44.705883%,71.372551%);fill-opacity:1;" d="M 1.09375 0.125 L 2.351562 14.234375 L 7.992188 15.808594 L 13.648438 14.230469 L 14.90625 0.125 Z M 12.292969 3.359375 L 11.875 8.058594 L 11.875 8.140625 L 11.578125 11.429688 L 11.546875 11.71875 L 8 12.699219 L 7.996094 12.703125 L 4.457031 11.71875 L 4.21875 9 L 5.953125 9 L 6.078125 10.382812 L 8 10.902344 L 9.929688 10.375 L 10.132812 8.125 L 6.097656 8.125 L 6.0625 7.746094 L 5.984375 6.851562 L 5.945312 6.375 L 10.289062 6.375 L 10.445312 4.625 L 3.828125 4.625 L 3.796875 4.246094 L 3.714844 3.351562 L 3.675781 2.875 L 12.335938 2.875 Z M 12.292969 3.359375 "/>
</g>
</svg>
