
<svg xmlns="http://www.w3.org/2000/svg" xmlns:xlink="http://www.w3.org/1999/xlink" width="24px" height="24px" viewBox="0 0 24 24" version="1.1">
<g id="surface1">
<path style=" stroke:none;fill-rule:nonzero;fill:rgb(54.901963%,75.686276%,28.235295%);fill-opacity:1;" d="M 5.25 5.324219 L 5.25 18.675781 L 18.75 18.675781 L 18.75 5.324219 Z M 7.425781 8.101562 L 11.25 8.101562 L 11.25 9.074219 L 7.425781 9.074219 Z M 12.675781 8.101562 L 16.5 8.101562 L 16.5 9.074219 L 12.675781 9.074219 Z M 7.425781 10.351562 L 11.25 10.351562 L 11.25 11.324219 L 7.425781 11.324219 Z M 12.675781 10.351562 L 16.5 10.351562 L 16.5 11.324219 L 12.675781 11.324219 Z M 7.425781 12.601562 L 11.25 12.601562 L 11.25 13.574219 L 7.425781 13.574219 Z M 12.675781 12.601562 L 16.5 12.601562 L 16.5 13.574219 L 12.675781 13.574219 Z M 7.425781 14.851562 L 11.25 14.851562 L 11.25 15.824219 L 7.425781 15.824219 Z M 12.675781 14.851562 L 16.5 14.851562 L 16.5 15.824219 L 12.675781 15.824219 Z M 12.675781 14.851562 "/>
</g>
</svg>
