
<svg xmlns="http://www.w3.org/2000/svg" xmlns:xlink="http://www.w3.org/1999/xlink" width="24px" height="24px" viewBox="0 0 24 24" version="1.1">
<g id="surface1">
<path style=" stroke:none;fill-rule:nonzero;fill:rgb(46.27451%,72.549021%,0%);fill-opacity:1;" d="M 6.226562 11.625 C 6.226562 6.75 11.925781 3.601562 15.375 7.125 L 13.726562 9 C 7.648438 4.949219 8.175781 18.75 13.875 14.101562 L 15.523438 15.976562 C 12.074219 19.949219 6.226562 16.648438 6.226562 11.625 Z M 6.226562 11.625 "/>
<path style=" stroke:none;fill-rule:nonzero;fill:rgb(46.27451%,72.549021%,0%);fill-opacity:1;" d="M 19.574219 13.351562 L 18.976562 13.351562 L 18.75 12.601562 L 17.699219 12.601562 L 17.476562 13.351562 L 16.875 13.351562 L 17.925781 10.125 L 18.523438 10.125 Z M 18.601562 12.074219 L 18.226562 10.875 L 17.851562 12.074219 Z M 18.601562 12.074219 "/>
<path style=" stroke:none;fill-rule:nonzero;fill:rgb(46.27451%,72.549021%,0%);fill-opacity:1;" d="M 11.820312 10.132812 L 12.351562 10.132812 L 12.351562 11.878906 C 12.351562 12.148438 12.359375 12.328125 12.375 12.414062 C 12.398438 12.554688 12.457031 12.667969 12.539062 12.742188 C 12.628906 12.816406 12.742188 12.855469 12.890625 12.855469 C 13.011719 12.855469 13.117188 12.824219 13.191406 12.773438 C 13.265625 12.71875 13.320312 12.644531 13.351562 12.546875 C 13.378906 12.449219 13.394531 12.238281 13.394531 11.917969 L 13.394531 10.132812 L 13.925781 10.132812 L 13.925781 11.828125 C 13.925781 12.261719 13.90625 12.570312 13.859375 12.765625 C 13.816406 12.960938 13.710938 13.109375 13.546875 13.230469 C 13.378906 13.351562 13.171875 13.410156 12.90625 13.410156 C 12.628906 13.410156 12.421875 13.359375 12.261719 13.261719 C 12.105469 13.164062 11.992188 13.019531 11.925781 12.839844 C 11.859375 12.660156 11.820312 12.328125 11.820312 11.851562 Z M 11.820312 10.132812 "/>
<path style=" stroke:none;fill-rule:nonzero;fill:rgb(46.27451%,72.549021%,0%);fill-opacity:1;" d="M 14.484375 10.132812 L 15.457031 10.132812 C 15.703125 10.132812 15.890625 10.164062 16.011719 10.214844 C 16.140625 10.265625 16.253906 10.363281 16.359375 10.492188 C 16.460938 10.621094 16.546875 10.792969 16.605469 11.003906 C 16.664062 11.210938 16.695312 11.46875 16.695312 11.773438 C 16.695312 12.050781 16.664062 12.292969 16.597656 12.503906 C 16.53125 12.710938 16.453125 12.871094 16.359375 12.988281 C 16.261719 13.109375 16.140625 13.199219 16.003906 13.261719 C 15.871094 13.320312 15.691406 13.351562 15.480469 13.351562 L 14.484375 13.351562 Z M 15.015625 10.671875 L 15.015625 12.800781 L 15.414062 12.800781 C 15.585938 12.800781 15.703125 12.789062 15.789062 12.757812 C 15.863281 12.726562 15.929688 12.675781 15.976562 12.613281 C 16.027344 12.546875 16.066406 12.449219 16.09375 12.308594 C 16.125 12.164062 16.140625 11.984375 16.140625 11.753906 C 16.140625 11.511719 16.125 11.324219 16.085938 11.191406 C 16.058594 11.054688 16.003906 10.941406 15.929688 10.867188 C 15.863281 10.785156 15.773438 10.738281 15.675781 10.710938 C 15.601562 10.6875 15.457031 10.679688 15.238281 10.679688 L 15.015625 10.679688 Z M 15.015625 10.671875 "/>
</g>
</svg>
