<!-- Generator: Adobe Illustrator 19.2.1, SVG Export Plug-In . SVG Version: 6.00 Build 0)  -->
<svg xmlns="http://www.w3.org/2000/svg" xmlns:xlink="http://www.w3.org/1999/xlink" width="16px" height="16px" viewBox="0 0 16 16" version="1.1">
<g id="surface1">
<path style=" stroke:none;fill-rule:nonzero;fill:rgb(0%,65.882355%,9.411765%);fill-opacity:1;" d="M 11.523438 1.039062 C 11.398438 0.960938 11.273438 0.886719 11.148438 0.824219 C 11.011719 0.761719 10.875 0.699219 10.738281 0.636719 C 10.6875 0.625 10.648438 0.601562 10.601562 0.585938 C 10.476562 0.539062 10.363281 0.488281 10.238281 0.449219 C 9.5625 0.226562 8.851562 0.113281 8.101562 0.113281 C 4.289062 0.113281 1.210938 3.199219 1.210938 7.011719 C 1.210938 10.375 3.613281 13.164062 6.773438 13.789062 L 6.773438 15.761719 C 10.886719 15.136719 14.539062 11.863281 14.8125 7.5625 C 14.976562 4.960938 13.6875 2.3125 11.523438 1.039062 Z M 6.449219 2.699219 C 6.675781 2.675781 6.925781 2.761719 7.085938 2.960938 C 7.210938 3.085938 7.289062 3.25 7.375 3.425781 C 7.625 4.011719 7.539062 4.648438 7.199219 5.113281 C 6.613281 4.988281 6.074219 4.613281 5.824219 4.023438 C 5.738281 3.863281 5.6875 3.636719 5.6875 3.476562 C 5.699219 3.050781 6.0625 2.738281 6.449219 2.699219 Z M 4.386719 4.738281 C 4.4375 4.738281 4.476562 4.738281 4.523438 4.738281 C 4.738281 4.738281 4.898438 4.789062 5.113281 4.875 C 5.699219 5.125 6.125 5.625 6.25 6.175781 C 5.75 6.511719 5.0625 6.601562 4.476562 6.351562 C 4.3125 6.261719 4.148438 6.175781 3.976562 6.050781 C 3.425781 5.601562 3.726562 4.761719 4.386719 4.738281 Z M 4.523438 9.074219 C 3.761719 9.113281 3.398438 8.238281 3.949219 7.773438 C 4.074219 7.648438 4.238281 7.5625 4.449219 7.476562 C 4.675781 7.375 4.898438 7.335938 5.136719 7.324219 C 5.523438 7.3125 5.898438 7.425781 6.210938 7.636719 C 6.125 8.1875 5.710938 8.6875 5.125 8.9375 C 4.9375 9.039062 4.726562 9.074219 4.523438 9.074219 Z M 7.425781 10.300781 C 7.335938 10.460938 7.261719 10.636719 7.136719 10.800781 C 6.710938 11.351562 5.738281 10.960938 5.789062 10.25 C 5.789062 10.085938 5.835938 9.875 5.925781 9.710938 C 6.175781 9.125 6.675781 8.75 7.261719 8.625 C 7.585938 9.125 7.675781 9.761719 7.425781 10.300781 Z M 8.5625 3.425781 C 8.648438 3.261719 8.726562 3.085938 8.851562 2.925781 C 9.023438 2.726562 9.273438 2.636719 9.511719 2.664062 C 9.898438 2.699219 10.273438 3.011719 10.25 3.460938 C 10.25 3.625 10.199219 3.851562 10.113281 4.011719 C 9.863281 4.601562 9.363281 4.976562 8.773438 5.101562 C 8.398438 4.648438 8.3125 4.023438 8.5625 3.425781 Z M 8.9375 10.800781 C 8.8125 10.675781 8.738281 10.511719 8.648438 10.335938 C 8.398438 9.75 8.488281 9.113281 8.824219 8.648438 C 9.414062 8.773438 9.949219 9.148438 10.199219 9.738281 C 10.289062 9.898438 10.335938 10.125 10.335938 10.289062 C 10.363281 10.9375 9.398438 11.3125 8.9375 10.800781 Z M 11.511719 9.039062 C 11.300781 9.039062 11.136719 8.988281 10.925781 8.898438 C 10.335938 8.648438 9.914062 8.148438 9.789062 7.601562 C 10.101562 7.386719 10.488281 7.273438 10.875 7.289062 C 11.101562 7.289062 11.335938 7.335938 11.5625 7.4375 C 11.726562 7.523438 11.886719 7.601562 12.0625 7.726562 C 12.636719 8.148438 12.261719 9.085938 11.511719 9.039062 Z M 11.511719 9.039062 "/>
</g>
</svg>
