
<svg xmlns="http://www.w3.org/2000/svg" xmlns:xlink="http://www.w3.org/1999/xlink" width="16px" height="16px" viewBox="0 0 16 16" version="1.1">
<defs>
<linearGradient id="linear0" gradientUnits="userSpaceOnUse" x1="85.239998" y1="97.603996" x2="91.053001" y2="-49.514999" gradientTransform="matrix(0.125,0,0,0.125,0,0)">
<stop offset="0" style="stop-color:rgb(97.647059%,62.7451%,23.529412%);stop-opacity:1;"/>
<stop offset="1" style="stop-color:rgb(96.862745%,59.215689%,30.588236%);stop-opacity:1;"/>
</linearGradient>
<linearGradient id="linear1" gradientUnits="userSpaceOnUse" x1="33.626999" y1="97.713997" x2="39.382" y2="-47.924999" gradientTransform="matrix(0.125,0,0,0.125,0,0)">
<stop offset="0" style="stop-color:rgb(97.647059%,62.7451%,23.529412%);stop-opacity:1;"/>
<stop offset="1" style="stop-color:rgb(96.862745%,59.215689%,30.588236%);stop-opacity:1;"/>
</linearGradient>
</defs>
<g id="surface1">
<path style=" stroke:none;fill-rule:nonzero;fill:url(#linear0);" d="M 14.769531 7.996094 C 15.421875 7.214844 15.816406 6.21875 15.816406 5.125 C 15.816406 2.636719 13.792969 0.625 11.308594 0.625 L 6 0.625 C 7.296875 1.5 8.367188 2.625 9.101562 3.875 L 11.308594 3.875 C 12 3.875 12.566406 4.429688 12.566406 5.125 C 12.566406 5.820312 12 6.375 11.308594 6.375 L 10.007812 6.375 C 10.109375 7 10.164062 7.453125 10.164062 8.011719 C 10.164062 8.5625 10.109375 9.125 10.011719 9.625 L 11.308594 9.625 C 12 9.625 12.566406 10.242188 12.566406 10.9375 C 12.566406 11.632812 12 12.25 11.308594 12.25 L 9.113281 12.25 C 8.949219 12.5 8.765625 12.84375 8.566406 13.121094 C 7.890625 14.074219 7.03125 14.875 6.035156 15.5 L 11.308594 15.5 C 13.726562 15.5 15.703125 13.53125 15.8125 11.140625 C 15.808594 11.179688 15.804688 11.1875 15.800781 11.226562 C 15.808594 11.121094 15.816406 11 15.816406 10.894531 C 15.816406 9.796875 15.421875 8.777344 14.769531 7.996094 Z M 14.769531 7.996094 "/>
<path style=" stroke:none;fill-rule:nonzero;fill:url(#linear1);" d="M 7.628906 12.191406 L 7.628906 12.171875 C 7.636719 12.15625 7.644531 12.132812 7.65625 12.121094 C 7.664062 12.105469 7.675781 12.085938 7.683594 12.074219 C 7.683594 12.074219 7.683594 12.070312 7.683594 12.070312 C 8.453125 10.902344 8.898438 9.515625 8.898438 8.019531 C 8.898438 3.9375 5.578125 0.625 1.496094 0.625 L 0.125 0.625 L 0.125 3.875 L 1.496094 3.875 C 3.785156 3.875 5.648438 5.726562 5.648438 8.019531 C 5.648438 8.640625 5.511719 9.226562 5.261719 9.757812 C 5.261719 9.761719 5.261719 9.804688 5.261719 9.804688 C 4.597656 11.222656 3.160156 12.25 1.496094 12.25 L 0.125 12.25 L 0.125 15.5 L 1.496094 15.5 C 4.042969 15.5 6.296875 14.160156 7.628906 12.191406 Z M 7.628906 12.191406 "/>
</g>
</svg>
