
<svg xmlns="http://www.w3.org/2000/svg" xmlns:xlink="http://www.w3.org/1999/xlink" width="24px" height="24px" viewBox="0 0 24 24" version="1.1">
<g id="surface1">
<path style=" stroke:none;fill-rule:nonzero;fill:rgb(0%,0%,0%);fill-opacity:1;" d="M 19.082031 10.785156 L 16.109375 7.816406 L 16.105469 7.808594 L 13.730469 5.4375 C 13.488281 5.191406 13.015625 4.933594 12.617188 4.933594 C 12.261719 4.933594 11.933594 5.007812 11.722656 5.132812 L 7.558594 7.214844 L 7.28125 7.367188 L 7.15625 7.621094 L 5.070312 11.972656 C 5.046875 12.015625 4.871094 12.398438 4.871094 12.679688 C 4.878906 13.128906 5.058594 13.5625 5.371094 13.882812 L 10.632812 19.144531 L 16.613281 19.144531 L 16.613281 16.675781 L 19.082031 16.675781 Z M 11.871094 5.40625 C 12.042969 5.304688 12.320312 5.242188 12.617188 5.242188 C 12.910156 5.242188 13.316406 5.457031 13.515625 5.65625 L 15.199219 7.339844 L 15.140625 7.339844 C 15.003906 7.320312 14.863281 7.3125 14.722656 7.316406 L 8.058594 7.316406 Z M 16.304688 18.835938 L 10.757812 18.835938 L 7.96875 16.046875 C 7.628906 15.707031 7.558594 15.566406 7.558594 14.875 L 7.558594 7.839844 L 16.304688 16.585938 Z M 16.304688 18.835938 "/>
</g>
</svg>
