
<svg xmlns="http://www.w3.org/2000/svg" xmlns:xlink="http://www.w3.org/1999/xlink" width="24px" height="24px" viewBox="0 0 24 24" version="1.1">
<g id="surface1">
<path style=" stroke:none;fill-rule:nonzero;fill:rgb(0%,0%,0%);fill-opacity:1;" d="M 12.300781 10.5 C 10.5 10.5 8.773438 10.425781 7.050781 10.050781 C 6.601562 9.976562 6.226562 9.75 5.773438 9.601562 C 5.550781 9.523438 5.476562 9.375 5.476562 9.148438 L 5.476562 6.523438 C 5.476562 6.375 5.550781 6.226562 5.699219 6.226562 C 6.226562 6 6.675781 5.773438 7.199219 5.699219 C 9.074219 5.25 10.875 5.25 12.75 5.25 C 14.25 5.25 15.824219 5.398438 17.25 5.773438 C 17.550781 5.851562 17.925781 6 18.226562 6.148438 C 18.449219 6.226562 18.523438 6.375 18.523438 6.601562 L 18.523438 9.226562 C 18.523438 9.375 18.375 9.523438 18.300781 9.601562 C 18 9.75 17.699219 9.898438 17.398438 9.976562 C 16.351562 10.125 15.300781 10.351562 14.25 10.425781 C 13.574219 10.5 12.898438 10.425781 12.300781 10.5 Z M 18.523438 10.648438 L 18.523438 13.351562 C 18.523438 13.5 18.300781 13.726562 18.148438 13.726562 C 17.699219 13.875 17.175781 14.101562 16.726562 14.175781 C 14.625 14.550781 12.449219 14.625 10.273438 14.550781 C 9.074219 14.476562 7.800781 14.398438 6.601562 14.023438 C 6.300781 13.949219 6 13.800781 5.699219 13.648438 C 5.550781 13.574219 5.476562 13.425781 5.476562 13.273438 L 5.476562 10.648438 C 7.648438 11.398438 9.824219 11.476562 12 11.476562 C 14.175781 11.550781 16.351562 11.398438 18.523438 10.648438 Z M 18.523438 14.851562 L 18.523438 17.476562 C 18.523438 17.625 18.300781 17.851562 18.148438 17.925781 C 17.550781 18.148438 16.949219 18.375 16.351562 18.449219 C 13.351562 18.898438 10.351562 18.898438 7.273438 18.375 C 6.75 18.300781 6.226562 18.074219 5.773438 17.925781 C 5.550781 17.851562 5.476562 17.699219 5.476562 17.398438 L 5.476562 14.851562 C 7.574219 15.601562 9.75 15.675781 12 15.675781 C 14.175781 15.675781 16.351562 15.601562 18.523438 14.851562 Z M 18.523438 14.851562 "/>
</g>
</svg>
