
<svg xmlns="http://www.w3.org/2000/svg" xmlns:xlink="http://www.w3.org/1999/xlink" width="24px" height="24px" viewBox="0 0 24 24" version="1.1">
<g id="surface1">
<path style=" stroke:none;fill-rule:nonzero;fill:rgb(0%,0%,0%);fill-opacity:1;" d="M 18.75 10.199219 L 18.75 10.425781 C 18.675781 10.5 18.675781 10.574219 18.601562 10.648438 C 18.375 10.949219 18.074219 11.25 17.851562 11.550781 C 17.625 11.773438 17.398438 12.074219 17.398438 12.449219 C 17.398438 12.523438 17.324219 12.523438 17.25 12.601562 C 15.675781 12.976562 14.101562 13.199219 12.523438 13.273438 C 11.398438 13.273438 10.273438 13.273438 9.148438 13.050781 C 8.324219 12.898438 7.574219 12.75 6.75 12.601562 C 6.675781 12.601562 6.601562 12.523438 6.601562 12.523438 C 6.601562 12.074219 6.375 11.773438 6.074219 11.550781 C 5.851562 11.324219 5.625 11.175781 5.398438 10.949219 C 5.023438 10.5 5.175781 9.976562 5.773438 9.75 C 6.300781 9.523438 6.898438 9.375 7.425781 9.074219 C 8.324219 8.625 9.226562 8.023438 10.125 7.5 C 10.726562 7.050781 11.25 6.75 11.925781 6.601562 L 12.148438 6.601562 C 12.75 6.75 13.351562 7.050781 13.875 7.351562 C 14.324219 7.574219 14.773438 7.875 15.148438 8.175781 C 16.125 8.699219 17.023438 9.226562 18.074219 9.601562 C 18.449219 9.675781 18.675781 9.824219 18.75 10.199219 Z M 12.074219 9.300781 C 11.550781 9.300781 11.101562 9.601562 10.800781 9.898438 C 10.800781 9.898438 10.726562 9.976562 10.726562 10.050781 C 10.800781 10.648438 11.023438 11.175781 11.398438 11.625 C 11.476562 11.773438 11.625 11.851562 11.773438 11.925781 C 12.148438 12.074219 12.449219 11.925781 12.675781 11.625 C 13.050781 11.175781 13.273438 10.648438 13.351562 10.050781 C 13.351562 9.976562 13.351562 9.976562 13.273438 9.898438 C 12.976562 9.601562 12.601562 9.300781 12.074219 9.300781 Z M 11.851562 17.398438 C 11.476562 17.324219 11.175781 17.324219 10.800781 17.25 C 9.601562 17.023438 8.699219 16.425781 7.875 15.523438 C 7.425781 15 7.050781 14.476562 6.75 13.875 C 6.75 13.800781 6.675781 13.800781 6.675781 13.726562 L 6.675781 13.648438 C 10.273438 14.550781 13.800781 14.550781 17.398438 13.648438 L 17.398438 13.800781 C 16.726562 15.148438 15.75 16.273438 14.324219 16.875 C 13.726562 17.175781 13.050781 17.324219 12.375 17.324219 L 12.226562 17.324219 C 12.074219 17.398438 11.925781 17.398438 11.851562 17.398438 Z M 11.851562 17.398438 "/>
</g>
</svg>
