
<svg xmlns="http://www.w3.org/2000/svg" xmlns:xlink="http://www.w3.org/1999/xlink" width="24px" height="24px" viewBox="0 0 24 24" version="1.1">
<g id="surface1">
<path style=" stroke:none;fill-rule:nonzero;fill:rgb(31.764707%,60.392159%,72.941178%);fill-opacity:1;" d="M 10.875 6.449219 L 12.375 6.449219 L 12.375 7.949219 L 10.875 7.949219 Z M 10.875 8.175781 L 12.375 8.175781 L 12.375 9.675781 L 10.875 9.675781 Z M 10.875 9.976562 L 12.375 9.976562 L 12.375 11.476562 L 10.875 11.476562 Z M 9.148438 8.175781 L 10.648438 8.175781 L 10.648438 9.675781 L 9.148438 9.675781 Z M 9.148438 9.976562 L 10.648438 9.976562 L 10.648438 11.476562 L 9.148438 11.476562 Z M 7.351562 8.175781 L 8.851562 8.175781 L 8.851562 9.675781 L 7.351562 9.675781 Z M 7.351562 9.976562 L 8.851562 9.976562 L 8.851562 11.476562 L 7.351562 11.476562 Z M 5.625 9.976562 L 7.125 9.976562 L 7.125 11.476562 L 5.625 11.476562 Z M 12.675781 9.976562 L 14.175781 9.976562 L 14.175781 11.476562 L 12.675781 11.476562 Z M 12.675781 9.976562 "/>
<path style=" stroke:none;fill-rule:nonzero;fill:rgb(31.764707%,60.392159%,72.941178%);fill-opacity:1;" d="M 20.324219 10.199219 C 20.023438 10.125 19.648438 10.050781 19.351562 10.050781 C 18.976562 10.125 18.75 9.976562 18.601562 9.601562 C 18.449219 9.226562 18.226562 8.925781 17.925781 8.699219 C 17.476562 8.175781 17.023438 8.324219 16.800781 8.925781 C 16.648438 9.449219 16.648438 10.050781 16.726562 10.574219 C 16.875 11.25 16.800781 11.398438 16.125 11.550781 C 15.300781 11.773438 3.898438 11.699219 3.898438 11.699219 C 3.75 11.699219 3.675781 12.074219 3.675781 12.449219 C 3.675781 12.824219 3.75 13.949219 3.976562 14.476562 C 4.726562 16.125 6 17.324219 7.875 17.476562 L 11.25 17.476562 C 13.425781 17.398438 15.148438 16.351562 16.648438 14.773438 C 17.25 14.101562 17.773438 13.351562 18.148438 12.523438 C 18.300781 12.226562 18.523438 12.074219 18.824219 12 C 19.351562 11.925781 19.800781 11.851562 20.175781 11.550781 C 20.25 11.398438 20.398438 11.25 20.476562 11.175781 C 21 10.800781 20.925781 10.351562 20.324219 10.199219 Z M 9.148438 14.023438 C 9.449219 14.023438 9.75 14.25 9.75 14.625 C 9.75 15 9.523438 15.226562 9.148438 15.226562 C 8.851562 15.226562 8.550781 15 8.550781 14.625 C 8.550781 14.25 8.851562 14.023438 9.148438 14.023438 Z M 5.476562 15.675781 C 6.074219 15.601562 6.675781 15.75 7.199219 15.601562 C 7.875 15.375 8.398438 15.449219 8.773438 16.199219 C 9 16.648438 9.523438 16.875 10.050781 17.175781 C 8.398438 17.398438 6.601562 16.800781 5.476562 15.675781 Z M 5.476562 15.675781 "/>
</g>
</svg>
