
<svg xmlns="http://www.w3.org/2000/svg" xmlns:xlink="http://www.w3.org/1999/xlink" width="16px" height="16px" viewBox="0 0 16 16" version="1.1">
<g id="surface1">
<path style=" stroke:none;fill-rule:nonzero;fill:rgb(0%,45.09804%,72.941178%);fill-opacity:1;" d="M 11.386719 3.117188 C 10.589844 2.621094 9.84375 2.425781 9.09375 1.933594 C 8.628906 1.617188 7.984375 0.867188 7.445312 0.226562 C 7.339844 1.257812 7.027344 1.679688 6.667969 1.976562 C 5.902344 2.578125 5.421875 2.757812 4.765625 3.117188 C 4.210938 3.402344 1.199219 5.199219 1.199219 9.0625 C 1.199219 12.929688 4.449219 15.773438 8.058594 15.773438 C 11.671875 15.773438 14.800781 13.152344 14.800781 9.183594 C 14.800781 5.214844 11.867188 3.414062 11.386719 3.117188 Z M 11.472656 14.367188 C 11.398438 14.441406 10.707031 14.917969 9.898438 14.996094 C 9.089844 15.070312 7.996094 15.113281 7.335938 14.515625 C 7.234375 14.410156 7.261719 14.261719 7.335938 14.199219 C 7.414062 14.140625 7.472656 14.09375 7.5625 14.09375 C 7.652344 14.09375 7.636719 14.09375 7.683594 14.125 C 7.980469 14.367188 8.429688 14.558594 9.390625 14.558594 C 10.347656 14.558594 11.023438 14.289062 11.324219 14.066406 C 11.457031 13.960938 11.515625 14.050781 11.53125 14.109375 C 11.546875 14.171875 11.578125 14.261719 11.472656 14.367188 Z M 8.851562 13.003906 C 9.015625 12.851562 9.285156 12.613281 9.539062 12.507812 C 9.792969 12.402344 9.929688 12.417969 10.167969 12.417969 C 10.410156 12.417969 10.664062 12.433594 10.84375 12.554688 C 11.023438 12.671875 11.128906 12.941406 11.1875 13.09375 C 11.246094 13.242188 11.1875 13.332031 11.066406 13.390625 C 10.964844 13.453125 10.949219 13.421875 10.84375 13.226562 C 10.738281 13.03125 10.648438 12.835938 10.125 12.835938 C 9.601562 12.835938 9.433594 13.015625 9.179688 13.226562 C 8.925781 13.4375 8.835938 13.511719 8.746094 13.390625 C 8.65625 13.273438 8.6875 13.152344 8.851562 13.003906 Z M 12.820312 13.121094 C 12.28125 13.078125 11.203125 11.398438 10.511719 11.371094 C 9.644531 11.339844 7.757812 13.183594 6.273438 13.183594 C 5.375 13.183594 5.105469 13.046875 4.804688 12.851562 C 4.355469 12.539062 4.132812 12.058594 4.144531 11.398438 C 4.160156 10.230469 5.253906 9.136719 6.632812 9.121094 C 8.386719 9.105469 9.597656 10.859375 10.484375 10.84375 C 11.234375 10.828125 12.671875 9.363281 13.375 9.363281 C 14.125 9.363281 14.335938 10.140625 14.335938 10.605469 C 14.335938 11.070312 14.183594 11.910156 13.824219 12.433594 C 13.464844 12.957031 13.242188 13.152344 12.820312 13.121094 Z M 12.820312 13.121094 "/>
</g>
</svg>
