
<svg xmlns="http://www.w3.org/2000/svg" xmlns:xlink="http://www.w3.org/1999/xlink" width="24px" height="24px" viewBox="0 0 24 24" version="1.1">
<g id="surface1">
<path style=" stroke:none;fill-rule:nonzero;fill:rgb(0%,0%,0%);fill-opacity:1;" d="M 16.21875 9.433594 C 15.648438 8.761719 14.585938 8.953125 13.847656 9.859375 C 13.816406 9.894531 13.789062 9.933594 13.761719 9.972656 C 13.550781 9.648438 13.339844 9.394531 13.164062 9.246094 C 12.914062 9.027344 12.425781 8.78125 11.84375 8.632812 C 12.179688 7.421875 11.914062 6.21875 11.234375 5.925781 C 10.539062 5.628906 9.679688 6.390625 9.308594 7.628906 C 9.160156 8.132812 9.113281 8.636719 9.160156 9.074219 C 7.914062 10.257812 6.648438 16.753906 8.03125 17.933594 C 9.433594 19.136719 14.308594 14.664062 14.597656 13.148438 C 14.597656 13.132812 14.601562 13.117188 14.605469 13.105469 C 15.050781 13.042969 15.53125 12.765625 15.917969 12.289062 C 16.652344 11.386719 16.789062 10.105469 16.21875 9.433594 Z M 16.21875 9.433594 "/>
</g>
</svg>
