
<svg xmlns="http://www.w3.org/2000/svg" xmlns:xlink="http://www.w3.org/1999/xlink" width="24px" height="24px" viewBox="0 0 24 24" version="1.1">
<g id="surface1">
<path style=" stroke:none;fill-rule:nonzero;fill:rgb(38.82353%,25.882354%,44.705883%);fill-opacity:1;" d="M 14.386719 9.472656 C 15.757812 10.96875 17.347656 12.234375 17.140625 14.707031 C 16.796875 18.765625 13.910156 19.785156 12.3125 19.855469 C 10.71875 19.929688 7.671875 19.367188 6.835938 15.539062 C 5.898438 11.242188 9.992188 4.640625 12.351562 3.695312 C 12.261719 4.726562 12.472656 6.3125 12.929688 7.382812 C 12.765625 7.367188 12.597656 7.363281 12.433594 7.363281 C 11.429688 7.363281 10.613281 7.636719 9.980469 8.183594 C 9.351562 8.730469 9.035156 9.433594 9.035156 10.292969 C 9.035156 10.785156 9.15625 11.175781 9.398438 11.46875 C 9.640625 11.761719 10.136719 12.066406 10.886719 12.378906 L 11.582031 12.671875 C 11.851562 12.785156 12.054688 12.929688 12.195312 13.105469 C 12.328125 13.285156 12.398438 13.496094 12.398438 13.738281 C 12.398438 14.128906 12.25 14.4375 11.953125 14.664062 C 11.65625 14.894531 11.246094 15.007812 10.726562 15.007812 C 10.308594 15.007812 9.894531 14.925781 9.480469 14.757812 C 9.046875 14.582031 8.644531 14.339844 8.289062 14.035156 L 7.945312 15.824219 C 8.394531 16.019531 8.863281 16.175781 9.34375 16.285156 C 9.773438 16.386719 10.214844 16.4375 10.660156 16.4375 C 11.726562 16.4375 12.578125 16.171875 13.207031 15.636719 C 13.835938 15.101562 14.148438 14.382812 14.148438 13.484375 C 14.148438 12.964844 14.019531 12.527344 13.753906 12.167969 C 13.492188 11.8125 13.074219 11.507812 12.503906 11.253906 L 11.824219 10.953125 L 11.785156 10.9375 C 11.0625 10.613281 10.703125 10.285156 10.703125 9.957031 C 10.703125 9.613281 10.847656 9.332031 11.136719 9.109375 C 11.429688 8.890625 11.804688 8.78125 12.261719 8.78125 C 12.695312 8.78125 13.09375 8.839844 13.445312 8.964844 C 13.800781 9.085938 14.113281 9.269531 14.378906 9.511719 Z M 10.886719 18.460938 C 11.964844 18.6875 12.792969 18.84375 12.890625 18.40625 C 13.039062 17.753906 10.523438 17.382812 8.839844 17.203125 C 9.34375 17.734375 10.363281 18.351562 10.886719 18.460938 Z M 10.886719 18.460938 "/>
</g>
</svg>
