
<svg xmlns="http://www.w3.org/2000/svg" xmlns:xlink="http://www.w3.org/1999/xlink" width="24px" height="24px" viewBox="0 0 24 24" version="1.1">
<g id="surface1">
<path style=" stroke:none;fill-rule:nonzero;fill:rgb(37.254903%,70.588237%,79.607844%);fill-opacity:1;" d="M 12 12.398438 L 5.113281 19.285156 L 18.886719 19.285156 Z M 12 12.398438 "/>
<path style=" stroke:none;fill-rule:nonzero;fill:rgb(93.333334%,64.313728%,0%);fill-opacity:1;" d="M 16.230469 15.832031 L 19.285156 18.886719 L 19.285156 12.777344 Z M 16.230469 15.832031 "/>
<path style=" stroke:none;fill-rule:nonzero;fill:rgb(34.901962%,38.431373%,46.666667%);fill-opacity:1;" d="M 11.601562 12 L 4.714844 5.113281 L 4.714844 18.886719 Z M 11.601562 12 "/>
<path style=" stroke:none;fill-rule:nonzero;fill:rgb(37.254903%,70.588237%,79.607844%);fill-opacity:1;" d="M 19.285156 11.191406 L 19.285156 4.714844 L 12.808594 4.714844 Z M 19.285156 11.191406 "/>
<path style=" stroke:none;fill-rule:nonzero;fill:rgb(54.901963%,83.92157%,21.176471%);fill-opacity:1;" d="M 15.847656 8.550781 L 19.277344 11.984375 L 15.832031 15.429688 L 12.398438 12 Z M 5.113281 4.714844 L 8.285156 7.886719 L 15.179688 7.886719 L 12.007812 4.714844 Z M 5.113281 4.714844 "/>
<path style=" stroke:none;fill-rule:nonzero;fill:rgb(93.333334%,64.313728%,0%);fill-opacity:1;" d="M 12 11.601562 L 15.148438 8.453125 L 8.851562 8.453125 Z M 12 11.601562 "/>
</g>
</svg>
