
<svg xmlns="http://www.w3.org/2000/svg" xmlns:xlink="http://www.w3.org/1999/xlink" width="16px" height="16px" viewBox="0 0 16 16" version="1.1">
<g id="surface1">
<path style=" stroke:none;fill-rule:nonzero;fill:rgb(66.274512%,1.960784%,20%);fill-opacity:1;" d="M 2.273438 3.011719 L 0.125 3 L 0.125 13 L 2.585938 13 L 2.585938 12.988281 C 1.375 11.699219 0.648438 9.898438 0.664062 7.761719 C 0.648438 5.875 1.25 4.238281 2.273438 3.011719 Z M 13.886719 12.988281 Z M 15.875 3 L 13.824219 3 C 14.601562 4.125 15.023438 5.414062 14.960938 7.011719 C 14.976562 7.164062 14.976562 7.25 14.960938 7.625 L 5.789062 7.625 C 5.789062 10.375 6.75 12.414062 9.199219 12.425781 C 10.886719 12.414062 12.101562 11.164062 12.9375 9.8125 L 15.3125 11 C 14.886719 11.761719 14.414062 12.375 13.886719 13 L 15.875 13 Z M 13.8125 3.011719 Z M 8.136719 3.199219 C 7.011719 3.199219 6.039062 4.125 5.9375 5.25 L 10.125 5.25 C 10.085938 4.125 9.273438 3.199219 8.136719 3.199219 Z M 8.136719 3.199219 "/>
</g>
</svg>
