
<svg xmlns="http://www.w3.org/2000/svg" xmlns:xlink="http://www.w3.org/1999/xlink" width="24px" height="24px" viewBox="0 0 24 24" version="1.1">
<g id="surface1">
<path style=" stroke:none;fill-rule:nonzero;fill:rgb(13.725491%,12.156863%,12.54902%);fill-opacity:1;" d="M 9.300781 12.601562 L 12 14.175781 L 12.074219 14.175781 C 13.425781 13.351562 14.773438 12.523438 16.199219 11.773438 L 16.199219 11.699219 C 15.824219 11.023438 15.449219 10.425781 15 9.75 C 14.023438 8.101562 13.050781 6.523438 12.074219 4.875 C 12 5.023438 11.925781 5.101562 11.851562 5.25 C 11.398438 6 10.949219 6.675781 10.574219 7.425781 C 10.199219 8.101562 9.75 8.773438 9.375 9.449219 C 8.925781 10.199219 8.476562 10.949219 8.023438 11.625 L 8.023438 11.699219 C 8.324219 12.074219 8.851562 12.300781 9.300781 12.601562 Z M 9.300781 12.601562 "/>
<path style=" stroke:none;fill-rule:nonzero;fill:rgb(13.725491%,12.156863%,12.54902%);fill-opacity:1;" d="M 12.523438 15.449219 C 12.375 15.523438 12.148438 15.675781 12 15.75 C 11.398438 15.375 10.800781 15.074219 10.199219 14.699219 C 9.523438 14.324219 8.851562 13.875 8.175781 13.5 C 8.101562 13.425781 8.023438 13.425781 7.875 13.351562 C 8.101562 13.648438 8.25 13.875 8.476562 14.175781 C 9 14.925781 9.523438 15.675781 10.125 16.425781 C 10.726562 17.324219 11.398438 18.148438 12 19.050781 C 12 19.050781 12 19.125 12.074219 19.125 C 12.976562 17.851562 13.949219 16.5 14.851562 15.226562 C 15.300781 14.625 15.75 13.949219 16.199219 13.351562 C 14.925781 14.023438 13.726562 14.699219 12.523438 15.449219 Z M 12.523438 15.449219 "/>
</g>
</svg>
