
<svg xmlns="http://www.w3.org/2000/svg" xmlns:xlink="http://www.w3.org/1999/xlink" width="16px" height="16px" viewBox="0 0 16 16" version="1.1">
<g id="surface1">
<path style=" stroke:none;fill-rule:nonzero;fill:rgb(23.921569%,35.294119%,59.607846%);fill-opacity:1;" d="M 14.550781 0.632812 L 1.449219 0.632812 C 1 0.632812 0.636719 0.996094 0.636719 1.445312 L 0.636719 14.550781 C 0.636719 15 1 15.363281 1.449219 15.363281 L 8.5 15.363281 L 8.5 9.660156 L 6.582031 9.660156 L 6.582031 7.4375 L 8.5 7.4375 L 8.5 5.796875 C 8.5 3.894531 9.664062 2.859375 11.359375 2.859375 C 11.933594 2.855469 12.503906 2.886719 13.074219 2.945312 L 13.074219 4.933594 L 11.902344 4.933594 C 10.976562 4.933594 10.796875 5.375 10.796875 6.015625 L 10.796875 7.4375 L 13 7.4375 L 12.714844 9.660156 L 10.796875 9.660156 L 10.796875 15.367188 L 14.546875 15.367188 C 14.996094 15.367188 15.359375 15.003906 15.359375 14.554688 L 15.359375 1.449219 C 15.363281 1 15 0.636719 14.550781 0.632812 Z M 14.550781 0.632812 "/>
</g>
</svg>
