
<svg xmlns="http://www.w3.org/2000/svg" xmlns:xlink="http://www.w3.org/1999/xlink" width="24px" height="24px" viewBox="0 0 24 24" version="1.1">
<g id="surface1">
<path style=" stroke:none;fill-rule:nonzero;fill:rgb(100%,62.7451%,0%);fill-opacity:1;" d="M 13.921875 9.636719 L 12.21875 11.222656 L 10.640625 8.035156 L 11.457031 6.199219 C 11.664062 5.832031 12.003906 5.832031 12.210938 6.199219 Z M 13.921875 9.636719 "/>
<path style=" stroke:none;fill-rule:nonzero;fill:rgb(96.078432%,49.803922%,9.019608%);fill-opacity:1;" d="M 12.21875 11.222656 L 5.855469 17.140625 L 10.640625 8.035156 Z M 12.21875 11.222656 "/>
<path style=" stroke:none;fill-rule:nonzero;fill:rgb(100%,79.215688%,15.686275%);fill-opacity:1;" d="M 15.785156 7.214844 C 16.089844 6.921875 16.40625 7.019531 16.484375 7.4375 L 18.140625 17.0625 L 12.648438 20.355469 C 12.457031 20.460938 11.949219 20.507812 11.949219 20.507812 C 11.949219 20.507812 11.484375 20.449219 11.308594 20.351562 L 5.855469 17.140625 Z M 15.785156 7.214844 "/>
<path style=" stroke:none;fill-rule:nonzero;fill:rgb(100%,62.7451%,0%);fill-opacity:1;" d="M 10.640625 8.035156 L 5.855469 17.140625 L 7.988281 3.828125 C 8.066406 3.414062 8.300781 3.375 8.511719 3.742188 Z M 10.640625 8.035156 "/>
</g>
</svg>
