
<svg xmlns="http://www.w3.org/2000/svg" xmlns:xlink="http://www.w3.org/1999/xlink" width="24px" height="24px" viewBox="0 0 24 24" version="1.1">
<defs>
<filter id="alpha" filterUnits="objectBoundingBox" x="0%" y="0%" width="100%" height="100%">
  <feColorMatrix type="matrix" in="SourceGraphic" values="0 0 0 0 1 0 0 0 0 1 0 0 0 0 1 0 0 0 1 0"/>
</filter>
<mask id="mask0">
  <g filter="url(#alpha)">
<rect x="0" y="0" width="24" height="24" style="fill:rgb(0%,0%,0%);fill-opacity:0.6;stroke:none;"/>
  </g>
</mask>
<clipPath id="clip1">
  <rect x="0" y="0" width="24" height="24"/>
</clipPath>
<g id="surface5" clip-path="url(#clip1)">
<path style=" stroke:none;fill-rule:nonzero;fill:rgb(0%,0%,0%);fill-opacity:1;" d="M 15.824219 13.726562 L 13.351562 13.726562 L 13.050781 14.398438 C 12.976562 14.625 12.898438 14.773438 12.898438 14.925781 C 12.898438 15.148438 12.976562 15.300781 13.125 15.375 C 13.199219 15.449219 13.425781 15.449219 13.800781 15.523438 L 13.800781 15.75 L 11.476562 15.75 L 11.476562 15.523438 C 11.699219 15.449219 11.925781 15.375 12.074219 15.226562 C 12.226562 15.074219 12.449219 14.699219 12.675781 14.175781 L 15.148438 8.625 L 15.226562 8.625 L 17.699219 14.324219 C 17.925781 14.851562 18.148438 15.226562 18.300781 15.375 C 18.449219 15.449219 18.601562 15.523438 18.824219 15.523438 L 18.824219 15.75 L 15.449219 15.75 L 15.449219 15.523438 L 15.75 15.523438 C 16.050781 15.523438 16.199219 15.449219 16.351562 15.375 C 16.425781 15.300781 16.5 15.226562 16.5 15.148438 L 16.5 14.925781 C 16.5 14.925781 16.425781 14.773438 16.351562 14.550781 Z M 15.675781 13.273438 L 14.625 10.875 L 13.574219 13.273438 Z M 15.675781 13.273438 "/>
</g>
</defs>
<g id="surface1">
<use xlink:href="#surface5" mask="url(#mask0)"/>
<path style=" stroke:none;fill-rule:nonzero;fill:rgb(0%,0%,0%);fill-opacity:1;" d="M 5.023438 16.800781 C 5.398438 16.800781 5.699219 16.574219 5.925781 16.273438 C 6.074219 16.050781 6.300781 15.675781 6.523438 15 L 9.824219 6.824219 L 10.273438 6.824219 L 13.648438 14.699219 C 14.023438 15.601562 14.324219 16.125 14.476562 16.425781 C 14.625 16.726562 14.925781 16.800781 15.300781 16.800781 L 15.300781 17.175781 L 10.425781 17.175781 L 10.425781 16.800781 C 10.949219 16.800781 11.25 16.726562 11.398438 16.648438 C 11.550781 16.574219 11.625 16.425781 11.625 16.199219 C 11.625 16.050781 11.550781 15.898438 11.476562 15.675781 C 11.398438 15.523438 11.324219 15.375 11.25 15.148438 L 10.875 14.25 L 7.5 14.25 C 7.273438 14.851562 7.125 15.226562 7.050781 15.449219 C 6.898438 15.824219 6.824219 16.125 6.824219 16.273438 C 6.824219 16.5 6.976562 16.648438 7.273438 16.726562 C 7.425781 16.800781 7.726562 16.800781 8.023438 16.800781 L 8.023438 17.175781 L 5.023438 17.175781 Z M 10.648438 13.648438 L 9.226562 10.199219 L 9.074219 10.199219 L 7.726562 13.648438 Z M 10.648438 13.648438 "/>
</g>
</svg>
