
<svg xmlns="http://www.w3.org/2000/svg" xmlns:xlink="http://www.w3.org/1999/xlink" width="16px" height="16px" viewBox="0 0 16 16" version="1.1">
<g id="surface1">
<path style=" stroke:none;fill-rule:evenodd;fill:rgb(0%,54.901963%,72.941178%);fill-opacity:1;" d="M 14.523438 8.011719 L 14.703125 8.070312 L 14.714844 8.050781 C 14.617188 7.917969 14.519531 7.777344 14.335938 7.753906 C 14.203125 7.734375 14.066406 7.738281 13.933594 7.734375 C 13.9375 7.667969 13.914062 7.648438 13.851562 7.671875 C 13.792969 7.699219 13.730469 7.71875 13.667969 7.742188 C 13.523438 7.796875 13.378906 7.851562 13.234375 7.902344 C 13.207031 7.914062 13.175781 7.902344 13.144531 7.902344 C 13.148438 7.875 13.144531 7.847656 13.152344 7.820312 C 13.179688 7.722656 13.210938 7.628906 13.238281 7.53125 C 13.246094 7.496094 13.25 7.464844 13.257812 7.429688 L 13.394531 7.539062 C 13.425781 7.199219 13.355469 6.898438 13.175781 6.609375 L 13.355469 6.621094 C 13.277344 6.433594 13.15625 6.292969 12.988281 6.195312 C 12.777344 6.066406 12.539062 6.070312 12.304688 6.050781 C 12.265625 6.046875 12.230469 6.050781 12.183594 6.050781 C 12.363281 6.347656 12.4375 6.847656 12.328125 7.015625 L 12.269531 6.914062 C 12.132812 7.128906 12.007812 7.359375 11.859375 7.570312 C 11.710938 7.785156 11.523438 7.96875 11.269531 8.085938 L 11.300781 7.933594 C 11.261719 7.941406 11.238281 7.953125 11.214844 7.957031 C 11.148438 7.964844 11.085938 7.988281 11.023438 7.976562 C 10.910156 7.960938 10.796875 7.925781 10.683594 7.894531 C 10.609375 7.875 10.53125 7.851562 10.457031 7.828125 L 10.4375 7.808594 C 10.351562 7.746094 10.363281 7.671875 10.410156 7.589844 C 10.4375 7.535156 10.460938 7.472656 10.484375 7.410156 C 10.539062 7.273438 10.589844 7.136719 10.640625 7 C 10.695312 6.941406 10.753906 6.886719 10.796875 6.824219 C 10.847656 6.75 10.882812 6.667969 10.921875 6.589844 C 10.945312 6.53125 10.984375 6.492188 11.042969 6.46875 C 11.078125 6.453125 11.113281 6.421875 11.128906 6.386719 C 11.160156 6.324219 11.179688 6.257812 11.199219 6.191406 C 11.214844 6.136719 11.195312 6.097656 11.140625 6.082031 L 11.074219 6.058594 C 11.082031 6.035156 11.082031 6.011719 11.09375 5.992188 C 11.257812 5.640625 11.414062 5.289062 11.585938 4.945312 C 11.761719 4.589844 11.949219 4.246094 12.132812 3.898438 C 12.171875 3.824219 12.226562 3.757812 12.277344 3.6875 C 12.359375 3.691406 12.441406 3.703125 12.523438 3.703125 C 12.894531 3.710938 13.234375 3.617188 13.507812 3.351562 C 13.796875 3.078125 13.992188 2.742188 14.125 2.367188 L 14.152344 2.296875 L 14.101562 2.332031 C 13.734375 2.582031 13.339844 2.71875 12.886719 2.648438 C 12.894531 2.632812 12.894531 2.617188 12.902344 2.605469 C 13.0625 2.390625 13.21875 2.175781 13.378906 1.964844 C 13.4375 1.890625 13.5 1.820312 13.5625 1.738281 C 13.523438 1.722656 13.496094 1.710938 13.464844 1.703125 C 13.316406 1.65625 13.164062 1.605469 13.015625 1.5625 C 12.949219 1.542969 12.9375 1.511719 12.964844 1.453125 C 13.027344 1.320312 13.089844 1.179688 13.152344 1.046875 L 13.222656 0.917969 C 12.851562 0.847656 12.5 0.839844 12.125 0.886719 L 12.125 0.664062 C 11.875 0.6875 11.824219 0.703125 11.683594 0.730469 C 11.546875 0.761719 11.410156 0.808594 11.277344 0.847656 L 11.257812 0.835938 L 11.570312 0.289062 C 11.410156 0.308594 11.257812 0.316406 11.105469 0.34375 C 10.808594 0.398438 10.46875 0.457031 10.171875 0.519531 C 10.042969 0.546875 9.875 0.589844 9.75 0.625 L 9.75 0.390625 C 9.625 0.421875 9.402344 0.519531 9.1875 0.601562 C 9.234375 0.46875 9.289062 0.359375 9.324219 0.25 C 9.332031 0.226562 9.335938 0.199219 9.339844 0.171875 C 9.328125 0.167969 9.320312 0.160156 9.308594 0.160156 C 9.21875 0.171875 9.128906 0.1875 9.039062 0.203125 C 8.566406 0.296875 8.117188 0.453125 7.695312 0.683594 C 7.648438 0.710938 7.597656 0.738281 7.53125 0.773438 L 7.5 0.269531 C 7.246094 0.359375 7 0.476562 6.824219 0.703125 L 6.726562 0.3125 L 6.722656 0.28125 L 6.71875 0.265625 L 6.710938 0.277344 C 6.691406 0.300781 6.664062 0.324219 6.648438 0.351562 C 6.445312 0.632812 6.339844 0.949219 6.320312 1.292969 L 6.160156 0.941406 L 5.933594 2.015625 L 5.550781 1.527344 C 5.417969 1.882812 5.332031 2.242188 5.289062 2.621094 L 5.023438 2.320312 C 4.84375 2.867188 4.691406 3.410156 4.632812 3.980469 C 4.5 3.898438 4.414062 3.789062 4.359375 3.65625 C 4.277344 3.464844 4.257812 3.265625 4.265625 3.0625 C 4.265625 3.03125 4.261719 3 4.261719 2.96875 L 4.238281 2.96875 C 3.972656 3.898438 3.902344 4.851562 3.9375 5.820312 L 3.605469 5.1875 L 3.585938 5.191406 C 3.5625 5.433594 3.535156 5.675781 3.519531 5.921875 C 3.507812 6.070312 3.535156 6.046875 3.390625 6.082031 C 2.9375 6.195312 2.503906 6.355469 2.128906 6.640625 C 2.105469 6.660156 2.074219 6.671875 2.046875 6.683594 L 2.074219 6.710938 L 2.460938 6.855469 C 2.296875 7.039062 2.132812 7.214844 1.976562 7.398438 C 1.820312 7.582031 1.699219 7.789062 1.609375 8.027344 C 1.695312 7.992188 1.765625 7.960938 1.839844 7.933594 C 1.90625 7.910156 1.980469 7.890625 2.050781 7.871094 C 1.914062 8.011719 1.808594 8.164062 1.722656 8.332031 C 1.421875 8.921875 1.3125 9.558594 1.277344 10.210938 C 1.253906 10.632812 1.265625 11.054688 1.335938 11.472656 C 1.347656 11.542969 1.363281 11.617188 1.378906 11.6875 L 1.410156 11.691406 L 1.597656 11.246094 C 1.683594 11.722656 1.699219 12.199219 1.691406 12.679688 L 1.714844 12.691406 L 1.882812 12.484375 C 1.90625 12.53125 1.921875 12.550781 1.925781 12.574219 C 2.015625 12.894531 2.039062 13.226562 2.015625 13.558594 C 2.003906 13.730469 2.007812 13.898438 2.046875 14.066406 C 2.140625 14.476562 2.34375 14.828125 2.625 15.140625 C 2.679688 15.203125 2.757812 15.242188 2.828125 15.292969 C 2.859375 15.316406 2.882812 15.308594 2.878906 15.265625 L 2.871094 15.261719 L 2.878906 15.265625 L 3.011719 15.308594 L 3.222656 15.382812 L 3.234375 15.359375 L 3.097656 15.078125 L 3.085938 15.058594 L 3.089844 15.054688 L 3.097656 15.078125 C 3.105469 15.078125 3.121094 15.078125 3.125 15.085938 C 3.257812 15.214844 3.429688 15.28125 3.59375 15.355469 C 3.640625 15.464844 3.714844 15.550781 3.800781 15.628906 L 3.953125 15.523438 C 3.972656 15.550781 3.988281 15.570312 4.003906 15.589844 C 4.125 15.765625 4.292969 15.847656 4.507812 15.839844 C 4.644531 15.832031 4.78125 15.832031 4.914062 15.828125 C 5.378906 15.816406 5.84375 15.808594 6.308594 15.796875 C 6.628906 15.785156 6.953125 15.773438 7.273438 15.757812 C 7.421875 15.753906 7.570312 15.738281 7.734375 15.730469 C 7.496094 15.09375 6.992188 14.757812 6.4375 14.519531 L 6.914062 14.390625 C 7.605469 14.773438 8.367188 15.023438 8.988281 15.53125 L 9.019531 15.515625 L 8.960938 14.953125 C 9 14.980469 9.042969 15.007812 9.082031 15.035156 C 9.234375 15.148438 9.386719 15.261719 9.539062 15.375 L 9.566406 15.390625 L 9.578125 15.410156 C 9.804688 15.605469 10.050781 15.753906 10.371094 15.75 C 10.8125 15.738281 11.257812 15.75 11.703125 15.746094 C 11.738281 15.746094 11.785156 15.722656 11.800781 15.695312 C 11.902344 15.535156 12 15.371094 12.089844 15.203125 C 12.3125 14.785156 12.527344 14.363281 12.746094 13.941406 L 12.808594 13.824219 C 12.710938 13.851562 12.625 13.894531 12.539062 13.9375 C 12.449219 13.984375 12.355469 14.03125 12.265625 14.078125 L 12.257812 14.085938 L 12.261719 14.078125 C 12.273438 14.046875 12.277344 14.015625 12.292969 13.992188 C 12.492188 13.660156 12.6875 13.328125 12.898438 13.003906 C 13.105469 12.683594 13.351562 12.382812 13.480469 12.015625 C 13.539062 11.847656 13.585938 11.675781 13.636719 11.507812 L 13.636719 11.503906 L 13.621094 11.507812 C 13.527344 11.570312 13.4375 11.644531 13.335938 11.703125 C 13.21875 11.769531 13.089844 11.820312 12.964844 11.878906 L 12.960938 11.886719 L 12.960938 11.882812 L 12.964844 11.878906 L 12.988281 11.808594 L 13.082031 11.441406 C 13.042969 11.4375 13.027344 11.445312 13.011719 11.453125 C 12.742188 11.589844 12.480469 11.734375 12.207031 11.859375 C 11.832031 12.027344 11.480469 12.234375 11.160156 12.492188 C 11.054688 12.582031 10.949219 12.675781 10.84375 12.765625 L 10.820312 12.75 C 10.710938 12.65625 10.605469 12.558594 10.5 12.464844 C 10.433594 12.40625 10.367188 12.347656 10.300781 12.289062 C 10.53125 11.992188 10.71875 11.667969 10.828125 11.308594 C 10.902344 11.078125 10.945312 10.839844 11.003906 10.605469 L 11.070312 10.582031 C 11.25 10.519531 11.433594 10.464844 11.625 10.480469 C 11.710938 10.484375 11.792969 10.507812 11.875 10.523438 L 11.8125 10.382812 L 11.804688 10.375 L 11.8125 10.382812 C 11.828125 10.386719 11.84375 10.386719 11.855469 10.394531 C 12 10.457031 12.140625 10.53125 12.289062 10.589844 C 12.527344 10.679688 12.78125 10.726562 13.039062 10.710938 C 13.074219 10.710938 13.101562 10.707031 13.074219 10.664062 C 13.097656 10.671875 13.121094 10.675781 13.148438 10.683594 C 13.339844 10.757812 13.539062 10.792969 13.742188 10.769531 C 13.925781 10.75 14.078125 10.65625 14.160156 10.472656 L 14.21875 10.5 C 14.273438 10.359375 14.226562 10.222656 14.199219 10.085938 C 14.195312 10.0625 14.195312 10.027344 14.210938 10.015625 C 14.261719 9.960938 14.316406 9.910156 14.375 9.859375 L 14.410156 9.941406 C 14.488281 9.804688 14.492188 9.660156 14.5 9.496094 L 14.578125 9.589844 L 14.609375 9.578125 C 14.585938 9.460938 14.582031 9.332031 14.53125 9.226562 C 14.460938 9.078125 14.453125 8.960938 14.550781 8.824219 C 14.609375 8.746094 14.632812 8.640625 14.683594 8.519531 C 14.691406 8.542969 14.695312 8.558594 14.703125 8.570312 C 14.707031 8.578125 14.722656 8.578125 14.734375 8.585938 C 14.726562 8.371094 14.628906 8.199219 14.523438 8.011719 Z M 14.523438 8.011719 "/>
</g>
</svg>
