<!-- Generator: Adobe Illustrator 19.2.1, SVG Export Plug-In . SVG Version: 6.00 Build 0)  -->
<svg xmlns="http://www.w3.org/2000/svg" xmlns:xlink="http://www.w3.org/1999/xlink" width="16px" height="16px" viewBox="0 0 16 16" version="1.1">
<g id="surface1">
<path style=" stroke:none;fill-rule:nonzero;fill:rgb(90.588236%,45.882353%,0%);fill-opacity:1;" d="M 11.789062 0.488281 L 4.210938 0.488281 C 2.136719 0.488281 0.4375 2.1875 0.4375 4.261719 L 0.4375 11.835938 C 0.4375 13.914062 2.136719 15.613281 4.210938 15.613281 L 11.789062 15.613281 C 13.863281 15.613281 15.5625 13.914062 15.5625 11.835938 L 15.5625 4.261719 C 15.5625 2.1875 13.863281 0.488281 11.789062 0.488281 Z M 8.613281 13.085938 C 5.8125 13.460938 3.085938 11.476562 2.789062 8.824219 C 2.4375 5.726562 4.460938 3.226562 7.5625 3.023438 C 8.914062 2.9375 10.289062 2.976562 11.648438 3.023438 C 11.875 3.039062 12.675781 3.039062 12.675781 3.039062 C 12.675781 3.039062 12.675781 3.363281 12.675781 3.425781 C 12.699219 3.835938 12.5625 4.425781 12.261719 4.664062 C 11.800781 5.023438 11.175781 5.25 10.585938 5.335938 C 9.8125 5.449219 9.023438 5.351562 8.238281 5.375 C 6.5 5.414062 5.386719 6.175781 5.164062 7.488281 C 4.9375 8.8125 5.351562 9.875 6.613281 10.476562 C 8 11.136719 9.414062 10.75 10.648438 9.238281 C 9.085938 8.9375 7.085938 9.726562 6.875 7.101562 C 9.023438 7.101562 11.101562 7.101562 13.175781 7.101562 C 13.6875 10.226562 11.8125 12.648438 8.613281 13.085938 Z M 8.613281 13.085938 "/>
</g>
</svg>
