
<svg xmlns="http://www.w3.org/2000/svg" xmlns:xlink="http://www.w3.org/1999/xlink" width="16px" height="16px" viewBox="0 0 16 16" version="1.1">
<g id="surface1">
<path style=" stroke:none;fill-rule:nonzero;fill:rgb(39.215687%,19.607843%,54.509807%);fill-opacity:1;" d="M 8 0 C 3.585938 0 0 3.585938 0 8 C 0 12.414062 3.585938 16 8 16 C 12.414062 16 16 12.414062 16 8 C 16 3.585938 12.414062 0 8 0 Z M 1.648438 8 L 8 14.351562 C 4.488281 14.351562 1.648438 11.511719 1.648438 8 Z M 9.425781 14.1875 L 1.8125 6.5625 C 2.460938 3.75 4.988281 1.648438 8 1.648438 C 10.074219 1.648438 11.914062 2.636719 13.0625 4.175781 L 12.125 5.074219 C 11.210938 3.773438 9.710938 2.9375 8 2.9375 C 5.800781 2.9375 3.9375 4.335938 3.238281 6.289062 C 4.136719 7.125 9.425781 12.351562 9.761719 12.75 C 11.351562 12.164062 12.550781 10.8125 12.9375 9.136719 L 10.238281 9.136719 L 10.238281 7.960938 L 14.363281 7.988281 C 14.351562 11.023438 12.25 13.550781 9.425781 14.1875 Z M 9.425781 14.1875 "/>
</g>
</svg>
