
<svg xmlns="http://www.w3.org/2000/svg" xmlns:xlink="http://www.w3.org/1999/xlink" width="16px" height="16px" viewBox="0 0 16 16" version="1.1">
<g id="surface1">
<path style=" stroke:none;fill-rule:nonzero;fill:rgb(44.313726%,41.176471%,33.333334%);fill-opacity:1;" d="M 4.550781 6.800781 C 4.414062 6.800781 4.273438 6.726562 4.210938 6.601562 L 4.113281 6.398438 L 4.074219 6.625 L 4.0625 6.726562 C 4.0625 7.136719 4.386719 7.460938 4.800781 7.460938 C 5.210938 7.460938 5.539062 7.136719 5.539062 6.726562 C 5.539062 6.335938 5.226562 6.011719 4.835938 5.988281 L 4.625 5.976562 L 4.800781 6.113281 C 4.886719 6.1875 4.949219 6.300781 4.949219 6.414062 C 4.9375 6.625 4.761719 6.800781 4.550781 6.800781 Z M 4.488281 5.125 C 5.113281 5.125 5.648438 5.550781 5.8125 6.113281 C 5.914062 5.835938 6.074219 5.601562 6.289062 5.414062 C 4.25 5.289062 3.375 3.476562 3.375 3.476562 L 3.324219 5.761719 C 3.5625 5.386719 3.988281 5.125 4.488281 5.125 Z M 7.710938 7.75 C 8.175781 7.75 8.550781 7.375 8.550781 6.914062 C 8.550781 6.460938 8.199219 6.085938 7.75 6.074219 L 7.5625 6.0625 L 7.710938 6.175781 C 7.824219 6.261719 7.886719 6.398438 7.886719 6.550781 C 7.886719 6.8125 7.675781 7.023438 7.414062 7.023438 C 7.238281 7.023438 7.074219 6.925781 6.988281 6.773438 L 6.898438 6.613281 L 6.875 6.800781 L 6.863281 6.914062 C 6.875 7.363281 7.25 7.75 7.710938 7.75 Z M 15.75 13.648438 C 15.699219 13.476562 15.648438 13.300781 15.601562 13.136719 C 15.289062 12.011719 15.050781 11.136719 14.0625 11.226562 C 13.914062 11.238281 13.789062 11.289062 13.675781 11.363281 L 12.6875 10.738281 L 12.648438 10.738281 L 12.574219 10.5 L 12.425781 10.601562 C 12.113281 10.398438 11.761719 10.226562 11.414062 10.0625 C 12.539062 8.726562 13.148438 6.363281 12.726562 2.5 C 12.6875 2.164062 12.5 2.113281 12.375 2.476562 C 12.273438 2.789062 11.613281 4.761719 8.199219 5.3125 C 8.648438 5.601562 8.949219 6.101562 8.949219 6.675781 C 8.949219 7.574219 8.226562 8.300781 7.324219 8.300781 C 6.5625 8.300781 5.914062 7.761719 5.75 7.050781 C 5.539062 7.550781 5.050781 7.898438 4.476562 7.898438 C 3.898438 7.898438 3.414062 7.550781 3.199219 7.050781 C 3.1875 7.074219 3.175781 7.101562 3.164062 7.113281 C 3.148438 7.085938 3.125 7.0625 3.113281 7.023438 C 2.4375 6.101562 1.363281 5.726562 0.699219 6.199219 C 0.0390625 6.6875 0.0507812 7.824219 0.726562 8.75 C 1.289062 9.523438 2.125 9.914062 2.773438 9.738281 C 4.664062 11.136719 8.148438 12.351562 10.488281 10.863281 C 10.949219 11.125 11.476562 11.375 11.960938 11.550781 L 11.960938 11.5625 L 12.011719 11.710938 L 12.210938 11.636719 L 12.238281 11.664062 L 13.335938 12.0625 C 13.351562 12.414062 13.5625 12.800781 14.011719 12.976562 C 14.851562 13.300781 15.648438 13.699219 15.648438 13.710938 L 15.773438 13.773438 Z M 0.625 7.136719 C 0.625 6.738281 0.898438 6.414062 1.226562 6.414062 C 1.5625 6.414062 1.824219 6.738281 1.824219 7.136719 C 1.824219 7.539062 1.550781 7.863281 1.226562 7.863281 C 0.886719 7.863281 0.625 7.539062 0.625 7.136719 Z M 5.199219 9.460938 C 7.488281 9.925781 8.664062 9.5 9.335938 8.960938 C 9.164062 8.726562 8.851562 8.476562 8.851562 8.476562 C 8.851562 8.476562 9.648438 8.699219 9.9375 9.0625 C 10.0625 9.226562 10.101562 9.363281 10.085938 9.5 C 9.6875 9.363281 9.386719 9.273438 9.324219 9.25 C 9.074219 9.136719 8.835938 9.210938 8.773438 9.398438 C 8.726562 9.539062 8.761719 9.699219 8.886719 9.824219 C 8.101562 10.1875 6.8125 10.039062 5.199219 9.460938 Z M 5.199219 9.460938 "/>
</g>
</svg>
