
<svg xmlns="http://www.w3.org/2000/svg" xmlns:xlink="http://www.w3.org/1999/xlink" width="24px" height="24px" viewBox="0 0 24 24" version="1.1">
<g id="surface1">
<path style=" stroke:none;fill-rule:nonzero;fill:rgb(67.058825%,67.058825%,67.058825%);fill-opacity:1;" d="M 5.25 12.148438 L 5.25 11.925781 C 5.324219 11.550781 5.550781 11.398438 5.773438 11.101562 L 9.523438 7.351562 C 9.523438 7.351562 9.601562 7.351562 9.601562 7.425781 L 10.949219 8.773438 C 11.023438 8.851562 11.023438 8.925781 10.949219 9 C 10.875 9.449219 11.023438 9.898438 11.398438 10.125 C 11.550781 10.199219 11.550781 10.273438 11.550781 10.425781 L 11.550781 13.726562 C 11.550781 13.875 11.476562 13.949219 11.398438 14.023438 C 11.023438 14.25 10.800781 14.699219 10.949219 15.148438 C 11.101562 15.601562 11.476562 15.898438 11.925781 15.898438 C 12.375 15.898438 12.75 15.601562 12.898438 15.226562 C 13.050781 14.773438 12.898438 14.324219 12.523438 14.023438 C 12.375 13.949219 12.375 13.875 12.375 13.726562 L 12.375 10.351562 L 12.449219 10.351562 L 13.648438 11.550781 C 13.726562 11.625 13.726562 11.699219 13.726562 11.699219 L 13.726562 12.148438 C 13.800781 12.75 14.324219 13.125 14.925781 13.050781 C 15.523438 12.976562 15.976562 12.375 15.824219 11.773438 C 15.75 11.25 15.148438 10.875 14.625 10.949219 C 14.550781 10.949219 14.476562 10.949219 14.324219 10.875 L 13.050781 9.601562 C 12.976562 9.523438 12.976562 9.449219 12.976562 9.375 C 13.125 8.699219 12.449219 8.023438 11.773438 8.175781 C 11.699219 8.175781 11.550781 8.175781 11.550781 8.101562 C 11.101562 7.648438 10.648438 7.199219 10.199219 6.824219 C 10.125 6.75 10.125 6.675781 10.199219 6.601562 C 10.574219 6.300781 10.875 5.925781 11.175781 5.625 C 11.625 5.175781 12.074219 5.175781 12.523438 5.625 L 18.226562 11.324219 C 18.675781 11.773438 18.675781 12.226562 18.226562 12.675781 L 12.75 18.148438 C 12.523438 18.375 12.300781 18.675781 11.925781 18.75 L 11.773438 18.75 C 11.625 18.675781 11.398438 18.601562 11.25 18.449219 C 10.800781 18 10.273438 17.550781 9.824219 17.023438 L 5.699219 12.898438 C 5.625 12.675781 5.324219 12.449219 5.25 12.148438 Z M 5.25 12.148438 "/>
</g>
</svg>
