
<svg xmlns="http://www.w3.org/2000/svg" xmlns:xlink="http://www.w3.org/1999/xlink" width="24px" height="24px" viewBox="0 0 24 24" version="1.1">
<g id="surface1">
<path style=" stroke:none;fill-rule:nonzero;fill:rgb(100%,100%,100%);fill-opacity:1;" d="M 13.351562 15.449219 C 13.648438 15.375 13.949219 15.375 14.25 15.300781 C 15.148438 15.074219 15.898438 14.625 16.273438 13.800781 C 16.726562 12.898438 16.800781 12 16.574219 11.023438 C 16.5 10.574219 16.273438 10.273438 15.976562 9.898438 C 15.898438 9.824219 15.898438 9.75 15.898438 9.675781 C 16.050781 9.074219 16.050781 8.550781 15.824219 7.949219 C 15.824219 7.875 15.75 7.800781 15.601562 7.800781 C 15.226562 7.800781 14.925781 7.949219 14.625 8.101562 C 14.324219 8.25 14.101562 8.398438 13.875 8.550781 C 13.800781 8.625 13.726562 8.625 13.648438 8.625 C 12.449219 8.324219 11.324219 8.324219 10.125 8.625 C 10.050781 8.625 9.976562 8.625 9.898438 8.550781 C 9.375 8.25 8.925781 7.949219 8.324219 7.875 C 7.949219 7.800781 7.949219 7.800781 7.875 8.175781 C 7.726562 8.699219 7.726562 9.226562 7.875 9.75 L 7.875 9.898438 C 7.199219 10.648438 7.050781 11.625 7.199219 12.523438 C 7.273438 12.824219 7.273438 13.050781 7.351562 13.351562 C 7.726562 14.398438 8.476562 15 9.601562 15.300781 C 9.898438 15.375 10.199219 15.449219 10.574219 15.523438 C 10.351562 15.75 10.199219 16.125 10.125 16.425781 C 10.125 16.5 10.050781 16.5 10.050781 16.5 C 9.300781 16.800781 8.476562 16.726562 7.949219 15.898438 C 7.726562 15.523438 7.425781 15.226562 6.898438 15.148438 L 6.523438 15.148438 C 6.375 15.148438 6.375 15.300781 6.449219 15.375 L 6.601562 15.523438 C 6.976562 15.75 7.273438 16.125 7.425781 16.574219 C 7.726562 17.25 8.25 17.550781 9 17.625 C 9.300781 17.625 9.675781 17.625 10.050781 17.550781 L 10.050781 18.976562 C 10.050781 19.199219 9.824219 19.351562 9.523438 19.273438 C 8.925781 19.050781 8.324219 18.75 7.726562 18.375 C 5.476562 16.800781 4.273438 14.625 4.425781 11.851562 C 4.574219 8.398438 7.125 5.625 10.5 4.949219 C 14.398438 4.199219 18.148438 6.601562 19.199219 10.425781 C 20.175781 14.175781 18 18.074219 14.398438 19.273438 C 14.023438 19.425781 13.800781 19.273438 13.800781 18.824219 L 13.800781 17.023438 C 13.875 16.425781 13.800781 15.898438 13.351562 15.449219 Z M 13.351562 15.449219 "/>
</g>
</svg>
