
<svg xmlns="http://www.w3.org/2000/svg" xmlns:xlink="http://www.w3.org/1999/xlink" width="24px" height="24px" viewBox="0 0 24 24" version="1.1">
<g id="surface1">
<path style=" stroke:none;fill-rule:nonzero;fill:rgb(99.215686%,99.607843%,98.823529%);fill-opacity:1;" d="M 13.726562 7.5 C 12.898438 7.5 12.300781 7.050781 12.148438 6.300781 C 12.074219 5.851562 12.226562 5.476562 12.523438 5.175781 C 12.976562 4.648438 13.726562 4.5 14.398438 4.726562 C 15 4.949219 15.375 5.476562 15.300781 6.148438 C 15.300781 6.75 14.925781 7.199219 14.25 7.425781 C 14.023438 7.5 13.875 7.5 13.726562 7.5 Z M 12.449219 6.148438 C 12.449219 6.449219 12.675781 6.675781 12.898438 6.675781 C 13.125 6.675781 13.351562 6.449219 13.351562 6.148438 C 13.351562 5.851562 13.125 5.625 12.898438 5.625 C 12.675781 5.699219 12.449219 5.925781 12.449219 6.148438 Z M 9.824219 4.800781 C 11.25 4.800781 11.625 6 11.25 6.824219 C 11.023438 7.351562 10.574219 7.574219 9.976562 7.648438 C 9.226562 7.800781 8.550781 7.351562 8.324219 6.675781 C 8.023438 5.851562 8.550781 5.023438 9.449219 4.800781 Z M 9.523438 6.300781 C 9.523438 6 9.300781 5.773438 9.074219 5.773438 C 8.851562 5.773438 8.625 6 8.625 6.300781 C 8.625 6.601562 8.851562 6.824219 9.074219 6.824219 C 9.300781 6.824219 9.523438 6.601562 9.523438 6.300781 Z M 11.925781 7.050781 C 12.074219 7.050781 12.226562 7.050781 12.375 7.125 C 12.601562 7.199219 12.675781 7.425781 12.601562 7.574219 C 12.601562 7.648438 12.601562 7.648438 12.675781 7.726562 C 12.824219 7.800781 12.898438 7.875 13.050781 8.023438 C 13.199219 8.175781 13.199219 8.324219 13.125 8.476562 C 13.050781 8.625 12.824219 8.699219 12.675781 8.625 C 12.601562 8.625 12.449219 8.550781 12.375 8.476562 C 12.148438 8.398438 11.925781 8.398438 11.699219 8.476562 C 11.550781 8.550781 11.398438 8.625 11.25 8.625 C 10.949219 8.625 10.800781 8.476562 10.875 8.175781 C 10.875 7.949219 11.023438 7.800781 11.175781 7.726562 C 11.175781 7.726562 11.25 7.726562 11.25 7.648438 C 11.175781 7.351562 11.398438 7.273438 11.550781 7.125 C 11.625 7.050781 11.773438 7.050781 11.925781 7.050781 Z M 11.851562 7.875 C 12.074219 7.875 12.300781 7.800781 12.449219 7.726562 C 12.675781 7.574219 12.675781 7.425781 12.523438 7.273438 C 12.449219 7.199219 12.300781 7.125 12.226562 7.125 C 12 7.050781 11.699219 7.125 11.550781 7.273438 C 11.324219 7.5 11.398438 7.726562 11.699219 7.800781 C 11.625 7.875 11.699219 7.875 11.851562 7.875 Z M 11.851562 7.875 "/>
<path style=" stroke:none;fill-rule:nonzero;fill:rgb(99.215686%,99.607843%,98.823529%);fill-opacity:1;" d="M 12.523438 9.074219 L 12.523438 9.226562 C 12.523438 9.375 12.449219 9.523438 12.300781 9.523438 C 12.148438 9.523438 12 9.375 12 9.300781 C 11.925781 9.074219 12 8.851562 12 8.550781 C 12 8.476562 12 8.476562 12.074219 8.476562 C 12.226562 8.476562 12.375 8.550781 12.449219 8.625 C 12.523438 8.625 12.523438 8.699219 12.523438 8.699219 Z M 11.851562 8.925781 L 11.851562 9.148438 C 11.851562 9.300781 11.773438 9.375 11.699219 9.449219 C 11.550781 9.601562 11.398438 9.523438 11.324219 9.375 C 11.25 9.226562 11.25 9 11.25 8.773438 C 11.25 8.699219 11.25 8.699219 11.324219 8.699219 C 11.476562 8.625 11.625 8.625 11.773438 8.550781 C 11.851562 8.550781 11.851562 8.550781 11.851562 8.625 Z M 11.851562 8.925781 "/>
<path style=" stroke:none;fill-rule:nonzero;fill:rgb(32.156864%,60.784316%,72.941178%);fill-opacity:1;" d="M 7.875 20.25 L 7.726562 20.25 C 7.648438 20.175781 7.5 20.101562 7.425781 19.949219 C 7.273438 19.800781 7.273438 19.574219 7.5 19.351562 C 7.648438 19.125 7.949219 18.976562 8.175781 18.824219 C 7.574219 18.300781 7.273438 17.699219 7.125 16.949219 C 6.976562 16.425781 6.976562 15.824219 6.976562 15.226562 C 6.976562 14.324219 7.125 13.5 7.125 12.601562 C 6.898438 12.75 6.675781 12.898438 6.375 12.976562 L 6.226562 12.976562 C 6.074219 12.824219 6 12.675781 6 12.523438 C 6 12.375 6.148438 12.226562 6.226562 12.148438 C 6.449219 12 6.675781 11.925781 6.976562 11.925781 C 7.125 11.925781 7.125 11.851562 7.125 11.773438 C 7.050781 11.023438 6.976562 10.273438 6.976562 9.523438 C 6.898438 8.773438 6.898438 7.949219 7.050781 7.199219 C 7.125 6.824219 7.125 6.824219 6.824219 6.75 C 6.449219 6.523438 6.226562 6.074219 6.300781 5.699219 C 6.449219 4.875 7.351562 4.5 8.101562 4.875 C 8.175781 4.949219 8.25 4.949219 8.324219 4.875 C 8.699219 4.574219 9.074219 4.351562 9.523438 4.199219 C 10.800781 3.75 12.148438 3.675781 13.425781 3.898438 C 14.101562 3.976562 14.773438 4.199219 15.300781 4.648438 C 15.449219 4.800781 15.601562 4.800781 15.75 4.726562 C 16.351562 4.425781 17.023438 4.648438 17.324219 5.25 C 17.625 5.851562 17.398438 6.375 16.726562 6.675781 C 16.648438 6.75 16.648438 6.75 16.648438 6.824219 C 16.875 7.574219 16.949219 8.324219 16.949219 9.148438 C 16.949219 10.050781 16.949219 10.875 17.023438 11.773438 C 17.023438 11.925781 17.023438 11.925781 17.175781 12 C 17.476562 12 17.699219 12.148438 17.925781 12.375 C 18.074219 12.523438 18.074219 12.601562 17.925781 12.824219 L 17.925781 12.898438 C 17.925781 13.050781 17.773438 13.125 17.625 13.125 C 17.476562 13.125 17.324219 13.050781 17.25 12.976562 C 17.175781 12.976562 17.101562 12.898438 17.023438 12.898438 L 17.023438 12.976562 C 17.023438 13.425781 17.101562 13.875 17.101562 14.398438 C 17.101562 15.226562 17.101562 15.976562 16.949219 16.800781 C 16.800781 17.550781 16.5 18.300781 15.976562 18.898438 C 15.898438 18.976562 15.898438 19.050781 15.976562 19.125 C 16.199219 19.273438 16.425781 19.5 16.574219 19.800781 C 16.648438 20.023438 16.574219 20.175781 16.351562 20.324219 C 16.199219 20.476562 16.050781 20.398438 15.898438 20.324219 L 15.601562 20.023438 C 15.449219 19.875 15.375 19.726562 15.226562 19.648438 C 15.148438 19.574219 15.074219 19.574219 15 19.648438 C 14.175781 20.101562 13.273438 20.25 12.375 20.25 C 11.324219 20.324219 10.199219 20.175781 9.226562 19.726562 L 9.148438 19.726562 C 9 19.875 8.699219 19.949219 8.550781 20.101562 C 8.324219 19.949219 8.101562 20.101562 7.875 20.25 Z M 13.726562 7.5 C 13.875 7.5 14.101562 7.5 14.25 7.425781 C 14.851562 7.199219 15.226562 6.75 15.300781 6.148438 C 15.300781 5.476562 14.925781 4.949219 14.398438 4.726562 C 13.800781 4.5 12.976562 4.726562 12.523438 5.175781 C 12.226562 5.476562 12.074219 5.851562 12.148438 6.300781 C 12.300781 7.050781 12.898438 7.5 13.726562 7.5 Z M 9.824219 4.800781 L 9.449219 4.800781 C 8.550781 4.949219 8.023438 5.773438 8.324219 6.675781 C 8.550781 7.351562 9.226562 7.726562 9.976562 7.648438 C 10.5 7.574219 10.949219 7.351562 11.25 6.824219 C 11.625 6 11.25 4.800781 9.824219 4.800781 Z M 11.925781 7.050781 C 11.773438 7.050781 11.625 7.050781 11.476562 7.125 C 11.25 7.273438 11.101562 7.351562 11.175781 7.648438 C 11.175781 7.726562 11.101562 7.726562 11.101562 7.726562 C 10.949219 7.800781 10.800781 7.949219 10.800781 8.175781 C 10.726562 8.476562 10.949219 8.625 11.175781 8.625 C 11.324219 8.625 11.476562 8.550781 11.625 8.476562 C 11.851562 8.398438 12.074219 8.398438 12.300781 8.476562 C 12.375 8.550781 12.523438 8.550781 12.601562 8.625 C 12.824219 8.699219 12.976562 8.625 13.050781 8.476562 C 13.125 8.324219 13.125 8.175781 12.976562 8.023438 C 12.898438 7.875 12.75 7.800781 12.601562 7.726562 C 12.523438 7.726562 12.523438 7.648438 12.523438 7.574219 C 12.601562 7.351562 12.523438 7.199219 12.300781 7.125 C 12.226562 7.050781 12.074219 7.050781 11.925781 7.050781 Z M 12.523438 9.074219 L 12.523438 8.699219 C 12.523438 8.625 12.523438 8.625 12.449219 8.625 C 12.300781 8.550781 12.148438 8.550781 12.074219 8.476562 C 12 8.476562 12 8.476562 12 8.550781 C 12 8.773438 11.925781 9 12 9.300781 C 12 9.449219 12.148438 9.601562 12.300781 9.523438 C 12.449219 9.523438 12.523438 9.375 12.523438 9.226562 Z M 11.851562 8.925781 L 11.851562 8.625 C 11.851562 8.550781 11.851562 8.550781 11.773438 8.550781 C 11.625 8.625 11.476562 8.625 11.324219 8.699219 C 11.25 8.699219 11.25 8.773438 11.25 8.773438 C 11.25 9 11.25 9.148438 11.324219 9.375 C 11.398438 9.523438 11.550781 9.601562 11.699219 9.449219 C 11.773438 9.375 11.851562 9.300781 11.851562 9.148438 C 11.773438 9.074219 11.851562 9 11.851562 8.925781 Z M 11.851562 8.925781 "/>
<path style=" stroke:none;fill-rule:nonzero;fill:rgb(32.156864%,60.784316%,72.941178%);fill-opacity:1;" d="M 12.449219 6.148438 C 12.449219 5.851562 12.675781 5.625 12.898438 5.625 C 13.125 5.625 13.351562 5.851562 13.351562 6.148438 C 13.351562 6.449219 13.125 6.675781 12.898438 6.675781 C 12.675781 6.675781 12.449219 6.449219 12.449219 6.148438 Z M 13.273438 6.300781 C 13.273438 6.226562 13.273438 6.148438 13.199219 6.148438 C 13.125 6.148438 13.125 6.226562 13.125 6.300781 C 13.125 6.375 13.125 6.449219 13.199219 6.449219 C 13.199219 6.449219 13.199219 6.375 13.273438 6.300781 Z M 9.523438 6.300781 C 9.523438 6.601562 9.300781 6.824219 9.074219 6.824219 C 8.851562 6.824219 8.625 6.601562 8.625 6.300781 C 8.625 6 8.851562 5.773438 9.074219 5.773438 C 9.300781 5.773438 9.523438 6 9.523438 6.300781 Z M 9.300781 6.523438 C 9.375 6.523438 9.375 6.449219 9.375 6.449219 C 9.375 6.375 9.375 6.300781 9.300781 6.300781 C 9.226562 6.300781 9.226562 6.375 9.226562 6.375 C 9.148438 6.449219 9.226562 6.523438 9.300781 6.523438 Z M 11.851562 7.875 C 11.773438 7.875 11.625 7.875 11.550781 7.800781 C 11.25 7.726562 11.25 7.5 11.398438 7.273438 C 11.625 7.125 11.851562 7.050781 12.074219 7.125 C 12.226562 7.125 12.300781 7.199219 12.375 7.273438 C 12.523438 7.425781 12.523438 7.648438 12.300781 7.726562 C 12.226562 7.800781 12.074219 7.875 11.851562 7.875 Z M 11.851562 7.875 "/>
<path style=" stroke:none;fill-rule:nonzero;fill:rgb(99.215686%,99.607843%,98.823529%);fill-opacity:1;" d="M 13.273438 6.300781 C 13.273438 6.375 13.273438 6.449219 13.199219 6.449219 C 13.125 6.449219 13.125 6.375 13.125 6.300781 C 13.125 6.226562 13.125 6.148438 13.199219 6.148438 C 13.199219 6.148438 13.199219 6.226562 13.273438 6.300781 Z M 9.300781 6.523438 C 9.226562 6.523438 9.226562 6.449219 9.226562 6.375 C 9.226562 6.300781 9.226562 6.226562 9.300781 6.300781 C 9.375 6.300781 9.375 6.375 9.375 6.449219 C 9.375 6.523438 9.375 6.523438 9.300781 6.523438 Z M 9.300781 6.523438 "/>
</g>
</svg>
