
<svg xmlns="http://www.w3.org/2000/svg" xmlns:xlink="http://www.w3.org/1999/xlink" width="24px" height="24px" viewBox="0 0 24 24" version="1.1">
<g id="surface1">
<path style=" stroke:none;fill-rule:nonzero;fill:rgb(0%,67.450982%,84.313726%);fill-opacity:1;" d="M 1.925781 10.996094 C 1.886719 10.996094 1.878906 10.976562 1.894531 10.945312 L 2.09375 10.65625 C 2.113281 10.625 2.160156 10.601562 2.199219 10.601562 L 5.558594 10.601562 C 5.59375 10.601562 5.605469 10.632812 5.585938 10.667969 L 5.425781 10.945312 C 5.40625 10.976562 5.359375 11.007812 5.332031 11.007812 Z M 0.503906 11.980469 C 0.464844 11.980469 0.457031 11.957031 0.476562 11.925781 L 0.671875 11.636719 C 0.691406 11.605469 0.738281 11.585938 0.777344 11.585938 L 5.066406 11.585938 C 5.105469 11.585938 5.125 11.617188 5.117188 11.648438 L 5.039062 11.902344 C 5.03125 11.945312 4.992188 11.96875 4.957031 11.96875 Z M 2.78125 12.960938 C 2.742188 12.960938 2.734375 12.929688 2.753906 12.894531 L 2.882812 12.628906 C 2.902344 12.597656 2.941406 12.566406 2.980469 12.566406 L 4.859375 12.566406 C 4.898438 12.566406 4.917969 12.597656 4.917969 12.640625 L 4.898438 12.894531 C 4.898438 12.9375 4.859375 12.96875 4.832031 12.96875 Z M 2.78125 12.960938 "/>
<path style=" stroke:none;fill-rule:nonzero;fill:rgb(0%,67.450982%,84.313726%);fill-opacity:1;" d="M 12.550781 10.804688 C 11.957031 10.976562 11.554688 11.105469 10.96875 11.273438 C 10.828125 11.316406 10.820312 11.328125 10.695312 11.167969 C 10.554688 10.988281 10.453125 10.871094 10.253906 10.761719 C 9.660156 10.433594 9.085938 10.527344 8.550781 10.921875 C 7.910156 11.390625 7.582031 12.085938 7.589844 12.949219 C 7.601562 13.800781 8.117188 14.507812 8.859375 14.625 C 9.5 14.71875 10.039062 14.464844 10.460938 13.921875 C 10.546875 13.800781 10.621094 13.675781 10.714844 13.523438 L 8.898438 13.523438 C 8.703125 13.523438 8.652344 13.386719 8.71875 13.207031 C 8.84375 12.875 9.066406 12.320312 9.199219 12.042969 C 9.226562 11.980469 9.292969 11.871094 9.433594 11.871094 L 12.859375 11.871094 C 12.84375 12.160156 12.84375 12.449219 12.804688 12.734375 C 12.703125 13.503906 12.445312 14.207031 12.03125 14.828125 C 11.355469 15.839844 10.46875 16.46875 9.351562 16.640625 C 8.429688 16.777344 7.570312 16.574219 6.820312 15.9375 C 6.121094 15.339844 5.726562 14.550781 5.625 13.566406 C 5.5 12.40625 5.800781 11.359375 6.421875 10.441406 C 7.089844 9.449219 7.976562 8.820312 9.058594 8.597656 C 9.945312 8.414062 10.789062 8.535156 11.554688 9.121094 C 12.050781 9.492188 12.410156 10.003906 12.644531 10.625 C 12.703125 10.71875 12.664062 10.773438 12.550781 10.804688 Z M 12.550781 10.804688 "/>
<path style=" stroke:none;fill-rule:nonzero;fill:rgb(0%,67.450982%,84.313726%);fill-opacity:1;" d="M 15.664062 16.703125 C 14.808594 16.683594 14.027344 16.40625 13.371094 15.765625 C 12.8125 15.222656 12.464844 14.527344 12.351562 13.707031 C 12.183594 12.5 12.476562 11.433594 13.117188 10.484375 C 13.800781 9.460938 14.628906 8.929688 15.75 8.703125 C 16.710938 8.511719 17.613281 8.617188 18.433594 9.246094 C 19.175781 9.824219 19.636719 10.601562 19.761719 11.625 C 19.921875 13.066406 19.554688 14.238281 18.675781 15.242188 C 18.054688 15.957031 17.292969 16.40625 16.417969 16.609375 C 16.164062 16.660156 15.910156 16.671875 15.664062 16.703125 Z M 17.90625 12.394531 C 17.894531 12.257812 17.894531 12.148438 17.878906 12.042969 C 17.707031 10.988281 16.851562 10.390625 15.957031 10.625 C 15.082031 10.847656 14.519531 11.476562 14.3125 12.480469 C 14.140625 13.3125 14.5 14.15625 15.175781 14.496094 C 15.695312 14.753906 16.210938 14.71875 16.710938 14.433594 C 17.453125 13.996094 17.859375 13.3125 17.90625 12.394531 Z M 17.90625 12.394531 "/>
</g>
</svg>
