
<svg xmlns="http://www.w3.org/2000/svg" xmlns:xlink="http://www.w3.org/1999/xlink" width="16px" height="16px" viewBox="0 0 16 16" version="1.1">
<g id="surface1">
<path style=" stroke:none;fill-rule:nonzero;fill:rgb(34.509805%,49.019608%,74.117649%);fill-opacity:1;" d="M 5.574219 0.527344 C 2.292969 1.664062 0.136719 4.8125 0.261719 8.28125 C 0.386719 11.753906 2.761719 14.738281 6.113281 15.640625 C 7.441406 15.980469 8.828125 15.996094 10.160156 15.683594 C 11.367188 15.410156 12.480469 14.832031 13.398438 14 C 14.351562 13.109375 15.042969 11.972656 15.398438 10.71875 C 15.785156 9.351562 15.851562 7.917969 15.597656 6.519531 L 8.160156 6.519531 C 8.160156 7.546875 8.160156 8.578125 8.160156 9.605469 L 12.46875 9.605469 C 12.292969 10.601562 11.722656 11.480469 10.886719 12.046875 C 10.359375 12.394531 9.765625 12.628906 9.144531 12.734375 C 8.519531 12.851562 7.878906 12.851562 7.257812 12.734375 C 6.625 12.601562 6.027344 12.34375 5.5 11.96875 C 4.65625 11.371094 4.019531 10.519531 3.6875 9.539062 C 3.347656 8.542969 3.347656 7.460938 3.6875 6.460938 C 3.925781 5.761719 4.316406 5.125 4.835938 4.597656 C 6.042969 3.34375 7.851562 2.875 9.515625 3.375 C 10.15625 3.570312 10.738281 3.914062 11.222656 4.375 C 11.707031 3.890625 12.191406 3.40625 12.675781 2.921875 C 12.925781 2.660156 13.199219 2.410156 13.445312 2.144531 C 12.707031 1.457031 11.84375 0.925781 10.898438 0.574219 C 9.183594 -0.0507812 7.300781 -0.0664062 5.574219 0.527344 Z M 5.574219 0.527344 "/>
</g>
</svg>
