
<svg xmlns="http://www.w3.org/2000/svg" xmlns:xlink="http://www.w3.org/1999/xlink" width="24px" height="24px" viewBox="0 0 24 24" version="1.1">
<g id="surface1">
<path style=" stroke:none;fill-rule:evenodd;fill:rgb(0.784314%,18.82353%,22.745098%);fill-opacity:1;" d="M 15.191406 11.632812 L 14.316406 11.191406 L 14.316406 11.1875 C 14.316406 10.882812 14.5625 10.636719 14.867188 10.636719 C 15.105469 10.636719 15.316406 10.789062 15.390625 11.015625 C 15.464844 11.242188 15.382812 11.492188 15.191406 11.632812 M 19.882812 6.421875 C 18.792969 5.328125 17.027344 5.296875 15.898438 6.355469 C 15.84375 6.40625 15.8125 6.476562 15.8125 6.550781 C 15.8125 6.625 15.839844 6.695312 15.894531 6.75 L 16.253906 7.109375 C 16.351562 7.207031 16.503906 7.21875 16.609375 7.136719 C 16.894531 6.921875 17.238281 6.808594 17.59375 6.808594 C 18.503906 6.808594 19.238281 7.546875 19.238281 8.457031 C 19.238281 8.910156 19.050781 9.320312 18.753906 9.621094 C 16.480469 11.902344 13.441406 5.507812 6.550781 8.796875 C 6.316406 8.910156 6.136719 9.117188 6.058594 9.367188 C 5.984375 9.617188 6.011719 9.886719 6.144531 10.113281 L 7.324219 12.164062 C 7.582031 12.605469 8.144531 12.761719 8.59375 12.511719 L 8.621094 12.496094 L 8.597656 12.511719 L 9.121094 12.21875 C 9.121094 12.21875 10.023438 11.671875 10.773438 10.984375 C 10.878906 10.886719 11.039062 10.882812 11.148438 10.972656 L 11.152344 10.972656 C 11.214844 11.023438 11.25 11.097656 11.253906 11.175781 C 11.253906 11.257812 11.222656 11.332031 11.164062 11.386719 C 10.621094 11.875 10.035156 12.3125 9.414062 12.699219 L 9.394531 12.707031 L 8.871094 13.003906 C 8.15625 13.398438 7.257812 13.152344 6.847656 12.445312 L 5.730469 10.511719 C 3.582031 12.03125 2.28125 14.957031 2.980469 18.660156 C 3.003906 18.789062 3.117188 18.882812 3.25 18.882812 L 4.519531 18.882812 C 4.65625 18.882812 4.773438 18.78125 4.789062 18.644531 C 4.90625 17.714844 5.699219 17.015625 6.640625 17.015625 C 7.589844 17.015625 8.371094 17.726562 8.488281 18.644531 C 8.507812 18.78125 8.621094 18.882812 8.757812 18.882812 L 10 18.882812 C 10.136719 18.882812 10.253906 18.78125 10.269531 18.644531 C 10.386719 17.714844 11.179688 17.015625 12.117188 17.015625 C 13.066406 17.015625 13.851562 17.726562 13.96875 18.644531 C 13.984375 18.78125 14.101562 18.882812 14.238281 18.882812 L 15.460938 18.882812 C 15.613281 18.882812 15.734375 18.765625 15.734375 18.613281 C 15.765625 16.882812 16.230469 14.890625 17.558594 13.894531 C 22.15625 10.445312 20.945312 7.488281 19.882812 6.421875 "/>
</g>
</svg>
