
<svg xmlns="http://www.w3.org/2000/svg" xmlns:xlink="http://www.w3.org/1999/xlink" width="24px" height="24px" viewBox="0 0 24 24" version="1.1">
<g id="surface1">
<path style=" stroke:none;fill-rule:nonzero;fill:rgb(0%,0%,0%);fill-opacity:1;" d="M 11.625 17.101562 L 11.398438 17.101562 C 11.324219 17.023438 11.175781 17.023438 11.101562 17.023438 C 10.875 16.949219 10.574219 16.875 10.351562 16.800781 C 10.125 16.648438 10.050781 16.5 10.199219 16.273438 C 10.351562 16.050781 10.425781 15.824219 10.5 15.601562 C 10.875 14.773438 11.175781 13.949219 11.023438 12.976562 C 10.949219 12.226562 10.574219 11.625 9.824219 11.324219 C 9.226562 11.101562 8.625 10.800781 8.175781 10.351562 C 7.125 9.375 6.375 8.324219 6.449219 6.824219 L 17.550781 6.824219 C 17.550781 7.574219 17.398438 8.25 17.023438 8.851562 C 16.351562 10.050781 15.375 10.800781 14.175781 11.324219 C 13.425781 11.699219 12.976562 12.300781 12.898438 13.125 C 12.824219 14.175781 13.273438 15.148438 13.726562 16.050781 C 13.949219 16.5 13.875 16.574219 13.425781 16.800781 C 13.273438 16.875 13.199219 16.875 13.050781 16.949219 C 12.824219 17.023438 12.523438 17.023438 12.300781 17.101562 L 12 17.101562 C 11.925781 17.023438 11.773438 17.023438 11.625 17.101562 Z M 21 10.425781 C 20.851562 10.574219 20.851562 10.800781 20.773438 10.949219 C 20.398438 11.773438 19.800781 12.375 18.976562 12.601562 C 18.375 12.75 18.226562 13.199219 18.226562 13.726562 C 18.148438 14.324219 18.375 14.851562 18.601562 15.375 C 18.824219 15.824219 18.75 15.976562 18.226562 16.050781 C 17.699219 16.125 17.25 16.125 16.726562 15.976562 C 16.5 15.898438 16.425781 15.75 16.574219 15.523438 C 16.875 15 17.101562 14.476562 17.023438 13.800781 C 16.949219 13.050781 16.800781 12.824219 16.273438 12.75 C 16.125 12.75 15.976562 12.675781 15.898438 12.523438 C 15.976562 12.523438 15.976562 12.449219 16.050781 12.449219 C 17.25 12 18.074219 11.175781 18.675781 10.125 C 18.75 9.976562 18.898438 9.976562 19.050781 9.976562 L 21 9.976562 Z M 3 9.898438 L 4.875 9.898438 C 5.023438 9.898438 5.101562 9.898438 5.175781 10.050781 C 5.851562 11.175781 6.824219 11.925781 8.023438 12.449219 C 7.949219 12.523438 7.875 12.523438 7.800781 12.601562 C 7.199219 12.824219 6.976562 13.199219 6.976562 13.875 C 6.976562 14.324219 7.125 14.773438 7.351562 15.226562 C 7.425781 15.375 7.5 15.523438 7.574219 15.601562 C 7.648438 15.75 7.648438 15.898438 7.5 15.898438 C 6.824219 16.199219 6.148438 16.199219 5.476562 15.898438 C 5.25 15.898438 5.25 15.75 5.324219 15.523438 C 5.625 14.925781 5.925781 14.324219 5.851562 13.648438 C 5.773438 13.050781 5.625 12.898438 5.101562 12.75 C 4.125 12.449219 3.523438 11.699219 3.148438 10.800781 C 3.074219 10.726562 3.148438 10.574219 3 10.574219 Z M 3 9.898438 "/>
</g>
</svg>
