
<svg xmlns="http://www.w3.org/2000/svg" xmlns:xlink="http://www.w3.org/1999/xlink" width="24px" height="24px" viewBox="0 0 24 24" version="1.1">
<g id="surface1">
<path style=" stroke:none;fill-rule:nonzero;fill:rgb(89.803922%,20.784314%,67.058825%);fill-opacity:1;" d="M 18.601562 14.101562 C 18.449219 14.023438 18.375 13.949219 18.226562 13.949219 L 18.226562 10.050781 C 18.375 10.050781 18.523438 9.976562 18.601562 9.898438 C 19.273438 9.523438 19.574219 8.625 19.125 7.875 C 18.75 7.199219 17.851562 6.898438 17.101562 7.351562 C 16.949219 7.425781 16.875 7.5 16.800781 7.648438 L 13.425781 5.699219 C 13.425781 5.476562 13.5 5.398438 13.5 5.25 C 13.5 4.425781 12.824219 3.75 12 3.75 C 11.175781 3.75 10.5 4.425781 10.5 5.25 C 10.5 5.398438 10.5 5.550781 10.574219 5.699219 L 7.199219 7.648438 C 7.125 7.5 6.976562 7.425781 6.898438 7.351562 C 6.148438 6.898438 5.25 7.199219 4.875 7.875 C 4.5 8.550781 4.726562 9.449219 5.398438 9.898438 C 5.550781 9.976562 5.625 10.050781 5.773438 10.050781 L 5.773438 13.949219 C 5.625 13.949219 5.476562 14.023438 5.398438 14.101562 C 4.726562 14.476562 4.425781 15.375 4.875 16.125 C 5.25 16.800781 6.148438 17.101562 6.898438 16.648438 C 7.050781 16.574219 7.125 16.5 7.199219 16.351562 L 10.574219 18.300781 C 10.574219 18.523438 10.5 18.601562 10.5 18.75 C 10.5 19.574219 11.175781 20.25 12 20.25 C 12.824219 20.25 13.5 19.574219 13.5 18.75 C 13.5 18.601562 13.5 18.449219 13.425781 18.300781 L 16.800781 16.351562 C 16.875 16.5 17.023438 16.574219 17.175781 16.648438 C 17.851562 17.023438 18.75 16.800781 19.199219 16.125 C 19.574219 15.449219 19.273438 14.550781 18.601562 14.101562 Z M 7.574219 15.074219 C 7.574219 14.925781 7.5 14.773438 7.425781 14.699219 C 7.351562 14.550781 7.273438 14.476562 7.199219 14.398438 L 11.625 6.675781 C 11.773438 6.675781 11.925781 6.75 12 6.75 C 12.148438 6.75 12.300781 6.75 12.375 6.675781 L 16.800781 14.398438 C 16.726562 14.476562 16.574219 14.625 16.574219 14.699219 C 16.5 14.851562 16.425781 14.925781 16.425781 15.074219 Z M 16.425781 8.175781 C 16.351562 8.550781 16.351562 8.925781 16.574219 9.300781 C 16.800781 9.675781 17.101562 9.898438 17.476562 9.976562 L 17.476562 13.875 L 17.398438 13.875 L 13.050781 6.300781 L 13.125 6.226562 Z M 10.949219 6.226562 C 10.949219 6.226562 10.949219 6.300781 10.949219 6.226562 L 6.523438 13.949219 L 6.449219 13.949219 L 6.449219 10.050781 C 6.824219 9.976562 7.125 9.75 7.351562 9.375 C 7.574219 9 7.574219 8.625 7.5 8.25 Z M 13.050781 17.773438 C 12.75 17.476562 12.375 17.324219 12 17.324219 C 11.550781 17.324219 11.175781 17.476562 10.949219 17.773438 L 7.574219 15.824219 L 7.574219 15.75 L 16.425781 15.75 L 16.425781 15.824219 Z M 13.050781 17.773438 "/>
</g>
</svg>
