
<svg xmlns="http://www.w3.org/2000/svg" xmlns:xlink="http://www.w3.org/1999/xlink" width="16px" height="16px" viewBox="0 0 16 16" version="1.1">
<g id="surface1">
<path style=" stroke:none;fill-rule:evenodd;fill:rgb(0%,0%,0%);fill-opacity:1;" d="M 7.160156 5.394531 C 6.375 6.695312 6.328125 6.761719 6.222656 6.816406 C 6.125 6.863281 6.097656 6.867188 6.058594 6.835938 C 5.898438 6.710938 5.679688 6.75 5.527344 6.925781 L 5.445312 7.023438 L 5.425781 6.917969 C 5.398438 6.753906 5.390625 6.730469 5.320312 6.65625 C 5.257812 6.589844 5.257812 6.585938 5.292969 6.382812 C 5.339844 6.125 5.34375 5.941406 5.304688 5.753906 C 5.226562 5.394531 5.035156 5.226562 4.699219 5.226562 C 4.40625 5.226562 4.054688 5.460938 3.609375 5.953125 C 3.34375 6.25 2.9375 6.808594 2.847656 7 L 2.8125 7.074219 L 1.414062 7.058594 C 0.542969 7.046875 0.0273438 7.050781 0.0429688 7.066406 C 0.0546875 7.078125 0.652344 7.308594 1.371094 7.574219 L 2.671875 8.0625 L 2.722656 8.175781 C 2.777344 8.308594 2.929688 8.484375 3.058594 8.5625 L 3.152344 8.621094 L 3.042969 8.667969 C 2.960938 8.703125 2.917969 8.746094 2.875 8.835938 C 2.792969 9.007812 2.820312 9.105469 3.015625 9.324219 C 3.101562 9.425781 3.222656 9.597656 3.28125 9.714844 C 3.355469 9.851562 3.417969 9.941406 3.476562 9.976562 C 3.566406 10.03125 3.734375 10.042969 3.8125 10 C 3.902344 9.953125 4.425781 9.820312 4.40625 9.851562 C 4.398438 9.867188 4.09375 10.347656 3.726562 10.917969 C 3.363281 11.488281 3.070312 11.960938 3.078125 11.96875 C 3.085938 11.976562 4.195312 11.550781 5.546875 11.027344 L 8 10.074219 L 10.445312 11.023438 C 11.789062 11.546875 12.898438 11.972656 12.914062 11.96875 C 12.925781 11.960938 12.75 11.671875 12.523438 11.316406 L 12.113281 10.671875 L 12.253906 10.644531 C 12.574219 10.582031 12.933594 10.328125 13.128906 10.035156 C 13.410156 9.605469 13.449219 9.109375 13.261719 8.390625 C 13.226562 8.246094 13.199219 8.125 13.207031 8.117188 C 13.214844 8.109375 13.832031 7.875 14.578125 7.597656 C 15.324219 7.316406 15.945312 7.078125 15.957031 7.066406 C 15.96875 7.054688 15.316406 7.050781 14.472656 7.058594 C 13.1875 7.074219 12.960938 7.070312 12.949219 7.039062 C 12.941406 7.015625 12.929688 6.96875 12.921875 6.929688 C 12.90625 6.851562 12.789062 6.722656 12.695312 6.6875 C 12.660156 6.675781 12.542969 6.664062 12.4375 6.660156 C 12.265625 6.65625 12.234375 6.664062 12.152344 6.726562 C 12.097656 6.769531 12.050781 6.824219 12.039062 6.851562 C 12.015625 6.925781 11.988281 6.921875 11.945312 6.839844 C 11.84375 6.648438 11.539062 6.609375 11.382812 6.765625 L 11.304688 6.84375 L 11.148438 6.765625 C 10.957031 6.671875 10.722656 6.644531 10.585938 6.699219 C 10.519531 6.726562 10.472656 6.730469 10.425781 6.714844 C 10.316406 6.671875 10.136719 6.707031 10.054688 6.785156 L 9.980469 6.855469 L 9.859375 6.773438 C 9.792969 6.730469 9.703125 6.679688 9.660156 6.664062 C 9.597656 6.644531 9.453125 6.414062 8.800781 5.332031 C 8.371094 4.613281 8.007812 4.027344 8 4.027344 C 7.988281 4.027344 7.613281 4.640625 7.160156 5.394531 M 4.824219 5.617188 C 4.960938 5.714844 4.996094 5.988281 4.917969 6.394531 C 4.835938 6.835938 4.707031 7.121094 4.476562 7.375 C 4.324219 7.539062 4.152344 7.628906 3.992188 7.632812 C 3.625 7.640625 3.53125 7.277344 3.773438 6.78125 C 3.863281 6.601562 4.085938 6.292969 4.128906 6.292969 C 4.148438 6.292969 4.214844 6.542969 4.214844 6.625 C 4.214844 6.652344 4.164062 6.761719 4.101562 6.863281 C 4.011719 7.011719 3.988281 7.070312 3.988281 7.171875 C 3.988281 7.5625 4.351562 7.515625 4.550781 7.097656 C 4.746094 6.679688 4.859375 5.871094 4.734375 5.738281 C 4.671875 5.664062 4.632812 5.664062 4.453125 5.75 C 4.171875 5.878906 3.589844 6.558594 3.386719 6.988281 C 3.191406 7.414062 3.230469 7.855469 3.492188 8.089844 C 3.753906 8.324219 4.164062 8.28125 4.464844 7.984375 C 4.699219 7.761719 4.871094 7.429688 4.945312 7.078125 C 4.988281 6.871094 5.050781 6.847656 5.074219 7.035156 C 5.082031 7.109375 5.148438 7.351562 5.222656 7.578125 C 5.40625 8.132812 5.441406 8.285156 5.441406 8.496094 C 5.4375 8.734375 5.363281 8.902344 5.175781 9.074219 C 4.996094 9.242188 4.746094 9.355469 4.28125 9.480469 C 4.074219 9.535156 3.859375 9.597656 3.804688 9.617188 C 3.664062 9.664062 3.65625 9.664062 3.625 9.585938 C 3.582031 9.46875 3.414062 9.21875 3.300781 9.101562 L 3.191406 8.992188 L 3.300781 8.960938 C 3.660156 8.867188 4.1875 8.671875 4.441406 8.546875 C 4.746094 8.394531 4.941406 8.238281 5.03125 8.074219 C 5.101562 7.945312 5.097656 7.625 5.023438 7.464844 L 4.964844 7.347656 L 4.9375 7.425781 C 4.761719 7.871094 4.433594 8.203125 4.042969 8.328125 C 3.804688 8.402344 3.496094 8.378906 3.304688 8.277344 C 2.972656 8.09375 2.910156 7.730469 3.132812 7.257812 C 3.394531 6.707031 4.136719 5.84375 4.507812 5.65625 C 4.699219 5.5625 4.738281 5.554688 4.824219 5.617188 M 9.566406 7.027344 C 9.867188 7.179688 10.058594 7.503906 10.0625 7.867188 C 10.066406 8.140625 10 8.320312 9.84375 8.480469 C 9.691406 8.628906 9.535156 8.683594 9.316406 8.65625 C 8.941406 8.613281 8.730469 8.398438 8.699219 8.035156 C 8.667969 7.660156 8.859375 7.144531 9.074219 7.011719 C 9.199219 6.9375 9.394531 6.941406 9.566406 7.027344 M 8.238281 7.089844 C 8.28125 7.125 8.355469 7.226562 8.40625 7.328125 C 8.488281 7.496094 8.492188 7.523438 8.492188 7.785156 C 8.492188 8.050781 8.488281 8.078125 8.40625 8.246094 C 8.242188 8.578125 7.949219 8.765625 7.636719 8.742188 C 7.457031 8.726562 7.367188 8.664062 7.285156 8.5 C 7.167969 8.269531 7.210938 7.824219 7.382812 7.453125 C 7.46875 7.273438 7.699219 7.023438 7.792969 7.007812 C 7.917969 6.992188 8.15625 7.035156 8.238281 7.089844 M 12.550781 7.035156 C 12.566406 7.042969 12.628906 7.289062 12.691406 7.574219 C 12.753906 7.859375 12.847656 8.253906 12.902344 8.453125 C 12.984375 8.765625 12.996094 8.855469 13 9.121094 C 13 9.503906 12.953125 9.667969 12.78125 9.898438 C 12.480469 10.296875 12.035156 10.449219 11.3125 10.402344 C 11.148438 10.390625 11.003906 10.371094 10.992188 10.363281 C 10.984375 10.351562 11.011719 10.3125 11.0625 10.277344 C 11.199219 10.167969 11.285156 9.996094 11.300781 9.800781 C 11.308594 9.703125 11.320312 9.625 11.324219 9.625 C 11.332031 9.625 11.460938 9.65625 11.609375 9.695312 C 12.203125 9.847656 12.589844 9.714844 12.777344 9.292969 C 12.851562 9.125 12.867188 8.832031 12.816406 8.546875 L 12.78125 8.332031 L 12.777344 8.492188 C 12.773438 8.582031 12.753906 8.734375 12.734375 8.832031 C 12.664062 9.164062 12.535156 9.332031 12.347656 9.332031 C 12.132812 9.332031 12.011719 9.097656 11.933594 8.527344 C 11.804688 7.609375 11.761719 7.425781 11.636719 7.261719 C 11.5625 7.164062 11.5625 7.148438 11.609375 7.078125 C 11.644531 7.03125 11.652344 7.039062 11.714844 7.160156 C 11.75 7.234375 11.832031 7.449219 11.894531 7.640625 C 12.0625 8.15625 12.132812 8.28125 12.300781 8.34375 C 12.394531 8.378906 12.535156 8.324219 12.597656 8.226562 C 12.742188 8.007812 12.714844 7.714844 12.515625 7.3125 C 12.445312 7.171875 12.382812 7.042969 12.378906 7.035156 C 12.367188 7.007812 12.511719 7.007812 12.550781 7.035156 M 9.042969 7.117188 C 8.957031 7.234375 8.929688 7.328125 8.929688 7.5 C 8.929688 7.914062 9.332031 8.167969 9.714844 7.992188 C 10.019531 7.851562 10.054688 7.621094 9.816406 7.3125 C 9.675781 7.121094 9.386719 6.988281 9.292969 7.066406 C 9.226562 7.125 9.25 7.195312 9.371094 7.296875 C 9.515625 7.414062 9.535156 7.460938 9.472656 7.507812 C 9.320312 7.625 9.066406 7.464844 9.066406 7.253906 C 9.066406 7.191406 9.078125 7.121094 9.09375 7.089844 C 9.136719 7.015625 9.105469 7.03125 9.042969 7.117188 M 10.972656 7.078125 C 11.3125 7.21875 11.566406 7.808594 11.539062 8.375 C 11.523438 8.675781 11.453125 8.867188 11.316406 8.988281 C 11.128906 9.152344 10.859375 9.042969 10.703125 8.742188 C 10.632812 8.601562 10.570312 8.382812 10.464844 7.90625 C 10.386719 7.546875 10.316406 7.34375 10.242188 7.246094 C 10.195312 7.1875 10.191406 7.175781 10.230469 7.125 C 10.25 7.09375 10.28125 7.066406 10.292969 7.066406 C 10.332031 7.066406 10.421875 7.289062 10.492188 7.5625 C 10.570312 7.871094 10.613281 7.984375 10.691406 8.085938 C 10.820312 8.25 11.078125 8.292969 11.207031 8.175781 C 11.367188 8.027344 11.40625 7.808594 11.320312 7.546875 C 11.242188 7.3125 10.964844 7.078125 10.875 7.167969 C 10.855469 7.1875 10.859375 7.214844 10.890625 7.265625 C 10.914062 7.300781 10.933594 7.355469 10.933594 7.382812 C 10.933594 7.460938 10.878906 7.574219 10.839844 7.574219 C 10.804688 7.574219 10.707031 7.484375 10.652344 7.402344 C 10.601562 7.324219 10.59375 7.132812 10.640625 7.078125 C 10.683594 7.027344 10.851562 7.027344 10.972656 7.078125 M 7.894531 7.148438 C 7.816406 7.222656 7.824219 7.257812 7.964844 7.410156 C 8.085938 7.546875 8.085938 7.550781 8.035156 7.605469 C 8.007812 7.632812 7.960938 7.667969 7.925781 7.683594 C 7.851562 7.710938 7.714844 7.664062 7.679688 7.597656 C 7.640625 7.527344 7.648438 7.320312 7.691406 7.210938 C 7.746094 7.078125 7.691406 7.097656 7.597656 7.246094 C 7.449219 7.480469 7.425781 7.75 7.535156 7.960938 C 7.707031 8.285156 8.113281 8.25 8.375 7.886719 C 8.496094 7.71875 8.472656 7.507812 8.304688 7.285156 C 8.164062 7.105469 7.992188 7.046875 7.894531 7.148438 M 5.898438 7.347656 C 5.933594 7.449219 5.972656 7.535156 5.992188 7.539062 C 6.03125 7.554688 6.210938 7.390625 6.304688 7.253906 C 6.347656 7.195312 6.390625 7.148438 6.402344 7.148438 C 6.414062 7.148438 6.445312 7.183594 6.46875 7.226562 C 6.492188 7.273438 6.542969 7.320312 6.582031 7.335938 C 6.644531 7.359375 6.660156 7.351562 6.757812 7.25 L 6.867188 7.132812 L 6.875 7.21875 C 6.890625 7.378906 6.691406 7.652344 6.511719 7.710938 C 6.429688 7.734375 6.40625 7.730469 6.261719 7.65625 C 6.140625 7.59375 6.089844 7.582031 6.054688 7.601562 C 5.980469 7.636719 5.96875 7.753906 6.011719 7.929688 C 6.0625 8.125 6.117188 8.230469 6.222656 8.339844 C 6.324219 8.445312 6.433594 8.453125 6.628906 8.363281 L 6.761719 8.300781 L 6.761719 8.90625 L 6.660156 8.945312 C 6.53125 8.996094 6.367188 9 6.269531 8.949219 C 6.15625 8.890625 6.089844 8.714844 6.011719 8.289062 C 5.921875 7.792969 5.859375 7.597656 5.746094 7.476562 C 5.695312 7.421875 5.664062 7.367188 5.671875 7.351562 C 5.714844 7.277344 5.820312 7.144531 5.832031 7.15625 C 5.835938 7.160156 5.867188 7.246094 5.898438 7.347656 M 11.707031 9.199219 C 11.707031 9.214844 11.6875 9.226562 11.664062 9.226562 C 11.640625 9.226562 11.632812 9.214844 11.640625 9.199219 C 11.648438 9.183594 11.667969 9.171875 11.679688 9.171875 C 11.695312 9.171875 11.707031 9.183594 11.707031 9.199219 "/>
</g>
</svg>
