
<svg xmlns="http://www.w3.org/2000/svg" xmlns:xlink="http://www.w3.org/1999/xlink" width="24px" height="24px" viewBox="0 0 24 24" version="1.1">
<g id="surface1">
<path style=" stroke:none;fill-rule:nonzero;fill:rgb(93.725491%,46.27451%,13.725491%);fill-opacity:1;" d="M 16.875 12.300781 C 17.175781 12.148438 17.550781 12 17.851562 11.773438 C 18.523438 11.324219 18.523438 10.5 17.851562 10.199219 C 17.699219 10.125 17.625 9.976562 17.550781 9.75 C 17.476562 9.300781 17.550781 8.925781 17.773438 8.550781 C 18.300781 7.800781 17.925781 7.199219 16.949219 7.125 L 16.875 7.125 L 16.800781 7.050781 C 16.726562 6.675781 16.648438 6.375 17.101562 6.074219 C 17.25 6 17.476562 5.925781 17.699219 5.851562 C 17.851562 5.773438 18 5.773438 18.074219 5.773438 C 18.074219 5.699219 18 5.699219 18 5.699219 C 17.476562 5.101562 16.726562 4.949219 16.050781 5.023438 C 15.148438 5.101562 14.625 5.550781 14.101562 6.148438 C 14.023438 6.300781 13.875 6.300781 13.726562 6.226562 C 13.574219 6.148438 13.574219 6.074219 13.574219 6 C 13.574219 5.851562 13.648438 5.699219 13.648438 5.550781 L 13.875 5.101562 C 13.425781 5.101562 13.125 5.324219 12.75 5.550781 C 12.523438 5.175781 12.523438 4.875 12.675781 4.5 C 12 4.726562 11.550781 5.023438 11.398438 5.699219 C 11.175781 5.476562 11.25 5.175781 11.25 4.875 L 11.175781 4.875 C 11.101562 4.875 11.101562 4.949219 11.023438 4.949219 C 10.648438 5.25 10.425781 5.625 10.351562 6 C 10.351562 6.074219 10.273438 6.148438 10.273438 6.226562 C 10.199219 6.148438 10.125 6.148438 10.050781 6.074219 C 9.75 5.851562 9.449219 5.550781 9.148438 5.324219 C 8.25 4.800781 7.425781 4.800781 6.523438 5.25 L 5.925781 5.851562 C 6.226562 6 6.523438 6 6.824219 6.148438 C 7.351562 6.300781 7.5 6.601562 7.273438 7.199219 C 7.125 7.199219 6.976562 7.273438 6.824219 7.273438 C 6.300781 7.425781 6.074219 7.800781 6.148438 8.25 C 6.226562 8.476562 6.375 8.699219 6.449219 8.925781 C 6.449219 9 6.523438 9.074219 6.523438 9.148438 L 6.523438 9.898438 C 6.523438 10.050781 6.375 10.199219 6.226562 10.351562 C 6.074219 10.5 5.851562 10.648438 5.773438 10.875 C 5.550781 11.25 5.773438 11.699219 6.148438 12 C 6.449219 12.226562 6.75 12.375 7.125 12.523438 C 7.574219 12.75 7.726562 13.050781 7.726562 13.425781 C 7.726562 13.875 7.726562 14.25 7.648438 14.699219 C 7.648438 14.851562 7.574219 15.074219 7.574219 15.300781 C 7.125 14.925781 6.824219 14.550781 6.75 14.023438 C 6.300781 14.398438 6.074219 14.773438 6.074219 15.226562 C 5.925781 16.199219 6.300781 17.175781 7.5 17.625 C 7.574219 17.625 7.648438 17.699219 7.726562 17.773438 C 8.175781 18.523438 8.851562 18.976562 9.75 19.125 C 9.824219 19.125 9.898438 19.125 9.898438 19.199219 C 10.726562 19.726562 11.550781 19.800781 12.449219 19.726562 C 12.976562 19.648438 13.425781 19.574219 13.800781 19.273438 C 13.875 19.199219 14.023438 19.199219 14.101562 19.125 C 15 18.976562 15.601562 18.523438 16.050781 17.851562 L 16.273438 17.625 C 16.726562 17.476562 17.101562 17.25 17.324219 16.875 C 17.699219 16.351562 17.773438 15.675781 17.699219 15.148438 C 17.625 14.699219 17.398438 14.398438 17.023438 14.023438 C 16.875 14.550781 16.648438 14.925781 16.199219 15.300781 C 16.125 14.625 16.125 13.949219 16.125 13.351562 C 16.273438 12.75 16.5 12.449219 16.875 12.300781 Z M 10.574219 16.273438 L 13.949219 16.273438 Z M 10.574219 16.273438 "/>
</g>
</svg>
