
<svg xmlns="http://www.w3.org/2000/svg" xmlns:xlink="http://www.w3.org/1999/xlink" width="24px" height="24px" viewBox="0 0 24 24" version="1.1">
<g id="surface1">
<path style=" stroke:none;fill-rule:nonzero;fill:rgb(80.392158%,24.705882%,27.058825%);fill-opacity:1;" d="M 15.074219 17.101562 C 14.925781 17.324219 14.851562 17.476562 14.773438 17.625 C 14.699219 17.773438 14.625 18 14.625 18.148438 C 14.550781 18.898438 14.476562 19.726562 14.398438 20.476562 C 14.398438 20.773438 14.25 20.925781 14.023438 21 C 13.5 21.148438 12.898438 21.375 12.375 21.523438 L 11.550781 21.523438 C 11.476562 21.523438 11.324219 21.449219 11.25 21.449219 C 10.800781 21.300781 10.351562 21.148438 9.976562 20.925781 C 9.898438 20.851562 9.75 20.699219 9.75 20.550781 C 9.675781 19.949219 9.675781 19.425781 9.675781 18.824219 C 9.675781 18.226562 9.675781 17.625 9.226562 17.175781 L 9.226562 17.101562 C 11.101562 17.625 13.050781 17.625 15.074219 17.101562 Z M 16.199219 7.574219 C 16.125 8.625 15.976562 9.675781 15.898438 10.726562 L 15.601562 13.800781 C 15.523438 14.550781 15.449219 15.375 15.375 16.199219 C 15.375 16.726562 15.074219 16.949219 14.625 17.023438 C 13.875 17.175781 13.199219 17.25 12.449219 17.324219 C 11.398438 17.398438 10.351562 17.324219 9.300781 17.023438 C 8.925781 16.949219 8.851562 16.648438 8.773438 16.351562 C 8.773438 15.976562 8.699219 15.601562 8.625 15.300781 C 8.550781 14.625 8.476562 13.949219 8.398438 13.199219 L 8.324219 12.523438 C 8.324219 12.449219 8.25 12.375 8.25 12.300781 C 8.175781 11.101562 7.949219 9.976562 7.800781 8.773438 C 7.726562 8.398438 7.726562 8.023438 7.726562 7.648438 C 10.574219 8.25 13.425781 8.25 16.199219 7.574219 Z M 7.726562 7.125 C 7.875 7.050781 8.023438 6.976562 8.175781 6.976562 C 8.851562 6.898438 9.601562 6.824219 10.273438 6.75 C 10.351562 6.75 10.574219 6.601562 10.574219 6.601562 C 10.351562 5.925781 10.351562 5.25 9.824219 4.726562 C 9.226562 4.125 8.699219 3.449219 8.101562 2.851562 C 8.550781 2.398438 8.550781 2.398438 8.925781 2.773438 C 9.226562 3.074219 9.449219 3.375 9.75 3.601562 C 10.574219 4.273438 11.101562 5.175781 11.25 6.226562 C 11.398438 6.675781 11.625 6.75 12 6.75 C 13.273438 6.824219 14.476562 6.898438 15.75 6.976562 C 15.898438 6.976562 16.050781 7.050781 16.273438 7.125 C 15 8.101562 8.476562 8.023438 7.726562 7.125 Z M 7.726562 7.125 "/>
</g>
</svg>
