
<svg xmlns="http://www.w3.org/2000/svg" xmlns:xlink="http://www.w3.org/1999/xlink" width="24px" height="24px" viewBox="0 0 24 24" version="1.1">
<g id="surface1">
<path style=" stroke:none;fill-rule:nonzero;fill:rgb(0%,0%,0%);fill-opacity:1;" d="M 11.851562 3.75 L 11.851562 8.476562 C 11.851562 8.550781 11.851562 8.625 11.773438 8.699219 L 6.976562 13.5 C 6.976562 13.5 6.976562 13.574219 6.898438 13.574219 L 6.898438 8.773438 C 6.898438 8.699219 6.898438 8.699219 6.976562 8.699219 C 8.625 7.050781 10.199219 5.398438 11.851562 3.75 Z M 17.851562 10.648438 L 17.851562 15.449219 C 17.851562 15.523438 17.851562 15.523438 17.773438 15.523438 L 12.898438 20.398438 L 12.824219 20.398438 L 12.824219 15.601562 C 12.824219 15.523438 12.824219 15.523438 12.898438 15.523438 C 14.550781 13.949219 16.125 12.300781 17.851562 10.648438 C 17.773438 10.648438 17.773438 10.648438 17.851562 10.648438 Z M 17.625 9.523438 L 12.824219 14.324219 L 12.824219 9.601562 C 12.824219 9.523438 12.824219 9.523438 12.898438 9.523438 Z M 11.925781 9.75 L 11.925781 14.476562 C 11.925781 14.550781 11.925781 14.550781 11.851562 14.550781 L 7.125 14.550781 C 8.699219 12.898438 10.273438 11.324219 11.925781 9.75 Z M 6.898438 20.25 C 6.898438 20.25 6.898438 20.175781 6.898438 20.25 L 6.898438 15.523438 C 6.898438 15.449219 6.898438 15.449219 6.976562 15.449219 L 11.699219 15.449219 C 10.125 17.023438 8.550781 18.675781 6.898438 20.25 Z M 6.898438 20.25 "/>
</g>
</svg>
