
<svg xmlns="http://www.w3.org/2000/svg" xmlns:xlink="http://www.w3.org/1999/xlink" width="24px" height="24px" viewBox="0 0 24 24" version="1.1">
<g id="surface1">
<path style=" stroke:none;fill-rule:nonzero;fill:rgb(80.392158%,24.705882%,27.058825%);fill-opacity:1;" d="M 15 11.25 C 14.25 10.949219 14.773438 9.75 14.773438 9.75 L 15.601562 9 C 15.601562 9 15.824219 9.074219 16.050781 8.925781 C 16.351562 8.773438 16.273438 8.398438 16.273438 8.398438 L 16.875 7.726562 C 16.875 7.726562 17.101562 7.648438 16.199219 6.976562 C 15.300781 6.300781 15 6.675781 15 6.675781 L 14.324219 7.199219 C 14.324219 7.199219 14.101562 7.199219 13.949219 7.273438 C 13.800781 7.351562 13.949219 7.648438 13.949219 7.648438 L 10.875 10.199219 L 9.300781 6.601562 C 9.300781 6.601562 9.449219 6.449219 9.375 6.226562 C 9.375 6 9.148438 6 9.148438 6 C 8.773438 5.324219 8.625 5.324219 8.625 5.324219 C 7.351562 5.023438 6.824219 5.851562 6.824219 5.851562 C 6.75 5.925781 6.898438 6.375 6.898438 6.375 C 6.898438 6.375 6.75 6.449219 6.824219 6.824219 C 6.976562 7.351562 7.273438 7.125 7.273438 7.125 L 9.300781 11.625 C 9.300781 12 7.726562 17.925781 7.726562 17.925781 C 8.925781 19.199219 10.726562 18.601562 10.726562 18.601562 C 10.726562 17.851562 11.625 13.5 11.625 13.5 C 12.601562 14.398438 13.648438 14.550781 14.023438 14.550781 C 14.023438 14.851562 14.101562 15.074219 14.101562 15.074219 C 14.101562 15.074219 15.523438 15.601562 16.273438 14.476562 C 16.351562 14.398438 16.351562 14.324219 16.351562 14.25 C 16.351562 14.25 17.175781 13.949219 17.175781 13.199219 C 17.175781 12.148438 15.75 11.550781 15 11.25 Z M 16.5 13.949219 C 16.648438 13.425781 16.351562 13.125 16.351562 13.125 C 16.351562 13.125 16.273438 13.574219 15.449219 13.800781 C 14.625 14.023438 14.398438 13.648438 14.398438 13.648438 C 14.398438 13.648438 14.25 13.875 14.101562 14.175781 C 12.375 13.875 11.851562 12.976562 11.699219 12.75 C 11.625 12.523438 11.773438 12 11.773438 12 L 14.023438 10.351562 C 13.875 11.398438 15.074219 11.773438 15.074219 11.773438 C 15.074219 11.773438 16.800781 12.375 16.800781 13.273438 C 16.875 13.648438 16.648438 13.875 16.5 13.949219 Z M 16.5 13.949219 "/>
</g>
</svg>
