
<svg xmlns="http://www.w3.org/2000/svg" xmlns:xlink="http://www.w3.org/1999/xlink" width="24px" height="24px" viewBox="0 0 24 24" version="1.1">
<g id="surface1">
<path style=" stroke:none;fill-rule:nonzero;fill:rgb(0%,33.333334%,83.137256%);fill-opacity:1;" d="M 8.519531 3.113281 L 21.546875 3.113281 L 21.546875 7.949219 L 8.519531 7.949219 Z M 8.519531 3.113281 "/>
<path style=" stroke:none;fill-rule:nonzero;fill:rgb(0%,33.333334%,83.137256%);fill-opacity:1;" d="M 6.375 5.53125 C 6.375 6.683594 5.492188 7.621094 4.398438 7.621094 C 3.304688 7.621094 2.417969 6.683594 2.417969 5.53125 C 2.417969 4.378906 3.304688 3.441406 4.398438 3.441406 C 5.492188 3.441406 6.375 4.378906 6.375 5.53125 Z M 6.375 5.53125 "/>
<path style=" stroke:none;fill-rule:nonzero;fill:rgb(0%,33.333334%,83.137256%);fill-opacity:1;" d="M 8.574219 9.707031 L 21.601562 9.707031 L 21.601562 14.546875 L 8.574219 14.546875 Z M 8.574219 9.707031 "/>
<path style=" stroke:none;fill-rule:nonzero;fill:rgb(0%,33.333334%,83.137256%);fill-opacity:1;" d="M 6.429688 12.128906 C 6.429688 13.28125 5.546875 14.214844 4.453125 14.214844 C 3.359375 14.214844 2.472656 13.28125 2.472656 12.128906 C 2.472656 10.972656 3.359375 10.039062 4.453125 10.039062 C 5.546875 10.039062 6.429688 10.972656 6.429688 12.128906 Z M 6.429688 12.128906 "/>
<path style=" stroke:none;fill-rule:nonzero;fill:rgb(0%,33.333334%,83.137256%);fill-opacity:1;" d="M 8.574219 16.304688 L 21.601562 16.304688 L 21.601562 21.140625 L 8.574219 21.140625 Z M 8.574219 16.304688 "/>
<path style=" stroke:none;fill-rule:nonzero;fill:rgb(0%,33.333334%,83.137256%);fill-opacity:1;" d="M 6.429688 18.722656 C 6.429688 19.878906 5.546875 20.8125 4.453125 20.8125 C 3.359375 20.8125 2.472656 19.878906 2.472656 18.722656 C 2.472656 17.570312 3.359375 16.636719 4.453125 16.636719 C 5.546875 16.636719 6.429688 17.570312 6.429688 18.722656 Z M 6.429688 18.722656 "/>
</g>
</svg>
