
<svg xmlns="http://www.w3.org/2000/svg" xmlns:xlink="http://www.w3.org/1999/xlink" width="24px" height="24px" viewBox="0 0 24 24" version="1.1">
<g id="surface1">
<path style=" stroke:none;fill-rule:nonzero;fill:rgb(0%,0%,0%);fill-opacity:1;" d="M 10.648438 6.675781 C 11.550781 7.949219 12.375 9.300781 13.273438 10.574219 C 14.773438 12.824219 16.273438 15 17.699219 17.25 L 15.074219 17.25 L 15 17.175781 C 14.324219 16.125 13.574219 15.074219 12.898438 14.023438 C 12.824219 13.949219 12.898438 13.949219 12.824219 14.023438 C 12.148438 15.074219 11.398438 16.125 10.726562 17.175781 L 10.648438 17.25 L 8.023438 17.25 L 8.023438 17.175781 C 9.148438 15.449219 10.351562 13.726562 11.476562 12 L 11.476562 11.925781 C 10.351562 10.199219 9.148438 8.476562 8.023438 6.75 L 8.023438 6.675781 Z M 10.648438 6.675781 "/>
<path style=" stroke:none;fill-rule:nonzero;fill:rgb(0%,0%,0%);fill-opacity:1;" d="M 7.125 17.324219 L 4.5 17.324219 L 4.5 17.25 C 4.800781 16.800781 5.101562 16.273438 5.476562 15.824219 C 6.300781 14.550781 7.125 13.351562 7.949219 12.074219 L 7.949219 12 C 6.824219 10.199219 5.699219 8.476562 4.5 6.75 L 7.125 6.75 L 7.199219 6.824219 C 7.800781 7.648438 8.324219 8.550781 8.925781 9.375 C 9.523438 10.273438 10.125 11.101562 10.648438 12 L 10.648438 12.074219 C 9.523438 13.800781 8.324219 15.523438 7.125 17.324219 C 7.199219 17.25 7.199219 17.25 7.125 17.324219 Z M 19.5 11.550781 L 14.773438 11.550781 C 14.398438 10.949219 14.023438 10.425781 13.648438 9.824219 L 13.648438 9.75 L 19.5 9.75 Z M 19.5 14.25 C 19.5 14.25 19.5 14.175781 19.5 14.25 L 16.5 14.25 C 16.125 13.648438 15.75 13.125 15.375 12.523438 L 15.375 12.449219 L 19.5 12.449219 Z M 19.5 14.25 "/>
</g>
</svg>
