
<svg xmlns="http://www.w3.org/2000/svg" xmlns:xlink="http://www.w3.org/1999/xlink" width="24px" height="24px" viewBox="0 0 24 24" version="1.1">
<g id="surface1">
<path style=" stroke:none;fill-rule:nonzero;fill:rgb(13.725491%,12.156863%,12.54902%);fill-opacity:1;" d="M 18.675781 15 L 17.175781 12 L 18.675781 9 L 18.75 8.925781 L 18.75 5.25 L 15.074219 5.25 L 15 5.324219 L 12 6.824219 L 9 5.324219 L 8.925781 5.25 L 5.25 5.25 L 5.25 8.925781 L 5.324219 9 L 6.824219 12 L 5.324219 15 L 5.25 15.074219 L 5.25 18.75 L 8.925781 18.75 L 9 18.675781 L 12 17.175781 L 15 18.675781 L 15.074219 18.75 L 18.75 18.75 L 18.75 15.074219 Z M 16.5 11.699219 L 12.300781 7.5 L 17.925781 6.074219 Z M 7.5 11.699219 L 6.074219 6.074219 L 11.699219 7.5 Z M 7.5 12.300781 L 11.699219 16.5 L 6.074219 17.925781 Z M 16.5 12.300781 L 17.925781 17.925781 L 12.300781 16.5 Z M 16.5 12.300781 "/>
</g>
</svg>
