
<svg xmlns="http://www.w3.org/2000/svg" xmlns:xlink="http://www.w3.org/1999/xlink" width="16px" height="16px" viewBox="0 0 16 16" version="1.1">
<g id="surface1">
<path style=" stroke:none;fill-rule:nonzero;fill:rgb(89.411765%,30.19608%,14.901961%);fill-opacity:1;" d="M 1.128906 0.25 L 2.378906 14.261719 L 7.992188 15.8125 L 13.617188 14.261719 L 14.871094 0.25 Z M 12.269531 3.566406 L 12.191406 4.464844 L 12.15625 4.875 L 5.574219 4.875 L 5.730469 6.625 L 12 6.625 L 11.957031 7.058594 L 11.554688 11.574219 L 11.523438 11.859375 L 8 12.824219 L 8 12.828125 L 7.996094 12.828125 L 4.472656 11.902344 L 4.234375 9.25 L 5.960938 9.25 L 6.082031 10.613281 L 7.996094 11.125 L 8 11.125 L 8 11.058594 L 9.917969 10.574219 L 10.121094 8.375 L 4.15625 8.375 L 3.734375 3.609375 L 3.695312 3.125 L 12.3125 3.125 Z M 12.269531 3.566406 "/>
</g>
</svg>
