
<svg xmlns="http://www.w3.org/2000/svg" xmlns:xlink="http://www.w3.org/1999/xlink" width="24px" height="24px" viewBox="0 0 24 24" version="1.1">
<g id="surface1">
<path style=" stroke:none;fill-rule:nonzero;fill:rgb(25.490198%,32.549021%,35.686275%);fill-opacity:1;" d="M 17.175781 7.726562 C 17.25 7.574219 17.324219 7.425781 17.324219 7.273438 C 17.25 6.976562 17.101562 6.824219 16.875 6.75 C 16.648438 6.675781 16.425781 6.75 16.199219 6.898438 L 14.699219 8.398438 C 14.625 8.476562 14.550781 8.476562 14.398438 8.476562 C 12.675781 7.800781 11.023438 7.800781 9.300781 8.550781 C 7.574219 9.300781 6.300781 10.574219 5.324219 12.074219 C 5.175781 12.375 5.175781 12.601562 5.398438 12.824219 C 5.773438 13.273438 6.226562 13.726562 6.675781 14.101562 C 7.125 14.476562 7.574219 14.773438 8.023438 15.074219 C 7.949219 15.074219 7.949219 15.148438 7.875 15.148438 C 7.5 15.523438 7.125 15.824219 6.824219 16.199219 C 6.675781 16.351562 6.601562 16.574219 6.675781 16.875 C 6.75 17.101562 6.898438 17.25 7.199219 17.324219 C 7.425781 17.324219 7.648438 17.25 7.800781 17.101562 Z M 9.074219 14.023438 L 8.925781 14.023438 C 8.101562 13.574219 7.351562 13.050781 6.675781 12.300781 C 7.425781 11.324219 8.324219 10.425781 9.449219 9.824219 C 8.699219 11.101562 8.773438 12.300781 9.601562 13.5 Z M 12.449219 9.898438 C 12.375 10.125 12.226562 10.273438 11.925781 10.273438 C 11.25 10.273438 10.726562 10.726562 10.648438 11.398438 L 10.648438 11.625 C 10.648438 11.925781 10.425781 12.074219 10.199219 12.074219 C 9.898438 12.074219 9.75 11.851562 9.75 11.550781 C 9.75 10.351562 10.726562 9.300781 11.925781 9.300781 C 12.300781 9.300781 12.523438 9.601562 12.449219 9.898438 Z M 18.601562 12 C 18.226562 11.550781 17.851562 11.023438 17.476562 10.574219 C 17.175781 10.199219 16.726562 9.898438 16.425781 9.523438 L 15.523438 10.425781 C 16.199219 10.949219 16.800781 11.550781 17.324219 12.300781 C 17.25 12.375 17.175781 12.449219 17.101562 12.449219 C 16.875 12.675781 16.648438 12.898438 16.425781 13.050781 C 14.925781 14.25 13.273438 14.851562 11.398438 14.625 C 11.25 14.625 11.175781 14.625 11.101562 14.699219 C 10.949219 14.851562 10.800781 15 10.648438 15.226562 L 10.199219 15.675781 L 10.273438 15.675781 C 11.324219 15.898438 12.449219 15.976562 13.5 15.75 C 15.601562 15.375 17.25 14.25 18.601562 12.675781 C 18.824219 12.523438 18.824219 12.300781 18.601562 12 Z M 18.601562 12 "/>
</g>
</svg>
