
<svg xmlns="http://www.w3.org/2000/svg" xmlns:xlink="http://www.w3.org/1999/xlink" width="24px" height="24px" viewBox="0 0 24 24" version="1.1">
<g id="surface1">
<path style=" stroke:none;fill-rule:nonzero;fill:rgb(62.352943%,45.490196%,70.19608%);fill-opacity:1;" d="M 15.976562 12.898438 C 16.726562 12.898438 17.324219 12.300781 17.324219 11.550781 C 17.324219 10.800781 16.726562 10.199219 15.976562 10.199219 C 15.226562 10.199219 14.625 10.800781 14.625 11.550781 C 14.625 12.300781 15.226562 12.898438 15.976562 12.898438 Z M 7.648438 8.773438 L 7.648438 18.074219 L 19.125 18.074219 L 19.125 8.773438 Z M 8.175781 9.300781 L 18.601562 9.300781 L 18.601562 17.398438 L 15.898438 14.324219 L 14.25 16.273438 L 10.949219 12.75 L 8.175781 16.199219 Z M 15.523438 5.925781 L 4.875 5.925781 L 4.875 14.023438 L 6.300781 14.023438 L 6.300781 7.199219 L 15.523438 7.199219 Z M 15.523438 5.925781 "/>
</g>
</svg>
