
<svg xmlns="http://www.w3.org/2000/svg" xmlns:xlink="http://www.w3.org/1999/xlink" width="24px" height="24px" viewBox="0 0 24 24" version="1.1">
<g id="surface1">
<path style=" stroke:none;fill-rule:nonzero;fill:rgb(0%,0%,0%);fill-opacity:1;" d="M 19.5 11.324219 C 19.425781 10.050781 18.976562 8.925781 18.300781 7.875 C 17.25 6.300781 15.75 5.25 13.949219 4.800781 C 13.425781 4.648438 12.898438 4.574219 12.449219 4.574219 L 11.25 4.574219 C 9.75 4.726562 8.476562 5.25 7.273438 6.148438 C 5.925781 7.273438 5.023438 8.625 4.648438 10.351562 C 4.574219 10.726562 4.5 11.175781 4.5 11.550781 L 4.5 12.75 C 4.648438 14.023438 5.023438 15.226562 5.773438 16.273438 C 6.601562 17.476562 7.726562 18.449219 9.074219 18.976562 C 9.898438 19.273438 10.726562 19.5 11.550781 19.574219 L 12.75 19.574219 C 14.550781 19.425781 16.125 18.675781 17.398438 17.324219 C 18.449219 16.273438 19.125 15 19.425781 13.574219 C 19.5 13.199219 19.5 12.898438 19.574219 12.523438 L 19.574219 11.699219 C 19.5 11.550781 19.5 11.476562 19.5 11.324219 Z M 12 18.375 C 8.476562 18.375 5.699219 15.523438 5.699219 12 C 5.699219 8.476562 8.550781 5.625 12.148438 5.625 C 15.601562 5.699219 18.449219 8.476562 18.449219 12 C 18.375 15.523438 15.523438 18.375 12 18.375 Z M 12 18.375 "/>
<path style=" stroke:none;fill-rule:nonzero;fill:rgb(0%,0%,0%);fill-opacity:1;" d="M 13.800781 16.050781 C 13.648438 16.050781 13.574219 16.050781 13.425781 15.976562 C 13.273438 15.976562 13.273438 15.824219 13.199219 15.75 L 13.199219 10.875 C 12 10.949219 10.875 10.949219 9.675781 11.023438 L 9.675781 11.625 L 10.425781 11.625 C 10.726562 11.625 10.875 11.851562 10.875 12.148438 L 10.875 15.601562 C 10.875 15.898438 10.726562 16.050781 10.425781 16.050781 L 9.75 16.050781 L 9.75 16.648438 L 14.25 16.648438 L 14.25 16.050781 Z M 11.851562 9.976562 C 12.601562 9.976562 13.125 9.375 13.125 8.699219 C 13.125 8.023438 12.523438 7.425781 11.851562 7.425781 C 11.101562 7.425781 10.574219 8.023438 10.574219 8.699219 C 10.574219 9.375 11.175781 9.976562 11.851562 9.976562 Z M 11.851562 9.976562 "/>
</g>
</svg>
