
<svg xmlns="http://www.w3.org/2000/svg" xmlns:xlink="http://www.w3.org/1999/xlink" width="16px" height="16px" viewBox="0 0 16 16" version="1.1">
<g id="surface1">
<path style=" stroke:none;fill-rule:nonzero;fill:rgb(0%,0%,0%);fill-opacity:1;" d="M 12.800781 12.6875 C 12.164062 13.261719 12.875 13.851562 13.5 13.476562 C 13.636719 13.324219 13.5 12.824219 12.800781 12.6875 Z M 3.574219 13.613281 C 4.074219 14.039062 4.851562 13.5 5.074219 12.898438 C 4.585938 12.261719 2.789062 12.925781 3.574219 13.613281 Z M 13.0625 12.101562 C 13.0625 12.386719 15.164062 12.574219 15.164062 12.039062 C 14.863281 11.164062 13.3125 11.210938 13.0625 12.101562 Z M 15.011719 6.960938 L 9.175781 0.988281 C 8.460938 0.300781 7.273438 0.300781 6.601562 0.988281 L 0.960938 6.75 C -0.9375 9.113281 2.261719 8.835938 3.625 9.511719 C 4.113281 10.011719 1.738281 10.386719 2.238281 10.886719 C 2.726562 11.386719 5.210938 11.851562 5.699219 12.363281 L 5.1875 13.898438 C 5.675781 14.398438 6.8125 13.925781 7.023438 15.085938 C 7.175781 15.914062 9.074219 15.4375 10 14.761719 C 10.488281 14.261719 9.0625 14.3125 9.550781 13.800781 C 10.773438 12.550781 11.914062 13.351562 12.324219 12.085938 C 12.539062 11.460938 10.523438 11.136719 11.011719 10.625 C 12.4375 9.8125 17.324219 9.273438 15.011719 6.960938 Z M 8.011719 10.851562 C 7.414062 11.011719 4.511719 9.824219 5.238281 9.824219 C 5.386719 9.914062 7.664062 10.375 8.226562 10.476562 C 8.425781 10.511719 8.289062 10.710938 8.011719 10.851562 Z M 11.148438 4.414062 L 10.050781 3.523438 L 9.835938 4.835938 L 8.914062 4.351562 L 7.4375 5.289062 L 6.949219 3.351562 L 6.136719 4.75 L 4.925781 4.75 C 4.425781 4.75 4.375 4.085938 4.824219 3.636719 C 5.613281 2.789062 6.511719 1.914062 7 1.414062 C 7.488281 0.914062 8.351562 0.914062 8.835938 1.398438 L 11.0625 3.664062 C 11.273438 3.875 11.273438 4.289062 11.148438 4.414062 Z M 11.148438 4.414062 "/>
</g>
</svg>
