
<svg xmlns="http://www.w3.org/2000/svg" xmlns:xlink="http://www.w3.org/1999/xlink" width="16px" height="16px" viewBox="0 0 16 16" version="1.1">
<g id="surface1">
<path style=" stroke:none;fill-rule:nonzero;fill:rgb(7.450981%,41.960785%,63.529414%);fill-opacity:1;" d="M 0.609375 8.09375 C 0.609375 9.285156 1.578125 10.25 2.769531 10.25 C 3.960938 10.25 4.929688 9.285156 4.929688 8.089844 C 4.929688 6.898438 3.960938 5.929688 2.769531 5.929688 C 1.578125 5.933594 0.609375 6.898438 0.609375 8.09375 Z M 0.609375 8.09375 "/>
<path style=" stroke:none;fill-rule:nonzero;fill:rgb(7.450981%,41.960785%,63.529414%);fill-opacity:1;" d="M 13.5 0.5 C 12.3125 0.5 11.605469 1.457031 11.605469 3.058594 L 11.605469 12.894531 C 11.605469 14.496094 12.3125 15.453125 13.496094 15.453125 C 14.683594 15.453125 15.390625 14.496094 15.390625 12.894531 L 15.390625 3.0625 C 15.390625 1.460938 14.683594 0.5 13.5 0.5 Z M 13.5 0.5 "/>
<path style=" stroke:none;fill-rule:nonzero;fill:rgb(7.450981%,41.960785%,63.529414%);fill-opacity:1;" d="M 10.179688 0.714844 L 2.421875 0.714844 C 1.40625 0.75 0.605469 1.582031 0.605469 2.597656 C 0.605469 3.613281 1.40625 4.445312 2.421875 4.484375 L 2.421875 4.5 L 6.390625 4.5 L 6.390625 7.941406 C 6.390625 7.96875 6.390625 7.996094 6.390625 8.023438 C 6.390625 8.046875 6.390625 8.070312 6.390625 8.09375 C 6.390625 10.09375 4.769531 11.71875 2.765625 11.71875 C 2.734375 11.71875 2.703125 11.71875 2.671875 11.71875 L 2.660156 11.730469 C 2.605469 11.730469 2.550781 11.722656 2.496094 11.722656 C 1.453125 11.722656 0.609375 12.570312 0.609375 13.613281 C 0.609375 14.65625 1.457031 15.5 2.5 15.5 C 2.554688 15.5 2.613281 15.5 2.667969 15.492188 L 2.667969 15.496094 L 2.765625 15.496094 C 6.859375 15.496094 10.175781 12.183594 10.179688 8.09375 C 10.179688 8.070312 10.179688 8.046875 10.179688 8.023438 C 10.179688 7.863281 10.179688 7.417969 10.179688 6.8125 C 10.179688 6.8125 10.179688 6.800781 10.179688 6.796875 C 10.179688 6.792969 10.179688 0.882812 10.179688 0.714844 Z M 10.179688 0.714844 "/>
</g>
</svg>
