
<svg xmlns="http://www.w3.org/2000/svg" xmlns:xlink="http://www.w3.org/1999/xlink" width="24px" height="24px" viewBox="0 0 24 24" version="1.1">
<g id="surface1">
<path style=" stroke:none;fill-rule:nonzero;fill:rgb(0%,0%,0%);fill-opacity:1;" d="M 18.675781 8.699219 C 18.976562 8.398438 19.125 7.949219 19.125 7.425781 C 19.125 6.375 18.300781 5.476562 17.175781 5.476562 C 16.800781 5.476562 16.425781 5.625 16.125 5.773438 C 15 4.949219 13.574219 4.5 12 4.5 C 7.875 4.5 4.5 7.875 4.5 12 C 4.5 16.125 7.875 19.5 12 19.5 C 16.125 19.5 19.5 16.125 19.5 12 C 19.5 10.800781 19.199219 9.675781 18.675781 8.699219 Z M 12 18.300781 C 8.476562 18.300781 5.699219 15.449219 5.699219 12 C 5.699219 8.550781 8.550781 5.699219 12 5.699219 C 13.273438 5.699219 14.476562 6.074219 15.449219 6.75 C 15.375 6.976562 15.300781 7.199219 15.300781 7.425781 C 15.300781 8.476562 16.125 9.375 17.25 9.375 C 17.398438 9.375 17.550781 9.375 17.699219 9.300781 C 18.074219 10.125 18.300781 11.023438 18.300781 12 C 18.300781 15.523438 15.523438 18.300781 12 18.300781 Z M 12 18.300781 "/>
<path style=" stroke:none;fill-rule:nonzero;fill:rgb(0%,0%,0%);fill-opacity:1;" d="M 12 8.925781 C 10.273438 8.925781 8.925781 10.273438 8.851562 12 C 8.851562 13.726562 10.199219 15.074219 11.925781 15.148438 C 13.648438 15.148438 15 13.800781 15.074219 12.074219 C 15.074219 10.351562 13.726562 8.925781 12 8.925781 Z M 12 8.925781 "/>
</g>
</svg>
