
<svg xmlns="http://www.w3.org/2000/svg" xmlns:xlink="http://www.w3.org/1999/xlink" width="24px" height="24px" viewBox="0 0 24 24" version="1.1">
<g id="surface1">
<path style=" stroke:none;fill-rule:nonzero;fill:rgb(0%,0%,0%);fill-opacity:1;" d="M 19.5 14.925781 C 19.351562 14.101562 19.351562 13.199219 19.425781 12.375 C 19.5 11.925781 19.574219 11.476562 19.425781 10.949219 C 19.273438 10.5 19.199219 10.050781 19.125 9.601562 C 18.976562 8.625 18.824219 7.574219 18.449219 6.601562 C 18.300781 6.300781 18.148438 6.074219 17.773438 6.074219 C 17.476562 6.074219 17.324219 6.226562 17.324219 6.523438 C 17.398438 7.199219 17.550781 7.949219 17.625 8.625 C 17.699219 9.148438 17.851562 9.601562 17.925781 10.125 L 17.925781 10.425781 C 17.851562 10.425781 17.699219 10.425781 17.625 10.351562 C 17.324219 10.125 17.023438 9.976562 16.800781 9.675781 C 16.425781 9.148438 16.125 8.625 15.898438 8.101562 C 15.449219 7.050781 15.074219 6 14.550781 5.101562 C 14.101562 4.351562 13.5 4.199219 12.75 4.199219 C 12.523438 4.199219 12.449219 4.351562 12.449219 4.5 C 12.523438 4.726562 12.523438 4.949219 12.675781 5.175781 C 13.351562 6.375 13.949219 7.648438 14.625 8.851562 C 14.851562 9.226562 15.148438 9.601562 15.375 9.898438 C 15.675781 10.351562 15.601562 10.5 15.148438 10.726562 C 15.074219 10.726562 15.074219 10.726562 15 10.800781 C 14.398438 10.949219 13.949219 10.726562 13.574219 10.351562 C 13.199219 10.050781 12.75 9.824219 12.226562 9.75 C 12 9.75 11.699219 9.675781 11.476562 9.675781 C 10.425781 9.601562 9.449219 9.601562 8.398438 9.976562 C 6.898438 10.5 6.074219 11.699219 5.550781 13.125 C 5.398438 13.574219 5.25 14.101562 5.101562 14.625 C 5.023438 14.476562 5.023438 14.476562 4.949219 14.398438 C 4.875 14.324219 4.800781 14.25 4.800781 14.101562 C 4.726562 14.175781 4.574219 14.25 4.5 14.398438 L 4.5 14.773438 C 4.5 15 4.574219 15.226562 4.648438 15.375 C 5.175781 16.648438 5.699219 18 6.148438 19.273438 C 6.300781 19.574219 6.523438 19.726562 6.824219 19.726562 C 7.574219 19.800781 8.324219 19.800781 9 19.648438 L 10.351562 19.425781 C 10.199219 19.273438 10.050781 19.125 9.898438 19.050781 C 9.898438 18.976562 9.976562 18.976562 9.976562 18.898438 C 10.351562 18.976562 10.648438 19.050781 11.023438 19.125 C 12.226562 19.574219 13.425781 19.800781 14.699219 19.726562 C 14.925781 19.726562 15.148438 19.648438 15.226562 19.425781 L 15.449219 18.976562 C 15.601562 18.375 15.898438 17.851562 16.199219 17.398438 C 16.726562 16.648438 16.648438 16.726562 17.476562 16.949219 C 18.375 17.25 19.199219 16.800781 19.425781 15.898438 C 19.5 15.601562 19.5 15.226562 19.5 14.925781 Z M 18.675781 14.023438 C 18.601562 14.101562 18.449219 14.25 18.375 14.25 C 17.699219 14.324219 17.023438 14.324219 16.425781 14.023438 C 16.199219 13.949219 16.050781 13.726562 15.824219 13.5 C 16.050781 13.425781 16.273438 13.351562 16.425781 13.273438 C 17.101562 13.199219 17.699219 13.351562 18.300781 13.648438 C 18.375 13.648438 18.449219 13.726562 18.449219 13.726562 C 18.523438 13.800781 18.675781 13.949219 18.675781 14.023438 Z M 18.675781 14.023438 "/>
</g>
</svg>
