
<svg xmlns="http://www.w3.org/2000/svg" xmlns:xlink="http://www.w3.org/1999/xlink" width="16px" height="16px" viewBox="0 0 16 16" version="1.1">
<g id="surface1">
<path style=" stroke:none;fill-rule:nonzero;fill:rgb(54.11765%,25.490198%,50.980395%);fill-opacity:1;" d="M 8.5625 6.585938 L 7.382812 6.585938 L 7.0625 6.175781 L 7.0625 2.960938 L 8.859375 2.960938 L 8.859375 6.175781 Z M 8.5625 6.585938 "/>
<path style=" stroke:none;fill-rule:nonzero;fill:rgb(54.11765%,25.490198%,50.980395%);fill-opacity:1;" d="M 6.964844 6.886719 L 6.601562 8.011719 L 6.113281 8.1875 L 3.054688 7.191406 L 3.609375 5.484375 L 6.667969 6.476562 Z M 6.964844 6.886719 "/>
<path style=" stroke:none;fill-rule:nonzero;fill:rgb(54.11765%,25.490198%,50.980395%);fill-opacity:1;" d="M 6.753906 8.46875 L 7.710938 9.160156 L 7.726562 9.679688 L 5.835938 12.28125 L 4.382812 11.226562 L 6.273438 8.621094 Z M 6.753906 8.46875 "/>
<path style=" stroke:none;fill-rule:nonzero;fill:rgb(54.11765%,25.490198%,50.980395%);fill-opacity:1;" d="M 8.21875 9.167969 L 9.175781 8.472656 L 9.671875 8.617188 L 11.5625 11.21875 L 10.109375 12.273438 L 8.21875 9.671875 Z M 8.21875 9.167969 "/>
<path style=" stroke:none;fill-rule:nonzero;fill:rgb(54.11765%,25.490198%,50.980395%);fill-opacity:1;" d="M 9.355469 8.027344 L 8.988281 6.90625 L 9.28125 6.476562 L 12.339844 5.484375 L 12.894531 7.191406 L 9.835938 8.1875 Z M 9.355469 8.027344 "/>
<path style=" stroke:none;fill-rule:nonzero;fill:rgb(54.11765%,25.490198%,50.980395%);fill-opacity:1;" d="M 8 0.175781 C 3.679688 0.175781 0.175781 3.679688 0.175781 8 C 0.175781 12.320312 3.679688 15.824219 8 15.824219 C 12.320312 15.824219 15.824219 12.320312 15.824219 8 C 15.824219 3.679688 12.320312 0.175781 8 0.175781 Z M 7.957031 14.113281 C 4.539062 14.113281 1.769531 11.34375 1.769531 7.925781 C 1.769531 4.507812 4.539062 1.738281 7.957031 1.738281 C 11.375 1.738281 14.144531 4.507812 14.144531 7.925781 C 14.144531 11.34375 11.375 14.113281 7.957031 14.113281 Z M 7.957031 14.113281 "/>
<path style=" stroke:none;fill-rule:nonzero;fill:rgb(54.11765%,25.490198%,50.980395%);fill-opacity:1;" d="M 7.699219 10.375 L 8.1875 10.375 L 8.1875 12.8125 L 7.699219 12.8125 Z M 7.699219 10.375 "/>
<path style=" stroke:none;fill-rule:nonzero;fill:rgb(54.11765%,25.490198%,50.980395%);fill-opacity:1;" d="M 10.355469 8.867188 L 10.507812 8.402344 L 12.824219 9.15625 L 12.675781 9.621094 Z M 10.355469 8.867188 "/>
<path style=" stroke:none;fill-rule:nonzero;fill:rgb(54.11765%,25.490198%,50.980395%);fill-opacity:1;" d="M 9.71875 5.882812 L 9.324219 5.59375 L 10.757812 3.621094 L 11.152344 3.910156 Z M 9.71875 5.882812 "/>
<path style=" stroke:none;fill-rule:nonzero;fill:rgb(54.11765%,25.490198%,50.980395%);fill-opacity:1;" d="M 6.667969 5.59375 L 6.273438 5.882812 L 4.839844 3.910156 L 5.234375 3.621094 Z M 6.667969 5.59375 "/>
<path style=" stroke:none;fill-rule:nonzero;fill:rgb(54.11765%,25.490198%,50.980395%);fill-opacity:1;" d="M 5.425781 8.402344 L 5.574219 8.867188 L 3.257812 9.621094 L 3.105469 9.15625 Z M 5.425781 8.402344 "/>
</g>
</svg>
