
<svg xmlns="http://www.w3.org/2000/svg" xmlns:xlink="http://www.w3.org/1999/xlink" width="24px" height="24px" viewBox="0 0 24 24" version="1.1">
<g id="surface1">
<path style=" stroke:none;fill-rule:nonzero;fill:rgb(0%,0%,0%);fill-opacity:1;" d="M 12 4.800781 C 8.023438 4.800781 4.800781 8.023438 4.800781 12 C 4.800781 15.976562 8.023438 19.199219 12 19.199219 C 15.976562 19.199219 19.199219 15.976562 19.199219 12 C 19.199219 8.023438 15.976562 4.800781 12 4.800781 Z M 14.566406 12.960938 C 14.660156 13.726562 14.40625 14.492188 13.875 15.050781 C 13.34375 15.609375 12.589844 15.902344 11.820312 15.851562 C 10.902344 15.890625 10.019531 15.503906 9.421875 14.808594 L 10.296875 13.703125 C 10.648438 14.160156 11.195312 14.421875 11.773438 14.410156 C 12.5625 14.410156 13.042969 13.90625 13.042969 12.828125 L 13.042969 8.160156 L 14.554688 8.160156 Z M 14.566406 12.960938 "/>
</g>
</svg>
