
<svg xmlns="http://www.w3.org/2000/svg" xmlns:xlink="http://www.w3.org/1999/xlink" width="16px" height="16px" viewBox="0 0 16 16" version="1.1">
<g id="surface1">
<path style=" stroke:none;fill-rule:nonzero;fill:rgb(100%,40.000001%,29.019609%);fill-opacity:1;" d="M 13.429688 5.167969 L 13.425781 5.164062 C 12.074219 5.007812 11 3.9375 10.847656 2.582031 L 10.839844 2.578125 C 10.625 1.167969 9.410156 0.0898438 7.941406 0.0898438 C 6.320312 0.0898438 5.007812 1.402344 5.007812 3.023438 C 5.007812 3.070312 5.007812 3.117188 5.011719 3.160156 C 4.707031 4.0625 3.988281 4.765625 3.078125 5.039062 C 3.046875 5.039062 3.019531 5.039062 2.992188 5.039062 C 1.375 5.039062 0.0585938 6.351562 0.0585938 7.972656 C 0.0585938 9.554688 1.316406 10.84375 2.882812 10.902344 C 3.996094 11.160156 4.863281 12.046875 5.089844 13.171875 C 5.191406 14.699219 6.464844 15.910156 8.019531 15.910156 C 9.585938 15.910156 10.867188 14.679688 10.949219 13.128906 C 11.167969 12.140625 11.886719 11.332031 12.84375 11 C 12.898438 11 12.953125 11.003906 13.007812 11.003906 C 14.625 11.003906 15.941406 9.691406 15.941406 8.070312 C 15.941406 6.59375 14.851562 5.375 13.433594 5.167969 Z M 5.996094 7.972656 C 5.996094 6.929688 6.78125 6.074219 7.792969 5.964844 C 7.808594 5.960938 7.824219 5.960938 7.839844 5.960938 C 7.859375 5.957031 7.878906 5.957031 7.894531 5.957031 C 7.910156 5.957031 7.925781 5.957031 7.941406 5.957031 C 7.988281 5.957031 8.039062 5.957031 8.089844 5.953125 C 9.171875 5.992188 10.039062 6.878906 10.039062 7.972656 C 10.039062 7.988281 10.039062 8 10.039062 8.015625 C 10.015625 9.070312 9.183594 9.925781 8.136719 9.988281 C 8.113281 9.996094 8.089844 10.003906 8.070312 10.007812 C 8.046875 10.003906 8.023438 10 8 9.992188 C 6.933594 9.984375 6.0625 9.148438 6 8.09375 C 5.996094 8.078125 5.992188 8.0625 5.988281 8.046875 C 5.992188 8.03125 5.992188 8.015625 5.996094 8.003906 C 5.996094 7.992188 5.996094 7.980469 5.996094 7.972656 Z M 5.996094 7.972656 "/>
</g>
</svg>
