
<svg xmlns="http://www.w3.org/2000/svg" xmlns:xlink="http://www.w3.org/1999/xlink" width="24px" height="24px" viewBox="0 0 24 24" version="1.1">
<g id="surface1">
<path style=" stroke:none;fill-rule:nonzero;fill:rgb(0%,0%,0%);fill-opacity:1;" d="M 12.757812 9.457031 C 12.796875 9.457031 12.832031 9.453125 12.871094 9.449219 C 13.292969 9.421875 13.652344 9.191406 13.996094 8.921875 C 14.019531 8.902344 14.035156 8.867188 14.046875 8.835938 C 14.066406 8.761719 14.078125 8.6875 14.101562 8.613281 C 14.15625 8.457031 14.113281 8.34375 14.011719 8.230469 C 13.707031 7.886719 13.445312 7.496094 13.226562 7.074219 C 13.15625 6.941406 13.117188 6.789062 13.058594 6.644531 C 13.042969 6.605469 13.003906 6.582031 12.976562 6.550781 C 12.964844 6.589844 12.945312 6.625 12.945312 6.664062 C 12.945312 6.730469 12.953125 6.792969 12.964844 6.855469 C 13.027344 7.21875 13.191406 7.523438 13.378906 7.808594 C 13.507812 8.003906 13.636719 8.195312 13.777344 8.378906 C 13.894531 8.539062 13.867188 8.820312 13.683594 8.890625 C 13.582031 8.929688 13.488281 9 13.386719 9.050781 C 13.210938 9.140625 13.035156 9.234375 12.835938 9.226562 C 12.679688 9.222656 12.617188 9.167969 12.578125 8.992188 C 12.566406 8.925781 12.550781 8.859375 12.53125 8.789062 C 12.429688 8.929688 12.425781 9.097656 12.492188 9.296875 C 12.542969 9.457031 12.648438 9.457031 12.757812 9.457031 Z M 11.808594 9.976562 C 11.933594 10.140625 12.09375 10.230469 12.265625 10.296875 C 12.550781 10.398438 12.839844 10.441406 13.144531 10.414062 C 13.144531 10.316406 13.144531 10.230469 13.144531 10.144531 C 13.148438 10.03125 13.109375 9.992188 13.011719 9.992188 C 12.761719 9.988281 12.511719 9.980469 12.261719 9.949219 C 12.078125 9.925781 11.902344 9.859375 11.710938 9.8125 C 11.742188 9.867188 11.773438 9.929688 11.808594 9.976562 Z M 11.460938 7.320312 C 11.367188 7.308594 11.308594 7.371094 11.339844 7.480469 C 11.359375 7.539062 11.402344 7.601562 11.449219 7.628906 C 11.640625 7.734375 11.84375 7.757812 12.039062 7.664062 C 12.277344 7.550781 12.289062 7.320312 12.234375 7.074219 C 12.183594 6.832031 11.859375 6.308594 11.78125 6.34375 C 11.652344 6.421875 11.96875 7.160156 11.929688 7.292969 C 11.925781 7.371094 11.617188 7.335938 11.460938 7.320312 Z M 10.863281 6.265625 C 10.878906 6.222656 10.894531 6.183594 10.910156 6.144531 C 11.078125 5.765625 11.328125 5.457031 11.761719 5.554688 C 11.832031 5.574219 11.855469 5.53125 11.859375 5.460938 C 11.863281 5.347656 11.777344 5.230469 11.664062 5.199219 C 11.492188 5.15625 11.34375 5.210938 11.203125 5.324219 C 10.976562 5.511719 10.800781 5.734375 10.769531 6.078125 C 10.765625 6.152344 10.765625 6.234375 10.863281 6.265625 Z M 13.324219 9.964844 C 13.304688 9.96875 13.277344 10.011719 13.273438 10.039062 C 13.269531 10.152344 13.273438 10.265625 13.273438 10.382812 C 13.691406 10.398438 14.046875 10.027344 14.222656 9.539062 C 14.199219 9.542969 14.179688 9.546875 14.160156 9.558594 C 13.894531 9.722656 13.636719 9.921875 13.324219 9.964844 Z M 13.964844 7.519531 C 14.167969 7.546875 14.34375 7.464844 14.492188 7.304688 C 14.542969 7.246094 14.546875 7.199219 14.511719 7.125 C 14.425781 6.929688 14.257812 6.292969 14.164062 6.320312 C 14.074219 6.34375 14.183594 6.746094 14.25 6.941406 C 14.316406 7.128906 14.300781 7.15625 14.128906 7.171875 C 14.082031 7.179688 13.820312 7.117188 13.785156 7.222656 C 13.742188 7.332031 13.835938 7.5 13.964844 7.519531 Z M 13.964844 7.519531 "/>
<path style=" stroke:none;fill-rule:nonzero;fill:rgb(0%,0%,0%);fill-opacity:1;" d="M 16.539062 15.726562 C 16.382812 15.078125 16.0625 14.902344 15.527344 15.054688 C 15.300781 15.121094 15.085938 15.25 14.863281 15.351562 C 14.828125 15.363281 14.792969 15.382812 14.742188 15.40625 C 14.765625 15.332031 14.777344 15.28125 14.792969 15.226562 C 15.03125 14.375 15.269531 13.527344 15.503906 12.675781 C 15.605469 12.300781 15.535156 11.988281 15.269531 11.746094 C 15.113281 11.601562 14.964844 11.449219 14.8125 11.300781 C 14.753906 11.242188 14.695312 11.183594 14.644531 11.121094 C 14.457031 10.902344 14.449219 10.863281 14.582031 10.59375 C 14.839844 10.0625 14.964844 9.476562 15.046875 8.878906 C 15.144531 8.191406 15.195312 7.496094 15.171875 6.800781 C 15.144531 6.007812 15.007812 5.25 14.605469 4.597656 C 14.078125 3.742188 13.386719 3.222656 12.496094 3.101562 C 12.433594 3.089844 12.371094 3.082031 12.304688 3.070312 L 11.859375 3.070312 C 11.683594 3.101562 11.511719 3.132812 11.339844 3.164062 C 10.707031 3.296875 10.125 3.59375 9.582031 3.992188 C 9.503906 4.054688 9.421875 4.117188 9.34375 4.171875 C 9.039062 4.394531 8.820312 4.695312 8.695312 5.101562 C 8.675781 5.164062 8.628906 5.226562 8.578125 5.269531 C 8.285156 5.503906 8.171875 5.851562 8.160156 6.246094 C 8.148438 6.582031 8.171875 6.914062 8.171875 7.246094 C 8.171875 7.316406 8.144531 7.386719 8.125 7.449219 C 8.078125 7.613281 8.003906 7.769531 7.984375 7.9375 C 7.921875 8.542969 8.042969 9.09375 8.386719 9.554688 C 8.511719 9.71875 8.675781 9.808594 8.851562 9.875 C 8.914062 9.898438 8.953125 9.9375 8.960938 10.019531 C 8.996094 10.304688 9.089844 10.566406 9.226562 10.804688 C 9.261719 10.867188 9.285156 10.945312 9.296875 11.015625 C 9.3125 11.140625 9.277344 11.230469 9.175781 11.304688 C 8.707031 11.640625 8.246094 11.992188 7.785156 12.339844 C 7.738281 12.371094 7.691406 12.402344 7.636719 12.421875 C 7.460938 12.496094 7.316406 12.609375 7.261719 12.839844 L 7.261719 13.011719 C 7.433594 13.570312 7.617188 14.121094 7.769531 14.6875 C 7.949219 15.34375 8.015625 16.03125 8.050781 16.722656 C 8.070312 17.058594 8.078125 17.386719 8.089844 17.722656 C 8.09375 17.882812 8.160156 17.996094 8.273438 18.054688 C 8.683594 18.273438 9.089844 18.488281 9.5 18.699219 C 9.722656 18.8125 9.960938 18.863281 10.203125 18.84375 C 10.273438 18.835938 10.292969 18.867188 10.3125 18.941406 C 10.460938 19.5 10.613281 20.054688 10.761719 20.609375 C 10.78125 20.6875 10.8125 20.722656 10.878906 20.738281 C 11.140625 20.792969 11.402344 20.847656 11.664062 20.902344 C 11.695312 20.910156 11.722656 20.914062 11.753906 20.921875 L 12.589844 20.921875 C 12.738281 20.90625 12.890625 20.898438 13.042969 20.871094 C 13.191406 20.839844 13.34375 20.804688 13.480469 20.742188 C 13.644531 20.667969 13.710938 20.511719 13.6875 20.292969 C 13.65625 20.046875 13.664062 20.046875 13.859375 19.984375 C 14.222656 19.871094 14.300781 19.714844 14.222656 19.277344 C 14.179688 19.019531 14.144531 18.761719 14.105469 18.5 C 14.097656 18.441406 14.101562 18.378906 14.101562 18.320312 C 14.101562 18.234375 14.128906 18.179688 14.203125 18.152344 C 14.285156 18.125 14.339844 18.050781 14.355469 17.945312 C 14.363281 17.910156 14.382812 17.867188 14.40625 17.855469 C 14.621094 17.734375 14.847656 17.699219 15.082031 17.726562 C 15.097656 17.730469 15.121094 17.734375 15.125 17.746094 C 15.183594 17.941406 15.332031 17.945312 15.460938 17.957031 C 15.671875 17.972656 15.882812 17.984375 16.089844 17.960938 C 16.4375 17.917969 16.589844 17.613281 16.675781 17.25 C 16.703125 17.144531 16.71875 17.03125 16.738281 16.921875 L 16.738281 16.628906 C 16.675781 16.328125 16.613281 16.023438 16.539062 15.726562 Z M 9.609375 11.125 C 9.457031 10.738281 9.324219 10.347656 9.261719 9.921875 C 9.242188 9.800781 9.269531 9.710938 9.339844 9.625 C 9.382812 9.566406 9.433594 9.503906 9.460938 9.433594 C 9.476562 9.390625 9.460938 9.324219 9.445312 9.277344 C 9.4375 9.261719 9.371094 9.269531 9.335938 9.289062 C 9.289062 9.308594 9.246094 9.347656 9.207031 9.382812 C 9.023438 9.535156 8.871094 9.542969 8.683594 9.390625 C 8.445312 9.199219 8.324219 8.914062 8.257812 8.589844 C 8.195312 8.3125 8.203125 8.046875 8.34375 7.808594 C 8.488281 7.558594 8.691406 7.433594 8.945312 7.472656 C 9.109375 7.496094 9.210938 7.628906 9.273438 7.800781 C 9.3125 7.90625 9.335938 8.023438 9.359375 8.136719 C 9.375 8.203125 9.398438 8.230469 9.457031 8.222656 C 9.53125 8.210938 9.609375 8.210938 9.679688 8.1875 C 9.839844 8.140625 9.878906 8.058594 9.84375 7.859375 C 9.808594 7.671875 9.765625 7.480469 9.734375 7.292969 C 9.691406 7.035156 9.730469 6.78125 9.769531 6.53125 C 9.8125 6.246094 9.859375 5.964844 9.878906 5.675781 C 9.886719 5.527344 9.839844 5.375 9.824219 5.222656 C 9.816406 5.164062 9.816406 5.09375 9.839844 5.042969 C 9.980469 4.714844 10.195312 4.460938 10.445312 4.253906 C 10.730469 4.023438 11.027344 3.808594 11.328125 3.617188 C 11.625 3.429688 11.953125 3.429688 12.277344 3.46875 C 12.71875 3.519531 13.140625 3.679688 13.539062 3.925781 C 13.804688 4.089844 14.003906 4.347656 14.1875 4.617188 C 14.28125 4.753906 14.367188 4.890625 14.46875 5.050781 C 14.261719 5.019531 14.070312 5 13.941406 5.207031 C 13.898438 5.28125 13.882812 5.378906 13.871094 5.480469 C 14.070312 5.324219 14.265625 5.335938 14.460938 5.453125 C 14.644531 5.5625 14.792969 5.722656 14.859375 5.960938 C 14.898438 6.097656 14.929688 6.246094 14.941406 6.390625 C 14.988281 6.980469 15.019531 7.574219 14.96875 8.167969 C 14.898438 8.945312 14.746094 9.699219 14.398438 10.371094 C 14.25 10.660156 14.09375 10.964844 13.886719 11.191406 C 13.609375 11.5 13.257812 11.667969 12.882812 11.773438 C 12.601562 11.855469 12.324219 11.863281 12.050781 11.753906 C 11.746094 11.636719 11.472656 11.445312 11.230469 11.1875 C 10.949219 10.882812 10.730469 10.515625 10.511719 10.15625 C 10.5 10.136719 10.488281 10.125 10.476562 10.105469 C 10.460938 10.210938 10.492188 10.371094 10.554688 10.507812 C 10.714844 10.847656 10.9375 11.125 11.167969 11.394531 C 11.277344 11.523438 11.402344 11.636719 11.539062 11.765625 C 11.445312 11.765625 10.441406 11.871094 10.1875 11.792969 C 9.894531 11.710938 9.734375 11.429688 9.609375 11.125 Z M 12.296875 13.691406 C 12.566406 13.988281 12.960938 14.953125 13.101562 15.371094 C 12.972656 15.328125 12.855469 15.300781 12.746094 15.246094 C 12.386719 15.074219 12.035156 14.894531 11.679688 14.71875 C 11.621094 14.6875 11.609375 14.636719 11.632812 14.582031 C 11.707031 14.429688 11.769531 14.261719 11.867188 14.132812 C 11.992188 13.96875 12.148438 13.839844 12.296875 13.691406 Z M 13.050781 14.488281 C 12.929688 14.1875 12.789062 13.902344 12.660156 13.609375 C 12.640625 13.566406 12.617188 13.503906 12.628906 13.464844 C 12.652344 13.402344 12.6875 13.34375 12.769531 13.371094 C 12.8125 13.386719 12.875 13.351562 12.921875 13.324219 C 13.042969 13.242188 13.148438 13.265625 13.261719 13.363281 C 13.339844 13.433594 13.4375 13.476562 13.539062 13.539062 C 13.546875 13.914062 13.496094 15.113281 13.367188 15.332031 C 13.261719 15.039062 13.164062 14.761719 13.050781 14.488281 Z M 12.722656 20.398438 C 12.324219 20.457031 11.925781 20.441406 11.53125 20.363281 C 11.382812 20.332031 11.234375 20.289062 11.089844 20.242188 C 11.054688 20.230469 11.015625 20.195312 11.007812 20.15625 C 10.882812 19.597656 10.738281 19.035156 10.644531 18.46875 C 10.539062 17.855469 10.476562 17.230469 10.398438 16.613281 C 10.394531 16.582031 10.394531 16.546875 10.394531 16.496094 C 10.542969 16.464844 10.683594 16.429688 10.820312 16.40625 C 11.375 16.3125 11.929688 16.253906 12.484375 16.292969 C 12.652344 16.300781 12.816406 16.335938 12.984375 16.359375 C 13.039062 16.367188 13.046875 16.402344 13.050781 16.453125 C 13.070312 16.828125 13.09375 17.195312 13.113281 17.566406 C 13.144531 18.273438 13.175781 18.980469 13.210938 19.6875 C 13.21875 19.878906 13.25 20.070312 13.273438 20.28125 C 13.089844 20.324219 12.90625 20.375 12.722656 20.398438 Z M 13.828125 19.640625 C 13.734375 19.667969 13.640625 19.691406 13.527344 19.722656 C 13.507812 19.246094 13.492188 18.796875 13.472656 18.339844 C 13.578125 18.308594 13.660156 18.277344 13.742188 18.265625 C 13.769531 18.257812 13.820312 18.292969 13.824219 18.3125 C 13.878906 18.671875 13.933594 19.03125 13.972656 19.390625 C 13.992188 19.605469 13.996094 19.597656 13.828125 19.640625 Z M 13.628906 15.300781 C 13.628906 15.304688 13.617188 15.308594 13.625 15.304688 C 13.667969 14.871094 13.714844 14.433594 13.757812 13.996094 C 13.769531 13.875 13.773438 13.753906 13.773438 13.632812 C 13.773438 13.535156 13.820312 13.503906 13.882812 13.484375 C 14.054688 13.433594 14.292969 13.554688 14.382812 13.738281 C 14.394531 13.765625 14.398438 13.8125 14.386719 13.835938 C 14.136719 14.324219 13.882812 14.8125 13.628906 15.300781 Z M 15.828125 17.464844 C 15.6875 17.472656 15.542969 17.488281 15.402344 17.449219 C 15.398438 17.4375 15.398438 17.421875 15.398438 17.410156 C 15.558594 17.367188 15.71875 17.324219 15.882812 17.28125 C 15.882812 17.269531 15.882812 17.261719 15.882812 17.253906 C 15.824219 17.242188 15.769531 17.21875 15.710938 17.21875 C 15.515625 17.222656 15.320312 17.234375 15.125 17.242188 C 15.007812 17.25 15.011719 17.242188 14.996094 17.101562 C 14.957031 16.738281 14.910156 16.378906 14.871094 16.019531 C 14.867188 15.992188 14.886719 15.9375 14.90625 15.925781 C 15.050781 15.84375 15.199219 15.761719 15.347656 15.6875 C 15.441406 15.636719 15.546875 15.601562 15.636719 15.542969 C 15.828125 15.425781 16.046875 15.496094 16.113281 15.742188 C 16.199219 16.070312 16.289062 16.410156 16.324219 16.75 C 16.359375 17.113281 16.164062 17.449219 15.828125 17.464844 Z M 15.828125 17.464844 "/>
<path style=" stroke:none;fill-rule:nonzero;fill:rgb(0%,0%,0%);fill-opacity:1;" d="M 14.207031 5.367188 C 14.207031 5.367188 14.464844 5.421875 14.703125 5.863281 C 14.9375 6.304688 14.949219 7.085938 14.949219 7.085938 C 14.949219 7.085938 14.957031 7.777344 14.886719 8.480469 C 14.710938 10.09375 13.65625 11.425781 13.65625 11.425781 L 14.371094 10.707031 L 14.886719 9.476562 L 15.070312 8.023438 L 15.070312 6.570312 L 14.902344 5.363281 L 14.261719 5.175781 Z M 14.207031 5.367188 "/>
</g>
</svg>
