
<svg xmlns="http://www.w3.org/2000/svg" xmlns:xlink="http://www.w3.org/1999/xlink" width="16px" height="16px" viewBox="0 0 16 16" version="1.1">
<g id="surface1">
<path style=" stroke:none;fill-rule:nonzero;fill:rgb(96.470588%,54.509807%,12.156863%);fill-opacity:1;" d="M 14.898438 6.773438 C 14.898438 6.625 15 6.539062 15.1875 6.539062 C 15.386719 6.539062 15.5 6.601562 15.875 6.789062 L 15.875 6.226562 C 15.5 6.0625 15.398438 6 15.148438 6 C 14.613281 6 14.398438 6.324219 14.398438 6.824219 C 14.398438 7.863281 15.425781 7.6875 15.425781 8.164062 C 15.425781 8.335938 15.3125 8.4375 15.125 8.4375 C 14.875 8.4375 14.75 8.335938 14.375 8.0625 L 14.375 8.6875 C 14.625 8.835938 14.789062 8.976562 15.101562 8.976562 C 15.613281 8.976562 15.9375 8.648438 15.9375 8.085938 C 15.9375 7.085938 14.898438 7.210938 14.898438 6.773438 Z M 8.074219 7.5625 C 8.335938 7.414062 8.476562 7.148438 8.476562 6.835938 C 8.476562 6.398438 8.261719 5.988281 7.789062 5.988281 L 6.875 5.988281 L 6.875 8.863281 L 7.375 8.863281 L 7.375 7.738281 L 8.148438 8.863281 L 8.710938 8.863281 L 7.914062 7.585938 C 7.976562 7.585938 8.011719 7.601562 8.074219 7.5625 Z M 7.636719 7.25 L 7.375 7.25 L 7.375 6.5 L 7.625 6.5 C 7.835938 6.5 7.960938 6.648438 7.960938 6.875 C 7.949219 7.125 7.800781 7.25 7.636719 7.25 Z M 9.636719 6 L 8.773438 8.875 L 9.3125 8.875 L 9.488281 8.375 L 10.386719 8.375 L 10.574219 8.875 L 11.125 8.875 L 10.175781 6 Z M 9.648438 7.875 L 9.925781 6.75 L 10.226562 7.875 Z M 11.25 6 L 11.75 6 L 11.75 8.875 L 11.25 8.875 Z M 13.625 7.800781 L 12.625 6 L 12.125 6 L 12.125 8.875 L 12.625 8.875 L 12.625 7.0625 L 13.75 8.875 L 14.125 8.875 L 14.125 6 L 13.625 6 Z M 6.164062 7.324219 C 6.363281 7.199219 6.488281 7 6.488281 6.75 C 6.488281 6.625 6.460938 6.488281 6.398438 6.363281 C 6.210938 6.523438 6.011719 6.710938 5.949219 6.761719 C 5.960938 6.800781 5.960938 6.800781 5.960938 6.835938 C 5.960938 6.988281 5.875 7.125 5.675781 7.125 L 5.5 7.125 L 5.5 6.476562 L 6.101562 6.0625 C 6.011719 6.023438 5.898438 5.988281 5.773438 5.988281 L 5 5.988281 L 5 8.863281 L 5.835938 8.863281 C 6.511719 8.863281 6.664062 8.375 6.664062 8.039062 C 6.664062 7.710938 6.5 7.4375 6.164062 7.324219 Z M 5.675781 8.375 L 5.5 8.375 L 5.5 7.75 L 5.761719 7.75 C 5.960938 7.75 6.113281 7.835938 6.113281 8.050781 C 6.113281 8.300781 6 8.375 5.675781 8.375 Z M 6.25 6.0625 L 6.1875 6.125 L 5.625 6.523438 L 5.625 6.976562 C 5.75 6.886719 5.824219 6.800781 5.898438 6.738281 L 6.335938 6.351562 C 6.335938 6.351562 6.550781 6.148438 6.675781 6.039062 L 6.710938 6 C 6.75 5.976562 6.761719 5.949219 6.761719 5.925781 C 6.761719 5.914062 6.898438 5.726562 6.886719 5.710938 C 6.851562 5.675781 6.476562 5.898438 6.25 6.0625 Z M 4.1875 7.363281 C 4.199219 7.300781 4.199219 7.25 4.199219 7.25 C 4.25 6.875 4.300781 6.5 4.300781 6.238281 C 4.300781 6.113281 4.289062 6.023438 4.261719 5.976562 C 4.238281 5.9375 4.210938 5.925781 4.175781 5.914062 C 4.125 5.898438 4.074219 5.925781 4.023438 5.960938 C 3.863281 6.074219 3.773438 6.414062 3.773438 6.988281 C 3.773438 7.175781 3.789062 7.386719 3.800781 7.625 C 3.773438 7.636719 3.6875 7.726562 3.6875 7.726562 L 3.523438 7.875 L 3.511719 7.886719 C 3.363281 8.023438 3.261719 8.101562 3.226562 8.113281 C 3.175781 8.125 3.136719 8.136719 3.101562 8.136719 C 3.3125 7.988281 3.476562 7.648438 3.476562 7.460938 C 3.476562 7.4375 3.476562 7.425781 3.460938 7.398438 C 3.425781 7.261719 3.363281 7.164062 3.261719 7.113281 C 3.175781 7.0625 3.0625 7.0625 2.925781 7.113281 L 2.875 7.136719 C 2.648438 7.238281 1.9375 7.636719 1.726562 7.761719 C 1.75 7.449219 1.875 6.050781 1.914062 5.3125 C 1.9375 4.835938 1.914062 5.125 1.914062 5.039062 C 1.914062 4.6875 1.476562 5.039062 1.238281 5.273438 C 1.136719 5.375 0.824219 5.664062 0.9375 5.886719 C 1.0625 6.125 1.1875 6.050781 1.261719 6.449219 C 1.386719 7.164062 1.289062 7.898438 1.289062 7.949219 C 1.25 7.960938 0.949219 8.113281 0.949219 8.113281 C 0.4375 8.351562 0.0390625 8.539062 0.0390625 8.835938 C 0.0390625 8.886719 0.0507812 8.9375 0.0625 8.988281 C 0.488281 10.113281 1.074219 10.710938 1.3125 10.648438 C 1.648438 10.5625 1.664062 10.125 1.6875 9.449219 C 1.699219 9.113281 1.710938 8.738281 1.761719 8.324219 C 1.789062 8.3125 2.351562 7.886719 2.460938 7.824219 C 2.414062 7.925781 2.414062 8.023438 2.414062 8.074219 C 2.414062 8.210938 2.4375 8.3125 2.460938 8.375 C 2.511719 8.476562 2.550781 8.539062 2.648438 8.585938 C 2.789062 8.648438 2.898438 8.664062 3.125 8.574219 C 3.226562 8.539062 3.398438 8.414062 3.585938 8.25 C 3.625 8.3125 3.789062 8.601562 3.789062 8.601562 L 3.9375 8.863281 C 4 8.988281 4.113281 9.023438 4.238281 8.960938 C 4.324219 8.914062 4.386719 8.875 4.414062 8.8125 L 4.414062 8.773438 C 4.414062 8.738281 4.425781 8.699219 4.398438 8.664062 C 4.226562 8.351562 4.238281 8.074219 4.238281 7.875 L 4.238281 7.835938 C 4.238281 7.8125 4.539062 7.601562 4.539062 7.601562 L 4.863281 7.351562 L 4.863281 6.898438 L 4.550781 7.113281 C 4.5625 7.101562 4.289062 7.289062 4.1875 7.363281 Z M 1.125 9.710938 C 0.988281 9.601562 0.925781 9.511719 0.824219 9.261719 C 0.648438 8.851562 0.886719 8.726562 1.3125 8.488281 C 1.261719 8.914062 1.226562 9.8125 1.125 9.710938 Z M 2.824219 7.949219 C 2.824219 7.800781 2.789062 7.601562 2.988281 7.488281 C 3.0625 7.449219 3.113281 7.476562 3.136719 7.5 C 3.1875 7.5625 3.0625 7.800781 2.824219 7.949219 Z M 2.824219 7.949219 "/>
</g>
</svg>
