
<svg xmlns="http://www.w3.org/2000/svg" xmlns:xlink="http://www.w3.org/1999/xlink" width="24px" height="24px" viewBox="0 0 24 24" version="1.1">
<g id="surface1">
<path style=" stroke:none;fill-rule:nonzero;fill:rgb(0.784314%,0.784314%,0.784314%);fill-opacity:1;" d="M 16.867188 6.609375 C 16.867188 6.566406 16.796875 6.523438 16.761719 6.480469 L 16.707031 6.480469 C 16.425781 6.636719 16.140625 6.800781 15.855469 6.945312 C 14.617188 7.582031 13.3125 7.875 11.972656 7.976562 C 11.414062 8.019531 10.859375 8.070312 10.300781 8.109375 C 9.328125 8.175781 8.355469 8.269531 7.398438 7.722656 C 7.570312 8.167969 7.460938 8.453125 7.128906 8.625 L 7.128906 8.6875 C 7.230469 8.75 7.332031 8.832031 7.445312 8.871094 C 7.613281 8.933594 7.761719 8.96875 7.925781 9.113281 C 8.113281 9.277344 8.222656 9.421875 8.289062 9.664062 C 8.300781 9.707031 8.390625 9.738281 8.449219 9.742188 C 8.683594 9.765625 8.921875 9.800781 9.152344 9.78125 C 9.375 9.761719 9.609375 9.855469 9.578125 10.078125 C 9.558594 10.253906 9.304688 10.449219 9.121094 10.519531 C 8.9375 10.589844 8.710938 10.523438 8.507812 10.507812 C 8.335938 10.496094 8.242188 10.535156 8.3125 10.78125 C 8.359375 10.929688 8.359375 11.09375 8.382812 11.257812 L 9.550781 11.257812 C 9.519531 11.910156 9.488281 12.550781 9.457031 13.21875 C 9.140625 13.195312 8.859375 13.175781 8.550781 13.15625 C 8.542969 13.042969 8.53125 12.941406 8.523438 12.855469 C 8.691406 12.707031 8.84375 12.574219 8.996094 12.4375 C 8.667969 12.136719 8.113281 12.113281 7.519531 12.40625 C 7.632812 12.519531 7.71875 12.617188 7.816406 12.695312 C 8.066406 12.90625 8.058594 13.035156 7.746094 13.222656 C 8.019531 13.820312 8.015625 14.480469 7.984375 15.140625 C 7.980469 15.246094 7.875 15.34375 7.851562 15.457031 C 7.816406 15.632812 7.742188 15.894531 7.8125 15.976562 C 7.992188 16.199219 7.910156 16.433594 7.929688 16.664062 C 7.933594 16.761719 7.933594 16.863281 7.921875 16.957031 C 7.898438 17.171875 7.972656 17.253906 8.148438 17.238281 C 8.300781 17.226562 8.453125 17.238281 8.617188 17.238281 C 8.578125 16.863281 8.542969 16.523438 8.507812 16.136719 L 9.308594 16.136719 C 9.273438 16.449219 9.230469 16.773438 9.191406 17.113281 L 10.203125 17.113281 L 10.203125 16.039062 C 10.398438 16.019531 10.554688 16 10.738281 15.980469 L 10.738281 17.050781 L 11.347656 17.050781 C 11.347656 16.957031 11.34375 16.851562 11.347656 16.753906 C 11.363281 16.441406 11.398438 16.136719 11.398438 15.824219 C 11.398438 15.613281 11.339844 15.40625 11.324219 15.191406 C 11.292969 14.722656 11.171875 14.25 11.371094 13.777344 C 11.421875 13.652344 11.484375 13.414062 11.292969 13.265625 C 11.253906 13.230469 11.273438 13 11.328125 12.90625 C 11.40625 12.765625 11.539062 12.667969 11.664062 12.535156 C 11.214844 12.3125 10.785156 12.3125 10.34375 12.535156 C 10.484375 12.746094 10.625 12.949219 10.765625 13.152344 C 10.742188 13.179688 10.722656 13.207031 10.703125 13.234375 L 10.128906 13.234375 L 10.128906 11.210938 C 11.183594 11.140625 12.203125 11.070312 13.289062 11 C 13.253906 11.714844 13.222656 12.394531 13.1875 13.09375 L 12.65625 13.09375 L 12.65625 12.671875 C 12.820312 12.523438 12.976562 12.382812 13.15625 12.222656 C 12.621094 11.921875 12.121094 11.929688 11.585938 12.183594 C 11.6875 12.316406 11.785156 12.445312 11.882812 12.578125 C 11.941406 12.660156 12.03125 12.753906 12.03125 12.839844 C 12.027344 12.929688 11.933594 13.019531 11.851562 13.15625 C 11.957031 13.304688 11.773438 13.632812 12.027344 13.820312 C 12.058594 13.839844 12.042969 13.964844 12.042969 14.039062 C 12.042969 14.425781 12.050781 14.816406 12.027344 15.207031 C 12.019531 15.359375 11.945312 15.507812 11.863281 15.644531 C 11.925781 16.15625 12.058594 16.671875 11.957031 17.222656 C 11.941406 17.308594 12.015625 17.417969 12.042969 17.519531 L 12.800781 17.519531 C 12.769531 17.105469 12.734375 16.691406 12.703125 16.246094 L 13.234375 16.246094 L 13.234375 17.339844 L 14.324219 17.339844 C 14.285156 16.925781 14.25 16.566406 14.210938 16.171875 L 14.695312 16.171875 L 14.695312 17.199219 C 14.742188 17.21875 14.773438 17.242188 14.804688 17.25 C 15.386719 17.324219 15.382812 17.3125 15.351562 16.632812 C 15.339844 16.324219 15.394531 16.007812 15.421875 15.695312 C 15.429688 15.632812 15.457031 15.554688 15.4375 15.507812 C 15.175781 14.933594 15.277344 14.351562 15.367188 13.757812 C 15.398438 13.570312 15.328125 13.363281 15.304688 13.164062 C 15.292969 13.058594 15.289062 12.949219 15.28125 12.871094 C 15.441406 12.703125 15.585938 12.550781 15.742188 12.386719 C 15.246094 12.167969 14.769531 12.152344 14.28125 12.390625 C 14.386719 12.695312 14.839844 12.679688 14.738281 13.179688 C 14.5625 13.179688 14.378906 13.1875 14.191406 13.171875 C 14.144531 13.171875 14.066406 13.105469 14.058594 13.058594 C 13.976562 12.378906 13.902344 11.699219 13.820312 10.984375 C 14.402344 10.925781 14.910156 10.875 15.414062 10.824219 C 15.449219 10.578125 15.492188 10.347656 15.503906 10.121094 C 15.503906 10.066406 15.382812 9.949219 15.320312 9.953125 C 15.070312 9.972656 14.8125 9.992188 14.570312 10.078125 C 14.269531 10.1875 14.09375 9.972656 13.886719 9.808594 C 13.925781 9.699219 13.949219 9.597656 13.996094 9.519531 C 14.042969 9.445312 14.105469 9.359375 14.171875 9.34375 C 14.542969 9.265625 14.921875 9.210938 15.292969 9.136719 C 15.367188 9.121094 15.484375 9.078125 15.496094 9.023438 C 15.636719 8.371094 16.125 8.34375 16.535156 8.175781 C 16.644531 8.132812 16.753906 8.089844 16.863281 8.042969 L 16.863281 7.914062 C 16.871094 7.476562 16.875 7.042969 16.867188 6.609375 Z M 9.367188 15.363281 C 9.09375 15.386719 8.835938 15.40625 8.539062 15.425781 L 8.539062 13.832031 C 8.824219 13.851562 9.105469 13.871094 9.367188 13.890625 Z M 10.742188 13.890625 C 10.742188 14.332031 10.753906 14.761719 10.738281 15.191406 C 10.730469 15.457031 10.539062 15.351562 10.425781 15.363281 C 10.300781 15.375 10.132812 15.433594 10.128906 15.171875 C 10.125 14.753906 10.128906 14.332031 10.128906 13.890625 Z M 10.410156 10.371094 C 10.078125 10.277344 10.179688 9.992188 10.320312 9.710938 C 10.53125 9.691406 10.761719 9.667969 11.046875 9.640625 C 11.078125 9.894531 11.109375 10.132812 11.140625 10.371094 C 10.894531 10.375 10.640625 10.4375 10.410156 10.371094 Z M 13.191406 15.511719 L 12.695312 15.511719 L 12.695312 13.820312 L 13.191406 13.820312 Z M 14.746094 13.828125 L 14.746094 15.4375 C 14.585938 15.453125 14.425781 15.464844 14.238281 15.480469 C 14.210938 14.917969 14.1875 14.40625 14.160156 13.859375 C 14.359375 13.851562 14.542969 13.839844 14.746094 13.828125 Z M 12.234375 10.257812 C 12.199219 9.5625 12.242188 9.519531 13.082031 9.445312 C 13.152344 9.550781 13.222656 9.65625 13.308594 9.785156 C 13.042969 10.265625 12.652344 10.308594 12.234375 10.257812 Z M 12.234375 10.257812 "/>
</g>
</svg>
