
<svg xmlns="http://www.w3.org/2000/svg" xmlns:xlink="http://www.w3.org/1999/xlink" width="24px" height="24px" viewBox="0 0 24 24" version="1.1">
<g id="surface1">
<path style=" stroke:none;fill-rule:nonzero;fill:rgb(62.352943%,45.490196%,70.19608%);fill-opacity:1;" d="M 11.398438 15.226562 C 11.398438 16.839844 10.089844 18.148438 8.476562 18.148438 C 6.859375 18.148438 5.550781 16.839844 5.550781 15.226562 C 5.550781 13.609375 6.859375 12.300781 8.476562 12.300781 C 10.089844 12.300781 11.398438 13.609375 11.398438 15.226562 Z M 11.398438 15.226562 "/>
<path style=" stroke:none;fill-rule:nonzero;fill:rgb(62.352943%,45.490196%,70.19608%);fill-opacity:1;" d="M 18.449219 15.226562 C 18.449219 16.839844 17.140625 18.148438 15.523438 18.148438 C 13.910156 18.148438 12.601562 16.839844 12.601562 15.226562 C 12.601562 13.609375 13.910156 12.300781 15.523438 12.300781 C 17.140625 12.300781 18.449219 13.609375 18.449219 15.226562 Z M 18.449219 15.226562 "/>
<path style=" stroke:none;fill-rule:nonzero;fill:rgb(62.352943%,45.490196%,70.19608%);fill-opacity:1;" d="M 14.925781 8.773438 C 14.925781 10.390625 13.617188 11.699219 12 11.699219 C 10.382812 11.699219 9.074219 10.390625 9.074219 8.773438 C 9.074219 7.160156 10.382812 5.851562 12 5.851562 C 13.617188 5.851562 14.925781 7.160156 14.925781 8.773438 Z M 14.925781 8.773438 "/>
</g>
</svg>
