
<svg xmlns="http://www.w3.org/2000/svg" xmlns:xlink="http://www.w3.org/1999/xlink" width="16px" height="16px" viewBox="0 0 16 16" version="1.1">
<g id="surface1">
<path style=" stroke:none;fill-rule:nonzero;fill:rgb(3.137255%,40.784314%,67.450982%);fill-opacity:1;" d="M 8.160156 13.367188 C 8.058594 13.34375 7.957031 13.308594 7.855469 13.28125 L 7.777344 13.257812 C 7.679688 13.226562 7.582031 13.195312 7.484375 13.160156 L 7.445312 13.148438 C 7.359375 13.117188 7.269531 13.085938 7.183594 13.050781 L 7.113281 13.023438 C 7.019531 12.984375 6.925781 12.945312 6.832031 12.90625 L 6.777344 12.882812 C 6.699219 12.84375 6.621094 12.808594 6.539062 12.769531 L 6.472656 12.738281 C 6.410156 12.707031 6.351562 12.675781 6.289062 12.644531 C 6.25 12.625 6.207031 12.605469 6.167969 12.582031 C 6.09375 12.542969 6.023438 12.5 5.949219 12.460938 L 5.875 12.417969 C 5.78125 12.363281 5.683594 12.304688 5.589844 12.242188 L 5.511719 12.191406 C 5.445312 12.148438 5.378906 12.101562 5.3125 12.058594 L 5.246094 12.011719 C 5.179688 11.964844 5.117188 11.917969 5.054688 11.871094 L 4.96875 11.808594 C 4.910156 11.765625 4.851562 11.71875 4.796875 11.671875 L 4.71875 11.609375 C 4.644531 11.550781 4.574219 11.492188 4.503906 11.429688 L 4.480469 11.410156 C 4.402344 11.34375 4.328125 11.273438 4.253906 11.203125 L 4.1875 11.140625 C 4.132812 11.089844 4.078125 11.039062 4.027344 10.984375 L 3.960938 10.917969 C 3.894531 10.851562 3.828125 10.78125 3.761719 10.707031 L 3.753906 10.699219 C 3.683594 10.621094 3.617188 10.542969 3.550781 10.46875 L 3.496094 10.402344 C 3.449219 10.34375 3.398438 10.285156 3.351562 10.222656 L 3.296875 10.15625 C 3.242188 10.082031 3.183594 10.007812 3.128906 9.933594 C 1.609375 7.859375 1.066406 5.003906 2.28125 2.65625 L 1.203125 4.023438 C -0.175781 6.003906 -0.00390625 8.582031 1.050781 10.6875 C 1.074219 10.738281 1.101562 10.789062 1.125 10.835938 L 1.175781 10.933594 L 1.207031 10.988281 L 1.261719 11.085938 C 1.292969 11.144531 1.328125 11.199219 1.363281 11.257812 L 1.417969 11.351562 C 1.457031 11.414062 1.496094 11.472656 1.535156 11.535156 L 1.585938 11.609375 C 1.640625 11.691406 1.695312 11.773438 1.753906 11.855469 L 1.757812 11.863281 L 1.789062 11.898438 C 1.839844 11.96875 1.890625 12.039062 1.941406 12.105469 L 2 12.179688 C 2.046875 12.238281 2.09375 12.296875 2.140625 12.351562 L 2.195312 12.417969 C 2.261719 12.496094 2.328125 12.570312 2.394531 12.644531 L 2.40625 12.65625 C 2.472656 12.730469 2.539062 12.800781 2.609375 12.871094 L 2.671875 12.933594 C 2.726562 12.988281 2.78125 13.039062 2.832031 13.09375 L 2.898438 13.15625 C 2.972656 13.222656 3.046875 13.289062 3.121094 13.355469 L 3.125 13.359375 L 3.160156 13.390625 C 3.226562 13.449219 3.292969 13.503906 3.363281 13.5625 L 3.445312 13.625 C 3.5 13.671875 3.554688 13.714844 3.613281 13.757812 L 3.703125 13.824219 C 3.761719 13.871094 3.824219 13.914062 3.890625 13.960938 L 3.957031 14.007812 L 3.976562 14.019531 C 4.035156 14.0625 4.097656 14.101562 4.15625 14.140625 L 4.238281 14.195312 C 4.332031 14.253906 4.425781 14.3125 4.519531 14.367188 L 4.601562 14.414062 C 4.671875 14.453125 4.742188 14.492188 4.8125 14.53125 C 4.851562 14.554688 4.894531 14.574219 4.933594 14.59375 C 4.984375 14.621094 5.035156 14.648438 5.085938 14.671875 L 5.121094 14.691406 L 5.183594 14.722656 C 5.261719 14.757812 5.34375 14.796875 5.425781 14.832031 L 5.476562 14.855469 C 5.570312 14.898438 5.664062 14.9375 5.761719 14.972656 L 5.828125 15 C 5.917969 15.035156 6.007812 15.066406 6.09375 15.101562 L 6.128906 15.109375 C 6.226562 15.144531 6.328125 15.175781 6.425781 15.207031 L 6.5 15.230469 C 6.601562 15.261719 6.699219 15.296875 6.804688 15.316406 C 13.472656 16.53125 15.410156 11.308594 15.410156 11.308594 C 13.785156 13.429688 10.894531 13.988281 8.160156 13.367188 Z M 5.757812 7.960938 C 5.90625 8.175781 6.074219 8.429688 6.273438 8.601562 C 6.34375 8.683594 6.417969 8.757812 6.496094 8.835938 L 6.554688 8.894531 C 6.628906 8.964844 6.703125 9.035156 6.78125 9.105469 L 6.792969 9.113281 L 6.792969 9.117188 C 6.882812 9.191406 6.96875 9.265625 7.0625 9.335938 L 7.121094 9.382812 C 7.214844 9.453125 7.304688 9.523438 7.402344 9.585938 L 7.410156 9.59375 C 7.449219 9.621094 7.492188 9.648438 7.535156 9.679688 L 7.597656 9.71875 C 7.664062 9.761719 7.734375 9.804688 7.804688 9.84375 L 7.832031 9.863281 C 7.894531 9.898438 7.953125 9.929688 8.015625 9.964844 L 8.082031 9.996094 C 8.125 10.019531 8.164062 10.042969 8.210938 10.0625 L 8.226562 10.074219 C 8.316406 10.117188 8.40625 10.15625 8.496094 10.195312 L 8.554688 10.222656 C 8.625 10.253906 8.699219 10.28125 8.773438 10.308594 L 8.867188 10.34375 C 8.933594 10.371094 9 10.390625 9.066406 10.414062 L 9.160156 10.445312 C 9.253906 10.472656 9.347656 10.511719 9.449219 10.527344 C 14.597656 11.378906 15.785156 7.417969 15.785156 7.417969 C 14.714844 8.960938 12.640625 9.695312 10.425781 9.121094 C 10.328125 9.09375 10.230469 9.066406 10.132812 9.035156 L 10.046875 9.007812 C 9.976562 8.988281 9.910156 8.964844 9.84375 8.9375 L 9.75 8.902344 C 9.675781 8.875 9.605469 8.847656 9.53125 8.816406 L 9.472656 8.789062 C 9.382812 8.75 9.292969 8.710938 9.203125 8.664062 C 9.15625 8.644531 9.113281 8.621094 9.070312 8.597656 L 8.992188 8.558594 C 8.933594 8.527344 8.875 8.492188 8.820312 8.460938 L 8.78125 8.4375 C 8.710938 8.398438 8.640625 8.355469 8.574219 8.3125 L 8.511719 8.269531 C 8.464844 8.242188 8.421875 8.210938 8.378906 8.183594 C 8.28125 8.117188 8.191406 8.046875 8.097656 7.976562 L 8.035156 7.929688 C 7.066406 7.164062 6.300781 6.117188 5.933594 4.933594 C 5.550781 3.703125 5.632812 2.324219 6.296875 1.203125 L 5.484375 2.351562 C 4.484375 3.789062 4.539062 5.707031 5.316406 7.226562 C 5.449219 7.480469 5.59375 7.726562 5.757812 7.960938 Z M 11.183594 6.1875 C 11.226562 6.203125 11.269531 6.21875 11.3125 6.230469 L 11.367188 6.25 C 11.429688 6.269531 11.488281 6.289062 11.550781 6.300781 C 14.394531 6.851562 15.164062 4.84375 15.371094 4.546875 C 14.695312 5.519531 13.558594 5.753906 12.167969 5.414062 C 12.058594 5.390625 11.9375 5.347656 11.832031 5.3125 C 11.695312 5.261719 11.5625 5.207031 11.429688 5.144531 C 11.183594 5.027344 10.949219 4.882812 10.730469 4.71875 C 9.484375 3.773438 8.707031 1.96875 9.523438 0.5 L 9.082031 1.105469 C 8.496094 1.972656 8.4375 3.046875 8.84375 4 C 9.273438 5.015625 10.15625 5.808594 11.183594 6.1875 Z M 11.183594 6.1875 "/>
</g>
</svg>
