
<svg xmlns="http://www.w3.org/2000/svg" xmlns:xlink="http://www.w3.org/1999/xlink" width="24px" height="24px" viewBox="0 0 24 24" version="1.1">
<g id="surface1">
<path style=" stroke:none;fill-rule:nonzero;fill:rgb(80.392158%,24.705882%,27.058825%);fill-opacity:1;" d="M 8.550781 7.5 L 10.574219 7.5 L 10.574219 13.199219 C 10.574219 15.75 9.375 16.648438 7.351562 16.648438 C 6.898438 16.648438 6.226562 16.574219 5.851562 16.425781 L 6.074219 14.773438 C 6.375 14.925781 6.75 15 7.125 15 C 7.949219 15 8.550781 14.625 8.550781 13.199219 Z M 12.375 14.398438 C 12.898438 14.699219 13.800781 15 14.625 15 C 15.601562 15 16.050781 14.625 16.050781 14.023438 C 16.050781 13.425781 15.601562 13.125 14.550781 12.75 C 13.050781 12.226562 12.074219 11.398438 12.074219 10.050781 C 12.074219 8.476562 13.351562 7.351562 15.523438 7.351562 C 16.574219 7.351562 17.324219 7.574219 17.851562 7.800781 L 17.398438 9.449219 C 17.023438 9.300781 16.425781 9 15.523438 9 C 14.625 9 14.175781 9.375 14.175781 9.898438 C 14.175781 10.5 14.699219 10.726562 15.824219 11.175781 C 17.398438 11.773438 18.148438 12.601562 18.148438 13.875 C 18.148438 15.375 16.949219 16.648438 14.476562 16.648438 C 13.425781 16.648438 12.449219 16.351562 11.925781 16.125 Z M 12.375 14.398438 "/>
</g>
</svg>
