
<svg xmlns="http://www.w3.org/2000/svg" xmlns:xlink="http://www.w3.org/1999/xlink" width="24px" height="24px" viewBox="0 0 24 24" version="1.1">
<g id="surface1">
<path style=" stroke:none;fill-rule:nonzero;fill:rgb(85.882354%,80.392158%,40.784314%);fill-opacity:1;" d="M 5.625 11.324219 C 6.75 11.324219 6.898438 10.726562 6.898438 10.199219 C 6.898438 9.75 6.824219 9.375 6.824219 8.925781 C 6.824219 8.476562 6.75 8.023438 6.75 7.648438 C 6.75 6.074219 7.726562 5.398438 9.300781 5.398438 L 9.898438 5.398438 L 9.898438 6.824219 L 9.601562 6.824219 C 8.851562 6.824219 8.625 7.273438 8.625 8.023438 C 8.625 8.324219 8.699219 8.625 8.699219 9 C 8.699219 9.300781 8.773438 9.675781 8.773438 10.125 C 8.773438 11.398438 8.25 11.851562 7.351562 12.074219 C 8.25 12.300781 8.773438 12.75 8.773438 14.023438 C 8.773438 14.476562 8.699219 14.851562 8.699219 15.148438 C 8.699219 15.449219 8.625 15.824219 8.625 16.050781 C 8.625 16.800781 8.851562 17.25 9.601562 17.25 L 9.898438 17.25 L 9.898438 18.675781 L 9.300781 18.675781 C 7.800781 18.675781 6.824219 18.074219 6.824219 16.425781 C 6.824219 15.976562 6.824219 15.601562 6.898438 15.148438 C 6.976562 14.699219 6.976562 14.25 6.976562 13.875 C 6.976562 13.425781 6.824219 12.75 5.699219 12.75 Z M 18.375 12.601562 C 17.25 12.601562 17.101562 13.273438 17.101562 13.726562 C 17.101562 14.175781 17.175781 14.550781 17.175781 15 C 17.25 15.449219 17.25 15.898438 17.25 16.273438 C 17.25 17.925781 16.199219 18.523438 14.699219 18.523438 L 14.101562 18.523438 L 14.101562 17.25 L 14.398438 17.25 C 15.148438 17.25 15.375 16.800781 15.375 16.050781 C 15.375 15.75 15.375 15.449219 15.300781 15.148438 C 15.300781 14.773438 15.226562 14.398438 15.226562 14.023438 C 15.226562 12.75 15.75 12.300781 16.648438 12.074219 C 15.75 11.851562 15.226562 11.398438 15.226562 10.125 C 15.226562 9.675781 15.300781 9.300781 15.300781 9 C 15.375 8.625 15.375 8.324219 15.375 8.023438 C 15.375 7.273438 15.074219 6.898438 14.398438 6.824219 L 14.101562 6.824219 L 14.101562 5.398438 L 14.699219 5.398438 C 16.273438 5.398438 17.25 6.074219 17.25 7.648438 C 17.25 8.101562 17.175781 8.476562 17.175781 8.925781 C 17.101562 9.375 17.101562 9.824219 17.101562 10.199219 C 17.101562 10.726562 17.25 11.324219 18.375 11.324219 Z M 18.375 12.601562 "/>
</g>
</svg>
