
<svg xmlns="http://www.w3.org/2000/svg" xmlns:xlink="http://www.w3.org/1999/xlink" width="16px" height="16px" viewBox="0 0 16 16" version="1.1">
<g id="surface1">
<path style=" stroke:none;fill-rule:evenodd;fill:rgb(0%,50.588238%,76.078433%);fill-opacity:1;" d="M 15.070312 3.828125 C 14.429688 3.511719 13.792969 3.1875 13.144531 2.882812 C 11.882812 2.289062 10.660156 1.617188 9.390625 1.035156 C 8.976562 0.847656 8.582031 0.628906 8.179688 0.417969 C 8.042969 0.351562 7.921875 0.347656 7.785156 0.417969 C 7.261719 0.6875 6.726562 0.9375 6.199219 1.195312 C 4.941406 1.800781 3.671875 2.453125 2.410156 3.050781 C 1.859375 3.308594 1.25 3.585938 0.75 3.851562 L 0.75 12.160156 C 0.75 12.167969 0.832031 12.167969 0.847656 12.175781 C 1.246094 12.371094 1.664062 12.5625 2.058594 12.765625 C 2.464844 12.972656 2.882812 13.164062 3.292969 13.359375 C 4.558594 13.960938 5.816406 14.605469 7.074219 15.230469 C 7.316406 15.351562 7.570312 15.457031 7.808594 15.585938 C 7.929688 15.652344 8.023438 15.644531 8.148438 15.585938 C 8.523438 15.40625 8.902344 15.230469 9.273438 15.046875 C 10.722656 14.339844 12.152344 13.601562 13.609375 12.910156 C 14.117188 12.671875 14.5 12.410156 15.125 12.148438 L 15.125 3.84375 C 15 3.835938 15.085938 3.835938 15.070312 3.828125 Z M 13.203125 11.507812 C 12.902344 11.824219 12.546875 12.0625 12.160156 12.253906 C 12.0625 12.300781 11.960938 12.359375 11.859375 12.375 C 11.699219 12.402344 11.640625 12.527344 11.566406 12.632812 C 11.441406 12.8125 11.132812 12.992188 10.921875 12.996094 C 10.863281 12.996094 10.800781 12.992188 10.742188 12.996094 C 10.511719 13.015625 10.304688 12.960938 10.097656 12.855469 C 9.8125 12.714844 9.507812 12.6875 9.191406 12.699219 C 9.023438 12.703125 8.878906 12.742188 8.742188 12.820312 C 8.554688 12.925781 8.457031 13.171875 8.496094 13.371094 C 8.507812 13.421875 8.457031 13.480469 8.425781 13.5625 C 8.359375 13.503906 8.28125 13.472656 8.28125 13.433594 C 8.257812 13.179688 8.242188 12.914062 8.425781 12.707031 C 8.671875 12.417969 8.992188 12.261719 9.371094 12.234375 C 9.46875 12.226562 9.570312 12.234375 9.667969 12.230469 C 9.902344 12.226562 10.128906 12.269531 10.359375 12.332031 C 10.550781 12.386719 10.773438 12.398438 10.964844 12.273438 C 11.035156 12.019531 10.898438 11.835938 10.714844 11.71875 C 10.519531 11.589844 10.324219 11.457031 10.082031 11.402344 C 9.910156 11.363281 9.757812 11.242188 9.589844 11.179688 C 9.417969 11.113281 9.25 11.046875 9.082031 10.984375 C 8.917969 10.925781 8.734375 10.929688 8.589844 10.824219 C 8.320312 10.835938 8.0625 10.714844 7.792969 10.765625 C 7.441406 10.832031 7.085938 10.886719 6.753906 11.023438 C 6.503906 11.125 6.246094 11.21875 6.007812 11.347656 C 5.863281 11.425781 5.699219 11.460938 5.554688 11.53125 C 5.4375 11.585938 5.328125 11.652344 5.226562 11.730469 C 5.054688 11.863281 4.9375 12.035156 4.992188 12.273438 C 5.207031 12.371094 5.417969 12.382812 5.648438 12.308594 C 5.890625 12.226562 6.152344 12.242188 6.410156 12.226562 C 6.734375 12.207031 7.015625 12.308594 7.277344 12.472656 C 7.527344 12.625 7.695312 12.847656 7.6875 13.167969 C 7.683594 13.234375 7.699219 13.304688 7.683594 13.371094 C 7.671875 13.429688 7.632812 13.480469 7.59375 13.566406 C 7.511719 13.480469 7.378906 13.460938 7.5 13.332031 C 7.421875 13.191406 7.46875 12.996094 7.3125 12.890625 C 7.175781 12.796875 7.042969 12.691406 6.863281 12.703125 C 6.753906 12.707031 6.644531 12.710938 6.539062 12.703125 C 6.289062 12.679688 6.058594 12.761719 5.847656 12.875 C 5.550781 13.027344 5.238281 12.992188 4.929688 12.996094 C 4.753906 12.898438 4.542969 12.851562 4.410156 12.6875 C 4.34375 12.601562 4.316406 12.449219 4.238281 12.421875 C 4.132812 12.382812 4.039062 12.3125 3.9375 12.296875 C 3.679688 12.257812 3.496094 12.074219 3.285156 11.960938 C 3.101562 11.863281 2.957031 11.695312 2.804688 11.550781 C 2.636719 11.394531 2.550781 11.195312 2.511719 10.96875 C 2.453125 10.628906 2.585938 10.3125 2.769531 10.121094 C 3.007812 9.867188 3.308594 9.738281 3.632812 9.617188 C 3.550781 9.460938 3.492188 9.285156 3.386719 9.144531 C 3.28125 9.011719 3.273438 8.851562 3.230469 8.707031 C 3.183594 8.546875 3.1875 8.351562 3.230469 8.183594 C 3.269531 8.023438 3.371094 7.867188 3.46875 7.730469 C 3.5625 7.605469 3.683594 7.5 3.800781 7.398438 C 3.839844 7.363281 3.902344 7.359375 3.949219 7.34375 C 4.011719 7.433594 3.992188 7.496094 3.929688 7.558594 C 3.863281 7.625 3.808594 7.703125 3.75 7.777344 C 3.578125 7.984375 3.632812 8.230469 3.636719 8.460938 C 3.636719 8.613281 3.726562 8.738281 3.8125 8.859375 C 3.976562 9.089844 4.144531 9.308594 4.425781 9.421875 C 4.578125 9.484375 4.71875 9.535156 4.882812 9.53125 C 5.027344 9.527344 5.171875 9.527344 5.390625 9.527344 C 5.261719 9.472656 5.199219 9.445312 5.132812 9.414062 C 4.6875 9.207031 4.457031 8.855469 4.453125 8.382812 C 4.453125 8.21875 4.472656 8.050781 4.449219 7.886719 C 4.429688 7.746094 4.511719 7.632812 4.515625 7.5 C 4.519531 7.378906 4.460938 7.246094 4.574219 7.140625 C 4.542969 6.914062 4.628906 6.679688 4.527344 6.453125 C 4.472656 6.335938 4.519531 6.203125 4.464844 6.070312 C 4.363281 5.8125 4.289062 5.558594 3.953125 5.527344 C 3.917969 5.523438 3.886719 5.464844 3.855469 5.433594 C 3.914062 5.308594 3.976562 5.28125 4.105469 5.324219 C 4.445312 5.429688 4.648438 5.660156 4.8125 5.960938 C 4.988281 6.285156 5.046875 6.632812 5.109375 6.988281 C 5.175781 7.34375 5.136719 7.695312 5.164062 8.050781 C 5.171875 8.167969 5.203125 8.285156 5.238281 8.398438 C 5.273438 8.511719 5.339844 8.574219 5.453125 8.585938 C 5.617188 8.601562 5.75 8.59375 5.875 8.441406 L 5.875 8.144531 C 5.75 8.082031 5.757812 7.929688 5.582031 7.933594 C 5.515625 7.9375 5.496094 7.839844 5.5 7.75 C 5.503906 7.496094 5.523438 7.238281 5.503906 6.988281 C 5.476562 6.714844 5.542969 6.449219 5.582031 6.191406 C 5.621094 5.960938 5.648438 5.722656 5.742188 5.496094 C 5.828125 5.285156 5.84375 5.046875 5.929688 4.839844 C 6.082031 4.449219 6.257812 4.070312 6.472656 3.710938 C 6.59375 3.503906 6.761719 3.328125 6.863281 3.109375 C 6.871094 3.09375 6.882812 3.078125 6.894531 3.066406 C 7.046875 2.894531 7.191406 2.710938 7.355469 2.550781 C 7.550781 2.355469 7.761719 2.179688 7.976562 1.988281 C 8.199219 2.1875 8.433594 2.359375 8.625 2.570312 C 9.140625 3.144531 9.597656 3.765625 9.886719 4.484375 C 10.023438 4.816406 10.152344 5.15625 10.222656 5.523438 C 10.285156 5.851562 10.347656 6.175781 10.402344 6.503906 C 10.472656 6.933594 10.417969 7.355469 10.449219 7.777344 C 10.457031 7.859375 10.382812 7.9375 10.339844 7.933594 C 10.164062 7.921875 10.125 8.082031 10 8.144531 L 10 8.445312 C 10.125 8.558594 10.25 8.597656 10.402344 8.59375 C 10.585938 8.585938 10.6875 8.488281 10.738281 8.296875 C 10.792969 8.089844 10.8125 7.878906 10.792969 7.675781 C 10.765625 7.371094 10.828125 7.078125 10.867188 6.789062 C 10.914062 6.449219 11.03125 6.117188 11.210938 5.816406 C 11.332031 5.617188 11.6875 5.34375 11.898438 5.300781 C 11.988281 5.28125 12.066406 5.3125 12.101562 5.441406 C 12.066406 5.46875 12.027344 5.523438 11.980469 5.53125 C 11.6875 5.558594 11.597656 5.789062 11.511719 6.011719 C 11.460938 6.132812 11.472656 6.277344 11.4375 6.394531 C 11.375 6.597656 11.394531 6.792969 11.394531 6.992188 C 11.394531 7.109375 11.425781 7.230469 11.449219 7.347656 C 11.46875 7.457031 11.398438 7.578125 11.5 7.679688 C 11.527344 7.707031 11.507812 7.773438 11.507812 7.824219 C 11.507812 8.007812 11.503906 8.195312 11.507812 8.382812 C 11.519531 8.847656 11.195312 9.363281 10.632812 9.507812 C 10.980469 9.535156 11.324219 9.5625 11.65625 9.363281 C 11.976562 9.164062 12.148438 8.859375 12.328125 8.554688 C 12.335938 8.203125 12.382812 7.839844 12.054688 7.582031 C 11.984375 7.527344 11.964844 7.464844 11.988281 7.347656 C 12.046875 7.359375 12.113281 7.347656 12.136719 7.375 C 12.316406 7.566406 12.554688 7.714844 12.640625 7.988281 C 12.664062 8.0625 12.738281 8.136719 12.734375 8.207031 C 12.726562 8.398438 12.765625 8.585938 12.707031 8.78125 C 12.664062 8.929688 12.617188 9.078125 12.550781 9.214844 C 12.488281 9.347656 12.402344 9.46875 12.324219 9.601562 C 12.4375 9.65625 12.542969 9.726562 12.660156 9.761719 C 12.90625 9.835938 13.078125 10.007812 13.25 10.183594 C 13.417969 10.359375 13.441406 10.59375 13.503906 10.8125 C 13.414062 11.046875 13.394531 11.3125 13.203125 11.507812 Z M 4.058594 10.527344 C 3.964844 10.535156 3.863281 10.523438 3.765625 10.53125 C 3.609375 10.542969 3.460938 10.597656 3.332031 10.683594 C 3.203125 10.773438 3.191406 10.851562 3.253906 11.003906 C 3.316406 11.152344 3.40625 11.277344 3.523438 11.394531 C 3.730469 11.597656 3.945312 11.789062 4.199219 11.929688 C 4.289062 11.429688 4.570312 11.066406 4.996094 10.796875 C 4.921875 10.761719 4.863281 10.734375 4.808594 10.703125 C 4.578125 10.570312 4.332031 10.503906 4.058594 10.527344 Z M 12.652344 10.703125 C 12.578125 10.640625 12.304688 10.53125 12.195312 10.527344 C 12.058594 10.527344 11.921875 10.539062 11.785156 10.527344 C 11.578125 10.507812 11.402344 10.589844 11.222656 10.664062 C 11.140625 10.703125 11.0625 10.746094 10.964844 10.796875 C 11.390625 11.066406 11.671875 11.429688 11.765625 11.941406 C 11.878906 11.859375 11.996094 11.789062 12.09375 11.703125 C 12.277344 11.542969 12.453125 11.375 12.621094 11.203125 C 12.675781 11.144531 12.695312 11.058594 12.726562 10.984375 C 12.769531 10.875 12.742188 10.785156 12.652344 10.703125 Z M 7.089844 7.882812 C 6.957031 7.886719 6.917969 7.945312 6.921875 8.121094 C 6.929688 8.253906 6.984375 8.304688 7.121094 8.296875 C 7.230469 8.289062 7.347656 8.167969 7.335938 8.074219 C 7.324219 7.980469 7.195312 7.882812 7.089844 7.882812 Z M 8.878906 7.882812 C 8.753906 7.878906 8.621094 7.992188 8.628906 8.097656 C 8.632812 8.195312 8.753906 8.296875 8.867188 8.296875 C 8.996094 8.296875 9.039062 8.246094 9.039062 8.097656 C 9.039062 7.941406 9.003906 7.890625 8.878906 7.882812 Z M 8.878906 7.882812 "/>
</g>
</svg>
