
<svg xmlns="http://www.w3.org/2000/svg" xmlns:xlink="http://www.w3.org/1999/xlink" width="16px" height="16px" viewBox="0 0 16 16" version="1.1">
<g id="surface1">
<path style=" stroke:none;fill-rule:evenodd;fill:rgb(99.215686%,30.980393%,19.215687%);fill-opacity:1;" d="M 2.117188 0.214844 C 1.976562 0.226562 1.835938 0.222656 1.699219 0.261719 C 1.402344 0.34375 1.136719 0.472656 0.902344 0.675781 C 0.765625 0.792969 0.644531 0.921875 0.542969 1.074219 C 0.386719 1.304688 0.28125 1.554688 0.226562 1.835938 C 0.246094 1.875 0.269531 1.914062 0.292969 1.953125 C 0.445312 2.207031 0.597656 2.460938 0.753906 2.714844 L 1.152344 3.382812 C 1.277344 3.589844 1.398438 3.792969 1.523438 4 L 2.097656 4.960938 C 2.230469 5.179688 2.363281 5.398438 2.492188 5.617188 C 2.683594 5.933594 2.875 6.253906 3.066406 6.570312 L 3.765625 7.742188 C 3.96875 8.078125 4.171875 8.417969 4.375 8.753906 L 4.402344 8.792969 C 4.429688 8.804688 4.453125 8.792969 4.476562 8.789062 C 4.746094 8.726562 5.011719 8.660156 5.277344 8.597656 C 5.710938 8.496094 6.144531 8.390625 6.574219 8.289062 L 7.253906 8.125 C 7.691406 8.019531 8.128906 7.917969 8.566406 7.8125 C 9.007812 7.707031 9.449219 7.601562 9.890625 7.496094 C 10.117188 7.441406 10.339844 7.386719 10.5625 7.335938 C 10.996094 7.230469 11.429688 7.128906 11.859375 7.023438 L 13.273438 6.6875 L 13.351562 6.667969 L 13.328125 6.625 L 12.945312 6.082031 L 12.5625 5.542969 L 12.15625 4.964844 L 11.765625 4.414062 L 11.378906 3.871094 L 10.980469 3.304688 C 10.851562 3.121094 10.71875 2.9375 10.589844 2.753906 L 10.382812 2.464844 C 10.351562 2.417969 10.328125 2.371094 10.3125 2.320312 C 10.269531 2.191406 10.316406 2.109375 10.390625 2.046875 C 10.4375 2.007812 10.492188 1.976562 10.554688 1.960938 C 10.636719 1.933594 10.71875 1.910156 10.804688 1.894531 C 10.972656 1.863281 11.144531 1.835938 11.316406 1.808594 L 11.894531 1.714844 C 12.015625 1.695312 12.136719 1.671875 12.257812 1.652344 C 12.425781 1.625 12.589844 1.59375 12.757812 1.566406 C 12.917969 1.539062 13.078125 1.515625 13.238281 1.488281 L 13.765625 1.402344 L 14.128906 1.339844 C 14.269531 1.316406 14.410156 1.292969 14.546875 1.269531 C 14.722656 1.242188 14.894531 1.214844 15.066406 1.1875 C 15.171875 1.171875 15.273438 1.164062 15.375 1.195312 C 15.453125 1.21875 15.523438 1.253906 15.589844 1.300781 L 15.679688 1.363281 C 15.6875 1.339844 15.675781 1.328125 15.667969 1.316406 C 15.539062 1.054688 15.359375 0.828125 15.136719 0.640625 C 14.925781 0.464844 14.691406 0.335938 14.429688 0.253906 C 14.277344 0.207031 14.121094 0.226562 13.960938 0.214844 M 6.960938 15.875 C 6.953125 15.875 6.945312 15.820312 6.9375 15.804688 C 6.75 15.484375 6.5625 15.140625 6.375 14.820312 C 6.140625 14.414062 5.910156 14.007812 5.679688 13.601562 C 5.433594 13.167969 5.191406 12.730469 4.949219 12.296875 C 4.714844 11.882812 4.484375 11.464844 4.253906 11.050781 C 4.113281 10.800781 3.976562 10.550781 3.835938 10.300781 L 3.800781 10.242188 L 3.734375 10.253906 C 3.597656 10.289062 3.464844 10.324219 3.332031 10.359375 C 3.144531 10.410156 2.957031 10.457031 2.773438 10.507812 C 2.355469 10.617188 1.933594 10.726562 1.515625 10.832031 C 1.089844 10.945312 0.648438 11.054688 0.222656 11.164062 C 0.195312 11.171875 0.25 11.171875 0.125 11.175781 L 0.125 13.820312 C 0.175781 13.902344 0.171875 13.863281 0.175781 13.890625 C 0.183594 13.96875 0.199219 14.046875 0.214844 14.125 C 0.265625 14.414062 0.382812 14.679688 0.550781 14.917969 C 0.796875 15.273438 1.121094 15.523438 1.523438 15.679688 C 1.664062 15.734375 1.816406 15.773438 1.96875 15.792969 L 2.125 15.832031 "/>
<path style=" stroke:none;fill-rule:evenodd;fill:rgb(99.215686%,30.980393%,19.215687%);fill-opacity:1;" d="M 0.621094 9.71875 C 1.113281 9.601562 1.605469 9.484375 2.097656 9.367188 C 2.316406 9.316406 2.53125 9.265625 2.75 9.214844 C 2.855469 9.1875 2.964844 9.164062 3.070312 9.132812 C 3.167969 9.109375 3.179688 9.078125 3.128906 8.992188 C 3.058594 8.867188 2.988281 8.742188 2.914062 8.617188 L 1.648438 6.4375 C 1.433594 6.070312 1.21875 5.699219 1.003906 5.328125 C 0.820312 5.011719 0.636719 4.695312 0.453125 4.378906 C 0.375 4.242188 0.277344 4.105469 0.199219 3.96875 C 0.183594 3.945312 0.25 3.914062 0.125 3.902344 L 0.125 9.828125 C 0.125 9.824219 0.179688 9.820312 0.199219 9.8125 Z M 15.777344 13.953125 C 15.585938 14.019531 15.390625 14.089844 15.199219 14.160156 C 14.757812 14.316406 14.320312 14.472656 13.882812 14.632812 C 13.636719 14.71875 13.394531 14.808594 13.148438 14.894531 C 12.652344 15.074219 12.152344 15.25 11.65625 15.425781 C 11.367188 15.53125 11.078125 15.65625 10.789062 15.761719 C 10.710938 15.789062 10.632812 15.875 10.554688 15.875 L 13.867188 15.875 L 13.9375 15.835938 C 14.019531 15.832031 14.105469 15.804688 14.1875 15.789062 C 14.527344 15.726562 14.832031 15.582031 15.101562 15.367188 C 15.308594 15.203125 15.476562 15 15.609375 14.769531 C 15.746094 14.53125 15.824219 14.277344 15.863281 14.007812 C 15.867188 13.984375 15.875 13.957031 15.855469 13.933594 C 15.828125 13.929688 15.804688 13.945312 15.777344 13.953125 Z M 15.492188 9.507812 C 15.347656 9.304688 15.203125 9.105469 15.054688 8.90625 C 14.855469 8.632812 14.652344 8.355469 14.453125 8.078125 C 14.371094 7.96875 14.289062 7.855469 14.207031 7.742188 C 14.183594 7.707031 14.15625 7.699219 14.121094 7.710938 L 14.097656 7.714844 C 13.730469 7.804688 13.359375 7.894531 12.988281 7.984375 L 12.328125 8.144531 C 11.894531 8.25 11.460938 8.355469 11.03125 8.460938 C 10.601562 8.566406 10.175781 8.667969 9.746094 8.773438 L 8.414062 9.09375 C 7.976562 9.199219 7.539062 9.308594 7.105469 9.414062 L 5.835938 9.722656 C 5.613281 9.777344 5.390625 9.828125 5.167969 9.882812 C 5.132812 9.890625 5.097656 9.894531 5.0625 9.921875 L 5.09375 9.976562 C 5.28125 10.300781 5.46875 10.625 5.65625 10.945312 C 5.867188 11.3125 6.078125 11.679688 6.292969 12.042969 C 6.527344 12.445312 6.761719 12.847656 6.996094 13.25 C 7.132812 13.480469 7.265625 13.710938 7.402344 13.941406 C 7.550781 14.195312 7.703125 14.449219 7.859375 14.703125 C 7.902344 14.78125 7.957031 14.851562 8.007812 14.925781 C 8.042969 14.972656 8.089844 15.011719 8.140625 15.042969 C 8.191406 15.074219 8.25 15.085938 8.3125 15.070312 C 8.34375 15.066406 8.371094 15.054688 8.402344 15.042969 L 8.515625 15.003906 C 8.917969 14.863281 9.324219 14.726562 9.726562 14.589844 C 10.042969 14.480469 10.359375 14.375 10.675781 14.265625 C 10.988281 14.160156 11.304688 14.054688 11.617188 13.949219 L 12.550781 13.632812 C 12.871094 13.527344 13.1875 13.417969 13.507812 13.308594 C 13.898438 13.179688 14.289062 13.042969 14.679688 12.914062 C 15.054688 12.785156 15.433594 12.65625 15.808594 12.53125 C 15.832031 12.523438 15.859375 12.519531 15.878906 12.496094 L 15.878906 12.441406 C 15.878906 11.65625 15.878906 10.875 15.882812 10.09375 C 15.882812 10.050781 15.871094 10.019531 15.84375 9.984375 C 15.726562 9.824219 15.609375 9.664062 15.492188 9.507812 Z M 15.429688 2.140625 C 15.339844 2.027344 15.230469 1.992188 15.09375 2.027344 C 15.03125 2.042969 14.972656 2.054688 14.910156 2.066406 C 14.710938 2.101562 14.511719 2.136719 14.3125 2.171875 C 14.019531 2.226562 13.730469 2.28125 13.4375 2.332031 C 13.207031 2.375 12.976562 2.414062 12.746094 2.457031 L 11.816406 2.617188 C 11.777344 2.625 11.738281 2.632812 11.703125 2.644531 C 11.648438 2.660156 11.632812 2.695312 11.65625 2.746094 C 11.675781 2.789062 11.703125 2.828125 11.730469 2.867188 C 11.921875 3.128906 12.113281 3.394531 12.304688 3.65625 C 12.570312 4.019531 12.835938 4.382812 13.101562 4.75 C 13.328125 5.054688 13.554688 5.363281 13.777344 5.671875 C 13.953125 5.910156 14.132812 6.152344 14.308594 6.394531 L 14.34375 6.4375 L 15.875 6.058594 L 15.878906 5.976562 C 15.878906 4.914062 15.878906 3.851562 15.882812 2.785156 C 15.882812 2.738281 15.871094 2.703125 15.839844 2.664062 C 15.710938 2.5 15.585938 2.335938 15.457031 2.171875 Z M 15.839844 7.292969 C 15.609375 7.351562 15.375 7.402344 15.140625 7.464844 C 15.164062 7.511719 15.816406 8.390625 15.855469 8.433594 L 15.878906 8.445312 L 15.878906 8.019531 C 15.878906 7.804688 15.878906 7.589844 15.878906 7.375 C 15.878906 7.351562 15.886719 7.320312 15.871094 7.296875 Z M 15.839844 7.292969 "/>
</g>
</svg>
