
<svg xmlns="http://www.w3.org/2000/svg" xmlns:xlink="http://www.w3.org/1999/xlink" width="24px" height="24px" viewBox="0 0 24 24" version="1.1">
<g id="surface1">
<path style=" stroke:none;fill-rule:nonzero;fill:rgb(85.882354%,80.392158%,40.784314%);fill-opacity:1;" d="M 14.023438 9.601562 C 13.875 7.949219 12.601562 6.824219 10.875 6.75 L 9.75 6.75 C 9.675781 5.773438 10.050781 4.425781 11.625 4.273438 C 12.300781 4.199219 12.898438 4.351562 13.425781 4.875 C 13.875 5.398438 14.023438 6 14.023438 6.675781 C 14.023438 6.75 14.023438 6.898438 14.101562 6.976562 L 14.773438 7.648438 C 15 6.976562 15 6.300781 14.851562 5.625 C 14.476562 4.273438 13.351562 3.449219 11.925781 3.375 C 11.101562 3.375 10.351562 3.523438 9.75 4.125 C 8.699219 5.101562 8.324219 7.273438 9.824219 8.699219 C 10.050781 8.925781 10.351562 9.074219 10.648438 9.226562 C 11.023438 9.375 11.324219 9.074219 11.324219 8.773438 C 11.324219 8.476562 11.175781 8.25 10.800781 8.175781 C 10.726562 8.175781 10.648438 8.101562 10.574219 8.023438 L 10.574219 7.949219 C 10.875 7.875 11.25 7.949219 11.476562 8.175781 C 11.699219 8.398438 11.773438 8.699219 11.699219 9.074219 C 11.550781 9.601562 11.101562 9.824219 10.5 9.675781 C 9.675781 9.449219 9.148438 8.925781 8.773438 8.175781 C 8.699219 7.949219 8.550781 7.726562 8.476562 7.5 C 7.949219 8.023438 7.5 8.550781 7.351562 9.300781 C 7.050781 10.648438 7.425781 11.773438 8.398438 12.675781 C 8.476562 12.75 8.550781 12.824219 8.476562 12.976562 C 8.398438 13.574219 8.324219 14.101562 8.175781 14.699219 C 7.949219 15.976562 7.800781 17.175781 7.574219 18.449219 C 7.5 18.824219 7.5 19.273438 7.574219 19.648438 C 7.648438 19.949219 7.800781 20.175781 8.175781 20.324219 C 8.25 20.023438 8.25 19.726562 8.324219 19.425781 C 8.550781 18.148438 8.699219 16.949219 8.925781 15.675781 C 9.074219 14.925781 9.148438 14.101562 9.300781 13.351562 C 9.300781 13.199219 9.375 13.125 9.523438 13.125 C 9.675781 13.125 9.675781 13.273438 9.675781 13.425781 C 9.601562 14.175781 9.449219 14.925781 9.300781 15.601562 C 9.074219 17.175781 8.773438 18.75 8.550781 20.324219 C 8.550781 20.398438 8.625 20.476562 8.625 20.476562 C 9 20.476562 9.300781 20.550781 9.675781 20.550781 C 10.050781 20.550781 10.351562 20.25 10.574219 19.949219 C 10.800781 19.726562 10.800781 19.425781 10.648438 19.125 C 10.574219 19.050781 10.5 18.976562 10.5 18.898438 C 10.273438 18.601562 10.351562 18.375 10.648438 18.226562 C 10.726562 18.148438 10.875 18.148438 10.949219 18.074219 C 11.101562 18 11.175781 17.773438 11.023438 17.625 C 10.800781 17.398438 10.648438 17.175781 10.425781 17.023438 C 10.273438 16.875 10.351562 16.574219 10.5 16.5 C 10.726562 16.351562 11.023438 16.273438 11.25 16.125 C 11.398438 16.050781 11.476562 15.898438 11.324219 15.75 C 11.25 15.675781 11.175781 15.601562 11.101562 15.449219 C 10.875 15.226562 10.949219 14.851562 11.175781 14.699219 C 11.25 14.625 11.324219 14.550781 11.476562 14.550781 C 11.625 14.476562 11.699219 14.398438 11.699219 14.25 C 11.699219 14.023438 11.773438 13.800781 11.773438 13.574219 C 11.773438 13.5 11.851562 13.351562 11.925781 13.273438 C 12.148438 13.050781 12.449219 12.898438 12.75 12.75 C 13.800781 12 14.175781 10.875 14.023438 9.601562 Z M 16.726562 18.148438 C 16.726562 18 16.648438 17.851562 16.425781 17.851562 C 16.273438 17.851562 16.050781 17.851562 15.976562 17.625 C 15.898438 17.398438 15.898438 17.175781 15.976562 16.949219 C 16.125 16.648438 16.050781 16.425781 15.675781 16.351562 C 15.523438 16.351562 15.375 16.273438 15.148438 16.273438 C 15 16.273438 14.925781 16.199219 14.925781 16.050781 C 14.925781 15.898438 14.851562 15.75 14.851562 15.601562 C 14.851562 15.375 15 15.226562 15.148438 15.074219 C 15.300781 14.851562 15.300781 14.773438 15.074219 14.625 C 15 14.550781 14.851562 14.476562 14.773438 14.398438 C 14.476562 14.25 14.476562 14.101562 14.625 13.800781 C 14.699219 13.726562 14.773438 13.648438 14.773438 13.574219 C 14.925781 13.425781 14.925781 13.273438 14.851562 13.125 C 14.773438 12.976562 14.699219 12.75 14.550781 12.601562 C 14.476562 12.449219 14.476562 12.300781 14.550781 12.148438 C 15.148438 10.949219 15.300781 9.75 14.773438 8.476562 C 14.398438 7.648438 13.726562 7.125 12.824219 6.898438 L 12.75 6.976562 C 12.824219 7.050781 12.898438 7.199219 12.976562 7.273438 C 13.875 8.023438 14.398438 9 14.398438 10.199219 C 14.398438 11.476562 13.875 12.523438 12.75 13.351562 C 12.601562 13.425781 12.523438 13.574219 12.601562 13.726562 C 12.898438 14.476562 13.125 15.148438 13.425781 15.898438 C 14.023438 17.324219 14.625 18.675781 15.226562 20.101562 C 15.300781 20.175781 15.300781 20.25 15.449219 20.25 C 16.351562 19.800781 16.875 18.976562 16.726562 18.148438 Z M 12.226562 13.726562 C 12.148438 14.023438 12.148438 14.25 12.074219 14.476562 C 12.074219 14.625 12 14.773438 12.074219 14.925781 C 12.601562 16.199219 13.125 17.550781 13.648438 18.824219 C 13.800781 19.199219 14.023438 19.574219 14.398438 19.875 C 14.550781 19.949219 14.699219 20.023438 14.773438 20.101562 L 14.851562 20.023438 C 14.023438 17.925781 13.125 15.824219 12.226562 13.726562 Z M 12.226562 13.726562 "/>
</g>
</svg>
