
<svg xmlns="http://www.w3.org/2000/svg" xmlns:xlink="http://www.w3.org/1999/xlink" width="16px" height="16px" viewBox="0 0 16 16" version="1.1">
<g id="surface1">
<path style=" stroke:none;fill-rule:nonzero;fill:rgb(0%,0%,0%);fill-opacity:1;" d="M 14.5 0.375 L 1.5 0.375 C 0.886719 0.367188 0.382812 0.859375 0.375 1.476562 L 0.375 14.527344 C 0.382812 15.140625 0.886719 15.632812 1.5 15.625 L 14.5 15.625 C 15.113281 15.628906 15.617188 15.136719 15.625 14.523438 L 15.625 1.472656 C 15.613281 0.859375 15.113281 0.371094 14.5 0.375 Z M 4.894531 13.375 L 2.632812 13.375 L 2.632812 6.089844 L 4.894531 6.089844 Z M 3.769531 5.097656 C 3.046875 5.097656 2.457031 4.511719 2.457031 3.785156 C 2.457031 3.0625 3.042969 2.472656 3.769531 2.472656 C 4.496094 2.472656 5.082031 3.0625 5.082031 3.785156 C 5.082031 4.136719 4.941406 4.46875 4.695312 4.714844 C 4.449219 4.960938 4.113281 5.097656 3.765625 5.097656 Z M 13.375 13.375 L 11.109375 13.375 L 11.109375 9.832031 C 11.109375 8.988281 11.097656 7.902344 9.933594 7.902344 C 8.773438 7.902344 8.578125 8.820312 8.578125 9.777344 L 8.578125 13.375 L 6.316406 13.375 L 6.316406 6.089844 L 8.484375 6.089844 L 8.484375 7.089844 L 8.515625 7.089844 C 8.820312 6.519531 9.554688 5.914062 10.65625 5.914062 C 12.949219 5.910156 13.375 7.417969 13.375 9.375 Z M 13.375 13.375 "/>
</g>
</svg>
