
<svg xmlns="http://www.w3.org/2000/svg" xmlns:xlink="http://www.w3.org/1999/xlink" width="16px" height="16px" viewBox="0 0 16 16" version="1.1">
<g id="surface1">
<path style=" stroke:none;fill-rule:evenodd;fill:rgb(0%,0%,0%);fill-opacity:1;" d="M 14.226562 13.074219 C 14.003906 12.890625 13.773438 12.710938 13.5625 12.507812 C 13.332031 12.285156 13.183594 12.015625 13.214844 11.675781 C 13.234375 11.476562 13.1875 11.308594 12.953125 11.242188 C 13.007812 11.097656 13.058594 11 13.082031 10.898438 C 13.105469 10.785156 13.101562 10.664062 13.105469 10.542969 C 13.140625 9.300781 12.691406 8.207031 12.023438 7.191406 C 11.714844 6.722656 11.394531 6.261719 11.070312 5.804688 C 10.558594 5.09375 10.375 4.296875 10.363281 3.433594 C 10.359375 3.039062 10.3125 2.636719 10.230469 2.25 C 10.066406 1.496094 9.660156 0.902344 8.929688 0.585938 C 8.367188 0.34375 7.785156 0.296875 7.191406 0.453125 C 6.328125 0.675781 5.804688 1.320312 5.816406 2.214844 C 5.824219 3.074219 5.867188 3.933594 5.929688 4.792969 C 5.96875 5.28125 5.890625 5.699219 5.570312 6.085938 C 5.257812 6.457031 4.980469 6.859375 4.710938 7.261719 C 4.558594 7.492188 4.421875 7.742188 4.328125 8.003906 C 4.070312 8.710938 3.832031 9.425781 3.417969 10.066406 C 3.265625 10.300781 3.246094 10.566406 3.355469 10.839844 C 3.382812 10.910156 3.402344 11.019531 3.367188 11.074219 C 3.074219 11.5625 2.742188 11.992188 2.109375 12.085938 C 1.613281 12.160156 1.585938 12.25 1.601562 12.761719 C 1.613281 13.179688 1.609375 13.601562 1.566406 14.015625 C 1.523438 14.460938 1.570312 14.582031 1.996094 14.6875 C 2.988281 14.933594 3.988281 15.144531 4.933594 15.542969 C 5.335938 15.714844 5.742188 15.65625 6.066406 15.324219 C 6.40625 14.976562 6.835938 14.84375 7.296875 14.84375 C 8.082031 14.839844 8.867188 14.878906 9.65625 14.886719 C 9.867188 14.890625 9.988281 14.96875 10.074219 15.164062 C 10.179688 15.398438 10.359375 15.574219 10.632812 15.605469 C 11.15625 15.660156 11.632812 15.582031 12.03125 15.183594 C 12.519531 14.691406 13.085938 14.300781 13.730469 14.03125 C 13.917969 13.953125 14.089844 13.832031 14.246094 13.699219 C 14.523438 13.460938 14.507812 13.304688 14.226562 13.074219 Z M 7.804688 3.015625 C 7.898438 2.691406 8.121094 2.480469 8.457031 2.414062 C 8.742188 2.359375 8.984375 2.5 9.164062 2.820312 C 9.355469 3.164062 9.421875 3.527344 9.253906 3.902344 C 9.121094 4.210938 9.054688 4.242188 8.738281 4.136719 C 8.679688 4.117188 8.621094 4.09375 8.519531 4.054688 C 8.605469 3.980469 8.660156 3.925781 8.726562 3.882812 C 8.867188 3.785156 8.90625 3.648438 8.894531 3.488281 C 8.875 3.277344 8.710938 3.089844 8.539062 3.089844 C 8.386719 3.09375 8.257812 3.238281 8.238281 3.457031 C 8.230469 3.59375 8.25 3.730469 8.261719 3.90625 C 7.832031 3.777344 7.671875 3.464844 7.804688 3.015625 Z M 6.210938 2.734375 C 6.367188 2.492188 6.609375 2.445312 6.847656 2.605469 C 7.101562 2.777344 7.289062 3.261719 7.191406 3.550781 C 7.15625 3.65625 7.050781 3.738281 6.976562 3.832031 L 6.902344 3.785156 C 6.875 3.628906 6.867188 3.460938 6.808594 3.320312 C 6.769531 3.226562 6.652344 3.171875 6.566406 3.097656 C 6.492188 3.191406 6.355469 3.28125 6.347656 3.378906 C 6.335938 3.511719 6.40625 3.664062 6.46875 3.792969 C 6.507812 3.875 6.59375 3.9375 6.683594 4.035156 L 6.445312 4.222656 C 6.066406 3.882812 5.953125 3.121094 6.210938 2.734375 Z M 10.917969 10.757812 C 10.890625 11.085938 10.855469 11.097656 10.527344 11.148438 C 10.296875 11.179688 10.234375 11.242188 10.222656 11.515625 C 10.207031 11.839844 10.207031 12.164062 10.21875 12.484375 C 10.226562 12.707031 10.152344 12.882812 10 13.035156 C 9.15625 13.890625 8.144531 14.296875 6.9375 14.152344 C 6.414062 14.085938 6.074219 13.769531 5.800781 13.320312 C 5.921875 13.277344 6.011719 13.246094 6.101562 13.210938 C 6.492188 13.050781 6.5625 12.714844 6.253906 12.425781 C 6.015625 12.207031 5.753906 12.015625 5.5 11.8125 C 5.257812 11.617188 5.007812 11.429688 4.765625 11.234375 C 4.554688 11.070312 4.476562 10.855469 4.472656 10.585938 C 4.460938 9.9375 4.59375 9.332031 4.863281 8.742188 C 5.105469 8.214844 5.292969 7.664062 5.519531 7.132812 C 5.636719 6.855469 5.757812 6.574219 5.929688 6.332031 C 6.09375 6.101562 6.195312 5.875 6.175781 5.589844 C 6.167969 5.433594 6.175781 5.269531 6.175781 5.109375 L 6.261719 5.066406 C 6.40625 5.191406 6.550781 5.308594 6.691406 5.4375 C 7.195312 5.890625 7.679688 5.914062 8.230469 5.519531 C 8.46875 5.351562 8.722656 5.210938 8.972656 5.0625 C 9.035156 5.027344 9.109375 5.011719 9.214844 4.972656 C 9.484375 5.605469 9.746094 6.226562 10.011719 6.847656 C 10.144531 7.164062 10.253906 7.492188 10.417969 7.789062 C 10.753906 8.386719 10.929688 9.015625 10.925781 9.699219 C 10.925781 10.054688 10.945312 10.40625 10.917969 10.757812 Z M 10.917969 10.757812 "/>
</g>
</svg>
