
<svg xmlns="http://www.w3.org/2000/svg" xmlns:xlink="http://www.w3.org/1999/xlink" width="24px" height="24px" viewBox="0 0 24 24" version="1.1">
<g id="surface1">
<path style=" stroke:none;fill-rule:nonzero;fill:rgb(0%,0%,0%);fill-opacity:1;" d="M 13.574219 14.101562 C 13.574219 14.476562 13.5 14.925781 13.5 15.300781 C 13.425781 16.5 13.351562 17.699219 13.351562 18.898438 L 13.351562 19.425781 C 13.351562 19.5 13.351562 19.5 13.273438 19.5 L 11.023438 19.050781 C 10.648438 18.976562 10.351562 18.976562 9.976562 18.898438 C 9.601562 18.824219 9.300781 18.75 9 18.75 C 8.023438 18.601562 7.050781 18.375 6.074219 18.226562 C 5.699219 18.074219 5.25 18 4.875 17.925781 C 4.800781 17.925781 4.800781 17.851562 4.800781 17.773438 C 4.949219 16.949219 5.023438 16.050781 5.101562 15.226562 C 5.101562 15.074219 5.175781 14.851562 5.175781 14.699219 C 5.25 14.625 5.175781 14.550781 5.25 14.398438 C 5.324219 14.023438 5.324219 13.648438 5.398438 13.199219 C 5.476562 12.824219 5.550781 12.449219 5.550781 12 C 5.699219 11.023438 5.851562 9.976562 5.925781 9 C 5.925781 8.773438 6.074219 8.625 6.226562 8.550781 L 7.574219 8.101562 C 7.648438 8.101562 7.726562 8.023438 7.726562 7.875 C 7.875 7.050781 8.25 6.300781 8.699219 5.625 C 9 5.175781 9.375 4.800781 9.824219 4.574219 C 10.125 4.574219 10.351562 4.5 10.648438 4.5 C 11.023438 4.5 11.324219 4.574219 11.550781 4.875 C 11.625 4.949219 11.625 4.949219 11.699219 4.949219 C 12.074219 4.949219 12.449219 5.101562 12.675781 5.398438 C 12.898438 5.699219 13.050781 6 13.199219 6.300781 C 13.199219 6.375 13.273438 6.375 13.351562 6.375 C 13.5 6.300781 13.574219 6.300781 13.726562 6.226562 C 13.875 6.226562 13.875 6.226562 13.875 6.375 C 13.875 7.050781 13.800781 7.648438 13.800781 8.324219 C 13.726562 9.148438 13.726562 10.050781 13.648438 10.875 C 13.574219 11.925781 13.574219 12.898438 13.5 13.949219 C 13.574219 14.023438 13.574219 14.023438 13.574219 14.101562 Z M 8.023438 13.726562 C 8.175781 13.875 8.324219 14.023438 8.550781 14.175781 C 8.773438 14.324219 9 14.550781 9.074219 14.851562 C 9.148438 15.226562 9 15.523438 8.625 15.601562 L 8.25 15.601562 C 7.800781 15.523438 7.425781 15.300781 7.125 15.074219 C 7.050781 15 7.050781 15 6.976562 15.148438 C 6.898438 15.449219 6.824219 15.75 6.675781 16.050781 C 6.601562 16.273438 6.675781 16.425781 6.824219 16.5 C 7.5 17.023438 8.25 17.25 9 17.175781 C 9.824219 17.101562 10.425781 16.648438 10.726562 15.898438 C 10.875 15.523438 10.949219 15.148438 10.949219 14.773438 C 10.949219 14.398438 10.800781 14.023438 10.574219 13.726562 C 10.574219 13.648438 10.5 13.648438 10.5 13.574219 C 10.273438 13.199219 9.898438 12.976562 9.523438 12.75 C 9.375 12.675781 9.226562 12.523438 9.074219 12.375 C 8.851562 12 9 11.398438 9.523438 11.25 C 10.050781 11.175781 10.5 11.25 10.949219 11.398438 C 11.023438 11.476562 11.101562 11.398438 11.101562 11.324219 L 11.550781 9.976562 C 11.625 9.75 11.625 9.75 11.398438 9.675781 C 10.875 9.523438 10.351562 9.523438 9.824219 9.601562 C 8.625 9.824219 7.574219 10.648438 7.5 12 C 7.351562 12.675781 7.574219 13.273438 8.023438 13.726562 Z M 11.023438 5.101562 C 10.949219 5.023438 10.949219 5.023438 10.875 5.023438 C 10.726562 4.949219 10.574219 5.023438 10.351562 5.023438 C 9.898438 5.175781 9.601562 5.398438 9.300781 5.773438 C 8.773438 6.375 8.476562 7.125 8.25 7.875 C 8.25 7.949219 8.25 7.949219 8.324219 7.949219 C 8.699219 7.875 9 7.726562 9.375 7.648438 C 9.449219 7.648438 9.449219 7.574219 9.449219 7.574219 C 9.449219 7.425781 9.523438 7.273438 9.523438 7.125 C 9.824219 6.300781 10.199219 5.550781 11.023438 5.101562 Z M 11.550781 6.675781 C 11.550781 6.375 11.476562 6 11.398438 5.699219 C 11.324219 5.550781 11.324219 5.550781 11.25 5.625 C 11.101562 5.699219 10.875 5.851562 10.800781 6 C 10.5 6.375 10.273438 6.824219 10.125 7.273438 L 10.125 7.351562 L 10.199219 7.351562 C 10.574219 7.273438 10.949219 7.125 11.25 7.050781 C 11.550781 6.976562 11.550781 6.976562 11.550781 6.675781 Z M 12.148438 6.824219 C 12.300781 6.75 12.523438 6.675781 12.75 6.601562 L 12.75 6.523438 C 12.675781 6.226562 12.523438 5.925781 12.300781 5.699219 C 12.226562 5.625 12.148438 5.550781 12 5.476562 L 11.925781 5.476562 L 11.925781 5.550781 C 11.925781 5.625 12 5.773438 12 5.851562 C 12.074219 6.074219 12.074219 6.375 12.074219 6.675781 C 12.074219 6.75 12.074219 6.824219 12.148438 6.824219 Z M 19.050781 16.800781 L 19.273438 18.375 C 19.273438 18.449219 19.273438 18.449219 19.199219 18.523438 C 18.300781 18.675781 17.476562 18.898438 16.574219 19.050781 C 15.976562 19.199219 15.300781 19.351562 14.699219 19.425781 C 14.625 19.425781 14.550781 19.5 14.625 19.351562 C 14.625 19.125 14.625 18.824219 14.699219 18.601562 C 14.773438 17.550781 14.773438 16.574219 14.851562 15.523438 L 14.851562 14.773438 C 14.851562 14.550781 14.851562 14.25 14.925781 14.023438 L 14.925781 13.5 C 15 12.148438 15.074219 10.875 15.148438 9.523438 L 15.148438 8.773438 C 15.226562 8.175781 15.226562 7.648438 15.226562 7.050781 L 15.226562 6.300781 C 15.300781 6.300781 15.300781 6.300781 15.300781 6.375 L 15.601562 6.675781 C 15.75 6.824219 15.898438 6.898438 15.976562 7.050781 C 16.050781 7.199219 16.199219 7.199219 16.351562 7.199219 C 16.648438 7.199219 17.023438 7.273438 17.324219 7.273438 C 17.398438 7.273438 17.476562 7.351562 17.476562 7.425781 C 17.550781 7.726562 17.550781 8.023438 17.625 8.324219 C 17.699219 8.851562 17.773438 9.300781 17.851562 9.824219 C 18 10.574219 18.074219 11.398438 18.226562 12.148438 C 18.449219 13.425781 18.601562 14.699219 18.824219 15.976562 C 18.898438 16.273438 18.976562 16.5 19.050781 16.800781 Z M 19.050781 16.800781 "/>
</g>
</svg>
