
<svg xmlns="http://www.w3.org/2000/svg" xmlns:xlink="http://www.w3.org/1999/xlink" width="24px" height="24px" viewBox="0 0 24 24" version="1.1">
<g id="surface1">
<path style=" stroke:none;fill-rule:nonzero;fill:rgb(0%,0%,0%);fill-opacity:1;" d="M 12 5.625 L 12 11.25 C 12.074219 11.25 12.074219 11.25 12.074219 11.175781 C 12.074219 11.175781 12.148438 11.175781 12.148438 11.101562 C 12.148438 11.101562 12.226562 11.101562 12.226562 11.023438 C 12.300781 11.023438 12.300781 11.023438 12.300781 10.949219 C 12.375 10.949219 12.375 10.949219 12.375 10.875 C 12.449219 10.875 12.449219 10.800781 12.449219 10.726562 L 12.449219 6.148438 C 12.449219 6 12.523438 5.925781 12.675781 5.925781 L 13.125 5.925781 C 13.351562 5.925781 13.351562 5.925781 13.351562 6.148438 L 13.351562 9.898438 L 13.425781 9.898438 C 13.5 9.898438 13.5 9.898438 13.5 9.824219 L 13.5 9.75 L 13.648438 9.601562 C 13.726562 9.523438 13.648438 9.449219 13.648438 9.449219 L 13.648438 6.601562 L 14.476562 6.601562 L 14.476562 8.699219 C 14.550781 8.699219 14.550781 8.625 14.625 8.625 L 15.449219 7.800781 C 15.523438 7.800781 15.523438 7.726562 15.523438 7.648438 L 15.523438 6.523438 C 15.675781 6.449219 15.824219 6.523438 15.976562 6.523438 C 16.125 6.523438 16.351562 6.449219 16.425781 6.523438 C 16.5 6.601562 16.425781 6.824219 16.425781 6.976562 L 16.425781 7.351562 C 16.425781 7.425781 16.425781 7.425781 16.5 7.5 C 16.5 7.5 16.425781 7.5 16.5 7.5 L 17.175781 7.5 C 17.25 7.5 17.324219 7.5 17.324219 7.648438 L 17.324219 8.398438 L 17.101562 8.398438 C 17.175781 8.324219 17.25 8.398438 17.324219 8.324219 L 16.273438 8.324219 C 16.199219 8.324219 16.199219 8.324219 16.199219 8.398438 C 15.898438 8.699219 15.523438 9 15.226562 9.375 C 15.226562 9.449219 15.300781 9.449219 15.375 9.449219 L 17.175781 9.449219 C 17.324219 9.449219 17.324219 9.449219 17.324219 9.601562 L 17.324219 10.125 C 17.324219 10.273438 17.324219 10.351562 17.101562 10.351562 L 14.398438 10.351562 C 14.324219 10.351562 14.25 10.273438 14.25 10.425781 L 13.351562 11.324219 L 17.324219 11.324219 L 17.324219 12 C 17.324219 12.148438 17.25 12.148438 17.101562 12.148438 L 12.375 12.148438 C 12.300781 12.148438 12.300781 12.148438 12.300781 12.226562 C 12.226562 12.226562 12.226562 12.226562 12.226562 12.300781 C 12.148438 12.300781 12.148438 12.300781 12.148438 12.375 C 12.074219 12.375 12.074219 12.375 12.074219 12.449219 C 12 12.449219 12 12.449219 12 12.523438 C 11.925781 12.523438 11.925781 12.523438 11.925781 12.601562 C 11.851562 12.601562 11.851562 12.601562 11.851562 12.675781 C 11.925781 12.75 12 12.675781 12 12.675781 L 17.625 12.675781 C 17.699219 12.675781 17.699219 12.675781 17.699219 12.75 L 17.699219 13.273438 C 17.699219 13.5 17.699219 13.5 17.476562 13.5 L 10.800781 13.5 L 10.726562 13.574219 C 10.648438 13.726562 10.5 13.800781 10.425781 13.949219 C 10.5 14.023438 10.574219 13.949219 10.648438 13.949219 L 18.074219 13.949219 C 18.148438 13.949219 18.226562 13.949219 18.226562 14.101562 L 18.226562 14.851562 L 9.675781 14.851562 C 9.601562 14.851562 9.523438 14.851562 9.449219 14.925781 L 8.625 15.75 C 8.625 15.824219 8.773438 15.824219 8.773438 15.824219 L 18.976562 15.824219 C 19.125 15.824219 19.125 15.824219 19.125 15.976562 L 19.125 17.398438 C 19.125 17.625 19.125 17.625 18.898438 17.625 L 7.875 17.625 C 7.800781 17.699219 7.875 17.773438 7.875 17.773438 L 7.875 19.5 L 6.148438 19.5 C 6 19.5 6 19.425781 6 19.351562 L 6 17.625 C 5.925781 17.550781 5.925781 17.625 5.851562 17.625 L 4.351562 17.625 C 4.199219 17.625 4.199219 17.625 4.199219 17.476562 L 4.199219 15.976562 C 4.199219 15.824219 4.273438 15.824219 4.351562 15.824219 L 6 15.824219 L 4.199219 15.824219 C 4.273438 15.75 4.273438 15.824219 4.351562 15.824219 L 6.074219 15.824219 C 6.148438 15.75 6.074219 15.675781 6.074219 15.675781 L 6.074219 4.800781 C 6.074219 4.648438 6.074219 4.648438 6.226562 4.648438 L 7.648438 4.648438 C 7.875 4.648438 7.875 4.648438 7.875 4.875 L 7.875 15.226562 C 8.023438 15.148438 8.101562 15 8.175781 14.925781 C 8.398438 14.699219 8.550781 14.476562 8.773438 14.324219 C 8.851562 14.324219 8.851562 14.25 8.851562 14.175781 L 8.851562 5.625 C 9 5.550781 9.226562 5.625 9.375 5.625 C 9.523438 5.625 9.675781 5.550781 9.75 5.625 C 9.824219 5.699219 9.75 5.851562 9.75 6 L 9.75 13.273438 C 10.050781 12.976562 10.351562 12.675781 10.726562 12.375 C 10.800781 12.300781 10.800781 12.226562 10.800781 12.226562 L 10.800781 5.625 L 11.625 5.625 C 11.699219 5.625 11.699219 5.625 11.699219 5.699219 C 11.925781 5.550781 11.925781 5.625 12 5.625 C 11.925781 7.5 11.925781 9.300781 11.925781 11.101562 L 11.925781 11.25 C 12 11.175781 11.925781 11.101562 11.925781 11.023438 L 11.925781 5.773438 C 12 5.773438 11.925781 5.699219 12 5.625 Z M 12 5.625 "/>
<path style=" stroke:none;fill-rule:nonzero;fill:rgb(0%,0%,0%);fill-opacity:1;" d="M 8.25 17.625 C 8.324219 17.550781 8.398438 17.625 8.476562 17.625 L 19.273438 17.625 C 19.5 17.625 19.5 17.625 19.5 17.398438 L 19.5 15.976562 C 19.5 15.824219 19.5 15.824219 19.351562 15.824219 L 9.148438 15.824219 C 9.074219 15.824219 9 15.898438 9 15.75 L 19.425781 15.75 C 19.5 15.75 19.5 15.75 19.5 15.898438 L 19.5 17.476562 C 19.5 17.625 19.5 17.625 19.351562 17.625 Z M 8.25 15.074219 C 8.175781 15 8.25 14.925781 8.25 14.851562 L 8.25 4.726562 C 8.25 4.5 8.25 4.5 8.023438 4.5 L 6.601562 4.5 C 6.449219 4.5 6.449219 4.5 6.449219 4.648438 L 6.449219 4.574219 C 6.375 4.5 6.375 4.5 6.523438 4.5 L 8.101562 4.5 C 8.175781 4.5 8.25 4.5 8.25 4.648438 Z M 13.875 9.375 C 13.800781 9.300781 13.875 9.226562 13.875 9.226562 L 13.875 5.625 C 13.875 5.398438 13.875 5.398438 13.648438 5.398438 L 13.199219 5.398438 C 13.050781 5.398438 12.976562 5.476562 12.976562 5.625 L 12.976562 10.199219 C 12.976562 10.273438 12.976562 10.351562 12.898438 10.351562 C 12.976562 10.273438 12.976562 10.199219 12.976562 10.125 L 12.976562 5.476562 C 12.976562 5.324219 12.976562 5.324219 13.125 5.324219 L 13.800781 5.324219 C 13.875 5.324219 13.949219 5.324219 13.949219 5.476562 L 13.949219 9.074219 C 13.875 9.226562 13.875 9.300781 13.875 9.375 Z M 11.699219 12.898438 C 11.773438 12.824219 11.851562 12.898438 11.925781 12.898438 L 18.375 12.898438 C 18.601562 12.898438 18.601562 12.898438 18.601562 12.675781 L 18.601562 12.148438 C 18.601562 12.074219 18.601562 12 18.523438 12.074219 L 12.75 12.074219 L 18.523438 12.074219 C 18.675781 12.074219 18.675781 12.074219 18.675781 12.226562 L 18.675781 12.824219 C 18.675781 12.898438 18.675781 12.976562 18.523438 12.976562 L 11.925781 12.976562 C 11.773438 12.898438 11.773438 12.898438 11.699219 12.898438 Z M 9.226562 5.476562 C 9.300781 5.550781 9.226562 5.550781 9.226562 5.625 L 9.226562 14.023438 C 9.226562 14.101562 9.226562 14.175781 9.148438 14.175781 L 9.148438 5.625 C 9.226562 5.550781 9.226562 5.476562 9.226562 5.476562 Z M 18.523438 14.773438 L 18.523438 14.023438 C 18.523438 13.949219 18.523438 13.875 18.375 13.875 L 10.726562 13.875 L 18.226562 13.875 C 18.449219 13.875 18.449219 13.875 18.449219 14.101562 L 18.449219 14.699219 C 18.523438 14.699219 18.601562 14.773438 18.523438 14.773438 Z M 11.101562 5.476562 L 11.101562 12.074219 C 11.101562 12.148438 11.101562 12.226562 11.023438 12.226562 L 11.023438 5.550781 C 11.101562 5.550781 11.023438 5.476562 11.101562 5.476562 Z M 15.449219 9.226562 C 15.449219 9.148438 15.523438 9.148438 15.601562 9.148438 L 18.300781 9.148438 C 18.449219 9.148438 18.523438 9.074219 18.523438 8.925781 L 18.523438 8.398438 C 18.523438 8.25 18.523438 8.25 18.375 8.25 L 16.574219 8.25 C 16.5 8.25 16.425781 8.25 16.425781 8.175781 L 18.601562 8.175781 C 18.675781 8.175781 18.675781 8.25 18.675781 8.25 L 18.675781 9.148438 L 15.824219 9.148438 C 15.601562 9.148438 15.523438 9.148438 15.449219 9.226562 C 15.449219 9.148438 15.449219 9.148438 15.449219 9.226562 Z M 12 5.625 C 11.925781 5.699219 12 5.773438 12 5.773438 L 12 11.101562 C 11.925781 9.300781 11.925781 7.5 12 5.625 C 11.925781 5.625 11.925781 5.550781 12 5.476562 Z M 13.574219 11.023438 C 13.648438 10.949219 13.726562 11.023438 13.726562 11.023438 L 18.300781 11.023438 C 18.449219 11.023438 18.523438 11.023438 18.523438 10.875 L 18.523438 10.199219 C 18.601562 10.199219 18.601562 10.273438 18.601562 10.351562 L 18.601562 11.023438 C 18.601562 11.101562 18.601562 11.175781 18.449219 11.175781 C 16.800781 11.023438 15.226562 11.023438 13.574219 11.023438 Z M 4.5 15.75 L 6.300781 15.75 L 4.648438 15.75 C 4.5 15.75 4.5 15.75 4.5 15.898438 L 4.5 17.398438 C 4.5 17.550781 4.5 17.550781 4.648438 17.550781 L 6.300781 17.550781 L 4.574219 17.550781 C 4.5 17.550781 4.5 17.550781 4.5 17.476562 Z M 14.851562 5.476562 L 14.851562 5.550781 C 14.851562 5.476562 14.773438 5.398438 14.851562 5.476562 Z M 15.523438 9.148438 L 18.523438 9.148438 Z M 15.75 7.5 C 15.675781 7.5 15.75 7.425781 15.75 7.351562 L 15.75 5.398438 C 15.824219 5.398438 15.75 5.476562 15.75 5.476562 Z M 17.324219 7.273438 C 17.324219 7.199219 17.398438 7.199219 17.398438 7.199219 L 18.449219 7.199219 C 18.375 7.273438 18.300781 7.199219 18.226562 7.273438 Z M 18.523438 8.25 L 16.425781 8.25 Z M 8.175781 19.5 L 8.175781 17.625 L 8.175781 19.351562 C 8.25 19.425781 8.25 19.425781 8.175781 19.5 Z M 18.523438 7.273438 L 18.523438 6.523438 C 18.523438 6.449219 18.523438 6.375 18.375 6.375 L 17.699219 6.375 C 17.625 6.375 17.699219 6.375 17.699219 6.375 L 18.523438 6.375 C 18.601562 6.675781 18.523438 6.976562 18.523438 7.273438 Z M 16.726562 5.476562 C 16.800781 5.476562 16.726562 5.550781 16.726562 5.625 L 16.726562 6.601562 C 16.726562 6.675781 16.726562 6.675781 16.648438 6.75 C 16.648438 6.226562 16.726562 5.851562 16.726562 5.476562 Z M 13.351562 11.324219 C 13.351562 11.25 13.351562 11.25 13.425781 11.25 C 13.425781 11.25 13.351562 11.25 13.351562 11.324219 Z M 12.824219 11.773438 C 12.824219 11.699219 12.824219 11.699219 12.898438 11.699219 C 12.898438 11.699219 12.898438 11.773438 12.824219 11.773438 Z M 13.273438 11.398438 C 13.273438 11.324219 13.273438 11.324219 13.273438 11.398438 C 13.273438 11.324219 13.273438 11.398438 13.273438 11.398438 Z M 12.074219 11.25 C 12.074219 11.324219 12.074219 11.324219 12.074219 11.25 C 12 11.324219 12.074219 11.25 12.074219 11.25 Z M 13.425781 11.175781 C 13.425781 11.101562 13.5 11.101562 13.425781 11.175781 C 13.5 11.101562 13.5 11.175781 13.425781 11.175781 Z M 13.050781 11.550781 C 13.050781 11.476562 13.125 11.476562 13.050781 11.550781 C 13.125 11.476562 13.125 11.550781 13.050781 11.550781 Z M 12.523438 10.800781 C 12.523438 10.875 12.449219 10.875 12.523438 10.800781 C 12.449219 10.875 12.449219 10.875 12.523438 10.800781 Z M 12.675781 10.648438 C 12.675781 10.726562 12.601562 10.726562 12.675781 10.648438 C 12.601562 10.726562 12.601562 10.726562 12.675781 10.648438 Z M 12.75 11.851562 Z M 12.675781 12 C 12.675781 11.925781 12.675781 11.925781 12.675781 12 C 12.675781 11.925781 12.675781 11.925781 12.675781 12 Z M 14.25 9.074219 C 14.25 9.148438 14.175781 9.148438 14.25 9.074219 C 14.175781 9.148438 14.175781 9.148438 14.25 9.074219 Z M 12.148438 11.175781 Z M 12.226562 11.101562 C 12.226562 11.101562 12.226562 11.175781 12.226562 11.101562 C 12.148438 11.101562 12.226562 11.101562 12.226562 11.101562 Z M 11.101562 5.625 C 11.023438 5.625 11.023438 5.625 11.101562 5.625 Z M 18.523438 6.375 Z M 11.101562 13.5 Z M 13.199219 11.398438 Z M 13.199219 11.476562 C 13.199219 11.476562 13.199219 11.398438 13.199219 11.476562 C 13.199219 11.398438 13.199219 11.476562 13.199219 11.476562 Z M 11.175781 13.5 Z M 13.125 11.476562 C 13.125 11.476562 13.199219 11.476562 13.125 11.476562 C 13.199219 11.476562 13.125 11.476562 13.125 11.476562 Z M 11.175781 13.425781 Z M 13.050781 11.550781 Z M 13.050781 11.625 C 13.050781 11.625 13.050781 11.550781 13.050781 11.625 C 13.050781 11.550781 13.050781 11.625 13.050781 11.625 Z M 12.976562 11.625 C 12.976562 11.625 13.050781 11.625 12.976562 11.625 C 13.050781 11.625 12.976562 11.625 12.976562 11.625 Z M 11.175781 13.425781 C 11.25 13.425781 11.25 13.425781 11.175781 13.425781 C 11.25 13.425781 11.25 13.425781 11.175781 13.425781 Z M 12.976562 11.699219 C 12.976562 11.625 12.976562 11.625 12.976562 11.699219 C 12.976562 11.625 12.976562 11.625 12.976562 11.699219 Z M 12.898438 11.699219 C 12.976562 11.699219 12.976562 11.699219 12.898438 11.699219 C 12.976562 11.699219 12.976562 11.699219 12.898438 11.699219 Z M 11.25 13.425781 C 11.25 13.351562 11.25 13.351562 11.25 13.425781 C 11.25 13.351562 11.25 13.351562 11.25 13.425781 Z M 11.25 13.351562 C 11.25 13.351562 11.324219 13.351562 11.25 13.351562 C 11.324219 13.351562 11.25 13.351562 11.25 13.351562 Z M 12.824219 11.851562 C 12.824219 11.773438 12.824219 11.773438 12.824219 11.851562 C 12.824219 11.773438 12.824219 11.773438 12.824219 11.851562 Z M 11.324219 13.273438 C 11.398438 13.273438 11.398438 13.273438 11.324219 13.273438 C 11.398438 13.273438 11.398438 13.273438 11.324219 13.273438 Z M 14.773438 8.476562 C 14.773438 8.550781 14.773438 8.550781 14.773438 8.476562 C 14.773438 8.550781 14.773438 8.550781 14.773438 8.476562 Z M 11.699219 12.976562 Z M 11.625 12.976562 Z M 11.625 13.050781 C 11.625 13.050781 11.625 12.976562 11.625 13.050781 C 11.625 12.976562 11.625 13.050781 11.625 13.050781 Z M 11.550781 13.050781 Z M 11.476562 13.125 C 11.550781 13.125 11.550781 13.125 11.476562 13.125 C 11.550781 13.125 11.550781 13.125 11.476562 13.125 Z M 11.476562 13.125 Z M 11.476562 13.199219 C 11.476562 13.199219 11.476562 13.125 11.476562 13.199219 C 11.476562 13.125 11.476562 13.199219 11.476562 13.199219 Z M 11.398438 13.199219 C 11.398438 13.199219 11.476562 13.199219 11.398438 13.199219 C 11.476562 13.199219 11.398438 13.199219 11.398438 13.199219 Z M 13.949219 9.375 Z M 14.023438 9.300781 C 14.023438 9.300781 13.949219 9.375 14.023438 9.300781 C 13.949219 9.375 14.023438 9.300781 14.023438 9.300781 Z M 14.101562 9.226562 C 14.023438 9.300781 14.023438 9.300781 14.101562 9.226562 C 14.023438 9.300781 14.023438 9.300781 14.101562 9.226562 Z M 14.101562 9.226562 Z M 14.101562 9.226562 Z M 14.625 8.699219 Z M 14.175781 9.148438 Z M 14.25 9.074219 Z M 14.25 9 C 14.25 9.074219 14.25 9.074219 14.25 9 C 14.25 9.074219 14.25 9.074219 14.25 9 Z M 14.324219 9 Z M 14.398438 8.925781 C 14.398438 8.925781 14.324219 9 14.398438 8.925781 C 14.324219 9 14.398438 8.925781 14.398438 8.925781 Z M 14.398438 8.925781 Z M 14.476562 8.851562 C 14.398438 8.925781 14.398438 8.925781 14.476562 8.851562 C 14.398438 8.925781 14.398438 8.925781 14.476562 8.851562 Z M 14.476562 8.851562 Z M 14.550781 8.773438 C 14.550781 8.773438 14.476562 8.851562 14.550781 8.773438 C 14.476562 8.851562 14.550781 8.773438 14.550781 8.773438 Z M 14.550781 8.773438 Z M 14.625 8.699219 C 14.550781 8.773438 14.550781 8.773438 14.625 8.699219 C 14.550781 8.773438 14.550781 8.773438 14.625 8.699219 Z M 13.273438 11.324219 C 13.273438 11.324219 13.351562 11.324219 13.273438 11.324219 C 13.351562 11.324219 13.273438 11.324219 13.273438 11.324219 Z M 12.148438 11.175781 C 12.148438 11.175781 12.074219 11.25 12.148438 11.175781 C 12.074219 11.25 12.148438 11.175781 12.148438 11.175781 Z M 13.425781 11.175781 Z M 13.5 11.101562 Z M 12.300781 11.023438 C 12.300781 11.023438 12.226562 11.101562 12.300781 11.023438 C 12.226562 11.101562 12.300781 11.023438 12.300781 11.023438 Z M 12.300781 11.023438 Z M 12.375 10.949219 Z M 12.449219 10.875 C 12.449219 10.875 12.449219 10.949219 12.449219 10.875 C 12.449219 10.949219 12.449219 10.875 12.449219 10.875 Z M 12.523438 10.800781 Z M 12.523438 10.800781 Z M 12.675781 10.648438 Z M 12.75 10.574219 C 12.675781 10.648438 12.675781 10.648438 12.75 10.574219 C 12.675781 10.648438 12.675781 10.648438 12.75 10.574219 Z M 12.75 10.574219 Z M 12.824219 10.5 C 12.824219 10.5 12.75 10.574219 12.824219 10.5 C 12.75 10.574219 12.824219 10.5 12.824219 10.5 Z M 12.824219 10.5 Z M 12.898438 10.425781 Z M 14.773438 8.550781 Z M 14.773438 8.550781 "/>
</g>
</svg>
