
<svg xmlns="http://www.w3.org/2000/svg" xmlns:xlink="http://www.w3.org/1999/xlink" width="24px" height="24px" viewBox="0 0 24 24" version="1.1">
<g id="surface1">
<path style=" stroke:none;fill-rule:nonzero;fill:rgb(0%,0%,0%);fill-opacity:1;" d="M 16.371094 11.132812 L 16.371094 18.113281 L 7.628906 18.113281 L 7.628906 11.132812 L 9.097656 11.132812 L 9.097656 10.980469 C 9.097656 10.453125 9.097656 9.925781 9.101562 9.398438 C 9.101562 9.226562 9.113281 9.054688 9.132812 8.886719 C 9.359375 6.964844 10.875 5.621094 12.46875 5.929688 C 13.878906 6.203125 14.925781 7.671875 14.925781 9.382812 L 14.925781 11.128906 C 15.410156 11.132812 15.890625 11.132812 16.371094 11.132812 Z M 13.464844 11.128906 C 13.46875 11.089844 13.46875 11.066406 13.46875 11.042969 C 13.46875 10.476562 13.472656 9.910156 13.46875 9.339844 C 13.46875 9.242188 13.457031 9.140625 13.441406 9.042969 C 13.28125 8.113281 12.621094 7.550781 11.8125 7.644531 C 11.101562 7.734375 10.546875 8.5 10.546875 9.402344 L 10.546875 11.128906 Z M 13.464844 11.128906 "/>
</g>
</svg>
