
<svg xmlns="http://www.w3.org/2000/svg" xmlns:xlink="http://www.w3.org/1999/xlink" width="24px" height="24px" viewBox="0 0 24 24" version="1.1">
<g id="surface1">
<path style=" stroke:none;fill-rule:nonzero;fill:rgb(0%,0%,0%);fill-opacity:1;" d="M 11.023438 19.5 C 7.425781 19.5 4.5 16.574219 4.5 12.976562 C 4.5 9.375 7.425781 6.375 11.175781 6.449219 C 14.699219 6.523438 17.550781 9.375 17.550781 12.976562 C 17.550781 16.574219 14.625 19.5 11.023438 19.5 Z M 13.726562 8.324219 C 12.675781 8.324219 11.773438 9.226562 11.773438 10.273438 C 11.773438 11.324219 12.601562 12.226562 13.726562 12.226562 C 14.773438 12.226562 15.675781 11.398438 15.675781 10.273438 C 15.675781 9.226562 14.851562 8.324219 13.726562 8.324219 Z M 17.550781 8.324219 C 16.5 8.324219 15.601562 7.5 15.675781 6.375 C 15.675781 5.324219 16.5 4.5 17.625 4.5 C 18.675781 4.5 19.5 5.398438 19.5 6.449219 C 19.5 7.5 18.601562 8.324219 17.550781 8.324219 Z M 17.550781 8.324219 "/>
</g>
</svg>
