
<svg xmlns="http://www.w3.org/2000/svg" xmlns:xlink="http://www.w3.org/1999/xlink" width="24px" height="24px" viewBox="0 0 24 24" version="1.1">
<g id="surface1">
<path style=" stroke:none;fill-rule:nonzero;fill:rgb(0%,0%,0%);fill-opacity:1;" d="M 12.148438 4.199219 C 10.648438 5.398438 10.125 5.699219 9.375 6.75 C 8.625 7.800781 8.625 10.800781 10.125 11.925781 C 9.75 11.925781 8.25 11.023438 8.25 11.023438 C 8.25 11.023438 10.273438 13.875 11.101562 14.699219 C 12.300781 16.425781 13.050781 18.300781 13.351562 20.25 C 13.574219 18.601562 13.273438 17.023438 12.449219 15.523438 L 12.449219 15.449219 C 12.375 15.074219 12.449219 14.773438 12.824219 14.476562 C 13.199219 14.25 14.773438 12.75 14.773438 12.75 C 14.773438 12.75 13.125 13.726562 12.675781 13.800781 C 13.351562 13.125 13.800781 12.523438 14.476562 12.074219 C 15.601562 11.175781 15.824219 10.050781 15.675781 8.925781 C 15.675781 8.625 15.601562 8.398438 15.523438 8.101562 C 15.148438 6.449219 14.25 5.023438 12.824219 3.675781 C 12.601562 3.976562 12.375 4.050781 12.148438 4.199219 Z M 12.148438 4.199219 "/>
</g>
</svg>
