
<svg xmlns="http://www.w3.org/2000/svg" xmlns:xlink="http://www.w3.org/1999/xlink" width="24px" height="24px" viewBox="0 0 24 24" version="1.1">
<g id="surface1">
<path style=" stroke:none;fill-rule:nonzero;fill:rgb(0%,0%,0%);fill-opacity:1;" d="M 13.5 13.273438 C 12.75 13.273438 12.148438 12.675781 12.148438 11.925781 C 12.148438 11.175781 12.75 10.574219 13.5 10.574219 C 14.023438 10.574219 14.550781 10.875 14.773438 11.398438 L 15.898438 11.398438 C 15.601562 10.273438 14.625 9.523438 13.5 9.523438 C 12.148438 9.523438 11.023438 10.648438 11.023438 12 C 11.023438 13.351562 12.148438 14.476562 13.5 14.476562 L 17.023438 14.476562 L 17.023438 13.351562 L 13.5 13.351562 Z M 9.375 9.523438 L 10.5 9.523438 L 10.5 14.398438 L 9.375 14.398438 Z M 8.324219 10.351562 L 9.449219 10.351562 L 9.449219 11.476562 L 8.324219 11.476562 Z M 8.324219 10.351562 "/>
<path style=" stroke:none;fill-rule:nonzero;fill:rgb(0%,0%,0%);fill-opacity:1;" d="M 17.175781 6.824219 L 7.050781 6.824219 L 4.5 12 C 4.5 12 7.050781 17.101562 7.050781 17.175781 L 17.175781 17.175781 C 18.449219 17.175781 19.5 16.125 19.5 14.851562 L 19.5 9.074219 C 19.5 7.875 18.523438 6.824219 17.175781 6.824219 Z M 18.375 14.925781 C 18.375 15.601562 17.851562 16.050781 17.25 16.050781 L 7.949219 16.050781 C 7.949219 16.050781 5.625 12.375 5.625 12.148438 L 7.949219 8.023438 L 17.25 8.023438 C 17.925781 8.023438 18.375 8.550781 18.375 9.148438 Z M 18.375 14.925781 "/>
</g>
</svg>
