
<svg xmlns="http://www.w3.org/2000/svg" xmlns:xlink="http://www.w3.org/1999/xlink" width="16px" height="16px" viewBox="0 0 16 16" version="1.1">
<g id="surface1">
<path style=" stroke:none;fill-rule:nonzero;fill:rgb(87.450981%,31.37255%,32.156864%);fill-opacity:1;" d="M 15.039062 8.175781 C 15.1875 8.175781 15.300781 8.0625 15.300781 7.914062 C 15.300781 7.851562 15.273438 7.789062 15.238281 7.75 C 15.226562 7.726562 11.738281 4.523438 11.738281 4.523438 L 14.8125 8.039062 C 14.851562 8.125 14.9375 8.175781 15.039062 8.175781 Z M 15.75 9.960938 L 15.726562 9.9375 L 8.125 3 L 15.085938 10.574219 L 15.113281 10.601562 C 15.1875 10.675781 15.300781 10.726562 15.425781 10.726562 C 15.675781 10.726562 15.875 10.523438 15.875 10.273438 C 15.875 10.164062 15.824219 10.050781 15.75 9.960938 Z M 12.386719 14.664062 L 1.386719 4.476562 L 11.523438 15.539062 C 11.636719 15.664062 11.800781 15.75 11.988281 15.75 C 12.324219 15.75 12.601562 15.476562 12.601562 15.136719 C 12.601562 14.949219 12.523438 14.773438 12.386719 14.664062 Z M 0.125 0.25 L 13.574219 14.574219 L 13.585938 14.585938 C 13.699219 14.699219 13.851562 14.761719 14.011719 14.761719 C 14.351562 14.761719 14.625 14.488281 14.625 14.148438 C 14.625 14.023438 14.585938 13.898438 14.511719 13.800781 C 14.476562 13.738281 0.125 0.25 0.125 0.25 Z M 15.425781 11.851562 L 4.425781 1.664062 L 14.5625 12.726562 C 14.675781 12.851562 14.835938 12.9375 15.023438 12.9375 C 15.363281 12.9375 15.636719 12.664062 15.636719 12.324219 C 15.636719 12.125 15.550781 11.960938 15.425781 11.851562 Z M 10.113281 14.949219 L 10.085938 14.925781 L 2.488281 7.988281 L 9.449219 15.5625 L 9.476562 15.585938 C 9.550781 15.664062 9.664062 15.710938 9.789062 15.710938 C 10.039062 15.710938 10.238281 15.511719 10.238281 15.261719 C 10.238281 15.136719 10.1875 15.039062 10.113281 14.949219 Z M 4.261719 11.460938 L 7.335938 14.976562 C 7.386719 15.050781 7.460938 15.113281 7.5625 15.113281 C 7.710938 15.113281 7.824219 15 7.824219 14.851562 C 7.824219 14.789062 7.800781 14.726562 7.761719 14.6875 C 7.738281 14.675781 4.261719 11.460938 4.261719 11.460938 Z M 4.261719 11.460938 "/>
</g>
</svg>
