
<svg xmlns="http://www.w3.org/2000/svg" xmlns:xlink="http://www.w3.org/1999/xlink" width="16px" height="16px" viewBox="0 0 16 16" version="1.1">
<g id="surface1">
<path style=" stroke:none;fill-rule:nonzero;fill:rgb(55.29412%,40.392157%,28.235295%);fill-opacity:1;" d="M 11.472656 7.347656 L 11.183594 8.023438 L 11.761719 8.023438 Z M 11.472656 7.347656 "/>
<path style=" stroke:none;fill-rule:nonzero;fill:rgb(55.29412%,40.392157%,28.235295%);fill-opacity:1;" d="M 7.613281 6.5 L 8.113281 6.5 C 8.140625 6.496094 8.164062 6.488281 8.179688 6.46875 C 8.472656 6.125 8.511719 5.449219 8.511719 5.210938 C 8.511719 5.164062 8.476562 5.125 8.425781 5.125 L 7.300781 5.125 C 7.253906 5.125 7.21875 5.164062 7.21875 5.210938 C 7.226562 5.449219 7.261719 6.128906 7.546875 6.46875 C 7.566406 6.488281 7.589844 6.5 7.613281 6.5 Z M 8.164062 5.855469 C 8.375 5.777344 8.375 5.703125 8.375 5.703125 C 8.351562 5.9375 8.265625 6.164062 8.125 6.359375 C 8.113281 6.371094 8.09375 6.378906 8.074219 6.375 L 7.65625 6.375 C 7.640625 6.375 7.613281 6.375 7.605469 6.359375 C 7.5 6.21875 7.429688 6.058594 7.390625 5.886719 C 7.390625 5.886719 7.886719 5.957031 8.164062 5.855469 Z M 8.164062 5.855469 "/>
<path style=" stroke:none;fill-rule:nonzero;fill:rgb(55.29412%,40.392157%,28.235295%);fill-opacity:1;" d="M 14.550781 3.742188 L 8.433594 0.214844 C 8.171875 0.0625 7.84375 0.0625 7.582031 0.214844 L 1.449219 3.742188 C 1.179688 3.890625 1.011719 4.167969 1 4.472656 L 1 11.527344 C 1.011719 11.832031 1.183594 12.109375 1.449219 12.257812 L 7.566406 15.785156 C 7.828125 15.9375 8.15625 15.9375 8.417969 15.785156 L 14.550781 12.257812 C 14.8125 12.105469 14.984375 11.832031 15 11.527344 L 15 4.472656 C 14.988281 4.167969 14.820312 3.890625 14.550781 3.742188 Z M 14 11.035156 C 14 11.296875 13.859375 11.535156 13.632812 11.660156 L 8.359375 14.707031 C 8.132812 14.84375 7.851562 14.84375 7.628906 14.707031 L 2.359375 11.664062 C 2.132812 11.535156 1.996094 11.296875 2 11.039062 L 2 4.949219 C 1.996094 4.691406 2.136719 4.449219 2.359375 4.324219 L 7.625 1.273438 C 7.847656 1.140625 8.128906 1.140625 8.351562 1.273438 L 13.628906 4.320312 C 13.855469 4.445312 13.996094 4.683594 13.996094 4.945312 Z M 14 11.035156 "/>
<path style=" stroke:none;fill-rule:nonzero;fill:rgb(55.29412%,40.392157%,28.235295%);fill-opacity:1;" d="M 5.605469 7.816406 C 5.605469 8.148438 5.335938 8.421875 5 8.421875 C 4.664062 8.421875 4.394531 8.148438 4.394531 7.816406 C 4.394531 7.480469 4.664062 7.210938 5 7.210938 C 5.335938 7.210938 5.605469 7.480469 5.605469 7.816406 Z M 5.605469 7.816406 "/>
<path style=" stroke:none;fill-rule:nonzero;fill:rgb(55.29412%,40.392157%,28.235295%);fill-opacity:1;" d="M 13.507812 4.539062 L 8.230469 1.5 C 8.160156 1.457031 8.078125 1.433594 7.992188 1.433594 C 7.90625 1.433594 7.824219 1.457031 7.75 1.5 L 2.484375 4.539062 C 2.339844 4.628906 2.25 4.785156 2.25 4.957031 L 2.25 11.042969 C 2.25 11.214844 2.339844 11.371094 2.484375 11.457031 L 7.75 14.5 C 7.820312 14.542969 7.902344 14.566406 7.984375 14.566406 C 8.070312 14.566406 8.152344 14.542969 8.222656 14.5 L 13.503906 11.457031 C 13.652344 11.371094 13.746094 11.214844 13.75 11.042969 L 13.75 4.957031 C 13.746094 4.785156 13.65625 4.628906 13.507812 4.539062 Z M 8.375 8.523438 C 8.550781 8.523438 8.71875 8.445312 8.832031 8.3125 L 9.019531 8.5 C 8.980469 8.546875 8.933594 8.585938 8.886719 8.625 C 8.839844 8.664062 8.789062 8.695312 8.734375 8.71875 C 8.679688 8.746094 8.617188 8.765625 8.554688 8.777344 C 8.480469 8.792969 8.402344 8.796875 8.328125 8.796875 C 8.097656 8.796875 7.878906 8.707031 7.71875 8.546875 C 7.644531 8.464844 7.589844 8.367188 7.554688 8.265625 C 7.515625 8.15625 7.496094 8.039062 7.5 7.921875 L 7.5 7.914062 C 7.496094 7.800781 7.511719 7.683594 7.550781 7.578125 C 7.59375 7.472656 7.648438 7.378906 7.722656 7.296875 C 7.800781 7.214844 7.894531 7.152344 8 7.109375 C 8.113281 7.066406 8.234375 7.042969 8.355469 7.042969 C 8.425781 7.042969 8.496094 7.050781 8.566406 7.058594 C 8.632812 7.078125 8.683594 7.09375 8.742188 7.109375 C 8.792969 7.132812 8.839844 7.164062 8.886719 7.195312 C 8.929688 7.230469 8.972656 7.265625 9.011719 7.304688 L 8.816406 7.511719 C 8.628906 7.308594 8.328125 7.257812 8.085938 7.390625 C 7.839844 7.523438 7.71875 7.800781 7.789062 8.070312 C 7.855469 8.335938 8.097656 8.523438 8.375 8.523438 Z M 8.019531 3.820312 C 7.980469 3.878906 8.03125 4.023438 8.140625 4.195312 C 8.191406 4.277344 8.210938 4.375 8.1875 4.46875 C 8.164062 4.566406 8.105469 4.644531 8.019531 4.695312 C 8.023438 4.589844 7.988281 4.488281 7.925781 4.40625 C 7.726562 4.097656 7.910156 3.953125 8.019531 3.820312 Z M 7.683594 4.132812 C 7.648438 4.167969 7.683594 4.269531 7.757812 4.382812 C 7.796875 4.4375 7.808594 4.503906 7.792969 4.570312 C 7.777344 4.632812 7.738281 4.6875 7.683594 4.722656 C 7.683594 4.65625 7.664062 4.585938 7.625 4.53125 C 7.488281 4.320312 7.605469 4.226562 7.683594 4.132812 Z M 7.0625 4.875 L 8.65625 4.875 C 8.679688 4.875 8.699219 4.882812 8.71875 4.894531 C 8.734375 4.910156 8.742188 4.933594 8.742188 4.953125 C 8.742188 5.25 8.699219 6.25 8.273438 6.722656 C 8.261719 6.738281 8.238281 6.75 8.214844 6.75 L 7.5 6.75 C 7.476562 6.746094 7.457031 6.734375 7.441406 6.71875 C 7.019531 6.234375 6.980469 5.25 6.980469 4.957031 C 6.980469 4.933594 6.988281 4.914062 7.003906 4.898438 C 7.019531 4.882812 7.039062 4.875 7.0625 4.875 Z M 2.625 6.125 L 6.917969 6.125 C 6.917969 6.125 6.925781 6.125 6.925781 6.25 L 2.625 6.25 Z M 6.875 7.914062 L 6.875 7.921875 C 6.875 8.039062 6.855469 8.152344 6.816406 8.261719 C 6.773438 8.367188 6.710938 8.460938 6.632812 8.542969 C 6.554688 8.625 6.460938 8.6875 6.355469 8.730469 C 6.246094 8.777344 6.125 8.800781 6 8.796875 C 5.878906 8.796875 5.757812 8.773438 5.644531 8.730469 C 5.539062 8.6875 5.445312 8.625 5.367188 8.542969 C 5.289062 8.460938 5.226562 8.367188 5.191406 8.261719 C 5.148438 8.15625 5.125 8.039062 5.125 7.921875 L 5.125 7.914062 C 5.125 7.800781 5.148438 7.683594 5.191406 7.578125 C 5.234375 7.472656 5.296875 7.375 5.375 7.296875 C 5.453125 7.214844 5.546875 7.152344 5.652344 7.109375 C 5.765625 7.0625 5.886719 7.039062 6.011719 7.042969 C 6.132812 7.042969 6.253906 7.066406 6.367188 7.109375 C 6.472656 7.152344 6.566406 7.214844 6.644531 7.296875 C 6.722656 7.375 6.78125 7.472656 6.816406 7.578125 C 6.855469 7.683594 6.878906 7.800781 6.875 7.914062 Z M 3.636719 8.375 L 3.625 8.375 L 3.125 7.566406 L 3.125 8.75 L 2.75 8.75 L 2.75 7.125 L 3.125 7.125 L 3.640625 7.921875 L 4.152344 7.125 L 4.5 7.125 L 4.5 8.75 L 4.125 8.75 L 4.125 7.558594 Z M 13.375 9.375 L 2.625 9.375 L 2.625 9.25 L 13.375 9.25 Z M 10.75 7.75 L 10.75 7.125 L 11 7.125 L 11 8.75 L 10.75 8.75 L 10.75 8 L 9.875 8 L 9.875 8.75 L 9.625 8.75 L 9.625 7.125 L 9.875 7.125 L 9.875 7.75 Z M 11.589844 8.75 L 12.339844 7.125 L 12.613281 7.125 L 13.363281 8.75 L 13.046875 8.75 L 12.875 8.375 L 12.074219 8.375 L 11.898438 8.75 Z M 13.375 6.25 L 8.800781 6.25 C 8.800781 6.125 8.808594 6.125 8.808594 6.125 L 13.375 6.125 Z M 13.375 6.25 "/>
</g>
</svg>
