
<svg xmlns="http://www.w3.org/2000/svg" xmlns:xlink="http://www.w3.org/1999/xlink" width="16px" height="16px" viewBox="0 0 16 16" version="1.1">
<g id="surface1">
<path style=" stroke:none;fill-rule:evenodd;fill:rgb(30.980393%,66.666669%,25.490198%);fill-opacity:1;" d="M 11.3125 7.160156 C 11.265625 6.5625 11.125 5.984375 10.929688 5.417969 C 10.523438 4.15625 9.871094 3.039062 8.957031 2.074219 C 8.722656 1.832031 8.464844 1.609375 8.304688 1.308594 C 8.203125 1.117188 8.105469 0.921875 8.003906 0.726562 L 7.941406 0.570312 C 7.929688 0.605469 7.925781 0.617188 7.925781 0.632812 C 7.917969 0.945312 7.738281 1.160156 7.515625 1.359375 C 7.265625 1.582031 7.035156 1.828125 6.792969 2.0625 C 6.546875 2.386719 6.300781 2.707031 6.054688 3.03125 C 5.859375 3.398438 5.660156 3.761719 5.460938 4.128906 L 5.0625 5.207031 L 5.050781 5.222656 C 4.828125 5.945312 4.722656 6.683594 4.667969 7.433594 C 4.648438 7.714844 4.671875 8 4.6875 8.285156 C 4.710938 8.6875 4.78125 9.085938 4.886719 9.476562 C 5.269531 10.898438 6.042969 12.078125 7.105469 13.078125 C 7.304688 13.265625 7.507812 13.433594 7.710938 13.609375 C 7.746094 13.492188 7.777344 13.371094 7.808594 13.25 C 7.839844 13.128906 7.871094 13.007812 7.894531 12.890625 C 7.871094 13.007812 7.847656 13.128906 7.824219 13.25 L 7.71875 13.609375 L 7.8125 13.925781 L 7.898438 14.410156 L 7.9375 14.914062 C 7.9375 15.019531 7.933594 15.121094 7.941406 15.226562 C 7.941406 15.25 7.976562 15.273438 7.996094 15.300781 L 8.167969 15.359375 L 8.347656 15.429688 L 8.316406 14.980469 L 8.316406 14.535156 L 8.375 13.859375 L 8.421875 13.714844 L 8.550781 13.488281 C 8.707031 13.359375 8.878906 13.242188 9.023438 13.101562 C 9.285156 12.84375 9.546875 12.585938 9.777344 12.304688 C 10.082031 11.9375 10.34375 11.539062 10.550781 11.113281 C 10.691406 10.828125 10.824219 10.539062 10.933594 10.238281 C 11.03125 9.976562 11.089844 9.699219 11.164062 9.429688 C 11.171875 9.410156 11.179688 9.390625 11.1875 9.371094 C 11.34375 8.640625 11.367188 7.902344 11.3125 7.160156 Z M 8.363281 13.332031 L 8.261719 13.113281 L 8.363281 13.332031 L 8.507812 13.457031 Z M 8.363281 13.332031 "/>
</g>
</svg>
