
<svg xmlns="http://www.w3.org/2000/svg" xmlns:xlink="http://www.w3.org/1999/xlink" width="16px" height="16px" viewBox="0 0 16 16" version="1.1">
<g id="surface1">
<path style=" stroke:none;fill-rule:nonzero;fill:rgb(96.862745%,57.647061%,11.764706%);fill-opacity:1;" d="M 14.582031 5.632812 C 13.949219 5.144531 13.046875 4.914062 11.945312 4.914062 C 10.742188 4.914062 9.898438 5.1875 9.453125 5.757812 C 9.25 5.539062 8.996094 5.363281 8.707031 5.230469 C 8.402344 4.921875 8.085938 4.734375 7.761719 4.640625 C 8.480469 4.179688 9.324219 3.554688 10.390625 2.714844 C 6.054688 3.15625 3.960938 3.582031 0.234375 5.824219 C 0.386719 5.824219 0.535156 5.824219 0.679688 5.824219 C 0.589844 6.523438 0.636719 7.5625 0.652344 7.867188 C 0.152344 9.144531 0.601562 10.179688 0.976562 11.113281 C 0.976562 9.988281 1.03125 9.082031 0.710938 7.917969 L 3.242188 5.910156 C 3.203125 6.289062 3.207031 6.730469 3.28125 7.261719 L 3.289062 7.265625 L 3.261719 7.410156 L 3.375 7.429688 C 3.347656 7.617188 3.375 7.8125 3.375 8.023438 L 3.375 13.25 L 5.625 13.25 L 5.625 8.296875 C 5.625 8.050781 5.707031 7.832031 5.757812 7.644531 C 6.101562 7.585938 6.460938 7.488281 6.777344 7.351562 L 6.800781 7.410156 C 6.820312 7.382812 6.84375 7.351562 6.863281 7.328125 C 7.117188 7.214844 7.386719 7.074219 7.613281 6.914062 C 8.023438 7.125 8.25 7.582031 8.25 8.296875 L 8.25 13.25 L 10.875 13.25 L 10.875 8.296875 C 10.875 7.28125 11.175781 6.773438 12 6.773438 C 12.824219 6.773438 13.125 7.28125 13.125 8.296875 L 13.125 13.25 L 15.75 13.25 L 15.75 8.023438 C 15.75 6.964844 15.324219 6.183594 14.582031 5.632812 Z M 14.582031 5.632812 "/>
</g>
</svg>
