
<svg xmlns="http://www.w3.org/2000/svg" xmlns:xlink="http://www.w3.org/1999/xlink" width="24px" height="24px" viewBox="0 0 24 24" version="1.1">
<g id="surface1">
<path style=" stroke:none;fill-rule:nonzero;fill:rgb(93.725491%,46.27451%,13.725491%);fill-opacity:1;" d="M 5.550781 11.773438 C 5.550781 11.625 5.550781 11.476562 5.476562 11.398438 C 5.324219 11.25 5.023438 11.25 4.949219 11.476562 C 4.726562 11.851562 4.949219 12.226562 5.398438 12.375 C 5.699219 12.449219 5.925781 12.449219 6.148438 12.226562 C 6.523438 11.925781 6.898438 11.625 7.273438 11.25 C 7.800781 10.800781 8.25 10.351562 8.925781 10.125 C 9.824219 9.824219 10.726562 9.824219 11.476562 10.5 L 11.925781 10.949219 L 12.074219 11.101562 C 12.148438 10.949219 12.226562 10.875 12.300781 10.800781 C 12.75 10.273438 13.351562 9.976562 14.101562 9.976562 C 14.925781 9.976562 15.675781 10.273438 16.273438 10.800781 C 16.726562 11.175781 17.101562 11.550781 17.550781 11.925781 C 17.773438 12.148438 18 12.300781 18.300781 12.375 C 18.675781 12.449219 19.050781 12.226562 19.199219 11.925781 C 19.273438 11.699219 19.199219 11.550781 19.050781 11.398438 C 18.898438 11.25 18.75 11.25 18.601562 11.324219 C 18.449219 11.398438 18.375 11.550781 18.449219 11.699219 L 18.449219 11.773438 C 18.226562 11.625 18.148438 11.398438 18.148438 11.175781 C 18.148438 10.875 18.375 10.726562 18.601562 10.648438 C 19.273438 10.425781 19.949219 10.800781 20.101562 11.550781 C 20.175781 12 20.175781 12.523438 19.949219 12.976562 C 19.726562 13.5 19.273438 13.726562 18.75 13.875 C 17.699219 14.175781 16.726562 13.949219 15.75 13.574219 L 13.726562 12.675781 C 12.898438 12.300781 12 12.148438 11.101562 12.375 C 10.574219 12.523438 9.976562 12.75 9.449219 12.976562 C 8.773438 13.273438 8.175781 13.574219 7.5 13.800781 C 6.675781 14.101562 5.851562 14.175781 5.023438 13.875 C 4.199219 13.574219 3.601562 12.976562 3.675781 11.851562 C 3.75 11.324219 3.898438 10.875 4.425781 10.726562 C 4.726562 10.574219 5.101562 10.574219 5.398438 10.726562 C 5.925781 10.949219 5.925781 11.476562 5.550781 11.773438 Z M 5.550781 11.773438 "/>
</g>
</svg>
