
<svg xmlns="http://www.w3.org/2000/svg" xmlns:xlink="http://www.w3.org/1999/xlink" width="16px" height="16px" viewBox="0 0 16 16" version="1.1">
<g id="surface1">
<path style=" stroke:none;fill-rule:nonzero;fill:rgb(0%,38.039216%,54.11765%);fill-opacity:1;" d="M 15.683594 15.347656 L 15.359375 15.03125 C 15.046875 14.621094 14.648438 14.257812 14.230469 13.957031 C 13.898438 13.71875 13.148438 13.394531 13.007812 13.007812 L 12.984375 12.980469 C 13.21875 12.957031 13.496094 12.871094 13.714844 12.8125 C 14.082031 12.714844 14.382812 12.738281 14.761719 12.640625 C 14.933594 12.59375 15.125 12.542969 15.25 12.496094 L 15.25 12.398438 C 15.125 12.199219 14.945312 11.941406 14.738281 11.761719 C 14.191406 11.296875 13.609375 10.832031 12.992188 10.445312 C 12.652344 10.230469 12.238281 10.089844 11.878906 9.910156 C 11.757812 9.847656 11.546875 9.816406 11.464844 9.714844 C 11.277344 9.472656 11.175781 9.164062 11.03125 8.882812 C 10.722656 8.296875 10.421875 7.652344 10.152344 7.03125 C 9.96875 6.609375 9.847656 6.191406 9.617188 5.8125 C 8.507812 3.992188 7.316406 2.890625 5.46875 1.8125 C 5.078125 1.582031 4.605469 1.492188 4.105469 1.371094 C 3.835938 1.355469 3.566406 1.339844 3.300781 1.324219 C 3.136719 1.253906 2.964844 1.054688 2.8125 0.957031 C 2.199219 0.570312 0.628906 -0.269531 0.175781 0.835938 C -0.109375 1.53125 0.605469 2.214844 0.859375 2.566406 C 1.039062 2.816406 1.269531 3.09375 1.398438 3.371094 C 1.480469 3.554688 1.496094 3.738281 1.566406 3.933594 C 1.746094 4.410156 1.898438 4.929688 2.128906 5.371094 C 2.246094 5.59375 2.371094 5.832031 2.519531 6.03125 C 2.609375 6.152344 2.761719 6.207031 2.785156 6.394531 C 2.636719 6.605469 2.628906 6.933594 2.542969 7.203125 C 2.160156 8.402344 2.304688 9.898438 2.859375 10.785156 C 3.03125 11.058594 3.429688 11.644531 3.980469 11.421875 C 4.464844 11.226562 4.386719 10.617188 4.523438 10.078125 C 4.554688 9.957031 4.5 9.867188 4.625 9.785156 L 4.625 9.8125 C 4.75 10.105469 4.890625 10.398438 5.035156 10.6875 C 5.359375 11.210938 5.894531 11.757812 6.386719 12.128906 C 6.636719 12.320312 6.875 12.652344 7.125 12.761719 L 7.125 12.75 L 7.152344 12.75 C 7.089844 12.625 6.988281 12.605469 6.910156 12.523438 C 6.71875 12.335938 6.503906 12.101562 6.347656 11.886719 C 5.902344 11.285156 5.511719 10.621094 5.152344 9.933594 C 4.980469 9.605469 4.832031 9.242188 4.6875 8.910156 C 4.632812 8.78125 4.632812 8.585938 4.519531 8.519531 C 4.359375 8.761719 4.128906 8.960938 4.007812 9.25 C 3.8125 9.710938 3.785156 10.277344 3.714844 10.859375 C 3.671875 10.875 3.691406 10.863281 3.664062 10.882812 C 3.324219 10.800781 3.207031 10.453125 3.078125 10.152344 C 2.761719 9.394531 2.699219 8.171875 2.980469 7.300781 C 3.054688 7.074219 3.382812 6.363281 3.25 6.152344 C 3.1875 5.945312 2.976562 5.824219 2.859375 5.664062 C 2.714844 5.46875 2.570312 5.207031 2.46875 4.980469 C 2.207031 4.390625 2.085938 3.726562 1.8125 3.128906 C 1.679688 2.84375 1.457031 2.554688 1.273438 2.300781 C 1.074219 2.015625 0.847656 1.808594 0.6875 1.46875 C 0.632812 1.347656 0.558594 1.15625 0.640625 1.03125 C 0.667969 0.945312 0.703125 0.910156 0.785156 0.882812 C 0.929688 0.773438 1.320312 0.921875 1.46875 0.980469 C 1.859375 1.144531 2.1875 1.292969 2.519531 1.511719 C 2.675781 1.617188 2.839844 1.75 3.03125 1.875 L 3.25 1.875 C 3.59375 1.875 3.976562 1.902344 4.300781 2 C 4.867188 2.171875 5.375 2.445312 5.835938 2.734375 C 7.242188 3.625 8.390625 4.886719 9.175781 6.394531 C 9.304688 6.636719 9.359375 6.871094 9.46875 7.128906 C 9.695312 7.648438 9.976562 8.179688 10.203125 8.6875 C 10.425781 9.195312 10.640625 9.707031 10.957031 10.128906 C 11.125 10.347656 11.765625 10.46875 12.054688 10.589844 C 12.257812 10.675781 12.59375 10.765625 12.785156 10.882812 C 13.15625 11.105469 13.511719 11.371094 13.859375 11.617188 C 14.03125 11.738281 14.566406 12.003906 14.589844 12.226562 C 13.734375 12.203125 13.078125 12.28125 12.519531 12.519531 C 12.359375 12.585938 12.105469 12.585938 12.078125 12.785156 C 12.167969 12.878906 12.179688 13.015625 12.25 13.128906 C 12.382812 13.34375 12.609375 13.632812 12.8125 13.785156 C 13.03125 13.953125 13.257812 14.128906 13.492188 14.273438 C 13.914062 14.53125 14.382812 14.675781 14.785156 14.933594 C 15.023438 15.082031 15.28125 15.273438 15.511719 15.445312 C 15.628906 15.527344 15.625 15.660156 15.875 15.714844 L 15.875 15.6875 C 15.75 15.589844 15.757812 15.453125 15.683594 15.347656 Z M 3.6875 2.933594 C 3.511719 2.929688 3.375 2.953125 3.25 2.980469 L 3.25 3 L 3.273438 3 C 3.359375 3.125 3.511719 3.292969 3.617188 3.441406 L 3.859375 3.957031 L 3.882812 3.933594 C 4.035156 3.824219 4.105469 3.65625 4.105469 3.394531 C 4.042969 3.332031 4.035156 3.253906 3.980469 3.175781 C 3.914062 3.074219 3.777344 3.019531 3.6875 2.933594 Z M 3.6875 2.933594 "/>
</g>
</svg>
