
<svg xmlns="http://www.w3.org/2000/svg" xmlns:xlink="http://www.w3.org/1999/xlink" width="16px" height="16px" viewBox="0 0 16 16" version="1.1">
<g id="surface1">
<path style=" stroke:none;fill-rule:nonzero;fill:rgb(87.450981%,13.725491%,30.980393%);fill-opacity:1;" d="M 9.425781 0.0390625 C 9.3125 0.0390625 9.199219 0.0625 9.101562 0.101562 C 9.3125 0.238281 9.425781 0.425781 9.488281 0.636719 C 9.488281 0.664062 9.5 0.6875 9.5 0.710938 C 9.5 0.738281 9.511719 0.761719 9.511719 0.789062 C 9.523438 1.148438 9.414062 1.199219 9.335938 1.414062 C 9.210938 1.6875 9.25 1.988281 9.398438 2.226562 C 9.414062 2.25 9.425781 2.289062 9.449219 2.3125 C 9.289062 1.261719 10.164062 1.113281 10.324219 0.789062 C 10.335938 0.5 10.101562 0.3125 9.914062 0.175781 C 9.726562 0.0625 9.574219 0.0390625 9.425781 0.0390625 Z M 10.738281 0.261719 C 10.726562 0.363281 10.738281 0.335938 10.726562 0.386719 C 10.726562 0.425781 10.726562 0.460938 10.710938 0.5 C 10.699219 0.539062 10.699219 0.5625 10.6875 0.601562 C 10.675781 0.636719 10.664062 0.664062 10.648438 0.699219 C 10.636719 0.726562 10.625 0.75 10.613281 0.789062 C 10.601562 0.800781 10.585938 0.824219 10.574219 0.835938 C 10.5625 0.851562 10.5625 0.863281 10.550781 0.875 C 10.523438 0.898438 10.511719 0.9375 10.488281 0.960938 C 10.460938 0.988281 10.4375 1.011719 10.414062 1.039062 C 10.386719 1.0625 10.363281 1.085938 10.335938 1.101562 C 10.25 1.164062 10.148438 1.210938 10.0625 1.273438 C 10.039062 1.300781 10 1.3125 9.976562 1.335938 C 9.949219 1.363281 9.925781 1.375 9.898438 1.398438 C 9.875 1.425781 9.851562 1.449219 9.824219 1.476562 C 9.800781 1.5 9.773438 1.523438 9.761719 1.5625 C 9.738281 1.585938 9.726562 1.625 9.699219 1.648438 C 9.6875 1.6875 9.675781 1.710938 9.648438 1.75 C 9.636719 1.789062 9.625 1.8125 9.613281 1.851562 C 9.601562 1.886719 9.585938 1.925781 9.585938 1.949219 C 9.585938 1.960938 9.585938 1.988281 9.574219 2 C 9.574219 2.011719 9.574219 2.039062 9.5625 2.050781 C 9.5625 2.085938 9.5625 2.125 9.5625 2.148438 C 9.5625 2.175781 9.5625 2.199219 9.5625 2.226562 C 9.5625 2.261719 9.5625 2.289062 9.574219 2.324219 C 9.574219 2.363281 9.585938 2.386719 9.601562 2.425781 C 9.613281 2.460938 9.625 2.488281 9.636719 2.523438 C 9.648438 2.550781 9.664062 2.5625 9.664062 2.585938 L 8.710938 2.226562 C 8.550781 2.175781 8.398438 2.136719 8.238281 2.101562 C 8.148438 2.074219 8.0625 2.0625 7.976562 2.039062 C 7.726562 1.988281 7.476562 1.949219 7.226562 1.925781 C 7.210938 1.925781 7.210938 1.925781 7.199219 1.925781 C 6.949219 1.898438 6.710938 1.886719 6.460938 1.886719 C 6.273438 1.886719 6.101562 1.898438 5.925781 1.914062 C 5.675781 1.925781 5.425781 1.960938 5.175781 2 C 5.113281 2.011719 5.050781 2.023438 4.988281 2.039062 C 4.863281 2.0625 4.738281 2.085938 4.613281 2.125 C 4.550781 2.136719 4.488281 2.164062 4.425781 2.175781 C 4.363281 2.199219 4.300781 2.226562 4.25 2.25 C 4.199219 2.273438 4.164062 2.289062 4.113281 2.3125 C 4.101562 2.3125 4.101562 2.3125 4.085938 2.324219 C 4.050781 2.351562 4.011719 2.363281 3.976562 2.386719 C 3.960938 2.386719 3.949219 2.398438 3.949219 2.398438 C 3.898438 2.425781 3.863281 2.449219 3.824219 2.460938 C 3.800781 2.476562 3.761719 2.488281 3.738281 2.5 C 3.726562 2.511719 3.710938 2.511719 3.699219 2.523438 C 3.664062 2.550781 3.625 2.5625 3.585938 2.585938 C 3.550781 2.613281 3.511719 2.625 3.488281 2.648438 C 3.460938 2.675781 3.425781 2.6875 3.398438 2.710938 C 3.398438 2.710938 3.386719 2.710938 3.386719 2.726562 C 3.363281 2.738281 3.335938 2.761719 3.3125 2.789062 C 3.3125 2.789062 3.3125 2.789062 3.300781 2.800781 C 3.273438 2.8125 3.261719 2.835938 3.238281 2.851562 C 3.226562 2.851562 3.226562 2.863281 3.210938 2.863281 C 3.1875 2.875 3.175781 2.898438 3.148438 2.914062 C 3.148438 2.925781 3.136719 2.925781 3.136719 2.925781 C 3.113281 2.949219 3.085938 2.976562 3.0625 3 C 3.0625 3 3.0625 3 3.050781 3.011719 C 3.023438 3.039062 3 3.0625 2.976562 3.085938 C 2.976562 3.085938 2.976562 3.101562 2.960938 3.101562 C 2.9375 3.125 2.925781 3.136719 2.898438 3.164062 C 2.886719 3.175781 2.875 3.175781 2.875 3.1875 C 2.851562 3.210938 2.824219 3.238281 2.800781 3.261719 C 2.800781 3.273438 2.789062 3.273438 2.789062 3.289062 C 2.75 3.324219 2.726562 3.351562 2.6875 3.386719 C 2.6875 3.386719 2.675781 3.398438 2.675781 3.398438 C 2.613281 3.476562 2.539062 3.539062 2.460938 3.601562 C 2.386719 3.664062 2.3125 3.726562 2.226562 3.789062 C 2.136719 3.851562 2.0625 3.898438 1.976562 3.949219 C 1.886719 4 1.800781 4.039062 1.710938 4.074219 C 1.625 4.113281 1.539062 4.148438 1.449219 4.175781 C 1.273438 4.210938 1.101562 4.289062 0.949219 4.300781 C 0.949219 4.238281 0.914062 4.25 0.875 4.25 C 0.835938 4.261719 0.800781 4.261719 0.773438 4.273438 C 0.738281 4.289062 0.710938 4.300781 0.675781 4.3125 C 0.636719 4.324219 0.613281 4.335938 0.574219 4.363281 C 0.550781 4.386719 0.511719 4.398438 0.488281 4.425781 C 0.460938 4.449219 0.425781 4.476562 0.398438 4.5 C 0.375 4.523438 0.335938 4.550781 0.3125 4.574219 C 0.289062 4.601562 0.261719 4.625 0.238281 4.664062 C 0.210938 4.699219 0.1875 4.726562 0.175781 4.761719 C 0.148438 4.789062 0.136719 4.824219 0.113281 4.863281 C 0.101562 4.898438 0.0742188 4.9375 0.0625 4.976562 C 0.0507812 5.011719 0.0390625 5.050781 0.0234375 5.085938 C 0.0117188 5.125 0.0117188 5.148438 0 5.1875 C 0 5.1875 0 5.199219 0 5.199219 C -0.0117188 5.238281 -0.0117188 5.289062 -0.0117188 5.3125 C 0 5.300781 0 5.324219 0 5.351562 C 0 5.363281 0 5.386719 0 5.398438 C 0 5.425781 0.0117188 5.449219 0.0117188 5.476562 C 0.0234375 5.5 0.0234375 5.523438 0.0390625 5.550781 C 0.0507812 5.574219 0.0625 5.601562 0.0859375 5.625 C 0.101562 5.648438 0.125 5.675781 0.136719 5.699219 C 0.164062 5.726562 0.1875 5.75 0.210938 5.761719 C 0.238281 5.789062 0.261719 5.8125 0.289062 5.824219 C 0.386719 5.914062 0.414062 5.9375 0.539062 6.011719 C 0.5625 6.023438 0.574219 6.039062 0.601562 6.050781 C 0.601562 6.050781 0.613281 6.050781 0.613281 6.050781 C 0.613281 6.0625 0.613281 6.0625 0.613281 6.074219 C 0.613281 6.113281 0.625 6.136719 0.636719 6.175781 C 0.648438 6.210938 0.664062 6.25 0.675781 6.273438 C 0.6875 6.300781 0.699219 6.324219 0.710938 6.351562 C 0.710938 6.363281 0.726562 6.363281 0.726562 6.375 C 0.738281 6.414062 0.761719 6.4375 0.773438 6.460938 C 0.800781 6.488281 0.8125 6.523438 0.835938 6.550781 C 0.863281 6.574219 0.886719 6.601562 0.914062 6.625 C 0.9375 6.648438 0.960938 6.675781 0.988281 6.699219 C 0.988281 6.699219 0.988281 6.699219 1 6.699219 C 1.023438 6.726562 1.050781 6.738281 1.074219 6.761719 C 1.101562 6.789062 1.136719 6.800781 1.164062 6.8125 C 1.1875 6.824219 1.226562 6.851562 1.261719 6.863281 C 1.289062 6.875 1.3125 6.886719 1.351562 6.886719 C 1.351562 6.886719 1.363281 6.886719 1.363281 6.898438 C 1.375 6.898438 1.398438 6.914062 1.414062 6.914062 C 1.398438 7.136719 1.398438 7.351562 1.425781 7.425781 C 1.460938 7.511719 1.648438 7.25 1.824219 6.960938 C 1.800781 7.25 1.789062 7.585938 1.824219 7.6875 C 1.875 7.789062 2.113281 7.460938 2.335938 7.113281 C 5.261719 6.4375 7.9375 8.460938 8.226562 11.324219 C 8.175781 10.875 7.625 10.625 7.363281 10.6875 C 7.238281 10.988281 7.023438 11.386719 6.6875 11.625 C 6.710938 11.351562 6.699219 11.074219 6.648438 10.800781 C 6.5625 11.175781 6.386719 11.539062 6.136719 11.835938 C 5.75 11.863281 5.351562 11.675781 5.148438 11.386719 C 5.136719 11.375 5.125 11.351562 5.113281 11.335938 C 5.101562 11.3125 5.085938 11.273438 5.074219 11.25 C 5.0625 11.226562 5.050781 11.1875 5.050781 11.164062 C 5.050781 11.136719 5.050781 11.101562 5.050781 11.074219 C 5.050781 11.050781 5.050781 11.039062 5.050781 11.011719 C 5.050781 10.988281 5.0625 10.949219 5.074219 10.925781 C 5.085938 10.898438 5.085938 10.863281 5.101562 10.835938 C 5.113281 10.8125 5.125 10.773438 5.148438 10.75 C 5.226562 10.550781 5.226562 10.386719 5.085938 10.300781 C 5.0625 10.289062 5.039062 10.273438 5.011719 10.261719 C 5 10.261719 4.976562 10.25 4.960938 10.25 C 4.949219 10.25 4.9375 10.238281 4.925781 10.238281 C 4.898438 10.226562 4.863281 10.226562 4.835938 10.210938 C 4.8125 10.199219 4.773438 10.199219 4.75 10.199219 C 4.726562 10.199219 4.6875 10.1875 4.664062 10.1875 C 4.636719 10.1875 4.625 10.1875 4.601562 10.1875 C 4.5625 10.1875 4.539062 10.1875 4.511719 10.199219 C 4.488281 10.199219 4.449219 10.210938 4.425781 10.210938 C 4.398438 10.226562 4.363281 10.226562 4.335938 10.238281 C 4.3125 10.25 4.289062 10.261719 4.25 10.273438 C 4.226562 10.289062 4.199219 10.300781 4.175781 10.3125 C 3.210938 10.9375 3.789062 12.414062 4.4375 12.835938 C 4.1875 12.886719 3.9375 12.9375 3.863281 12.988281 C 3.863281 12.988281 3.851562 13 3.851562 13 C 4.023438 13.113281 4.210938 13.199219 4.414062 13.273438 C 4.675781 13.363281 4.960938 13.4375 5.085938 13.476562 C 5.425781 13.550781 5.773438 13.574219 6.125 13.550781 C 7.949219 13.425781 9.449219 12.023438 9.726562 10.199219 C 9.738281 10.238281 9.738281 10.273438 9.75 10.3125 C 9.761719 10.386719 9.773438 10.460938 9.789062 10.550781 C 9.800781 10.585938 9.800781 10.625 9.800781 10.664062 L 9.800781 10.675781 C 9.800781 10.710938 9.8125 10.75 9.8125 10.789062 C 9.8125 10.835938 9.824219 10.875 9.824219 10.925781 L 9.824219 10.988281 C 9.824219 11.011719 9.824219 11.039062 9.824219 11.050781 C 9.824219 11.074219 9.824219 11.101562 9.824219 11.125 L 9.824219 11.1875 C 9.824219 11.210938 9.824219 11.238281 9.824219 11.273438 C 9.824219 11.289062 9.824219 11.3125 9.824219 11.324219 C 9.824219 11.351562 9.824219 11.386719 9.824219 11.414062 C 9.824219 11.425781 9.824219 11.4375 9.824219 11.449219 C 9.824219 11.488281 9.8125 11.511719 9.8125 11.550781 C 9.8125 11.5625 9.8125 11.574219 9.8125 11.585938 C 9.8125 11.625 9.800781 11.664062 9.800781 11.710938 C 9.789062 11.75 9.789062 11.789062 9.773438 11.824219 L 9.773438 11.835938 C 9.761719 11.875 9.761719 11.914062 9.75 11.949219 C 9.75 11.949219 9.75 11.960938 9.75 11.960938 C 9.738281 12 9.738281 12.039062 9.726562 12.074219 L 9.726562 12.085938 C 9.710938 12.125 9.699219 12.164062 9.6875 12.199219 C 9.6875 12.199219 9.6875 12.210938 9.6875 12.210938 C 9.675781 12.25 9.664062 12.300781 9.648438 12.335938 C 9.636719 12.375 9.625 12.414062 9.601562 12.460938 C 9.585938 12.5 9.574219 12.550781 9.550781 12.585938 C 9.539062 12.625 9.511719 12.664062 9.5 12.710938 C 9.488281 12.75 9.460938 12.789062 9.449219 12.824219 C 9.449219 12.835938 9.4375 12.851562 9.4375 12.851562 C 9.4375 12.851562 9.4375 12.863281 9.425781 12.863281 C 9.164062 13.398438 8.761719 13.875 8.261719 14.25 C 8.226562 14.273438 8.199219 14.300781 8.164062 14.324219 C 8.148438 14.335938 8.136719 14.335938 8.136719 14.351562 C 8.113281 14.375 8.074219 14.386719 8.050781 14.414062 L 8.0625 14.4375 C 8.125 14.425781 8.175781 14.425781 8.238281 14.414062 C 8.351562 14.398438 8.449219 14.375 8.5625 14.351562 C 8.585938 14.351562 8.625 14.335938 8.648438 14.324219 C 8.675781 14.324219 8.6875 14.3125 8.710938 14.3125 C 8.738281 14.3125 8.773438 14.300781 8.800781 14.300781 C 8.824219 14.289062 8.851562 14.289062 8.875 14.273438 C 9.289062 14.175781 9.6875 14.039062 10.074219 13.875 C 9.414062 14.773438 8.539062 15.5 7.511719 15.976562 C 7.988281 15.9375 8.460938 15.863281 8.925781 15.726562 C 10.585938 15.238281 11.988281 14.113281 12.824219 12.601562 C 12.648438 13.550781 12.273438 14.460938 11.710938 15.261719 C 12.113281 15 12.476562 14.6875 12.8125 14.351562 C 13.738281 13.386719 14.351562 12.148438 14.550781 10.835938 C 14.6875 11.488281 14.738281 12.164062 14.675781 12.824219 C 17.664062 8.664062 14.925781 4.351562 13.773438 3.210938 C 13.773438 3.199219 13.761719 3.199219 13.761719 3.1875 C 13.761719 3.1875 13.761719 3.1875 13.761719 3.199219 C 13.761719 3.199219 13.761719 3.199219 13.761719 3.1875 C 13.761719 3.238281 13.761719 3.289062 13.75 3.335938 C 13.738281 3.4375 13.726562 3.523438 13.710938 3.613281 C 13.6875 3.699219 13.664062 3.800781 13.636719 3.886719 C 13.613281 3.976562 13.574219 4.0625 13.539062 4.148438 C 13.5 4.238281 13.460938 4.324219 13.414062 4.398438 C 13.363281 4.476562 13.3125 4.5625 13.261719 4.636719 C 13.210938 4.710938 13.148438 4.789062 13.085938 4.863281 C 13.023438 4.9375 12.960938 5 12.886719 5.074219 C 12.851562 5.113281 12.8125 5.148438 12.761719 5.175781 C 12.726562 5.199219 12.699219 5.226562 12.664062 5.261719 C 12.585938 5.324219 12.511719 5.375 12.425781 5.425781 C 12.351562 5.476562 12.261719 5.523438 12.175781 5.5625 C 12.085938 5.601562 12 5.636719 11.914062 5.675781 C 11.824219 5.710938 11.738281 5.738281 11.648438 5.761719 C 11.5625 5.789062 11.460938 5.8125 11.375 5.824219 C 11.273438 5.835938 11.1875 5.851562 11.101562 5.863281 C 11.039062 5.863281 10.960938 5.875 10.898438 5.875 C 10.800781 5.875 10.710938 5.863281 10.625 5.863281 C 10.523438 5.851562 10.4375 5.835938 10.351562 5.824219 C 10.25 5.8125 10.164062 5.789062 10.074219 5.75 C 10.164062 5.738281 10.261719 5.738281 10.351562 5.710938 C 10.449219 5.699219 10.539062 5.675781 10.625 5.648438 C 10.710938 5.625 10.8125 5.601562 10.886719 5.5625 C 10.976562 5.523438 11.0625 5.488281 11.148438 5.449219 C 11.238281 5.414062 11.3125 5.363281 11.398438 5.3125 C 11.476562 5.261719 11.5625 5.199219 11.636719 5.148438 C 11.710938 5.085938 11.789062 5.023438 11.851562 4.960938 C 11.925781 4.898438 11.988281 4.824219 12.050781 4.761719 C 12.113281 4.6875 12.175781 4.613281 12.226562 4.539062 C 12.238281 4.523438 12.238281 4.511719 12.25 4.5 C 12.289062 4.4375 12.335938 4.363281 12.375 4.300781 C 12.425781 4.210938 12.460938 4.136719 12.5 4.050781 C 12.539062 3.960938 12.574219 3.875 12.601562 3.789062 C 12.625 3.699219 12.648438 3.613281 12.675781 3.523438 C 12.6875 3.425781 12.710938 3.335938 12.710938 3.25 C 12.726562 3.148438 12.726562 3.0625 12.726562 2.976562 C 12.726562 2.914062 12.726562 2.835938 12.710938 2.773438 C 12.699219 2.675781 12.6875 2.585938 12.675781 2.5 C 12.664062 2.398438 12.636719 2.3125 12.613281 2.226562 C 12.585938 2.136719 12.550781 2.050781 12.523438 1.960938 C 12.488281 1.875 12.449219 1.789062 12.414062 1.710938 C 12.363281 1.625 12.324219 1.550781 12.273438 1.460938 C 12.226562 1.386719 12.164062 1.3125 12.113281 1.238281 C 12.050781 1.164062 11.988281 1.101562 11.925781 1.023438 C 11.886719 0.988281 11.851562 0.949219 11.8125 0.925781 C 11.625 0.773438 11.4375 0.648438 11.238281 0.523438 C 11.210938 0.511719 11.1875 0.5 11.148438 0.488281 C 10.988281 0.351562 10.863281 0.3125 10.738281 0.261719 Z M 10.738281 0.261719 "/>
</g>
</svg>
