
<svg xmlns="http://www.w3.org/2000/svg" xmlns:xlink="http://www.w3.org/1999/xlink" width="24px" height="24px" viewBox="0 0 24 24" version="1.1">
<g id="surface1">
<path style=" stroke:none;fill-rule:nonzero;fill:rgb(0%,0%,0%);fill-opacity:1;" d="M 12.976562 4.5 C 12.976562 4.574219 13.050781 4.574219 13.050781 4.648438 L 16.574219 8.175781 C 16.648438 8.25 16.648438 8.324219 16.648438 8.398438 L 16.648438 10.648438 C 16.351562 10.5 16.050781 10.425781 15.675781 10.273438 L 15.675781 9.148438 L 12.898438 9.148438 C 12.300781 9.148438 11.925781 8.773438 11.925781 8.175781 L 11.925781 5.476562 L 6.300781 5.476562 L 6.300781 18.601562 L 10.125 18.601562 C 10.199219 18.601562 10.273438 18.601562 10.351562 18.675781 C 10.574219 18.898438 10.875 19.199219 11.175781 19.425781 L 11.25 19.5 L 6.148438 19.5 C 5.476562 19.351562 5.324219 18.898438 5.324219 18.375 L 5.324219 5.476562 C 5.324219 5.023438 5.550781 4.726562 5.925781 4.574219 C 6.074219 4.574219 6.148438 4.5 6.226562 4.5 Z M 15.75 8.25 L 12.976562 5.476562 L 12.976562 8.25 Z M 15.75 8.25 "/>
<path style=" stroke:none;fill-rule:nonzero;fill:rgb(0%,0%,0%);fill-opacity:1;" d="M 14.023438 19.5 C 13.726562 19.425781 13.5 19.425781 13.199219 19.351562 C 11.550781 18.898438 10.351562 17.398438 10.199219 15.75 C 9.976562 13.5 11.550781 11.476562 13.800781 11.175781 C 16.125 10.875 18.375 12.523438 18.601562 14.925781 L 18.601562 15.75 C 18.449219 17.398438 17.25 18.898438 15.601562 19.351562 C 15.300781 19.425781 15 19.5 14.773438 19.5 Z M 14.324219 12 C 12.523438 12 11.023438 13.5 11.023438 15.300781 C 11.023438 17.101562 12.523438 18.601562 14.324219 18.523438 C 16.125 18.523438 17.625 17.023438 17.625 15.226562 C 17.625 13.425781 16.125 12 14.324219 12 Z M 14.324219 12 "/>
<path style=" stroke:none;fill-rule:nonzero;fill:rgb(0%,0%,0%);fill-opacity:1;" d="M 14.851562 14.851562 L 15.75 14.851562 C 16.050781 14.851562 16.273438 15.074219 16.273438 15.300781 C 16.273438 15.601562 16.050781 15.75 15.75 15.75 L 14.851562 15.75 L 14.851562 16.800781 C 14.773438 17.023438 14.550781 17.175781 14.324219 17.175781 C 14.101562 17.175781 13.875 16.949219 13.875 16.726562 L 13.875 15.75 L 12.898438 15.75 C 12.675781 15.75 12.449219 15.523438 12.449219 15.300781 C 12.449219 15.074219 12.675781 14.851562 12.898438 14.851562 L 13.875 14.851562 L 13.875 13.875 C 13.875 13.648438 14.101562 13.425781 14.324219 13.425781 C 14.550781 13.425781 14.773438 13.648438 14.773438 13.875 L 14.773438 14.25 C 14.851562 14.398438 14.851562 14.550781 14.851562 14.851562 C 14.851562 14.773438 14.851562 14.773438 14.851562 14.851562 Z M 14.851562 14.851562 "/>
</g>
</svg>
