
<svg xmlns="http://www.w3.org/2000/svg" xmlns:xlink="http://www.w3.org/1999/xlink" width="24px" height="24px" viewBox="0 0 24 24" version="1.1">
<g id="surface1">
<path style=" stroke:none;fill-rule:evenodd;fill:rgb(95.294118%,83.137256%,0%);fill-opacity:1;" d="M 11.949219 7.5 L 10.921875 8.300781 C 10.386719 8.285156 9.339844 8.402344 8.769531 8.609375 C 8.25 8.28125 7.789062 7.914062 7.789062 7.914062 L 7.148438 8.984375 C 6.78125 9.179688 6.414062 9.398438 6.085938 9.691406 L 5.25 9.347656 C 5.753906 10.367188 6.089844 11.382812 7.015625 11.996094 C 8.488281 9.675781 15.316406 9.894531 16.816406 11.984375 C 17.785156 11.480469 18.160156 10.394531 18.542969 9.386719 C 18.242188 9.488281 17.941406 9.59375 17.644531 9.703125 C 17.445312 9.484375 16.972656 9.148438 16.703125 8.984375 C 16.449219 8.519531 16.078125 7.886719 16.078125 7.886719 C 16.078125 7.886719 15.636719 8.214844 15.128906 8.570312 C 14.4375 8.445312 13.605469 8.289062 12.90625 8.328125 C 12.429688 7.9375 11.949219 7.5 11.949219 7.5 Z M 11.949219 7.5 "/>
<path style=" stroke:none;fill-rule:evenodd;fill:rgb(100%,91.37255%,32.549021%);fill-opacity:1;" d="M 5.773438 11.511719 L 6.984375 14.449219 C 9.089844 17.226562 14.464844 17.414062 16.808594 14.5 L 18.113281 11.496094 C 17.511719 12.386719 16.53125 13 15.929688 13.332031 C 15.5 13.566406 14.511719 13.710938 14.511719 13.710938 L 11.921875 12.367188 L 9.3125 13.683594 C 9.3125 13.683594 8.335938 13.527344 7.894531 13.320312 C 7.003906 12.84375 6.40625 12.28125 5.773438 11.511719 Z M 5.773438 11.511719 "/>
</g>
</svg>
