
<svg xmlns="http://www.w3.org/2000/svg" xmlns:xlink="http://www.w3.org/1999/xlink" width="16px" height="16px" viewBox="0 0 16 16" version="1.1">
<g id="surface1">
<path style=" stroke:none;fill-rule:nonzero;fill:rgb(23.921569%,23.137255%,27.843139%);fill-opacity:1;" d="M 8.710938 7.726562 C 8.625 7.574219 8.460938 7.460938 8.273438 7.460938 L 8.238281 7.460938 C 7.949219 7.460938 7.726562 7.6875 7.699219 7.960938 C 7.6875 8.074219 7.710938 8.175781 7.773438 8.273438 C 7.863281 8.425781 8.023438 8.539062 8.210938 8.539062 L 8.25 8.539062 C 8.539062 8.539062 8.773438 8.3125 8.789062 8.039062 C 8.800781 7.925781 8.773438 7.824219 8.710938 7.726562 Z M 8.238281 8.1875 C 8.136719 8.175781 8.050781 8.085938 8.0625 7.988281 C 8.074219 7.886719 8.164062 7.800781 8.261719 7.8125 C 8.363281 7.824219 8.449219 7.914062 8.4375 8.011719 C 8.4375 8.113281 8.335938 8.199219 8.238281 8.1875 Z M 14.761719 3.675781 L 8.738281 0.199219 C 8.476562 0.0507812 8.039062 0.0507812 7.773438 0.199219 L 1.738281 3.675781 C 1.476562 3.824219 1.25 4.199219 1.25 4.511719 L 1.25 11.476562 C 1.25 11.789062 1.460938 12.164062 1.738281 12.3125 L 7.761719 15.800781 C 8.023438 15.949219 8.460938 15.949219 8.726562 15.800781 L 14.75 12.3125 C 15.011719 12.164062 15.238281 11.789062 15.238281 11.476562 L 15.238281 4.511719 C 15.25 4.210938 15.023438 3.835938 14.761719 3.675781 Z M 2.75 11.238281 L 7.6875 7.476562 L 7.6875 7.488281 C 7.574219 7.613281 7.5 7.773438 7.488281 7.949219 C 7.476562 8.101562 7.511719 8.25 7.585938 8.386719 C 7.710938 8.613281 7.9375 8.75 8.199219 8.761719 L 8.25 8.761719 C 8.3125 8.761719 8.363281 8.75 8.414062 8.738281 Z M 8.25 8.574219 L 8.210938 8.574219 C 8.023438 8.5625 7.851562 8.460938 7.75 8.289062 C 7.6875 8.1875 7.664062 8.074219 7.675781 7.960938 C 7.699219 7.664062 7.949219 7.425781 8.25 7.425781 L 8.289062 7.425781 C 8.476562 7.4375 8.648438 7.550781 8.75 7.710938 C 8.8125 7.8125 8.835938 7.925781 8.824219 8.039062 C 8.800781 8.335938 8.550781 8.574219 8.25 8.574219 Z M 8.800781 8.523438 C 8.925781 8.398438 9 8.238281 9.011719 8.050781 C 9.023438 7.898438 8.988281 7.75 8.914062 7.613281 C 8.789062 7.386719 8.550781 7.25 8.300781 7.238281 C 8.226562 7.238281 8.136719 7.238281 8.0625 7.261719 L 13.789062 4.851562 Z M 8.800781 8.523438 "/>
</g>
</svg>
