
<svg xmlns="http://www.w3.org/2000/svg" xmlns:xlink="http://www.w3.org/1999/xlink" width="16px" height="16px" viewBox="0 0 16 16" version="1.1">
<g id="surface1">
<path style=" stroke:none;fill-rule:nonzero;fill:rgb(51.372552%,80.392158%,16.078432%);fill-opacity:1;" d="M 14.085938 3.792969 L 8.566406 0.589844 C 8.21875 0.394531 7.765625 0.394531 7.414062 0.589844 L 1.851562 3.792969 C 1.492188 4 1.25 4.386719 1.25 4.800781 L 1.25 11.195312 C 1.25 11.609375 1.5 11.996094 1.859375 12.203125 L 3.324219 13.039062 C 4.027344 13.386719 4.222656 13.386719 4.542969 13.386719 C 5.582031 13.386719 6.125 12.757812 6.125 11.65625 L 6.125 5.347656 C 6.125 5.257812 6.179688 5.125 6.09375 5.125 L 5.390625 5.125 C 5.300781 5.125 5.125 5.257812 5.125 5.347656 L 5.125 11.65625 C 5.125 12.144531 4.671875 12.628906 3.851562 12.21875 L 2.335938 11.339844 C 2.28125 11.3125 2.25 11.253906 2.25 11.195312 L 2.25 4.800781 C 2.25 4.742188 2.308594 4.679688 2.363281 4.648438 L 7.910156 1.453125 C 7.960938 1.425781 8.035156 1.425781 8.085938 1.453125 L 13.582031 4.648438 C 13.632812 4.679688 13.625 4.738281 13.625 4.800781 L 13.625 11.195312 C 13.625 11.253906 13.636719 11.3125 13.585938 11.34375 L 8.066406 14.539062 C 8.019531 14.570312 7.960938 14.570312 7.90625 14.539062 L 6.492188 13.695312 C 6.449219 13.671875 6.398438 13.664062 6.359375 13.6875 C 5.964844 13.910156 5.890625 13.9375 5.523438 14.066406 C 5.433594 14.097656 5.296875 14.152344 5.574219 14.308594 L 7.421875 15.402344 C 7.601562 15.503906 7.800781 15.558594 8.003906 15.558594 C 8.210938 15.558594 8.410156 15.503906 8.585938 15.402344 L 14.085938 12.203125 C 14.445312 11.996094 14.625 11.609375 14.625 11.195312 L 14.625 4.800781 C 14.625 4.386719 14.445312 4 14.085938 3.792969 Z M 9.714844 10.179688 C 8.25 10.179688 7.925781 9.777344 7.820312 9.046875 C 7.808594 8.96875 7.742188 8.875 7.660156 8.875 L 6.945312 8.875 C 6.855469 8.875 6.785156 8.984375 6.785156 9.070312 C 6.785156 10.003906 7.292969 11.132812 9.714844 11.132812 C 11.46875 11.132812 12.476562 10.453125 12.476562 9.246094 C 12.476562 8.050781 11.667969 7.734375 9.964844 7.511719 C 8.246094 7.28125 8.070312 7.167969 8.070312 6.765625 C 8.070312 6.433594 8.21875 5.988281 9.492188 5.988281 C 10.632812 5.988281 11.050781 6.234375 11.222656 7 C 11.238281 7.074219 11.304688 7.125 11.378906 7.125 L 12.097656 7.125 C 12.140625 7.125 12.183594 7.105469 12.214844 7.074219 C 12.246094 7.042969 12.261719 7 12.257812 6.953125 C 12.144531 5.632812 11.269531 5.015625 9.492188 5.015625 C 7.914062 5.015625 6.972656 5.683594 6.972656 6.800781 C 6.972656 8.011719 7.910156 8.347656 9.425781 8.496094 C 11.238281 8.675781 11.378906 8.941406 11.378906 9.296875 C 11.378906 9.917969 10.882812 10.179688 9.714844 10.179688 Z M 9.714844 10.179688 "/>
</g>
</svg>
