
<svg xmlns="http://www.w3.org/2000/svg" xmlns:xlink="http://www.w3.org/1999/xlink" width="24px" height="24px" viewBox="0 0 24 24" version="1.1">
<g id="surface1">
<path style=" stroke:none;fill-rule:nonzero;fill:rgb(12.941177%,12.941177%,12.941177%);fill-opacity:1;" d="M 14.605469 5.25 C 15.445312 5.25 16.125 5.929688 16.125 6.769531 L 16.125 17.230469 C 16.125 18.070312 15.445312 18.75 14.605469 18.75 L 7.519531 18.75 C 6.679688 18.75 6 18.070312 6 17.230469 L 6 6.769531 C 6 5.929688 6.679688 5.25 7.519531 5.25 Z M 16.800781 14.027344 L 17.304688 14.027344 C 17.5625 14.027344 17.773438 14.21875 17.808594 14.464844 L 17.8125 14.53125 L 17.8125 15.542969 C 17.8125 15.796875 17.625 16.011719 17.375 16.046875 L 17.304688 16.050781 L 16.800781 16.050781 L 16.800781 14.027344 L 17.304688 14.027344 Z M 16.800781 11.328125 L 17.304688 11.328125 C 17.5625 11.328125 17.773438 11.515625 17.808594 11.765625 L 17.8125 11.832031 L 17.8125 12.84375 C 17.8125 13.097656 17.625 13.3125 17.375 13.34375 L 17.304688 13.351562 L 16.800781 13.351562 L 16.800781 11.328125 L 17.304688 11.328125 Z M 16.800781 8.625 L 17.304688 8.625 C 17.5625 8.625 17.773438 8.816406 17.808594 9.0625 L 17.8125 9.132812 L 17.8125 10.144531 C 17.8125 10.398438 17.625 10.609375 17.375 10.644531 L 17.304688 10.648438 L 16.800781 10.648438 L 16.800781 8.625 L 17.304688 8.625 Z M 13.257812 7.609375 L 8.871094 7.609375 C 8.617188 7.609375 8.402344 7.796875 8.367188 8.046875 L 8.363281 8.117188 L 8.363281 9.132812 C 8.363281 9.386719 8.554688 9.601562 8.800781 9.632812 L 8.871094 9.636719 L 13.257812 9.636719 C 13.511719 9.640625 13.726562 9.453125 13.761719 9.199219 L 13.765625 9.132812 L 13.765625 8.117188 C 13.765625 7.835938 13.539062 7.609375 13.257812 7.609375 Z M 13.257812 7.609375 "/>
</g>
</svg>
