
<svg xmlns="http://www.w3.org/2000/svg" xmlns:xlink="http://www.w3.org/1999/xlink" width="24px" height="24px" viewBox="0 0 24 24" version="1.1">
<g id="surface1">
<path style=" stroke:none;fill-rule:nonzero;fill:rgb(25.490198%,32.549021%,35.686275%);fill-opacity:1;" d="M 3 8.476562 L 3 14.476562 L 8.101562 14.476562 L 8.101562 15.523438 L 12.074219 15.523438 L 12.074219 14.550781 L 21 14.550781 L 21 8.476562 Z M 7.949219 13.5 L 6.976562 13.5 L 6.976562 10.574219 L 6 10.574219 L 6 13.5 L 3.976562 13.5 L 3.976562 9.523438 L 7.949219 9.523438 Z M 12.976562 13.5 L 10.949219 13.5 L 10.949219 14.550781 L 8.925781 14.550781 L 8.925781 9.601562 L 12.898438 9.601562 C 12.976562 10.800781 12.976562 12.148438 12.976562 13.5 Z M 19.949219 13.5 L 18.976562 13.5 L 18.976562 10.574219 L 18 10.574219 L 18 13.5 L 16.949219 13.5 L 16.949219 10.574219 L 15.976562 10.574219 L 15.976562 13.5 L 13.949219 13.5 L 13.949219 9.523438 L 19.949219 9.523438 Z M 11.925781 10.574219 L 10.949219 10.574219 L 10.949219 12.523438 L 11.925781 12.523438 Z M 11.925781 10.574219 "/>
</g>
</svg>
