
<svg xmlns="http://www.w3.org/2000/svg" xmlns:xlink="http://www.w3.org/1999/xlink" width="24px" height="24px" viewBox="0 0 24 24" version="1.1">
<g id="surface1">
<path style=" stroke:none;fill-rule:nonzero;fill:rgb(0%,0%,0%);fill-opacity:1;" d="M 19.5 17.925781 L 19.5 7.800781 C 19.5 7.5 19.5 7.199219 19.425781 6.898438 C 19.351562 6.449219 19.050781 6.074219 18.675781 5.773438 C 18.449219 5.625 18.226562 5.476562 17.925781 5.476562 C 17.851562 5.476562 17.851562 5.476562 17.851562 5.398438 L 6.074219 5.398438 C 6.074219 5.550781 5.851562 5.550781 5.773438 5.550781 C 5.175781 5.773438 4.800781 6.226562 4.574219 6.824219 C 4.5 6.976562 4.5 7.125 4.5 7.273438 L 4.5 10.726562 C 4.5 10.949219 4.5 10.949219 4.726562 10.875 C 4.875 10.800781 4.949219 10.800781 5.101562 10.726562 C 5.398438 10.648438 5.476562 10.351562 5.625 10.199219 C 5.773438 9.976562 5.851562 9.824219 6.074219 9.675781 C 6.226562 9.523438 6.375 9.523438 6.601562 9.675781 C 6.75 9.75 6.898438 9.898438 7.125 9.976562 C 7.351562 10.050781 7.648438 10.125 7.875 10.050781 C 8.101562 10.050781 8.175781 9.824219 8.25 9.675781 C 8.324219 9.523438 8.398438 9.375 8.476562 9.300781 C 8.625 9.226562 8.699219 9.226562 8.925781 9.226562 C 9.375 9.300781 9.675781 9.675781 9.976562 10.050781 C 10.050781 10.199219 10.125 10.273438 10.273438 10.351562 C 10.425781 10.425781 10.574219 10.574219 10.726562 10.726562 C 11.101562 11.175781 11.625 11.476562 12 11.851562 C 12.226562 12.074219 12.523438 12.300781 12.898438 12.449219 C 13.351562 12.601562 13.726562 12.675781 14.101562 12.148438 C 14.398438 11.773438 14.625 11.324219 14.699219 10.875 C 14.773438 10.648438 14.925781 10.5 15.074219 10.273438 L 15.148438 10.273438 C 15.523438 10.199219 15.898438 10.273438 16.199219 10.351562 C 16.351562 10.351562 16.425781 10.351562 16.574219 10.425781 C 16.875 10.5 17.175781 10.5 17.476562 10.648438 C 17.773438 10.800781 17.851562 11.101562 17.773438 11.398438 C 17.699219 11.699219 17.625 11.550781 17.476562 11.550781 L 17.25 11.550781 C 16.949219 11.625 16.648438 11.773438 16.351562 11.925781 C 16.199219 12 16.050781 12.148438 16.050781 12.300781 C 15.976562 12.601562 15.824219 12.824219 15.601562 12.976562 C 15.523438 13.050781 15.449219 13.050781 15.449219 13.199219 C 15.300781 13.273438 15.300781 13.425781 15.148438 13.5 C 14.625 14.023438 13.949219 14.25 13.199219 14.324219 L 12 14.324219 C 11.851562 14.324219 11.851562 14.398438 11.851562 14.476562 C 11.925781 14.773438 11.851562 15.074219 11.925781 15.375 C 12 15.523438 12 15.675781 12 15.824219 C 12 16.125 12.148438 16.425781 12.375 16.648438 C 12.449219 16.726562 12.449219 16.800781 12.449219 16.875 C 12.449219 17.101562 12.449219 17.398438 12.523438 17.625 C 12.601562 17.925781 12.675781 18.300781 12.824219 18.601562 C 12.898438 18.675781 12.976562 18.75 13.050781 18.675781 C 13.199219 18.601562 13.351562 18.601562 13.5 18.523438 C 13.875 18.375 14.324219 18.375 14.773438 18.375 C 15.675781 18.375 16.5 18.226562 17.398438 18.449219 C 17.699219 18.523438 17.925781 18.523438 18.226562 18.601562 C 18.675781 18.75 19.050781 18.75 19.5 18.75 C 19.648438 18.75 19.800781 18.675781 19.800781 18.449219 C 19.425781 18.148438 19.5 18.074219 19.5 17.925781 Z M 19.5 17.925781 "/>
<path style=" stroke:none;fill-rule:nonzero;fill:rgb(0%,0%,0%);fill-opacity:1;" d="M 8.023438 15.824219 L 8.101562 15.75 C 8.175781 15.375 8.324219 15 8.625 14.699219 L 8.550781 14.699219 C 8.023438 14.699219 7.574219 14.625 7.050781 14.476562 C 6.675781 14.398438 6.226562 14.25 5.925781 13.949219 C 5.699219 13.726562 5.398438 13.800781 5.25 14.101562 C 5.25 14.175781 5.175781 14.324219 5.175781 14.398438 C 5.023438 14.699219 4.875 14.925781 4.648438 15.148438 C 4.574219 15.300781 4.5 15.449219 4.5 15.675781 L 4.5 17.101562 C 4.5 17.25 4.574219 17.324219 4.726562 17.324219 C 5.101562 17.398438 5.398438 17.550781 5.699219 17.625 C 6.148438 17.773438 6.601562 18 7.050781 18 C 7.351562 18 7.351562 18 7.425781 17.699219 C 7.425781 17.625 7.5 17.625 7.5 17.550781 L 7.425781 17.550781 L 7.5 17.550781 L 7.5 17.398438 L 7.5 17.476562 C 7.5 17.398438 7.574219 17.398438 7.574219 17.324219 L 7.574219 17.25 C 7.648438 17.101562 7.648438 16.949219 7.648438 16.875 C 7.648438 16.726562 7.648438 16.574219 7.726562 16.5 L 7.726562 16.425781 C 7.875 16.351562 7.949219 16.125 8.023438 15.976562 Z M 11.773438 17.25 C 11.625 17.101562 11.550781 16.949219 11.476562 16.726562 C 11.476562 16.648438 11.476562 16.5 11.398438 16.5 C 11.398438 16.273438 11.324219 16.125 11.25 15.898438 C 11.101562 15.375 10.800781 14.925781 10.351562 14.550781 C 9.976562 14.324219 9.824219 14.324219 9.523438 14.625 C 9.449219 14.699219 9.449219 14.773438 9.375 14.851562 C 9.148438 15.226562 8.925781 15.601562 8.699219 16.050781 C 8.625 16.199219 8.550781 16.273438 8.550781 16.5 C 8.476562 16.574219 8.476562 16.726562 8.398438 16.875 C 8.175781 17.101562 8.023438 17.476562 7.875 17.773438 C 7.875 17.851562 7.800781 17.851562 7.875 17.925781 L 8.023438 17.925781 C 8.324219 17.851562 8.625 17.773438 8.925781 17.625 C 9.375 17.398438 9.898438 17.398438 10.351562 17.550781 C 10.800781 17.699219 11.101562 17.925781 11.476562 18.226562 C 11.699219 18.375 11.925781 18.449219 12.148438 18.523438 L 12.300781 18.523438 L 12.300781 18.449219 C 12.074219 18 12 17.625 11.773438 17.25 Z M 11.773438 17.25 "/>
</g>
</svg>
