
<svg xmlns="http://www.w3.org/2000/svg" xmlns:xlink="http://www.w3.org/1999/xlink" width="24px" height="24px" viewBox="0 0 24 24" version="1.1">
<g id="surface1">
<path style=" stroke:none;fill-rule:nonzero;fill:rgb(13.725491%,12.156863%,12.54902%);fill-opacity:1;" d="M 16.875 5.324219 L 7.125 5.324219 C 6.074219 5.324219 5.25 6.148438 5.25 7.199219 L 5.25 16.800781 C 5.25 17.851562 6.074219 18.675781 7.125 18.675781 L 16.800781 18.675781 C 17.851562 18.675781 18.675781 17.851562 18.675781 16.800781 L 18.675781 7.199219 C 18.75 6.148438 17.925781 5.324219 16.875 5.324219 Z M 8.925781 17.175781 C 7.875 17.175781 6.976562 16.273438 6.976562 15.226562 C 6.976562 14.175781 7.875 13.273438 8.925781 13.273438 C 9.976562 13.273438 10.875 14.175781 10.875 15.226562 C 10.875 16.273438 10.050781 17.175781 8.925781 17.175781 Z M 11.851562 12.300781 L 7.050781 12.300781 L 7.050781 11.023438 L 11.773438 11.023438 L 11.773438 12.300781 Z M 11.851562 10.425781 L 7.050781 10.425781 L 7.050781 9.148438 L 11.773438 9.148438 L 11.773438 10.425781 Z M 11.851562 8.550781 L 7.050781 8.550781 L 7.050781 7.351562 L 11.773438 7.351562 L 11.773438 8.550781 Z M 16.949219 14.023438 L 12.226562 14.023438 L 12.226562 12.75 L 16.949219 12.75 Z M 16.949219 12.226562 L 12.226562 12.226562 L 12.226562 10.949219 L 16.949219 10.949219 Z M 16.949219 10.351562 L 12.226562 10.351562 L 12.226562 9.074219 L 16.949219 9.074219 Z M 16.949219 8.550781 L 12.226562 8.550781 L 12.226562 7.273438 L 16.949219 7.273438 Z M 16.949219 8.550781 "/>
</g>
</svg>
