
<svg xmlns="http://www.w3.org/2000/svg" xmlns:xlink="http://www.w3.org/1999/xlink" width="24px" height="24px" viewBox="0 0 24 24" version="1.1">
<g id="surface1">
<path style=" stroke:none;fill-rule:nonzero;fill:rgb(50.196081%,0%,0%);fill-opacity:1;" d="M 5.542969 20.597656 L 3.726562 20.597656 C 3.445312 20.023438 3.191406 19.429688 2.964844 18.820312 C 2.738281 18.214844 2.539062 17.558594 2.375 16.859375 C 2.21875 16.203125 2.097656 15.476562 2.007812 14.683594 C 1.921875 13.886719 1.878906 13.058594 1.878906 12.199219 C 1.878906 11.257812 1.925781 10.410156 2.015625 9.644531 C 2.105469 8.882812 2.226562 8.1875 2.371094 7.554688 C 2.527344 6.867188 2.722656 6.214844 2.949219 5.609375 C 3.179688 4.992188 3.4375 4.390625 3.726562 3.796875 L 5.542969 3.796875 L 5.542969 4.046875 C 5.273438 4.460938 5.019531 4.933594 4.773438 5.464844 C 4.535156 5.988281 4.308594 6.601562 4.101562 7.304688 C 3.90625 7.984375 3.742188 8.734375 3.617188 9.558594 C 3.496094 10.386719 3.433594 11.265625 3.433594 12.199219 C 3.433594 13.171875 3.492188 14.054688 3.613281 14.84375 C 3.734375 15.636719 3.898438 16.382812 4.101562 17.089844 C 4.300781 17.761719 4.523438 18.371094 4.769531 18.914062 C 5.019531 19.46875 5.277344 19.945312 5.542969 20.351562 Z M 21.878906 12.199219 C 21.878906 13.058594 21.832031 13.886719 21.742188 14.683594 C 21.65625 15.472656 21.539062 16.199219 21.382812 16.859375 C 21.214844 17.558594 21.019531 18.214844 20.792969 18.820312 C 20.566406 19.429688 20.3125 20.023438 20.03125 20.597656 L 18.214844 20.597656 L 18.214844 20.351562 C 18.480469 19.945312 18.738281 19.472656 18.988281 18.925781 C 19.238281 18.378906 19.460938 17.765625 19.65625 17.089844 C 19.859375 16.382812 20.019531 15.636719 20.140625 14.84375 C 20.261719 14.054688 20.324219 13.171875 20.324219 12.199219 C 20.324219 11.265625 20.261719 10.386719 20.136719 9.558594 C 20.011719 8.734375 19.851562 7.984375 19.65625 7.304688 C 19.445312 6.601562 19.222656 5.988281 18.976562 5.464844 C 18.734375 4.933594 18.480469 4.460938 18.214844 4.046875 L 18.214844 3.796875 L 20.03125 3.796875 C 20.316406 4.390625 20.574219 4.992188 20.804688 5.609375 C 21.035156 6.214844 21.226562 6.867188 21.386719 7.554688 C 21.53125 8.1875 21.648438 8.882812 21.738281 9.644531 C 21.832031 10.410156 21.875 11.257812 21.875 12.199219 Z M 21.878906 12.199219 "/>
<path style=" stroke:none;fill-rule:nonzero;fill:rgb(50.196081%,0%,0%);fill-opacity:1;" d="M 6.96875 10.539062 C 6.519531 10.539062 6.148438 10.382812 5.851562 10.070312 C 5.550781 9.753906 5.402344 9.363281 5.402344 8.898438 C 5.402344 8.421875 5.554688 8.03125 5.859375 7.730469 C 6.167969 7.421875 6.550781 7.269531 7.007812 7.269531 C 7.472656 7.269531 7.851562 7.425781 8.144531 7.738281 C 8.441406 8.042969 8.589844 8.429688 8.589844 8.898438 C 8.589844 9.382812 8.4375 9.777344 8.136719 10.082031 C 7.835938 10.386719 7.449219 10.539062 6.964844 10.539062 Z M 6.96875 17.800781 C 6.519531 17.800781 6.148438 17.644531 5.851562 17.324219 C 5.550781 17.007812 5.402344 16.617188 5.402344 16.15625 C 5.402344 15.679688 5.554688 15.289062 5.859375 14.984375 C 6.167969 14.679688 6.550781 14.527344 7.007812 14.527344 C 7.472656 14.527344 7.851562 14.683594 8.144531 14.992188 C 8.441406 15.296875 8.589844 15.683594 8.589844 16.15625 C 8.589844 16.636719 8.4375 17.035156 8.136719 17.347656 C 7.835938 17.648438 7.449219 17.800781 6.964844 17.800781 Z M 17.851562 17.554688 L 15.28125 17.554688 L 15.28125 16.09375 L 15.246094 16.09375 C 14.65625 17.234375 13.785156 17.800781 12.628906 17.800781 C 11.773438 17.800781 11.101562 17.523438 10.609375 16.96875 C 10.121094 16.40625 9.878906 15.660156 9.878906 14.726562 C 9.878906 12.753906 10.890625 11.617188 12.910156 11.3125 L 15.300781 10.945312 C 15.300781 9.832031 14.777344 9.277344 13.734375 9.277344 C 12.6875 9.277344 11.691406 9.636719 10.746094 10.359375 L 10.746094 7.996094 C 11.125 7.769531 11.640625 7.574219 12.292969 7.402344 C 12.949219 7.230469 13.550781 7.144531 14.089844 7.144531 C 16.597656 7.144531 17.851562 8.589844 17.851562 11.480469 Z M 15.300781 13.425781 L 15.300781 12.742188 L 13.703125 12.980469 C 12.820312 13.109375 12.378906 13.570312 12.378906 14.359375 C 12.378906 14.714844 12.484375 15.011719 12.699219 15.242188 C 12.914062 15.464844 13.207031 15.578125 13.574219 15.578125 C 14.082031 15.578125 14.5 15.378906 14.820312 14.972656 C 15.140625 14.5625 15.300781 14.046875 15.300781 13.425781 Z M 15.300781 13.425781 "/>
</g>
</svg>
