
<svg xmlns="http://www.w3.org/2000/svg" xmlns:xlink="http://www.w3.org/1999/xlink" width="24px" height="24px" viewBox="0 0 24 24" version="1.1">
<g id="surface1">
<path style=" stroke:none;fill-rule:nonzero;fill:rgb(0%,0%,0%);fill-opacity:1;" d="M 5.25 17.175781 C 5.324219 16.726562 5.625 16.425781 5.925781 16.125 C 6.300781 15.75 6.75 15.523438 7.273438 15.226562 C 7.800781 14.925781 8.324219 14.699219 8.851562 14.476562 C 8.925781 14.476562 9 14.398438 9 14.324219 C 9.449219 13.425781 9.898438 12.523438 10.273438 11.625 C 10.5 11.101562 10.648438 10.574219 10.875 10.050781 L 10.875 9.976562 C 10.648438 9.449219 10.425781 8.851562 10.351562 8.25 C 10.199219 7.648438 10.199219 7.050781 10.273438 6.449219 C 10.351562 6.074219 10.574219 5.773438 10.875 5.476562 C 10.949219 5.398438 11.101562 5.398438 11.25 5.398438 L 11.851562 5.398438 C 12 5.398438 12.148438 5.476562 12.226562 5.625 C 12.449219 5.773438 12.601562 6 12.75 6.226562 C 12.898438 6.523438 12.898438 6.824219 12.976562 7.125 C 12.976562 8.023438 12.824219 8.851562 12.675781 9.675781 C 12.601562 9.976562 12.523438 10.199219 12.449219 10.5 L 12.449219 10.574219 C 12.898438 11.398438 13.5 12.148438 14.101562 12.824219 C 14.175781 12.898438 14.175781 12.898438 14.324219 12.898438 C 15.148438 12.75 15.976562 12.75 16.726562 12.75 C 17.175781 12.75 17.699219 12.824219 18.148438 13.050781 C 18.375 13.199219 18.601562 13.351562 18.75 13.574219 C 18.824219 13.726562 18.898438 13.875 18.898438 14.023438 L 18.898438 14.550781 C 18.898438 14.699219 18.824219 14.851562 18.675781 14.925781 C 18.523438 15.074219 18.375 15.300781 18.074219 15.300781 C 17.925781 15.300781 17.699219 15.375 17.550781 15.375 C 16.351562 15.449219 15.375 15.074219 14.398438 14.398438 C 14.25 14.25 14.023438 14.101562 13.875 13.949219 C 13.800781 13.949219 13.800781 13.875 13.726562 13.875 C 13.273438 13.949219 12.824219 14.023438 12.375 14.175781 C 11.773438 14.324219 11.175781 14.550781 10.574219 14.699219 C 10.5 14.699219 10.5 14.773438 10.425781 14.773438 C 10.050781 15.449219 9.601562 16.125 9.148438 16.726562 C 8.773438 17.175781 8.324219 17.625 7.875 18 C 7.648438 18.148438 7.351562 18.300781 7.050781 18.375 L 6.449219 18.375 C 6.300781 18.375 6.226562 18.375 6.074219 18.300781 C 5.699219 18.148438 5.398438 17.851562 5.324219 17.476562 C 5.25 17.476562 5.25 17.324219 5.25 17.175781 Z M 11.851562 11.925781 C 11.625 12.523438 11.324219 13.125 11.101562 13.726562 L 12.898438 13.273438 C 12.523438 12.824219 12.148438 12.300781 11.851562 11.925781 Z M 15.074219 13.875 C 15.523438 14.175781 16.050781 14.398438 16.574219 14.550781 C 16.800781 14.625 16.949219 14.550781 17.101562 14.476562 C 17.25 14.398438 17.324219 14.175781 17.175781 14.101562 C 17.175781 14.023438 17.101562 14.023438 17.023438 14.023438 C 16.875 13.949219 16.648438 13.949219 16.425781 13.875 C 15.976562 13.800781 15.523438 13.800781 15.074219 13.875 Z M 8.023438 15.976562 C 8.023438 15.976562 7.949219 15.976562 8.023438 15.976562 C 7.574219 16.199219 7.125 16.5 6.75 16.800781 C 6.523438 16.949219 6.375 17.175781 6.226562 17.398438 L 6.226562 17.550781 C 6.300781 17.625 6.300781 17.625 6.375 17.625 C 6.601562 17.476562 6.75 17.324219 6.898438 17.25 C 7.351562 16.875 7.648438 16.425781 8.023438 15.976562 Z M 11.25 8.398438 C 11.324219 8.398438 11.324219 8.398438 11.25 8.398438 C 11.398438 7.949219 11.476562 7.5 11.476562 7.125 C 11.476562 6.898438 11.476562 6.675781 11.398438 6.449219 C 11.398438 6.375 11.324219 6.375 11.25 6.375 C 11.175781 6.375 11.175781 6.449219 11.101562 6.449219 C 10.949219 6.675781 10.949219 6.898438 10.949219 7.199219 C 10.949219 7.425781 10.949219 7.574219 11.023438 7.800781 C 11.175781 7.949219 11.175781 8.175781 11.25 8.398438 Z M 11.25 8.398438 "/>
</g>
</svg>
