
<svg xmlns="http://www.w3.org/2000/svg" xmlns:xlink="http://www.w3.org/1999/xlink" width="24px" height="24px" viewBox="0 0 24 24" version="1.1">
<g id="surface1">
<path style=" stroke:none;fill-rule:nonzero;fill:rgb(0%,0%,0%);fill-opacity:1;" d="M 10.050781 19.5 L 8.925781 19.5 C 9 19.273438 9 18.976562 9.074219 18.898438 C 9.824219 18.601562 9.601562 18 9.601562 17.398438 L 9.601562 12.75 C 8.851562 12.601562 8.101562 12.675781 7.574219 12.375 C 5.925781 11.324219 5.476562 9.601562 6.226562 7.800781 C 6.449219 7.273438 6.375 6.898438 5.699219 6.824219 C 5.550781 6.824219 5.324219 6.75 5.101562 6.675781 L 5.101562 6.523438 C 5.550781 6.300781 5.925781 6 6.375 5.773438 C 6.523438 5.699219 6.824219 5.773438 6.976562 5.625 C 8.175781 5.023438 8.398438 5.101562 9.074219 6.300781 C 9.449219 7.050781 9.375 7.726562 9 8.476562 C 8.773438 8.851562 8.476562 9.375 9.074219 9.601562 C 10.574219 7.5 11.851562 5.324219 14.476562 4.5 L 15 4.5 C 15.375 5.023438 15.898438 5.398438 16.199219 6 C 17.023438 7.351562 17.625 8.773438 18.449219 10.050781 C 19.050781 10.949219 18.976562 12.75 18.226562 13.351562 L 18.226562 10.726562 L 17.925781 10.726562 C 17.25 11.699219 17.625 12.824219 17.625 13.949219 C 17.625 15.824219 17.550781 17.699219 17.550781 19.5 L 17.023438 19.5 C 17.023438 19.273438 16.949219 19.125 17.023438 18.898438 C 17.324219 16.574219 17.023438 14.25 16.199219 12 C 15.523438 12.601562 15.226562 13.351562 15.148438 14.25 C 15.074219 14.925781 14.851562 15.601562 14.625 16.273438 C 14.398438 16.875 13.800781 17.398438 14.550781 18 C 14.625 18.074219 14.476562 18.449219 14.476562 18.824219 C 14.175781 18.449219 14.023438 18.226562 13.875 18.074219 L 13.875 18.300781 C 13.351562 18.449219 12.75 18.523438 12.226562 18.675781 C 12.226562 18.601562 12.148438 18.449219 12.148438 18.375 C 12.300781 18.300781 12.449219 18.226562 12.601562 18.074219 C 13.351562 17.625 13.425781 17.175781 12.824219 16.648438 C 11.851562 15.898438 11.550781 15 12 13.875 C 12.148438 13.574219 12.074219 13.199219 12.148438 12.601562 C 11.625 12.898438 11.175781 13.050781 11.101562 13.273438 C 10.800781 14.398438 10.648438 15.601562 10.5 16.726562 C 10.273438 17.773438 10.199219 18.601562 10.050781 19.5 Z M 13.5 16.648438 C 14.550781 15.300781 14.699219 13.800781 13.949219 12.75 C 13.5 13.648438 13.050781 14.550781 12.601562 15.523438 Z M 13.5 16.648438 "/>
</g>
</svg>
