
<svg xmlns="http://www.w3.org/2000/svg" xmlns:xlink="http://www.w3.org/1999/xlink" width="24px" height="24px" viewBox="0 0 24 24" version="1.1">
<g id="surface1">
<path style=" stroke:none;fill-rule:nonzero;fill:rgb(0%,0%,0%);fill-opacity:1;" d="M 18.75 5.550781 L 18.75 5.25 L 5.25 5.25 L 5.25 18.75 L 18.375 18.75 C 18.675781 18.75 18.75 18.675781 18.75 18.375 Z M 10.800781 12.824219 C 10.199219 12.976562 9.75 12.976562 9 13.050781 L 9 15.75 L 7.648438 15.75 C 7.574219 15.75 7.5 15.523438 7.5 15.375 L 7.5 8.25 C 7.5 8.175781 8.25 8.101562 8.625 8.101562 C 9.300781 8.101562 9.976562 8.101562 10.574219 8.175781 C 11.851562 8.324219 12.523438 9.148438 12.601562 10.273438 C 12.675781 11.550781 12 12.523438 10.800781 12.824219 Z M 16.574219 14.324219 C 16.5 15 16.125 15.449219 15.523438 15.675781 C 14.625 16.050781 13.726562 15.976562 12.824219 15.601562 C 12.75 15.601562 12.675781 15.449219 12.675781 15.375 C 12.75 15.074219 12.824219 14.773438 12.898438 14.550781 C 13.425781 14.625 13.949219 14.773438 14.398438 14.851562 C 14.699219 14.925781 15 14.773438 15.074219 14.398438 C 15.148438 14.101562 15 13.875 14.625 13.648438 C 14.398438 13.5 14.101562 13.425781 13.875 13.351562 C 13.050781 12.976562 12.675781 12.449219 12.75 11.625 C 12.824219 10.949219 13.351562 10.425781 14.175781 10.199219 C 14.851562 10.050781 15.523438 10.125 16.125 10.351562 C 16.199219 10.351562 16.351562 10.574219 16.273438 10.648438 C 16.199219 10.949219 16.125 11.175781 16.050781 11.476562 C 15.675781 11.398438 15.300781 11.324219 15 11.25 C 14.851562 11.25 14.625 11.25 14.476562 11.324219 C 14.101562 11.476562 14.023438 11.925781 14.324219 12.148438 C 14.476562 12.300781 14.625 12.300781 14.851562 12.449219 C 15.074219 12.601562 15.375 12.675781 15.675781 12.824219 C 16.273438 13.050781 16.574219 13.574219 16.574219 14.324219 Z M 16.574219 14.324219 "/>
<path style=" stroke:none;fill-rule:nonzero;fill:rgb(0%,0%,0%);fill-opacity:1;" d="M 10.425781 9.375 C 9.976562 9.300781 9.75 9.300781 9 9.226562 L 9 11.773438 C 9.75 11.851562 10.050781 11.851562 10.574219 11.625 C 11.101562 11.398438 11.175781 10.875 11.175781 10.425781 C 11.175781 9.898438 10.875 9.523438 10.425781 9.375 Z M 10.425781 9.375 "/>
</g>
</svg>
