
<svg xmlns="http://www.w3.org/2000/svg" xmlns:xlink="http://www.w3.org/1999/xlink" width="24px" height="24px" viewBox="0 0 24 24" version="1.1">
<g id="surface1">
<path style=" stroke:none;fill-rule:nonzero;fill:rgb(62.352943%,45.490196%,70.19608%);fill-opacity:1;" d="M 9.523438 14.773438 C 9.449219 14.324219 9.226562 13.949219 8.773438 13.800781 C 8.625 13.726562 8.398438 13.574219 8.25 13.5 C 8.023438 13.425781 7.800781 13.351562 7.648438 13.273438 C 7.5 13.199219 7.351562 13.273438 7.199219 13.425781 C 7.125 13.574219 7.199219 13.726562 7.273438 13.800781 C 7.351562 13.949219 7.425781 14.023438 7.574219 14.175781 C 7.726562 14.398438 7.875 14.550781 8.101562 14.773438 C 8.25 15 8.398438 15.148438 8.324219 15.449219 C 8.25 15.976562 8.023438 16.5 7.648438 16.875 C 7.574219 16.949219 7.5 16.949219 7.5 16.949219 C 7.273438 16.949219 6.976562 16.800781 6.824219 16.648438 C 6.601562 16.425781 6.675781 16.199219 6.898438 16.050781 C 6.976562 16.050781 7.050781 15.976562 7.050781 15.898438 C 7.199219 15.75 7.273438 15.601562 7.199219 15.375 C 7.125 15.300781 7.125 15.226562 7.050781 15.148438 C 6.75 14.851562 6.375 14.550781 6 14.25 C 5.023438 13.5 4.574219 12.601562 4.5 11.550781 C 4.425781 10.351562 4.726562 9.226562 5.324219 8.175781 C 5.550781 7.800781 5.851562 7.425781 6.300781 7.199219 C 6.601562 7.050781 6.898438 6.976562 7.199219 6.898438 C 8.023438 6.675781 8.925781 6.523438 9.824219 6.675781 C 10.574219 6.824219 11.175781 7.199219 11.398438 7.949219 C 11.550781 8.476562 11.625 8.925781 11.550781 9.449219 C 11.476562 10.5 10.648438 11.398438 9.675781 11.699219 C 9.226562 11.851562 9 11.773438 8.773438 11.398438 C 8.625 11.175781 8.398438 10.875 8.25 10.574219 L 8.25 10.5 C 8.25 10.425781 8.175781 10.425781 8.175781 10.351562 C 8.25 10.800781 8.324219 11.25 8.550781 11.625 C 8.699219 11.851562 8.851562 12 9.148438 12 C 10.125 12.074219 10.875 11.773438 11.476562 11.023438 C 12.074219 10.199219 12.226562 9.226562 12.074219 8.175781 C 12.074219 7.949219 12 7.800781 11.925781 7.574219 C 11.925781 7.425781 11.925781 7.351562 12.074219 7.273438 C 12.148438 7.273438 12.226562 7.273438 12.226562 7.199219 C 12.976562 7.050781 13.800781 6.976562 14.550781 7.050781 C 15.449219 7.125 16.273438 7.351562 17.023438 7.875 C 18.226562 8.625 18.976562 9.75 19.351562 11.101562 C 19.425781 11.324219 19.425781 11.476562 19.425781 11.699219 C 19.425781 11.851562 19.351562 11.851562 19.199219 11.773438 C 19.050781 11.699219 18.976562 11.550781 18.898438 11.476562 C 18.824219 11.398438 18.75 11.25 18.675781 11.175781 C 18.601562 11.101562 18.523438 11.101562 18.523438 11.175781 C 18.523438 11.25 18.449219 11.324219 18.449219 11.398438 C 18.226562 12.148438 17.925781 12.824219 17.398438 13.351562 C 17.324219 13.425781 17.25 13.574219 17.25 13.648438 C 17.25 13.949219 17.175781 14.25 17.25 14.550781 C 17.324219 15.148438 17.398438 15.824219 17.476562 16.425781 C 17.550781 16.800781 17.398438 16.949219 17.101562 17.101562 C 16.875 17.175781 16.648438 17.25 16.351562 17.25 L 15.148438 17.25 C 15.148438 16.800781 15.148438 16.351562 14.773438 16.125 C 14.851562 15.824219 14.925781 15.523438 15 15.148438 C 15.074219 14.851562 15 14.625 14.851562 14.398438 C 14.699219 14.175781 14.476562 14.175781 14.25 14.25 C 13.648438 14.625 13.050781 14.625 12.375 14.398438 C 12.074219 14.324219 11.851562 14.324219 11.699219 14.625 C 11.550781 14.925781 11.476562 15.226562 11.476562 15.523438 C 11.476562 15.898438 11.550781 16.351562 11.625 16.726562 C 11.625 16.949219 11.625 17.023438 11.398438 17.101562 C 10.875 17.25 10.351562 17.25 9.898438 17.175781 L 9.824219 17.175781 C 9.824219 16.726562 9.824219 16.273438 9.300781 16.050781 C 9.601562 15.75 9.601562 15.226562 9.523438 14.773438 Z M 6.449219 13.050781 C 6.523438 12.976562 6.601562 12.898438 6.601562 12.75 C 6.675781 12.523438 6.449219 12.148438 6.226562 12.074219 C 6.074219 12 6 12.074219 5.925781 12.148438 C 5.699219 12.375 5.550781 12.601562 5.324219 12.824219 C 5.324219 12.898438 5.25 12.898438 5.25 12.976562 C 5.175781 13.125 5.25 13.273438 5.398438 13.273438 C 5.476562 13.273438 5.625 13.273438 5.699219 13.351562 C 6 13.351562 6.226562 13.273438 6.449219 13.050781 Z M 6.449219 10.574219 C 6.449219 10.425781 6.300781 10.273438 6.148438 10.273438 C 6 10.273438 5.773438 10.425781 5.851562 10.648438 C 5.851562 10.800781 6 10.949219 6.226562 10.949219 C 6.300781 10.875 6.449219 10.726562 6.449219 10.574219 Z M 6.449219 10.574219 "/>
</g>
</svg>
