
<svg xmlns="http://www.w3.org/2000/svg" xmlns:xlink="http://www.w3.org/1999/xlink" width="16px" height="16px" viewBox="0 0 16 16" version="1.1">
<g id="surface1">
<path style=" stroke:none;fill-rule:nonzero;fill:rgb(31.37255%,34.509805%,65.098041%);fill-opacity:1;" d="M 9 10.304688 L 9 8.894531 C 9 8.582031 8.90625 8.417969 8.6875 8.417969 C 8.46875 8.417969 8.375 8.582031 8.375 8.894531 L 8.375 10.304688 C 8.375 10.617188 8.46875 10.761719 8.6875 10.761719 C 8.90625 10.761719 9 10.617188 9 10.304688 Z M 9 10.304688 "/>
<path style=" stroke:none;fill-rule:nonzero;fill:rgb(31.37255%,34.509805%,65.098041%);fill-opacity:1;" d="M 10.519531 12.496094 C 10.648438 12.34375 10.761719 12.226562 10.867188 12.113281 C 11.074219 11.886719 11.257812 11.691406 11.585938 11.238281 C 11.914062 10.796875 12.125 10.464844 12.089844 9.890625 C 12.070312 9.597656 12.058594 9.394531 11.867188 9.160156 C 11.753906 9.015625 11.539062 8.8125 11.3125 8.59375 C 11.066406 8.355469 10.851562 8.128906 10.5625 7.832031 C 10.273438 7.527344 9.898438 6.761719 9.898438 6.761719 C 9.769531 6.464844 9.507812 5.792969 9.507812 5.246094 L 9.492188 4.894531 C 9.492188 4.878906 9.496094 4.875 9.496094 4.875 L 5.25 4.875 L 5.25 7.886719 C 5.5 7.609375 5.804688 7.515625 6.09375 7.515625 C 6.566406 7.515625 7 7.792969 7 8.402344 L 7 11.5 L 5.875 11.5 L 5.875 8.78125 C 5.875 8.53125 5.757812 8.417969 5.570312 8.417969 C 5.359375 8.417969 5.25 8.554688 5.25 8.78125 L 5.25 11.5 L 4.125 11.5 L 4.125 4.875 L 0.25 4.875 L 0.25 13.625 L 1 13.625 L 1 7.625 L 2 7.625 L 2 8.089844 C 2.25 7.699219 2.585938 7.515625 2.90625 7.515625 C 3.472656 7.515625 3.875 7.953125 3.875 8.742188 L 3.875 10.527344 C 3.875 11.199219 3.429688 11.640625 2.914062 11.640625 C 2.617188 11.640625 2.375 11.503906 2.125 11.183594 L 2.125 13.625 L 7.25 13.625 L 7.25 7.625 L 8.25 7.625 L 8.25 8.089844 C 8.5 7.699219 8.835938 7.515625 9.15625 7.515625 C 9.722656 7.515625 10.125 7.953125 10.125 8.742188 L 10.125 10.527344 C 10.125 11.199219 9.679688 11.640625 9.164062 11.640625 C 8.867188 11.640625 8.625 11.503906 8.375 11.183594 L 8.375 13.625 L 9.53125 13.625 L 9.871094 13.261719 C 10.023438 13.070312 10.199219 12.863281 10.414062 12.617188 Z M 10.519531 12.496094 "/>
<path style=" stroke:none;fill-rule:nonzero;fill:rgb(31.37255%,34.509805%,65.098041%);fill-opacity:1;" d="M 2.75 10.304688 L 2.75 8.894531 C 2.75 8.582031 2.65625 8.417969 2.4375 8.417969 C 2.21875 8.417969 2.125 8.582031 2.125 8.894531 L 2.125 10.304688 C 2.125 10.617188 2.21875 10.761719 2.4375 10.761719 C 2.65625 10.761719 2.75 10.617188 2.75 10.304688 Z M 15.785156 9.503906 C 15.785156 8.925781 15.371094 8.054688 15.371094 8.054688 C 15.304688 7.90625 15.085938 7.625 14.945312 7.375 L 14.949219 7.375 C 14.902344 7.375 14.871094 7.289062 14.871094 7.289062 C 14.457031 6.816406 13.832031 6.292969 13.554688 5.949219 C 13.230469 5.550781 13.222656 5.179688 13.203125 4.890625 C 13.15625 4.101562 13.476562 3.628906 13.816406 3.164062 C 14.332031 2.460938 14.519531 2.332031 14.914062 1.871094 C 15.167969 1.578125 15.378906 1.339844 15.550781 1.125 L 11.703125 1.125 C 11.476562 1.417969 11.011719 1.980469 10.746094 2.480469 C 10.394531 3.140625 10.105469 3.636719 10.078125 4.855469 L 10.089844 5.246094 C 10.089844 5.828125 10.507812 6.695312 10.507812 6.695312 C 10.570312 6.84375 10.789062 7.125 10.929688 7.375 L 10.925781 7.375 C 10.972656 7.375 11.003906 7.460938 11.003906 7.460938 C 11.417969 7.933594 12.046875 8.457031 12.320312 8.800781 C 12.644531 9.199219 12.652344 9.570312 12.671875 9.859375 C 12.71875 10.648438 12.398438 11.121094 12.058594 11.585938 C 11.542969 12.289062 11.355469 12.417969 10.960938 12.878906 C 10.707031 13.171875 10.5 13.410156 10.328125 13.625 L 14.300781 13.625 C 14.535156 13.324219 14.863281 12.773438 15.132812 12.269531 C 15.480469 11.609375 15.769531 11.113281 15.796875 9.898438 Z M 15.785156 9.503906 "/>
</g>
</svg>
