
<svg xmlns="http://www.w3.org/2000/svg" xmlns:xlink="http://www.w3.org/1999/xlink" width="24px" height="24px" viewBox="0 0 24 24" version="1.1">
<g id="surface1">
<path style=" stroke:none;fill-rule:nonzero;fill:rgb(81.568629%,43.137255%,20.784314%);fill-opacity:1;" d="M 15.117188 7.734375 L 15.585938 6.097656 C 16.066406 6.054688 16.441406 5.667969 16.441406 5.191406 C 16.441406 4.6875 16.019531 4.277344 15.5 4.277344 C 14.980469 4.277344 14.558594 4.6875 14.558594 5.191406 C 14.558594 5.523438 14.742188 5.8125 15.015625 5.96875 L 14.554688 7.578125 C 13.238281 7.253906 12.128906 7.277344 12.128906 7.277344 L 11.921875 7.367188 L 11.921875 19.8125 L 12.128906 19.878906 C 13.371094 19.878906 18.800781 16.246094 18.8125 12.347656 C 18.8125 9.554688 16.898438 8.296875 15.117188 7.734375 Z M 13.808594 15.75 C 12.75 14.109375 13.199219 10.296875 15.964844 9.75 C 16.722656 9.632812 17.652344 10.117188 17.925781 11.1875 C 18.617188 13.464844 14.550781 16.652344 13.808594 15.75 Z M 15.46875 12.238281 C 14.996094 12.238281 14.613281 12.609375 14.613281 13.070312 C 14.613281 13.527344 14.996094 13.898438 15.46875 13.898438 C 15.941406 13.898438 16.328125 13.527344 16.328125 13.070312 C 16.328125 12.609375 15.941406 12.238281 15.46875 12.238281 Z M 15.726562 13.003906 C 15.667969 13.007812 15.613281 12.984375 15.574219 12.945312 C 15.535156 12.90625 15.511719 12.851562 15.507812 12.796875 C 15.507812 12.679688 15.605469 12.585938 15.726562 12.585938 C 15.847656 12.585938 15.941406 12.679688 15.941406 12.796875 C 15.941406 12.910156 15.84375 13.003906 15.726562 13.003906 Z M 15.726562 13.003906 "/>
<path style=" stroke:none;fill-rule:nonzero;fill:rgb(94.509804%,48.235294%,21.176471%);fill-opacity:1;" d="M 9.691406 7.617188 L 9.234375 5.945312 C 9.496094 5.785156 9.667969 5.5 9.667969 5.175781 C 9.667969 4.675781 9.25 4.265625 8.730469 4.265625 C 8.210938 4.265625 7.789062 4.675781 7.789062 5.175781 C 7.789062 5.679688 8.207031 6.085938 8.726562 6.089844 L 9.183594 7.761719 C 7.394531 8.335938 5.457031 9.59375 5.457031 12.347656 C 5.496094 16.320312 10.886719 19.878906 12.128906 19.878906 L 12.128906 7.277344 C 12.128906 7.277344 11.011719 7.273438 9.691406 7.617188 Z M 10.640625 15.75 C 9.898438 16.652344 5.832031 13.464844 6.523438 11.1875 C 6.796875 10.117188 7.726562 9.632812 8.484375 9.75 C 11.25 10.296875 11.699219 14.109375 10.640625 15.75 Z M 8.921875 12.265625 C 8.449219 12.265625 8.066406 12.636719 8.066406 13.09375 C 8.066406 13.554688 8.449219 13.925781 8.921875 13.925781 C 9.398438 13.925781 9.78125 13.554688 9.78125 13.09375 C 9.78125 12.636719 9.398438 12.265625 8.921875 12.265625 Z M 8.667969 13.03125 C 8.609375 13.03125 8.554688 13.011719 8.515625 12.972656 C 8.472656 12.929688 8.449219 12.878906 8.449219 12.820312 C 8.449219 12.703125 8.546875 12.609375 8.667969 12.609375 C 8.785156 12.609375 8.882812 12.703125 8.882812 12.820312 C 8.882812 12.9375 8.785156 13.03125 8.667969 13.03125 Z M 8.667969 13.03125 "/>
</g>
</svg>
