
<svg xmlns="http://www.w3.org/2000/svg" xmlns:xlink="http://www.w3.org/1999/xlink" width="16px" height="16px" viewBox="0 0 16 16" version="1.1">
<g id="surface1">
<path style=" stroke:none;fill-rule:evenodd;fill:rgb(20%,40.392157%,56.862748%);fill-opacity:1;" d="M 15.40625 9.597656 C 15.351562 9.234375 15.042969 8.996094 14.6875 8.976562 C 14.558594 8.972656 14.429688 8.984375 14.300781 9.003906 C 14.144531 9.023438 13.992188 9.058594 13.835938 9.082031 C 13.730469 9.097656 13.621094 9.101562 13.511719 9.113281 L 13.511719 9.101562 C 13.710938 8.722656 13.917969 8.351562 14.105469 7.96875 C 14.253906 7.675781 14.375 7.371094 14.503906 7.070312 C 14.714844 6.570312 14.886719 6.054688 15.027344 5.53125 C 15.160156 5.027344 15.273438 4.523438 15.3125 4 C 15.324219 3.792969 15.335938 3.585938 15.335938 3.378906 C 15.332031 3.210938 15.316406 3.046875 15.300781 2.878906 C 15.28125 2.691406 15.222656 2.511719 15.144531 2.335938 C 15.039062 2.109375 14.878906 1.921875 14.707031 1.746094 C 14.570312 1.601562 14.421875 1.472656 14.273438 1.34375 C 14.058594 1.160156 13.820312 1.011719 13.574219 0.882812 C 13.292969 0.734375 12.996094 0.617188 12.6875 0.539062 C 12.5 0.492188 12.308594 0.453125 12.121094 0.417969 C 12.050781 0.402344 11.984375 0.375 11.914062 0.375 L 10.636719 0.375 C 10.589844 0.375 10.542969 0.398438 10.496094 0.402344 C 10.191406 0.4375 9.886719 0.496094 9.59375 0.585938 C 9.484375 0.621094 9.382812 0.601562 9.277344 0.589844 C 9.199219 0.582031 9.121094 0.5625 9.039062 0.558594 C 8.734375 0.542969 8.429688 0.519531 8.125 0.523438 C 7.832031 0.527344 7.542969 0.574219 7.257812 0.65625 C 7.023438 0.722656 6.789062 0.804688 6.578125 0.929688 C 6.488281 0.980469 6.414062 0.972656 6.320312 0.945312 C 6.003906 0.851562 5.6875 0.769531 5.367188 0.695312 C 5.167969 0.652344 4.960938 0.628906 4.757812 0.605469 C 4.558594 0.585938 4.363281 0.574219 4.167969 0.570312 C 3.972656 0.566406 3.78125 0.566406 3.589844 0.582031 C 3.285156 0.609375 2.984375 0.671875 2.695312 0.773438 C 2.371094 0.882812 2.074219 1.042969 1.808594 1.257812 C 1.539062 1.46875 1.320312 1.730469 1.144531 2.03125 C 0.960938 2.347656 0.835938 2.683594 0.757812 3.039062 C 0.714844 3.230469 0.6875 3.429688 0.660156 3.625 C 0.648438 3.683594 0.75 3.746094 0.625 3.804688 L 0.625 4.65625 C 0.75 4.710938 0.652344 4.765625 0.660156 4.824219 C 0.675781 4.960938 0.691406 5.097656 0.714844 5.234375 C 0.75 5.445312 0.792969 5.660156 0.835938 5.871094 C 0.898438 6.167969 0.960938 6.464844 1.03125 6.761719 C 1.082031 6.976562 1.136719 7.191406 1.195312 7.402344 C 1.285156 7.726562 1.375 8.050781 1.476562 8.375 C 1.570312 8.671875 1.679688 8.964844 1.785156 9.261719 C 1.9375 9.667969 2.113281 10.0625 2.328125 10.4375 C 2.511719 10.765625 2.722656 11.070312 3.007812 11.324219 C 3.195312 11.488281 3.402344 11.617188 3.644531 11.679688 C 3.835938 11.730469 4.027344 11.734375 4.222656 11.695312 C 4.449219 11.648438 4.648438 11.550781 4.824219 11.40625 C 4.84375 11.390625 4.867188 11.378906 4.890625 11.410156 C 4.984375 11.523438 5.105469 11.601562 5.234375 11.667969 C 5.582031 11.851562 5.960938 11.90625 6.34375 11.925781 C 6.4375 11.933594 6.53125 11.917969 6.625 11.917969 C 6.808594 11.910156 6.984375 11.875 7.160156 11.824219 C 7.25 11.796875 7.339844 11.765625 7.433594 11.734375 C 7.4375 11.832031 7.445312 11.929688 7.449219 12.023438 L 7.460938 12.542969 C 7.464844 12.625 7.46875 12.703125 7.472656 12.78125 C 7.492188 12.984375 7.511719 13.1875 7.535156 13.390625 C 7.554688 13.53125 7.570312 13.671875 7.601562 13.808594 C 7.667969 14.085938 7.757812 14.351562 7.871094 14.613281 C 7.984375 14.867188 8.144531 15.082031 8.359375 15.261719 C 8.636719 15.488281 8.964844 15.585938 9.3125 15.605469 C 9.460938 15.613281 9.609375 15.605469 9.753906 15.582031 C 9.980469 15.539062 10.203125 15.488281 10.425781 15.421875 C 10.875 15.285156 11.261719 15.050781 11.550781 14.671875 C 11.71875 14.457031 11.851562 14.226562 11.941406 13.96875 C 12.011719 13.753906 12.078125 13.539062 12.132812 13.324219 C 12.175781 13.152344 12.195312 12.972656 12.222656 12.800781 C 12.238281 12.683594 12.25 12.566406 12.261719 12.449219 C 12.277344 12.257812 12.296875 12.070312 12.308594 11.878906 C 12.316406 11.746094 12.316406 11.613281 12.320312 11.484375 C 12.324219 11.441406 12.328125 11.402344 12.332031 11.363281 C 12.335938 11.324219 12.355469 11.3125 12.394531 11.3125 C 12.527344 11.3125 12.660156 11.316406 12.796875 11.3125 C 12.945312 11.304688 13.097656 11.296875 13.242188 11.273438 C 13.453125 11.238281 13.660156 11.195312 13.867188 11.140625 C 14.109375 11.078125 14.332031 10.964844 14.546875 10.832031 C 14.796875 10.683594 15.023438 10.503906 15.210938 10.277344 C 15.371094 10.078125 15.445312 9.847656 15.40625 9.597656 Z M 14.980469 9.722656 C 14.972656 9.835938 14.921875 9.933594 14.84375 10.015625 C 14.484375 10.414062 14.035156 10.652344 13.519531 10.769531 C 13.324219 10.816406 13.125 10.839844 12.921875 10.855469 C 12.753906 10.871094 12.582031 10.875 12.410156 10.867188 C 12.285156 10.863281 12.160156 10.835938 12.03125 10.816406 C 12.015625 10.933594 12.003906 11.058594 11.992188 11.179688 L 11.929688 11.648438 C 11.914062 11.796875 11.898438 11.945312 11.878906 12.09375 C 11.863281 12.238281 11.839844 12.378906 11.820312 12.523438 C 11.800781 12.65625 11.789062 12.792969 11.769531 12.925781 C 11.738281 13.132812 11.707031 13.335938 11.667969 13.539062 C 11.621094 13.78125 11.546875 14.019531 11.425781 14.238281 C 11.28125 14.503906 11.074219 14.710938 10.808594 14.859375 C 10.535156 15.015625 10.238281 15.097656 9.9375 15.164062 C 9.722656 15.210938 9.503906 15.21875 9.285156 15.199219 C 8.910156 15.167969 8.589844 15.007812 8.347656 14.714844 C 8.117188 14.4375 7.960938 14.117188 7.902344 13.757812 C 7.875 13.585938 7.859375 13.414062 7.84375 13.242188 C 7.824219 13.050781 7.8125 12.855469 7.804688 12.664062 C 7.792969 12.417969 7.785156 12.175781 7.78125 11.929688 C 7.773438 11.628906 7.769531 11.328125 7.765625 11.027344 L 7.765625 11.015625 C 7.613281 11.109375 7.464844 11.207031 7.304688 11.292969 C 7.117188 11.386719 6.914062 11.445312 6.703125 11.460938 C 6.539062 11.472656 6.371094 11.484375 6.207031 11.472656 C 5.9375 11.449219 5.671875 11.40625 5.429688 11.273438 C 5.332031 11.222656 5.230469 11.15625 5.164062 11.070312 C 5 10.863281 5.078125 10.605469 5.320312 10.480469 C 5.492188 10.394531 5.671875 10.355469 5.855469 10.3125 C 6.015625 10.277344 6.171875 10.234375 6.324219 10.1875 C 6.480469 10.136719 6.574219 10.011719 6.671875 9.890625 L 6.820312 9.695312 C 6.757812 9.691406 6.699219 9.683594 6.640625 9.675781 C 6.460938 9.660156 6.289062 9.609375 6.125 9.539062 C 5.984375 9.476562 5.980469 9.46875 5.878906 9.582031 C 5.707031 9.769531 5.539062 9.960938 5.371094 10.148438 C 5.246094 10.289062 5.125 10.429688 5 10.570312 C 4.878906 10.707031 4.761719 10.855469 4.632812 10.984375 C 4.4375 11.175781 4.199219 11.289062 3.917969 11.277344 C 3.738281 11.269531 3.574219 11.203125 3.425781 11.101562 C 3.117188 10.886719 2.914062 10.589844 2.722656 10.277344 C 2.484375 9.875 2.296875 9.445312 2.140625 9.007812 C 2.03125 8.703125 1.921875 8.398438 1.824219 8.089844 C 1.722656 7.753906 1.628906 7.414062 1.539062 7.074219 C 1.472656 6.820312 1.414062 6.5625 1.355469 6.304688 C 1.289062 6.007812 1.226562 5.714844 1.171875 5.417969 C 1.136719 5.21875 1.113281 5.015625 1.082031 4.8125 C 1.042969 4.542969 1.035156 4.269531 1.050781 3.996094 C 1.0625 3.75 1.097656 3.507812 1.132812 3.261719 C 1.183594 2.925781 1.292969 2.605469 1.453125 2.308594 C 1.550781 2.121094 1.671875 1.957031 1.8125 1.800781 C 2.042969 1.542969 2.324219 1.359375 2.632812 1.222656 C 2.851562 1.125 3.078125 1.066406 3.3125 1.019531 C 3.660156 0.953125 4.007812 0.957031 4.359375 0.964844 C 4.511719 0.964844 4.664062 0.996094 4.816406 1.007812 C 5.148438 1.042969 5.46875 1.113281 5.789062 1.195312 C 6.019531 1.257812 6.246094 1.339844 6.476562 1.410156 C 6.5 1.417969 6.535156 1.417969 6.554688 1.402344 C 6.867188 1.199219 7.207031 1.066406 7.570312 0.988281 C 7.707031 0.960938 7.847656 0.945312 7.988281 0.9375 C 8.160156 0.925781 8.332031 0.917969 8.503906 0.925781 C 8.710938 0.9375 8.914062 0.96875 9.117188 0.996094 C 9.214844 1.011719 9.3125 1.046875 9.414062 1.054688 C 9.460938 1.058594 9.511719 1.023438 9.558594 1.011719 C 9.816406 0.953125 10.070312 0.886719 10.328125 0.839844 C 10.523438 0.804688 10.71875 0.789062 10.914062 0.777344 C 11.132812 0.765625 11.351562 0.757812 11.570312 0.765625 C 11.847656 0.78125 12.121094 0.820312 12.390625 0.882812 C 12.722656 0.960938 13.046875 1.074219 13.351562 1.230469 C 13.578125 1.347656 13.796875 1.484375 13.992188 1.652344 C 14.117188 1.761719 14.25 1.871094 14.363281 1.992188 C 14.507812 2.140625 14.652344 2.292969 14.742188 2.484375 C 14.808594 2.632812 14.855469 2.78125 14.871094 2.941406 C 14.886719 3.140625 14.90625 3.339844 14.90625 3.539062 C 14.902344 3.726562 14.878906 3.917969 14.859375 4.105469 C 14.816406 4.539062 14.722656 4.960938 14.609375 5.378906 C 14.515625 5.722656 14.40625 6.0625 14.285156 6.398438 C 14.175781 6.710938 14.050781 7.011719 13.921875 7.316406 C 13.828125 7.542969 13.722656 7.761719 13.613281 7.980469 C 13.402344 8.390625 13.1875 8.796875 12.933594 9.183594 C 12.890625 9.25 12.847656 9.320312 12.804688 9.386719 C 12.917969 9.460938 13.042969 9.488281 13.167969 9.5 C 13.285156 9.515625 13.40625 9.523438 13.527344 9.511719 C 13.71875 9.5 13.910156 9.472656 14.097656 9.445312 C 14.285156 9.417969 14.46875 9.367188 14.664062 9.378906 C 14.855469 9.394531 14.992188 9.539062 14.980469 9.722656 Z M 12.230469 9.300781 C 12.148438 9.195312 12.0625 9.089844 11.984375 8.984375 C 11.859375 8.816406 11.765625 8.628906 11.675781 8.441406 C 11.589844 8.261719 11.484375 8.09375 11.394531 7.914062 C 11.238281 7.609375 11.074219 7.300781 10.929688 6.988281 C 10.746094 6.59375 10.601562 6.183594 10.558594 5.746094 C 10.539062 5.5625 10.53125 5.375 10.570312 5.191406 C 10.628906 4.902344 10.78125 4.671875 11.039062 4.515625 C 11.277344 4.367188 11.542969 4.320312 11.816406 4.308594 C 11.984375 4.296875 12.15625 4.304688 12.328125 4.304688 L 12.324219 4.277344 C 12.214844 4.046875 12.113281 3.816406 11.992188 3.59375 C 11.824219 3.28125 11.609375 2.996094 11.371094 2.734375 C 11.191406 2.539062 11 2.359375 10.789062 2.199219 C 10.582031 2.042969 10.363281 1.902344 10.132812 1.789062 C 9.851562 1.652344 9.5625 1.546875 9.261719 1.480469 C 8.96875 1.414062 8.675781 1.375 8.375 1.371094 C 8.121094 1.367188 7.867188 1.378906 7.617188 1.4375 C 7.242188 1.523438 6.898438 1.679688 6.601562 1.929688 C 6.433594 2.070312 6.289062 2.226562 6.160156 2.402344 C 6.011719 2.605469 5.890625 2.828125 5.789062 3.058594 C 5.648438 3.378906 5.550781 3.710938 5.484375 4.050781 C 5.449219 4.222656 5.425781 4.394531 5.398438 4.566406 C 5.386719 4.625 5.386719 4.6875 5.382812 4.753906 C 5.429688 4.730469 5.460938 4.714844 5.496094 4.695312 L 5.605469 4.648438 C 5.980469 4.476562 6.367188 4.367188 6.785156 4.378906 C 6.960938 4.382812 7.128906 4.417969 7.289062 4.496094 C 7.589844 4.644531 7.765625 4.898438 7.84375 5.21875 C 7.894531 5.441406 7.933594 5.664062 7.96875 5.890625 C 7.996094 6.066406 8.023438 6.242188 8.027344 6.421875 C 8.03125 6.679688 8.019531 6.9375 8.003906 7.199219 C 7.992188 7.417969 7.945312 7.636719 7.871094 7.839844 C 7.730469 8.214844 7.574219 8.582031 7.425781 8.953125 C 7.378906 9.078125 7.34375 9.203125 7.296875 9.339844 C 7.367188 9.339844 7.425781 9.339844 7.480469 9.339844 C 7.503906 9.339844 7.527344 9.339844 7.546875 9.347656 C 7.714844 9.386719 7.859375 9.460938 7.980469 9.589844 C 8.136719 9.761719 8.222656 9.960938 8.226562 10.195312 C 8.226562 10.324219 8.214844 10.449219 8.214844 10.578125 C 8.21875 11.179688 8.222656 11.777344 8.226562 12.375 C 8.230469 12.472656 8.234375 12.570312 8.242188 12.667969 C 8.253906 12.871094 8.269531 13.078125 8.289062 13.28125 C 8.304688 13.425781 8.324219 13.570312 8.347656 13.710938 C 8.378906 13.917969 8.472656 14.097656 8.578125 14.269531 C 8.667969 14.417969 8.785156 14.546875 8.941406 14.632812 C 9.203125 14.78125 9.488281 14.792969 9.773438 14.738281 C 9.964844 14.703125 10.15625 14.644531 10.34375 14.582031 C 10.527344 14.523438 10.695312 14.421875 10.835938 14.289062 C 10.964844 14.160156 11.058594 14.003906 11.121094 13.832031 C 11.246094 13.5 11.28125 13.152344 11.332031 12.804688 C 11.351562 12.675781 11.367188 12.542969 11.386719 12.414062 C 11.40625 12.265625 11.425781 12.117188 11.445312 11.96875 C 11.457031 11.859375 11.46875 11.746094 11.484375 11.636719 C 11.503906 11.480469 11.523438 11.320312 11.542969 11.160156 C 11.554688 11.039062 11.566406 10.917969 11.582031 10.792969 C 11.597656 10.636719 11.613281 10.480469 11.628906 10.320312 C 11.640625 10.203125 11.632812 10.082031 11.65625 9.964844 C 11.695312 9.75 11.796875 9.566406 11.984375 9.449219 C 12.066406 9.398438 12.15625 9.367188 12.242188 9.324219 Z M 5.03125 8.421875 C 4.933594 8.195312 4.878906 7.960938 4.859375 7.71875 C 4.84375 7.488281 4.871094 7.261719 4.894531 7.035156 C 4.917969 6.816406 4.9375 6.59375 4.941406 6.371094 C 4.953125 6.007812 4.929688 5.648438 4.914062 5.285156 C 4.902344 5.066406 4.925781 4.847656 4.945312 4.632812 C 4.964844 4.4375 4.984375 4.242188 5.023438 4.050781 C 5.082031 3.726562 5.164062 3.410156 5.28125 3.101562 C 5.394531 2.808594 5.519531 2.523438 5.699219 2.265625 C 5.824219 2.089844 5.964844 1.925781 6.097656 1.753906 L 6.058594 1.742188 C 5.621094 1.601562 5.175781 1.492188 4.71875 1.445312 C 4.503906 1.425781 4.285156 1.410156 4.070312 1.398438 C 4.003906 1.394531 3.9375 1.402344 3.871094 1.410156 C 3.703125 1.425781 3.535156 1.433594 3.375 1.460938 C 3.097656 1.515625 2.832031 1.605469 2.585938 1.746094 C 2.367188 1.878906 2.179688 2.042969 2.023438 2.246094 C 1.851562 2.464844 1.738281 2.71875 1.65625 2.984375 C 1.558594 3.300781 1.511719 3.625 1.496094 3.949219 C 1.488281 4.238281 1.480469 4.527344 1.53125 4.8125 C 1.566406 5.023438 1.59375 5.238281 1.632812 5.453125 C 1.6875 5.742188 1.746094 6.027344 1.816406 6.316406 C 1.914062 6.722656 2.011719 7.132812 2.128906 7.539062 C 2.238281 7.925781 2.367188 8.308594 2.5 8.6875 C 2.613281 9 2.742188 9.300781 2.875 9.601562 C 2.964844 9.796875 3.070312 9.984375 3.183594 10.167969 C 3.304688 10.363281 3.4375 10.546875 3.621094 10.6875 C 3.855469 10.863281 4.035156 10.890625 4.269531 10.695312 C 4.371094 10.613281 4.457031 10.511719 4.542969 10.410156 C 4.683594 10.253906 4.820312 10.09375 4.957031 9.9375 C 5.132812 9.738281 5.3125 9.542969 5.492188 9.34375 C 5.527344 9.300781 5.566406 9.257812 5.601562 9.214844 L 5.542969 9.160156 C 5.320312 8.949219 5.148438 8.703125 5.03125 8.421875 Z M 11.742188 2.472656 C 11.886719 2.644531 12.023438 2.816406 12.152344 3 C 12.402344 3.351562 12.605469 3.730469 12.75 4.136719 C 12.816406 4.3125 12.867188 4.496094 12.84375 4.691406 C 12.828125 4.828125 12.832031 4.964844 12.816406 5.105469 C 12.808594 5.21875 12.789062 5.332031 12.773438 5.445312 C 12.753906 5.617188 12.71875 5.789062 12.710938 5.964844 C 12.703125 6.128906 12.710938 6.292969 12.722656 6.460938 C 12.730469 6.628906 12.753906 6.792969 12.769531 6.960938 C 12.789062 7.152344 12.8125 7.339844 12.816406 7.53125 C 12.820312 7.6875 12.804688 7.84375 12.792969 8 C 12.777344 8.1875 12.730469 8.371094 12.65625 8.542969 C 12.609375 8.667969 12.546875 8.785156 12.492188 8.910156 L 12.515625 8.933594 L 12.550781 8.960938 L 12.582031 8.898438 C 12.875 8.4375 13.136719 7.957031 13.363281 7.460938 C 13.507812 7.140625 13.640625 6.816406 13.773438 6.492188 C 13.976562 5.980469 14.136719 5.460938 14.261719 4.925781 C 14.316406 4.6875 14.359375 4.445312 14.398438 4.203125 C 14.425781 4.011719 14.449219 3.820312 14.457031 3.628906 C 14.460938 3.425781 14.449219 3.222656 14.433594 3.019531 C 14.417969 2.867188 14.378906 2.710938 14.285156 2.585938 C 14.128906 2.386719 13.964844 2.195312 13.757812 2.042969 C 13.585938 1.917969 13.414062 1.785156 13.230469 1.679688 C 12.9375 1.507812 12.621094 1.394531 12.289062 1.316406 C 11.964844 1.242188 11.636719 1.210938 11.308594 1.203125 C 11.113281 1.199219 10.917969 1.21875 10.722656 1.238281 C 10.546875 1.253906 10.371094 1.28125 10.195312 1.304688 C 10.386719 1.414062 10.574219 1.507812 10.75 1.621094 C 11.121094 1.855469 11.453125 2.140625 11.742188 2.472656 Z M 6.914062 9.0625 C 7.03125 8.679688 7.195312 8.3125 7.355469 7.945312 C 7.484375 7.644531 7.554688 7.328125 7.578125 7.007812 C 7.589844 6.847656 7.585938 6.683594 7.578125 6.523438 C 7.570312 6.347656 7.554688 6.167969 7.527344 5.992188 C 7.496094 5.765625 7.457031 5.542969 7.402344 5.320312 C 7.347656 5.082031 7.199219 4.914062 6.949219 4.855469 C 6.800781 4.816406 6.648438 4.816406 6.496094 4.84375 C 6.117188 4.902344 5.777344 5.039062 5.457031 5.242188 C 5.390625 5.28125 5.355469 5.316406 5.367188 5.410156 C 5.390625 5.605469 5.394531 5.800781 5.394531 6 C 5.394531 6.28125 5.382812 6.558594 5.371094 6.839844 C 5.367188 6.929688 5.355469 7.019531 5.34375 7.109375 C 5.328125 7.25 5.300781 7.386719 5.300781 7.527344 C 5.300781 7.667969 5.316406 7.816406 5.351562 7.953125 C 5.460938 8.390625 5.695312 8.75 6.078125 9.003906 C 6.3125 9.160156 6.570312 9.238281 6.855469 9.253906 C 6.875 9.1875 6.894531 9.125 6.914062 9.0625 Z M 6.464844 5.304688 C 6.414062 5.199219 6.441406 5.109375 6.558594 5.070312 C 6.585938 5.058594 6.617188 5.050781 6.644531 5.046875 C 6.6875 5.042969 6.726562 5.046875 6.769531 5.046875 C 6.917969 5.046875 7.058594 5.066406 7.179688 5.160156 C 7.257812 5.222656 7.28125 5.300781 7.230469 5.382812 C 7.15625 5.5 7.046875 5.558594 6.914062 5.570312 C 6.703125 5.585938 6.550781 5.488281 6.464844 5.304688 Z M 12.34375 5.265625 C 12.359375 5.125 12.375 4.984375 12.390625 4.84375 C 12.398438 4.785156 12.371094 4.769531 12.320312 4.769531 C 12.171875 4.765625 12.023438 4.761719 11.875 4.757812 C 11.707031 4.753906 11.542969 4.78125 11.386719 4.84375 C 11.214844 4.917969 11.085938 5.03125 11.03125 5.21875 C 10.992188 5.359375 10.980469 5.496094 10.992188 5.644531 C 11.015625 5.867188 11.066406 6.085938 11.144531 6.292969 C 11.246094 6.570312 11.355469 6.847656 11.488281 7.113281 C 11.664062 7.472656 11.863281 7.820312 12.050781 8.175781 C 12.101562 8.269531 12.144531 8.371094 12.195312 8.480469 C 12.304688 8.25 12.359375 8.015625 12.363281 7.777344 C 12.371094 7.574219 12.351562 7.375 12.339844 7.171875 C 12.335938 7.050781 12.316406 6.925781 12.304688 6.804688 C 12.289062 6.632812 12.261719 6.460938 12.257812 6.289062 C 12.253906 6.113281 12.265625 5.9375 12.28125 5.765625 C 12.296875 5.597656 12.324219 5.429688 12.34375 5.265625 Z M 12.007812 5.128906 C 11.953125 5.28125 11.835938 5.367188 11.679688 5.394531 C 11.539062 5.417969 11.414062 5.363281 11.320312 5.25 C 11.253906 5.167969 11.277344 5.074219 11.378906 5.019531 C 11.492188 4.953125 11.617188 4.9375 11.765625 4.929688 C 11.804688 4.9375 11.867188 4.941406 11.925781 4.960938 C 12.007812 4.984375 12.039062 5.046875 12.007812 5.128906 Z M 7.582031 9.835938 C 7.5 9.769531 7.390625 9.765625 7.3125 9.839844 C 7.214844 9.929688 7.128906 10.035156 7.046875 10.136719 C 6.949219 10.257812 6.855469 10.378906 6.730469 10.472656 C 6.542969 10.605469 6.328125 10.664062 6.113281 10.714844 C 5.941406 10.757812 5.769531 10.796875 5.597656 10.835938 L 5.597656 10.859375 C 5.648438 10.882812 5.695312 10.910156 5.75 10.925781 C 6.011719 11.011719 6.277344 11.050781 6.554688 11.027344 C 6.757812 11.011719 6.949219 10.96875 7.128906 10.882812 C 7.378906 10.765625 7.570312 10.578125 7.730469 10.359375 C 7.757812 10.324219 7.769531 10.269531 7.773438 10.222656 C 7.785156 10.058594 7.703125 9.9375 7.582031 9.835938 Z M 14.050781 9.902344 C 13.835938 9.925781 13.625 9.949219 13.414062 9.960938 C 13.3125 9.96875 13.207031 9.949219 13.105469 9.941406 C 12.933594 9.925781 12.761719 9.886719 12.617188 9.792969 C 12.53125 9.742188 12.460938 9.734375 12.371094 9.765625 C 12.242188 9.808594 12.136719 9.875 12.105469 10.015625 C 12.085938 10.109375 12.078125 10.207031 12.070312 10.300781 C 12.070312 10.320312 12.089844 10.351562 12.105469 10.355469 C 12.203125 10.378906 12.304688 10.410156 12.40625 10.421875 C 12.53125 10.429688 12.65625 10.429688 12.78125 10.421875 C 12.917969 10.414062 13.054688 10.40625 13.1875 10.382812 C 13.503906 10.332031 13.804688 10.246094 14.078125 10.066406 C 14.171875 10.003906 14.269531 9.9375 14.367188 9.871094 L 14.359375 9.859375 C 14.253906 9.875 14.152344 9.890625 14.050781 9.902344 Z M 14.050781 9.902344 "/>
</g>
</svg>
