
<svg xmlns="http://www.w3.org/2000/svg" xmlns:xlink="http://www.w3.org/1999/xlink" width="16px" height="16px" viewBox="0 0 16 16" version="1.1">
<g id="surface1">
<path style=" stroke:none;fill-rule:nonzero;fill:rgb(16.470589%,2.352941%,20.392157%);fill-opacity:1;" d="M 6.289062 4.8125 L 5.363281 4.8125 L 5.363281 7.398438 L 6.289062 7.398438 C 6.914062 7.398438 7.425781 6.886719 7.425781 6.261719 L 7.425781 5.960938 C 7.425781 5.324219 6.914062 4.8125 6.289062 4.8125 Z M 6.289062 4.8125 "/>
<path style=" stroke:none;fill-rule:nonzero;fill:rgb(16.470589%,2.352941%,20.392157%);fill-opacity:1;" d="M 0 0 L 0 16 L 16 16 L 16 0 Z M 6.398438 8.4375 L 5.363281 8.4375 L 5.363281 11.101562 L 4.164062 11.101562 L 4.164062 3.789062 L 6.476562 3.789062 C 7.648438 3.773438 8.613281 4.710938 8.625 5.886719 L 8.625 6.175781 C 8.625 7.414062 7.625 8.425781 6.398438 8.4375 Z M 12.164062 6.664062 C 12.164062 6.664062 11.289062 6.664062 10.898438 6.824219 L 10.898438 11.101562 L 9.636719 11.101562 L 9.636719 6.113281 C 9.636719 6.113281 10.914062 5.476562 12.164062 5.636719 Z M 12.164062 6.664062 "/>
</g>
</svg>
