
<svg xmlns="http://www.w3.org/2000/svg" xmlns:xlink="http://www.w3.org/1999/xlink" width="24px" height="24px" viewBox="0 0 24 24" version="1.1">
<g id="surface1">
<path style=" stroke:none;fill-rule:evenodd;fill:rgb(0%,74.901962%,64.705884%);fill-opacity:1;" d="M 14.40625 14.097656 L 7.085938 16.207031 C 6.863281 16.273438 6.648438 16.082031 6.695312 15.863281 L 9.308594 3.660156 C 9.359375 3.433594 9.683594 3.398438 9.785156 3.609375 L 14.625 13.625 C 14.71875 13.816406 14.613281 14.039062 14.40625 14.097656 Z M 15.660156 13.601562 L 10.054688 2 C 9.914062 1.710938 9.621094 1.519531 9.289062 1.5 C 8.945312 1.480469 8.640625 1.640625 8.46875 1.914062 L 2.386719 11.511719 C 2.199219 11.808594 2.203125 12.179688 2.398438 12.472656 L 5.371094 16.960938 C 5.546875 17.226562 5.855469 17.382812 6.175781 17.382812 C 6.265625 17.382812 6.355469 17.371094 6.445312 17.34375 L 15.074219 14.859375 C 15.335938 14.78125 15.554688 14.601562 15.667969 14.359375 C 15.78125 14.117188 15.777344 13.839844 15.660156 13.601562 Z M 15.660156 13.601562 "/>
</g>
</svg>
