
<svg xmlns="http://www.w3.org/2000/svg" xmlns:xlink="http://www.w3.org/1999/xlink" width="24px" height="24px" viewBox="0 0 24 24" version="1.1">
<g id="surface1">
<path style=" stroke:none;fill-rule:nonzero;fill:rgb(57.254905%,46.666667%,68.627453%);fill-opacity:1;" d="M 6.75 19.5 L 6.75 15.214844 L 9.1875 17.355469 Z M 15.554688 10.816406 C 16.488281 11.746094 16.5 12.933594 16.5 13.070312 L 16.5 19.5 L 14.332031 19.5 L 14.332031 13.101562 C 14.324219 12.601562 14.078125 12 12.980469 12 C 10.777344 12 8.304688 13.097656 8.28125 13.105469 L 6.75 13.792969 L 6.75 4.5 L 8.917969 4.5 L 8.917969 10.582031 C 10 10.234375 11.511719 9.855469 12.980469 9.855469 C 14.316406 9.855469 15.121094 10.378906 15.554688 10.816406 Z M 12.707031 7.980469 C 13.558594 6.878906 14.09375 5.714844 14.332031 4.5 L 16.5 4.5 C 16.355469 5.71875 15.855469 6.882812 14.875 7.980469 Z M 12.707031 7.980469 "/>
</g>
</svg>
