
<svg xmlns="http://www.w3.org/2000/svg" xmlns:xlink="http://www.w3.org/1999/xlink" width="24px" height="24px" viewBox="0 0 24 24" version="1.1">
<g id="surface1">
<path style=" stroke:none;fill-rule:nonzero;fill:rgb(83.137256%,89.019608%,89.803922%);fill-opacity:1;" d="M 6.523438 17.25 L 12 17.25 L 12 18.675781 L 6.523438 18.675781 Z M 6.523438 17.25 "/>
<path style=" stroke:none;fill-rule:nonzero;fill:rgb(31.37255%,60.000002%,82.745099%);fill-opacity:1;" d="M 12.976562 11.550781 L 17.773438 11.550781 L 17.773438 12.976562 L 12.976562 12.976562 Z M 12.976562 11.550781 "/>
<path style=" stroke:none;fill-rule:nonzero;fill:rgb(62.352943%,78.823531%,33.333334%);fill-opacity:1;" d="M 5.25 5.324219 L 10.199219 5.324219 L 10.199219 6.75 L 5.25 6.75 Z M 5.25 5.324219 "/>
<path style=" stroke:none;fill-rule:nonzero;fill:rgb(62.352943%,45.882353%,70.19608%);fill-opacity:1;" d="M 8.175781 11.550781 L 11.925781 11.550781 L 11.925781 12.976562 L 8.175781 12.976562 Z M 8.175781 11.550781 "/>
<path style=" stroke:none;fill-rule:nonzero;fill:rgb(31.37255%,60.000002%,82.745099%);fill-opacity:1;" d="M 8.175781 14.476562 L 12.824219 14.476562 L 12.824219 15.898438 L 8.175781 15.898438 Z M 8.175781 14.476562 "/>
<path style=" stroke:none;fill-rule:nonzero;fill:rgb(62.352943%,45.882353%,70.19608%);fill-opacity:1;" d="M 16.351562 14.476562 L 18.75 14.476562 L 18.75 15.898438 L 16.351562 15.898438 Z M 16.351562 14.476562 "/>
<path style=" stroke:none;fill-rule:nonzero;fill:rgb(83.137256%,89.019608%,89.803922%);fill-opacity:1;" d="M 6.523438 8.476562 L 12 8.476562 L 12 9.898438 L 6.523438 9.898438 Z M 6.523438 8.476562 "/>
<path style=" stroke:none;fill-rule:nonzero;fill:rgb(62.352943%,78.823531%,33.333334%);fill-opacity:1;" d="M 13.875 14.476562 L 15.375 14.476562 L 15.375 15.898438 L 13.875 15.898438 Z M 13.875 14.476562 "/>
</g>
</svg>
