
<svg xmlns="http://www.w3.org/2000/svg" xmlns:xlink="http://www.w3.org/1999/xlink" width="24px" height="24px" viewBox="0 0 24 24" version="1.1">
<g id="surface1">
<path style=" stroke:none;fill-rule:nonzero;fill:rgb(0%,0%,0%);fill-opacity:1;" d="M 16.898438 5.25 C 16.898438 5.25 15.230469 7.257812 12.226562 7.257812 C 9.226562 7.257812 7.558594 5.25 7.558594 5.25 C 7.558594 5.25 5.855469 7.902344 6.007812 10.480469 C 6.105469 12.105469 6.53125 13.820312 8.097656 15.582031 C 9.019531 16.621094 10.339844 17.675781 12.226562 18.742188 C 17.324219 15.867188 18.289062 13.0625 18.445312 10.480469 C 18.601562 7.902344 16.898438 5.25 16.898438 5.25 Z M 7.804688 6.664062 C 8.09375 6.886719 8.402344 7.082031 8.726562 7.257812 C 8.105469 7.46875 7.5625 7.855469 7.152344 8.367188 C 7.320312 7.78125 7.539062 7.210938 7.804688 6.664062 Z M 16.445312 14.019531 C 16.035156 14.652344 15.5 15.261719 14.835938 15.851562 L 14.835938 15.050781 L 13.949219 15.050781 L 13.949219 16.578125 C 13.554688 16.871094 13.128906 17.160156 12.671875 17.445312 L 12.671875 16.144531 L 11.78125 16.144531 L 11.78125 17.445312 C 11.34375 17.171875 10.917969 16.882812 10.507812 16.574219 L 10.507812 15.050781 L 9.617188 15.050781 L 9.617188 15.847656 C 9.316406 15.582031 9.03125 15.296875 8.761719 14.992188 C 8.128906 14.28125 7.710938 13.589844 7.433594 12.933594 C 8.328125 13.8125 9.632812 14.132812 10.832031 13.761719 L 12.226562 15.15625 L 13.621094 13.761719 C 14.820312 14.132812 16.125 13.8125 17.019531 12.933594 C 16.859375 13.3125 16.667969 13.675781 16.445312 14.019531 Z M 11.6875 13.363281 C 11.882812 13.238281 12.0625 13.09375 12.226562 12.929688 C 12.390625 13.089844 12.570312 13.238281 12.765625 13.363281 L 12.226562 13.902344 Z M 14.625 13.023438 C 13.539062 13.023438 12.578125 12.332031 12.226562 11.304688 C 11.832031 12.476562 10.644531 13.191406 9.421875 12.988281 C 8.203125 12.789062 7.304688 11.730469 7.304688 10.496094 C 7.304688 9.257812 8.203125 8.203125 9.421875 8 C 10.644531 7.800781 11.832031 8.511719 12.226562 9.683594 C 12.640625 8.460938 13.910156 7.746094 15.171875 8.023438 C 16.433594 8.300781 17.28125 9.484375 17.140625 10.769531 C 17 12.054688 15.917969 13.027344 14.625 13.027344 Z M 15.730469 7.257812 C 16.054688 7.082031 16.359375 6.886719 16.652344 6.664062 C 16.917969 7.210938 17.132812 7.78125 17.300781 8.367188 C 16.894531 7.855469 16.347656 7.472656 15.730469 7.257812 Z M 15.730469 7.257812 "/>
<path style=" stroke:none;fill-rule:nonzero;fill:rgb(0%,0%,0%);fill-opacity:1;" d="M 11.09375 10.496094 C 11.09375 11.195312 10.527344 11.761719 9.828125 11.761719 C 9.128906 11.761719 8.5625 11.195312 8.5625 10.496094 C 8.5625 9.796875 9.128906 9.230469 9.828125 9.230469 C 10.527344 9.230469 11.09375 9.796875 11.09375 10.496094 Z M 11.09375 10.496094 "/>
<path style=" stroke:none;fill-rule:nonzero;fill:rgb(0%,0%,0%);fill-opacity:1;" d="M 15.890625 10.496094 C 15.890625 11.195312 15.324219 11.761719 14.625 11.761719 C 13.925781 11.761719 13.359375 11.195312 13.359375 10.496094 C 13.359375 9.796875 13.925781 9.230469 14.625 9.230469 C 15.324219 9.230469 15.890625 9.796875 15.890625 10.496094 Z M 15.890625 10.496094 "/>
</g>
</svg>
