<!-- Generator: Adobe Illustrator 19.2.1, SVG Export Plug-In . SVG Version: 6.00 Build 0)  -->
<svg xmlns="http://www.w3.org/2000/svg" xmlns:xlink="http://www.w3.org/1999/xlink" width="16px" height="16px" viewBox="0 0 16 16" version="1.1">
<g id="surface1">
<path style=" stroke:none;fill-rule:nonzero;fill:rgb(71.764708%,6.666667%,11.372549%);fill-opacity:1;" d="M 10.761719 5.9375 C 11.789062 7 11.851562 8.289062 11.851562 8.585938 L 4.210938 8.585938 C 4.210938 8.324219 4.273438 6.898438 5.4375 5.800781 C 6.5 4.800781 7.75 4.761719 8.039062 4.761719 C 8.289062 4.761719 9.664062 4.800781 10.761719 5.9375 Z M 15.738281 8 C 15.738281 12.273438 12.273438 15.738281 8 15.738281 C 3.726562 15.738281 0.25 12.273438 0.25 8 C 0.25 3.726562 3.726562 0.25 8 0.25 C 12.273438 0.25 15.738281 3.726562 15.738281 8 Z M 13.835938 10.039062 C 13.863281 9.738281 13.875 9.300781 13.835938 8.789062 C 13.835938 8.789062 13.835938 8.773438 13.835938 8.773438 L 12.726562 8.773438 L 12.726562 8.375 L 13.800781 8.375 C 13.710938 7.375 13.476562 5.886719 12.386719 4.625 C 12.363281 4.585938 12.324219 4.5625 12.300781 4.523438 L 11.449219 5.375 L 11.164062 5.085938 L 12.011719 4.238281 C 10.625 2.914062 8.851562 2.699219 8.226562 2.664062 L 8.226562 3.824219 L 7.824219 3.824219 L 7.824219 2.648438 C 7.210938 2.675781 5.4375 2.875 4.011719 4.261719 L 4.824219 5.074219 L 4.550781 5.375 L 3.738281 4.5625 C 2.585938 5.851562 2.324219 7.386719 2.226562 8.375 L 3.261719 8.375 L 3.261719 8.773438 L 2.1875 8.773438 C 2.1875 8.789062 2.1875 8.800781 2.1875 8.824219 C 2.148438 9.324219 2.164062 9.75 2.1875 10.039062 Z M 13.835938 10.039062 "/>
</g>
</svg>
