
<svg xmlns="http://www.w3.org/2000/svg" xmlns:xlink="http://www.w3.org/1999/xlink" width="24px" height="24px" viewBox="0 0 24 24" version="1.1">
<g id="surface1">
<path style=" stroke:none;fill-rule:nonzero;fill:rgb(0%,0%,0%);fill-opacity:1;" d="M 14.316406 7.460938 L 14.3125 7.460938 C 14.3125 7.460938 14.3125 7.460938 14.3125 7.464844 L 14.316406 7.464844 Z M 12.816406 12.183594 C 12.699219 12.117188 12.597656 12.046875 12.519531 11.902344 C 12.410156 11.710938 12.152344 11.617188 11.90625 11.636719 C 11.660156 11.621094 11.402344 11.714844 11.296875 11.902344 C 11.21875 12.046875 11.117188 12.117188 11 12.183594 C 10.171875 12.644531 9.65625 13.660156 9.695312 14.761719 C 9.679688 14.773438 9.820312 16.238281 10.039062 16.4375 C 10.125 16.492188 11.140625 16.796875 11.90625 16.796875 C 12.675781 16.796875 13.738281 16.488281 13.824219 16.4375 C 14.042969 16.238281 14.136719 14.773438 14.125 14.761719 C 14.15625 13.660156 13.648438 12.644531 12.816406 12.183594 Z M 17.957031 9.25 C 17.582031 8.820312 17.234375 8.34375 16.804688 8.007812 C 16.269531 7.589844 15.640625 7.515625 15.015625 7.46875 C 14.949219 7.59375 15.03125 7.671875 15.085938 7.746094 C 15.179688 7.875 15.285156 7.992188 15.382812 8.117188 C 15.941406 8.804688 16.351562 9.589844 16.492188 10.546875 C 16.507812 10.65625 16.730469 12.75 16.785156 12.804688 C 16.886719 13.167969 16.96875 13.1875 17.183594 12.917969 C 17.242188 12.84375 17.566406 11.835938 17.804688 11.472656 C 18.042969 11.105469 18.710938 10.585938 18.746094 10.460938 C 18.78125 10.339844 18.234375 9.570312 17.957031 9.25 Z M 8.515625 7.746094 C 8.570312 7.671875 8.652344 7.59375 8.585938 7.46875 C 7.960938 7.515625 7.332031 7.589844 6.796875 8.007812 C 6.363281 8.34375 6.019531 8.820312 5.644531 9.25 C 5.367188 9.570312 4.820312 10.339844 4.859375 10.460938 C 4.894531 10.585938 5.5625 11.105469 5.800781 11.472656 C 6.039062 11.835938 6.363281 12.84375 6.421875 12.917969 C 6.636719 13.1875 6.71875 13.164062 6.820312 12.804688 C 6.875 12.75 7.097656 10.65625 7.113281 10.546875 C 7.253906 9.589844 7.664062 8.804688 8.222656 8.117188 C 8.316406 7.992188 8.421875 7.875 8.515625 7.746094 Z M 16.085938 12.8125 L 16.085938 12.804688 C 16.085938 12.808594 16.082031 12.808594 16.082031 12.8125 C 16.082031 12.8125 16.085938 12.8125 16.085938 12.8125 Z M 16.085938 12.8125 "/>
<path style=" stroke:none;fill-rule:nonzero;fill:rgb(0%,0%,0%);fill-opacity:1;" d="M 14.683594 8.121094 C 14.585938 7.996094 14.476562 7.871094 14.382812 7.742188 C 14.328125 7.664062 14.25 7.59375 14.3125 7.464844 C 13.757812 7.398438 13.207031 7.277344 12.648438 7.234375 C 11.621094 7.148438 10.609375 7.230469 9.605469 7.464844 C 9.503906 7.492188 9.410156 7.53125 9.3125 7.472656 C 9.3125 7.488281 9.308594 7.503906 9.308594 7.515625 C 9.332031 7.613281 9.265625 7.675781 9.21875 7.746094 C 9.125 7.875 9.019531 7.988281 8.921875 8.113281 C 8.363281 8.800781 7.953125 9.585938 7.8125 10.546875 C 7.804688 10.585938 7.773438 10.894531 7.726562 11.273438 C 7.726562 11.3125 7.726562 11.347656 7.722656 11.378906 L 7.71875 11.363281 C 7.667969 11.804688 7.617188 12.613281 7.644531 12.8125 C 7.679688 13.089844 7.707031 13.371094 7.863281 13.605469 C 8 13.925781 8.269531 14.15625 8.324219 14.535156 C 8.433594 15.269531 8.800781 15.691406 9.328125 15.921875 C 9.125 15.46875 9.035156 14.265625 9.050781 14.253906 C 9.003906 13.066406 9.652344 11.964844 10.710938 11.46875 C 10.859375 11.398438 10.988281 11.324219 11.09375 11.167969 C 11.226562 10.960938 11.554688 10.859375 11.867188 10.878906 C 12.183594 10.859375 12.507812 10.960938 12.644531 11.167969 C 12.746094 11.324219 12.875 11.398438 13.023438 11.46875 C 14.082031 11.964844 14.730469 13.066406 14.6875 14.253906 C 14.699219 14.265625 14.617188 15.414062 14.421875 15.886719 C 14.882812 15.652344 15.21875 15.265625 15.316406 14.644531 C 15.355469 14.410156 15.429688 14.199219 15.550781 14.011719 C 15.621094 13.910156 15.707031 13.816406 15.710938 13.671875 C 15.808594 13.613281 15.84375 13.496094 15.875 13.386719 C 15.9375 13.191406 15.964844 12.972656 16.085938 12.804688 C 16.027344 12.695312 15.808594 10.652344 15.792969 10.546875 C 15.648438 9.59375 15.238281 8.804688 14.683594 8.121094 Z M 8.726562 9.226562 C 8.71875 9.214844 8.707031 9.203125 8.699219 9.195312 C 8.71875 9.195312 8.726562 9.207031 8.726562 9.226562 Z M 9.285156 11.746094 C 8.804688 11.746094 8.414062 11.277344 8.414062 10.699219 C 8.414062 10.121094 8.804688 9.652344 9.285156 9.652344 C 9.769531 9.652344 10.15625 10.121094 10.15625 10.699219 C 10.15625 11.277344 9.769531 11.746094 9.285156 11.746094 Z M 13.75 11.332031 C 13.75 11.332031 13.753906 11.332031 13.753906 11.332031 C 13.753906 11.332031 13.753906 11.332031 13.757812 11.335938 C 13.753906 11.335938 13.753906 11.332031 13.75 11.332031 Z M 14.515625 11.746094 C 14.035156 11.746094 13.644531 11.277344 13.644531 10.699219 C 13.644531 10.121094 14.035156 9.652344 14.515625 9.652344 C 14.996094 9.652344 15.386719 10.121094 15.386719 10.699219 C 15.386719 11.277344 14.996094 11.746094 14.515625 11.746094 Z M 15.441406 11.105469 C 15.441406 11.09375 15.441406 11.082031 15.4375 11.074219 C 15.441406 11.050781 15.441406 11.027344 15.441406 11.003906 C 15.445312 11.039062 15.449219 11.074219 15.441406 11.105469 Z M 15.449219 10.863281 C 15.445312 10.871094 15.441406 10.878906 15.441406 10.890625 L 15.441406 10.867188 C 15.445312 10.859375 15.449219 10.859375 15.449219 10.863281 Z M 15.449219 10.863281 "/>
</g>
</svg>
