
<svg xmlns="http://www.w3.org/2000/svg" xmlns:xlink="http://www.w3.org/1999/xlink" width="24px" height="24px" viewBox="0 0 24 24" version="1.1">
<g id="surface1">
<path style=" stroke:none;fill-rule:nonzero;fill:rgb(14.117648%,14.117648%,14.117648%);fill-opacity:1;" d="M 5.429688 2.148438 L 11.410156 2.148438 C 11.410156 3.671875 11.402344 5.195312 11.410156 6.714844 C 12.226562 7.519531 13.03125 8.335938 13.84375 9.140625 L 13.871094 9.152344 C 15.386719 9.160156 16.902344 9.152344 18.414062 9.15625 L 18.414062 15.132812 L 13.902344 15.132812 C 13.828125 15.128906 13.789062 15.210938 13.734375 15.253906 C 12.960938 16.027344 12.191406 16.804688 11.410156 17.574219 C 11.402344 19.097656 11.410156 20.621094 11.410156 22.140625 L 5.429688 22.140625 L 5.429688 16.164062 C 6.953125 16.160156 8.480469 16.164062 10.003906 16.160156 C 10.816406 15.34375 11.632812 14.53125 12.445312 13.714844 L 12.445312 10.578125 C 11.632812 9.757812 10.816406 8.945312 10 8.128906 L 5.429688 8.128906 Z M 5.429688 2.148438 "/>
<path style=" stroke:none;fill-rule:nonzero;fill:rgb(99.607843%,99.607843%,99.607843%);fill-opacity:1;" d="M 7.433594 4.152344 L 9.414062 4.152344 L 9.414062 6.132812 L 7.433594 6.132812 Z M 7.433594 18.167969 L 9.414062 18.167969 L 9.414062 20.148438 L 7.433594 20.148438 Z M 7.433594 18.167969 "/>
</g>
</svg>
