
<svg xmlns="http://www.w3.org/2000/svg" xmlns:xlink="http://www.w3.org/1999/xlink" width="24px" height="24px" viewBox="0 0 24 24" version="1.1">
<g id="surface1">
<path style=" stroke:none;fill-rule:nonzero;fill:rgb(20.784314%,43.137255%,63.137257%);fill-opacity:1;" d="M 11.699219 11.625 L 10.199219 11.625 C 9.148438 11.625 8.476562 12.300781 8.476562 13.351562 L 8.476562 14.699219 C 8.476562 14.851562 8.398438 14.925781 8.25 14.925781 L 7.574219 14.925781 C 6.898438 14.925781 6.375 14.625 6.074219 14.023438 C 5.851562 13.574219 5.699219 13.125 5.699219 12.675781 C 5.625 11.851562 5.625 11.023438 5.925781 10.199219 C 6.148438 9.523438 6.601562 9 7.351562 8.851562 L 11.699219 8.851562 C 11.773438 8.851562 11.925781 8.851562 11.925781 8.773438 L 11.925781 8.398438 C 11.925781 8.398438 11.773438 8.324219 11.699219 8.324219 L 9.148438 8.324219 C 8.925781 8.324219 8.851562 8.25 8.851562 8.023438 L 8.851562 7.050781 C 8.851562 6.523438 9.074219 6.148438 9.523438 6 C 9.898438 5.851562 10.273438 5.699219 10.648438 5.625 C 11.550781 5.476562 12.449219 5.476562 13.351562 5.699219 C 13.726562 5.773438 14.101562 5.925781 14.398438 6.148438 C 14.699219 6.449219 14.925781 6.75 14.851562 7.199219 L 14.851562 9.898438 C 14.851562 10.949219 14.25 11.550781 13.199219 11.550781 C 12.675781 11.625 12.148438 11.625 11.699219 11.625 Z M 9.601562 7.125 C 9.601562 7.425781 9.824219 7.726562 10.199219 7.726562 C 10.5 7.726562 10.800781 7.425781 10.800781 7.125 C 10.800781 6.824219 10.5 6.601562 10.199219 6.523438 C 9.824219 6.523438 9.601562 6.824219 9.601562 7.125 Z M 12.300781 12.375 L 13.800781 12.375 C 14.851562 12.375 15.523438 11.699219 15.523438 10.648438 L 15.523438 9.300781 C 15.523438 9.148438 15.601562 9.074219 15.75 9.074219 L 16.425781 9.074219 C 17.101562 9.074219 17.625 9.375 17.925781 9.976562 C 18.148438 10.425781 18.300781 10.875 18.300781 11.324219 C 18.375 12.148438 18.375 12.976562 18.074219 13.800781 C 17.851562 14.476562 17.398438 15 16.648438 15.148438 L 12.300781 15.148438 C 12.226562 15.148438 12.074219 15.148438 12.074219 15.226562 L 12.074219 15.601562 C 12.074219 15.601562 12.226562 15.675781 12.300781 15.675781 L 14.851562 15.675781 C 15.074219 15.675781 15.148438 15.75 15.148438 15.976562 L 15.148438 16.949219 C 15.148438 17.476562 14.925781 17.851562 14.476562 18 C 14.101562 18.148438 13.726562 18.300781 13.351562 18.375 C 12.449219 18.523438 11.550781 18.523438 10.648438 18.300781 C 10.273438 18.226562 9.898438 18.074219 9.601562 17.851562 C 9.300781 17.550781 9.074219 17.25 9.148438 16.800781 L 9.148438 14.101562 C 9.148438 13.050781 9.75 12.449219 10.800781 12.449219 C 11.324219 12.375 11.851562 12.375 12.300781 12.375 Z M 14.398438 16.875 C 14.398438 16.574219 14.175781 16.273438 13.800781 16.273438 C 13.5 16.273438 13.199219 16.574219 13.199219 16.875 C 13.199219 17.175781 13.5 17.398438 13.800781 17.476562 C 14.175781 17.476562 14.398438 17.175781 14.398438 16.875 Z M 14.398438 16.875 "/>
</g>
</svg>
