
<svg xmlns="http://www.w3.org/2000/svg" xmlns:xlink="http://www.w3.org/1999/xlink" width="16px" height="16px" viewBox="0 0 16 16" version="1.1">
<g id="surface1">
<path style=" stroke:none;fill-rule:nonzero;fill:rgb(30.19608%,52.156866%,28.235295%);fill-opacity:1;" d="M 12.054688 5.066406 L 11.988281 5.066406 C 10.636719 5.058594 9.453125 5.96875 9.113281 7.277344 L 9.101562 7.277344 C 8.855469 8.554688 7.675781 9.441406 6.378906 9.316406 C 5.082031 9.195312 4.089844 8.105469 4.089844 6.800781 C 4.089844 6.707031 4.097656 6.613281 4.109375 6.523438 C 4.109375 6.503906 4.109375 6.484375 4.117188 6.464844 C 4.125 6.449219 4.128906 6.394531 4.136719 6.359375 C 4.640625 3.992188 6.1875 1.980469 8.347656 0.886719 C 6.574219 0.367188 4.664062 0.667969 3.136719 1.714844 C 1.613281 2.757812 0.640625 4.429688 0.484375 6.269531 C 0.476562 6.292969 0.464844 6.3125 0.457031 6.335938 L 0.457031 15.335938 L 4.101562 15.335938 L 4.101562 12.421875 C 6.296875 13.414062 8.863281 13.03125 10.675781 11.449219 C 12.492188 9.867188 13.214844 7.375 12.53125 5.066406 Z M 12.054688 5.066406 "/>
<path style=" stroke:none;fill-rule:nonzero;fill:rgb(30.19608%,52.156866%,28.235295%);fill-opacity:1;" d="M 8.492188 7.160156 L 8.503906 7.140625 C 8.898438 5.558594 10.316406 4.449219 11.949219 4.449219 C 11.984375 4.449219 12.019531 4.449219 12.054688 4.449219 L 13.691406 4.449219 C 13.960938 4.4375 14.222656 4.371094 14.464844 4.25 C 14.402344 4.242188 14.339844 4.234375 14.28125 4.222656 C 13.394531 4.046875 12.671875 3.402344 12.390625 2.542969 C 12.761719 3.023438 13.292969 3.351562 13.886719 3.472656 C 14.386719 3.570312 14.90625 3.511719 15.375 3.300781 C 15.628906 2.714844 15.574219 2.042969 15.222656 1.503906 C 14.875 0.96875 14.277344 0.644531 13.640625 0.640625 L 11.949219 0.640625 C 8.488281 0.640625 5.496094 3.050781 4.757812 6.429688 C 4.730469 6.554688 4.714844 6.679688 4.710938 6.804688 C 4.710938 7.789062 5.457031 8.613281 6.4375 8.707031 C 7.417969 8.800781 8.308594 8.132812 8.492188 7.164062 Z M 13.050781 1.738281 C 13.113281 1.417969 13.425781 1.210938 13.746094 1.273438 C 14.066406 1.339844 14.273438 1.648438 14.210938 1.96875 C 14.144531 2.289062 13.835938 2.5 13.515625 2.433594 C 13.195312 2.371094 12.988281 2.0625 13.046875 1.742188 Z M 15.550781 13.457031 C 15.550781 14.507812 14.695312 15.359375 13.644531 15.359375 L 11.949219 15.359375 C 10.175781 15.363281 8.46875 14.722656 7.132812 13.558594 C 8.785156 13.4375 10.332031 12.710938 11.484375 11.519531 C 11.636719 11.539062 11.792969 11.550781 11.949219 11.550781 C 11.984375 11.550781 13.613281 11.550781 13.640625 11.550781 C 14.691406 11.550781 15.542969 12.40625 15.542969 13.457031 Z M 15.550781 13.457031 "/>
</g>
</svg>
