
<svg xmlns="http://www.w3.org/2000/svg" xmlns:xlink="http://www.w3.org/1999/xlink" width="24px" height="24px" viewBox="0 0 24 24" version="1.1">
<defs>
<linearGradient id="linear0" gradientUnits="userSpaceOnUse" x1="7.1" y1="10.197" x2="25" y2="22.184999" gradientTransform="matrix(0.75,0,0,0.75,-0.0375,-0.8235)">
<stop offset="0" style="stop-color:rgb(79.607844%,80.784315%,81.568629%);stop-opacity:1;"/>
<stop offset="1" style="stop-color:rgb(51.764709%,51.372552%,54.509807%);stop-opacity:1;"/>
</linearGradient>
<linearGradient id="linear1" gradientUnits="userSpaceOnUse" x1="14.475" y1="13.919" x2="24.355" y2="24" gradientTransform="matrix(0.75,0,0,0.75,-0.0375,-0.8235)">
<stop offset="0" style="stop-color:rgb(15.294118%,42.745098%,76.47059%);stop-opacity:1;"/>
<stop offset="1" style="stop-color:rgb(8.627451%,36.078432%,66.666669%);stop-opacity:1;"/>
</linearGradient>
</defs>
<g id="surface1">
<path style=" stroke:none;fill-rule:evenodd;fill:url(#linear0);" d="M 12 15.816406 C 8.292969 15.816406 5.289062 13.800781 5.289062 11.320312 C 5.289062 8.835938 8.292969 6.824219 12 6.824219 C 15.707031 6.824219 18.710938 8.835938 18.710938 11.320312 C 18.710938 13.800781 15.707031 15.816406 12 15.816406 Z M 13.027344 8.582031 C 10.210938 8.582031 7.925781 9.957031 7.925781 11.65625 C 7.925781 13.351562 10.210938 14.726562 13.027344 14.726562 C 15.84375 14.726562 17.925781 13.789062 17.925781 11.65625 C 17.925781 9.523438 15.84375 8.582031 13.027344 8.582031 Z M 13.027344 8.582031 "/>
<path style=" stroke:none;fill-rule:evenodd;fill:url(#linear1);" d="M 15.511719 13.785156 C 15.511719 13.785156 15.917969 13.910156 16.152344 14.027344 C 16.234375 14.070312 16.375 14.152344 16.476562 14.253906 C 16.578125 14.355469 16.625 14.46875 16.625 14.46875 L 18.226562 17.167969 L 15.640625 17.167969 L 14.429688 14.894531 C 14.429688 14.894531 14.183594 14.46875 14.03125 14.347656 C 13.902344 14.242188 13.847656 14.207031 13.730469 14.207031 L 13.113281 14.207031 L 13.113281 17.175781 L 10.824219 17.175781 L 10.824219 9.617188 L 15.421875 9.617188 C 15.421875 9.617188 17.515625 9.652344 17.515625 11.644531 C 17.515625 13.640625 15.515625 13.789062 15.515625 13.789062 Z M 14.515625 11.253906 L 13.128906 11.253906 L 13.128906 12.539062 L 14.515625 12.539062 C 14.515625 12.539062 15.15625 12.535156 15.15625 11.886719 C 15.15625 11.21875 14.515625 11.253906 14.515625 11.253906 Z M 14.515625 11.253906 "/>
</g>
</svg>
