
<svg xmlns="http://www.w3.org/2000/svg" xmlns:xlink="http://www.w3.org/1999/xlink" width="24px" height="24px" viewBox="0 0 24 24" version="1.1">
<g id="surface1">
<path style=" stroke:none;fill-rule:nonzero;fill:rgb(80.392158%,24.705882%,27.058825%);fill-opacity:1;" d="M 18.300781 8.101562 C 17.773438 7.574219 17.101562 7.199219 16.425781 6.898438 C 15.601562 6.523438 14.773438 6.375 13.875 6.523438 C 12.976562 6.675781 12.148438 6.976562 11.476562 7.5 C 10.726562 8.023438 10.125 8.625 9.675781 9.375 C 9.375 9.824219 9.148438 10.273438 8.851562 10.800781 C 8.476562 11.550781 8.101562 12.375 7.800781 13.199219 C 7.5 14.101562 7.273438 15.074219 7.125 15.976562 C 7.050781 16.648438 6.976562 17.324219 6.976562 18 L 6.976562 18.375 L 13.199219 18.375 C 12.898438 17.550781 12.601562 16.726562 12.449219 15.898438 C 12.300781 15.300781 12.226562 14.699219 12.148438 14.101562 L 12.148438 12.898438 C 12.148438 12.375 12.226562 11.851562 12.449219 11.398438 C 12.898438 9.976562 13.800781 9 15.148438 8.324219 C 15.675781 8.101562 16.199219 7.949219 16.800781 8.023438 C 17.324219 8.101562 17.773438 8.324219 18.148438 8.625 C 18.226562 8.398438 18.300781 8.25 18.300781 8.101562 C 18.375 8.101562 18.375 8.101562 18.300781 8.101562 Z M 5.773438 15.148438 C 5.699219 15.523438 5.699219 15.898438 5.625 16.351562 C 6 16.425781 6.375 16.425781 6.75 16.5 C 6.824219 16.125 6.898438 15.675781 6.976562 15.300781 C 6.523438 15.226562 6.148438 15.148438 5.773438 15.148438 Z M 8.023438 11.625 C 7.648438 11.476562 7.273438 11.324219 6.976562 11.175781 C 6.824219 11.476562 6.75 11.851562 6.601562 12.148438 C 6.976562 12.300781 7.351562 12.375 7.726562 12.523438 C 7.800781 12.226562 7.875 11.925781 8.023438 11.625 Z M 13.800781 16.351562 C 13.800781 16.273438 13.800781 16.273438 13.800781 16.351562 C 13.425781 16.273438 13.125 16.273438 12.824219 16.273438 L 12.75 16.273438 L 12.75 16.351562 C 12.824219 16.574219 12.898438 16.875 12.976562 17.101562 C 12.976562 17.175781 13.050781 17.175781 13.050781 17.175781 C 13.425781 17.175781 13.800781 17.25 14.101562 17.25 L 14.175781 17.25 L 14.175781 17.175781 C 14.101562 16.875 13.949219 16.574219 13.800781 16.351562 Z M 9.824219 8.625 C 9.523438 8.476562 9.300781 8.25 9 8.101562 C 8.773438 8.324219 8.550781 8.550781 8.324219 8.851562 C 8.625 9.074219 8.925781 9.226562 9.148438 9.449219 C 9.375 9.148438 9.601562 8.925781 9.824219 8.625 Z M 12.449219 14.175781 C 12.824219 14.324219 13.125 14.476562 13.351562 14.625 L 13.425781 14.625 L 13.425781 14.550781 C 13.425781 14.324219 13.425781 14.101562 13.351562 13.875 C 13.351562 13.875 13.351562 13.800781 13.273438 13.800781 C 12.976562 13.648438 12.75 13.5 12.449219 13.351562 L 12.375 13.351562 C 12.449219 13.648438 12.449219 13.875 12.449219 14.175781 Z M 12.226562 6.75 C 12.074219 6.523438 11.851562 6.375 11.699219 6.148438 L 11.625 6.148438 C 11.398438 6.300781 11.175781 6.375 10.949219 6.523438 C 11.023438 6.75 11.25 6.976562 11.398438 7.199219 C 11.699219 7.050781 11.925781 6.898438 12.226562 6.75 Z M 12.523438 11.851562 C 12.824219 12.074219 13.050781 12.300781 13.351562 12.523438 C 13.425781 12.300781 13.5 12.074219 13.5 11.773438 L 13.5 11.699219 L 13.425781 11.625 C 13.273438 11.476562 13.050781 11.324219 12.898438 11.175781 C 12.675781 11.398438 12.601562 11.625 12.523438 11.851562 Z M 14.699219 6.375 C 14.699219 6.375 14.699219 6.300781 14.699219 6.375 C 14.699219 6.148438 14.625 6 14.625 5.851562 C 14.625 5.773438 14.625 5.773438 14.550781 5.773438 L 13.648438 5.773438 C 13.726562 6 13.726562 6.226562 13.800781 6.449219 C 14.101562 6.375 14.398438 6.375 14.699219 6.375 Z M 14.175781 10.050781 L 14.175781 9.976562 C 14.023438 9.75 13.875 9.523438 13.726562 9.375 L 13.726562 9.300781 C 13.574219 9.449219 13.425781 9.601562 13.199219 9.75 C 13.425781 9.976562 13.648438 10.273438 13.875 10.5 C 14.023438 10.351562 14.101562 10.199219 14.175781 10.050781 Z M 15.375 8.398438 C 15.148438 8.476562 14.925781 8.476562 14.699219 8.550781 C 14.773438 8.773438 14.925781 8.925781 15 9.148438 C 15.148438 9 15.300781 8.925781 15.449219 8.851562 C 15.449219 8.625 15.375 8.476562 15.375 8.398438 Z M 16.875 6.898438 C 17.101562 7.050781 17.324219 7.125 17.476562 7.273438 C 17.550781 7.199219 17.550781 7.125 17.625 7.050781 C 17.398438 6.898438 17.101562 6.675781 16.875 6.523438 L 16.875 6.898438 C 16.875 6.824219 16.875 6.898438 16.875 6.898438 Z M 17.324219 8.398438 C 17.175781 8.398438 17.023438 8.324219 16.875 8.324219 L 16.726562 8.324219 L 16.726562 8.699219 C 16.949219 8.699219 17.175781 8.773438 17.324219 8.773438 C 17.398438 8.550781 17.398438 8.476562 17.324219 8.398438 C 17.398438 8.398438 17.324219 8.398438 17.324219 8.398438 Z M 17.324219 8.398438 "/>
</g>
</svg>
