
<svg xmlns="http://www.w3.org/2000/svg" xmlns:xlink="http://www.w3.org/1999/xlink" width="24px" height="24px" viewBox="0 0 24 24" version="1.1">
<g id="surface1">
<path style=" stroke:none;fill-rule:nonzero;fill:rgb(80.392158%,24.705882%,27.058825%);fill-opacity:1;" d="M 13.351562 5.625 L 16.425781 5.625 C 16.5 5.625 16.574219 5.699219 16.648438 5.699219 C 17.550781 5.925781 18.148438 6.449219 18.300781 7.351562 C 18.300781 7.5 18.375 7.648438 18.375 7.800781 L 18.375 8.398438 C 18.375 8.550781 18.300781 8.699219 18.300781 8.851562 C 18.226562 9.898438 18.148438 11.023438 18.074219 12.074219 C 17.925781 13.875 17.773438 15.601562 17.699219 17.398438 C 17.699219 17.699219 17.625 17.773438 17.324219 17.773438 C 16.5 17.851562 15.75 17.851562 14.925781 17.925781 C 13.273438 18 11.625 18.148438 9.976562 18.226562 C 9.523438 18.226562 9.074219 18.300781 8.625 18.375 L 7.875 18.375 C 7.800781 18.375 7.726562 18.300781 7.648438 18.300781 C 6.75 18.148438 6.074219 17.625 5.851562 16.726562 C 5.773438 16.5 5.773438 16.273438 5.699219 16.050781 L 5.699219 15.675781 C 5.699219 15.601562 5.773438 15.523438 5.773438 15.375 C 5.773438 14.773438 5.851562 14.101562 5.851562 13.5 C 5.851562 13.125 5.851562 12.824219 5.925781 12.523438 C 6.449219 11.175781 7.050781 9.898438 8.101562 8.851562 C 9.375 7.5 10.800781 6.449219 12.601562 6 C 12.824219 5.851562 13.050781 5.773438 13.351562 5.625 Z M 13.351562 5.625 "/>
</g>
</svg>
