
<svg xmlns="http://www.w3.org/2000/svg" xmlns:xlink="http://www.w3.org/1999/xlink" width="24px" height="24px" viewBox="0 0 24 24" version="1.1">
<g id="surface1">
<path style=" stroke:none;fill-rule:nonzero;fill:rgb(32.156864%,60.784316%,72.941178%);fill-opacity:1;" d="M 16.5 14.550781 C 16.574219 15.375 16.648438 16.125 16.648438 16.949219 C 16.648438 17.925781 16.125 18.601562 15.375 18.675781 C 15 18.75 14.550781 18.675781 14.175781 18.523438 C 13.425781 18.148438 12.75 17.625 12 17.175781 C 11.625 17.476562 11.25 17.773438 10.800781 18.074219 C 10.574219 18.226562 10.273438 18.375 10.050781 18.449219 C 8.699219 19.050781 7.574219 18.375 7.5 16.875 C 7.5 16.125 7.574219 15.300781 7.648438 14.476562 C 7.199219 14.324219 6.75 14.175781 6.300781 13.875 C 5.851562 13.648438 5.476562 13.351562 5.101562 12.976562 C 4.425781 12.300781 4.5 11.476562 5.175781 10.800781 C 5.773438 10.125 6.601562 9.824219 7.425781 9.523438 C 7.5 9.523438 7.648438 9.449219 7.726562 9.449219 C 7.648438 8.925781 7.574219 8.324219 7.5 7.800781 C 7.5 7.351562 7.574219 6.824219 7.648438 6.375 C 7.875 5.550781 8.625 5.175781 9.523438 5.398438 C 10.425781 5.625 11.101562 6.148438 11.699219 6.675781 C 11.851562 6.75 11.925781 6.898438 12 6.976562 C 12.601562 6.523438 13.199219 6.074219 13.875 5.699219 C 14.324219 5.398438 14.851562 5.25 15.375 5.398438 C 16.125 5.550781 16.574219 6.226562 16.648438 7.199219 L 16.648438 8.398438 C 16.648438 8.773438 16.5 9.148438 16.425781 9.601562 C 16.875 9.75 17.25 9.898438 17.699219 10.125 C 18.300781 10.425781 18.898438 10.726562 19.273438 11.324219 C 19.648438 11.851562 19.648438 12.449219 19.273438 12.976562 C 18.898438 13.574219 18.300781 13.875 17.699219 14.175781 C 17.25 14.25 16.875 14.398438 16.5 14.550781 Z M 12.148438 14.476562 C 12.375 14.476562 12.75 14.398438 13.050781 14.398438 C 13.273438 14.398438 13.425781 14.324219 13.574219 14.101562 C 13.949219 13.5 14.324219 12.898438 14.625 12.226562 C 14.699219 12.074219 14.699219 11.851562 14.625 11.773438 C 14.25 11.101562 13.875 10.5 13.5 9.898438 C 13.425781 9.75 13.273438 9.675781 13.125 9.675781 C 12.449219 9.675781 11.851562 9.675781 11.175781 9.601562 C 10.800781 9.601562 10.5 9.75 10.273438 10.125 C 10.125 10.351562 9.976562 10.574219 9.824219 10.875 C 9 12.375 9 11.773438 9.824219 13.273438 C 10.726562 14.699219 10.273438 14.398438 12.148438 14.476562 Z M 7.800781 13.875 C 8.023438 13.273438 8.25 12.675781 8.476562 12.148438 L 8.476562 11.851562 C 8.25 11.25 8.023438 10.726562 7.800781 10.125 C 7.050781 10.351562 6.300781 10.648438 5.699219 11.101562 C 5.023438 11.625 5.023438 12.300781 5.699219 12.824219 C 6.300781 13.425781 7.050781 13.648438 7.800781 13.875 Z M 16.273438 10.050781 C 15.976562 10.726562 15.75 11.324219 15.523438 11.925781 C 15.523438 12 15.449219 12.074219 15.523438 12.074219 C 15.75 12.675781 15.976562 13.273438 16.273438 14.023438 C 16.949219 13.648438 17.699219 13.351562 18.300781 12.976562 C 19.125 12.449219 19.125 11.699219 18.300781 11.175781 C 17.699219 10.648438 16.949219 10.425781 16.273438 10.050781 Z M 8.25 9.300781 C 8.925781 9.226562 9.523438 9.148438 10.125 9 C 10.199219 9 10.273438 8.925781 10.273438 8.925781 C 10.648438 8.398438 11.023438 7.949219 11.476562 7.425781 C 10.875 6.898438 10.273438 6.375 9.523438 6.074219 C 8.699219 5.773438 8.175781 6.074219 8.023438 6.976562 C 7.949219 7.726562 8.101562 8.476562 8.25 9.300781 Z M 15.75 9.300781 C 15.75 9.226562 15.824219 9.074219 15.824219 9 C 15.976562 8.25 16.125 7.425781 15.824219 6.675781 C 15.675781 6.148438 15.300781 5.925781 14.851562 6 C 13.875 6.148438 13.199219 6.824219 12.523438 7.425781 C 12.898438 7.949219 13.273438 8.398438 13.648438 8.851562 L 13.875 9.074219 C 14.476562 9.148438 15.074219 9.226562 15.75 9.300781 Z M 8.25 14.699219 C 8.101562 15.523438 7.875 16.273438 8.101562 17.101562 C 8.25 17.851562 8.773438 18.148438 9.523438 17.925781 C 10.351562 17.699219 10.949219 17.101562 11.550781 16.574219 C 11.175781 16.050781 10.800781 15.601562 10.351562 15.074219 C 10.273438 15 10.199219 14.925781 10.125 14.925781 C 9.523438 14.925781 8.925781 14.851562 8.25 14.699219 Z M 12.449219 16.574219 C 12.898438 17.175781 13.800781 17.773438 14.398438 18 C 15.148438 18.226562 15.675781 18 15.824219 17.175781 C 15.976562 16.351562 15.824219 15.601562 15.675781 14.773438 C 15 14.851562 14.324219 14.851562 13.726562 15.074219 C 13.273438 15.300781 13.050781 15.824219 12.75 16.199219 C 12.675781 16.351562 12.601562 16.425781 12.449219 16.574219 Z M 12.898438 8.925781 C 12.601562 8.550781 12.300781 8.25 12 7.875 C 11.699219 8.25 11.476562 8.550781 11.101562 8.925781 Z M 12.898438 15.074219 L 11.175781 15.074219 C 11.476562 15.449219 11.773438 15.75 12.074219 16.125 C 12.300781 15.75 12.601562 15.449219 12.898438 15.074219 Z M 9.824219 14.324219 C 9.523438 13.800781 9.226562 13.351562 8.925781 12.75 C 8.773438 13.199219 8.625 13.574219 8.476562 14.023438 C 8.851562 14.175781 9.300781 14.25 9.824219 14.324219 Z M 15.074219 12.75 L 14.175781 14.324219 C 14.699219 14.25 15.074219 14.175781 15.523438 14.101562 C 15.449219 13.648438 15.300781 13.273438 15.074219 12.75 Z M 8.925781 11.25 L 9.824219 9.675781 C 9.300781 9.75 8.925781 9.824219 8.476562 9.898438 C 8.625 10.425781 8.699219 10.800781 8.925781 11.25 Z M 14.175781 9.675781 C 14.324219 9.976562 14.476562 10.199219 14.625 10.425781 C 14.773438 10.648438 14.925781 10.875 15.074219 11.175781 C 15.226562 10.726562 15.375 10.273438 15.523438 9.898438 C 15.074219 9.898438 14.699219 9.824219 14.175781 9.675781 Z M 14.175781 9.675781 "/>
</g>
</svg>
