
<svg xmlns="http://www.w3.org/2000/svg" xmlns:xlink="http://www.w3.org/1999/xlink" width="24px" height="24px" viewBox="0 0 24 24" version="1.1">
<g id="surface1">
<path style=" stroke:none;fill-rule:evenodd;fill:rgb(0%,0%,0%);fill-opacity:1;" d="M 4.5 4.5 L 19.5 4.5 L 19.5 19.5 L 4.5 19.5 Z M 9.75 13.632812 L 9.75 15.394531 L 10.839844 15.394531 C 11.445312 15.394531 11.800781 15.082031 11.800781 14.5 C 11.800781 13.9375 11.445312 13.632812 10.839844 13.632812 Z M 14.183594 12.4375 L 18.714844 12.4375 L 18.714844 13.632812 L 15.683594 13.632812 L 15.683594 14.707031 L 18.421875 14.707031 L 18.421875 15.894531 L 15.683594 15.902344 L 15.683594 16.984375 L 18.796875 16.984375 L 18.796875 18.179688 L 14.183594 18.179688 Z M 13.398438 18.179688 L 11.703125 18.179688 L 10.867188 16.589844 L 9.75 16.589844 L 9.75 18.179688 L 8.25 18.179688 L 8.25 12.4375 L 10.832031 12.4375 C 12.355469 12.4375 13.226562 13.171875 13.226562 14.453125 C 13.226562 15.320312 12.867188 15.960938 12.203125 16.304688 Z M 13.398438 18.179688 "/>
</g>
</svg>
