
<svg xmlns="http://www.w3.org/2000/svg" xmlns:xlink="http://www.w3.org/1999/xlink" width="16px" height="16px" viewBox="0 0 16 16" version="1.1">
<g id="surface1">
<path style=" stroke:none;fill-rule:nonzero;fill:rgb(91.37255%,20.392157%,25.882354%);fill-opacity:1;" d="M 9.699219 11.550781 C 9.6875 11.550781 9.6875 11.550781 9.6875 11.5625 C 9.585938 11.675781 9.539062 11.726562 9.476562 11.773438 C 9.300781 11.914062 9.101562 11.761719 8.976562 11.6875 C 8.6875 11.523438 8.460938 11.625 8.398438 11.75 C 8.351562 11.875 8.414062 12.039062 8.5625 12.011719 C 8.773438 11.988281 8.789062 12.011719 8.949219 12.113281 C 9.25 12.300781 9.460938 12.199219 9.5625 12.113281 C 9.648438 12.039062 9.699219 11.976562 9.75 11.886719 C 9.835938 11.726562 9.761719 11.585938 9.726562 11.550781 Z M 9.363281 2.125 L 9.3125 2.125 C 9.226562 2.125 9.136719 2.164062 9.050781 2.175781 C 8.75 2.199219 8.488281 2.300781 8.3125 2.386719 C 8.300781 2.386719 8.300781 2.375 8.300781 2.375 L 8.324219 2.363281 L 8.476562 2.386719 C 8.960938 2.335938 9.363281 2.4375 9.386719 2.585938 C 9.398438 2.699219 9.1875 2.824219 8.875 2.898438 C 8.863281 2.898438 8.851562 2.925781 8.851562 2.9375 C 8.851562 2.949219 8.863281 2.976562 8.875 2.976562 C 9 3.011719 9.164062 3.039062 9.324219 3.039062 C 9.824219 3.050781 10.238281 2.835938 10.238281 2.601562 C 10.261719 2.375 9.863281 2.125 9.363281 2.125 Z M 8 0.226562 C 3.6875 0.226562 0.199219 3.710938 0.199219 8.011719 C 0.199219 8.886719 0.335938 9.75 0.613281 10.5 L 1.148438 10.5 C 1.625 10.5 2.074219 10.386719 2.449219 10.199219 C 2.550781 10.148438 2.648438 10.125 2.761719 10.125 C 3 10.125 3.210938 10.226562 3.335938 10.4375 C 3.449219 10.636719 3.550781 10.75 3.6875 10.824219 C 3.800781 10.898438 3.949219 10.949219 4.164062 10.949219 C 4.261719 10.949219 4.425781 10.925781 4.460938 10.8125 C 4.511719 10.6875 4.449219 10.601562 4.300781 10.539062 C 4.085938 10.449219 4.039062 10.324219 3.925781 10.125 C 3.8125 9.925781 3.574219 9.824219 3.539062 9.449219 C 3.5 9.074219 3.789062 8.613281 4.363281 8.761719 C 4.773438 8.875 5.039062 9.375 5.136719 9.550781 C 5.1875 9.636719 5.375 9.75 5.523438 9.613281 C 5.675781 9.476562 5.8125 9.476562 5.925781 9.648438 C 6.023438 9.800781 6.726562 10.738281 7.488281 10.761719 C 8.261719 10.789062 8.675781 10.585938 9.011719 10.601562 C 9.25 10.613281 9.363281 10.726562 9.5 10.75 C 9.738281 10.789062 9.898438 10.574219 10.164062 10.585938 C 10.375 10.601562 10.601562 10.738281 10.835938 10.738281 C 11.074219 10.738281 11.574219 10.449219 11.5625 10.574219 C 11.550781 10.789062 11.386719 11.148438 11.351562 11.324219 C 11.324219 11.4375 11.351562 11.726562 11.273438 11.960938 C 11.210938 12.199219 11 12.488281 10.9375 12.574219 C 10.75 12.863281 10.613281 12.949219 10.449219 13.25 C 10.273438 13.585938 9.988281 13.898438 9.914062 14 C 9.8125 14.125 10.449219 14 10.675781 13.789062 C 10.863281 13.613281 11.199219 13.0625 11.738281 12.9375 C 12.101562 12.863281 12.164062 12.726562 12.125 12.585938 C 12.113281 12.574219 12.113281 12.550781 12.113281 12.539062 C 12.113281 12.488281 12.136719 12.449219 12.1875 12.425781 C 12.5625 12.273438 13.0625 12.175781 13.613281 12.175781 C 13.9375 12.175781 14.25 12.210938 14.550781 12.289062 C 15.335938 11.0625 15.800781 9.613281 15.800781 8.050781 C 15.800781 3.726562 12.3125 0.226562 8 0.226562 Z M 14.351562 7.875 C 13.976562 9.925781 10.613281 10.613281 7.351562 9.625 C 4.226562 8.6875 1.5 6.8125 1.8125 5.710938 C 2 5.074219 3.011719 4.800781 4.363281 4.949219 C 4.164062 5.363281 4.175781 5.863281 5.0625 6.414062 C 6.164062 7.039062 8.011719 7.5625 8.511719 7.511719 C 8.699219 7.5 8.863281 7.398438 8.699219 7.289062 C 8.539062 7.175781 8.386719 6.949219 8.289062 6.5625 C 8.238281 6.351562 8.175781 6.039062 7 5.8125 C 4.476562 5.324219 4.574219 4.613281 4.648438 4.210938 C 4.648438 4.210938 4.875 3.199219 4.960938 2.851562 C 5.050781 2.5 5.300781 1.6875 6.925781 2.050781 C 7.863281 2.261719 8.375 2 8.625 1.9375 C 9.324219 1.761719 10.113281 1.886719 10.539062 2.324219 C 10.988281 2.789062 11.601562 4.1875 11.886719 5.25 C 12.039062 5.789062 12 6.039062 11.925781 6.226562 C 11.875 6.351562 11.835938 6.425781 11.648438 6.738281 C 11.613281 6.789062 11.648438 6.851562 11.710938 6.8125 C 12.199219 6.5625 12.3125 6.226562 12.386719 5.976562 C 13.726562 6.25 14.511719 6.9375 14.351562 7.875 Z M 7.199219 3.4375 C 6.824219 3.4375 6.550781 3.488281 6.3125 3.488281 C 6.074219 3.488281 5.886719 3.324219 5.8125 3.210938 C 5.738281 3.125 5.511719 3.039062 5.398438 3.324219 C 5.273438 3.613281 5.5 3.914062 5.6875 3.949219 C 5.6875 3.949219 6 4.539062 6.238281 4.273438 C 6.398438 4.101562 6.5 4 7.398438 3.9375 C 7.824219 3.898438 7.875 3.8125 7.863281 3.699219 C 7.835938 3.574219 7.574219 3.4375 7.199219 3.4375 Z M 7.199219 3.4375 "/>
</g>
</svg>
