
<svg xmlns="http://www.w3.org/2000/svg" xmlns:xlink="http://www.w3.org/1999/xlink" width="16px" height="16px" viewBox="0 0 16 16" version="1.1">
<g id="surface1">
<path style=" stroke:none;fill-rule:nonzero;fill:rgb(84.705883%,17.254902%,12.54902%);fill-opacity:1;" d="M 0.773438 6.585938 C 1.613281 6.988281 6.238281 8.851562 6.960938 9.199219 C 7.6875 9.550781 8.210938 9.550781 9.136719 9.074219 C 10.0625 8.585938 14.414062 6.8125 15.25 6.375 C 15.675781 6.148438 15.863281 5.976562 15.863281 5.824219 L 15.863281 4.261719 C 15.863281 4.101562 15.648438 3.960938 15.238281 3.8125 C 14.425781 3.511719 10.101562 1.800781 9.273438 1.488281 C 8.449219 1.1875 8.113281 1.199219 7.136719 1.550781 C 6.164062 1.898438 1.574219 3.699219 0.75 4.023438 C 0.351562 4.1875 0.125 4.324219 0.125 4.488281 L 0.101562 4.488281 L 0.101562 6.074219 C 0.125 6.226562 0.363281 6.386719 0.773438 6.585938 Z M 8.324219 6.8125 L 5.789062 5.761719 L 9.425781 5.199219 Z M 13.835938 4.3125 L 11.6875 5.164062 L 11.449219 5.25 L 9.300781 4.398438 L 11.6875 3.460938 Z M 7.511719 2.75 L 7.164062 2.101562 L 8.261719 2.523438 L 9.300781 2.1875 L 9.023438 2.863281 L 10.074219 3.261719 L 8.710938 3.398438 L 8.414062 4.136719 L 7.925781 3.324219 L 6.351562 3.1875 Z M 4.800781 3.664062 C 5.875 3.664062 6.75 4 6.75 4.414062 C 6.75 4.824219 5.875 5.164062 4.800781 5.164062 C 3.726562 5.164062 2.851562 4.824219 2.851562 4.414062 C 2.851562 4 3.726562 3.664062 4.800781 3.664062 Z M 15.25 7.476562 C 14.414062 7.914062 10.074219 9.699219 9.148438 10.175781 C 8.226562 10.664062 7.710938 10.648438 6.988281 10.300781 C 6.261719 9.949219 1.613281 8.085938 0.789062 7.6875 C 0.363281 7.488281 0.125 7.324219 0.125 7.164062 L 0.125 8.75 C 0.125 8.914062 0.363281 9.074219 0.773438 9.273438 C 1.613281 9.675781 6.238281 11.539062 6.960938 11.886719 C 7.6875 12.238281 8.210938 12.238281 9.136719 11.761719 C 10.0625 11.273438 14.414062 9.5 15.25 9.0625 C 15.675781 8.835938 15.863281 8.664062 15.863281 8.511719 L 15.863281 6.949219 C 15.863281 7.085938 15.664062 7.261719 15.25 7.476562 Z M 15.25 10.0625 C 14.414062 10.5 10.074219 12.289062 9.148438 12.761719 C 8.226562 13.25 7.710938 13.238281 6.988281 12.886719 C 6.261719 12.539062 1.613281 10.675781 0.789062 10.273438 C 0.363281 10.085938 0.125 9.914062 0.125 9.75 L 0.125 11.335938 C 0.125 11.5 0.363281 11.664062 0.773438 11.863281 C 1.613281 12.261719 6.238281 14.125 6.960938 14.476562 C 7.6875 14.824219 8.210938 14.824219 9.136719 14.351562 C 10.0625 13.863281 14.414062 12.085938 15.25 11.648438 C 15.675781 11.425781 15.863281 11.25 15.863281 11.101562 L 15.863281 9.539062 C 15.863281 9.6875 15.664062 9.851562 15.25 10.0625 Z M 15.25 10.0625 "/>
</g>
</svg>
