
<svg xmlns="http://www.w3.org/2000/svg" xmlns:xlink="http://www.w3.org/1999/xlink" width="24px" height="24px" viewBox="0 0 24 24" version="1.1">
<g id="surface1">
<path style=" stroke:none;fill-rule:nonzero;fill:rgb(0%,0%,0%);fill-opacity:1;" d="M 16.726562 17.925781 L 14.699219 13.875 C 14.625 13.726562 14.625 13.648438 14.773438 13.574219 C 15.226562 13.351562 15.601562 13.050781 15.898438 12.675781 C 16.726562 11.699219 17.101562 10.5 16.949219 9.226562 C 16.875 8.625 16.726562 8.101562 16.425781 7.574219 C 16.351562 7.5 16.351562 7.425781 16.273438 7.351562 C 15.976562 7.050781 15.601562 6.898438 15.148438 6.75 C 14.699219 6.675781 14.25 6.601562 13.800781 6.75 C 13.5 6.824219 13.273438 6.898438 13.125 7.125 C 12.75 7.574219 12.675781 8.023438 12.824219 8.550781 C 12.976562 9.148438 13.351562 9.523438 13.800781 9.898438 C 13.949219 9.976562 14.101562 10.050781 14.324219 10.125 C 14.476562 10.125 14.625 10.125 14.699219 9.898438 C 14.773438 9.824219 14.773438 9.675781 14.773438 9.601562 C 14.773438 9.300781 14.699219 9.074219 14.625 8.851562 C 14.550781 8.699219 14.476562 8.550781 14.476562 8.398438 C 14.625 8.773438 14.851562 9.148438 15 9.449219 C 15.074219 9.675781 15.074219 9.976562 14.925781 10.199219 L 14.773438 10.351562 C 14.398438 10.648438 14.023438 11.023438 13.648438 11.324219 C 13.125 11.773438 12.675781 12.226562 12.300781 12.675781 C 11.699219 13.425781 11.175781 14.175781 10.648438 14.925781 C 10.273438 15.449219 9.976562 15.976562 9.601562 16.574219 C 9.300781 17.023438 9.074219 17.476562 8.773438 17.925781 C 8.625 18.226562 8.398438 18.523438 8.25 18.75 L 16.949219 18.75 C 17.175781 18.75 17.25 18.601562 17.175781 18.375 C 16.875 18.226562 16.800781 18.074219 16.726562 17.925781 Z M 16.726562 17.925781 "/>
<path style=" stroke:none;fill-rule:nonzero;fill:rgb(0%,0%,0%);fill-opacity:1;" d="M 9.523438 11.324219 C 10.125 10.273438 10.648438 9.226562 11.324219 8.25 C 11.625 7.800781 11.925781 7.351562 12.226562 6.976562 C 12.523438 6.675781 12.824219 6.449219 13.199219 6.300781 C 13.574219 6.226562 14.023438 6.148438 14.476562 6.226562 C 15.074219 6.300781 15.601562 6.523438 16.050781 6.976562 L 16.199219 7.125 L 16.199219 7.050781 C 15.300781 5.925781 14.101562 5.25 12.601562 5.25 L 7.199219 5.25 C 7.050781 5.25 6.976562 5.324219 6.976562 5.550781 L 6.976562 16.351562 C 7.351562 15.375 7.875 14.398438 8.398438 13.425781 C 8.773438 12.675781 9.148438 12 9.523438 11.324219 Z M 9.523438 11.324219 "/>
</g>
</svg>
