
<svg xmlns="http://www.w3.org/2000/svg" xmlns:xlink="http://www.w3.org/1999/xlink" width="16px" height="16px" viewBox="0 0 16 16" version="1.1">
<g id="surface1">
<path style=" stroke:none;fill-rule:nonzero;fill:rgb(75.686276%,17.254902%,29.803923%);fill-opacity:1;" d="M 14.75 12.1875 C 14.601562 11.9375 13.222656 9.902344 13.109375 9.660156 L 13.066406 9.574219 L 13.140625 9.515625 C 14.351562 8.570312 15.050781 7.117188 15.039062 5.582031 L 15.039062 5.449219 C 15.039062 4.359375 14.6875 3.324219 14.070312 2.597656 C 13.355469 1.75 12.320312 1.25 11.136719 1.160156 L 11.136719 4.3125 C 11.761719 4.503906 12.183594 5.128906 12.183594 5.945312 C 12.183594 6.871094 11.519531 7.363281 10.960938 7.722656 L 10.738281 7.867188 C 10.253906 8.203125 9.96875 8.765625 9.988281 9.355469 C 9.992188 9.710938 10.066406 10.0625 10.203125 10.390625 L 10.394531 10.757812 L 12.421875 13.882812 L 12.453125 13.9375 L 12.726562 14.363281 C 12.894531 14.605469 13.140625 14.78125 13.425781 14.851562 C 13.828125 14.949219 14.253906 14.867188 14.589844 14.625 C 14.898438 14.410156 15.105469 14.078125 15.160156 13.703125 L 15.183594 13.445312 C 15.15625 12.992188 15.007812 12.558594 14.75 12.1875 Z M 14.75 12.1875 "/>
<path style=" stroke:none;fill-rule:nonzero;fill:rgb(75.686276%,17.254902%,29.803923%);fill-opacity:1;" d="M 10.484375 1.125 C 10.121094 1.152344 9.765625 1.230469 9.425781 1.355469 C 9.394531 1.363281 9.367188 1.378906 9.335938 1.390625 C 9.234375 1.429688 9.132812 1.472656 9.035156 1.515625 C 8.996094 1.535156 8.957031 1.558594 8.921875 1.578125 C 8.820312 1.628906 8.71875 1.675781 8.625 1.738281 C 8.386719 1.886719 8.160156 2.0625 7.957031 2.257812 C 7.195312 1.523438 6.179688 1.113281 5.125 1.109375 C 2.75 1.109375 0.820312 3.183594 0.820312 5.75 C 0.816406 5.753906 0.816406 5.761719 0.820312 5.765625 L 0.820312 14.625 L 3.75 14.625 L 3.75 5.761719 C 3.75 5.757812 3.75 5.753906 3.75 5.75 C 3.75 4.929688 4.363281 4.269531 5.125 4.269531 C 5.886719 4.269531 6.488281 4.925781 6.5 5.738281 L 6.5 5.75 C 6.5 5.753906 6.5 5.761719 6.5 5.765625 L 6.5 14.625 L 9.414062 14.625 L 9.414062 5.765625 C 9.414062 5.765625 9.414062 5.757812 9.414062 5.753906 C 9.414062 5.75 9.414062 5.746094 9.414062 5.742188 C 9.414062 5.703125 9.421875 5.664062 9.425781 5.625 L 9.425781 5.550781 C 9.488281 4.960938 9.90625 4.46875 10.480469 4.316406 L 10.480469 1.125 Z M 10.484375 1.125 "/>
</g>
</svg>
