
<svg xmlns="http://www.w3.org/2000/svg" xmlns:xlink="http://www.w3.org/1999/xlink" width="24px" height="24px" viewBox="0 0 24 24" version="1.1">
<g id="surface1">
<path style=" stroke:none;fill-rule:nonzero;fill:rgb(0%,0%,0%);fill-opacity:1;" d="M 16.273438 6.300781 L 16.273438 6.75 L 16.351562 6.824219 L 16.425781 6.824219 C 16.648438 6.75 16.875 6.75 17.101562 6.675781 C 17.25 6.601562 17.398438 6.75 17.324219 6.898438 C 17.25 7.125 17.25 7.351562 17.175781 7.574219 L 17.175781 7.648438 L 17.25 7.726562 C 17.25 7.800781 17.324219 7.800781 17.398438 7.800781 L 18.074219 7.800781 C 18.226562 7.800781 18.300781 7.875 18.300781 8.023438 L 18.300781 8.175781 C 18.226562 8.398438 18.074219 8.625 18 8.773438 L 18 8.851562 C 18 8.851562 18.074219 8.925781 18.074219 9 L 18.148438 9 C 18.375 9.074219 18.601562 9.074219 18.824219 9.148438 C 18.976562 9.148438 19.050781 9.375 18.976562 9.523438 C 18.824219 9.75 18.675781 9.898438 18.601562 10.050781 L 18.601562 10.199219 C 18.601562 10.273438 18.675781 10.273438 18.75 10.351562 C 18.976562 10.425781 19.125 10.5 19.351562 10.574219 C 19.5 10.648438 19.574219 10.800781 19.425781 10.949219 C 19.273438 11.101562 19.125 11.25 18.898438 11.398438 L 18.898438 11.625 C 18.898438 11.625 18.976562 11.699219 19.050781 11.699219 C 19.199219 11.773438 19.351562 11.925781 19.574219 12 C 19.726562 12.074219 19.726562 12.300781 19.574219 12.375 C 19.351562 12.523438 19.199219 12.601562 18.976562 12.75 L 18.976562 12.824219 C 18.976562 12.976562 18.976562 12.976562 19.050781 13.050781 C 19.199219 13.199219 19.351562 13.351562 19.5 13.425781 C 19.648438 13.574219 19.574219 13.726562 19.425781 13.800781 C 19.199219 13.875 18.976562 13.949219 18.824219 14.023438 C 18.824219 14.023438 18.75 14.023438 18.75 14.101562 C 18.675781 14.175781 18.75 14.25 18.75 14.324219 C 18.898438 14.476562 18.976562 14.625 19.125 14.851562 C 19.199219 14.925781 19.199219 15.074219 19.050781 15.148438 C 18.976562 15.148438 18.976562 15.148438 18.898438 15.226562 C 18.675781 15.226562 18.523438 15.300781 18.300781 15.300781 L 18.226562 15.300781 C 18.226562 15.375 18.148438 15.375 18.148438 15.449219 C 18.148438 15.523438 18.148438 15.523438 18.226562 15.601562 C 18.300781 15.75 18.375 15.976562 18.449219 16.125 C 18.523438 16.199219 18.449219 16.351562 18.375 16.425781 L 17.476562 16.425781 C 17.398438 16.5 17.398438 16.574219 17.398438 16.648438 C 17.476562 16.875 17.476562 17.023438 17.550781 17.25 C 17.625 17.398438 17.476562 17.550781 17.25 17.550781 C 17.023438 17.476562 16.800781 17.476562 16.574219 17.398438 L 16.5 17.398438 L 16.425781 17.476562 C 16.425781 17.476562 16.351562 17.550781 16.425781 17.550781 L 16.425781 18.226562 C 16.425781 18.375 16.351562 18.449219 16.199219 18.449219 L 16.050781 18.449219 C 15.824219 18.375 15.675781 18.300781 15.449219 18.148438 L 15.375 18.148438 C 15.300781 18.148438 15.226562 18.226562 15.226562 18.300781 C 15.226562 18.523438 15.148438 18.675781 15.148438 18.898438 C 15.148438 19.050781 14.925781 19.125 14.773438 19.050781 C 14.625 18.898438 14.398438 18.75 14.25 18.675781 L 14.175781 18.675781 C 14.101562 18.675781 14.023438 18.75 14.023438 18.824219 C 13.949219 19.050781 13.875 19.199219 13.800781 19.425781 C 13.726562 19.574219 13.648438 19.574219 13.574219 19.574219 C 13.5 19.574219 13.5 19.5 13.5 19.5 C 13.351562 19.351562 13.199219 19.199219 13.050781 18.976562 L 12.898438 18.976562 C 12.824219 18.976562 12.75 19.050781 12.75 19.125 C 12.675781 19.273438 12.523438 19.5 12.449219 19.648438 C 12.375 19.800781 12.148438 19.800781 12.074219 19.648438 C 11.925781 19.425781 11.851562 19.273438 11.699219 19.050781 L 11.550781 19.050781 C 11.476562 19.050781 11.476562 19.050781 11.398438 19.125 L 10.949219 19.574219 C 10.875 19.648438 10.800781 19.648438 10.648438 19.648438 C 10.574219 19.648438 10.574219 19.574219 10.574219 19.5 L 10.351562 18.824219 C 10.351562 18.824219 10.351562 18.75 10.273438 18.75 L 10.050781 18.75 C 9.898438 18.898438 9.75 18.976562 9.523438 19.125 C 9.226562 18.976562 9 18.898438 9 18.75 C 8.925781 18.523438 8.925781 18.300781 8.925781 18.074219 C 8.925781 18.074219 8.925781 18 8.851562 18 C 8.773438 18 8.773438 17.925781 8.699219 17.925781 C 8.625 17.925781 8.625 17.925781 8.550781 18 C 8.398438 18.074219 8.175781 18.148438 8.023438 18.226562 C 7.875 18.300781 7.726562 18.226562 7.726562 18.074219 L 7.726562 17.25 L 7.648438 17.175781 L 7.574219 17.175781 C 7.351562 17.25 7.125 17.25 6.898438 17.324219 C 6.75 17.398438 6.601562 17.25 6.675781 17.101562 C 6.75 16.875 6.75 16.648438 6.824219 16.425781 L 6.824219 16.351562 L 6.75 16.273438 L 6 16.273438 C 5.851562 16.273438 5.773438 16.199219 5.773438 16.050781 L 5.773438 15.898438 C 5.851562 15.675781 6 15.449219 6.074219 15.300781 L 6.074219 15.226562 C 6.074219 15.226562 6.074219 15.148438 6 15.148438 C 6 15.074219 5.925781 15.074219 5.925781 15.074219 C 5.699219 15.074219 5.476562 15 5.25 15 C 5.101562 15 5.023438 14.773438 5.101562 14.625 C 5.25 14.476562 5.398438 14.25 5.476562 14.101562 L 5.476562 14.023438 C 5.476562 13.949219 5.476562 13.949219 5.398438 13.875 C 5.398438 13.875 5.324219 13.800781 5.25 13.800781 C 5.101562 13.726562 4.875 13.648438 4.726562 13.574219 C 4.574219 13.5 4.5 13.351562 4.648438 13.199219 C 4.875 13.125 5.023438 12.898438 5.25 12.75 L 5.25 12.601562 C 5.25 12.523438 5.25 12.449219 5.175781 12.449219 C 5.023438 12.375 4.800781 12.226562 4.648438 12.148438 C 4.5 12.074219 4.5 11.851562 4.648438 11.773438 C 4.875 11.625 5.023438 11.550781 5.25 11.398438 L 5.25 11.25 L 4.726562 10.726562 C 4.648438 10.648438 4.648438 10.5 4.726562 10.425781 C 4.726562 10.425781 4.800781 10.425781 4.800781 10.351562 L 5.476562 10.125 L 5.476562 10.050781 C 5.550781 9.976562 5.476562 9.898438 5.476562 9.824219 C 5.324219 9.675781 5.25 9.523438 5.101562 9.375 C 5.023438 9.226562 5.101562 9 5.25 9 C 5.476562 8.925781 5.699219 8.925781 5.925781 8.851562 L 6 8.851562 C 6 8.773438 6.074219 8.773438 6.074219 8.699219 C 6.074219 8.625 6.074219 8.625 6 8.550781 C 5.925781 8.398438 5.851562 8.175781 5.773438 8.023438 C 5.699219 7.875 5.773438 7.726562 5.925781 7.726562 L 6.75 7.726562 C 6.75 7.726562 6.75 7.648438 6.824219 7.648438 L 6.824219 7.574219 C 6.75 7.351562 6.675781 7.125 6.675781 6.898438 C 6.601562 6.75 6.75 6.601562 6.898438 6.675781 C 7.125 6.675781 7.351562 6.75 7.574219 6.824219 L 7.648438 6.824219 L 7.726562 6.75 C 7.726562 6.75 7.800781 6.675781 7.726562 6.675781 L 7.726562 6 C 7.726562 5.851562 7.800781 5.773438 7.949219 5.773438 L 8.101562 5.773438 C 8.324219 5.851562 8.550781 6 8.699219 6.074219 L 8.773438 6.074219 C 8.773438 6.074219 8.851562 6.074219 8.851562 6 C 8.925781 6 8.925781 5.925781 8.925781 5.925781 C 8.925781 5.699219 9 5.476562 9 5.25 C 9 5.101562 9.226562 5.023438 9.375 5.101562 C 9.523438 5.25 9.75 5.398438 9.898438 5.476562 L 9.976562 5.476562 C 10.050781 5.476562 10.050781 5.476562 10.125 5.398438 C 10.125 5.398438 10.125 5.324219 10.199219 5.25 C 10.273438 5.101562 10.351562 4.875 10.425781 4.726562 C 10.5 4.574219 10.574219 4.574219 10.726562 4.574219 L 10.800781 4.648438 C 10.875 4.875 11.101562 5.023438 11.25 5.25 L 11.324219 5.25 C 11.398438 5.25 11.476562 5.175781 11.476562 5.175781 C 11.550781 5.023438 11.699219 4.800781 11.773438 4.648438 C 11.925781 4.5 12.074219 4.5 12.148438 4.574219 L 12.226562 4.648438 C 12.375 4.875 12.449219 5.023438 12.601562 5.25 L 12.824219 5.25 C 12.898438 5.25 12.898438 5.175781 12.898438 5.175781 C 13.050781 5.023438 13.199219 4.875 13.273438 4.726562 C 13.351562 4.648438 13.5 4.648438 13.574219 4.726562 L 13.574219 4.800781 C 13.648438 5.023438 13.726562 5.25 13.800781 5.398438 L 13.875 5.476562 L 14.023438 5.476562 C 14.25 5.398438 14.476562 5.25 14.625 5.101562 C 14.773438 5.023438 15 5.101562 15 5.25 C 15 5.476562 15.074219 5.699219 15.074219 5.925781 C 15.074219 5.925781 15.074219 6 15.148438 6 L 15.226562 6 C 15.300781 6.074219 15.375 6.074219 15.375 6 C 15.523438 5.925781 15.75 5.851562 15.976562 5.773438 C 16.125 5.699219 16.273438 5.773438 16.273438 6 Z M 7.949219 8.324219 L 13.648438 8.324219 C 13.875 8.324219 14.101562 8.324219 14.324219 8.398438 C 14.773438 8.550781 15.148438 8.773438 15.375 9.074219 C 15.601562 9.300781 15.75 9.601562 15.75 9.976562 C 15.75 10.273438 15.675781 10.574219 15.523438 10.875 C 15.375 11.101562 15.148438 11.324219 14.925781 11.476562 C 14.851562 11.550781 14.773438 11.625 14.699219 11.625 C 14.773438 11.699219 14.851562 11.699219 14.925781 11.773438 C 15.074219 11.925781 15.300781 12.074219 15.375 12.300781 C 15.523438 12.523438 15.601562 12.824219 15.601562 13.050781 C 15.601562 13.125 15.675781 13.199219 15.75 13.273438 C 15.898438 13.425781 16.125 13.425781 16.351562 13.425781 C 16.5 13.425781 16.648438 13.351562 16.726562 13.273438 C 16.875 13.125 16.875 12.976562 16.949219 12.824219 L 16.949219 12.449219 C 16.949219 12.375 16.949219 12.375 17.023438 12.375 L 17.550781 12.375 L 17.550781 11.398438 C 17.324219 11.324219 17.101562 11.175781 16.875 11.101562 C 16.800781 11.023438 16.648438 11.023438 16.574219 10.949219 C 16.351562 10.875 16.273438 10.648438 16.351562 10.351562 C 16.5 9.976562 16.648438 9.601562 16.875 9.226562 L 16.875 9.148438 C 16.574219 8.699219 16.273438 8.25 15.824219 7.875 C 15.074219 7.199219 14.175781 6.75 13.125 6.523438 L 13.050781 6.523438 C 12.824219 6.75 12.601562 6.976562 12.300781 7.199219 C 12.148438 7.351562 11.851562 7.351562 11.699219 7.199219 L 11.023438 6.523438 L 10.949219 6.523438 C 10.648438 6.601562 10.425781 6.675781 10.199219 6.75 C 9.375 7.050781 8.699219 7.5 8.101562 8.101562 C 8.023438 8.175781 7.949219 8.25 7.949219 8.324219 Z M 16.425781 15.226562 L 14.175781 15.226562 C 14.023438 15.226562 13.949219 15.226562 13.875 15.148438 C 13.574219 15 13.425781 14.699219 13.351562 14.398438 C 13.273438 14.101562 13.199219 13.875 13.199219 13.574219 C 13.199219 13.425781 13.125 13.273438 13.050781 13.125 C 12.898438 12.75 12.601562 12.523438 12.226562 12.523438 L 10.875 12.523438 L 10.875 13.5 L 12.226562 13.5 C 12.300781 13.5 12.300781 13.5 12.300781 13.574219 L 12.300781 15.074219 C 12.300781 15.148438 12.300781 15.148438 12.226562 15.148438 L 7.726562 15.148438 C 7.875 15.375 8.023438 15.523438 8.175781 15.675781 L 8.25 15.675781 C 8.550781 15.601562 8.851562 15.523438 9.148438 15.523438 C 9.375 15.449219 9.601562 15.601562 9.675781 15.824219 C 9.75 16.125 9.824219 16.5 9.898438 16.800781 L 9.898438 16.875 C 10.5 17.101562 11.101562 17.324219 11.699219 17.324219 C 12.226562 17.398438 12.75 17.324219 13.273438 17.25 C 13.648438 17.175781 14.023438 17.023438 14.398438 16.875 L 14.398438 16.800781 C 14.476562 16.5 14.550781 16.125 14.625 15.824219 C 14.699219 15.601562 14.851562 15.449219 15.148438 15.523438 L 16.050781 15.75 L 16.125 15.75 C 16.125 15.601562 16.273438 15.375 16.425781 15.226562 Z M 7.5 9.976562 L 7.726562 10.425781 C 7.726562 10.5 7.800781 10.574219 7.726562 10.648438 C 7.726562 10.800781 7.574219 10.875 7.5 10.949219 C 7.199219 11.101562 6.898438 11.25 6.601562 11.324219 C 6.601562 11.324219 6.523438 11.324219 6.523438 11.398438 L 6.523438 11.773438 C 6.523438 12.300781 6.601562 12.824219 6.75 13.425781 C 6.75 13.425781 6.75 13.5 6.824219 13.5 L 8.398438 13.5 L 8.398438 9.976562 Z M 10.726562 11.023438 C 10.800781 11.023438 10.800781 11.023438 10.726562 11.023438 L 12.449219 11.023438 C 12.601562 11.023438 12.75 11.023438 12.898438 10.949219 C 12.976562 10.875 13.050781 10.875 13.125 10.726562 C 13.199219 10.574219 13.199219 10.351562 13.050781 10.199219 C 12.898438 10.050781 12.675781 9.976562 12.523438 9.976562 L 10.648438 9.976562 C 10.726562 10.351562 10.726562 10.648438 10.726562 11.023438 Z M 6.226562 10.273438 C 6.226562 10.5 6.449219 10.726562 6.675781 10.726562 C 6.898438 10.726562 7.125 10.5 7.125 10.273438 C 7.125 10.050781 6.898438 9.824219 6.675781 9.824219 C 6.449219 9.824219 6.226562 10.050781 6.226562 10.273438 Z M 15.75 16.574219 C 15.75 16.351562 15.523438 16.125 15.300781 16.125 C 15.074219 16.125 14.851562 16.351562 14.851562 16.574219 C 14.851562 16.800781 15.074219 17.023438 15.300781 17.023438 C 15.523438 17.023438 15.75 16.875 15.75 16.574219 Z M 8.699219 16.125 C 8.476562 16.125 8.25 16.351562 8.25 16.574219 C 8.25 16.800781 8.476562 17.023438 8.699219 17.023438 C 8.925781 17.023438 9.148438 16.800781 9.148438 16.574219 C 9.148438 16.351562 8.925781 16.125 8.699219 16.125 Z M 12.449219 6.300781 C 12.449219 6.074219 12.300781 5.851562 12 5.851562 C 11.773438 5.851562 11.550781 6 11.550781 6.300781 C 11.550781 6.523438 11.699219 6.75 12 6.75 C 12.226562 6.75 12.375 6.523438 12.449219 6.300781 Z M 17.324219 10.800781 C 17.550781 10.800781 17.773438 10.574219 17.773438 10.351562 C 17.773438 10.125 17.550781 9.898438 17.324219 9.898438 C 17.101562 9.898438 16.875 10.125 16.875 10.351562 C 16.875 10.574219 17.023438 10.800781 17.324219 10.800781 Z M 17.324219 10.800781 "/>
</g>
</svg>
