
<svg xmlns="http://www.w3.org/2000/svg" xmlns:xlink="http://www.w3.org/1999/xlink" width="16px" height="16px" viewBox="0 0 16 16" version="1.1">
<g id="surface1">
<path style=" stroke:none;fill-rule:nonzero;fill:rgb(10.588235%,53.333336%,79.215688%);fill-opacity:1;" d="M 8 0.1875 C 3.6875 0.1875 0.1875 3.6875 0.1875 8 C 0.1875 12.3125 3.6875 15.8125 8 15.8125 C 12.3125 15.8125 15.8125 12.3125 15.8125 8 C 15.8125 3.6875 12.3125 0.1875 8 0.1875 Z M 15 7.425781 L 14.375 7.476562 L 14.363281 7.351562 L 14.988281 7.300781 Z M 15 7.875 L 15 8 L 13.875 8 L 13.875 7.875 Z M 14.925781 6.824219 L 13.789062 7.023438 L 13.761719 6.898438 L 14.898438 6.699219 Z M 14.800781 6.226562 L 14.1875 6.386719 L 14.148438 6.261719 L 14.761719 6.101562 Z M 14.625 5.636719 L 13.550781 6.039062 L 13.511719 5.925781 L 14.585938 5.523438 Z M 14.398438 5.0625 L 13.835938 5.324219 L 13.789062 5.210938 L 14.351562 4.949219 Z M 14.113281 4.523438 L 13.113281 5.101562 L 13.050781 4.988281 L 14.050781 4.414062 Z M 13.726562 3.898438 L 13.800781 4 L 13.289062 4.363281 L 13.210938 4.261719 Z M 13.425781 3.511719 L 12.539062 4.25 L 12.460938 4.148438 L 13.351562 3.414062 Z M 12.5625 2.636719 L 11.824219 3.523438 L 11.726562 3.449219 L 12.460938 2.5625 Z M 11.976562 2.1875 L 12.074219 2.261719 L 11.710938 2.773438 L 11.613281 2.699219 Z M 11.574219 1.925781 L 11 2.925781 L 10.886719 2.863281 L 11.460938 1.863281 Z M 10.914062 1.585938 L 11.023438 1.636719 L 10.761719 2.199219 L 10.648438 2.148438 Z M 10.351562 1.363281 L 10.460938 1.398438 L 10.0625 2.476562 L 9.949219 2.4375 Z M 9.761719 1.175781 L 9.886719 1.210938 L 9.726562 1.824219 L 9.601562 1.789062 Z M 9.164062 1.050781 L 9.289062 1.074219 L 9.085938 2.210938 L 8.960938 2.1875 Z M 8.550781 0.976562 L 8.675781 0.988281 L 8.625 1.613281 L 8.5 1.601562 Z M 7.875 1 L 8 1 L 8 2.125 L 7.875 2.125 Z M 7.449219 0.976562 L 7.5 1.601562 L 7.375 1.613281 L 7.324219 0.988281 Z M 6.835938 1.050781 L 7.039062 2.1875 L 6.914062 2.210938 L 6.710938 1.074219 Z M 6.238281 1.175781 L 6.398438 1.789062 L 6.273438 1.824219 L 6.125 1.210938 Z M 5.648438 1.363281 L 6.050781 2.4375 L 5.9375 2.476562 L 5.539062 1.398438 Z M 5.085938 1.585938 L 5.351562 2.148438 L 5.238281 2.199219 L 4.976562 1.636719 Z M 4.539062 1.863281 L 5.113281 2.863281 L 5 2.925781 L 4.425781 1.925781 Z M 4.023438 2.1875 L 4.386719 2.699219 L 4.289062 2.773438 L 3.925781 2.261719 Z M 3.539062 2.5625 L 4.273438 3.449219 L 4.175781 3.523438 L 3.4375 2.636719 Z M 3.074219 2.960938 L 3.511719 3.398438 L 3.425781 3.5 L 2.988281 3.0625 Z M 2.648438 3.414062 L 3.539062 4.148438 L 3.460938 4.25 L 2.574219 3.511719 Z M 2.273438 3.898438 L 2.789062 4.261719 L 2.710938 4.363281 L 2.199219 4 Z M 1.949219 4.414062 L 2.949219 4.988281 L 2.875 5.101562 L 1.875 4.523438 Z M 1.664062 4.949219 L 2.226562 5.210938 L 2.175781 5.324219 L 1.613281 5.0625 Z M 1.425781 5.523438 L 2.5 5.925781 L 2.460938 6.039062 L 1.375 5.636719 Z M 1.226562 6.101562 L 1.835938 6.261719 L 1.800781 6.386719 L 1.1875 6.226562 Z M 1.085938 6.699219 L 2.226562 6.898438 L 2.199219 7.023438 L 1.0625 6.824219 Z M 1 7.3125 L 1.625 7.363281 L 1.613281 7.488281 L 0.988281 7.4375 Z M 2.125 7.875 L 2.125 8 L 1 8 L 1 7.875 Z M 1 8.539062 L 1.625 8.488281 L 1.636719 8.613281 L 1.011719 8.664062 Z M 1.074219 9.136719 L 2.210938 8.9375 L 2.238281 9.0625 L 1.101562 9.261719 Z M 1.199219 9.738281 L 1.8125 9.574219 L 1.851562 9.699219 L 1.238281 9.863281 Z M 1.375 10.324219 L 2.449219 9.925781 L 2.488281 10.039062 L 1.414062 10.4375 Z M 1.601562 10.898438 L 2.164062 10.636719 L 2.210938 10.75 L 1.648438 11.011719 Z M 1.886719 11.449219 L 2.886719 10.875 L 2.949219 10.988281 L 1.949219 11.5625 Z M 2.273438 12.0625 L 2.199219 11.960938 L 2.710938 11.601562 L 2.789062 11.699219 Z M 3.460938 11.710938 L 3.539062 11.8125 L 2.648438 12.550781 L 2.574219 12.449219 Z M 3.4375 13.324219 L 4.175781 12.4375 L 4.273438 12.511719 L 3.539062 13.398438 Z M 4.023438 13.773438 L 3.925781 13.699219 L 4.289062 13.1875 L 4.386719 13.261719 Z M 4.425781 14.039062 L 5 13.039062 L 5.113281 13.101562 L 4.539062 14.101562 Z M 5.085938 14.375 L 4.976562 14.324219 L 5.238281 13.761719 L 5.351562 13.8125 Z M 5.648438 14.613281 L 5.539062 14.574219 L 5.9375 13.5 L 6.050781 13.539062 Z M 6.238281 14.789062 L 6.113281 14.75 L 6.273438 14.136719 L 6.398438 14.175781 Z M 6.835938 14.914062 L 6.710938 14.886719 L 6.914062 13.75 L 7.039062 13.773438 Z M 7.449219 14.988281 L 7.324219 14.976562 L 7.375 14.351562 L 7.5 14.363281 Z M 8 15 L 7.875 15 L 7.875 13.875 L 8 13.875 Z M 8.550781 14.988281 L 8.5 14.363281 L 8.625 14.351562 L 8.675781 14.976562 Z M 2.625 13.335938 L 7.335938 7.335938 L 13.335938 2.625 L 8.738281 8.738281 Z M 9.164062 14.914062 L 8.960938 13.773438 L 9.085938 13.75 L 9.289062 14.886719 Z M 9.761719 14.789062 L 9.601562 14.175781 L 9.726562 14.136719 L 9.875 14.75 Z M 10.351562 14.613281 L 9.949219 13.539062 L 10.0625 13.5 L 10.460938 14.574219 Z M 10.914062 14.375 L 10.648438 13.8125 L 10.761719 13.761719 L 11.023438 14.324219 Z M 11.460938 14.101562 L 10.886719 13.101562 L 11 13.039062 L 11.574219 14.039062 Z M 11.976562 13.773438 L 11.613281 13.261719 L 11.710938 13.1875 L 12.074219 13.699219 Z M 12.460938 13.414062 L 11.726562 12.523438 L 11.824219 12.449219 L 12.5625 13.335938 Z M 12.925781 13 L 12.488281 12.5625 L 12.574219 12.476562 L 13.011719 12.914062 Z M 13.351562 12.550781 L 12.460938 11.8125 L 12.539062 11.710938 L 13.425781 12.449219 Z M 13.726562 12.0625 L 13.210938 11.699219 L 13.289062 11.601562 L 13.800781 11.960938 Z M 14.050781 11.550781 L 13.050781 10.976562 L 13.113281 10.863281 L 14.113281 11.4375 Z M 14.335938 11.011719 L 13.773438 10.75 L 13.824219 10.636719 L 14.386719 10.898438 Z M 14.574219 10.449219 L 13.5 10.050781 L 13.539062 9.9375 L 14.613281 10.335938 Z M 14.773438 9.863281 L 14.164062 9.699219 L 14.199219 9.574219 L 14.8125 9.738281 Z M 14.914062 9.261719 L 13.773438 9.0625 L 13.800781 8.9375 L 14.9375 9.136719 Z M 15 8.664062 L 14.375 8.613281 L 14.386719 8.488281 L 15.011719 8.539062 Z M 15 8.664062 "/>
</g>
</svg>
