
<svg xmlns="http://www.w3.org/2000/svg" xmlns:xlink="http://www.w3.org/1999/xlink" width="24px" height="24px" viewBox="0 0 24 24" version="1.1">
<g id="surface1">
<path style=" stroke:none;fill-rule:nonzero;fill:rgb(0%,0%,0%);fill-opacity:1;" d="M 9.300781 7.800781 C 9.75 7.875 10.199219 8.023438 10.574219 8.324219 C 10.726562 8.476562 10.875 8.550781 10.949219 8.699219 L 11.023438 8.699219 C 11.175781 8.550781 11.324219 8.476562 11.476562 8.324219 C 11.625 8.25 11.851562 8.175781 12 8.101562 C 12.074219 8.101562 12.148438 8.101562 12.300781 8.023438 L 12.75 8.023438 C 13.050781 8.023438 13.273438 8.101562 13.5 8.25 C 13.875 8.476562 14.101562 8.699219 14.324219 9.074219 C 14.324219 9.148438 14.398438 9.148438 14.398438 9.074219 C 14.625 9 14.773438 8.925781 15 8.925781 L 15.601562 8.925781 C 15.898438 8.925781 16.273438 9.074219 16.574219 9.226562 C 16.800781 9.375 17.023438 9.449219 17.175781 9.675781 C 17.398438 9.898438 17.550781 10.125 17.699219 10.425781 C 17.851562 10.648438 17.925781 10.949219 17.925781 11.25 L 17.925781 11.851562 C 17.925781 12.226562 17.773438 12.523438 17.625 12.824219 C 17.476562 13.125 17.25 13.425781 17.023438 13.648438 C 16.875 13.800781 16.648438 13.949219 16.425781 14.023438 L 15.75 14.25 L 14.773438 14.25 C 14.625 14.550781 14.398438 14.699219 14.175781 14.925781 C 13.949219 15.074219 13.726562 15.148438 13.425781 15.226562 L 12.976562 15.226562 C 12.75 15.226562 12.601562 15.148438 12.375 15.074219 L 12.300781 15.074219 C 12.226562 15.300781 12.074219 15.449219 11.925781 15.675781 C 11.773438 15.898438 11.550781 16.050781 11.324219 16.125 C 10.425781 16.574219 9.300781 16.351562 8.625 15.449219 C 8.476562 15.300781 8.398438 15.148438 8.324219 14.925781 C 8.324219 14.851562 8.25 14.925781 8.25 14.925781 L 7.726562 14.925781 C 7.5 14.925781 7.351562 14.851562 7.199219 14.851562 C 6.976562 14.773438 6.824219 14.699219 6.601562 14.550781 C 6.375 14.324219 6.148438 14.101562 6 13.800781 C 6.074219 13.5 6.074219 13.273438 6 13.125 L 6 12.675781 C 6 12.449219 6.074219 12.226562 6.148438 12.074219 C 6.226562 11.925781 6.300781 11.773438 6.449219 11.625 C 6.523438 11.550781 6.601562 11.476562 6.601562 11.398438 C 6.75 11.25 6.824219 11.175781 6.976562 11.101562 C 6.976562 11.101562 7.050781 11.101562 6.976562 11.023438 C 6.898438 10.875 6.824219 10.726562 6.824219 10.5 L 6.824219 9.824219 C 6.976562 8.699219 7.875 7.800781 9 7.726562 L 9.148438 7.726562 C 9.226562 7.800781 9.300781 7.800781 9.300781 7.800781 Z M 9.300781 7.800781 "/>
</g>
</svg>
