
<svg xmlns="http://www.w3.org/2000/svg" xmlns:xlink="http://www.w3.org/1999/xlink" width="24px" height="24px" viewBox="0 0 24 24" version="1.1">
<g id="surface1">
<path style=" stroke:none;fill-rule:nonzero;fill:rgb(81.176472%,39.215687%,60.000002%);fill-opacity:1;" d="M 13.5 12.976562 C 12.675781 13.5 11.699219 14.101562 10.875 14.625 C 11.175781 15.300781 11.175781 15.976562 10.949219 16.648438 C 10.574219 17.851562 9.675781 18.523438 8.550781 18.675781 C 8.25 18.75 7.949219 18.675781 7.726562 18.601562 C 7.425781 18.523438 7.273438 18.300781 7.199219 18.074219 C 6.898438 17.398438 6.976562 16.800781 7.425781 16.273438 C 7.726562 15.976562 8.023438 15.601562 8.398438 15.375 C 8.773438 15.074219 9.300781 14.851562 9.75 14.550781 C 9.824219 14.476562 9.898438 14.476562 10.050781 14.398438 C 9.824219 14.25 9.75 14.101562 9.601562 14.101562 C 9 13.726562 8.398438 13.273438 7.875 12.75 C 7.574219 12.449219 7.273438 12.148438 7.050781 11.773438 C 6.375 11.25 6.300781 10.5 6.675781 9.824219 C 6.976562 9.074219 7.5 8.476562 8.023438 7.949219 C 9.226562 6.898438 10.574219 6.148438 12.074219 5.625 C 13.125 5.25 14.175781 5.101562 15.226562 5.25 C 15.523438 5.398438 15.976562 5.476562 16.273438 5.625 C 17.398438 6.074219 17.851562 6.976562 17.476562 8.175781 C 17.175781 9.148438 16.574219 9.976562 15.675781 10.5 C 14.476562 11.25 13.273438 11.550781 11.851562 11.324219 C 11.398438 11.25 11.023438 11.023438 10.648438 10.648438 C 10.574219 10.5 10.5 10.351562 10.425781 10.273438 C 10.425781 10.273438 10.425781 10.199219 10.5 10.125 C 10.5 10.125 10.574219 10.125 10.648438 10.199219 C 11.25 10.800781 11.925781 10.875 12.601562 10.726562 C 13.875 10.5 15 10.050781 15.824219 9.074219 C 16.125 8.699219 16.425781 8.25 16.574219 7.726562 C 16.726562 7.125 16.425781 6.675781 15.898438 6.375 C 15.300781 6.074219 14.699219 6.074219 14.101562 6.148438 C 12.601562 6.375 11.25 6.976562 10.050781 7.726562 C 9.375 8.101562 8.773438 8.550781 8.324219 9.148438 C 8.101562 9.449219 7.949219 9.75 7.800781 10.050781 C 7.574219 10.648438 7.648438 11.25 8.101562 11.699219 C 8.398438 12 8.699219 12.300781 9 12.523438 C 9.449219 12.898438 9.976562 13.351562 10.425781 13.726562 C 10.5 13.726562 10.574219 13.800781 10.648438 13.726562 C 10.875 13.574219 11.023438 13.5 11.25 13.425781 C 11.925781 13.050781 12.601562 12.75 13.351562 12.601562 C 13.351562 12.898438 13.425781 12.898438 13.5 12.976562 C 13.5 12.898438 13.5 12.898438 13.5 12.976562 Z M 10.273438 14.851562 C 9.601562 15.226562 9.074219 15.601562 8.550781 16.125 C 8.25 16.425781 8.101562 16.726562 8.023438 17.101562 C 7.949219 17.550781 8.25 17.773438 8.699219 17.699219 C 9.300781 17.550781 9.75 17.175781 10.050781 16.726562 C 10.425781 16.125 10.425781 15.601562 10.273438 14.851562 Z M 10.273438 14.851562 "/>
</g>
</svg>
