
<svg xmlns="http://www.w3.org/2000/svg" xmlns:xlink="http://www.w3.org/1999/xlink" width="24px" height="24px" viewBox="0 0 24 24" version="1.1">
<g id="surface1">
<path style=" stroke:none;fill-rule:nonzero;fill:rgb(0%,0%,0%);fill-opacity:1;" d="M 19.5 12.75 C 19.5 13.125 19.425781 13.425781 19.351562 13.800781 L 9.449219 13.800781 C 8.773438 13.800781 8.476562 14.175781 8.476562 14.773438 C 8.476562 15.300781 8.851562 15.601562 9.523438 15.601562 L 18.675781 15.601562 C 17.476562 17.851562 15.523438 19.199219 12.976562 19.5 C 9 19.949219 5.324219 17.25 4.648438 13.425781 C 3.898438 9.449219 6.375 5.699219 10.199219 4.726562 C 13.351562 3.898438 16.800781 5.324219 18.449219 8.101562 C 18.300781 8.175781 18.074219 8.175781 17.851562 8.175781 L 12.976562 8.175781 C 12.449219 8.175781 12.074219 8.550781 12.074219 9.074219 C 12.074219 9.601562 12.375 9.898438 12.898438 9.898438 L 19.199219 9.898438 C 19.351562 10.273438 19.425781 10.648438 19.425781 11.023438 L 11.25 11.023438 C 10.574219 11.023438 10.199219 11.324219 10.199219 11.925781 C 10.199219 12.449219 10.574219 12.75 11.25 12.75 L 18.824219 12.75 C 19.050781 12.675781 19.273438 12.675781 19.5 12.75 Z M 19.5 12.75 "/>
</g>
</svg>
