
<svg xmlns="http://www.w3.org/2000/svg" xmlns:xlink="http://www.w3.org/1999/xlink" width="24px" height="24px" viewBox="0 0 24 24" version="1.1">
<g id="surface1">
<path style=" stroke:none;fill-rule:nonzero;fill:rgb(0%,0%,0%);fill-opacity:1;" d="M 16.199219 5.25 L 16.199219 8.398438 C 16.125 8.476562 16.125 8.550781 16.050781 8.550781 C 15.824219 8.773438 15.523438 8.925781 15.226562 9 C 14.550781 9.226562 13.800781 9.375 13.125 9.523438 C 11.925781 9.75 10.800781 9.898438 9.601562 10.050781 C 9 10.125 8.398438 10.199219 7.800781 10.351562 L 7.800781 7.199219 C 7.875 7.125 7.949219 7.125 8.101562 7.125 C 9 6.976562 9.976562 6.824219 10.949219 6.75 C 12.375 6.523438 13.800781 6.375 15.148438 5.925781 C 15.523438 5.773438 15.976562 5.625 16.199219 5.25 Z M 16.199219 9.449219 L 16.199219 12.601562 L 16.050781 12.75 C 15.675781 13.050781 15.226562 13.199219 14.851562 13.351562 C 14.25 13.5 13.648438 13.648438 13.050781 13.726562 C 12.300781 13.875 11.625 13.949219 10.875 14.101562 C 9.824219 14.25 8.851562 14.324219 7.800781 14.550781 L 7.800781 11.398438 C 7.875 11.324219 7.949219 11.324219 8.023438 11.324219 C 9.300781 11.175781 10.574219 10.949219 11.851562 10.800781 C 12.898438 10.648438 14.023438 10.425781 15.074219 10.125 C 15.523438 9.976562 15.898438 9.824219 16.199219 9.449219 Z M 7.875 18.75 L 7.800781 18.75 L 7.800781 15.601562 C 7.875 15.523438 7.949219 15.523438 8.023438 15.523438 C 8.925781 15.375 9.75 15.300781 10.648438 15.148438 C 12.148438 14.925781 13.574219 14.773438 15 14.324219 C 15.449219 14.175781 15.898438 14.023438 16.199219 13.648438 L 16.199219 16.800781 C 16.125 16.949219 15.976562 17.023438 15.824219 17.175781 C 15.375 17.398438 14.925781 17.550781 14.398438 17.699219 C 13.5 17.925781 12.523438 18.074219 11.625 18.226562 C 10.648438 18.375 9.675781 18.523438 8.699219 18.601562 C 8.398438 18.601562 8.175781 18.675781 7.875 18.75 Z M 7.875 18.75 "/>
</g>
</svg>
