
<svg xmlns="http://www.w3.org/2000/svg" xmlns:xlink="http://www.w3.org/1999/xlink" width="24px" height="24px" viewBox="0 0 24 24" version="1.1">
<g id="surface1">
<path style=" stroke:none;fill-rule:nonzero;fill:rgb(0%,0%,0%);fill-opacity:1;" d="M 4.5 10.949219 L 4.5 10.351562 C 4.5 9.976562 4.574219 9.523438 4.726562 9.148438 C 5.398438 6.601562 7.726562 4.726562 10.351562 4.574219 L 11.101562 4.574219 C 11.476562 4.574219 11.925781 4.648438 12.300781 4.800781 C 14.773438 5.476562 16.648438 7.648438 16.800781 10.351562 C 16.800781 10.800781 16.800781 11.324219 16.726562 11.773438 C 16.574219 12.523438 16.351562 13.199219 15.976562 13.875 C 15.976562 13.875 15.976562 13.949219 15.898438 13.949219 C 15.898438 13.949219 15.976562 13.949219 15.976562 14.023438 L 19.425781 17.476562 L 19.574219 17.625 L 19.574219 17.851562 C 19.574219 17.925781 19.5 18 19.5 18.074219 C 19.425781 18.226562 19.351562 18.375 19.199219 18.523438 L 18.601562 19.125 C 18.375 19.273438 18.226562 19.425781 17.925781 19.5 L 17.773438 19.5 C 17.699219 19.5 17.625 19.425781 17.550781 19.351562 L 14.175781 15.976562 L 14.101562 15.898438 L 14.023438 15.898438 C 12.898438 16.648438 11.625 16.949219 10.273438 16.875 C 9.898438 16.875 9.523438 16.800781 9.226562 16.726562 C 7.5 16.273438 6 15.074219 5.25 13.5 C 4.875 12.75 4.648438 12 4.648438 11.175781 C 4.5 11.023438 4.5 11.023438 4.5 10.949219 Z M 6.523438 10.726562 C 6.523438 12.976562 8.324219 14.851562 10.648438 14.851562 C 12.898438 14.851562 14.773438 13.050781 14.773438 10.726562 C 14.773438 8.476562 12.976562 6.601562 10.648438 6.601562 C 8.398438 6.601562 6.523438 8.398438 6.523438 10.726562 Z M 6.523438 10.726562 "/>
</g>
</svg>
