
<svg xmlns="http://www.w3.org/2000/svg" xmlns:xlink="http://www.w3.org/1999/xlink" width="16px" height="16px" viewBox="0 0 16 16" version="1.1">
<g id="surface1">
<path style=" stroke:none;fill-rule:nonzero;fill:rgb(18.431373%,25.098041%,41.568628%);fill-opacity:1;" d="M 12.730469 5.214844 L 12.730469 10.75 L 8.023438 13.539062 L 7.980469 13.578125 L 7.980469 15.648438 L 8.023438 15.691406 L 14.648438 11.859375 L 14.648438 4.140625 L 14.585938 4.125 L 12.710938 5.171875 L 12.71875 5.214844 "/>
<path style=" stroke:none;fill-rule:nonzero;fill:rgb(18.431373%,25.098041%,41.568628%);fill-opacity:1;" d="M 3.300781 10.800781 L 8.023438 13.539062 L 8.023438 15.691406 L 1.347656 11.84375 L 1.347656 4.15625 L 1.417969 4.144531 L 3.28125 5.230469 L 3.300781 5.292969 L 3.300781 10.800781 "/>
<path style=" stroke:none;fill-rule:nonzero;fill:rgb(18.431373%,25.098041%,41.568628%);fill-opacity:1;" d="M 3.300781 5.289062 L 1.347656 4.15625 L 8.007812 0.308594 L 14.652344 4.140625 L 12.730469 5.214844 L 8.007812 2.519531 L 3.300781 5.289062 "/>
<path style=" stroke:none;fill-rule:nonzero;fill:rgb(18.431373%,25.098041%,41.568628%);fill-opacity:1;" d="M 3.757812 10.5 L 3.757812 8.238281 L 3.808594 8.265625 L 5.625 9.324219 L 5.640625 9.332031 L 5.640625 11.523438 L 3.757812 10.5 "/>
<path style=" stroke:none;fill-rule:nonzero;fill:rgb(18.431373%,25.098041%,41.568628%);fill-opacity:1;" d="M 10.410156 11.574219 L 10.410156 9.375 L 10.421875 9.367188 L 12.203125 8.324219 L 12.261719 8.292969 L 12.261719 10.480469 L 10.410156 11.574219 "/>
<path style=" stroke:none;fill-rule:nonzero;fill:rgb(18.431373%,25.098041%,41.568628%);fill-opacity:1;" d="M 8.105469 12.933594 L 8.054688 12.878906 L 8.054688 10.75 L 8.117188 10.726562 L 9.902344 9.6875 L 9.957031 9.65625 L 9.957031 11.835938 L 8.109375 12.933594 "/>
<path style=" stroke:none;fill-rule:nonzero;fill:rgb(18.431373%,25.098041%,41.568628%);fill-opacity:1;" d="M 6.226562 11.902344 L 6.226562 9.644531 L 6.277344 9.675781 L 8.089844 10.730469 L 8.105469 12.933594 L 6.226562 11.902344 "/>
<path style=" stroke:none;fill-rule:nonzero;fill:rgb(18.431373%,25.098041%,41.568628%);fill-opacity:1;" d="M 7.910156 2.867188 L 6.058594 3.960938 L 7.941406 5.058594 L 9.792969 3.976562 L 7.910156 2.867188 "/>
<path style=" stroke:none;fill-rule:nonzero;fill:rgb(18.431373%,25.098041%,41.568628%);fill-opacity:1;" d="M 3.757812 7.546875 L 3.757812 5.320312 L 3.808594 5.320312 L 5.625 6.375 L 5.640625 6.417969 L 5.640625 8.574219 L 3.757812 7.546875 "/>
<path style=" stroke:none;fill-rule:nonzero;fill:rgb(18.431373%,25.098041%,41.568628%);fill-opacity:1;" d="M 5.609375 4.226562 L 3.757812 5.320312 L 5.640625 6.414062 L 7.488281 5.335938 L 5.609375 4.226562 "/>
<path style=" stroke:none;fill-rule:nonzero;fill:rgb(18.431373%,25.098041%,41.568628%);fill-opacity:1;" d="M 10.410156 8.625 L 10.410156 6.460938 L 10.421875 6.410156 L 12.203125 5.375 L 12.261719 5.386719 L 12.261719 7.527344 L 10.410156 8.625 "/>
<path style=" stroke:none;fill-rule:nonzero;fill:rgb(18.431373%,25.098041%,41.568628%);fill-opacity:1;" d="M 10.375 4.277344 L 8.527344 5.375 L 10.410156 6.46875 L 12.257812 5.390625 L 10.375 4.277344 "/>
<path style=" stroke:none;fill-rule:nonzero;fill:rgb(18.431373%,25.098041%,41.568628%);fill-opacity:1;" d="M 8.105469 9.980469 L 8.054688 9.929688 L 8.054688 7.847656 L 8.105469 7.824219 L 8.117188 7.769531 L 9.902344 6.730469 L 9.957031 6.742188 L 9.957031 8.886719 L 8.109375 9.980469 "/>
<path style=" stroke:none;fill-rule:nonzero;fill:rgb(18.431373%,25.098041%,41.568628%);fill-opacity:1;" d="M 6.226562 8.953125 L 6.226562 6.726562 L 6.277344 6.726562 L 8.089844 7.785156 L 8.105469 7.824219 L 8.105469 9.980469 L 6.226562 8.953125 "/>
<path style=" stroke:none;fill-rule:nonzero;fill:rgb(18.431373%,25.098041%,41.568628%);fill-opacity:1;" d="M 8.074219 5.632812 L 6.226562 6.726562 L 8.105469 7.824219 L 9.957031 6.742188 L 8.074219 5.632812 "/>
</g>
</svg>
