
<svg xmlns="http://www.w3.org/2000/svg" xmlns:xlink="http://www.w3.org/1999/xlink" width="24px" height="24px" viewBox="0 0 24 24" version="1.1">
<g id="surface1">
<path style=" stroke:none;fill-rule:nonzero;fill:rgb(0%,0%,0%);fill-opacity:1;" d="M 8.773438 6.148438 C 7.949219 6.148438 7.273438 6.75 7.199219 7.574219 L 7.199219 9.074219 C 7.273438 9.898438 7.949219 10.5 8.773438 10.5 C 9.601562 10.5 10.273438 9.898438 10.351562 9.074219 L 10.351562 7.574219 C 10.273438 6.75 9.601562 6.148438 8.773438 6.148438 Z M 5.25 8.101562 L 5.25 8.550781 C 5.25 8.851562 5.476562 9.074219 5.773438 9.074219 L 6.75 9.074219 L 6.75 7.574219 L 5.773438 7.574219 C 5.476562 7.574219 5.25 7.800781 5.25 8.101562 Z M 18.226562 7.574219 L 10.875 7.574219 L 10.875 9.074219 L 18.226562 9.074219 C 18.523438 9.074219 18.75 8.851562 18.75 8.550781 L 18.75 8.101562 C 18.75 7.800781 18.523438 7.574219 18.226562 7.574219 Z M 15.226562 10.574219 C 14.398438 10.574219 13.726562 11.175781 13.648438 12 L 13.648438 13.5 C 13.726562 14.324219 14.398438 14.925781 15.226562 14.925781 C 16.050781 14.925781 16.726562 14.324219 16.800781 13.5 L 16.800781 12 C 16.726562 11.175781 16.050781 10.574219 15.226562 10.574219 Z M 5.25 12.523438 L 5.25 12.976562 C 5.25 13.273438 5.476562 13.5 5.773438 13.5 L 13.125 13.5 L 13.125 12 L 5.773438 12 C 5.476562 12 5.25 12.226562 5.25 12.523438 Z M 18.226562 12 L 17.25 12 L 17.25 13.5 L 18.226562 13.5 C 18.523438 13.5 18.75 13.273438 18.75 12.976562 L 18.75 12.523438 C 18.75 12.226562 18.523438 12 18.226562 12 Z M 11.25 15 C 10.425781 15 9.75 15.601562 9.675781 16.425781 L 9.675781 17.925781 C 9.75 18.75 10.425781 19.351562 11.25 19.351562 C 12.074219 19.351562 12.75 18.75 12.824219 17.925781 L 12.824219 16.425781 C 12.75 15.601562 12.074219 15 11.25 15 Z M 18.226562 16.425781 L 13.273438 16.425781 L 13.273438 17.925781 L 18.226562 17.925781 C 18.523438 17.925781 18.75 17.699219 18.75 17.398438 L 18.75 16.949219 C 18.75 16.648438 18.523438 16.425781 18.226562 16.425781 Z M 5.25 16.949219 L 5.25 17.398438 C 5.25 17.699219 5.476562 17.925781 5.773438 17.925781 L 9.226562 17.925781 L 9.226562 16.425781 L 5.773438 16.425781 C 5.476562 16.425781 5.25 16.648438 5.25 16.949219 Z M 5.25 16.949219 "/>
</g>
</svg>
