
<svg xmlns="http://www.w3.org/2000/svg" xmlns:xlink="http://www.w3.org/1999/xlink" width="16px" height="16px" viewBox="0 0 16 16" version="1.1">
<g id="surface1">
<path style=" stroke:none;fill-rule:nonzero;fill:rgb(17.647059%,20%,22.745098%);fill-opacity:1;" d="M 6.628906 7.371094 L 7.296875 9.300781 L 9.371094 8.628906 L 8.703125 6.699219 Z M 6.628906 7.371094 "/>
<path style=" stroke:none;fill-rule:nonzero;fill:rgb(17.647059%,20%,22.745098%);fill-opacity:1;" d="M 6.628906 7.371094 L 7.296875 9.300781 L 9.371094 8.628906 L 8.703125 6.699219 Z M 6.628906 7.371094 "/>
<path style=" stroke:none;fill-rule:nonzero;fill:rgb(17.647059%,20%,22.745098%);fill-opacity:1;" d="M 15.113281 5.9375 C 13.511719 0.785156 11.203125 -0.417969 5.867188 1.125 C 0.53125 2.667969 -0.714844 4.90625 0.886719 10.0625 C 2.488281 15.214844 4.796875 16.417969 10.136719 14.871094 C 15.472656 13.324219 16.714844 11.09375 15.113281 5.9375 Z M 12.414062 9.285156 L 11.414062 9.609375 L 11.765625 10.609375 C 11.832031 10.808594 11.816406 11.027344 11.71875 11.214844 C 11.621094 11.402344 11.453125 11.542969 11.25 11.601562 C 11.160156 11.628906 11.066406 11.640625 10.972656 11.640625 C 10.640625 11.636719 10.34375 11.425781 10.230469 11.109375 L 9.882812 10.109375 L 7.808594 10.773438 L 8.15625 11.773438 C 8.222656 11.972656 8.207031 12.1875 8.113281 12.375 C 8.015625 12.558594 7.847656 12.699219 7.648438 12.757812 C 7.5625 12.789062 7.46875 12.800781 7.375 12.796875 C 7.039062 12.796875 6.742188 12.585938 6.625 12.273438 L 6.277344 11.273438 L 5.277344 11.597656 C 5.1875 11.628906 5.09375 11.640625 5 11.640625 C 4.667969 11.632812 4.371094 11.421875 4.257812 11.109375 C 4.191406 10.910156 4.207031 10.695312 4.304688 10.507812 C 4.398438 10.324219 4.566406 10.183594 4.765625 10.125 L 5.765625 9.800781 L 5.101562 7.863281 L 4.101562 8.191406 C 4.011719 8.21875 3.921875 8.230469 3.828125 8.230469 C 3.492188 8.226562 3.195312 8.015625 3.082031 7.699219 C 3.015625 7.503906 3.035156 7.285156 3.128906 7.101562 C 3.226562 6.914062 3.390625 6.777344 3.589844 6.714844 L 4.589844 6.390625 L 4.242188 5.390625 C 4.171875 5.191406 4.1875 4.972656 4.285156 4.789062 C 4.378906 4.601562 4.546875 4.460938 4.75 4.398438 C 5.167969 4.261719 5.617188 4.476562 5.769531 4.890625 L 6.117188 5.890625 L 8.191406 5.21875 L 7.84375 4.21875 C 7.777344 4.019531 7.792969 3.804688 7.890625 3.621094 C 7.984375 3.433594 8.152344 3.296875 8.351562 3.234375 C 8.769531 3.09375 9.222656 3.3125 9.375 3.726562 L 9.722656 4.726562 L 10.722656 4.402344 C 11.140625 4.261719 11.589844 4.480469 11.742188 4.890625 C 11.808594 5.089844 11.792969 5.304688 11.695312 5.492188 C 11.601562 5.675781 11.433594 5.816406 11.234375 5.875 L 10.234375 6.199219 L 10.902344 8.128906 L 11.902344 7.804688 C 12.320312 7.664062 12.769531 7.882812 12.921875 8.292969 C 12.992188 8.492188 12.976562 8.710938 12.878906 8.898438 C 12.785156 9.082031 12.617188 9.222656 12.414062 9.285156 Z M 12.414062 9.285156 "/>
</g>
</svg>
