
<svg xmlns="http://www.w3.org/2000/svg" xmlns:xlink="http://www.w3.org/1999/xlink" width="24px" height="24px" viewBox="0 0 24 24" version="1.1">
<g id="surface1">
<path style=" stroke:none;fill-rule:nonzero;fill:rgb(0%,0%,0%);fill-opacity:1;" d="M 5.25 16.800781 L 5.25 7.199219 C 5.25 7.125 5.324219 7.125 5.324219 7.050781 C 5.476562 6.523438 5.773438 6 6.300781 5.699219 L 7.199219 5.25 L 16.800781 5.25 C 16.875 5.25 16.875 5.324219 16.949219 5.324219 C 17.625 5.550781 18.148438 6 18.523438 6.601562 C 18.601562 6.824219 18.675781 6.976562 18.824219 7.125 L 18.824219 16.726562 C 18.824219 16.800781 18.75 16.800781 18.75 16.875 C 18.601562 17.398438 18.300781 17.851562 17.773438 18.226562 C 17.476562 18.449219 17.175781 18.601562 16.800781 18.675781 L 7.199219 18.675781 C 7.125 18.675781 7.125 18.601562 7.050781 18.601562 C 6.375 18.375 5.851562 17.925781 5.476562 17.324219 C 5.398438 17.25 5.324219 17.023438 5.25 16.800781 Z M 7.351562 8.925781 C 8.023438 9.75 8.625 10.574219 9.300781 11.324219 C 9.375 11.398438 9.523438 11.476562 9.601562 11.476562 L 14.398438 11.476562 C 14.476562 11.476562 14.625 11.398438 14.699219 11.398438 C 15.375 10.574219 15.976562 9.75 16.648438 9 C 14.398438 6.300781 9.824219 6.074219 7.351562 8.925781 Z M 7.351562 8.925781 "/>
<path style=" stroke:none;fill-rule:nonzero;fill:rgb(0%,0%,0%);fill-opacity:1;" d="M 13.726562 7.800781 C 13.425781 8.773438 13.273438 9.898438 12.976562 10.875 L 11.550781 10.875 C 12.375 9.824219 13.050781 8.773438 13.726562 7.800781 Z M 13.726562 7.800781 "/>
</g>
</svg>
