
<svg xmlns="http://www.w3.org/2000/svg" xmlns:xlink="http://www.w3.org/1999/xlink" width="24px" height="24px" viewBox="0 0 24 24" version="1.1">
<g id="surface1">
<path style=" stroke:none;fill-rule:nonzero;fill:rgb(0%,0%,0%);fill-opacity:1;" d="M 12 14.773438 L 10.425781 14.773438 C 9.898438 14.773438 9.824219 14.773438 9.75 14.25 C 9.523438 13.125 9.148438 12.074219 8.625 11.101562 C 8.324219 10.574219 8.101562 10.050781 7.875 9.449219 C 7.574219 8.625 7.5 7.800781 7.648438 6.898438 C 7.800781 5.699219 8.550781 4.800781 9.601562 4.351562 C 11.25 3.601562 12.976562 3.601562 14.625 4.425781 C 16.125 5.101562 16.800781 6.675781 16.5 8.398438 C 16.351562 9.523438 15.898438 10.425781 15.375 11.398438 C 14.925781 12.300781 14.550781 13.199219 14.398438 14.175781 C 14.25 14.851562 14.25 14.851562 13.574219 14.851562 C 12.976562 14.773438 12.449219 14.773438 12 14.773438 Z M 11.925781 20.25 L 10.125 20.25 C 9.824219 20.25 9.675781 20.175781 9.675781 19.800781 C 9.675781 18.824219 9.523438 18.898438 10.574219 18.898438 L 13.800781 18.898438 C 14.175781 18.898438 14.25 19.050781 14.25 19.351562 C 14.25 20.175781 14.25 20.175781 13.425781 20.175781 C 12.976562 20.25 12.449219 20.25 11.925781 20.25 Z M 12 17.550781 L 10.125 17.550781 C 9.824219 17.550781 9.75 17.476562 9.75 17.175781 C 9.75 16.199219 9.675781 16.273438 10.574219 16.273438 L 13.800781 16.273438 C 14.101562 16.273438 14.25 16.425781 14.25 16.726562 C 14.25 17.625 14.324219 17.550781 13.425781 17.550781 Z M 12 17.550781 "/>
</g>
</svg>
