
<svg xmlns="http://www.w3.org/2000/svg" xmlns:xlink="http://www.w3.org/1999/xlink" width="24px" height="24px" viewBox="0 0 24 24" version="1.1">
<g id="surface1">
<path style=" stroke:none;fill-rule:nonzero;fill:rgb(0%,0%,0%);fill-opacity:1;" d="M 17.550781 6.074219 C 18.375 8.324219 18.976562 10.5 18.675781 12.898438 C 18.449219 14.625 17.699219 16.050781 16.351562 17.25 C 15 18.300781 13.425781 18.898438 11.773438 18.824219 C 9.898438 18.75 8.25 18 6.976562 16.5 C 5.699219 15 5.175781 13.351562 5.324219 11.476562 C 5.398438 10.050781 5.925781 8.773438 6.898438 7.726562 C 7.949219 6.300781 9.523438 5.550781 11.25 5.25 C 13.050781 5.023438 14.699219 5.550781 16.125 6.601562 C 16.949219 7.273438 16.949219 7.273438 17.398438 6.300781 C 17.476562 6.300781 17.476562 6.226562 17.550781 6.074219 Z M 16.949219 10.425781 C 16.574219 12.074219 15.523438 13.425781 14.175781 14.550781 C 13.199219 15.375 12 15.75 10.800781 16.199219 C 10.5 16.273438 10.199219 16.425781 9.898438 16.5 C 9.898438 16.574219 9.898438 16.648438 9.976562 16.726562 C 11.625 16.648438 13.351562 16.726562 15 16.425781 C 17.023438 16.125 18 15 18.375 12.976562 C 18.601562 11.625 18.449219 10.351562 18.074219 9 C 17.851562 8.324219 17.699219 7.648438 17.476562 6.898438 C 17.324219 7.125 17.25 7.199219 17.175781 7.199219 C 16.5 8.25 15.523438 8.925781 14.398438 9.449219 C 13.425781 9.898438 12.226562 9.898438 11.175781 9.976562 C 10.199219 10.050781 9.300781 10.273438 8.550781 10.875 C 7.351562 11.773438 6.898438 13.648438 7.574219 14.851562 C 7.949219 15.601562 8.398438 15.75 9.148438 15.601562 C 9.523438 15.523438 9.898438 15.375 10.273438 15.300781 C 13.199219 14.550781 15.523438 13.199219 16.949219 10.425781 Z M 7.875 15.898438 C 7.574219 15.898438 7.351562 16.199219 7.351562 16.5 C 7.351562 16.800781 7.648438 17.023438 7.949219 17.023438 C 8.25 17.023438 8.476562 16.726562 8.476562 16.425781 C 8.476562 16.050781 8.324219 15.898438 7.875 15.898438 Z M 7.875 15.898438 "/>
</g>
</svg>
