
<svg xmlns="http://www.w3.org/2000/svg" xmlns:xlink="http://www.w3.org/1999/xlink" width="24px" height="24px" viewBox="0 0 24 24" version="1.1">
<g id="surface1">
<path style=" stroke:none;fill-rule:nonzero;fill:rgb(54.901963%,75.686276%,28.235295%);fill-opacity:1;" d="M 18.824219 2.398438 C 18.675781 2.398438 18.449219 2.476562 18.300781 2.550781 C 17.625 2.773438 17.175781 3.300781 16.726562 3.824219 C 15.824219 4.800781 15.074219 5.925781 14.476562 7.125 C 13.648438 8.550781 13.050781 10.050781 12.601562 11.625 C 12.449219 12.226562 12.300781 12.898438 12.300781 13.574219 C 12.300781 13.949219 12.601562 14.175781 12.898438 14.101562 C 13.574219 14.023438 13.949219 13.5 14.324219 13.050781 L 14.324219 12.824219 C 14.101562 13.050781 13.875 13.273438 13.648438 13.425781 C 13.425781 13.574219 13.273438 13.5 13.273438 13.273438 L 13.273438 12.523438 C 13.273438 11.625 13.5 10.726562 13.800781 9.898438 C 14.101562 9.074219 14.398438 8.25 14.773438 7.5 C 15.300781 6.375 15.976562 5.25 16.875 4.351562 C 17.25 3.75 17.773438 3.375 18.523438 3.300781 C 18.898438 3.300781 19.125 3.375 19.199219 3.675781 C 19.199219 3.75 19.273438 3.75 19.273438 3.75 C 19.273438 3.75 19.351562 3.675781 19.425781 3.675781 C 19.5 3.449219 19.574219 3.226562 19.574219 3 C 19.574219 2.699219 19.199219 2.324219 18.824219 2.398438 Z M 11.324219 9.976562 C 10.800781 9.976562 9.976562 10.574219 9.75 11.023438 L 9.75 11.175781 C 9.824219 11.175781 9.824219 11.175781 9.898438 11.101562 C 9.976562 11.023438 10.050781 10.875 10.199219 10.800781 C 10.351562 10.648438 10.5 10.5 10.726562 10.574219 C 10.949219 10.648438 10.949219 10.949219 10.875 11.101562 C 10.800781 12 10.648438 12.75 10.5 13.574219 C 10.199219 14.699219 9.824219 15.824219 9.300781 16.800781 C 8.699219 18 8.023438 19.050781 7.050781 19.949219 C 6.601562 20.324219 6.074219 20.699219 5.476562 20.699219 C 5.101562 20.699219 4.949219 20.625 4.875 20.25 C 4.875 20.175781 4.800781 20.175781 4.726562 20.101562 C 4.5 20.398438 4.425781 20.699219 4.5 21.074219 C 4.574219 21.375 4.726562 21.601562 4.949219 21.601562 C 5.25 21.601562 5.550781 21.523438 5.773438 21.449219 C 6.300781 21.300781 6.675781 20.851562 7.050781 20.476562 C 7.949219 19.574219 8.699219 18.523438 9.300781 17.398438 C 10.273438 15.75 11.023438 14.023438 11.550781 12.148438 C 11.699219 11.550781 11.851562 11.023438 11.773438 10.425781 C 11.773438 10.199219 11.550781 9.976562 11.324219 9.976562 Z M 11.324219 9.976562 "/>
</g>
</svg>
