
<svg xmlns="http://www.w3.org/2000/svg" xmlns:xlink="http://www.w3.org/1999/xlink" width="24px" height="24px" viewBox="0 0 24 24" version="1.1">
<g id="surface1">
<path style=" stroke:none;fill-rule:nonzero;fill:rgb(0%,0%,0%);fill-opacity:1;" d="M 10.863281 6.980469 L 12.660156 6.980469 L 12.660156 8.074219 L 10.859375 8.074219 Z M 14.8125 9.347656 L 12.910156 8.167969 C 12.839844 8.097656 12.875 6.851562 12.875 6.851562 L 14.773438 5.78125 L 14.808594 9.347656 Z M 8.695312 9.3125 L 10.609375 8.132812 C 10.679688 8.0625 10.644531 6.8125 10.644531 6.8125 L 8.730469 5.746094 Z M 11.242188 9.675781 C 11.242188 9.40625 11.453125 9.1875 11.71875 9.1875 C 11.984375 9.1875 12.195312 9.40625 12.195312 9.675781 C 12.199219 9.804688 12.148438 9.929688 12.058594 10.019531 C 11.96875 10.113281 11.847656 10.164062 11.71875 10.167969 C 11.589844 10.164062 11.46875 10.113281 11.378906 10.019531 C 11.289062 9.929688 11.238281 9.804688 11.242188 9.675781 Z M 11.242188 12.667969 C 11.242188 12.398438 11.453125 12.179688 11.71875 12.179688 C 11.984375 12.179688 12.195312 12.398438 12.195312 12.667969 C 12.199219 12.796875 12.148438 12.921875 12.058594 13.011719 C 11.96875 13.105469 11.847656 13.15625 11.71875 13.160156 C 11.589844 13.15625 11.46875 13.105469 11.378906 13.011719 C 11.289062 12.921875 11.238281 12.796875 11.242188 12.667969 Z M 11.242188 15.660156 C 11.242188 15.390625 11.453125 15.167969 11.71875 15.167969 C 11.984375 15.167969 12.195312 15.390625 12.195312 15.660156 C 12.199219 15.925781 11.984375 16.144531 11.71875 16.148438 C 11.453125 16.144531 11.238281 15.925781 11.242188 15.660156 Z M 18.917969 7.3125 L 16.84375 5.402344 L 15.683594 5.402344 L 15.089844 7.527344 L 15.054688 9.800781 L 14.492188 9.476562 L 11.890625 19.316406 L 18.53125 9.582031 L 17.617188 8.503906 Z M 4.582031 7.277344 L 6.65625 5.367188 L 7.816406 5.367188 L 8.410156 7.492188 L 8.445312 9.761719 L 9.007812 9.4375 L 11.609375 19.277344 L 4.96875 9.546875 L 5.882812 8.464844 Z M 8.921875 9.601562 "/>
</g>
</svg>
