
<svg xmlns="http://www.w3.org/2000/svg" xmlns:xlink="http://www.w3.org/1999/xlink" width="24px" height="24px" viewBox="0 0 24 24" version="1.1">
<g id="surface1">
<path style=" stroke:none;fill-rule:nonzero;fill:rgb(0%,0%,0%);fill-opacity:1;" d="M 18.75 11.550781 L 18.75 11.175781 C 18.601562 10.273438 18.300781 9.375 17.851562 8.550781 C 17.398438 7.875 16.875 7.273438 16.273438 6.75 C 15.75 6.300781 15.226562 6 14.625 5.773438 C 12.675781 5.023438 10.726562 5.101562 8.851562 6.074219 C 7.800781 6.675781 6.976562 7.425781 6.300781 8.476562 C 5.625 9.523438 5.25 10.574219 5.25 11.851562 L 5.25 12.675781 C 5.398438 13.800781 5.699219 14.773438 6.300781 15.75 C 6.824219 16.5 7.425781 17.175781 8.25 17.699219 C 8.699219 18 9.226562 18.300781 9.824219 18.449219 C 10.800781 18.75 11.851562 18.898438 12.824219 18.75 C 15.300781 18.375 17.101562 17.023438 18.148438 14.773438 C 18.675781 13.726562 18.824219 12.675781 18.75 11.550781 Z M 13.648438 15.148438 C 13.050781 15.449219 12.449219 15.449219 11.851562 15.449219 C 10.949219 15.449219 10.199219 15.148438 9.449219 14.699219 C 9.300781 14.625 9.300781 14.550781 9.375 14.476562 L 9.824219 13.574219 C 9.898438 13.5 9.898438 13.5 9.976562 13.5 C 10.574219 13.949219 11.25 14.175781 12 14.25 C 12.226562 14.25 12.449219 14.25 12.675781 14.175781 C 12.976562 14.101562 13.125 13.875 13.199219 13.648438 C 13.199219 13.425781 13.125 13.199219 12.824219 13.050781 C 12.375 12.824219 11.925781 12.675781 11.476562 12.523438 C 10.949219 12.375 10.351562 12.226562 9.976562 11.773438 C 9.675781 11.476562 9.601562 11.023438 9.601562 10.574219 C 9.675781 9.375 10.5 8.773438 11.476562 8.625 C 12.523438 8.476562 13.425781 8.699219 14.25 9.226562 C 14.324219 9.300781 14.324219 9.375 14.324219 9.449219 C 14.175781 9.75 14.023438 9.976562 13.875 10.273438 C 13.800781 10.425781 13.800781 10.351562 13.648438 10.351562 C 13.050781 9.976562 12.449219 9.75 11.699219 9.824219 C 11.550781 9.824219 11.398438 9.898438 11.25 9.898438 C 11.023438 10.050781 10.875 10.199219 10.875 10.5 C 10.875 10.726562 10.949219 10.949219 11.175781 11.101562 C 11.398438 11.25 11.625 11.324219 11.851562 11.324219 C 12.300781 11.476562 12.75 11.550781 13.273438 11.699219 C 13.351562 11.625 13.425781 11.625 13.574219 11.625 C 13.5 11.625 13.351562 11.625 13.273438 11.699219 C 13.425781 11.773438 13.648438 11.851562 13.800781 11.925781 C 13.800781 11.925781 13.875 11.925781 13.875 12 C 13.875 12 13.949219 12 13.949219 12.074219 C 14.023438 12.148438 14.101562 12.148438 14.101562 12.226562 L 14.175781 12.300781 C 14.851562 12.898438 14.925781 14.550781 13.648438 15.148438 Z M 13.648438 15.148438 "/>
</g>
</svg>
