
<svg xmlns="http://www.w3.org/2000/svg" xmlns:xlink="http://www.w3.org/1999/xlink" width="24px" height="24px" viewBox="0 0 24 24" version="1.1">
<g id="surface1">
<path style=" stroke:none;fill-rule:nonzero;fill:rgb(0%,0%,0%);fill-opacity:1;" d="M 7.199219 8.25 C 7.199219 8.175781 7.125 8.175781 7.125 8.101562 C 6.976562 7.875 6.75 7.648438 6.601562 7.425781 C 6.300781 7.125 6.074219 6.898438 5.925781 6.601562 C 6.148438 6.824219 6.449219 7.050781 6.675781 7.199219 C 6.824219 7.273438 6.898438 7.425781 7.050781 7.5 C 7.351562 7.726562 7.574219 7.949219 7.875 8.175781 C 8.175781 8.476562 8.550781 8.699219 8.851562 8.925781 C 9.226562 9.226562 9.601562 9.523438 9.976562 9.75 C 10.574219 10.199219 11.175781 10.574219 11.773438 11.023438 L 11.773438 10.949219 C 11.324219 10.425781 10.875 9.898438 10.351562 9.375 C 10.050781 9 9.75 8.625 9.449219 8.324219 C 9.226562 8.023438 8.925781 7.648438 8.699219 7.351562 C 8.699219 7.273438 8.625 7.273438 8.625 7.199219 L 7.949219 6.300781 C 7.875 6.148438 7.726562 6 7.648438 5.773438 C 8.023438 6.074219 8.324219 6.449219 8.699219 6.75 C 9.074219 7.125 9.523438 7.5 9.898438 7.875 C 10.199219 8.101562 10.5 8.398438 10.800781 8.625 L 11.699219 9.300781 C 11.925781 9.449219 12.074219 9.601562 12.300781 9.75 C 13.125 10.351562 13.949219 10.949219 14.851562 11.550781 C 14.925781 11.625 15 11.625 15 11.476562 C 15.300781 10.726562 15.375 9.976562 15.375 9.148438 C 15.375 8.476562 15.226562 7.726562 15 7.125 C 15 6.976562 14.925781 6.75 14.851562 6.523438 C 14.699219 6.226562 14.550781 5.851562 14.324219 5.550781 C 14.25 5.25 14.023438 4.949219 13.800781 4.726562 C 13.800781 4.648438 13.726562 4.648438 13.726562 4.574219 C 14.023438 4.726562 14.25 4.875 14.476562 5.023438 C 15.601562 5.851562 16.5 6.824219 17.25 7.949219 C 17.476562 8.398438 17.773438 8.925781 17.925781 9.375 C 18.226562 10.125 18.449219 10.949219 18.449219 11.773438 L 18.449219 11.851562 C 18.449219 12.148438 18.449219 12.523438 18.375 12.824219 C 18.300781 13.125 18.300781 13.425781 18.226562 13.726562 C 18.226562 13.800781 18.226562 13.875 18.300781 13.949219 C 18.898438 14.699219 19.273438 15.523438 19.425781 16.425781 C 19.5 16.648438 19.5 16.875 19.5 17.175781 C 19.5 17.398438 19.5 17.550781 19.425781 17.773438 C 19.425781 17.851562 19.425781 17.851562 19.351562 17.851562 C 19.273438 17.851562 19.273438 17.773438 19.273438 17.773438 C 18.976562 17.175781 18.523438 16.726562 17.851562 16.648438 C 17.25 16.5 16.726562 16.648438 16.199219 16.875 C 15.824219 17.023438 15.523438 17.25 15.226562 17.324219 C 14.175781 17.773438 13.050781 17.925781 11.925781 17.773438 C 11.175781 17.699219 10.425781 17.550781 9.675781 17.25 L 9.601562 17.25 C 9.148438 17.023438 8.699219 16.875 8.25 16.648438 C 6.75 15.824219 5.550781 14.699219 4.574219 13.273438 L 4.5 13.199219 C 4.574219 13.199219 4.574219 13.199219 4.648438 13.273438 C 4.875 13.425781 5.101562 13.574219 5.398438 13.726562 C 5.699219 13.875 6 14.101562 6.300781 14.175781 C 6.675781 14.398438 7.125 14.550781 7.574219 14.625 C 7.648438 14.699219 7.648438 14.625 7.726562 14.699219 C 8.476562 14.925781 9.300781 15 10.125 15 C 11.101562 14.925781 12 14.699219 12.824219 14.25 C 12.976562 14.175781 12.976562 14.175781 12.824219 14.101562 C 12.300781 13.726562 11.851562 13.273438 11.324219 12.824219 C 10.949219 12.523438 10.648438 12.148438 10.273438 11.851562 C 9.976562 11.625 9.75 11.324219 9.523438 11.023438 C 9.375 10.800781 9.148438 10.648438 9 10.425781 C 8.699219 10.125 8.398438 9.75 8.101562 9.449219 C 7.875 9.148438 7.648438 8.925781 7.425781 8.625 C 7.425781 8.476562 7.273438 8.324219 7.199219 8.25 Z M 7.199219 8.25 "/>
</g>
</svg>
