
<svg xmlns="http://www.w3.org/2000/svg" xmlns:xlink="http://www.w3.org/1999/xlink" width="24px" height="24px" viewBox="0 0 24 24" version="1.1">
<g id="surface1">
<path style=" stroke:none;fill-rule:nonzero;fill:rgb(0%,0%,0%);fill-opacity:1;" d="M 5.925781 13.125 L 4.875 13.125 L 4.875 14.101562 L 8.175781 14.101562 L 8.175781 13.125 L 7.199219 13.125 L 7.199219 8.25 L 7.5 8.25 C 8.398438 8.25 8.550781 8.324219 8.699219 9 L 9.601562 9 L 9.449219 7.273438 L 3.601562 7.273438 L 3.375 9.976562 L 4.273438 9.976562 L 4.273438 9.601562 C 4.425781 8.324219 4.5 8.25 5.625 8.25 L 5.925781 8.25 Z M 5.925781 13.125 "/>
<path style=" stroke:none;fill-rule:nonzero;fill:rgb(0%,0%,0%);fill-opacity:1;" d="M 11.851562 15.824219 L 10.574219 15.824219 L 10.574219 13.726562 L 11.023438 13.726562 C 11.550781 13.726562 11.550781 13.726562 11.550781 14.398438 L 11.550781 14.773438 L 12.449219 14.773438 L 12.449219 11.699219 L 11.550781 11.699219 L 11.550781 12.074219 C 11.550781 12.75 11.550781 12.75 11.023438 12.75 L 10.574219 12.75 L 10.574219 10.949219 L 11.773438 10.949219 C 12.898438 10.949219 12.976562 11.25 13.050781 12.300781 L 13.949219 12.300781 L 13.726562 9.898438 L 8.476562 9.898438 L 8.476562 10.875 L 9.226562 10.875 L 9.226562 15.675781 L 8.476562 15.675781 L 8.476562 16.648438 L 13.800781 16.648438 L 14.101562 14.699219 L 13.125 14.699219 C 13.125 15.523438 12.824219 15.824219 11.851562 15.824219 Z M 11.851562 15.824219 "/>
<path style=" stroke:none;fill-rule:nonzero;fill:rgb(0%,0%,0%);fill-opacity:1;" d="M 16.273438 13.199219 L 15.898438 13.199219 L 17.023438 11.550781 L 18.148438 13.199219 L 17.925781 13.199219 L 17.925781 14.023438 L 20.625 14.023438 L 20.625 13.125 L 20.25 13.125 C 19.800781 13.125 19.800781 13.125 19.726562 12.976562 L 17.925781 10.351562 L 19.125 8.625 C 19.273438 8.476562 19.425781 8.175781 19.949219 8.175781 L 20.324219 8.175781 L 20.324219 7.199219 L 18 7.199219 L 18 8.101562 L 18.375 8.101562 L 18.300781 8.175781 L 17.398438 9.449219 L 16.425781 8.25 L 16.648438 8.25 L 16.648438 7.199219 L 13.949219 7.199219 L 13.949219 8.25 L 14.324219 8.25 C 14.773438 8.25 14.773438 8.25 14.851562 8.398438 L 16.425781 10.726562 L 15.074219 12.75 L 14.851562 12.976562 C 14.699219 13.125 14.476562 13.199219 14.25 13.199219 L 13.875 13.199219 L 13.875 14.101562 L 16.273438 14.101562 Z M 16.273438 13.199219 "/>
</g>
</svg>
