
<svg xmlns="http://www.w3.org/2000/svg" xmlns:xlink="http://www.w3.org/1999/xlink" width="24px" height="24px" viewBox="0 0 24 24" version="1.1">
<g id="surface1">
<path style=" stroke:none;fill-rule:nonzero;fill:rgb(0%,0%,0%);fill-opacity:1;" d="M 12 5.25 L 16.273438 5.25 C 17.476562 5.25 18.449219 6.074219 18.675781 7.199219 C 18.75 7.351562 18.75 7.574219 18.75 7.648438 L 18.75 16.199219 C 18.75 17.398438 17.925781 18.449219 16.726562 18.601562 C 16.574219 18.601562 16.425781 18.675781 16.273438 18.675781 L 7.800781 18.675781 C 6.300781 18.675781 5.25 17.625 5.25 16.199219 L 5.25 7.726562 C 5.25 6.449219 6.074219 5.476562 7.273438 5.25 Z M 7.273438 12 L 7.273438 16.273438 C 7.273438 16.574219 7.425781 16.726562 7.800781 16.726562 L 16.199219 16.726562 C 16.5 16.726562 16.726562 16.5 16.726562 16.199219 L 16.726562 7.800781 C 16.648438 7.425781 16.5 7.273438 16.125 7.273438 L 7.726562 7.273438 C 7.351562 7.273438 7.199219 7.425781 7.199219 7.800781 C 7.273438 9.148438 7.273438 10.574219 7.273438 12 Z M 7.273438 12 "/>
<path style=" stroke:none;fill-rule:nonzero;fill:rgb(0%,0%,0%);fill-opacity:1;" d="M 9.074219 11.023438 C 9.226562 11.101562 9.300781 11.101562 9.449219 11.175781 C 9.976562 11.398438 10.5 11.699219 11.023438 11.925781 C 11.175781 12 11.175781 12 11.25 11.925781 C 12.375 11.101562 13.425781 10.273438 14.550781 9.523438 C 14.699219 9.375 14.851562 9.375 14.925781 9.300781 C 15.148438 9.226562 15.300781 9.449219 15.300781 9.675781 C 15.226562 9.824219 15.148438 9.898438 15.148438 9.976562 C 14.625 10.648438 14.175781 11.324219 13.648438 12.074219 C 13.050781 12.898438 12.523438 13.648438 11.925781 14.398438 C 11.550781 15 10.949219 14.925781 10.574219 14.324219 C 9.976562 13.425781 9.449219 12.675781 8.851562 11.773438 C 8.773438 11.699219 8.699219 11.625 8.699219 11.550781 C 8.625 11.25 8.773438 11.023438 9.074219 11.023438 Z M 9.074219 11.023438 "/>
</g>
</svg>
