
<svg xmlns="http://www.w3.org/2000/svg" xmlns:xlink="http://www.w3.org/1999/xlink" width="16px" height="16px" viewBox="0 0 16 16" version="1.1">
<g id="surface1">
<path style=" stroke:none;fill-rule:nonzero;fill:rgb(73.333335%,12.54902%,19.215687%);fill-opacity:1;" d="M 5 4.25 L 7.25 4.25 L 7.25 11.875 L 6.25 11.875 L 6.25 13.25 L 9.75 13.25 L 9.75 11.75 L 8.875 11.75 L 8.875 4.125 L 11.25 4.125 L 11.25 5.25 L 12.5 5.25 L 12.5 3 L 3.625 3 L 3.625 5.25 L 5 5.25 Z M 15.273438 0.375 L 0.753906 0.375 C 0.5 0.375 0.25 0.527344 0.25 0.777344 L 0.25 15.296875 C 0.25 15.546875 0.5 15.75 0.753906 15.75 L 15.273438 15.75 C 15.527344 15.75 15.625 15.546875 15.625 15.296875 L 15.625 0.777344 C 15.625 0.527344 15.527344 0.375 15.273438 0.375 Z M 13.25 6 L 10.625 6 L 10.625 4.875 L 9.5 4.875 L 9.5 10.875 L 10.625 10.875 L 10.625 13.875 L 5.625 13.875 L 5.625 11 L 6.375 11 L 6.375 5 L 5.625 5 L 5.625 6 L 2.75 6 L 2.75 2.25 L 13.25 2.25 Z M 13.25 6 "/>
</g>
</svg>
