
<svg xmlns="http://www.w3.org/2000/svg" xmlns:xlink="http://www.w3.org/1999/xlink" width="16px" height="16px" viewBox="0 0 16 16" version="1.1">
<g id="surface1">
<path style=" stroke:none;fill-rule:nonzero;fill:rgb(13.725491%,44.313726%,62.352943%);fill-opacity:1;" d="M 15.875 2.019531 C 15.875 0.972656 15.027344 0.125 13.980469 0.125 L 2.019531 0.125 C 0.972656 0.125 0.125 0.972656 0.125 2.019531 L 0.125 13.980469 C 0.125 15.027344 0.972656 15.875 2.019531 15.875 L 13.980469 15.875 C 15.027344 15.875 15.875 15.027344 15.875 13.980469 Z M 7.25 12.441406 C 7.25 12.917969 6.839844 13.25 6.363281 13.25 L 2.945312 13.25 C 2.46875 13.25 2.125 12.917969 2.125 12.441406 L 2.125 2.902344 C 2.125 2.429688 2.46875 2 2.945312 2 L 6.363281 2 C 6.839844 2 7.25 2.429688 7.25 2.902344 Z M 14.125 4.136719 L 14.125 8.121094 C 14.125 8.597656 13.757812 9 13.28125 9 L 9.867188 9 C 9.390625 9 9 8.597656 9 8.121094 L 9 2.859375 C 9 2.382812 9.390625 2 9.867188 2 L 13.28125 2 C 13.757812 2 14.125 2.382812 14.125 2.859375 Z M 14.125 4.136719 "/>
</g>
</svg>
