
<svg xmlns="http://www.w3.org/2000/svg" xmlns:xlink="http://www.w3.org/1999/xlink" width="24px" height="24px" viewBox="0 0 24 24" version="1.1">
<g id="surface1">
<path style=" stroke:none;fill-rule:nonzero;fill:rgb(32.156864%,60.784316%,72.941178%);fill-opacity:1;" d="M 11.699219 8.851562 L 9.148438 8.851562 L 9.148438 16.5 L 7.273438 16.5 L 7.273438 8.851562 L 4.726562 8.851562 L 4.726562 7.5 L 11.625 7.5 L 11.625 8.851562 Z M 17.476562 14.175781 C 17.476562 13.800781 17.324219 13.574219 17.101562 13.351562 C 16.875 13.125 16.425781 12.976562 15.824219 12.75 C 14.773438 12.449219 13.949219 12.074219 13.351562 11.625 C 12.824219 11.175781 12.523438 10.648438 12.523438 9.898438 C 12.523438 9.148438 12.824219 8.550781 13.5 8.101562 C 14.101562 7.648438 14.925781 7.425781 15.898438 7.425781 C 16.875 7.425781 17.699219 7.726562 18.300781 8.25 C 18.898438 8.773438 19.199219 9.449219 19.199219 10.199219 L 17.476562 10.199219 C 17.476562 9.75 17.324219 9.449219 17.023438 9.148438 C 16.726562 8.925781 16.351562 8.773438 15.824219 8.773438 C 15.375 8.773438 15 8.851562 14.699219 9.074219 C 14.398438 9.300781 14.324219 9.601562 14.324219 9.898438 C 14.324219 10.199219 14.476562 10.425781 14.773438 10.648438 C 15.074219 10.875 15.523438 11.023438 16.273438 11.25 C 17.25 11.550781 18 11.925781 18.523438 12.375 C 19.050781 12.824219 19.273438 13.425781 19.273438 14.175781 C 19.273438 14.925781 18.976562 15.601562 18.375 15.976562 C 17.773438 16.425781 16.949219 16.648438 15.976562 16.648438 C 15 16.648438 14.101562 16.425781 13.425781 15.898438 C 12.75 15.375 12.300781 14.699219 12.375 13.726562 L 14.175781 13.726562 C 14.175781 14.25 14.324219 14.625 14.699219 14.925781 C 15 15.148438 15.523438 15.300781 16.050781 15.300781 C 16.574219 15.300781 16.949219 15.226562 17.175781 15 C 17.324219 14.773438 17.476562 14.476562 17.476562 14.175781 Z M 17.476562 14.175781 "/>
</g>
</svg>
