
<svg xmlns="http://www.w3.org/2000/svg" xmlns:xlink="http://www.w3.org/1999/xlink" width="24px" height="24px" viewBox="0 0 24 24" version="1.1">
<g id="surface1">
<path style=" stroke:none;fill-rule:nonzero;fill:rgb(32.156864%,60.784316%,72.941178%);fill-opacity:1;" d="M 6.09375 5.25 L 17.90625 5.25 C 18.371094 5.25 18.75 5.628906 18.75 6.09375 L 18.75 17.90625 C 18.75 18.371094 18.371094 18.75 17.90625 18.75 L 6.09375 18.75 C 5.628906 18.75 5.25 18.371094 5.25 17.90625 L 5.25 6.09375 C 5.25 5.628906 5.628906 5.25 6.09375 5.25 Z M 12.84375 12.316406 L 12.84375 11.15625 L 8.203125 11.15625 L 8.203125 12.316406 L 9.859375 12.316406 L 9.859375 17.484375 L 11.179688 17.484375 L 11.179688 12.316406 Z M 13.292969 17.542969 C 13.539062 17.671875 13.804688 17.765625 14.082031 17.816406 C 14.386719 17.875 14.707031 17.90625 15.046875 17.90625 C 15.375 17.90625 15.6875 17.871094 15.980469 17.804688 C 16.277344 17.738281 16.535156 17.628906 16.761719 17.476562 C 16.984375 17.320312 17.164062 17.117188 17.289062 16.875 C 17.417969 16.628906 17.484375 16.320312 17.484375 15.957031 C 17.484375 15.695312 17.445312 15.460938 17.371094 15.265625 C 17.300781 15.070312 17.191406 14.890625 17.050781 14.734375 C 16.902344 14.574219 16.734375 14.433594 16.546875 14.316406 C 16.335938 14.1875 16.113281 14.070312 15.886719 13.96875 C 15.703125 13.890625 15.542969 13.8125 15.402344 13.738281 C 15.273438 13.675781 15.152344 13.597656 15.035156 13.511719 C 14.945312 13.445312 14.867188 13.359375 14.804688 13.265625 C 14.75 13.179688 14.722656 13.078125 14.722656 12.972656 C 14.722656 12.871094 14.746094 12.78125 14.796875 12.703125 C 14.847656 12.617188 14.917969 12.546875 15.003906 12.496094 C 15.089844 12.4375 15.199219 12.390625 15.328125 12.359375 C 15.457031 12.328125 15.597656 12.3125 15.757812 12.3125 C 16.144531 12.316406 16.527344 12.402344 16.878906 12.566406 C 17 12.625 17.109375 12.691406 17.214844 12.765625 L 17.214844 11.40625 C 16.996094 11.320312 16.765625 11.257812 16.53125 11.21875 C 16.25 11.175781 15.964844 11.15625 15.679688 11.15625 C 15.351562 11.15625 15.046875 11.195312 14.753906 11.269531 C 14.460938 11.34375 14.207031 11.460938 13.984375 11.617188 C 13.761719 11.773438 13.582031 11.980469 13.457031 12.21875 C 13.328125 12.464844 13.265625 12.757812 13.265625 13.097656 C 13.265625 13.53125 13.382812 13.898438 13.617188 14.207031 C 13.855469 14.511719 14.214844 14.773438 14.691406 14.984375 C 14.882812 15.066406 15.058594 15.148438 15.21875 15.226562 C 15.382812 15.304688 15.523438 15.386719 15.644531 15.472656 C 15.761719 15.554688 15.855469 15.648438 15.925781 15.75 C 15.992188 15.851562 16.027344 15.96875 16.027344 16.089844 C 16.027344 16.28125 15.929688 16.460938 15.765625 16.5625 C 15.679688 16.621094 15.570312 16.667969 15.441406 16.699219 C 15.292969 16.738281 15.136719 16.753906 14.984375 16.75 C 14.683594 16.75 14.382812 16.695312 14.101562 16.585938 C 13.804688 16.46875 13.527344 16.300781 13.292969 16.085938 Z M 13.292969 17.542969 "/>
</g>
</svg>
