
<svg xmlns="http://www.w3.org/2000/svg" xmlns:xlink="http://www.w3.org/1999/xlink" width="16px" height="16px" viewBox="0 0 16 16" version="1.1">
<g id="surface1">
<path style=" stroke:none;fill-rule:nonzero;fill:rgb(0%,0%,0%);fill-opacity:1;" d="M 11.847656 10.875 C 11.640625 10.9375 11.425781 10.96875 11.207031 10.964844 C 9.277344 10.964844 6.445312 4.222656 6.445312 1.976562 C 6.445312 1.152344 6.640625 0.875 6.917969 0.640625 C 4.554688 0.914062 1.722656 1.78125 0.816406 2.890625 C 0.625 3.160156 0.5 3.589844 0.5 4.140625 C 0.5 7.640625 4.238281 15.597656 6.875 15.597656 C 8.097656 15.597656 10.152344 13.597656 11.847656 10.875 "/>
<path style=" stroke:none;fill-rule:nonzero;fill:rgb(0%,0%,0%);fill-opacity:1;" d="M 10.617188 0.402344 C 13.058594 0.402344 15.5 0.796875 15.5 2.171875 C 15.5 4.96875 13.726562 8.355469 12.824219 8.355469 C 11.207031 8.355469 9.199219 3.867188 9.199219 1.621094 C 9.199219 0.597656 9.589844 0.402344 10.613281 0.402344 "/>
</g>
</svg>
