
<svg xmlns="http://www.w3.org/2000/svg" xmlns:xlink="http://www.w3.org/1999/xlink" width="16px" height="16px" viewBox="0 0 16 16" version="1.1">
<g id="surface1">
<path style=" stroke:none;fill-rule:nonzero;fill:rgb(86.666667%,28.235295%,7.843138%);fill-opacity:1;" d="M 8 0.40625 C 3.804688 0.40625 0.40625 3.804688 0.40625 8 C 0.40625 12.195312 3.804688 15.59375 8 15.59375 C 12.195312 15.59375 15.59375 12.195312 15.59375 8 C 15.59375 3.804688 12.195312 0.40625 8 0.40625 Z M 9.703125 3.019531 C 9.984375 2.535156 10.605469 2.371094 11.089844 2.648438 C 11.574219 2.929688 11.738281 3.550781 11.460938 4.035156 C 11.179688 4.519531 10.558594 4.683594 10.074219 4.40625 C 9.589844 4.125 9.425781 3.503906 9.703125 3.019531 Z M 8 3.59375 C 8.40625 3.59375 8.800781 3.652344 9.175781 3.753906 C 9.242188 4.164062 9.484375 4.539062 9.871094 4.761719 C 10.253906 4.984375 10.699219 5.003906 11.085938 4.859375 C 11.835938 5.597656 12.324219 6.597656 12.394531 7.714844 L 10.949219 7.738281 C 10.816406 6.222656 9.546875 5.039062 8 5.039062 C 7.554688 5.039062 7.132812 5.136719 6.753906 5.3125 L 6.046875 4.050781 C 6.636719 3.761719 7.300781 3.59375 8 3.59375 Z M 2.835938 9.015625 C 2.277344 9.015625 1.820312 8.558594 1.820312 8 C 1.820312 7.441406 2.277344 6.984375 2.835938 6.984375 C 3.394531 6.984375 3.851562 7.441406 3.851562 8 C 3.851562 8.558594 3.394531 9.015625 2.835938 9.015625 Z M 3.734375 9.105469 C 4.054688 8.84375 4.261719 8.445312 4.261719 8 C 4.261719 7.554688 4.054688 7.15625 3.734375 6.894531 C 4.007812 5.835938 4.667969 4.929688 5.554688 4.335938 L 6.296875 5.578125 C 5.535156 6.113281 5.039062 6.996094 5.039062 8 C 5.039062 9.003906 5.535156 9.886719 6.296875 10.421875 L 5.554688 11.664062 C 4.667969 11.070312 4.007812 10.164062 3.734375 9.105469 Z M 11.089844 13.351562 C 10.605469 13.628906 9.984375 13.464844 9.703125 12.980469 C 9.425781 12.492188 9.589844 11.875 10.074219 11.59375 C 10.558594 11.3125 11.179688 11.480469 11.460938 11.964844 C 11.738281 12.449219 11.574219 13.070312 11.089844 13.351562 Z M 11.085938 11.140625 C 10.699219 10.996094 10.253906 11.015625 9.871094 11.238281 C 9.484375 11.460938 9.242188 11.835938 9.175781 12.246094 C 8.800781 12.347656 8.40625 12.40625 8 12.40625 C 7.300781 12.40625 6.636719 12.238281 6.046875 11.949219 L 6.753906 10.6875 C 7.132812 10.863281 7.554688 10.960938 8 10.960938 C 9.546875 10.960938 10.816406 9.777344 10.949219 8.261719 L 12.394531 8.285156 C 12.324219 9.402344 11.835938 10.402344 11.085938 11.140625 Z M 11.085938 11.140625 "/>
</g>
</svg>
