
<svg xmlns="http://www.w3.org/2000/svg" xmlns:xlink="http://www.w3.org/1999/xlink" width="16px" height="16px" viewBox="0 0 16 16" version="1.1">
<g id="surface1">
<path style=" stroke:none;fill-rule:nonzero;fill:rgb(0%,0%,0%);fill-opacity:1;" d="M 15.3125 2.988281 L 15.3125 1.601562 L 11.988281 3.535156 L 11.988281 4.703125 L 9.328125 10.445312 L 8 11.359375 L 8 15.5625 L 10.851562 13.917969 Z M 15.3125 2.988281 "/>
<path style=" stroke:none;fill-rule:nonzero;fill:rgb(0%,0%,0%);fill-opacity:1;" d="M 8 8.367188 L 6.003906 3.714844 L 6.003906 2.398438 L 5.992188 2.390625 L 4.011719 3.535156 L 4.011719 4.703125 L 6.671875 10.695312 L 8 10.039062 Z M 8 8.367188 "/>
<path style=" stroke:none;fill-rule:nonzero;fill:rgb(0%,0%,0%);fill-opacity:1;" d="M 13.320312 0.4375 L 9.996094 2.386719 L 9.992188 2.382812 L 9.992188 3.714844 L 8 8.367188 L 8 9.921875 L 6.671875 10.695312 L 4.011719 4.703125 L 4.011719 3.535156 L 6.007812 2.386719 L 2.679688 0.4375 L 0.6875 1.601562 L 0.6875 3.027344 L 5.175781 13.929688 L 8 15.5625 L 8 11.464844 L 9.328125 10.695312 L 9.3125 10.683594 L 11.988281 4.703125 L 11.988281 3.535156 L 15.3125 1.601562 Z M 13.320312 0.4375 "/>
</g>
</svg>
