
<svg xmlns="http://www.w3.org/2000/svg" xmlns:xlink="http://www.w3.org/1999/xlink" width="24px" height="24px" viewBox="0 0 24 24" version="1.1">
<g id="surface1">
<path style=" stroke:none;fill-rule:nonzero;fill:rgb(0%,0%,0%);fill-opacity:1;" d="M 12.898438 9.601562 C 13.574219 9.601562 14.175781 9.675781 14.773438 9.824219 C 14.925781 9.898438 15 9.898438 15.148438 9.976562 C 16.050781 10.425781 16.125 11.25 15.824219 11.925781 C 15.675781 12.375 15.300781 12.675781 15 12.976562 C 14.398438 13.5 13.726562 13.875 13.050781 14.324219 C 12.523438 14.699219 11.925781 15 11.476562 15.449219 C 11.324219 15.601562 11.25 15.75 11.101562 15.898438 C 10.949219 16.125 10.949219 16.425781 11.023438 16.648438 C 11.25 17.101562 11.699219 17.476562 12.226562 17.625 C 12.824219 17.773438 13.273438 17.398438 13.351562 16.800781 L 13.351562 16.5 C 13.351562 16.273438 13.425781 16.125 13.574219 15.976562 C 13.800781 15.824219 14.101562 15.675781 14.398438 15.601562 C 14.773438 15.523438 15.226562 15.449219 15.601562 15.523438 C 15.675781 15.523438 15.75 15.523438 15.824219 15.601562 C 16.199219 15.75 16.273438 15.976562 16.199219 16.351562 C 15.976562 17.25 15.523438 17.925781 14.851562 18.523438 C 14.25 19.050781 13.574219 19.351562 12.824219 19.425781 C 12.226562 19.5 11.625 19.425781 11.023438 19.199219 C 9.074219 18.449219 7.726562 17.023438 7.050781 15 C 6.601562 13.5 7.050781 12.148438 8.25 11.175781 C 9.074219 10.425781 10.125 10.050781 11.175781 9.824219 C 11.476562 9.75 11.773438 9.675781 12.074219 9.675781 C 12.449219 9.601562 12.75 9.601562 12.898438 9.601562 Z M 13.875 7.425781 C 13.949219 6.375 14.398438 5.398438 15.449219 4.800781 C 16.050781 4.5 16.648438 4.425781 17.25 4.574219 C 17.925781 4.726562 18.148438 5.101562 18.074219 5.773438 C 18 6.226562 17.773438 6.601562 17.550781 6.898438 C 17.101562 7.5 16.648438 8.101562 15.976562 8.476562 C 15.675781 8.699219 15.375 8.851562 15 8.925781 C 14.550781 9 14.175781 8.851562 14.023438 8.398438 C 13.949219 8.175781 13.875 7.875 13.875 7.425781 Z M 12.824219 6.148438 C 12.824219 6.824219 12.675781 7.425781 12.300781 7.949219 C 12.226562 8.101562 12.148438 8.175781 12 8.25 C 11.773438 8.476562 11.476562 8.476562 11.25 8.25 C 11.023438 8.023438 10.949219 7.800781 10.875 7.574219 C 10.726562 7.050781 10.648438 6.523438 10.800781 5.925781 C 10.949219 5.398438 11.324219 5.101562 11.925781 5.101562 C 12.300781 5.101562 12.601562 5.25 12.675781 5.550781 C 12.75 5.625 12.75 5.699219 12.75 5.773438 C 12.75 5.925781 12.75 6 12.824219 6.148438 Z M 9.75 7.726562 C 9.75 8.101562 9.75 8.476562 9.523438 8.773438 C 9.375 9.148438 9.074219 9.226562 8.699219 8.925781 C 8.25 8.550781 8.023438 8.101562 7.949219 7.574219 L 7.949219 7.050781 C 8.023438 6.601562 8.398438 6.226562 8.851562 6.226562 C 9.074219 6.226562 9.300781 6.300781 9.449219 6.523438 C 9.675781 6.824219 9.75 7.125 9.75 7.5 Z M 7.648438 9.898438 C 7.648438 10.050781 7.574219 10.273438 7.5 10.425781 C 7.425781 10.648438 7.273438 10.726562 7.050781 10.648438 C 6.976562 10.648438 6.976562 10.648438 6.898438 10.574219 C 6.300781 10.351562 5.851562 9.523438 5.851562 8.925781 C 5.851562 8.550781 6.148438 8.25 6.449219 8.101562 C 6.675781 8.023438 6.898438 8.101562 7.125 8.324219 C 7.425781 8.625 7.5 9.074219 7.574219 9.449219 C 7.648438 9.675781 7.648438 9.75 7.648438 9.898438 Z M 7.648438 9.898438 "/>
</g>
</svg>
