
<svg xmlns="http://www.w3.org/2000/svg" xmlns:xlink="http://www.w3.org/1999/xlink" width="24px" height="24px" viewBox="0 0 24 24" version="1.1">
<g id="surface1">
<path style=" stroke:none;fill-rule:nonzero;fill:rgb(0%,0%,0%);fill-opacity:1;" d="M 5.25 5.25 L 5.25 18.75 L 18.75 18.75 L 18.75 5.25 L 13.5 5.25 C 13.5 6 12.75 6.75 12 6.75 C 11.25 6.75 10.5 6 10.5 5.25 Z M 9.148438 12.75 L 10.050781 12.75 L 10.726562 15.335938 L 11.398438 12.75 L 12.074219 12.75 L 12.75 15.335938 L 13.425781 12.75 L 14.324219 12.75 L 13.199219 17.25 L 12.414062 17.25 L 11.738281 14.324219 C 11.511719 15.382812 11.363281 16.214844 11.0625 17.25 L 10.273438 17.25 Z M 15.113281 12.75 L 16.460938 12.75 L 17.585938 17.25 L 16.574219 17.25 L 16.351562 16.125 L 15.226562 16.125 L 15 17.25 L 13.988281 17.25 L 15.113281 12.75 M 15.898438 13.648438 L 15.675781 13.648438 L 15.335938 15.335938 L 16.238281 15.335938 Z M 15.898438 13.648438 "/>
</g>
</svg>
