
<svg xmlns="http://www.w3.org/2000/svg" xmlns:xlink="http://www.w3.org/1999/xlink" width="24px" height="24px" viewBox="0 0 24 24" version="1.1">
<g id="surface1">
<path style=" stroke:none;fill-rule:nonzero;fill:rgb(13.725491%,12.156863%,12.54902%);fill-opacity:1;" d="M 18 16.050781 L 12 19.5 L 12 16.800781 L 15.75 14.699219 Z M 18.449219 15.675781 L 18.449219 8.476562 L 16.199219 9.75 L 16.199219 14.398438 Z M 5.398438 16.050781 L 11.476562 19.5 L 11.476562 16.800781 L 7.726562 14.699219 Z M 4.949219 15.675781 L 4.949219 8.476562 L 7.199219 9.75 L 7.199219 14.398438 Z M 5.175781 8.023438 L 11.398438 4.5 L 11.398438 7.050781 L 7.425781 9.226562 Z M 18.226562 8.023438 L 12 4.5 L 12 7.050781 L 15.976562 9.226562 Z M 11.398438 16.199219 L 7.648438 14.175781 L 7.648438 10.125 L 11.398438 12.300781 Z M 12 16.199219 L 15.75 14.175781 L 15.75 10.125 L 12 12.300781 Z M 7.949219 9.601562 L 11.699219 7.574219 L 15.449219 9.601562 L 11.699219 11.773438 Z M 7.949219 9.601562 "/>
</g>
</svg>
