
<svg xmlns="http://www.w3.org/2000/svg" xmlns:xlink="http://www.w3.org/1999/xlink" width="16px" height="16px" viewBox="0 0 16 16" version="1.1">
<g id="surface1">
<path style=" stroke:none;fill-rule:nonzero;fill:rgb(15.294118%,53.333336%,70.980394%);fill-opacity:1;" d="M 9.453125 14.125 C 9.609375 13.925781 9.796875 13.710938 10.015625 13.457031 L 10.128906 13.332031 C 10.265625 13.171875 10.378906 13.050781 10.488281 12.929688 C 10.757812 12.644531 11.007812 12.34375 11.238281 12.023438 C 11.578125 11.5625 11.796875 11.214844 11.761719 10.621094 C 11.742188 10.316406 11.730469 10.105469 11.53125 9.859375 C 11.347656 9.652344 11.15625 9.457031 10.953125 9.269531 C 10.703125 9.019531 10.476562 8.789062 10.171875 8.472656 C 9.871094 8.160156 9.484375 7.363281 9.484375 7.363281 C 9.292969 6.941406 9.160156 6.496094 9.089844 6.039062 L 8.203125 1.5 L 5.683594 1.5 L 4.449219 7.222656 L 3.355469 1.5 L 0.375 1.5 L 3.066406 14.5 L 5.574219 14.5 L 6.824219 8.875 L 7.933594 14.5 L 9.101562 14.5 Z M 9.453125 14.125 "/>
<path style=" stroke:none;fill-rule:nonzero;fill:rgb(15.294118%,53.333336%,70.980394%);fill-opacity:1;" d="M 14.703125 2.273438 C 14.964844 1.96875 15.179688 1.722656 15.359375 1.496094 L 11.359375 1.496094 C 11.121094 1.800781 10.640625 2.386719 10.359375 2.90625 C 10 3.59375 9.699219 4.109375 9.667969 5.375 L 9.683594 5.78125 C 9.683594 6.386719 10.113281 7.273438 10.113281 7.273438 C 10.242188 7.515625 10.390625 7.746094 10.554688 7.964844 L 10.636719 8.070312 C 11.066406 8.570312 11.71875 9.117188 12.011719 9.46875 C 12.347656 9.886719 12.359375 10.273438 12.375 10.578125 C 12.421875 11.398438 12.09375 11.890625 11.738281 12.378906 C 11.195312 13.113281 11 13.25 10.585938 13.726562 C 10.324219 14.03125 10.109375 14.28125 9.929688 14.503906 L 14.0625 14.503906 C 14.386719 14.054688 14.675781 13.585938 14.925781 13.09375 C 15.292969 12.40625 15.59375 11.890625 15.621094 10.625 L 15.609375 10.214844 C 15.609375 9.609375 15.175781 8.726562 15.175781 8.726562 C 15.046875 8.484375 14.898438 8.25 14.734375 8.03125 L 14.652344 7.925781 C 14.222656 7.425781 13.570312 6.882812 13.277344 6.527344 C 12.941406 6.109375 12.933594 5.722656 12.914062 5.417969 C 12.867188 4.601562 13.199219 4.105469 13.550781 3.621094 C 14.097656 2.890625 14.289062 2.75 14.703125 2.273438 Z M 14.703125 2.273438 "/>
</g>
</svg>
