
<svg xmlns="http://www.w3.org/2000/svg" xmlns:xlink="http://www.w3.org/1999/xlink" width="24px" height="24px" viewBox="0 0 24 24" version="1.1">
<g id="surface1">
<path style=" stroke:none;fill-rule:nonzero;fill:rgb(0%,0%,0%);fill-opacity:1;" d="M 11.824219 4.089844 C 11.804688 4.089844 11.78125 4.09375 11.765625 4.105469 C 10.734375 4.734375 9.234375 5.617188 8.878906 6.695312 C 8.765625 7.050781 8.816406 7.183594 8.875 7.46875 C 8.976562 7.816406 9.1875 8.269531 9.421875 8.644531 C 9.574219 8.890625 10.070312 9.535156 10.109375 9.535156 C 10.800781 9.097656 11.542969 8.589844 12.097656 8.039062 L 12.097656 6.195312 C 12.097656 4.632812 12.082031 4.324219 11.992188 4.195312 C 11.957031 4.132812 11.886719 4.089844 11.824219 4.089844 Z M 8.605469 7.199219 C 8.570312 7.199219 8.511719 7.335938 8.480469 7.503906 C 8.390625 7.9375 8.003906 9.476562 7.828125 10.078125 C 7.6875 10.5625 7.640625 11.085938 7.71875 11.21875 C 7.78125 11.316406 8.804688 11.6875 10.269531 12.140625 C 10.976562 12.359375 11.089844 12.355469 11.234375 12.105469 C 11.453125 11.71875 11.484375 11.789062 10.117188 9.917969 C 9.039062 8.445312 8.894531 8.195312 8.75 7.535156 C 8.707031 7.351562 8.644531 7.199219 8.605469 7.199219 Z M 16.066406 7.652344 C 16.007812 7.648438 15.949219 7.652344 15.894531 7.660156 C 15.453125 7.710938 13.867188 7.816406 13.246094 7.835938 C 12.738281 7.855469 12.226562 7.96875 12.125 8.085938 C 12.050781 8.175781 12.015625 9.261719 12.035156 10.792969 C 12.046875 11.539062 12.085938 11.644531 12.371094 11.703125 C 12.800781 11.789062 12.75 11.84375 14.101562 9.964844 C 15.171875 8.484375 15.363281 8.269531 15.945312 7.925781 C 16.109375 7.828125 16.234375 7.722656 16.222656 7.6875 C 16.214844 7.664062 16.152344 7.652344 16.066406 7.652344 Z M 16.785156 7.789062 C 16.414062 7.792969 16.300781 7.882812 16.046875 8.027344 C 15.75 8.230469 15.382812 8.570312 15.097656 8.910156 C 14.910156 9.128906 14.453125 9.800781 14.464844 9.839844 C 15.097656 10.359375 15.808594 10.90625 16.5 11.265625 L 18.257812 10.695312 C 19.742188 10.214844 20.03125 10.101562 20.125 9.980469 C 20.171875 9.925781 20.191406 9.847656 20.171875 9.785156 C 20.167969 9.765625 20.15625 9.746094 20.140625 9.734375 C 19.222656 8.949219 17.921875 7.792969 16.785156 7.789062 Z M 4.066406 10.113281 C 4.03125 10.113281 4.003906 10.117188 3.980469 10.125 C 3.910156 10.136719 3.847656 10.191406 3.828125 10.25 C 3.820312 10.273438 3.820312 10.292969 3.820312 10.3125 C 4.105469 11.484375 4.476562 13.1875 5.394531 13.855469 C 5.699219 14.074219 5.839844 14.066406 6.128906 14.097656 C 6.492188 14.109375 6.988281 14.050781 7.417969 13.945312 C 7.695312 13.875 8.464844 13.601562 8.476562 13.5625 C 8.273438 12.769531 8.019531 11.910156 7.667969 11.210938 L 5.914062 10.640625 C 4.660156 10.234375 4.25 10.113281 4.066406 10.113281 Z M 16.441406 11.3125 C 16.234375 11.3125 15.230469 11.605469 13.871094 12.066406 C 13.164062 12.308594 13.078125 12.378906 13.109375 12.664062 C 13.15625 13.101562 13.089844 13.070312 15.296875 13.777344 C 17.035156 14.335938 17.296875 14.453125 17.804688 14.898438 C 17.949219 15.027344 18.089844 15.109375 18.117188 15.089844 C 18.148438 15.066406 18.113281 14.921875 18.042969 14.765625 C 17.859375 14.367188 17.265625 12.890625 17.054688 12.304688 C 16.882812 11.828125 16.617188 11.375 16.472656 11.316406 C 16.464844 11.3125 16.453125 11.3125 16.441406 11.3125 Z M 10.910156 13.074219 C 10.65625 13.074219 10.148438 13.246094 8.84375 13.675781 C 7.109375 14.246094 6.828125 14.304688 6.15625 14.242188 C 5.964844 14.222656 5.800781 14.238281 5.789062 14.269531 C 5.78125 14.304688 5.890625 14.402344 6.039062 14.488281 C 6.425781 14.703125 7.769531 15.550781 8.285156 15.898438 C 8.707031 16.183594 9.1875 16.394531 9.339844 16.355469 C 9.449219 16.328125 10.117188 15.46875 11 14.21875 C 11.429688 13.609375 11.460938 13.503906 11.265625 13.289062 C 11.144531 13.15625 11.085938 13.074219 10.910156 13.074219 Z M 12.59375 13.609375 C 12.539062 13.609375 12.484375 13.628906 12.417969 13.65625 C 12.019531 13.839844 12.03125 13.765625 12.039062 16.082031 C 12.042969 17.90625 12.015625 18.195312 11.746094 18.8125 C 11.667969 18.988281 11.632812 19.148438 11.660156 19.167969 C 11.691406 19.191406 11.820312 19.113281 11.945312 19 C 12.269531 18.699219 13.488281 17.679688 13.980469 17.296875 C 14.382812 16.988281 14.730469 16.59375 14.742188 16.4375 C 14.75 16.324219 14.140625 15.425781 13.222656 14.195312 C 12.886719 13.75 12.75 13.601562 12.59375 13.609375 Z M 15.535156 14.082031 C 15.53125 14.082031 15.53125 14.082031 15.527344 14.082031 C 15.226562 14.84375 14.925781 15.6875 14.800781 16.460938 L 15.882812 17.953125 C 16.800781 19.21875 16.996094 19.457031 17.144531 19.507812 C 17.207031 19.539062 17.289062 19.53125 17.339844 19.492188 C 17.359375 19.480469 17.375 19.464844 17.382812 19.449219 C 17.84375 18.332031 18.539062 16.738281 18.195312 15.65625 C 18.074219 15.304688 17.957031 15.226562 17.738281 15.027344 C 17.457031 14.808594 17.019531 14.5625 16.609375 14.398438 C 16.351562 14.292969 15.609375 14.074219 15.535156 14.082031 Z M 10.558594 16.355469 C 10.136719 16.355469 9.71875 16.378906 9.332031 16.4375 L 8.246094 17.929688 C 7.328125 19.195312 7.160156 19.453125 7.15625 19.609375 C 7.148438 19.679688 7.179688 19.753906 7.230469 19.792969 C 7.25 19.804688 7.269531 19.816406 7.289062 19.820312 C 8.492188 19.910156 10.222656 20.082031 11.144531 19.417969 C 11.445312 19.195312 11.484375 19.058594 11.601562 18.792969 C 11.722656 18.453125 11.820312 17.960938 11.851562 17.519531 C 11.875 17.234375 11.847656 16.417969 11.820312 16.398438 C 11.410156 16.371094 10.980469 16.351562 10.558594 16.355469 Z M 10.558594 16.355469 "/>
</g>
</svg>
