
<svg xmlns="http://www.w3.org/2000/svg" xmlns:xlink="http://www.w3.org/1999/xlink" width="16px" height="16px" viewBox="0 0 16 16" version="1.1">
<g id="surface1">
<path style=" stroke:none;fill-rule:nonzero;fill:rgb(49.411765%,32.549021%,64.313728%);fill-opacity:1;" d="M 13.574219 5.863281 C 13.289062 5.835938 12.738281 5.988281 12.488281 7.210938 C 12.488281 7.949219 12.664062 8.398438 12.9375 8.5625 C 13.449219 8.710938 14.050781 8.023438 14.050781 7.289062 C 14.074219 6.773438 14.101562 6.136719 13.574219 5.863281 Z M 13.574219 5.863281 "/>
<path style=" stroke:none;fill-rule:nonzero;fill:rgb(49.411765%,32.549021%,64.313728%);fill-opacity:1;" d="M 14.539062 3.226562 L 1.460938 3.226562 C 0.648438 3.226562 0 3.875 0 4.675781 L 0 9.675781 C 0 10.476562 0.648438 11.136719 1.460938 11.136719 L 14.550781 11.136719 C 15.351562 11.136719 16.011719 10.488281 16.011719 9.675781 L 16.011719 4.675781 C 16 3.875 15.351562 3.226562 14.539062 3.226562 Z M 5.5 10 C 5.5 10 4.636719 8.863281 4.4375 8 C 4.238281 7.148438 4.1875 7.539062 4.1875 7.539062 C 4.1875 7.539062 3.5 9.085938 2.789062 10.074219 C 2.074219 11.0625 1.726562 9.585938 1.726562 9.585938 C 1.476562 9.289062 0.761719 4.925781 0.761719 4.925781 C 1.164062 3.8125 1.851562 4.726562 1.851562 4.726562 L 2.539062 8.273438 C 2.539062 8.273438 3.601562 6.101562 3.960938 5.539062 C 4.3125 4.976562 4.925781 5.136719 4.976562 5.710938 C 5.023438 6.300781 5.613281 7.886719 5.613281 7.886719 C 5.664062 6.210938 6.351562 4.613281 6.449219 4.363281 C 6.550781 4.113281 7.664062 3.800781 7.460938 4.875 C 6.976562 6.0625 6.5 8.574219 6.625 9.949219 C 6.289062 10.988281 5.5 10 5.5 10 Z M 9.988281 9.4375 C 9.664062 9.585938 8.449219 10.425781 7.585938 8.550781 C 7.050781 6.664062 8.25 5.273438 8.25 5.273438 C 8.25 5.273438 9.8125 3.9375 10.875 5.710938 C 11.738281 7.664062 10.3125 9.289062 9.988281 9.4375 Z M 13.960938 9.4375 C 13.636719 9.585938 12.425781 10.425781 11.5625 8.550781 C 11.023438 6.664062 12.226562 5.273438 12.226562 5.273438 C 12.226562 5.273438 13.800781 3.925781 14.863281 5.699219 C 15.726562 7.664062 14.289062 9.289062 13.960938 9.4375 Z M 13.960938 9.4375 "/>
<path style=" stroke:none;fill-rule:nonzero;fill:rgb(49.411765%,32.549021%,64.313728%);fill-opacity:1;" d="M 9.585938 5.863281 C 9.300781 5.835938 8.75 5.988281 8.5 7.210938 C 8.5 7.949219 8.675781 8.398438 8.949219 8.5625 C 9.460938 8.710938 10.0625 8.023438 10.0625 7.289062 C 10.101562 6.773438 10.125 6.136719 9.585938 5.863281 Z M 9.585938 5.863281 "/>
<path style=" stroke:none;fill-rule:nonzero;fill:rgb(49.411765%,32.549021%,64.313728%);fill-opacity:1;" d="M 7.664062 11.136719 L 10.449219 12.773438 L 9.863281 11.136719 L 8.261719 10.6875 Z M 7.664062 11.136719 "/>
</g>
</svg>
