
<svg xmlns="http://www.w3.org/2000/svg" xmlns:xlink="http://www.w3.org/1999/xlink" width="24px" height="24px" viewBox="0 0 24 24" version="1.1">
<g id="surface1">
<path style=" stroke:none;fill-rule:nonzero;fill:rgb(0%,0%,0%);fill-opacity:1;" d="M 19.5 8.550781 L 19.5 6.601562 C 19.5 6.300781 19.273438 6 18.898438 6 L 13.425781 6 L 13.425781 4.648438 L 12.375 4.648438 C 12.226562 4.648438 12.148438 4.726562 12 4.726562 C 11.476562 4.800781 10.949219 4.949219 10.425781 5.023438 C 9.898438 5.101562 9.375 5.175781 8.925781 5.324219 C 8.398438 5.398438 7.875 5.476562 7.273438 5.625 C 6.675781 5.699219 6.148438 5.773438 5.625 5.851562 C 5.25 5.925781 4.875 6 4.574219 6 L 4.5 6 L 4.5 17.925781 C 5.101562 18 5.699219 18.148438 6.300781 18.226562 C 6.898438 18.300781 7.574219 18.449219 8.175781 18.523438 C 8.773438 18.601562 9.375 18.75 9.976562 18.824219 C 10.574219 18.898438 11.25 19.050781 11.851562 19.199219 C 12.074219 19.273438 12.375 19.273438 12.601562 19.273438 L 13.273438 19.273438 L 13.273438 18 C 13.273438 17.925781 13.273438 17.925781 13.351562 17.925781 L 18.824219 17.925781 C 18.898438 17.925781 19.050781 17.925781 19.125 17.851562 C 19.273438 17.851562 19.351562 17.773438 19.351562 17.625 C 19.351562 17.476562 19.425781 17.398438 19.425781 17.25 L 19.425781 8.550781 C 19.5 8.625 19.5 8.625 19.5 8.550781 Z M 11.25 9.675781 L 10.574219 12.601562 C 10.425781 13.125 10.351562 13.648438 10.199219 14.25 C 10.199219 14.324219 10.125 14.324219 10.125 14.324219 C 9.976562 14.398438 9.824219 14.324219 9.675781 14.324219 L 9.226562 14.324219 C 9.148438 14.324219 9.148438 14.324219 9.148438 14.25 C 9.074219 13.800781 8.925781 13.273438 8.851562 12.824219 C 8.699219 12.226562 8.625 11.625 8.476562 11.023438 C 8.476562 11.175781 8.398438 11.324219 8.398438 11.476562 L 7.949219 13.726562 C 7.949219 13.875 7.875 14.101562 7.875 14.25 C 7.875 14.324219 7.875 14.324219 7.800781 14.324219 C 7.5 14.324219 7.199219 14.25 6.898438 14.25 C 6.824219 14.25 6.824219 14.25 6.824219 14.175781 C 6.601562 12.976562 6.375 11.773438 6.074219 10.5 C 6 10.273438 6 9.976562 5.925781 9.75 L 5.925781 9.675781 L 6.824219 9.675781 C 6.976562 10.726562 7.199219 11.773438 7.351562 12.898438 C 7.351562 12.75 7.425781 12.601562 7.425781 12.449219 C 7.648438 11.550781 7.800781 10.574219 8.023438 9.675781 C 8.023438 9.601562 8.023438 9.601562 8.101562 9.601562 L 8.851562 9.601562 C 9 9.601562 9 9.601562 9.074219 9.75 C 9.300781 10.800781 9.523438 11.851562 9.75 12.976562 L 9.75 13.050781 C 9.824219 12.449219 9.976562 11.851562 10.050781 11.25 C 10.125 10.726562 10.273438 10.125 10.351562 9.601562 C 10.351562 9.601562 10.351562 9.523438 10.425781 9.523438 C 10.726562 9.523438 11.023438 9.523438 11.398438 9.449219 L 11.476562 9.449219 C 11.324219 9.449219 11.25 9.601562 11.25 9.675781 Z M 18.976562 6.601562 C 18.976562 6.601562 18.976562 6.675781 18.976562 6.601562 L 18.976562 17.476562 L 13.351562 17.476562 L 13.351562 16.125 L 17.773438 16.125 L 17.773438 15.449219 L 13.5 15.449219 C 13.425781 15.449219 13.425781 15.449219 13.425781 15.375 L 13.425781 14.699219 C 13.425781 14.625 13.425781 14.625 13.5 14.625 L 17.851562 14.625 L 17.851562 13.949219 L 13.425781 13.949219 L 13.425781 13.125 L 17.773438 13.125 C 17.851562 13.125 17.851562 13.125 17.851562 13.050781 L 17.851562 12.523438 C 17.851562 12.449219 17.851562 12.449219 17.773438 12.449219 L 13.5 12.449219 C 13.425781 12.449219 13.425781 12.449219 13.425781 12.375 L 13.425781 11.625 L 17.851562 11.625 L 17.851562 10.949219 L 13.574219 10.949219 C 13.5 10.949219 13.5 10.949219 13.5 10.875 L 13.5 10.199219 C 13.5 10.125 13.5 10.125 13.574219 10.125 L 17.851562 10.125 L 17.851562 9.449219 L 13.425781 9.449219 L 13.425781 8.550781 L 17.773438 8.550781 C 17.851562 8.550781 17.851562 8.550781 17.851562 8.476562 L 17.851562 7.949219 C 17.851562 7.875 17.851562 7.875 17.773438 7.875 L 13.351562 7.875 L 13.351562 6.75 C 13.351562 6.675781 13.351562 6.675781 13.425781 6.675781 L 18.898438 6.675781 C 18.976562 6.523438 18.976562 6.523438 18.976562 6.601562 Z M 18.976562 6.601562 "/>
</g>
</svg>
