
<svg xmlns="http://www.w3.org/2000/svg" xmlns:xlink="http://www.w3.org/1999/xlink" width="16px" height="16px" viewBox="0 0 16 16" version="1.1">
<g id="surface1">
<path style=" stroke:none;fill-rule:evenodd;fill:rgb(28.627452%,28.627452%,28.627452%);fill-opacity:1;" d="M 8.011719 15.777344 C 12.296875 15.773438 15.765625 12.285156 15.765625 7.988281 C 15.765625 3.757812 12.3125 0.273438 8.1875 0.203125 C 3.855469 0.125 0.238281 3.640625 0.234375 7.902344 C 0.234375 12.285156 3.6875 15.785156 8.011719 15.777344 Z M 8 0.578125 C 12.113281 0.578125 15.390625 3.917969 15.386719 8.113281 C 15.386719 12.074219 12.023438 15.386719 8.003906 15.386719 C 3.90625 15.386719 0.613281 12.066406 0.613281 7.9375 C 0.613281 3.910156 3.957031 0.582031 8 0.578125 Z M 4.894531 4.488281 C 4.960938 4.710938 4.773438 4.789062 4.574219 4.804688 C 4.363281 4.820312 4.152344 4.835938 3.90625 4.855469 C 4.714844 7.257812 5.507812 9.628906 6.324219 12.050781 C 6.382812 11.957031 6.40625 11.929688 6.414062 11.898438 C 6.863281 10.5625 7.3125 9.230469 7.746094 7.890625 C 7.785156 7.769531 7.765625 7.605469 7.722656 7.480469 C 7.492188 6.816406 7.21875 6.164062 7.015625 5.492188 C 6.878906 5.03125 6.695312 4.734375 6.148438 4.789062 C 6.054688 4.796875 5.945312 4.597656 5.839844 4.492188 C 5.964844 4.417969 6.089844 4.28125 6.214844 4.277344 C 7.324219 4.261719 8.433594 4.261719 9.542969 4.28125 C 9.671875 4.28125 9.796875 4.421875 9.921875 4.5 C 9.8125 4.601562 9.714844 4.75 9.589844 4.789062 C 9.382812 4.851562 9.152344 4.839844 8.90625 4.863281 C 9.714844 7.265625 10.503906 9.621094 11.324219 12.058594 C 11.691406 10.839844 12.03125 9.722656 12.363281 8.601562 C 12.660156 7.601562 12.484375 6.667969 11.949219 5.789062 C 11.789062 5.523438 11.589844 5.265625 11.5 4.976562 C 11.394531 4.648438 11.308594 4.273438 11.363281 3.945312 C 11.457031 3.386719 11.886719 3.109375 12.464844 3.054688 C 9.292969 0.109375 4.304688 1.164062 2.464844 4.367188 C 3.171875 4.332031 3.847656 4.289062 4.523438 4.28125 C 4.652344 4.277344 4.863281 4.386719 4.894531 4.488281 Z M 6.160156 14.234375 C 6.144531 14.277344 6.144531 14.324219 6.132812 14.394531 C 7.5 14.773438 8.839844 14.746094 10.214844 14.285156 L 8.117188 8.539062 C 7.445312 10.492188 6.800781 12.363281 6.160156 14.234375 Z M 5.101562 13.972656 L 1.941406 5.304688 C 0.515625 8.089844 1.601562 12.339844 5.101562 13.972656 Z M 14.65625 8.402344 C 14.757812 7.085938 14.300781 5.261719 13.910156 5.011719 C 13.867188 5.496094 13.894531 6.035156 13.757812 6.527344 C 13.429688 7.683594 13.03125 8.820312 12.644531 9.960938 C 12.226562 11.199219 11.789062 12.433594 11.363281 13.667969 C 13.375 12.476562 14.480469 10.714844 14.65625 8.402344 Z M 14.65625 8.402344 "/>
</g>
</svg>
