
<svg xmlns="http://www.w3.org/2000/svg" xmlns:xlink="http://www.w3.org/1999/xlink" width="24px" height="24px" viewBox="0 0 24 24" version="1.1">
<g id="surface1">
<path style=" stroke:none;fill-rule:nonzero;fill:rgb(0%,0%,0%);fill-opacity:1;" d="M 19.5 6.976562 L 19.5 17.175781 C 19.5 17.25 19.425781 17.324219 19.425781 17.398438 C 19.273438 17.625 19.050781 17.773438 18.824219 17.773438 L 13.050781 17.773438 L 13.050781 19.273438 C 12.824219 19.199219 12.523438 19.199219 12.300781 19.125 C 11.773438 19.050781 11.175781 18.898438 10.648438 18.824219 C 10.050781 18.75 9.449219 18.601562 8.851562 18.523438 C 8.25 18.449219 7.648438 18.300781 7.050781 18.226562 C 6.523438 18.148438 5.925781 18 5.398438 17.925781 C 5.101562 17.851562 4.875 17.851562 4.574219 17.773438 L 4.574219 6.75 C 4.648438 6.75 4.800781 6.675781 4.875 6.675781 C 5.398438 6.300781 6 6.148438 6.601562 6.074219 C 7.125 6 7.648438 5.851562 8.101562 5.773438 C 8.550781 5.699219 9.074219 5.625 9.523438 5.476562 C 10.050781 5.398438 10.648438 5.25 11.175781 5.175781 C 11.773438 5.101562 12.300781 4.949219 12.898438 4.875 L 12.976562 4.875 L 12.976562 6.300781 L 18.824219 6.300781 C 19.125 6.300781 19.425781 6.523438 19.5 6.824219 Z M 18.898438 6.898438 L 12.976562 6.898438 L 12.976562 7.800781 L 15 7.800781 L 15 9.074219 L 12.976562 9.074219 L 12.976562 9.523438 L 15 9.523438 L 15 10.800781 L 12.976562 10.800781 L 12.976562 11.25 L 15 11.25 L 15 12.523438 L 12.976562 12.523438 L 12.976562 13.050781 L 15.074219 13.050781 L 15.074219 14.324219 L 12.976562 14.324219 L 12.976562 14.773438 L 15 14.773438 L 15 16.050781 L 12.976562 16.050781 L 12.976562 16.949219 L 18.898438 16.949219 Z M 11.023438 15.523438 C 11.023438 15.523438 11.023438 15.449219 10.949219 15.449219 C 10.425781 14.398438 9.824219 13.351562 9.300781 12.300781 L 9.300781 12.148438 C 9.824219 11.101562 10.351562 10.125 10.949219 9.074219 L 10.949219 9 L 10.875 9 C 10.726562 9 10.5 9 10.351562 9.074219 C 10.125 9.074219 9.898438 9.074219 9.601562 9.148438 C 9.523438 9.148438 9.523438 9.148438 9.523438 9.226562 C 9.300781 9.675781 9.148438 10.050781 8.925781 10.5 C 8.773438 10.875 8.625 11.175781 8.476562 11.550781 C 8.398438 11.398438 8.398438 11.175781 8.324219 11.023438 C 8.101562 10.5 7.875 9.898438 7.648438 9.375 C 7.574219 9.226562 7.574219 9.226562 7.425781 9.226562 C 7.125 9.226562 6.824219 9.300781 6.523438 9.300781 L 6.226562 9.300781 L 6.226562 9.375 C 6.300781 9.523438 6.375 9.75 6.449219 9.898438 L 7.574219 12.148438 L 7.574219 12.226562 C 7.125 13.125 6.601562 14.023438 6.148438 14.925781 C 6.148438 15 6.074219 15 6.074219 15.074219 L 6.523438 15.074219 C 6.824219 15.074219 7.050781 15.148438 7.351562 15.148438 C 7.425781 15.148438 7.425781 15.148438 7.425781 15.074219 C 7.648438 14.625 7.875 14.175781 8.101562 13.648438 C 8.175781 13.425781 8.324219 13.199219 8.398438 12.976562 C 8.398438 12.898438 8.398438 12.824219 8.476562 12.75 L 8.476562 12.824219 C 8.550781 12.976562 8.550781 13.125 8.625 13.199219 C 8.925781 13.800781 9.148438 14.398438 9.449219 15.074219 C 9.523438 15.148438 9.523438 15.226562 9.675781 15.226562 C 10.050781 15.226562 10.425781 15.300781 10.800781 15.300781 C 10.875 15.523438 10.949219 15.523438 11.023438 15.523438 Z M 11.023438 15.523438 "/>
<path style=" stroke:none;fill-rule:nonzero;fill:rgb(0%,0%,0%);fill-opacity:1;" d="M 17.925781 7.800781 L 17.925781 9.074219 L 15.601562 9.074219 L 15.601562 7.800781 Z M 15.601562 16.199219 L 15.601562 14.925781 L 17.925781 14.925781 L 17.925781 16.199219 Z M 15.601562 12.675781 L 15.601562 11.398438 L 17.925781 11.398438 L 17.925781 12.675781 Z M 17.925781 9.601562 L 17.925781 10.875 L 15.601562 10.875 L 15.601562 9.601562 Z M 17.925781 13.199219 L 17.925781 14.476562 L 15.601562 14.476562 L 15.601562 13.199219 Z M 17.925781 13.199219 "/>
</g>
</svg>
