
<svg xmlns="http://www.w3.org/2000/svg" xmlns:xlink="http://www.w3.org/1999/xlink" width="24px" height="24px" viewBox="0 0 24 24" version="1.1">
<g id="surface1">
<path style=" stroke:none;fill-rule:nonzero;fill:rgb(93.725491%,46.27451%,13.725491%);fill-opacity:1;" d="M 7.273438 7.199219 C 12.675781 7.125 16.949219 11.851562 16.800781 16.726562 L 14.851562 16.726562 C 14.773438 14.625 14.101562 12.898438 12.675781 11.398438 C 11.25 9.898438 9.375 9.226562 7.351562 9.226562 C 7.273438 8.550781 7.273438 7.875 7.273438 7.199219 Z M 13.726562 16.800781 L 11.773438 16.800781 C 11.699219 16.425781 11.625 15.976562 11.550781 15.601562 C 10.949219 13.800781 9.824219 12.75 7.949219 12.375 C 7.800781 12.300781 7.648438 12.300781 7.425781 12.300781 C 7.273438 12.300781 7.273438 12.226562 7.273438 12.148438 L 7.273438 10.273438 C 8.851562 10.273438 10.199219 10.800781 11.398438 11.773438 C 12.898438 13.125 13.648438 14.773438 13.726562 16.800781 Z M 9.898438 15.449219 C 9.898438 16.199219 9.300781 16.800781 8.550781 16.800781 C 7.800781 16.800781 7.273438 16.199219 7.199219 15.449219 C 7.199219 14.699219 7.800781 14.101562 8.550781 14.101562 C 9.300781 14.101562 9.898438 14.699219 9.898438 15.449219 Z M 9.898438 15.449219 "/>
</g>
</svg>
