
<svg xmlns="http://www.w3.org/2000/svg" xmlns:xlink="http://www.w3.org/1999/xlink" width="24px" height="24px" viewBox="0 0 24 24" version="1.1">
<g id="surface1">
<path style=" stroke:none;fill-rule:nonzero;fill:rgb(0%,0%,0%);fill-opacity:1;" d="M 17.660156 11.199219 C 17.617188 10.90625 17.574219 10.613281 17.53125 10.296875 C 17.460938 10.492188 17.402344 10.648438 17.34375 10.808594 C 17.328125 10.808594 17.316406 10.804688 17.304688 10.804688 C 17.421875 9.445312 17.148438 8.261719 16.261719 7.328125 C 16.246094 7.382812 16.238281 7.410156 16.226562 7.445312 C 16.03125 7.140625 15.789062 6.929688 15.539062 6.710938 C 15.492188 6.898438 15.539062 7.007812 15.640625 7.121094 C 15.996094 7.519531 16.3125 7.964844 16.5625 8.472656 C 16.582031 8.511719 16.597656 8.558594 16.617188 8.601562 C 16.359375 8.164062 16.035156 7.808594 15.726562 7.433594 C 15.316406 6.925781 14.824219 6.601562 14.269531 6.390625 C 14.171875 6.351562 14.070312 6.316406 13.992188 6.289062 C 14.269531 6.5625 14.566406 6.835938 14.839844 7.136719 C 15.175781 7.507812 15.503906 8.039062 15.523438 8.195312 C 15.246094 7.917969 14.953125 7.6875 14.554688 7.65625 C 15.378906 8.542969 15.753906 9.617188 15.667969 10.9375 C 15.554688 10.683594 15.417969 10.480469 15.199219 10.328125 C 15.214844 10.539062 15.230469 10.714844 15.242188 10.890625 C 15.277344 11.359375 15.367188 11.824219 15.28125 12.300781 C 15.242188 12.511719 15.207031 12.726562 15.171875 12.9375 C 15.121094 12.820312 15.074219 12.71875 15.027344 12.609375 C 14.945312 13.003906 14.875 13.371094 14.785156 13.730469 C 14.695312 14.09375 14.546875 14.421875 14.3125 14.683594 C 14.257812 14.742188 14.195312 14.792969 14.132812 14.839844 C 14.109375 14.859375 14.070312 14.847656 14.039062 14.855469 C 14.035156 14.820312 14.035156 14.785156 14.035156 14.75 C 14.035156 14.734375 14.035156 14.71875 14.039062 14.675781 C 13.988281 14.691406 13.941406 14.691406 13.914062 14.71875 C 13.859375 14.773438 13.808594 14.839844 13.765625 14.910156 C 13.664062 15.078125 13.539062 15.207031 13.375 15.308594 C 13.390625 15.226562 13.402344 15.171875 13.414062 15.113281 C 13.285156 15.152344 13.167969 15.199219 13.050781 15.226562 C 12.683594 15.3125 12.320312 15.429688 11.941406 15.351562 C 11.753906 15.3125 11.574219 15.253906 11.433594 15.070312 L 11.78125 15.070312 C 11.742188 15.027344 11.703125 14.992188 11.65625 14.976562 C 11.46875 14.921875 11.277344 14.878906 11.089844 14.816406 C 10.945312 14.765625 10.789062 14.714844 10.660156 14.617188 C 10.515625 14.5 10.386719 14.34375 10.261719 14.191406 C 9.816406 13.660156 9.699219 13.003906 9.78125 12.28125 C 9.820312 11.933594 9.863281 11.574219 10.121094 11.328125 C 9.992188 11.214844 9.851562 11.15625 9.699219 11.148438 C 9.285156 11.132812 8.863281 11.5 8.714844 12.027344 C 8.527344 12.6875 8.675781 13.273438 9.011719 13.8125 C 9.035156 13.851562 9.058594 13.890625 9.085938 13.933594 C 8.628906 13.457031 8.371094 12.558594 8.65625 11.785156 C 9.007812 10.84375 9.902344 10.640625 10.511719 11.363281 C 10.539062 11.398438 10.558594 11.441406 10.59375 11.492188 C 10.695312 11.210938 10.664062 10.785156 10.535156 10.570312 C 10.222656 10.054688 10.074219 9.496094 10.1875 8.855469 C 10.292969 8.226562 10.554688 7.703125 10.933594 7.253906 C 10.960938 7.222656 10.988281 7.1875 11.023438 7.144531 C 10.449219 7 9.828125 7.460938 9.242188 8.425781 C 9.269531 8.238281 9.292969 8.054688 9.320312 7.855469 C 9.265625 7.839844 9.210938 7.820312 9.152344 7.8125 C 8.546875 7.722656 8.007812 7.902344 7.53125 8.371094 C 7.042969 8.855469 6.75 9.488281 6.566406 10.203125 C 6.480469 10.539062 6.402344 10.882812 6.320312 11.226562 C 6.328125 11.226562 6.335938 11.230469 6.34375 11.230469 C 6.386719 11.152344 6.429688 11.066406 6.492188 10.953125 C 6.390625 11.65625 6.332031 12.625 6.367188 13.019531 C 6.402344 12.878906 6.441406 12.738281 6.480469 12.601562 C 6.644531 14.070312 7.097656 15.359375 7.949219 16.429688 C 8.765625 17.449219 10.390625 18.554688 10.988281 18.507812 C 10.917969 18.449219 10.84375 18.386719 10.769531 18.324219 C 10.953125 18.363281 11.121094 18.4375 11.292969 18.488281 C 11.515625 18.558594 11.738281 18.605469 11.960938 18.664062 L 12.3125 18.664062 C 12.257812 18.605469 12.203125 18.550781 12.132812 18.476562 C 12.359375 18.464844 12.5625 18.457031 12.769531 18.4375 C 13.386719 18.378906 13.988281 18.222656 14.578125 17.984375 C 14.976562 17.824219 15.222656 17.46875 15.453125 17.082031 C 15.503906 17 15.566406 16.925781 15.636719 16.882812 C 16.234375 16.480469 16.691406 15.917969 17.027344 15.207031 C 17.199219 14.839844 17.21875 14.457031 17.140625 14.054688 C 17.128906 13.980469 17.132812 13.894531 17.15625 13.828125 C 17.253906 13.539062 17.375 13.261719 17.464844 12.96875 C 17.546875 12.6875 17.601562 12.394531 17.667969 12.109375 C 17.675781 12.089844 17.679688 12.066406 17.6875 12.046875 L 17.6875 11.375 C 17.675781 11.304688 17.667969 11.253906 17.660156 11.199219 Z M 17.660156 11.199219 "/>
<path style=" stroke:none;fill-rule:nonzero;fill:rgb(0%,0%,0%);fill-opacity:1;" d="M 10.003906 12.417969 C 9.886719 13.09375 10.195312 13.90625 10.707031 14.25 C 10.730469 14.269531 10.765625 14.273438 10.792969 14.277344 C 11.378906 14.332031 11.910156 14.175781 12.371094 13.714844 C 12.421875 13.664062 12.484375 13.628906 12.53125 13.570312 C 12.65625 13.421875 12.804688 13.382812 12.980469 13.421875 C 13.117188 13.453125 13.1875 13.355469 13.15625 13.191406 C 13.128906 13.015625 13.039062 12.882812 12.910156 12.800781 C 12.515625 12.550781 12.117188 12.527344 11.71875 12.800781 C 11.621094 12.867188 11.515625 12.925781 11.40625 12.957031 C 11.125 13.039062 10.847656 12.976562 10.589844 12.828125 C 10.386719 12.710938 10.195312 12.554688 10.003906 12.417969 Z M 8.171875 7.488281 C 8.195312 7.460938 8.214844 7.433594 8.238281 7.410156 C 9.597656 5.898438 11.1875 5.339844 13 5.785156 C 13.644531 5.941406 14.269531 6.203125 14.863281 6.40625 C 12.734375 4.671875 9.699219 5.125 7.984375 7.339844 C 8.039062 7.398438 8.09375 7.460938 8.140625 7.515625 C 8.160156 7.5 8.164062 7.496094 8.171875 7.488281 Z M 11.84375 9.28125 C 11.855469 9.109375 11.816406 9.046875 11.675781 9.03125 C 11.445312 9.007812 11.214844 9.003906 10.988281 8.996094 C 10.792969 8.988281 10.597656 8.988281 10.449219 8.789062 C 10.273438 9.246094 10.441406 10.105469 10.746094 10.414062 C 11.015625 10.234375 11.269531 10.046875 11.535156 9.890625 C 11.757812 9.761719 11.828125 9.546875 11.84375 9.28125 Z M 8.011719 7.679688 C 7.742188 7.410156 7.617188 7.074219 7.589844 6.644531 C 7.175781 7.203125 7.0625 7.84375 7.03125 8.53125 C 7.3125 8.175781 7.625 7.875 8.011719 7.679688 Z M 8.011719 7.679688 "/>
</g>
</svg>
