
<svg xmlns="http://www.w3.org/2000/svg" xmlns:xlink="http://www.w3.org/1999/xlink" width="24px" height="24px" viewBox="0 0 24 24" version="1.1">
<g id="surface1">
<path style=" stroke:none;fill-rule:nonzero;fill:rgb(0%,0%,0%);fill-opacity:1;" d="M 9 18.148438 C 8.851562 18.074219 8.773438 18 8.699219 17.851562 C 8.625 17.773438 8.625 17.773438 8.550781 17.851562 C 8.476562 18 8.476562 18.148438 8.398438 18.300781 C 8.175781 19.050781 7.800781 19.273438 7.050781 19.125 C 6.898438 19.125 6.75 19.050781 6.601562 18.976562 C 6.300781 18.824219 6.226562 18.601562 6.375 18.300781 C 6.375 18.226562 6.449219 18.148438 6.449219 18.074219 C 6.148438 18.074219 6 17.925781 5.925781 17.699219 C 5.550781 16.726562 5.625 15.976562 6.375 15.226562 C 6.449219 15.074219 6.523438 15 6.523438 14.851562 C 6.523438 13.875 6.675781 12.976562 7.351562 12.148438 C 7.574219 11.851562 7.875 11.550781 8.25 11.324219 C 8.398438 11.25 8.398438 11.175781 8.324219 11.023438 C 8.023438 10.648438 7.875 10.273438 7.800781 9.824219 C 7.726562 9.449219 7.949219 9.074219 8.101562 8.699219 C 8.175781 8.625 8.25 8.550781 8.324219 8.550781 C 8.625 8.476562 8.851562 8.25 9.074219 8.101562 C 9.601562 7.574219 10.199219 7.351562 10.949219 7.351562 C 11.101562 7.351562 11.175781 7.273438 11.175781 7.199219 C 11.25 6.898438 11.398438 6.601562 11.625 6.300781 L 11.851562 6.074219 C 12 5.925781 12.226562 5.925781 12.300781 6.148438 C 12.523438 6.523438 12.675781 6.898438 12.824219 7.199219 C 12.898438 7.351562 12.976562 7.351562 13.050781 7.273438 C 13.574219 7.050781 13.574219 7.050781 13.726562 7.574219 C 14.101562 9.148438 13.875 10.648438 12.976562 12.074219 C 12.898438 12.226562 12.75 12.375 12.675781 12.523438 C 12.601562 12.675781 12.601562 12.75 12.75 12.898438 C 13.425781 13.5 13.875 14.324219 14.023438 15.226562 C 14.101562 15.75 14.101562 16.351562 14.023438 16.875 C 13.949219 17.175781 14.023438 17.175781 14.25 17.101562 C 14.773438 16.949219 15.300781 16.726562 15.75 16.425781 C 16.273438 16.125 16.726562 15.824219 17.324219 15.75 C 17.550781 15.75 17.699219 15.675781 17.925781 15.75 C 18.148438 15.824219 18.300781 16.050781 18.300781 16.273438 C 18.300781 16.5 18.148438 16.648438 17.925781 16.726562 C 17.175781 16.875 16.5 17.25 15.898438 17.699219 C 15.148438 18.226562 14.25 18.601562 13.425781 18.824219 C 13.351562 18.824219 13.199219 18.898438 13.125 18.976562 C 12.824219 19.199219 12.523438 19.199219 12.148438 19.273438 C 11.324219 19.351562 10.574219 19.425781 9.75 19.425781 C 9.523438 19.425781 9.300781 19.425781 9 19.351562 C 8.773438 19.273438 8.550781 19.125 8.476562 18.898438 C 8.398438 18.601562 8.476562 18.375 8.699219 18.226562 C 8.851562 18.226562 8.925781 18.148438 9 18.148438 Z M 9 18.148438 "/>
</g>
</svg>
