
<svg xmlns="http://www.w3.org/2000/svg" xmlns:xlink="http://www.w3.org/1999/xlink" width="16px" height="16px" viewBox="0 0 16 16" version="1.1">
<g id="surface1">
<path style=" stroke:none;fill-rule:evenodd;fill:rgb(0%,45.09804%,73.333335%);fill-opacity:1;" d="M 13.390625 0.152344 C 11.609375 0.21875 9.445312 2.457031 10.183594 4.542969 C 10.96875 6.617188 11.472656 8.089844 11.578125 10.398438 C 13.460938 8.503906 15.191406 6.449219 15.328125 4.0625 C 15.375 2.125 14.457031 0.695312 13.390625 0.152344 Z M 8.695312 8.75 C 8.425781 9.230469 8.074219 9.75 7.617188 10.316406 C 6.65625 11.527344 5.6875 13.515625 5.984375 15.847656 C 9.957031 15.410156 11.195312 12.425781 11.304688 10.789062 C 10.558594 9.660156 9.199219 8.964844 8.695312 8.75 Z M 0.683594 1.601562 C 0.542969 3.425781 1.324219 6.136719 4.484375 6.996094 C 5.816406 7.390625 6.746094 7.636719 7.757812 8 C 9.234375 8.539062 10.390625 9.222656 11.308594 10.402344 C 11.140625 8.371094 10.300781 6.042969 8.964844 4.222656 C 7.058594 1.632812 3.753906 0.386719 0.683594 1.601562 Z M 0.683594 1.601562 "/>
</g>
</svg>
