
<svg xmlns="http://www.w3.org/2000/svg" xmlns:xlink="http://www.w3.org/1999/xlink" width="24px" height="24px" viewBox="0 0 24 24" version="1.1">
<g id="surface1">
<path style=" stroke:none;fill-rule:evenodd;fill:rgb(62.352943%,45.490196%,70.19608%);fill-opacity:1;" d="M 12.824219 14.476562 C 12.449219 14.476562 12.226562 14.550781 12 14.550781 L 10.648438 14.550781 C 10.949219 11.324219 11.175781 8.175781 11.476562 4.949219 C 12.375 4.949219 13.125 4.875 13.875 4.949219 C 14.101562 4.949219 14.398438 5.324219 14.324219 5.550781 C 14.101562 7.273438 13.726562 9.074219 13.425781 10.800781 C 13.273438 12 13.050781 13.199219 12.824219 14.476562 Z M 13.125 17.476562 C 13.199219 18.300781 12.523438 19.050781 11.550781 19.125 C 10.574219 19.199219 9.675781 18.601562 9.601562 17.773438 C 9.523438 16.875 10.199219 16.199219 11.25 16.125 C 12.300781 16.050781 13.050781 16.574219 13.125 17.476562 Z M 13.125 17.476562 "/>
</g>
</svg>
