
<svg xmlns="http://www.w3.org/2000/svg" xmlns:xlink="http://www.w3.org/1999/xlink" width="16px" height="16px" viewBox="0 0 16 16" version="1.1">
<g id="surface1">
<path style=" stroke:none;fill-rule:nonzero;fill:rgb(0%,0%,0%);fill-opacity:1;" d="M 10.253906 1.617188 C 10.207031 1.667969 10.171875 1.71875 10.179688 1.734375 C 10.179688 1.75 10.167969 1.761719 10.144531 1.761719 C 10.128906 1.761719 10.121094 1.78125 10.132812 1.796875 C 10.144531 1.820312 10.128906 1.84375 10.101562 1.855469 C 10.070312 1.863281 10.050781 1.890625 10.0625 1.902344 C 10.070312 1.921875 10.066406 1.941406 10.042969 1.957031 C 10.023438 1.96875 10.015625 1.996094 10.027344 2.011719 C 10.039062 2.03125 10.03125 2.042969 10.007812 2.042969 C 9.984375 2.042969 9.972656 2.066406 9.984375 2.09375 C 9.996094 2.121094 9.996094 2.152344 9.980469 2.167969 C 9.964844 2.179688 9.953125 2.242188 9.949219 2.300781 C 9.933594 2.496094 9.902344 3.167969 9.886719 3.664062 C 9.863281 4.179688 9.851562 4.4375 9.832031 4.492188 C 9.828125 4.511719 9.824219 4.539062 9.828125 4.554688 C 9.835938 4.597656 9.800781 4.585938 9.730469 4.515625 C 9.691406 4.476562 9.671875 4.4375 9.679688 4.425781 C 9.695312 4.414062 9.683594 4.40625 9.660156 4.40625 C 9.636719 4.40625 9.628906 4.386719 9.640625 4.371094 C 9.648438 4.347656 9.644531 4.335938 9.632812 4.335938 C 9.601562 4.335938 9.5 4.125 9.511719 4.078125 C 9.511719 4.0625 9.496094 4.054688 9.476562 4.054688 C 9.460938 4.054688 9.453125 4.035156 9.460938 4.019531 C 9.472656 3.996094 9.464844 3.980469 9.445312 3.980469 C 9.421875 3.980469 9.417969 3.964844 9.425781 3.945312 C 9.4375 3.925781 9.429688 3.910156 9.410156 3.910156 C 9.386719 3.910156 9.382812 3.894531 9.390625 3.875 C 9.402344 3.855469 9.394531 3.839844 9.375 3.839844 C 9.351562 3.839844 9.347656 3.824219 9.355469 3.804688 C 9.367188 3.785156 9.359375 3.769531 9.339844 3.769531 C 9.316406 3.769531 9.3125 3.753906 9.320312 3.734375 C 9.332031 3.714844 9.324219 3.699219 9.304688 3.699219 C 9.28125 3.699219 9.277344 3.683594 9.285156 3.664062 C 9.296875 3.644531 9.289062 3.628906 9.269531 3.628906 C 9.246094 3.628906 9.242188 3.613281 9.25 3.59375 C 9.261719 3.574219 9.253906 3.558594 9.234375 3.558594 C 9.210938 3.558594 9.207031 3.542969 9.214844 3.523438 C 9.226562 3.503906 9.21875 3.488281 9.199219 3.488281 C 9.175781 3.488281 9.167969 3.476562 9.175781 3.457031 C 9.1875 3.441406 9.171875 3.414062 9.140625 3.40625 C 9.109375 3.390625 9.09375 3.371094 9.101562 3.359375 C 9.117188 3.347656 9.097656 3.316406 9.0625 3.289062 C 9.027344 3.257812 9.023438 3.246094 9.058594 3.261719 C 9.085938 3.273438 9.0625 3.242188 9.003906 3.1875 C 8.949219 3.140625 8.921875 3.109375 8.953125 3.121094 C 8.980469 3.136719 8.902344 3.046875 8.773438 2.925781 C 8.648438 2.800781 8.535156 2.703125 8.523438 2.707031 C 8.503906 2.710938 8.492188 2.695312 8.492188 2.675781 C 8.492188 2.65625 8.480469 2.648438 8.457031 2.660156 C 8.441406 2.671875 8.421875 2.671875 8.421875 2.652344 C 8.421875 2.640625 8.382812 2.621094 8.335938 2.621094 C 8.285156 2.617188 8.246094 2.632812 8.246094 2.648438 C 8.246094 2.671875 8.222656 2.679688 8.195312 2.664062 C 8.164062 2.652344 8.140625 2.660156 8.140625 2.683594 C 8.140625 2.703125 8.125 2.710938 8.109375 2.699219 C 8.089844 2.6875 8.066406 2.703125 8.054688 2.734375 C 8.046875 2.761719 8.019531 2.78125 8.007812 2.769531 C 7.910156 2.710938 7.78125 3.125 7.867188 3.230469 C 7.886719 3.257812 7.890625 3.316406 7.878906 3.367188 C 7.867188 3.414062 7.871094 3.476562 7.882812 3.5 C 7.898438 3.523438 7.914062 3.605469 7.917969 3.683594 C 7.933594 3.953125 7.929688 5.023438 7.910156 5.199219 C 7.902344 5.292969 7.890625 5.421875 7.882812 5.480469 C 7.878906 5.535156 7.863281 5.605469 7.847656 5.632812 C 7.832031 5.65625 7.828125 5.707031 7.839844 5.742188 C 7.851562 5.78125 7.84375 5.820312 7.824219 5.832031 C 7.800781 5.847656 7.796875 5.886719 7.804688 5.921875 C 7.816406 5.957031 7.808594 5.996094 7.789062 6.007812 C 7.765625 6.023438 7.761719 6.0625 7.769531 6.101562 C 7.785156 6.140625 7.777344 6.167969 7.753906 6.167969 C 7.730469 6.167969 7.722656 6.191406 7.730469 6.222656 C 7.742188 6.253906 7.742188 6.296875 7.730469 6.320312 C 7.691406 6.378906 7.695312 6.660156 7.730469 6.660156 C 7.75 6.660156 7.753906 6.671875 7.742188 6.683594 C 7.730469 6.695312 7.746094 6.726562 7.78125 6.757812 C 7.816406 6.789062 7.820312 6.796875 7.789062 6.78125 C 7.753906 6.761719 7.757812 6.78125 7.800781 6.828125 C 7.875 6.914062 7.910156 6.933594 7.875 6.863281 C 7.863281 6.839844 7.878906 6.851562 7.910156 6.890625 C 7.945312 6.929688 7.984375 6.957031 8.003906 6.953125 C 8.019531 6.945312 8.035156 6.960938 8.035156 6.980469 C 8.035156 7 8.054688 7.007812 8.070312 6.996094 C 8.089844 6.984375 8.105469 6.992188 8.105469 7.011719 C 8.105469 7.035156 8.125 7.042969 8.140625 7.03125 C 8.164062 7.019531 8.175781 7.027344 8.175781 7.046875 C 8.175781 7.070312 8.195312 7.078125 8.210938 7.066406 C 8.234375 7.054688 8.246094 7.0625 8.246094 7.082031 C 8.246094 7.105469 8.265625 7.113281 8.28125 7.101562 C 8.304688 7.089844 8.316406 7.097656 8.316406 7.117188 C 8.316406 7.140625 8.335938 7.148438 8.351562 7.136719 C 8.375 7.125 8.386719 7.128906 8.386719 7.152344 C 8.386719 7.171875 8.414062 7.179688 8.441406 7.167969 C 8.46875 7.152344 8.492188 7.164062 8.492188 7.1875 C 8.492188 7.257812 8.628906 7.226562 8.714844 7.140625 C 8.765625 7.089844 8.792969 7.046875 8.78125 7.035156 C 8.773438 7.023438 8.78125 7.011719 8.808594 7.011719 C 8.832031 7.011719 8.84375 7 8.828125 6.980469 C 8.816406 6.964844 8.824219 6.9375 8.847656 6.925781 C 8.867188 6.910156 8.875 6.886719 8.863281 6.867188 C 8.847656 6.851562 8.855469 6.835938 8.878906 6.835938 C 8.898438 6.835938 8.90625 6.8125 8.894531 6.785156 C 8.882812 6.757812 8.890625 6.730469 8.917969 6.730469 C 8.941406 6.730469 8.953125 6.707031 8.9375 6.679688 C 8.925781 6.648438 8.933594 6.625 8.953125 6.625 C 8.976562 6.625 8.988281 6.601562 8.972656 6.574219 C 8.960938 6.542969 8.96875 6.519531 8.992188 6.519531 C 9.011719 6.519531 9.023438 6.496094 9.007812 6.46875 C 8.996094 6.4375 9.003906 6.414062 9.027344 6.414062 C 9.046875 6.414062 9.054688 6.398438 9.039062 6.382812 C 9.027344 6.363281 9.035156 6.339844 9.058594 6.324219 C 9.078125 6.3125 9.085938 6.289062 9.074219 6.269531 C 9.0625 6.253906 9.070312 6.238281 9.089844 6.238281 C 9.109375 6.238281 9.125 6.21875 9.117188 6.195312 C 9.105469 6.136719 9.207031 6.140625 9.261719 6.203125 C 9.304688 6.25 9.308594 6.25 9.285156 6.203125 C 9.273438 6.175781 9.320312 6.214844 9.390625 6.289062 C 9.460938 6.367188 9.511719 6.40625 9.496094 6.378906 C 9.484375 6.351562 9.566406 6.421875 9.675781 6.539062 C 9.785156 6.652344 9.863281 6.722656 9.851562 6.695312 C 9.835938 6.667969 9.859375 6.683594 9.902344 6.730469 C 9.945312 6.78125 9.996094 6.820312 10.011719 6.820312 C 10.035156 6.820312 10.0625 6.84375 10.078125 6.871094 C 10.097656 6.902344 10.113281 6.90625 10.113281 6.890625 C 10.113281 6.867188 10.132812 6.882812 10.152344 6.917969 C 10.175781 6.949219 10.203125 6.972656 10.222656 6.960938 C 10.242188 6.945312 10.253906 6.957031 10.253906 6.976562 C 10.253906 7 10.273438 7.007812 10.289062 6.996094 C 10.3125 6.984375 10.324219 6.988281 10.324219 7.007812 C 10.324219 7.03125 10.351562 7.039062 10.378906 7.027344 C 10.40625 7.011719 10.433594 7.019531 10.433594 7.039062 C 10.433594 7.074219 10.578125 7.09375 10.734375 7.078125 C 10.789062 7.074219 10.984375 6.902344 10.96875 6.878906 C 10.964844 6.875 10.964844 6.867188 10.964844 6.863281 C 10.988281 6.816406 11 6.332031 11.007812 4.460938 C 11.011719 2.316406 11.011719 2.277344 10.941406 2.210938 C 10.902344 2.175781 10.871094 2.128906 10.871094 2.109375 C 10.871094 2.09375 10.847656 2.0625 10.820312 2.042969 C 10.792969 2.027344 10.785156 2.007812 10.800781 2.007812 C 10.824219 2.007812 10.796875 1.972656 10.75 1.933594 C 10.699219 1.894531 10.683594 1.871094 10.714844 1.886719 C 10.742188 1.898438 10.734375 1.882812 10.695312 1.851562 C 10.65625 1.820312 10.625 1.78125 10.625 1.765625 C 10.625 1.722656 10.425781 1.535156 10.378906 1.53125 C 10.359375 1.53125 10.304688 1.566406 10.253906 1.617188 Z M 10.253906 1.617188 "/>
<path style=" stroke:none;fill-rule:nonzero;fill:rgb(0%,0%,0%);fill-opacity:1;" d="M 1.023438 1.664062 C 1.023438 1.679688 1.007812 1.6875 0.992188 1.675781 C 0.972656 1.667969 0.949219 1.679688 0.9375 1.710938 C 0.925781 1.742188 0.902344 1.757812 0.882812 1.746094 C 0.847656 1.722656 0.769531 1.8125 0.800781 1.84375 C 0.8125 1.855469 0.804688 1.867188 0.78125 1.867188 C 0.757812 1.867188 0.742188 1.878906 0.746094 1.890625 C 0.746094 1.910156 0.738281 1.949219 0.726562 1.980469 C 0.710938 2.011719 0.707031 2.148438 0.71875 2.28125 C 0.730469 2.410156 0.738281 2.578125 0.742188 2.644531 C 0.742188 2.710938 0.761719 2.785156 0.777344 2.808594 C 0.800781 2.828125 0.808594 2.882812 0.792969 2.921875 C 0.78125 2.957031 0.789062 3 0.8125 3.011719 C 0.835938 3.027344 0.84375 3.078125 0.832031 3.117188 C 0.820312 3.164062 0.828125 3.214844 0.847656 3.226562 C 0.867188 3.238281 0.875 3.277344 0.863281 3.3125 C 0.851562 3.347656 0.859375 3.386719 0.882812 3.402344 C 0.902344 3.414062 0.910156 3.453125 0.898438 3.488281 C 0.886719 3.523438 0.894531 3.5625 0.917969 3.578125 C 0.9375 3.589844 0.945312 3.628906 0.933594 3.664062 C 0.921875 3.699219 0.929688 3.738281 0.953125 3.753906 C 0.972656 3.765625 0.980469 3.804688 0.96875 3.839844 C 0.957031 3.875 0.964844 3.914062 0.988281 3.929688 C 1.007812 3.945312 1.015625 3.980469 1.003906 4.019531 C 0.992188 4.058594 0.996094 4.089844 1.023438 4.089844 C 1.042969 4.089844 1.058594 4.109375 1.054688 4.128906 C 1.046875 4.1875 1.851562 5.023438 1.910156 5.023438 C 1.941406 5.023438 1.953125 5.226562 1.957031 5.871094 C 1.960938 6.335938 1.972656 6.738281 1.984375 6.757812 C 2 6.777344 2 6.820312 1.988281 6.851562 C 1.976562 6.882812 1.984375 6.90625 2.007812 6.90625 C 2.03125 6.90625 2.039062 6.921875 2.027344 6.9375 C 2.015625 6.957031 2.023438 6.980469 2.042969 6.996094 C 2.066406 7.007812 2.070312 7.035156 2.0625 7.050781 C 2.046875 7.070312 2.058594 7.082031 2.078125 7.082031 C 2.101562 7.082031 2.109375 7.097656 2.097656 7.117188 C 2.085938 7.136719 2.09375 7.152344 2.113281 7.152344 C 2.136719 7.152344 2.144531 7.167969 2.132812 7.1875 C 2.121094 7.207031 2.128906 7.226562 2.148438 7.226562 C 2.171875 7.226562 2.179688 7.238281 2.171875 7.257812 C 2.160156 7.273438 2.175781 7.296875 2.203125 7.308594 C 2.230469 7.320312 2.253906 7.34375 2.25 7.363281 C 2.242188 7.378906 2.269531 7.421875 2.308594 7.453125 C 2.347656 7.484375 2.355469 7.5 2.324219 7.484375 C 2.296875 7.472656 2.335938 7.527344 2.410156 7.605469 C 2.488281 7.6875 2.5625 7.742188 2.578125 7.730469 C 2.59375 7.722656 2.617188 7.738281 2.628906 7.765625 C 2.640625 7.800781 2.664062 7.8125 2.683594 7.800781 C 2.699219 7.792969 2.714844 7.800781 2.714844 7.824219 C 2.714844 7.84375 2.726562 7.851562 2.75 7.839844 C 2.769531 7.832031 2.785156 7.835938 2.785156 7.859375 C 2.785156 7.878906 2.796875 7.886719 2.820312 7.875 C 2.835938 7.867188 2.855469 7.871094 2.855469 7.886719 C 2.855469 7.90625 2.90625 7.914062 2.972656 7.910156 C 3.03125 7.90625 3.082031 7.882812 3.074219 7.863281 C 3.070312 7.839844 3.082031 7.824219 3.097656 7.824219 C 3.117188 7.824219 3.128906 7.765625 3.132812 7.691406 C 3.132812 7.5625 3.152344 7.335938 3.1875 6.941406 C 3.21875 6.640625 3.242188 6.34375 3.296875 5.640625 C 3.332031 5.171875 3.335938 5.109375 3.382812 5.058594 C 3.40625 5.027344 3.414062 5.003906 3.402344 5.003906 C 3.386719 5.003906 3.410156 4.972656 3.457031 4.929688 C 3.503906 4.890625 3.515625 4.871094 3.488281 4.882812 C 3.460938 4.898438 3.480469 4.859375 3.539062 4.800781 C 3.59375 4.738281 3.652344 4.699219 3.664062 4.703125 C 3.679688 4.714844 3.722656 4.6875 3.757812 4.640625 C 3.824219 4.5625 3.824219 4.5625 3.75 4.617188 C 3.710938 4.644531 3.742188 4.609375 3.820312 4.53125 C 3.902344 4.457031 3.964844 4.382812 3.964844 4.367188 C 3.964844 4.351562 3.996094 4.3125 4.035156 4.285156 C 4.074219 4.253906 4.089844 4.230469 4.074219 4.230469 C 4.054688 4.230469 4.070312 4.203125 4.109375 4.171875 C 4.144531 4.144531 4.152344 4.125 4.125 4.140625 C 4.089844 4.15625 4.089844 4.148438 4.128906 4.113281 C 4.164062 4.085938 4.183594 4.054688 4.167969 4.042969 C 4.160156 4.027344 4.164062 4.019531 4.191406 4.019531 C 4.214844 4.019531 4.222656 4 4.210938 3.980469 C 4.199219 3.960938 4.207031 3.945312 4.226562 3.945312 C 4.246094 3.945312 4.261719 3.9375 4.261719 3.917969 C 4.257812 3.90625 4.261719 3.886719 4.265625 3.875 C 4.289062 3.824219 4.285156 3.625 4.261719 3.613281 C 4.246094 3.601562 4.238281 3.570312 4.253906 3.542969 C 4.265625 3.511719 4.253906 3.488281 4.230469 3.488281 C 4.207031 3.488281 4.199219 3.472656 4.210938 3.453125 C 4.222656 3.433594 4.214844 3.417969 4.191406 3.417969 C 4.164062 3.417969 4.15625 3.410156 4.164062 3.402344 C 4.1875 3.375 3.90625 3.082031 3.871094 3.09375 C 3.851562 3.097656 3.839844 3.082031 3.839844 3.0625 C 3.839844 3.046875 3.828125 3.035156 3.808594 3.046875 C 3.792969 3.054688 3.765625 3.042969 3.757812 3.007812 C 3.746094 2.980469 3.722656 2.96875 3.699219 2.976562 C 3.683594 2.988281 3.664062 2.980469 3.664062 2.960938 C 3.664062 2.9375 3.652344 2.933594 3.628906 2.941406 C 3.613281 2.953125 3.59375 2.945312 3.59375 2.925781 C 3.59375 2.902344 3.578125 2.898438 3.558594 2.90625 C 3.539062 2.917969 3.523438 2.910156 3.523438 2.894531 C 3.523438 2.871094 3.511719 2.855469 3.488281 2.855469 C 3.445312 2.855469 3.296875 2.996094 3.339844 2.996094 C 3.355469 2.996094 3.328125 3.03125 3.277344 3.070312 C 3.226562 3.109375 3.214844 3.132812 3.242188 3.117188 C 3.269531 3.105469 3.238281 3.144531 3.171875 3.203125 C 3.105469 3.265625 3.074219 3.304688 3.101562 3.292969 C 3.128906 3.277344 3.070312 3.355469 2.964844 3.464844 C 2.859375 3.574219 2.757812 3.65625 2.742188 3.644531 C 2.726562 3.632812 2.703125 3.652344 2.691406 3.679688 C 2.683594 3.710938 2.65625 3.726562 2.640625 3.714844 C 2.621094 3.703125 2.609375 3.710938 2.609375 3.730469 C 2.609375 3.765625 2.394531 3.765625 2.332031 3.726562 C 2.308594 3.707031 2.296875 3.679688 2.308594 3.660156 C 2.324219 3.644531 2.3125 3.628906 2.289062 3.628906 C 2.269531 3.628906 2.257812 3.617188 2.273438 3.597656 C 2.285156 3.582031 2.277344 3.554688 2.253906 3.542969 C 2.234375 3.527344 2.226562 3.503906 2.238281 3.484375 C 2.253906 3.46875 2.25 3.433594 2.230469 3.40625 C 2.203125 3.363281 2.183594 3.226562 2.179688 3.03125 C 2.179688 2.964844 2.164062 2.890625 2.144531 2.867188 C 2.128906 2.84375 2.121094 2.785156 2.136719 2.734375 C 2.148438 2.675781 2.144531 2.644531 2.113281 2.644531 C 2.089844 2.644531 2.082031 2.613281 2.097656 2.574219 C 2.109375 2.53125 2.105469 2.503906 2.078125 2.503906 C 2.058594 2.503906 2.046875 2.488281 2.0625 2.46875 C 2.070312 2.453125 2.066406 2.429688 2.042969 2.414062 C 2.023438 2.398438 2.015625 2.375 2.027344 2.359375 C 2.039062 2.339844 2.03125 2.324219 2.007812 2.324219 C 1.988281 2.324219 1.980469 2.308594 1.992188 2.289062 C 2 2.269531 1.996094 2.253906 1.972656 2.253906 C 1.953125 2.253906 1.945312 2.238281 1.957031 2.21875 C 1.964844 2.199219 1.953125 2.175781 1.925781 2.164062 C 1.890625 2.152344 1.875 2.128906 1.886719 2.109375 C 1.894531 2.097656 1.871094 2.066406 1.832031 2.042969 C 1.792969 2.023438 1.769531 1.992188 1.777344 1.976562 C 1.785156 1.964844 1.742188 1.894531 1.675781 1.832031 C 1.605469 1.765625 1.550781 1.726562 1.550781 1.746094 C 1.550781 1.765625 1.53125 1.753906 1.515625 1.726562 C 1.496094 1.699219 1.464844 1.671875 1.445312 1.671875 C 1.425781 1.667969 1.40625 1.664062 1.402344 1.65625 C 1.367188 1.632812 1.023438 1.640625 1.023438 1.664062 Z M 1.023438 1.664062 "/>
<path style=" stroke:none;fill-rule:nonzero;fill:rgb(0%,0%,0%);fill-opacity:1;" d="M 12.773438 1.945312 C 12.761719 1.960938 12.734375 1.964844 12.703125 1.949219 C 12.675781 1.9375 12.652344 1.949219 12.652344 1.972656 C 12.652344 1.996094 12.636719 2 12.617188 1.992188 C 12.597656 1.980469 12.582031 1.988281 12.582031 2.007812 C 12.582031 2.03125 12.566406 2.039062 12.550781 2.027344 C 12.53125 2.015625 12.488281 2.035156 12.460938 2.066406 C 12.429688 2.09375 12.40625 2.109375 12.40625 2.09375 C 12.40625 2.078125 12.378906 2.097656 12.351562 2.136719 C 12.324219 2.171875 12.300781 2.1875 12.300781 2.171875 C 12.300781 2.15625 12.269531 2.179688 12.226562 2.222656 C 12.1875 2.269531 12.164062 2.285156 12.179688 2.253906 C 12.195312 2.226562 12.148438 2.253906 12.078125 2.324219 C 12.007812 2.390625 11.960938 2.460938 11.972656 2.488281 C 11.980469 2.515625 11.972656 2.539062 11.945312 2.539062 C 11.925781 2.539062 11.917969 2.550781 11.929688 2.574219 C 11.941406 2.589844 11.933594 2.609375 11.910156 2.609375 C 11.890625 2.609375 11.882812 2.625 11.894531 2.644531 C 11.90625 2.664062 11.890625 2.6875 11.863281 2.699219 C 11.832031 2.710938 11.8125 2.734375 11.824219 2.753906 C 11.835938 2.765625 11.808594 2.796875 11.769531 2.820312 C 11.730469 2.839844 11.707031 2.871094 11.71875 2.894531 C 11.730469 2.910156 11.722656 2.925781 11.699219 2.925781 C 11.679688 2.925781 11.671875 2.9375 11.683594 2.960938 C 11.695312 2.976562 11.6875 2.996094 11.664062 2.996094 C 11.644531 2.996094 11.636719 3.007812 11.648438 3.03125 C 11.65625 3.046875 11.652344 3.066406 11.628906 3.066406 C 11.609375 3.066406 11.601562 3.082031 11.613281 3.101562 C 11.621094 3.117188 11.621094 3.136719 11.597656 3.136719 C 11.578125 3.136719 11.570312 3.160156 11.582031 3.1875 C 11.59375 3.21875 11.585938 3.242188 11.5625 3.242188 C 11.542969 3.242188 11.535156 3.265625 11.546875 3.296875 C 11.558594 3.324219 11.550781 3.347656 11.523438 3.347656 C 11.503906 3.347656 11.492188 3.363281 11.507812 3.378906 C 11.515625 3.398438 11.511719 3.421875 11.492188 3.4375 C 11.472656 3.445312 11.464844 3.476562 11.476562 3.507812 C 11.488281 3.535156 11.476562 3.558594 11.453125 3.558594 C 11.429688 3.558594 11.421875 3.585938 11.4375 3.628906 C 11.449219 3.671875 11.441406 3.699219 11.417969 3.699219 C 11.394531 3.699219 11.386719 3.730469 11.402344 3.769531 C 11.414062 3.8125 11.40625 3.839844 11.382812 3.839844 C 11.355469 3.839844 11.347656 3.875 11.363281 3.929688 C 11.375 3.984375 11.371094 4.019531 11.34375 4.019531 C 11.320312 4.019531 11.3125 4.050781 11.328125 4.105469 C 11.339844 4.15625 11.335938 4.214844 11.324219 4.238281 C 11.285156 4.300781 11.285156 5.050781 11.324219 5.097656 C 11.339844 5.125 11.34375 5.160156 11.332031 5.179688 C 11.316406 5.203125 11.328125 5.242188 11.347656 5.269531 C 11.371094 5.296875 11.378906 5.335938 11.367188 5.355469 C 11.355469 5.375 11.363281 5.390625 11.382812 5.390625 C 11.40625 5.390625 11.417969 5.417969 11.40625 5.445312 C 11.394531 5.472656 11.402344 5.496094 11.421875 5.496094 C 11.441406 5.496094 11.445312 5.511719 11.4375 5.53125 C 11.425781 5.550781 11.433594 5.566406 11.453125 5.566406 C 11.476562 5.566406 11.480469 5.582031 11.472656 5.605469 C 11.460938 5.621094 11.46875 5.640625 11.484375 5.640625 C 11.507812 5.640625 11.519531 5.652344 11.511719 5.671875 C 11.511719 5.6875 11.539062 5.730469 11.578125 5.761719 C 11.617188 5.792969 11.621094 5.808594 11.59375 5.792969 C 11.566406 5.78125 11.605469 5.835938 11.679688 5.914062 C 11.757812 5.996094 11.832031 6.050781 11.84375 6.039062 C 11.859375 6.035156 11.890625 6.058594 11.910156 6.097656 C 11.933594 6.136719 11.964844 6.160156 11.984375 6.148438 C 12.003906 6.136719 12.027344 6.152344 12.039062 6.179688 C 12.050781 6.214844 12.074219 6.230469 12.089844 6.21875 C 12.101562 6.210938 12.125 6.226562 12.136719 6.257812 C 12.148438 6.289062 12.171875 6.300781 12.195312 6.289062 C 12.210938 6.28125 12.230469 6.289062 12.230469 6.308594 C 12.230469 6.328125 12.246094 6.335938 12.265625 6.324219 C 12.285156 6.316406 12.300781 6.324219 12.300781 6.34375 C 12.300781 6.363281 12.316406 6.371094 12.335938 6.359375 C 12.355469 6.351562 12.371094 6.359375 12.371094 6.378906 C 12.371094 6.402344 12.398438 6.410156 12.4375 6.394531 C 12.476562 6.386719 12.515625 6.394531 12.527344 6.414062 C 12.558594 6.460938 13.027344 6.460938 13.0625 6.410156 C 13.070312 6.390625 13.121094 6.382812 13.167969 6.394531 C 13.214844 6.40625 13.25 6.398438 13.25 6.378906 C 13.25 6.359375 13.269531 6.351562 13.285156 6.359375 C 13.308594 6.371094 13.320312 6.363281 13.320312 6.34375 C 13.320312 6.324219 13.335938 6.3125 13.355469 6.324219 C 13.375 6.335938 13.417969 6.304688 13.449219 6.253906 C 13.480469 6.210938 13.519531 6.179688 13.535156 6.1875 C 13.554688 6.199219 13.566406 6.1875 13.566406 6.167969 C 13.566406 6.144531 13.585938 6.140625 13.605469 6.148438 C 13.625 6.160156 13.640625 6.152344 13.640625 6.128906 C 13.640625 6.105469 13.644531 6.09375 13.65625 6.105469 C 13.679688 6.128906 13.941406 5.882812 13.929688 5.84375 C 13.925781 5.824219 13.945312 5.804688 13.972656 5.792969 C 14 5.785156 14.015625 5.757812 14.003906 5.742188 C 13.996094 5.722656 14.011719 5.699219 14.039062 5.6875 C 14.070312 5.675781 14.085938 5.652344 14.074219 5.636719 C 14.066406 5.617188 14.074219 5.605469 14.097656 5.605469 C 14.117188 5.605469 14.125 5.585938 14.113281 5.566406 C 14.105469 5.546875 14.109375 5.53125 14.132812 5.53125 C 14.152344 5.53125 14.160156 5.515625 14.148438 5.496094 C 14.140625 5.476562 14.144531 5.460938 14.164062 5.460938 C 14.183594 5.460938 14.191406 5.4375 14.179688 5.410156 C 14.167969 5.382812 14.179688 5.355469 14.203125 5.355469 C 14.226562 5.355469 14.234375 5.328125 14.21875 5.289062 C 14.210938 5.25 14.214844 5.210938 14.226562 5.207031 C 14.277344 5.171875 14.242188 3.378906 14.1875 3.265625 C 14.175781 3.234375 14.171875 3.183594 14.179688 3.152344 C 14.195312 3.117188 14.183594 3.070312 14.164062 3.046875 C 14.144531 3.015625 14.132812 2.972656 14.144531 2.941406 C 14.15625 2.914062 14.148438 2.882812 14.128906 2.867188 C 14.109375 2.859375 14.101562 2.828125 14.109375 2.796875 C 14.121094 2.769531 14.113281 2.75 14.09375 2.75 C 14.070312 2.75 14.0625 2.722656 14.074219 2.695312 C 14.085938 2.667969 14.078125 2.644531 14.058594 2.644531 C 14.035156 2.644531 14.035156 2.625 14.042969 2.609375 C 14.054688 2.585938 14.046875 2.574219 14.03125 2.574219 C 14.007812 2.574219 13.996094 2.558594 14 2.539062 C 14.003906 2.523438 13.976562 2.480469 13.9375 2.449219 C 13.898438 2.417969 13.890625 2.402344 13.921875 2.417969 C 13.949219 2.433594 13.929688 2.394531 13.871094 2.332031 C 13.757812 2.214844 13.726562 2.191406 13.761719 2.261719 C 13.777344 2.289062 13.746094 2.257812 13.695312 2.203125 C 13.644531 2.144531 13.605469 2.109375 13.605469 2.132812 C 13.605469 2.148438 13.585938 2.140625 13.566406 2.105469 C 13.542969 2.070312 13.515625 2.050781 13.496094 2.0625 C 13.476562 2.074219 13.460938 2.066406 13.460938 2.042969 C 13.460938 2.023438 13.449219 2.015625 13.425781 2.027344 C 13.410156 2.035156 13.390625 2.03125 13.390625 2.007812 C 13.390625 1.988281 13.378906 1.976562 13.359375 1.992188 C 13.34375 2 13.316406 1.996094 13.304688 1.976562 C 13.292969 1.957031 13.261719 1.949219 13.234375 1.964844 C 13.207031 1.972656 13.179688 1.964844 13.179688 1.949219 C 13.179688 1.914062 12.796875 1.90625 12.773438 1.945312 Z M 13.074219 3.605469 C 13.074219 3.621094 13.085938 3.625 13.101562 3.621094 C 13.117188 3.613281 13.15625 3.632812 13.191406 3.671875 C 13.222656 3.707031 13.242188 3.734375 13.226562 3.734375 C 13.210938 3.734375 13.21875 3.753906 13.242188 3.777344 C 13.296875 3.832031 13.300781 3.972656 13.25 4 C 13.230469 4.015625 13.222656 4.054688 13.234375 4.089844 C 13.246094 4.125 13.242188 4.160156 13.21875 4.160156 C 13.199219 4.160156 13.191406 4.183594 13.203125 4.210938 C 13.214844 4.238281 13.207031 4.265625 13.179688 4.265625 C 13.160156 4.265625 13.152344 4.277344 13.164062 4.300781 C 13.171875 4.316406 13.167969 4.335938 13.144531 4.335938 C 13.125 4.335938 13.113281 4.347656 13.128906 4.367188 C 13.136719 4.382812 13.132812 4.410156 13.109375 4.421875 C 13.089844 4.4375 13.082031 4.460938 13.09375 4.480469 C 13.105469 4.496094 13.089844 4.523438 13.0625 4.53125 C 13.027344 4.542969 13.015625 4.566406 13.027344 4.585938 C 13.035156 4.601562 13.027344 4.617188 13.003906 4.617188 C 12.984375 4.617188 12.972656 4.628906 12.984375 4.648438 C 12.992188 4.667969 12.980469 4.691406 12.953125 4.703125 C 12.921875 4.710938 12.902344 4.734375 12.90625 4.746094 C 12.917969 4.785156 12.769531 4.933594 12.742188 4.90625 C 12.734375 4.894531 12.722656 4.90625 12.722656 4.925781 C 12.722656 4.992188 12.648438 4.976562 12.59375 4.90625 C 12.5625 4.875 12.554688 4.867188 12.566406 4.894531 C 12.585938 4.925781 12.578125 4.9375 12.550781 4.917969 C 12.527344 4.90625 12.519531 4.882812 12.527344 4.863281 C 12.539062 4.847656 12.523438 4.816406 12.492188 4.792969 C 12.433594 4.742188 12.421875 4.523438 12.476562 4.492188 C 12.496094 4.480469 12.503906 4.441406 12.492188 4.402344 C 12.480469 4.367188 12.488281 4.335938 12.507812 4.335938 C 12.527344 4.335938 12.535156 4.308594 12.523438 4.28125 C 12.511719 4.253906 12.523438 4.230469 12.546875 4.230469 C 12.570312 4.230469 12.582031 4.203125 12.566406 4.175781 C 12.558594 4.148438 12.5625 4.125 12.585938 4.125 C 12.605469 4.125 12.613281 4.109375 12.597656 4.089844 C 12.589844 4.074219 12.59375 4.050781 12.617188 4.035156 C 12.636719 4.019531 12.644531 3.996094 12.632812 3.980469 C 12.621094 3.960938 12.628906 3.945312 12.652344 3.945312 C 12.671875 3.945312 12.679688 3.929688 12.667969 3.910156 C 12.660156 3.890625 12.667969 3.875 12.683594 3.875 C 12.703125 3.875 12.71875 3.867188 12.71875 3.847656 C 12.714844 3.835938 12.71875 3.8125 12.722656 3.796875 C 12.726562 3.78125 12.734375 3.761719 12.738281 3.742188 C 12.738281 3.730469 12.773438 3.6875 12.8125 3.648438 C 12.878906 3.582031 13.074219 3.550781 13.074219 3.605469 Z M 13.074219 3.605469 "/>
<path style=" stroke:none;fill-rule:nonzero;fill:rgb(0%,0%,0%);fill-opacity:1;" d="M 6.585938 2.738281 C 6.582031 2.746094 6.578125 2.765625 6.578125 2.785156 C 6.578125 2.804688 6.550781 2.835938 6.523438 2.851562 C 6.5 2.867188 6.484375 2.898438 6.5 2.917969 C 6.507812 2.9375 6.503906 2.96875 6.484375 2.976562 C 6.464844 2.992188 6.457031 3.035156 6.46875 3.070312 C 6.480469 3.109375 6.46875 3.160156 6.449219 3.1875 C 6.421875 3.226562 6.414062 3.304688 6.433594 3.449219 C 6.445312 3.589844 6.441406 3.664062 6.414062 3.683594 C 6.394531 3.695312 6.386719 3.734375 6.394531 3.769531 C 6.40625 3.804688 6.398438 3.84375 6.378906 3.859375 C 6.359375 3.875 6.351562 3.910156 6.359375 3.945312 C 6.371094 3.980469 6.363281 4.019531 6.34375 4.035156 C 6.324219 4.050781 6.316406 4.089844 6.324219 4.125 C 6.339844 4.164062 6.332031 4.195312 6.308594 4.195312 C 6.285156 4.195312 6.273438 4.21875 6.285156 4.246094 C 6.296875 4.273438 6.289062 4.304688 6.273438 4.316406 C 6.253906 4.328125 6.25 4.359375 6.261719 4.386719 C 6.273438 4.414062 6.261719 4.441406 6.238281 4.441406 C 6.214844 4.441406 6.203125 4.464844 6.214844 4.492188 C 6.226562 4.523438 6.21875 4.546875 6.199219 4.546875 C 6.179688 4.546875 6.167969 4.570312 6.179688 4.597656 C 6.191406 4.628906 6.183594 4.660156 6.167969 4.667969 C 6.148438 4.679688 6.144531 4.710938 6.15625 4.738281 C 6.167969 4.769531 6.15625 4.792969 6.132812 4.792969 C 6.109375 4.792969 6.097656 4.816406 6.109375 4.847656 C 6.121094 4.875 6.113281 4.90625 6.09375 4.917969 C 6.074219 4.929688 6.070312 4.953125 6.082031 4.972656 C 6.09375 4.992188 6.082031 5.027344 6.0625 5.058594 C 6.039062 5.085938 6.03125 5.125 6.042969 5.144531 C 6.058594 5.167969 6.046875 5.207031 6.027344 5.234375 C 6.003906 5.261719 5.996094 5.300781 6.007812 5.320312 C 6.019531 5.339844 6.011719 5.355469 5.992188 5.355469 C 5.96875 5.355469 5.960938 5.371094 5.96875 5.386719 C 5.980469 5.40625 5.964844 5.429688 5.933594 5.441406 C 5.902344 5.453125 5.890625 5.480469 5.90625 5.503906 C 5.921875 5.53125 5.921875 5.539062 5.90625 5.527344 C 5.890625 5.511719 5.84375 5.515625 5.800781 5.53125 C 5.714844 5.566406 5.589844 5.515625 5.621094 5.460938 C 5.636719 5.441406 5.625 5.425781 5.605469 5.425781 C 5.582031 5.425781 5.574219 5.410156 5.585938 5.390625 C 5.597656 5.371094 5.597656 5.335938 5.578125 5.3125 C 5.566406 5.289062 5.546875 5.125 5.542969 4.953125 C 5.53125 4.609375 5.5 3.9375 5.488281 3.734375 C 5.484375 3.667969 5.464844 3.589844 5.453125 3.566406 C 5.433594 3.546875 5.433594 3.507812 5.445312 3.488281 C 5.457031 3.46875 5.449219 3.453125 5.421875 3.453125 C 5.398438 3.453125 5.386719 3.441406 5.402344 3.433594 C 5.414062 3.421875 5.382812 3.371094 5.328125 3.324219 C 5.277344 3.273438 5.265625 3.257812 5.304688 3.28125 C 5.367188 3.328125 5.371094 3.328125 5.324219 3.269531 C 5.300781 3.234375 5.265625 3.21875 5.246094 3.226562 C 5.234375 3.234375 5.191406 3.203125 5.160156 3.152344 C 5.128906 3.109375 5.089844 3.078125 5.070312 3.082031 C 5.058594 3.09375 5.027344 3.070312 5.003906 3.03125 C 4.984375 2.992188 4.953125 2.96875 4.929688 2.976562 C 4.914062 2.992188 4.898438 2.980469 4.898438 2.960938 C 4.898438 2.9375 4.882812 2.933594 4.863281 2.941406 C 4.847656 2.953125 4.828125 2.945312 4.828125 2.925781 C 4.828125 2.902344 4.8125 2.898438 4.792969 2.90625 C 4.773438 2.917969 4.757812 2.914062 4.757812 2.894531 C 4.757812 2.859375 4.707031 2.863281 4.609375 2.90625 C 4.574219 2.921875 4.558594 2.945312 4.566406 2.964844 C 4.578125 2.980469 4.570312 2.996094 4.550781 2.996094 C 4.527344 2.996094 4.523438 3.019531 4.53125 3.046875 C 4.546875 3.078125 4.535156 3.101562 4.511719 3.101562 C 4.488281 3.101562 4.476562 3.121094 4.488281 3.152344 C 4.496094 3.179688 4.496094 3.210938 4.484375 3.226562 C 4.46875 3.238281 4.453125 3.292969 4.449219 3.339844 C 4.410156 3.828125 4.402344 4.058594 4.402344 4.6875 C 4.402344 5.539062 4.414062 5.785156 4.449219 5.839844 C 4.46875 5.863281 4.46875 5.902344 4.457031 5.921875 C 4.445312 5.941406 4.453125 5.980469 4.476562 6.007812 C 4.5 6.035156 4.507812 6.0625 4.492188 6.0625 C 4.480469 6.0625 4.488281 6.082031 4.507812 6.109375 C 4.527344 6.136719 4.535156 6.167969 4.523438 6.179688 C 4.511719 6.191406 4.519531 6.203125 4.542969 6.203125 C 4.566406 6.203125 4.574219 6.214844 4.5625 6.238281 C 4.554688 6.253906 4.558594 6.273438 4.582031 6.273438 C 4.601562 6.273438 4.613281 6.289062 4.601562 6.304688 C 4.59375 6.324219 4.605469 6.347656 4.636719 6.359375 C 4.667969 6.367188 4.679688 6.394531 4.667969 6.414062 C 4.660156 6.433594 4.667969 6.449219 4.6875 6.449219 C 4.707031 6.449219 4.71875 6.464844 4.703125 6.480469 C 4.695312 6.503906 4.71875 6.535156 4.757812 6.554688 C 4.796875 6.578125 4.820312 6.609375 4.8125 6.621094 C 4.804688 6.636719 4.84375 6.683594 4.902344 6.726562 C 4.957031 6.769531 4.996094 6.820312 4.992188 6.832031 C 4.980469 6.851562 5.003906 6.894531 5.050781 6.929688 L 5.128906 6.996094 L 5.0625 6.90625 C 5.023438 6.859375 5.054688 6.882812 5.132812 6.960938 C 5.207031 7.039062 5.277344 7.097656 5.296875 7.089844 C 5.3125 7.085938 5.332031 7.109375 5.34375 7.136719 C 5.351562 7.164062 5.378906 7.179688 5.394531 7.167969 C 5.414062 7.15625 5.425781 7.164062 5.425781 7.1875 C 5.425781 7.207031 5.453125 7.214844 5.480469 7.203125 C 5.507812 7.1875 5.53125 7.199219 5.53125 7.222656 C 5.53125 7.242188 5.558594 7.25 5.585938 7.238281 C 5.613281 7.226562 5.640625 7.230469 5.640625 7.246094 C 5.640625 7.273438 6.0625 7.285156 6.089844 7.261719 C 6.09375 7.257812 6.113281 7.246094 6.132812 7.242188 C 6.152344 7.238281 6.179688 7.226562 6.195312 7.226562 C 6.210938 7.222656 6.230469 7.21875 6.25 7.222656 C 6.261719 7.222656 6.273438 7.207031 6.273438 7.1875 C 6.273438 7.167969 6.289062 7.15625 6.304688 7.167969 C 6.324219 7.179688 6.347656 7.164062 6.359375 7.132812 C 6.367188 7.105469 6.394531 7.089844 6.414062 7.101562 C 6.433594 7.113281 6.449219 7.105469 6.449219 7.085938 C 6.449219 7.066406 6.464844 7.050781 6.480469 7.058594 C 6.5 7.0625 6.539062 7.035156 6.574219 6.996094 C 6.605469 6.957031 6.617188 6.949219 6.605469 6.976562 C 6.589844 7.007812 6.628906 6.984375 6.6875 6.929688 C 6.808594 6.816406 6.828125 6.785156 6.757812 6.820312 C 6.734375 6.832031 6.75 6.8125 6.792969 6.773438 C 6.832031 6.734375 6.859375 6.695312 6.847656 6.683594 C 6.832031 6.671875 6.84375 6.660156 6.867188 6.660156 C 6.894531 6.660156 6.902344 6.644531 6.890625 6.625 C 6.878906 6.605469 6.886719 6.589844 6.90625 6.589844 C 6.929688 6.589844 6.9375 6.574219 6.925781 6.554688 C 6.914062 6.535156 6.921875 6.519531 6.941406 6.519531 C 6.964844 6.519531 6.972656 6.503906 6.960938 6.484375 C 6.949219 6.464844 6.957031 6.449219 6.976562 6.449219 C 7.003906 6.449219 7.011719 6.425781 7 6.394531 C 6.988281 6.367188 6.996094 6.34375 7.015625 6.34375 C 7.039062 6.34375 7.046875 6.320312 7.039062 6.289062 C 7.023438 6.261719 7.03125 6.230469 7.046875 6.21875 C 7.066406 6.210938 7.074219 6.179688 7.0625 6.152344 C 7.050781 6.125 7.058594 6.09375 7.082031 6.082031 C 7.101562 6.070312 7.109375 6.035156 7.097656 6.011719 C 7.085938 5.984375 7.097656 5.953125 7.117188 5.9375 C 7.136719 5.929688 7.148438 5.898438 7.132812 5.882812 C 7.121094 5.863281 7.128906 5.824219 7.152344 5.800781 C 7.171875 5.777344 7.183594 5.730469 7.167969 5.699219 C 7.15625 5.671875 7.167969 5.636719 7.1875 5.621094 C 7.210938 5.605469 7.21875 5.566406 7.207031 5.53125 C 7.191406 5.492188 7.199219 5.460938 7.226562 5.460938 C 7.246094 5.460938 7.253906 5.425781 7.238281 5.375 C 7.226562 5.316406 7.230469 5.285156 7.261719 5.285156 C 7.289062 5.285156 7.296875 5.253906 7.28125 5.203125 C 7.269531 5.152344 7.277344 5.101562 7.296875 5.09375 C 7.316406 5.078125 7.324219 5.039062 7.3125 5 C 7.296875 4.964844 7.300781 4.917969 7.320312 4.890625 C 7.332031 4.867188 7.351562 4.796875 7.355469 4.738281 C 7.363281 4.679688 7.371094 4.53125 7.382812 4.40625 C 7.417969 4.023438 7.40625 3.617188 7.355469 3.535156 C 7.339844 3.511719 7.339844 3.472656 7.351562 3.441406 C 7.367188 3.40625 7.355469 3.382812 7.332031 3.382812 C 7.304688 3.382812 7.296875 3.359375 7.308594 3.332031 C 7.320312 3.300781 7.3125 3.277344 7.292969 3.277344 C 7.269531 3.277344 7.265625 3.261719 7.277344 3.242188 C 7.289062 3.222656 7.28125 3.207031 7.261719 3.207031 C 7.238281 3.207031 7.230469 3.1875 7.242188 3.171875 C 7.253906 3.152344 7.246094 3.136719 7.226562 3.136719 C 7.203125 3.136719 7.1875 3.125 7.195312 3.109375 C 7.203125 3.09375 7.140625 3.015625 7.058594 2.9375 C 6.972656 2.859375 6.90625 2.800781 6.90625 2.816406 C 6.90625 2.828125 6.894531 2.816406 6.875 2.792969 C 6.851562 2.75 6.601562 2.707031 6.585938 2.738281 Z M 6.585938 2.738281 "/>
<path style=" stroke:none;fill-rule:nonzero;fill:rgb(0%,0%,0%);fill-opacity:1;" d="M 7.066406 2.925781 C 7.101562 2.964844 7.136719 2.996094 7.148438 2.996094 C 7.15625 2.996094 7.136719 2.964844 7.101562 2.925781 C 7.066406 2.886719 7.03125 2.855469 7.019531 2.855469 C 7.007812 2.855469 7.03125 2.886719 7.066406 2.925781 Z M 7.066406 2.925781 "/>
<path style=" stroke:none;fill-rule:nonzero;fill:rgb(0%,0%,0%);fill-opacity:1;" d="M 4.019531 3.1875 C 4.019531 3.191406 4.046875 3.222656 4.082031 3.246094 C 4.132812 3.292969 4.136719 3.289062 4.089844 3.230469 C 4.046875 3.175781 4.019531 3.15625 4.019531 3.1875 Z M 4.019531 3.1875 "/>
<path style=" stroke:none;fill-rule:nonzero;fill:rgb(0%,0%,0%);fill-opacity:1;" d="M 12.652344 7.730469 C 12.652344 7.75 12.640625 7.753906 12.628906 7.742188 C 12.59375 7.710938 12.472656 7.824219 12.496094 7.863281 C 12.507812 7.878906 12.496094 7.894531 12.476562 7.894531 C 12.453125 7.894531 12.449219 7.910156 12.457031 7.929688 C 12.46875 7.945312 12.460938 7.964844 12.441406 7.964844 C 12.417969 7.964844 12.410156 7.980469 12.421875 7.996094 C 12.433594 8.015625 12.425781 8.039062 12.410156 8.054688 C 12.386719 8.0625 12.378906 8.09375 12.394531 8.125 C 12.40625 8.152344 12.394531 8.175781 12.375 8.175781 C 12.347656 8.175781 12.34375 8.207031 12.355469 8.261719 C 12.367188 8.304688 12.359375 8.355469 12.339844 8.371094 C 12.316406 8.378906 12.308594 8.429688 12.320312 8.480469 C 12.332031 8.523438 12.324219 8.589844 12.300781 8.617188 C 12.269531 8.648438 12.269531 8.714844 12.28125 8.8125 C 12.296875 8.90625 12.292969 8.972656 12.265625 9.003906 C 12.234375 9.035156 12.230469 9.101562 12.246094 9.183594 C 12.261719 9.269531 12.257812 9.304688 12.234375 9.285156 C 12.210938 9.277344 12.195312 9.28125 12.195312 9.304688 C 12.195312 9.328125 12.164062 9.335938 12.125 9.320312 C 12.089844 9.3125 12.050781 9.316406 12.035156 9.339844 C 12.019531 9.359375 11.980469 9.367188 11.945312 9.355469 C 11.90625 9.34375 11.875 9.351562 11.875 9.375 C 11.875 9.398438 11.847656 9.40625 11.808594 9.390625 C 11.769531 9.382812 11.730469 9.386719 11.71875 9.410156 C 11.703125 9.429688 11.664062 9.4375 11.628906 9.425781 C 11.59375 9.417969 11.554688 9.421875 11.542969 9.445312 C 11.53125 9.464844 11.503906 9.472656 11.484375 9.460938 C 11.46875 9.449219 11.429688 9.457031 11.40625 9.476562 C 11.378906 9.496094 11.332031 9.507812 11.296875 9.496094 C 11.265625 9.480469 11.242188 9.492188 11.242188 9.515625 C 11.242188 9.539062 11.21875 9.550781 11.1875 9.539062 C 11.160156 9.527344 11.128906 9.53125 11.117188 9.554688 C 11.105469 9.570312 11.082031 9.578125 11.066406 9.566406 C 11.046875 9.558594 10.996094 9.589844 10.945312 9.640625 C 10.875 9.710938 10.863281 9.746094 10.878906 9.84375 C 10.894531 9.933594 10.882812 9.96875 10.839844 9.984375 C 10.808594 10 10.785156 9.992188 10.785156 9.96875 C 10.785156 9.949219 10.769531 9.941406 10.753906 9.953125 C 10.734375 9.964844 10.710938 9.949219 10.699219 9.917969 C 10.6875 9.890625 10.664062 9.871094 10.648438 9.882812 C 10.628906 9.890625 10.59375 9.875 10.570312 9.84375 C 10.527344 9.792969 10.527344 9.785156 10.574219 9.8125 C 10.605469 9.824219 10.601562 9.820312 10.566406 9.785156 C 10.53125 9.757812 10.511719 9.726562 10.527344 9.714844 C 10.539062 9.703125 10.53125 9.691406 10.507812 9.691406 C 10.441406 9.691406 10.460938 9.558594 10.535156 9.484375 C 10.574219 9.445312 10.613281 9.421875 10.621094 9.4375 C 10.632812 9.449219 10.644531 9.441406 10.644531 9.421875 C 10.644531 9.394531 10.730469 9.382812 11.082031 9.363281 C 11.179688 9.359375 11.246094 9.332031 11.289062 9.277344 C 11.355469 9.199219 11.371094 9.09375 11.3125 9.09375 C 11.296875 9.09375 11.277344 9.0625 11.277344 9.023438 C 11.277344 8.984375 11.261719 8.953125 11.242188 8.953125 C 11.222656 8.953125 11.210938 8.941406 11.214844 8.921875 C 11.226562 8.894531 10.921875 8.582031 10.882812 8.582031 C 10.867188 8.582031 10.832031 8.550781 10.800781 8.511719 C 10.769531 8.472656 10.753906 8.464844 10.765625 8.492188 C 10.78125 8.527344 10.773438 8.523438 10.738281 8.488281 C 10.710938 8.449219 10.679688 8.433594 10.667969 8.449219 C 10.652344 8.457031 10.644531 8.449219 10.644531 8.425781 C 10.644531 8.402344 10.628906 8.394531 10.609375 8.40625 C 10.589844 8.414062 10.574219 8.410156 10.574219 8.386719 C 10.574219 8.367188 10.558594 8.359375 10.539062 8.371094 C 10.519531 8.378906 10.503906 8.375 10.503906 8.351562 C 10.503906 8.332031 10.488281 8.320312 10.46875 8.335938 C 10.453125 8.34375 10.429688 8.339844 10.414062 8.320312 C 10.402344 8.300781 10.371094 8.292969 10.34375 8.304688 C 10.316406 8.316406 10.289062 8.308594 10.289062 8.296875 C 10.289062 8.277344 10.21875 8.265625 10.132812 8.265625 C 10.042969 8.265625 9.972656 8.273438 9.972656 8.289062 C 9.972656 8.304688 9.949219 8.304688 9.921875 8.296875 C 9.890625 8.28125 9.867188 8.292969 9.867188 8.316406 C 9.867188 8.339844 9.855469 8.34375 9.832031 8.335938 C 9.816406 8.324219 9.796875 8.332031 9.796875 8.351562 C 9.796875 8.375 9.785156 8.378906 9.761719 8.371094 C 9.746094 8.359375 9.726562 8.367188 9.726562 8.386719 C 9.726562 8.410156 9.710938 8.414062 9.691406 8.40625 C 9.675781 8.394531 9.65625 8.402344 9.65625 8.421875 C 9.65625 8.445312 9.640625 8.449219 9.621094 8.441406 C 9.605469 8.429688 9.585938 8.4375 9.585938 8.457031 C 9.585938 8.480469 9.570312 8.488281 9.550781 8.476562 C 9.53125 8.464844 9.515625 8.472656 9.515625 8.492188 C 9.515625 8.515625 9.5 8.523438 9.480469 8.511719 C 9.460938 8.5 9.445312 8.507812 9.445312 8.527344 C 9.445312 8.550781 9.429688 8.558594 9.414062 8.550781 C 9.394531 8.539062 9.371094 8.554688 9.359375 8.585938 C 9.347656 8.617188 9.328125 8.632812 9.316406 8.621094 C 9.304688 8.609375 9.269531 8.628906 9.242188 8.667969 C 9.214844 8.707031 9.175781 8.730469 9.15625 8.71875 C 9.136719 8.703125 9.128906 8.710938 9.140625 8.734375 C 9.152344 8.753906 9.132812 8.792969 9.09375 8.820312 C 9.054688 8.847656 9.03125 8.882812 9.046875 8.890625 C 9.058594 8.90625 9.050781 8.917969 9.027344 8.917969 C 9 8.917969 8.992188 8.929688 9.003906 8.953125 C 9.015625 8.96875 9.007812 8.988281 8.988281 8.988281 C 8.960938 8.988281 8.953125 9.007812 8.960938 9.035156 C 8.972656 9.0625 8.972656 9.097656 8.960938 9.105469 C 8.945312 9.125 8.9375 9.675781 8.953125 9.726562 C 8.957031 9.738281 8.957031 9.753906 8.953125 9.769531 C 8.953125 9.785156 8.96875 9.796875 8.988281 9.796875 C 9.003906 9.796875 9.019531 9.8125 9.011719 9.824219 C 9.007812 9.84375 9.054688 9.898438 9.109375 9.953125 C 9.171875 10.003906 9.191406 10.039062 9.164062 10.027344 C 9.136719 10.015625 9.308594 10.199219 9.550781 10.433594 C 9.792969 10.675781 9.964844 10.855469 9.9375 10.839844 C 9.910156 10.828125 9.933594 10.859375 9.992188 10.910156 C 10.050781 10.964844 10.097656 11.019531 10.097656 11.039062 C 10.097656 11.054688 10.121094 11.082031 10.148438 11.101562 C 10.179688 11.117188 10.1875 11.136719 10.167969 11.136719 C 10.148438 11.136719 10.164062 11.160156 10.199219 11.1875 C 10.238281 11.21875 10.253906 11.242188 10.242188 11.242188 C 10.226562 11.242188 10.242188 11.265625 10.269531 11.296875 C 10.300781 11.328125 10.320312 11.371094 10.308594 11.386719 C 10.292969 11.40625 10.300781 11.417969 10.324219 11.417969 C 10.34375 11.417969 10.351562 11.441406 10.339844 11.46875 C 10.328125 11.496094 10.339844 11.527344 10.359375 11.542969 C 10.390625 11.558594 10.390625 11.582031 10.359375 11.617188 C 10.335938 11.644531 10.328125 11.664062 10.34375 11.664062 C 10.359375 11.664062 10.324219 11.699219 10.273438 11.742188 C 10.183594 11.8125 9.949219 11.851562 9.929688 11.800781 C 9.925781 11.789062 9.898438 11.769531 9.871094 11.765625 C 9.808594 11.75 9.632812 11.585938 9.648438 11.550781 C 9.65625 11.535156 9.640625 11.523438 9.621094 11.523438 C 9.601562 11.523438 9.59375 11.507812 9.605469 11.488281 C 9.613281 11.472656 9.605469 11.453125 9.585938 11.453125 C 9.5625 11.453125 9.554688 11.429688 9.566406 11.402344 C 9.574219 11.371094 9.5625 11.335938 9.53125 11.324219 C 9.457031 11.296875 9.304688 11.378906 9.328125 11.441406 C 9.339844 11.46875 9.328125 11.488281 9.304688 11.488281 C 9.28125 11.488281 9.277344 11.503906 9.285156 11.523438 C 9.296875 11.542969 9.296875 11.582031 9.28125 11.601562 C 9.242188 11.660156 9.242188 12.265625 9.277344 12.289062 C 9.292969 12.296875 9.296875 12.335938 9.285156 12.375 C 9.273438 12.414062 9.277344 12.441406 9.304688 12.441406 C 9.324219 12.441406 9.332031 12.453125 9.320312 12.476562 C 9.3125 12.492188 9.316406 12.511719 9.335938 12.511719 C 9.355469 12.511719 9.371094 12.523438 9.363281 12.542969 C 9.359375 12.558594 9.386719 12.601562 9.425781 12.632812 C 9.464844 12.667969 9.472656 12.683594 9.445312 12.667969 C 9.417969 12.65625 9.449219 12.699219 9.515625 12.757812 C 9.582031 12.816406 9.613281 12.855469 9.585938 12.84375 C 9.558594 12.828125 9.621094 12.90625 9.726562 13.015625 C 9.929688 13.222656 9.960938 13.246094 9.921875 13.171875 C 9.90625 13.148438 9.921875 13.15625 9.949219 13.1875 C 9.976562 13.222656 10.007812 13.242188 10.019531 13.226562 C 10.035156 13.214844 10.042969 13.222656 10.042969 13.242188 C 10.042969 13.265625 10.070312 13.277344 10.097656 13.265625 C 10.125 13.25 10.148438 13.261719 10.148438 13.28125 C 10.148438 13.304688 10.207031 13.320312 10.273438 13.320312 C 10.339844 13.320312 10.394531 13.304688 10.394531 13.28125 C 10.394531 13.261719 10.421875 13.25 10.449219 13.261719 C 10.476562 13.277344 10.507812 13.269531 10.519531 13.246094 C 10.535156 13.230469 10.558594 13.222656 10.578125 13.234375 C 10.59375 13.246094 10.609375 13.238281 10.609375 13.214844 C 10.609375 13.195312 10.625 13.1875 10.644531 13.199219 C 10.664062 13.207031 10.679688 13.203125 10.679688 13.179688 C 10.679688 13.160156 10.695312 13.152344 10.714844 13.164062 C 10.734375 13.171875 10.75 13.167969 10.75 13.144531 C 10.75 13.125 10.765625 13.117188 10.785156 13.128906 C 10.804688 13.136719 10.828125 13.125 10.839844 13.097656 C 10.851562 13.0625 10.875 13.046875 10.894531 13.058594 C 10.90625 13.066406 10.9375 13.042969 10.960938 13.003906 C 10.980469 12.964844 11.007812 12.9375 11.027344 12.945312 C 11.046875 12.949219 11.089844 12.914062 11.132812 12.863281 C 11.179688 12.8125 11.199219 12.800781 11.1875 12.828125 C 11.171875 12.855469 11.238281 12.800781 11.332031 12.703125 C 11.429688 12.605469 11.503906 12.519531 11.496094 12.5 C 11.488281 12.488281 11.503906 12.476562 11.523438 12.476562 C 11.546875 12.476562 11.550781 12.457031 11.542969 12.441406 C 11.53125 12.417969 11.539062 12.40625 11.558594 12.40625 C 11.582031 12.40625 11.585938 12.386719 11.578125 12.371094 C 11.566406 12.347656 11.566406 12.316406 11.582031 12.292969 C 11.648438 12.1875 11.652344 11.453125 11.585938 11.453125 C 11.566406 11.453125 11.558594 11.429688 11.570312 11.402344 C 11.585938 11.371094 11.578125 11.339844 11.554688 11.332031 C 11.539062 11.316406 11.53125 11.296875 11.542969 11.277344 C 11.550781 11.261719 11.546875 11.238281 11.523438 11.226562 C 11.503906 11.210938 11.496094 11.1875 11.507812 11.171875 C 11.515625 11.152344 11.511719 11.132812 11.488281 11.117188 C 11.46875 11.105469 11.460938 11.082031 11.472656 11.0625 C 11.484375 11.046875 11.476562 11.03125 11.457031 11.03125 C 11.4375 11.03125 11.417969 11.015625 11.417969 11 C 11.417969 10.984375 11.492188 10.972656 11.585938 10.96875 C 11.679688 10.96875 11.835938 10.953125 11.941406 10.941406 C 12.054688 10.925781 12.125 10.933594 12.125 10.953125 C 12.125 10.972656 12.15625 11.003906 12.195312 11.011719 C 12.234375 11.027344 12.257812 11.046875 12.246094 11.066406 C 12.234375 11.082031 12.246094 11.109375 12.269531 11.117188 C 12.289062 11.136719 12.296875 11.179688 12.277344 11.238281 C 12.242188 11.363281 12.238281 12.125 12.273438 12.125 C 12.292969 12.125 12.292969 12.15625 12.28125 12.195312 C 12.269531 12.234375 12.273438 12.265625 12.296875 12.265625 C 12.316406 12.265625 12.335938 12.273438 12.332031 12.289062 C 12.324219 12.347656 12.378906 12.476562 12.414062 12.476562 C 12.4375 12.476562 12.445312 12.488281 12.429688 12.496094 C 12.417969 12.511719 12.445312 12.550781 12.488281 12.589844 C 12.527344 12.628906 12.539062 12.644531 12.511719 12.628906 C 12.484375 12.617188 12.527344 12.679688 12.613281 12.769531 C 12.703125 12.859375 12.777344 12.921875 12.785156 12.917969 C 12.796875 12.90625 12.824219 12.917969 12.851562 12.941406 C 12.917969 12.992188 13.066406 13.007812 13.097656 12.964844 C 13.105469 12.949219 13.132812 12.941406 13.148438 12.953125 C 13.167969 12.964844 13.179688 12.953125 13.179688 12.933594 C 13.179688 12.910156 13.203125 12.898438 13.230469 12.910156 C 13.257812 12.917969 13.289062 12.90625 13.300781 12.878906 C 13.3125 12.847656 13.335938 12.832031 13.351562 12.84375 C 13.371094 12.851562 13.402344 12.839844 13.425781 12.8125 C 13.453125 12.78125 13.460938 12.757812 13.441406 12.757812 C 13.421875 12.757812 13.441406 12.734375 13.476562 12.703125 C 13.515625 12.675781 13.53125 12.652344 13.519531 12.652344 C 13.5 12.652344 13.507812 12.628906 13.53125 12.597656 C 13.554688 12.570312 13.566406 12.53125 13.550781 12.511719 C 13.535156 12.488281 13.546875 12.449219 13.566406 12.421875 C 13.601562 12.386719 13.605469 12.296875 13.589844 12.132812 C 13.546875 11.722656 13.53125 11.546875 13.523438 11.402344 C 13.515625 11.324219 13.503906 11.242188 13.496094 11.226562 C 13.492188 11.203125 13.484375 11.117188 13.476562 11.03125 C 13.472656 10.941406 13.460938 10.824219 13.445312 10.761719 C 13.425781 10.683594 13.4375 10.632812 13.484375 10.578125 C 13.519531 10.539062 13.558594 10.511719 13.574219 10.523438 C 13.589844 10.535156 13.605469 10.523438 13.605469 10.503906 C 13.605469 10.480469 13.621094 10.472656 13.640625 10.484375 C 13.660156 10.496094 13.675781 10.488281 13.675781 10.46875 C 13.675781 10.445312 13.6875 10.433594 13.707031 10.449219 C 13.722656 10.460938 13.746094 10.453125 13.761719 10.433594 C 13.777344 10.410156 13.800781 10.402344 13.820312 10.414062 C 13.835938 10.429688 13.851562 10.417969 13.851562 10.394531 C 13.851562 10.371094 13.875 10.359375 13.902344 10.375 C 13.929688 10.386719 13.957031 10.378906 13.957031 10.359375 C 13.957031 10.335938 13.980469 10.324219 14.007812 10.339844 C 14.035156 10.351562 14.0625 10.34375 14.0625 10.324219 C 14.0625 10.300781 14.085938 10.289062 14.113281 10.304688 C 14.144531 10.316406 14.167969 10.308594 14.167969 10.289062 C 14.167969 10.265625 14.191406 10.253906 14.21875 10.269531 C 14.25 10.28125 14.273438 10.273438 14.273438 10.253906 C 14.273438 10.230469 14.296875 10.21875 14.324219 10.234375 C 14.355469 10.246094 14.378906 10.238281 14.378906 10.214844 C 14.378906 10.195312 14.402344 10.183594 14.433594 10.199219 C 14.460938 10.210938 14.484375 10.203125 14.484375 10.183594 C 14.484375 10.167969 14.507812 10.160156 14.539062 10.171875 C 14.566406 10.183594 14.589844 10.175781 14.589844 10.148438 C 14.589844 10.128906 14.609375 10.121094 14.625 10.132812 C 14.648438 10.144531 14.660156 10.136719 14.660156 10.113281 C 14.660156 10.089844 14.683594 10.078125 14.714844 10.09375 C 14.742188 10.105469 14.765625 10.097656 14.765625 10.074219 C 14.765625 10.054688 14.78125 10.046875 14.796875 10.0625 C 14.816406 10.070312 14.839844 10.066406 14.855469 10.042969 C 14.867188 10.023438 14.894531 10.015625 14.910156 10.027344 C 14.929688 10.039062 14.941406 10.03125 14.941406 10.007812 C 14.941406 9.988281 14.960938 9.980469 14.976562 9.992188 C 15 10 15.011719 9.996094 15.011719 9.972656 C 15.011719 9.953125 15.03125 9.945312 15.046875 9.957031 C 15.070312 9.964844 15.082031 9.960938 15.082031 9.9375 C 15.082031 9.917969 15.101562 9.910156 15.117188 9.921875 C 15.140625 9.929688 15.152344 9.925781 15.152344 9.902344 C 15.152344 9.882812 15.171875 9.875 15.1875 9.886719 C 15.210938 9.894531 15.226562 9.890625 15.226562 9.871094 C 15.226562 9.851562 15.234375 9.835938 15.253906 9.839844 C 15.265625 9.847656 15.324219 9.804688 15.375 9.746094 C 15.457031 9.667969 15.476562 9.613281 15.480469 9.460938 C 15.488281 9.351562 15.476562 9.269531 15.460938 9.269531 C 15.445312 9.269531 15.441406 9.25 15.453125 9.230469 C 15.46875 9.207031 15.449219 9.171875 15.414062 9.144531 C 15.375 9.117188 15.359375 9.09375 15.371094 9.09375 C 15.382812 9.09375 15.328125 9.027344 15.246094 8.945312 C 15.167969 8.863281 15.089844 8.800781 15.078125 8.804688 C 15.058594 8.808594 15.046875 8.792969 15.046875 8.773438 C 15.046875 8.753906 15.035156 8.746094 15.011719 8.757812 C 14.996094 8.769531 14.976562 8.769531 14.976562 8.75 C 14.976562 8.738281 14.695312 8.722656 14.351562 8.722656 C 13.789062 8.722656 13.71875 8.714844 13.664062 8.660156 C 13.617188 8.613281 13.605469 8.558594 13.613281 8.5 C 13.625 8.441406 13.609375 8.390625 13.574219 8.359375 C 13.53125 8.328125 13.53125 8.320312 13.566406 8.339844 C 13.597656 8.355469 13.5 8.25 13.355469 8.109375 C 13.210938 7.964844 13.078125 7.851562 13.0625 7.851562 C 13.050781 7.855469 13.027344 7.835938 13.019531 7.804688 C 13.007812 7.777344 12.984375 7.765625 12.964844 7.773438 C 12.949219 7.785156 12.933594 7.773438 12.933594 7.753906 C 12.933594 7.730469 12.917969 7.722656 12.902344 7.734375 C 12.882812 7.746094 12.859375 7.738281 12.847656 7.722656 C 12.820312 7.679688 12.652344 7.683594 12.652344 7.730469 Z M 12.652344 7.730469 "/>
<path style=" stroke:none;fill-rule:nonzero;fill:rgb(0%,0%,0%);fill-opacity:1;" d="M 13.320312 8.054688 C 13.367188 8.101562 13.414062 8.140625 13.421875 8.140625 C 13.429688 8.140625 13.402344 8.101562 13.355469 8.054688 C 13.3125 8.003906 13.265625 7.964844 13.257812 7.964844 C 13.246094 7.964844 13.277344 8.003906 13.320312 8.054688 Z M 13.320312 8.054688 "/>
<path style=" stroke:none;fill-rule:nonzero;fill:rgb(0%,0%,0%);fill-opacity:1;" d="M 4.246094 8.8125 C 4.234375 8.835938 4.199219 8.84375 4.171875 8.832031 C 4.144531 8.820312 4.125 8.828125 4.125 8.847656 C 4.125 8.871094 4.109375 8.878906 4.089844 8.867188 C 4.078125 8.855469 4.023438 8.886719 3.980469 8.933594 C 3.9375 8.984375 3.914062 9.023438 3.933594 9.023438 C 3.949219 9.023438 3.9375 9.039062 3.902344 9.0625 C 3.871094 9.082031 3.847656 9.109375 3.859375 9.128906 C 3.871094 9.144531 3.863281 9.167969 3.839844 9.179688 C 3.820312 9.195312 3.8125 9.21875 3.824219 9.238281 C 3.835938 9.253906 3.828125 9.269531 3.804688 9.269531 C 3.78125 9.269531 3.769531 9.292969 3.78125 9.320312 C 3.796875 9.351562 3.789062 9.382812 3.765625 9.390625 C 3.75 9.40625 3.742188 9.429688 3.757812 9.449219 C 3.765625 9.464844 3.757812 9.503906 3.734375 9.53125 C 3.714844 9.5625 3.703125 9.601562 3.71875 9.621094 C 3.730469 9.640625 3.730469 9.6875 3.714844 9.71875 C 3.679688 9.789062 3.667969 9.945312 3.648438 10.554688 C 3.640625 10.804688 3.628906 11.074219 3.625 11.144531 C 3.625 11.21875 3.605469 11.277344 3.585938 11.277344 C 3.566406 11.277344 3.558594 11.296875 3.566406 11.320312 C 3.585938 11.371094 3.472656 11.496094 3.441406 11.460938 C 3.429688 11.449219 3.417969 11.457031 3.417969 11.476562 C 3.417969 11.492188 3.328125 11.507812 3.21875 11.507812 C 3.074219 11.507812 2.996094 11.488281 2.953125 11.441406 C 2.882812 11.375 2.867188 11.1875 2.925781 11.152344 C 2.945312 11.140625 2.953125 11.101562 2.941406 11.0625 C 2.929688 11.023438 2.9375 10.996094 2.960938 10.996094 C 2.984375 10.996094 2.992188 10.96875 2.976562 10.925781 C 2.964844 10.882812 2.972656 10.855469 2.996094 10.855469 C 3.019531 10.855469 3.027344 10.828125 3.011719 10.789062 C 3.003906 10.75 3.007812 10.710938 3.027344 10.699219 C 3.074219 10.671875 3.070312 10.261719 3.027344 10.234375 C 3.007812 10.222656 3.003906 10.183594 3.011719 10.144531 C 3.027344 10.109375 3.019531 10.078125 3 10.078125 C 2.976562 10.078125 2.972656 10.054688 2.980469 10.027344 C 2.996094 10 2.984375 9.972656 2.960938 9.972656 C 2.9375 9.972656 2.933594 9.957031 2.941406 9.9375 C 2.953125 9.917969 2.945312 9.902344 2.925781 9.902344 C 2.902344 9.902344 2.898438 9.886719 2.90625 9.867188 C 2.917969 9.847656 2.910156 9.832031 2.890625 9.832031 C 2.867188 9.832031 2.859375 9.820312 2.867188 9.800781 C 2.878906 9.785156 2.863281 9.757812 2.832031 9.746094 C 2.804688 9.738281 2.789062 9.710938 2.796875 9.699219 C 2.824219 9.660156 2.628906 9.46875 2.597656 9.5 C 2.582031 9.515625 2.566406 9.496094 2.550781 9.464844 C 2.539062 9.433594 2.515625 9.421875 2.5 9.429688 C 2.480469 9.441406 2.46875 9.429688 2.46875 9.414062 C 2.46875 9.390625 2.457031 9.378906 2.441406 9.378906 C 2.425781 9.382812 2.40625 9.378906 2.394531 9.375 C 2.300781 9.335938 2.035156 9.320312 1.890625 9.347656 C 1.808594 9.359375 1.664062 9.488281 1.679688 9.523438 C 1.6875 9.539062 1.679688 9.550781 1.660156 9.550781 C 1.640625 9.550781 1.632812 9.570312 1.640625 9.601562 C 1.652344 9.628906 1.644531 9.660156 1.625 9.675781 C 1.605469 9.683594 1.597656 9.734375 1.605469 9.78125 C 1.617188 9.824219 1.613281 9.886719 1.597656 9.910156 C 1.582031 9.933594 1.566406 10.160156 1.5625 10.414062 C 1.546875 11.179688 1.53125 11.507812 1.5 11.550781 C 1.488281 11.574219 1.484375 11.609375 1.496094 11.628906 C 1.523438 11.667969 1.390625 11.808594 1.359375 11.777344 C 1.351562 11.765625 1.339844 11.777344 1.339844 11.800781 C 1.339844 11.832031 1.316406 11.839844 1.285156 11.828125 C 1.257812 11.816406 1.234375 11.824219 1.234375 11.84375 C 1.234375 11.867188 1.207031 11.875 1.179688 11.863281 C 1.152344 11.851562 1.128906 11.859375 1.128906 11.878906 C 1.128906 11.902344 1.101562 11.910156 1.074219 11.902344 C 1.046875 11.886719 1.015625 11.894531 1.003906 11.910156 C 0.992188 11.929688 0.960938 11.9375 0.933594 11.921875 C 0.90625 11.910156 0.882812 11.921875 0.882812 11.945312 C 0.882812 11.96875 0.867188 11.980469 0.847656 11.964844 C 0.832031 11.953125 0.808594 11.960938 0.792969 11.980469 C 0.777344 12.003906 0.753906 12.011719 0.738281 12 C 0.71875 11.984375 0.703125 11.996094 0.703125 12.019531 C 0.703125 12.046875 0.695312 12.054688 0.683594 12.046875 C 0.671875 12.035156 0.628906 12.058594 0.589844 12.101562 C 0.53125 12.160156 0.511719 12.222656 0.511719 12.34375 C 0.511719 12.4375 0.523438 12.511719 0.535156 12.511719 C 0.550781 12.511719 0.554688 12.535156 0.542969 12.5625 C 0.527344 12.59375 0.539062 12.617188 0.5625 12.617188 C 0.585938 12.617188 0.59375 12.632812 0.582031 12.652344 C 0.570312 12.671875 0.578125 12.6875 0.59375 12.6875 C 0.617188 12.6875 0.628906 12.699219 0.628906 12.710938 C 0.621094 12.730469 0.664062 12.78125 0.714844 12.835938 C 0.769531 12.886719 0.8125 12.917969 0.8125 12.90625 C 0.8125 12.890625 0.835938 12.914062 0.867188 12.953125 C 0.894531 12.992188 0.929688 13.023438 0.945312 13.027344 C 0.976562 13.027344 1.460938 13.507812 1.460938 13.539062 C 1.460938 13.554688 1.496094 13.589844 1.53125 13.621094 C 1.570312 13.652344 1.578125 13.671875 1.550781 13.65625 C 1.523438 13.640625 1.53125 13.660156 1.566406 13.6875 C 1.605469 13.71875 1.621094 13.746094 1.601562 13.746094 C 1.582031 13.746094 1.597656 13.761719 1.632812 13.785156 C 1.664062 13.804688 1.683594 13.832031 1.675781 13.855469 C 1.660156 13.871094 1.671875 13.886719 1.6875 13.886719 C 1.710938 13.886719 1.722656 13.898438 1.714844 13.917969 C 1.710938 13.929688 1.746094 13.980469 1.796875 14.023438 C 1.847656 14.070312 1.859375 14.089844 1.832031 14.074219 C 1.804688 14.0625 1.824219 14.101562 1.882812 14.160156 C 1.9375 14.21875 2 14.261719 2.015625 14.253906 C 2.03125 14.242188 2.054688 14.257812 2.066406 14.289062 C 2.074219 14.320312 2.101562 14.332031 2.117188 14.324219 C 2.136719 14.3125 2.160156 14.328125 2.171875 14.359375 C 2.179688 14.390625 2.207031 14.402344 2.222656 14.394531 C 2.242188 14.382812 2.253906 14.394531 2.253906 14.414062 C 2.253906 14.4375 2.28125 14.449219 2.308594 14.433594 C 2.335938 14.425781 2.359375 14.429688 2.359375 14.445312 C 2.359375 14.464844 2.425781 14.472656 2.503906 14.46875 C 2.578125 14.46875 2.644531 14.453125 2.644531 14.433594 C 2.644531 14.417969 2.652344 14.410156 2.664062 14.421875 C 2.6875 14.449219 2.84375 14.296875 2.828125 14.261719 C 2.824219 14.25 2.828125 14.238281 2.84375 14.238281 C 2.878906 14.238281 2.878906 13.742188 2.84375 13.679688 C 2.828125 13.65625 2.824219 13.605469 2.835938 13.570312 C 2.847656 13.53125 2.839844 13.496094 2.820312 13.480469 C 2.792969 13.464844 2.789062 13.417969 2.796875 13.375 C 2.808594 13.328125 2.804688 13.277344 2.785156 13.269531 C 2.691406 13.210938 2.816406 12.960938 2.917969 12.996094 C 2.941406 13.003906 2.960938 12.992188 2.960938 12.96875 C 2.960938 12.945312 2.988281 12.9375 3.03125 12.953125 C 3.074219 12.964844 3.101562 12.957031 3.101562 12.933594 C 3.101562 12.910156 3.125 12.898438 3.152344 12.914062 C 3.183594 12.921875 3.207031 12.917969 3.207031 12.894531 C 3.207031 12.875 3.230469 12.863281 3.261719 12.878906 C 3.289062 12.886719 3.3125 12.882812 3.3125 12.859375 C 3.3125 12.839844 3.328125 12.835938 3.347656 12.847656 C 3.367188 12.855469 3.414062 12.828125 3.453125 12.78125 C 3.570312 12.648438 3.71875 12.675781 3.910156 12.867188 C 3.996094 12.953125 4.066406 13.03125 4.070312 13.042969 C 4.070312 13.058594 4.109375 13.101562 4.160156 13.144531 C 4.207031 13.1875 4.222656 13.207031 4.195312 13.195312 C 4.160156 13.175781 4.164062 13.191406 4.207031 13.242188 C 4.242188 13.285156 4.289062 13.3125 4.304688 13.300781 C 4.320312 13.289062 4.335938 13.300781 4.335938 13.320312 C 4.335938 13.34375 4.351562 13.351562 4.371094 13.339844 C 4.390625 13.328125 4.40625 13.335938 4.40625 13.351562 C 4.40625 13.375 4.417969 13.386719 4.4375 13.382812 C 4.449219 13.378906 4.5 13.414062 4.542969 13.460938 C 4.589844 13.511719 4.613281 13.527344 4.597656 13.496094 C 4.585938 13.46875 4.601562 13.476562 4.632812 13.515625 C 4.667969 13.554688 4.707031 13.582031 4.726562 13.578125 C 4.742188 13.570312 4.757812 13.585938 4.757812 13.605469 C 4.757812 13.625 4.773438 13.632812 4.792969 13.621094 C 4.8125 13.609375 4.828125 13.617188 4.828125 13.640625 C 4.828125 13.660156 4.847656 13.667969 4.863281 13.65625 C 4.882812 13.644531 4.898438 13.652344 4.898438 13.671875 C 4.898438 13.746094 5.066406 13.707031 5.171875 13.605469 C 5.238281 13.542969 5.285156 13.492188 5.285156 13.480469 C 5.285156 13.46875 5.285156 13.460938 5.289062 13.453125 C 5.304688 13.386719 5.296875 13.109375 5.277344 13.109375 C 5.265625 13.109375 5.261719 13.085938 5.273438 13.058594 C 5.285156 13.027344 5.277344 13.003906 5.25 13.003906 C 5.230469 13.003906 5.222656 12.992188 5.234375 12.96875 C 5.242188 12.949219 5.238281 12.933594 5.214844 12.933594 C 5.191406 12.933594 5.179688 12.910156 5.195312 12.882812 C 5.207031 12.851562 5.199219 12.828125 5.175781 12.828125 C 5.15625 12.828125 5.144531 12.804688 5.15625 12.773438 C 5.171875 12.746094 5.164062 12.714844 5.140625 12.703125 C 5.121094 12.691406 5.113281 12.660156 5.125 12.628906 C 5.136719 12.605469 5.128906 12.574219 5.105469 12.558594 C 5.085938 12.550781 5.078125 12.515625 5.089844 12.488281 C 5.101562 12.453125 5.09375 12.410156 5.070312 12.382812 C 5.050781 12.359375 5.042969 12.320312 5.058594 12.300781 C 5.070312 12.277344 5.0625 12.238281 5.039062 12.210938 C 5.015625 12.183594 5.007812 12.132812 5.019531 12.101562 C 5.027344 12.070312 5.027344 12.027344 5.015625 12.007812 C 4.996094 11.980469 4.984375 11.914062 4.980469 11.859375 C 4.960938 11.65625 4.9375 11.363281 4.914062 11.160156 C 4.898438 11.03125 4.90625 10.9375 4.929688 10.910156 C 4.953125 10.886719 4.960938 10.835938 4.949219 10.804688 C 4.933594 10.773438 4.945312 10.75 4.96875 10.75 C 4.992188 10.75 5.003906 10.722656 4.992188 10.695312 C 4.980469 10.667969 4.988281 10.636719 5.007812 10.625 C 5.027344 10.613281 5.03125 10.585938 5.019531 10.570312 C 5.007812 10.550781 5.015625 10.511719 5.035156 10.488281 C 5.058594 10.464844 5.066406 10.414062 5.054688 10.382812 C 5.042969 10.351562 5.050781 10.324219 5.074219 10.324219 C 5.097656 10.324219 5.105469 10.296875 5.09375 10.253906 C 5.078125 10.214844 5.082031 10.164062 5.097656 10.140625 C 5.136719 10.085938 5.136719 9.445312 5.097656 9.382812 C 5.082031 9.359375 5.082031 9.339844 5.097656 9.339844 C 5.105469 9.339844 5.097656 9.316406 5.074219 9.285156 C 5.050781 9.257812 5.042969 9.234375 5.0625 9.234375 C 5.074219 9.234375 5.058594 9.207031 5.019531 9.175781 C 4.984375 9.148438 4.976562 9.136719 5.003906 9.148438 C 5.03125 9.164062 5.011719 9.125 4.953125 9.0625 C 4.898438 9.003906 4.839844 8.960938 4.820312 8.972656 C 4.808594 8.984375 4.792969 8.972656 4.792969 8.953125 C 4.792969 8.929688 4.777344 8.921875 4.757812 8.933594 C 4.738281 8.945312 4.722656 8.9375 4.722656 8.917969 C 4.722656 8.894531 4.707031 8.886719 4.6875 8.898438 C 4.667969 8.910156 4.652344 8.902344 4.652344 8.882812 C 4.652344 8.859375 4.636719 8.847656 4.621094 8.863281 C 4.601562 8.875 4.578125 8.867188 4.5625 8.847656 C 4.554688 8.828125 4.523438 8.820312 4.496094 8.832031 C 4.46875 8.84375 4.4375 8.835938 4.421875 8.8125 C 4.414062 8.792969 4.371094 8.773438 4.335938 8.773438 C 4.300781 8.773438 4.257812 8.792969 4.246094 8.8125 Z M 3.949219 12.851562 C 3.996094 12.910156 3.992188 12.914062 3.941406 12.867188 C 3.90625 12.84375 3.875 12.8125 3.875 12.808594 C 3.875 12.777344 3.90625 12.796875 3.949219 12.851562 Z M 1.25 13.25 C 1.285156 13.289062 1.308594 13.320312 1.296875 13.320312 C 1.285156 13.320312 1.25 13.289062 1.214844 13.25 C 1.179688 13.210938 1.160156 13.179688 1.171875 13.179688 C 1.179688 13.179688 1.214844 13.210938 1.25 13.25 Z M 1.25 13.25 "/>
<path style=" stroke:none;fill-rule:nonzero;fill:rgb(0%,0%,0%);fill-opacity:1;" d="M 6.601562 9.207031 C 6.589844 9.226562 6.5625 9.230469 6.535156 9.21875 C 6.503906 9.207031 6.484375 9.214844 6.484375 9.238281 C 6.484375 9.257812 6.460938 9.269531 6.433594 9.253906 C 6.402344 9.242188 6.378906 9.25 6.378906 9.273438 C 6.378906 9.292969 6.363281 9.296875 6.34375 9.285156 C 6.324219 9.277344 6.308594 9.28125 6.308594 9.304688 C 6.308594 9.324219 6.292969 9.335938 6.277344 9.320312 C 6.257812 9.3125 6.21875 9.324219 6.191406 9.351562 C 6.164062 9.382812 6.132812 9.394531 6.117188 9.386719 C 6.109375 9.371094 6.097656 9.382812 6.097656 9.40625 C 6.097656 9.429688 6.082031 9.441406 6.066406 9.429688 C 6.046875 9.421875 6.023438 9.433594 6.011719 9.464844 C 6 9.496094 5.980469 9.519531 5.972656 9.507812 C 5.949219 9.484375 5.652344 9.773438 5.667969 9.804688 C 5.675781 9.820312 5.660156 9.832031 5.640625 9.832031 C 5.617188 9.832031 5.609375 9.847656 5.621094 9.867188 C 5.632812 9.886719 5.625 9.902344 5.605469 9.902344 C 5.582031 9.902344 5.574219 9.917969 5.585938 9.9375 C 5.597656 9.957031 5.589844 9.972656 5.566406 9.972656 C 5.546875 9.972656 5.539062 9.988281 5.550781 10.007812 C 5.5625 10.027344 5.554688 10.042969 5.53125 10.042969 C 5.507812 10.042969 5.496094 10.070312 5.511719 10.097656 C 5.523438 10.125 5.515625 10.148438 5.496094 10.148438 C 5.480469 10.148438 5.472656 10.175781 5.484375 10.203125 C 5.496094 10.230469 5.488281 10.253906 5.460938 10.253906 C 5.4375 10.253906 5.425781 10.28125 5.4375 10.308594 C 5.453125 10.335938 5.445312 10.367188 5.421875 10.378906 C 5.40625 10.394531 5.398438 10.417969 5.414062 10.433594 C 5.421875 10.453125 5.417969 10.492188 5.394531 10.515625 C 5.375 10.539062 5.363281 10.585938 5.378906 10.617188 C 5.386719 10.648438 5.382812 10.683594 5.359375 10.691406 C 5.339844 10.707031 5.332031 10.761719 5.34375 10.816406 C 5.351562 10.871094 5.351562 10.925781 5.332031 10.9375 C 5.296875 10.957031 5.300781 11.671875 5.335938 11.730469 C 5.351562 11.753906 5.351562 11.785156 5.339844 11.804688 C 5.328125 11.824219 5.335938 11.839844 5.355469 11.839844 C 5.378906 11.839844 5.386719 11.855469 5.375 11.875 C 5.363281 11.890625 5.378906 11.929688 5.40625 11.957031 C 5.433594 11.984375 5.449219 12.019531 5.4375 12.03125 C 5.421875 12.042969 5.433594 12.054688 5.457031 12.054688 C 5.480469 12.054688 5.496094 12.066406 5.488281 12.085938 C 5.484375 12.101562 5.511719 12.144531 5.550781 12.175781 C 5.589844 12.207031 5.597656 12.222656 5.566406 12.210938 C 5.539062 12.199219 5.566406 12.230469 5.621094 12.28125 C 5.679688 12.332031 5.703125 12.367188 5.675781 12.351562 C 5.644531 12.339844 5.679688 12.382812 5.757812 12.449219 C 5.832031 12.519531 5.949219 12.632812 6.015625 12.707031 C 6.082031 12.785156 6.128906 12.820312 6.113281 12.792969 C 6.101562 12.765625 6.121094 12.773438 6.160156 12.816406 C 6.199219 12.859375 6.238281 12.882812 6.253906 12.875 C 6.261719 12.863281 6.28125 12.882812 6.292969 12.914062 C 6.304688 12.945312 6.328125 12.957031 6.347656 12.949219 C 6.363281 12.9375 6.390625 12.953125 6.398438 12.984375 C 6.410156 13.015625 6.433594 13.027344 6.453125 13.019531 C 6.46875 13.007812 6.484375 13.019531 6.484375 13.039062 C 6.484375 13.0625 6.503906 13.066406 6.519531 13.058594 C 6.539062 13.046875 6.554688 13.054688 6.554688 13.074219 C 6.554688 13.097656 6.570312 13.105469 6.585938 13.09375 C 6.605469 13.082031 6.628906 13.089844 6.644531 13.109375 C 6.65625 13.132812 6.679688 13.136719 6.695312 13.128906 C 6.714844 13.117188 6.734375 13.121094 6.742188 13.136719 C 6.765625 13.171875 7.191406 13.171875 7.253906 13.132812 C 7.277344 13.117188 7.328125 13.117188 7.367188 13.128906 C 7.40625 13.140625 7.4375 13.136719 7.4375 13.109375 C 7.4375 13.085938 7.460938 13.074219 7.488281 13.085938 C 7.515625 13.097656 7.550781 13.09375 7.558594 13.070312 C 7.574219 13.054688 7.59375 13.046875 7.613281 13.058594 C 7.628906 13.066406 7.652344 13.0625 7.664062 13.039062 C 7.679688 13.019531 7.703125 13.011719 7.722656 13.023438 C 7.738281 13.035156 7.753906 13.027344 7.753906 13.003906 C 7.753906 12.984375 7.769531 12.976562 7.789062 12.988281 C 7.808594 12.996094 7.824219 12.992188 7.824219 12.96875 C 7.824219 12.949219 7.839844 12.941406 7.859375 12.953125 C 7.878906 12.960938 7.894531 12.953125 7.894531 12.9375 C 7.894531 12.917969 7.90625 12.902344 7.921875 12.910156 C 7.953125 12.917969 8.125 12.746094 8.117188 12.714844 C 8.109375 12.699219 8.125 12.6875 8.144531 12.6875 C 8.164062 12.6875 8.167969 12.667969 8.160156 12.652344 C 8.148438 12.628906 8.164062 12.605469 8.191406 12.59375 C 8.222656 12.585938 8.234375 12.558594 8.226562 12.542969 C 8.214844 12.523438 8.226562 12.511719 8.246094 12.511719 C 8.269531 12.511719 8.273438 12.492188 8.265625 12.476562 C 8.253906 12.453125 8.269531 12.429688 8.296875 12.417969 C 8.328125 12.410156 8.34375 12.382812 8.332031 12.367188 C 8.320312 12.347656 8.332031 12.335938 8.351562 12.335938 C 8.375 12.335938 8.378906 12.316406 8.371094 12.300781 C 8.359375 12.277344 8.367188 12.265625 8.386719 12.265625 C 8.410156 12.265625 8.414062 12.246094 8.40625 12.230469 C 8.394531 12.207031 8.402344 12.195312 8.421875 12.195312 C 8.445312 12.195312 8.449219 12.175781 8.441406 12.160156 C 8.429688 12.136719 8.4375 12.125 8.457031 12.125 C 8.480469 12.125 8.488281 12.105469 8.476562 12.089844 C 8.464844 12.066406 8.472656 12.054688 8.492188 12.054688 C 8.515625 12.054688 8.523438 12.035156 8.511719 12.019531 C 8.5 11.996094 8.507812 11.980469 8.527344 11.980469 C 8.550781 11.980469 8.558594 11.964844 8.546875 11.945312 C 8.535156 11.925781 8.542969 11.910156 8.5625 11.910156 C 8.585938 11.910156 8.59375 11.898438 8.582031 11.878906 C 8.570312 11.863281 8.578125 11.835938 8.597656 11.824219 C 8.621094 11.808594 8.628906 11.785156 8.617188 11.765625 C 8.601562 11.75 8.613281 11.734375 8.632812 11.734375 C 8.65625 11.734375 8.664062 11.71875 8.652344 11.699219 C 8.640625 11.679688 8.648438 11.664062 8.667969 11.664062 C 8.691406 11.664062 8.699219 11.648438 8.6875 11.628906 C 8.675781 11.609375 8.683594 11.59375 8.703125 11.59375 C 8.726562 11.59375 8.734375 11.578125 8.722656 11.558594 C 8.710938 11.539062 8.714844 11.523438 8.734375 11.523438 C 8.75 11.523438 8.757812 11.464844 8.75 11.390625 C 8.742188 11.320312 8.734375 11.210938 8.730469 11.152344 C 8.726562 11.09375 8.707031 11.03125 8.695312 11.007812 C 8.679688 10.980469 8.675781 10.925781 8.691406 10.878906 C 8.703125 10.828125 8.695312 10.78125 8.667969 10.765625 C 8.648438 10.753906 8.640625 10.710938 8.652344 10.675781 C 8.667969 10.636719 8.65625 10.582031 8.632812 10.554688 C 8.613281 10.527344 8.601562 10.488281 8.617188 10.46875 C 8.628906 10.445312 8.621094 10.40625 8.597656 10.378906 C 8.578125 10.351562 8.566406 10.3125 8.578125 10.292969 C 8.59375 10.277344 8.585938 10.253906 8.5625 10.238281 C 8.542969 10.222656 8.535156 10.199219 8.546875 10.179688 C 8.558594 10.164062 8.550781 10.148438 8.527344 10.148438 C 8.507812 10.148438 8.496094 10.136719 8.511719 10.117188 C 8.523438 10.101562 8.503906 10.058594 8.472656 10.03125 C 8.445312 10 8.429688 9.972656 8.445312 9.972656 C 8.457031 9.972656 8.421875 9.929688 8.367188 9.878906 C 8.308594 9.824219 8.25 9.785156 8.234375 9.789062 C 8.222656 9.792969 8.199219 9.773438 8.191406 9.746094 C 8.179688 9.714844 8.15625 9.703125 8.136719 9.710938 C 8.121094 9.722656 8.105469 9.710938 8.105469 9.691406 C 8.105469 9.671875 8.089844 9.664062 8.070312 9.675781 C 8.054688 9.683594 8.035156 9.675781 8.035156 9.65625 C 8.035156 9.636719 8.019531 9.628906 8 9.640625 C 7.980469 9.648438 7.964844 9.640625 7.964844 9.621094 C 7.964844 9.601562 7.949219 9.59375 7.929688 9.605469 C 7.910156 9.613281 7.894531 9.605469 7.894531 9.585938 C 7.894531 9.566406 7.878906 9.558594 7.859375 9.566406 C 7.839844 9.578125 7.824219 9.574219 7.824219 9.554688 C 7.824219 9.53125 7.800781 9.527344 7.769531 9.535156 C 7.742188 9.550781 7.71875 9.539062 7.71875 9.515625 C 7.71875 9.496094 7.703125 9.488281 7.683594 9.496094 C 7.664062 9.507812 7.648438 9.5 7.648438 9.480469 C 7.648438 9.460938 7.632812 9.453125 7.613281 9.460938 C 7.59375 9.472656 7.578125 9.464844 7.578125 9.445312 C 7.578125 9.421875 7.5625 9.417969 7.542969 9.425781 C 7.523438 9.4375 7.507812 9.429688 7.507812 9.410156 C 7.507812 9.386719 7.480469 9.375 7.453125 9.386719 C 7.425781 9.398438 7.402344 9.390625 7.402344 9.371094 C 7.402344 9.351562 7.386719 9.347656 7.367188 9.355469 C 7.347656 9.367188 7.332031 9.359375 7.332031 9.339844 C 7.332031 9.316406 7.304688 9.304688 7.277344 9.316406 C 7.25 9.328125 7.226562 9.320312 7.226562 9.300781 C 7.226562 9.277344 7.210938 9.273438 7.191406 9.285156 C 7.175781 9.296875 7.152344 9.289062 7.136719 9.269531 C 7.121094 9.246094 7.101562 9.242188 7.082031 9.25 C 7.066406 9.261719 7.046875 9.253906 7.03125 9.238281 C 7.019531 9.214844 6.988281 9.207031 6.960938 9.222656 C 6.933594 9.234375 6.90625 9.226562 6.90625 9.207031 C 6.90625 9.167969 6.625 9.167969 6.601562 9.207031 Z M 7.152344 10.75 C 7.207031 10.804688 7.242188 10.863281 7.230469 10.871094 C 7.222656 10.882812 7.230469 10.890625 7.257812 10.890625 C 7.28125 10.890625 7.289062 10.902344 7.277344 10.925781 C 7.265625 10.941406 7.269531 10.960938 7.285156 10.960938 C 7.304688 10.960938 7.320312 11.25 7.296875 11.300781 C 7.296875 11.308594 7.296875 11.324219 7.292969 11.335938 C 7.292969 11.355469 7.261719 11.394531 7.234375 11.425781 C 7.203125 11.460938 7.1875 11.488281 7.199219 11.488281 C 7.210938 11.488281 7.1875 11.523438 7.144531 11.570312 C 7.101562 11.617188 7.054688 11.648438 7.042969 11.640625 C 7.023438 11.632812 7.011719 11.644531 7.011719 11.664062 C 7.011719 11.6875 7 11.695312 6.976562 11.683594 C 6.960938 11.671875 6.941406 11.679688 6.941406 11.699219 C 6.941406 11.722656 6.921875 11.734375 6.902344 11.730469 C 6.875 11.730469 6.828125 11.734375 6.796875 11.75 C 6.757812 11.765625 6.707031 11.742188 6.640625 11.671875 C 6.554688 11.585938 6.539062 11.542969 6.535156 11.390625 C 6.535156 11.289062 6.546875 11.207031 6.566406 11.207031 C 6.582031 11.207031 6.589844 11.183594 6.578125 11.152344 C 6.566406 11.125 6.574219 11.101562 6.59375 11.101562 C 6.613281 11.101562 6.617188 11.082031 6.609375 11.066406 C 6.597656 11.046875 6.605469 11.03125 6.625 11.03125 C 6.648438 11.03125 6.652344 11.011719 6.644531 10.996094 C 6.632812 10.972656 6.640625 10.960938 6.660156 10.960938 C 6.683594 10.960938 6.691406 10.945312 6.679688 10.929688 C 6.667969 10.90625 6.691406 10.875 6.730469 10.855469 C 6.769531 10.832031 6.792969 10.796875 6.78125 10.777344 C 6.765625 10.753906 6.769531 10.75 6.796875 10.761719 C 6.820312 10.777344 6.847656 10.761719 6.859375 10.734375 C 6.867188 10.703125 6.894531 10.6875 6.910156 10.699219 C 6.929688 10.710938 6.941406 10.699219 6.941406 10.683594 C 6.941406 10.609375 7.054688 10.644531 7.152344 10.75 Z M 6.628906 11.691406 C 6.675781 11.746094 6.671875 11.75 6.617188 11.703125 C 6.558594 11.65625 6.539062 11.628906 6.570312 11.628906 C 6.578125 11.628906 6.605469 11.65625 6.628906 11.691406 Z M 6.628906 11.691406 "/>
<path style=" stroke:none;fill-rule:nonzero;fill:rgb(0%,0%,0%);fill-opacity:1;" d="M 5.757812 9.628906 L 5.691406 9.710938 L 5.773438 9.640625 C 5.816406 9.605469 5.851562 9.566406 5.851562 9.5625 C 5.851562 9.53125 5.820312 9.554688 5.757812 9.628906 Z M 5.757812 9.628906 "/>
</g>
</svg>
