
<svg xmlns="http://www.w3.org/2000/svg" xmlns:xlink="http://www.w3.org/1999/xlink" width="16px" height="16px" viewBox="0 0 16 16" version="1.1">
<g id="surface1">
<path style=" stroke:none;fill-rule:evenodd;fill:rgb(40.784314%,71.372551%,1.568628%);fill-opacity:1;" d="M 6.699219 10.105469 C 5.671875 10.109375 4.640625 10.125 3.609375 10.125 L 3.460938 10.125 C 4.882812 8.125 6.289062 6.230469 7.703125 4.292969 C 7.65625 4.289062 7.632812 4.277344 7.609375 4.277344 C 5.378906 4.277344 3.148438 4.273438 0.914062 4.273438 C 0.835938 4.273438 0.808594 4.292969 0.8125 4.375 C 0.816406 4.835938 0.8125 5.296875 0.8125 5.757812 C 0.8125 5.886719 0.8125 5.886719 0.945312 5.886719 C 2.074219 5.886719 3.203125 5.886719 4.332031 5.886719 C 4.378906 5.886719 4.421875 5.894531 4.492188 5.898438 C 3.0625 7.851562 1.644531 9.78125 0.222656 11.722656 L 0.296875 11.726562 C 2.4375 11.726562 4.582031 11.726562 6.726562 11.730469 C 6.8125 11.730469 6.824219 11.695312 6.824219 11.621094 C 6.820312 11.152344 6.820312 10.691406 6.824219 10.226562 C 6.824219 10.128906 6.800781 10.105469 6.699219 10.105469 Z M 15.65625 4.371094 C 13.632812 4.371094 11.613281 4.371094 9.589844 4.375 C 9.367188 4.378906 9.136719 4.40625 8.917969 4.460938 C 8.140625 4.664062 7.515625 5.507812 7.546875 6.320312 C 7.550781 6.40625 7.601562 6.375 7.652344 6.375 L 10.757812 6.375 C 11.28125 6.375 11.800781 6.398438 12.324219 6.394531 C 12.894531 6.390625 13.464844 6.414062 14.03125 6.378906 C 14.621094 6.34375 15.089844 6.074219 15.414062 5.570312 C 15.632812 5.234375 15.726562 4.859375 15.777344 4.464844 C 15.789062 4.355469 15.71875 4.371094 15.65625 4.371094 Z M 12.570312 7.015625 C 11.546875 7.015625 10.523438 7.011719 9.5 7.015625 C 9.171875 7.015625 8.851562 7.078125 8.5625 7.238281 C 7.886719 7.609375 7.625 8.230469 7.546875 8.953125 C 7.535156 9.050781 7.59375 9.046875 7.660156 9.046875 C 8.199219 9.046875 8.738281 9.046875 9.277344 9.046875 C 9.460938 9.046875 9.644531 9.050781 9.828125 9.046875 C 10.230469 9.039062 10.632812 9.054688 11.035156 9.015625 C 11.554688 8.964844 11.976562 8.710938 12.277344 8.277344 C 12.511719 7.933594 12.628906 7.550781 12.671875 7.136719 C 12.683594 7.015625 12.6875 7.015625 12.570312 7.015625 Z M 10.519531 9.644531 C 10.207031 9.648438 9.898438 9.640625 9.585938 9.648438 C 9.441406 9.648438 9.292969 9.664062 9.152344 9.683594 C 8.03125 9.859375 7.613281 10.796875 7.546875 11.59375 C 7.542969 11.667969 7.566406 11.691406 7.636719 11.6875 C 7.824219 11.683594 8.011719 11.6875 8.199219 11.6875 L 8.199219 11.699219 C 8.453125 11.6875 8.707031 11.695312 8.957031 11.660156 C 9.898438 11.539062 10.617188 10.691406 10.609375 9.730469 C 10.609375 9.65625 10.582031 9.644531 10.519531 9.644531 Z M 10.519531 9.644531 "/>
</g>
</svg>
