
<svg xmlns="http://www.w3.org/2000/svg" xmlns:xlink="http://www.w3.org/1999/xlink" width="24px" height="24px" viewBox="0 0 24 24" version="1.1">
<g id="surface1">
<path style=" stroke:none;fill-rule:nonzero;fill:rgb(0%,0%,0%);fill-opacity:1;" d="M 16.929688 19.515625 L 7.070312 19.515625 C 6.90625 19.515625 6.773438 19.355469 6.773438 19.15625 L 6.773438 4.875 C 6.773438 4.679688 6.90625 4.515625 7.070312 4.515625 L 16.925781 4.515625 C 17.089844 4.515625 17.226562 4.679688 17.226562 4.875 L 17.226562 19.15625 C 17.226562 19.355469 17.09375 19.515625 16.929688 19.515625 Z M 16.929688 19.515625 "/>
<path style=" stroke:none;fill-rule:nonzero;fill:rgb(100%,100%,100%);fill-opacity:1;" d="M 11.789062 4.484375 L 12.207031 4.484375 L 12.207031 13.609375 L 11.789062 13.609375 Z M 11.789062 4.484375 "/>
<path style=" stroke:none;fill-rule:nonzero;fill:rgb(100%,100%,100%);fill-opacity:1;" d="M 11.894531 5.039062 L 13.125 5.039062 L 13.125 5.539062 L 11.894531 5.539062 Z M 11.894531 6.082031 L 13.125 6.082031 L 13.125 6.582031 L 11.894531 6.582031 Z M 11.894531 7.125 L 13.125 7.125 L 13.125 7.621094 L 11.894531 7.621094 Z M 11.894531 8.164062 L 13.125 8.164062 L 13.125 8.664062 L 11.894531 8.664062 Z M 11.894531 9.222656 L 13.125 9.222656 L 13.125 9.722656 L 11.894531 9.722656 Z M 11.894531 10.265625 L 13.125 10.265625 L 13.125 10.765625 L 11.894531 10.765625 Z M 11.894531 11.304688 L 13.125 11.304688 L 13.125 11.804688 L 11.894531 11.804688 Z M 11.894531 12.347656 L 13.125 12.347656 L 13.125 12.847656 L 11.894531 12.847656 Z M 11.894531 12.347656 "/>
<path style=" stroke:none;fill-rule:nonzero;fill:rgb(100%,100%,100%);fill-opacity:1;" d="M 10.839844 5.523438 L 12.070312 5.523438 L 12.070312 6.023438 L 10.839844 6.023438 Z M 10.839844 6.566406 L 12.070312 6.566406 L 12.070312 7.066406 L 10.839844 7.066406 Z M 10.839844 7.605469 L 12.070312 7.605469 L 12.070312 8.105469 L 10.839844 8.105469 Z M 10.839844 8.667969 L 12.070312 8.667969 L 12.070312 9.164062 L 10.839844 9.164062 Z M 10.839844 9.707031 L 12.070312 9.707031 L 12.070312 10.207031 L 10.839844 10.207031 Z M 10.839844 10.75 L 12.070312 10.75 L 12.070312 11.25 L 10.839844 11.25 Z M 10.839844 11.792969 L 12.070312 11.792969 L 12.070312 12.289062 L 10.839844 12.289062 Z M 10.839844 4.484375 L 12.070312 4.484375 L 12.070312 4.980469 L 10.839844 4.980469 Z M 10.839844 12.832031 L 12.070312 12.832031 L 12.070312 13.328125 L 10.839844 13.328125 Z M 13.484375 16.691406 C 13.414062 16.054688 13.308594 15.425781 13.21875 14.792969 C 13.214844 14.769531 13.210938 14.746094 13.203125 14.722656 C 13.066406 14.375 12.710938 14.226562 12.003906 14.230469 C 11.292969 14.226562 10.933594 14.375 10.800781 14.722656 C 10.792969 14.746094 10.785156 14.769531 10.785156 14.792969 C 10.695312 15.425781 10.589844 16.054688 10.519531 16.691406 C 10.46875 17.140625 10.792969 17.425781 11.339844 17.453125 C 11.554688 17.460938 11.773438 17.445312 11.988281 17.453125 L 12.015625 17.453125 C 12.230469 17.449219 12.449219 17.464844 12.664062 17.453125 C 13.210938 17.425781 13.535156 17.140625 13.484375 16.691406 Z M 12.019531 15.988281 L 11.980469 15.988281 C 11.589844 15.992188 11.316406 15.75 11.308594 15.394531 C 11.300781 15.027344 11.585938 14.765625 11.988281 14.773438 L 12.011719 14.773438 C 12.414062 14.765625 12.699219 15.023438 12.691406 15.394531 C 12.683594 15.75 12.410156 15.992188 12.019531 15.988281 Z M 12.019531 15.988281 "/>
</g>
</svg>
