
<svg xmlns="http://www.w3.org/2000/svg" xmlns:xlink="http://www.w3.org/1999/xlink" width="16px" height="16px" viewBox="0 0 16 16" version="1.1">
<g id="surface1">
<path style=" stroke:none;fill-rule:nonzero;fill:rgb(88.627452%,26.274511%,16.078432%);fill-opacity:1;" d="M 15.828125 9.039062 L 14.949219 6.332031 L 13.207031 0.96875 C 13.136719 0.761719 12.898438 0.710938 12.75 0.816406 C 12.699219 0.851562 12.65625 0.921875 12.636719 0.992188 L 10.894531 6.375 L 5.105469 6.375 L 3.953125 2.800781 L 3.363281 0.980469 C 3.355469 0.945312 3.339844 0.914062 3.316406 0.886719 C 3.308594 0.871094 3.296875 0.859375 3.285156 0.851562 C 3.167969 0.738281 2.976562 0.742188 2.863281 0.859375 C 2.832031 0.890625 2.808594 0.929688 2.792969 0.972656 L 1.050781 6.332031 L 0.683594 7.464844 L 0.171875 9.039062 C 0.109375 9.230469 0.152344 9.445312 0.28125 9.601562 C 0.3125 9.640625 0.347656 9.675781 0.390625 9.707031 L 8 15.238281 L 15.609375 9.707031 C 15.820312 9.554688 15.90625 9.285156 15.828125 9.039062 Z M 14.949219 6.332031 Z M 14.949219 6.332031 "/>
</g>
</svg>
