<?xml version="1.0" encoding="UTF-8" standalone="no"?>
<svg
   xmlns:dc="http://purl.org/dc/elements/1.1/"
   xmlns:cc="http://creativecommons.org/ns#"
   xmlns:rdf="http://www.w3.org/1999/02/22-rdf-syntax-ns#"
   xmlns:svg="http://www.w3.org/2000/svg"
   xmlns="http://www.w3.org/2000/svg"
   xmlns:sodipodi="http://sodipodi.sourceforge.net/DTD/sodipodi-0.dtd"
   xmlns:inkscape="http://www.inkscape.org/namespaces/inkscape"
   width="13.5"
   height="12.75"
   viewBox="0 0 13.5 12.75"
   version="1.1"
   id="svg7"
   sodipodi:docname="ai-symbolic.svg"
   inkscape:version="1.0.2 (e86c870879, 2021-01-15)">
  <metadata
     id="metadata13">
    <rdf:RDF>
      <cc:Work
         rdf:about="">
        <dc:format>image/svg+xml</dc:format>
        <dc:type
           rdf:resource="http://purl.org/dc/dcmitype/StillImage" />
      </cc:Work>
    </rdf:RDF>
  </metadata>
  <defs
     id="defs11" />
  <sodipodi:namedview
     pagecolor="#ffffff"
     bordercolor="#666666"
     borderopacity="1"
     objecttolerance="10"
     gridtolerance="10"
     guidetolerance="10"
     inkscape:pageopacity="0"
     inkscape:pageshadow="2"
     inkscape:window-width="1867"
     inkscape:window-height="1194"
     id="namedview9"
     showgrid="false"
     inkscape:zoom="42"
     inkscape:cx="6.75"
     inkscape:cy="6"
     inkscape:window-x="26"
     inkscape:window-y="23"
     inkscape:window-maximized="0"
     inkscape:current-layer="svg7" />
  <g
     id="surface1"
     transform="translate(-5.25,-6)">
    <path
       style="fill:#000000;fill-opacity:1;fill-rule:nonzero;stroke:none"
       d="M 18.75,6 H 5.25 v 12.75 h 13.5 z m -5.699219,9.226562 h -0.75 c -0.152343,0 -0.152343,0 -0.226562,-0.152343 -0.148438,-0.523438 -0.375,-1.125 -0.523438,-1.648438 0,-0.07422 -0.07422,-0.152343 -0.226562,-0.152343 H 9.75 c -0.148438,0 -0.148438,0.07812 -0.226562,0.152343 -0.148438,0.523438 -0.296876,1.125 -0.449219,1.648438 0,0.07422 -0.074219,0.152343 -0.148438,0.152343 H 8.101562 c -0.152343,0 -0.152343,-0.07812 -0.152343,-0.152343 C 8.25,14.101562 8.476562,13.125 8.773438,12.148438 9.074219,11.023438 9.449219,9.824219 9.75,8.699219 9.824219,8.550781 9.824219,8.476562 9.976562,8.550781 h 1.125 c 0.07422,0 0.148438,0 0.148438,0.148438 0.375,1.125 0.675781,2.324219 1.050781,3.449219 l 0.898438,2.925781 c 0.07422,0.152343 0.07422,0.152343 -0.148438,0.152343 z m 2.25,-0.375 c 0,0.375 0,0.375 -0.375,0.375 h -0.527343 c -0.148438,0 -0.148438,0 -0.148438,-0.152343 v -4.875 c 0,-0.148438 0.07422,-0.222657 0.148438,-0.148438 h 0.675781 c 0.152343,0 0.152343,0.07422 0.152343,0.148438 0.07422,1.574219 0.07422,3.152343 0.07422,4.652343 z M 14.773438,9.523438 c -0.296876,0 -0.597657,-0.222657 -0.597657,-0.523438 0,-0.300781 0.222657,-0.601562 0.597657,-0.601562 0.300781,0 0.601562,0.226562 0.601562,0.527343 0,0.375 -0.226562,0.597657 -0.601562,0.597657 z m 0,0"
       id="path2" />
    <path
       style="fill:#000000;fill-opacity:1;fill-rule:nonzero;stroke:none"
       d="m 10.648438,9.976562 c 0,-0.078124 -0.07422,-0.078124 -0.148438,0 0,0.074219 -0.07422,0.148438 -0.07422,0.222657 -0.152343,0.675781 -0.300781,1.351562 -0.527343,1.949219 0,0.07812 0,0.152343 0.078124,0.152343 h 1.046876 c 0.152343,0 0.152343,-0.07422 0.07812,-0.152343 -0.07812,-0.75 -0.226562,-1.5 -0.453124,-2.171876 z m 0,0"
       id="path4" />
  </g>
</svg>
