<?xml version="1.0" encoding="UTF-8" standalone="no"?>
<svg
   xmlns:dc="http://purl.org/dc/elements/1.1/"
   xmlns:cc="http://creativecommons.org/ns#"
   xmlns:rdf="http://www.w3.org/1999/02/22-rdf-syntax-ns#"
   xmlns:svg="http://www.w3.org/2000/svg"
   xmlns="http://www.w3.org/2000/svg"
   xmlns:sodipodi="http://sodipodi.sourceforge.net/DTD/sodipodi-0.dtd"
   xmlns:inkscape="http://www.inkscape.org/namespaces/inkscape"
   width="12.33567"
   height="12.33567"
   viewBox="0 0 12.33567 12.33567"
   version="1.1"
   id="svg5"
   sodipodi:docname="c-symbolic.svg"
   inkscape:version="1.0.2 (e86c870879, 2021-01-15)">
  <metadata
     id="metadata11">
    <rdf:RDF>
      <cc:Work
         rdf:about="">
        <dc:format>image/svg+xml</dc:format>
        <dc:type
           rdf:resource="http://purl.org/dc/dcmitype/StillImage" />
      </cc:Work>
    </rdf:RDF>
  </metadata>
  <defs
     id="defs9" />
  <sodipodi:namedview
     pagecolor="#ffffff"
     bordercolor="#666666"
     borderopacity="1"
     objecttolerance="10"
     gridtolerance="10"
     guidetolerance="10"
     inkscape:pageopacity="0"
     inkscape:pageshadow="2"
     inkscape:window-width="1673"
     inkscape:window-height="1092"
     id="namedview7"
     showgrid="false"
     inkscape:zoom="42"
     inkscape:cx="6.1678346"
     inkscape:cy="6.1083108"
     inkscape:window-x="26"
     inkscape:window-y="23"
     inkscape:window-maximized="0"
     inkscape:current-layer="svg5" />
  <g
     id="surface1"
     transform="translate(-5.7950559,-5.8302124)">
    <path
       style="fill:#000000;fill-opacity:1;fill-rule:nonzero;stroke:none"
       d="m 16.726562,17.175781 c -0.535156,0.285157 -1.089843,0.5 -1.667968,0.644531 -0.570313,0.148438 -1.167969,0.222657 -1.792969,0.222657 -1.863281,0 -3.339844,-0.542969 -4.429687,-1.621094 -1.089844,-1.085937 -1.636719,-2.558594 -1.636719,-4.417969 0,-1.859375 0.546875,-3.332031 1.636719,-4.417968 1.089843,-1.089844 2.566406,-1.632813 4.429687,-1.632813 0.621094,0 1.21875,0.070313 1.792969,0.21875 0.582031,0.144531 1.136718,0.359375 1.667968,0.644531 V 9.234375 C 16.183594,8.851562 15.65625,8.574219 15.136719,8.398438 14.621094,8.222656 14.074219,8.136719 13.5,8.136719 c -1.035156,0 -1.84375,0.339843 -2.429688,1.027343 -0.589843,0.683594 -0.886718,1.632813 -0.886718,2.839844 0,1.203125 0.296875,2.144532 0.886718,2.835938 0.589844,0.683594 1.398438,1.027344 2.429688,1.027344 0.570312,0 1.113281,-0.08984 1.636719,-0.265626 0.519531,-0.175781 1.046875,-0.453124 1.589843,-0.832031 z m 0,0"
       id="path2" />
  </g>
</svg>
