<?xml version="1.0" encoding="UTF-8" standalone="no"?>
<svg
   xmlns:dc="http://purl.org/dc/elements/1.1/"
   xmlns:cc="http://creativecommons.org/ns#"
   xmlns:rdf="http://www.w3.org/1999/02/22-rdf-syntax-ns#"
   xmlns:svg="http://www.w3.org/2000/svg"
   xmlns="http://www.w3.org/2000/svg"
   xmlns:sodipodi="http://sodipodi.sourceforge.net/DTD/sodipodi-0.dtd"
   xmlns:inkscape="http://www.inkscape.org/namespaces/inkscape"
   width="13.574219"
   height="13.652343"
   viewBox="0 0 13.574219 13.652343"
   version="1.1"
   id="svg11"
   sodipodi:docname="clj-symbolic.svg"
   inkscape:version="1.0.2 (e86c870879, 2021-01-15)">
  <metadata
     id="metadata17">
    <rdf:RDF>
      <cc:Work
         rdf:about="">
        <dc:format>image/svg+xml</dc:format>
        <dc:type
           rdf:resource="http://purl.org/dc/dcmitype/StillImage" />
      </cc:Work>
    </rdf:RDF>
  </metadata>
  <defs
     id="defs15" />
  <sodipodi:namedview
     pagecolor="#ffffff"
     bordercolor="#666666"
     borderopacity="1"
     objecttolerance="10"
     gridtolerance="10"
     guidetolerance="10"
     inkscape:pageopacity="0"
     inkscape:pageshadow="2"
     inkscape:window-width="1387"
     inkscape:window-height="912"
     id="namedview13"
     showgrid="false"
     inkscape:zoom="21"
     inkscape:cx="6.4858442"
     inkscape:cy="8.4479304"
     inkscape:window-x="26"
     inkscape:window-y="23"
     inkscape:window-maximized="0"
     inkscape:current-layer="svg11" />
  <g
     id="surface1"
     transform="translate(-5.324219,-5.398438)">
    <path
       style="fill:#211e1e;fill-opacity:1;fill-rule:nonzero;stroke:none"
       d="M 11.773438,12.300781 11.550781,12.75 C 11.25,13.351562 10.949219,14.101562 10.875,14.625 10.80078,14.773438 10.80078,15 10.80078,15.226562 v 0.296876 C 11.175781,15.675781 11.625,15.75 12,15.75 c 0.375,0 0.75,-0.07422 1.125,-0.148438 L 12.898438,15.375 c -0.375,-0.675781 -0.671876,-1.574219 -1.125,-3.074219"
       id="path2" />
    <path
       style="fill:#211e1e;fill-opacity:1;fill-rule:nonzero;stroke:none"
       d="m 10.050781,9.226562 c -0.902343,0.671876 -1.5,1.722657 -1.5,2.921876 0,1.203124 0.597657,2.25 1.5,2.925781 0.222657,-0.898438 0.75,-1.722657 1.574219,-3.449219 C 11.55078,11.476562 11.55078,11.324219 11.476562,11.175781 11.25,10.574219 10.949219,9.976562 10.648438,9.601562 10.425781,9.523438 10.199219,9.375 10.050781,9.226562"
       id="path4" />
    <path
       style="fill:#211e1e;fill-opacity:1;fill-rule:nonzero;stroke:none"
       d="M 15.226562,16.273438 C 14.773438,16.199219 14.324219,16.125 14.023438,16.050781 13.425781,16.351562 12.824219,16.5 12.148438,16.5 9.75,16.5 7.875,14.550781 7.875,12.226562 7.875,10.949219 8.476562,9.824219 9.300781,9 9.074219,8.925781 8.773438,8.925781 8.550781,8.925781 7.273438,8.925781 6,9.601562 5.398438,11.550781 5.324219,11.851562 5.324219,12 5.324219,12.300781 c 0,3.75 3,6.75 6.75,6.75 2.25,0 4.277343,-1.125 5.550781,-2.851562 -0.675781,0.152343 -1.273438,0.226562 -1.875,0.226562 -0.226562,-0.152343 -0.375,-0.152343 -0.523438,-0.152343"
       id="path6" />
    <path
       style="fill:#211e1e;fill-opacity:1;fill-rule:nonzero;stroke:none"
       d="m 12.074219,5.398438 c -2.25,0 -4.273438,1.125 -5.472657,2.851562 0.597657,-0.375 1.273438,-0.523438 1.875,-0.523438 0.75,0 1.421876,0.222657 1.722657,0.375 0.07422,0.074219 0.152343,0.074219 0.226562,0.148438 0.523438,-0.226562 1.125,-0.375 1.722657,-0.375 2.402343,0 4.277343,1.949219 4.277343,4.273438 0,1.203124 -0.527343,2.25 -1.277343,3.078124 H 15.75 c 0.75,0 1.574219,-0.152343 2.175781,-0.675781 0.375,-0.300781 0.75,-0.824219 0.898438,-1.574219 0,-0.300781 0.07422,-0.601562 0.07422,-0.828124 -0.07422,-3.75 -3.074219,-6.75 -6.824219,-6.75"
       id="path8" />
  </g>
</svg>
