<?xml version="1.0" encoding="UTF-8" standalone="no"?>
<svg
   xmlns:dc="http://purl.org/dc/elements/1.1/"
   xmlns:cc="http://creativecommons.org/ns#"
   xmlns:rdf="http://www.w3.org/1999/02/22-rdf-syntax-ns#"
   xmlns:svg="http://www.w3.org/2000/svg"
   xmlns="http://www.w3.org/2000/svg"
   xmlns:sodipodi="http://sodipodi.sourceforge.net/DTD/sodipodi-0.dtd"
   xmlns:inkscape="http://www.inkscape.org/namespaces/inkscape"
   width="13.745669"
   height="13.745669"
   viewBox="0 0 13.745669 13.745669"
   version="1.1"
   id="svg5"
   sodipodi:docname="coffee-symbolic.svg"
   inkscape:version="1.0.2 (e86c870879, 2021-01-15)">
  <metadata
     id="metadata11">
    <rdf:RDF>
      <cc:Work
         rdf:about="">
        <dc:format>image/svg+xml</dc:format>
        <dc:type
           rdf:resource="http://purl.org/dc/dcmitype/StillImage" />
      </cc:Work>
    </rdf:RDF>
  </metadata>
  <defs
     id="defs9" />
  <sodipodi:namedview
     pagecolor="#ffffff"
     bordercolor="#666666"
     borderopacity="1"
     objecttolerance="10"
     gridtolerance="10"
     guidetolerance="10"
     inkscape:pageopacity="0"
     inkscape:pageshadow="2"
     inkscape:window-width="2002"
     inkscape:window-height="1132"
     id="namedview7"
     showgrid="false"
     inkscape:zoom="29.698485"
     inkscape:cx="3.6161711"
     inkscape:cy="7.1432118"
     inkscape:window-x="26"
     inkscape:window-y="23"
     inkscape:window-maximized="0"
     inkscape:current-layer="svg5" />
  <g
     id="surface1"
     transform="translate(-5.1271655,-5.1271655)">
    <path
       style="fill:#d9cc66;fill-opacity:1;fill-rule:nonzero;stroke:none"
       d="M 12.601562,6.824219 C 12.226562,6.898438 12,7.050781 10.875,7.574219 10.273438,7.875 9.449219,7.949219 9.226562,7.726562 9,7.425781 9.300781,7.273438 9.976562,7.273438 c 0.597657,0 0.75,-0.074219 0.523438,-0.222657 C 10.050781,6.75 9,6.976562 8.773438,7.351562 8.699219,7.574219 8.699219,7.648438 8.851562,7.875 c 0.375,0.375 0.671876,0.523438 1.5,0.449219 0.597657,0 0.898438,-0.074219 1.5,-0.449219 0.898438,-0.449219 1.875,-0.675781 2.472657,-0.601562 0.601562,0.078124 0.75,0.300781 0.375,0.527343 -0.300781,0.222657 -1.050781,0.300781 -1.347657,0 -0.300781,-0.152343 -0.675781,-0.152343 -0.675781,0.148438 0,0.375 1.125,0.675781 2.097657,0.449219 1.125,-0.222657 1.125,-1.199219 0,-1.574219 -0.449219,-0.074219 -1.574219,-0.148438 -2.171876,0 z m -6.375,0.976562 C 6,7.949219 5.851562,8.175781 5.851562,8.25 5.773438,8.550781 6.375,9 7.273438,9.300781 8.101562,9.523438 8.398438,9.601562 9.675781,9.75 10.5,9.824219 14.25,9.824219 15,9.75 c 0.300781,-0.074219 0.75,-0.074219 0.898438,-0.148438 0.527343,-0.078124 1.953124,-0.453124 2.25,-0.675781 0.453124,-0.226562 0.675781,-0.601562 0.527343,-0.824219 -0.226562,-0.453124 -0.75,-0.75 -0.601562,-0.300781 C 18.226562,8.398438 16.5,9 14.25,9.148438 c -0.824219,0.078124 -3.300781,0.078124 -3.75,0 -0.148438,0 -0.675781,-0.074219 -1.050781,-0.074219 C 8.175781,9 6.75,8.476562 6.675781,8.101562 c 0,-0.078124 0,-0.300781 0.074219,-0.375 C 6.824219,7.5 6.675781,7.5 6.226562,7.800781 Z M 6,9.824219 c 0,0.300781 0.148438,0.75 0.226562,1.125 l 0.222657,0.601562 -0.300781,0.222657 C 6,11.925781 5.699219,12.226562 5.550781,12.449219 5.324219,12.898438 5.25,13.050781 5.25,13.726562 5.25,14.625 5.398438,15 6.148438,15.523438 c 0.375,0.300781 0.527343,0.300781 1.125,0.300781 0.902343,0 1.203124,-0.222657 0.527343,-0.300781 -0.527343,-0.07422 -1.277343,-0.75 -1.5,-1.347657 C 6.074219,13.648438 6.148438,12.824219 6.375,12.449219 6.449219,12.300781 6.601562,12.148438 6.601562,12.148438 l 0.296876,0.453124 C 7.050781,12.824219 7.5,13.5 7.875,14.101562 8.324219,14.699219 8.699219,15.375 8.773438,15.675781 9.226562,16.875 10.050781,17.25 12.300781,17.25 c 2.25,0 3.148438,-0.449219 3.597657,-1.648438 0.07812,-0.300781 0.527343,-0.976562 0.902343,-1.5 0.375,-0.527343 0.898438,-1.277343 1.050781,-1.726562 0.375,-0.824219 0.898438,-2.476562 0.898438,-2.851562 0,-0.222657 0,-0.222657 -0.226562,0 -0.375,0.375 -1.648438,0.75 -3.296876,0.902343 -1.351562,0.148438 -5.625,0.07422 -6.675781,-0.152343 -0.152343,0 -0.375,-0.07422 -0.601562,-0.07422 C 7.425781,10.125 6.300781,9.601562 6.074219,9.449219 6,9.375 5.925781,9.375 6,9.824219 Z m 0,0"
       id="path2" />
  </g>
</svg>
