<?xml version="1.0" encoding="UTF-8" standalone="no"?>
<svg
   xmlns:dc="http://purl.org/dc/elements/1.1/"
   xmlns:cc="http://creativecommons.org/ns#"
   xmlns:rdf="http://www.w3.org/1999/02/22-rdf-syntax-ns#"
   xmlns:svg="http://www.w3.org/2000/svg"
   xmlns="http://www.w3.org/2000/svg"
   xmlns:sodipodi="http://sodipodi.sourceforge.net/DTD/sodipodi-0.dtd"
   xmlns:inkscape="http://www.inkscape.org/namespaces/inkscape"
   width="13.638734"
   height="13.702125"
   viewBox="0 0 13.638734 13.702125"
   version="1.1"
   id="svg5"
   sodipodi:docname="conf-symbolic.svg"
   inkscape:version="1.0.2 (e86c870879, 2021-01-15)">
  <metadata
     id="metadata11">
    <rdf:RDF>
      <cc:Work
         rdf:about="">
        <dc:format>image/svg+xml</dc:format>
        <dc:type
           rdf:resource="http://purl.org/dc/dcmitype/StillImage" />
      </cc:Work>
    </rdf:RDF>
  </metadata>
  <defs
     id="defs9" />
  <sodipodi:namedview
     pagecolor="#ffffff"
     bordercolor="#666666"
     borderopacity="1"
     objecttolerance="10"
     gridtolerance="10"
     guidetolerance="10"
     inkscape:pageopacity="0"
     inkscape:pageshadow="2"
     inkscape:window-width="1647"
     inkscape:window-height="1166"
     id="namedview7"
     showgrid="false"
     inkscape:zoom="42"
     inkscape:cx="9.8355548"
     inkscape:cy="6.3032452"
     inkscape:window-x="26"
     inkscape:window-y="23"
     inkscape:window-maximized="0"
     inkscape:current-layer="svg5" />
  <g
     id="surface1"
     transform="translate(-5.1806329,-5.1931852)">
    <path
       style="fill:#3f5159;fill-opacity:1;fill-rule:nonzero;stroke:none"
       d="M 18.375,12.976562 C 18.074219,12.898438 17.773438,12.75 17.550781,12.675781 c 0,-0.527343 -0.07422,-0.976562 -0.07422,-1.5 0,-0.07422 0.07422,-0.07422 0.07422,-0.152343 C 17.851562,10.875 18.074219,10.800781 18.375,10.648438 18.675781,10.5 18.75,10.199219 18.675781,9.898438 18.449219,9.375 18.226562,8.925781 18,8.398438 17.851562,8.101562 17.550781,7.949219 17.25,8.101562 16.949219,8.25 16.726562,8.324219 16.425781,8.476562 c -0.07422,0 -0.152343,0 -0.152343,-0.078124 C 16.125,8.175781 15.898438,8.023438 15.75,7.875 15.601562,7.726562 15.375,7.574219 15.226562,7.425781 15.375,7.125 15.449219,6.824219 15.601562,6.523438 c 0.148438,-0.375 0,-0.671876 -0.375,-0.824219 C 14.773438,5.625 14.25,5.398438 13.800781,5.25 13.425781,5.101562 13.125,5.25 12.976562,5.625 12.898438,5.925781 12.75,6.226562 12.675781,6.449219 c -0.527343,0 -0.976562,0.074219 -1.5,0.074219 -0.07422,0 -0.07422,-0.074219 -0.152343,-0.074219 C 10.875,6.148438 10.800781,5.925781 10.648438,5.625 10.5,5.324219 10.199219,5.25 9.898438,5.324219 9.375,5.550781 8.925781,5.773438 8.398438,6 8.101562,6.148438 7.949219,6.449219 8.101562,6.75 8.25,7.050781 8.324219,7.273438 8.476562,7.574219 c 0,0.074219 0,0.152343 -0.078124,0.152343 C 8.25,7.875 8.101562,7.949219 8.023438,8.101562 7.800781,8.324219 7.648438,8.550781 7.425781,8.773438 7.125,8.699219 6.824219,8.550781 6.601562,8.476562 c -0.375,-0.152343 -0.675781,0 -0.828124,0.375 C 5.625,9.226562 5.398438,9.75 5.25,10.199219 5.101562,10.648438 5.175781,10.875 5.625,11.023438 c 0.300781,0.07812 0.601562,0.226562 0.824219,0.300781 0,0.527343 0.074219,0.976562 0.074219,1.5 0,0.07422 -0.074219,0.07422 -0.074219,0.152343 C 6.148438,13.125 5.925781,13.199219 5.625,13.351562 5.324219,13.5 5.25,13.800781 5.324219,14.101562 5.550781,14.625 5.773438,15.074219 6,15.601562 c 0.148438,0.296876 0.449219,0.449219 0.75,0.296876 0.300781,-0.148438 0.523438,-0.222657 0.824219,-0.375 0.074219,0 0.152343,0 0.152343,0.07812 0.148438,0.222657 0.375,0.375 0.523438,0.523438 0.148438,0.148438 0.375,0.300781 0.523438,0.449219 -0.148438,0.300781 -0.222657,0.601562 -0.375,0.902343 -0.148438,0.375 0,0.671876 0.375,0.824219 0.453124,0.148438 0.902343,0.375 1.425781,0.523438 0.449219,0.152343 0.675781,0.07422 0.824219,-0.375 0.07812,-0.300781 0.226562,-0.597657 0.300781,-0.824219 0.527343,0 0.976562,-0.07422 1.5,-0.07422 0.07422,0 0.07422,0.07422 0.152343,0.07422 0.148438,0.300781 0.222657,0.523438 0.375,0.824219 0.148438,0.300781 0.449219,0.375 0.75,0.300781 0.523438,-0.226562 0.972657,-0.449219 1.5,-0.675781 0.296876,-0.148438 0.449219,-0.449219 0.296876,-0.75 C 15.75,17.023438 15.675781,16.800781 15.523438,16.5 c 0,-0.07422 0,-0.148438 0.07812,-0.148438 0.222657,-0.152343 0.375,-0.375 0.523438,-0.527343 0.148438,-0.148438 0.300781,-0.375 0.449219,-0.523438 0.300781,0.07422 0.601562,0.222657 0.824219,0.300781 0.375,0.148438 0.675781,0 0.828124,-0.375 0.148438,-0.453124 0.375,-0.902343 0.523438,-1.425781 0.148438,-0.375 0.07422,-0.675781 -0.375,-0.824219 z m -5.25,1.574219 c -1.425781,0.597657 -3,0 -3.675781,-1.425781 -0.597657,-1.425781 0,-3 1.425781,-3.675781 1.425781,-0.597657 3,0 3.675781,1.425781 0.597657,1.425781 0,3 -1.425781,3.675781 z m 0,0"
       id="path2" />
  </g>
</svg>
