<?xml version="1.0" encoding="UTF-8" standalone="no"?>
<svg
   xmlns:dc="http://purl.org/dc/elements/1.1/"
   xmlns:cc="http://creativecommons.org/ns#"
   xmlns:rdf="http://www.w3.org/1999/02/22-rdf-syntax-ns#"
   xmlns:svg="http://www.w3.org/2000/svg"
   xmlns="http://www.w3.org/2000/svg"
   xmlns:sodipodi="http://sodipodi.sourceforge.net/DTD/sodipodi-0.dtd"
   xmlns:inkscape="http://www.inkscape.org/namespaces/inkscape"
   width="13.593669"
   height="13.593669"
   viewBox="0 0 13.593669 13.593669"
   version="1.1"
   id="svg7"
   sodipodi:docname="cpp-symbolic.svg"
   inkscape:version="1.0.2 (e86c870879, 2021-01-15)">
  <metadata
     id="metadata13">
    <rdf:RDF>
      <cc:Work
         rdf:about="">
        <dc:format>image/svg+xml</dc:format>
        <dc:type
           rdf:resource="http://purl.org/dc/dcmitype/StillImage" />
      </cc:Work>
    </rdf:RDF>
  </metadata>
  <defs
     id="defs11" />
  <sodipodi:namedview
     pagecolor="#ffffff"
     bordercolor="#666666"
     borderopacity="1"
     objecttolerance="10"
     gridtolerance="10"
     guidetolerance="10"
     inkscape:pageopacity="0"
     inkscape:pageshadow="2"
     inkscape:window-width="1616"
     inkscape:window-height="1072"
     id="namedview9"
     showgrid="false"
     inkscape:zoom="29.698485"
     inkscape:cx="6.8066965"
     inkscape:cy="7.0138033"
     inkscape:window-x="26"
     inkscape:window-y="23"
     inkscape:window-maximized="0"
     inkscape:current-layer="svg7" />
  <g
     id="surface1"
     transform="translate(-6.1035562,-4.8652752)">
    <path
       style="fill:#5199b8;fill-opacity:1;fill-rule:nonzero;stroke:none"
       d="m 6.226562,11.625 c 0,-0.976562 0.148438,-1.800781 0.449219,-2.550781 0.300781,-0.75 0.675781,-1.347657 1.199219,-1.875 C 8.398438,6.675781 9,6.300781 9.675781,6 c 0.675781,-0.300781 1.425781,-0.375 2.175781,-0.375 0.75,0 1.421876,0.148438 2.023438,0.449219 C 14.476562,6.375 15,6.75 15.375,7.125 L 13.726562,9 C 13.425781,8.773438 13.199219,8.550781 12.898438,8.476562 12.601562,8.398438 12.300781,8.25 11.851562,8.25 11.476562,8.25 11.175781,8.324219 10.875,8.476562 10.574219,8.625 10.273438,8.851562 10.050781,9.148438 9.824219,9.449219 9.675781,9.75 9.523438,10.199219 9.375,10.648438 9.300781,11.101562 9.300781,11.625 c 0,1.125 0.222657,1.949219 0.75,2.476562 C 10.574219,14.699219 11.175781,15 12,15 c 0.375,0 0.75,-0.07422 1.050781,-0.226562 0.300781,-0.148438 0.597657,-0.375 0.824219,-0.671876 l 1.648438,1.875 C 15,16.574219 14.476562,16.949219 13.875,17.25 c -0.601562,0.300781 -1.273438,0.449219 -2.023438,0.449219 -0.75,0 -1.5,-0.148438 -2.175781,-0.375 C 9,17.101562 8.398438,16.726562 7.875,16.199219 7.351562,15.675781 7.050781,14.925781 6.75,14.175781 6.375,13.425781 6.226562,12.601562 6.226562,11.625 Z m 0,0"
       id="path2" />
    <path
       style="fill:#5199b8;fill-opacity:1;fill-rule:nonzero;stroke:none"
       d="m 13.648438,9.675781 h -1.046876 v 1.273438 H 11.398438 V 12 h 1.203124 v 1.351562 h 1.046876 V 12 h 1.203124 v -1.050781 h -1.203124 z m 4.5,1.199219 v -1.5 H 16.875 v 1.5 h -1.425781 v 1.273438 H 16.875 v 1.578124 h 1.273438 v -1.578124 h 1.425781 V 10.875 Z m 0,0"
       id="path4" />
  </g>
</svg>
