<?xml version="1.0" encoding="UTF-8" standalone="no"?>
<svg
   xmlns:dc="http://purl.org/dc/elements/1.1/"
   xmlns:cc="http://creativecommons.org/ns#"
   xmlns:rdf="http://www.w3.org/1999/02/22-rdf-syntax-ns#"
   xmlns:svg="http://www.w3.org/2000/svg"
   xmlns="http://www.w3.org/2000/svg"
   xmlns:sodipodi="http://sodipodi.sourceforge.net/DTD/sodipodi-0.dtd"
   xmlns:inkscape="http://www.inkscape.org/namespaces/inkscape"
   width="14.210937"
   height="14.210937"
   viewBox="0 0 14.210937 14.210937"
   version="1.1"
   id="svg5"
   sodipodi:docname="dart-symbolic.svg"
   inkscape:version="1.0.2 (e86c870879, 2021-01-15)">
  <metadata
     id="metadata11">
    <rdf:RDF>
      <cc:Work
         rdf:about="">
        <dc:format>image/svg+xml</dc:format>
        <dc:type
           rdf:resource="http://purl.org/dc/dcmitype/StillImage" />
      </cc:Work>
    </rdf:RDF>
  </metadata>
  <defs
     id="defs9" />
  <sodipodi:namedview
     pagecolor="#ffffff"
     bordercolor="#666666"
     borderopacity="1"
     objecttolerance="10"
     gridtolerance="10"
     guidetolerance="10"
     inkscape:pageopacity="0"
     inkscape:pageshadow="2"
     inkscape:window-width="1692"
     inkscape:window-height="1099"
     id="namedview7"
     showgrid="false"
     inkscape:zoom="29.698485"
     inkscape:cx="10.136885"
     inkscape:cy="9.1571983"
     inkscape:window-x="26"
     inkscape:window-y="23"
     inkscape:window-maximized="0"
     inkscape:current-layer="svg5" />
  <g
     id="surface1"
     transform="translate(-4.871094,-4.933594)">
    <path
       style="fill:#000000;fill-opacity:1;fill-rule:nonzero;stroke:none"
       d="m 19.082031,10.785156 -2.972656,-2.96875 -0.0039,-0.00781 -2.375,-2.371094 c -0.242194,-0.246096 -0.71485,-0.503908 -1.113287,-0.503908 -0.355469,0 -0.683594,0.074218 -0.894532,0.199218 L 7.558594,7.214844 7.28125,7.367188 7.15625,7.621094 5.070312,11.972656 c -0.023437,0.04297 -0.199218,0.425782 -0.199218,0.707032 0.00781,0.449218 0.1875,0.882812 0.5,1.203124 l 5.261718,5.261719 h 5.980469 v -2.46875 h 2.46875 z M 11.871094,5.40625 c 0.171875,-0.101562 0.449218,-0.164062 0.746094,-0.164062 0.292968,0 0.699218,0.214843 0.898437,0.414062 l 1.683594,1.683594 h -0.05859 C 15.003906,7.320312 14.863281,7.3125 14.722656,7.316406 H 8.058594 Z m 4.433594,13.429688 H 10.757812 L 7.96875,16.046875 C 7.628906,15.707031 7.558594,15.566406 7.558594,14.875 V 7.839844 l 8.746094,8.746094 z m 0,0"
       id="path2" />
  </g>
</svg>
