<?xml version="1.0" encoding="UTF-8" standalone="no"?>
<svg
   xmlns:dc="http://purl.org/dc/elements/1.1/"
   xmlns:cc="http://creativecommons.org/ns#"
   xmlns:rdf="http://www.w3.org/1999/02/22-rdf-syntax-ns#"
   xmlns:svg="http://www.w3.org/2000/svg"
   xmlns="http://www.w3.org/2000/svg"
   xmlns:sodipodi="http://sodipodi.sourceforge.net/DTD/sodipodi-0.dtd"
   xmlns:inkscape="http://www.inkscape.org/namespaces/inkscape"
   width="13.77267"
   height="13.77267"
   viewBox="0 0 13.77267 13.77267"
   version="1.1"
   id="svg5"
   sodipodi:docname="db-symbolic.svg"
   inkscape:version="1.0.2 (e86c870879, 2021-01-15)">
  <metadata
     id="metadata11">
    <rdf:RDF>
      <cc:Work
         rdf:about="">
        <dc:format>image/svg+xml</dc:format>
        <dc:type
           rdf:resource="http://purl.org/dc/dcmitype/StillImage" />
      </cc:Work>
    </rdf:RDF>
  </metadata>
  <defs
     id="defs9" />
  <sodipodi:namedview
     pagecolor="#ffffff"
     bordercolor="#666666"
     borderopacity="1"
     objecttolerance="10"
     gridtolerance="10"
     guidetolerance="10"
     inkscape:pageopacity="0"
     inkscape:pageshadow="2"
     inkscape:window-width="1683"
     inkscape:window-height="1077"
     id="namedview7"
     showgrid="false"
     inkscape:zoom="42"
     inkscape:cx="6.8863347"
     inkscape:cy="6.8268109"
     inkscape:window-x="26"
     inkscape:window-y="23"
     inkscape:window-maximized="0"
     inkscape:current-layer="svg5" />
  <g
     id="surface1"
     transform="translate(-5.1136653,-5.1273589)">
    <path
       style="fill:#000000;fill-opacity:1;fill-rule:nonzero;stroke:none"
       d="M 12.300781,10.5 C 10.5,10.5 8.773438,10.425781 7.050781,10.050781 6.601562,9.976562 6.226562,9.75 5.773438,9.601562 5.550781,9.523438 5.476562,9.375 5.476562,9.148438 v -2.625 C 5.476562,6.375 5.550781,6.226562 5.699219,6.226562 6.226562,6 6.675781,5.773438 7.199219,5.699219 9.074219,5.25 10.875,5.25 12.75,5.25 c 1.5,0 3.074219,0.148438 4.5,0.523438 0.300781,0.078124 0.675781,0.226562 0.976562,0.375 0.222657,0.078124 0.296876,0.226562 0.296876,0.453124 v 2.625 c 0,0.148438 -0.148438,0.296876 -0.222657,0.375 C 18,9.75 17.699219,9.898438 17.398438,9.976562 16.351562,10.125 15.300781,10.351562 14.25,10.425781 c -0.675781,0.07422 -1.351562,0 -1.949219,0.07422 z m 6.222657,0.148438 v 2.703124 c 0,0.148438 -0.222657,0.375 -0.375,0.375 -0.449219,0.148438 -0.972657,0.375 -1.421876,0.449219 -2.101562,0.375 -4.277343,0.449219 -6.453124,0.375 C 9.074219,14.476562 7.800781,14.398438 6.601562,14.023438 6.300781,13.949219 6,13.800781 5.699219,13.648438 5.550781,13.574219 5.476562,13.425781 5.476562,13.273438 v -2.625 c 2.171876,0.75 4.347657,0.828124 6.523438,0.828124 2.175781,0.07422 4.351562,-0.07812 6.523438,-0.828124 z m 0,4.203124 v 2.625 c 0,0.148438 -0.222657,0.375 -0.375,0.449219 -0.597657,0.222657 -1.199219,0.449219 -1.796876,0.523438 -3,0.449219 -6,0.449219 -9.078124,-0.07422 C 6.75,18.300781 6.226562,18.074219 5.773438,17.925781 5.550781,17.851562 5.476562,17.699219 5.476562,17.398438 V 14.851562 C 7.574219,15.601562 9.75,15.675781 12,15.675781 c 2.175781,0 4.351562,-0.07422 6.523438,-0.824219 z m 0,0"
       id="path2" />
  </g>
</svg>
