<?xml version="1.0" encoding="UTF-8" standalone="no"?>
<svg
   xmlns:dc="http://purl.org/dc/elements/1.1/"
   xmlns:cc="http://creativecommons.org/ns#"
   xmlns:rdf="http://www.w3.org/1999/02/22-rdf-syntax-ns#"
   xmlns:svg="http://www.w3.org/2000/svg"
   xmlns="http://www.w3.org/2000/svg"
   xmlns:sodipodi="http://sodipodi.sourceforge.net/DTD/sodipodi-0.dtd"
   xmlns:inkscape="http://www.inkscape.org/namespaces/inkscape"
   width="15.245669"
   height="15.245669"
   viewBox="0 0 15.245669 15.245669"
   version="1.1"
   id="svg5"
   sodipodi:docname="doc-symbolic.svg"
   inkscape:version="1.0.2 (e86c870879, 2021-01-15)">
  <metadata
     id="metadata11">
    <rdf:RDF>
      <cc:Work
         rdf:about="">
        <dc:format>image/svg+xml</dc:format>
        <dc:type
           rdf:resource="http://purl.org/dc/dcmitype/StillImage" />
      </cc:Work>
    </rdf:RDF>
  </metadata>
  <defs
     id="defs9" />
  <sodipodi:namedview
     pagecolor="#ffffff"
     bordercolor="#666666"
     borderopacity="1"
     objecttolerance="10"
     gridtolerance="10"
     guidetolerance="10"
     inkscape:pageopacity="0"
     inkscape:pageshadow="2"
     inkscape:window-width="1663"
     inkscape:window-height="912"
     id="namedview7"
     showgrid="false"
     inkscape:zoom="29.698485"
     inkscape:cx="9.7195967"
     inkscape:cy="7.3521483"
     inkscape:window-x="26"
     inkscape:window-y="23"
     inkscape:window-maximized="0"
     inkscape:current-layer="svg5" />
  <g
     id="surface1"
     transform="translate(-4.3771655,-4.3771655)">
    <path
       style="fill:#000000;fill-opacity:1;fill-rule:nonzero;stroke:none"
       d="M 19.5,8.589843 V 6.640624 C 19.5,6.339843 19.273438,6.039062 18.898438,6.039062 H 13.425781 V 4.6875 H 12.375 C 12.226562,4.6875 12.148438,4.765624 12,4.765624 11.476562,4.839843 10.949219,4.988281 10.425781,5.0625 9.898438,5.140624 9.375,5.214843 8.925781,5.363281 8.398438,5.4375 7.875,5.515624 7.273438,5.664062 6.675781,5.738281 6.148438,5.8125 5.625,5.890624 5.25,5.964843 4.875,6.039062 4.574219,6.039062 H 4.5 v 11.925781 c 0.601562,0.07422 1.199219,0.222657 1.800781,0.300781 0.597657,0.07422 1.273438,0.222657 1.875,0.296876 0.597657,0.07812 1.199219,0.226562 1.800781,0.300781 0.597657,0.07422 1.273438,0.226562 1.875,0.375 0.222657,0.07422 0.523438,0.07422 0.75,0.07422 h 0.671876 v -1.273438 c 0,-0.07422 0,-0.07422 0.07812,-0.07422 h 5.472657 c 0.07422,0 0.226562,0 0.300781,-0.07422 0.148438,0 0.226562,-0.07812 0.226562,-0.226562 0,-0.148438 0.07422,-0.226562 0.07422,-0.375 V 8.589843 C 19.5,8.664062 19.5,8.664062 19.5,8.589843 Z m -8.25,1.125 -0.675781,2.925781 c -0.148438,0.523438 -0.222657,1.046876 -0.375,1.648438 0,0.07422 -0.07422,0.07422 -0.07422,0.07422 -0.148438,0.07422 -0.300781,0 -0.449219,0 H 9.226562 c -0.078124,0 -0.078124,0 -0.078124,-0.07422 C 9.074219,13.839843 8.925781,13.3125 8.851562,12.863281 8.699219,12.265624 8.625,11.664062 8.476562,11.0625 c 0,0.152343 -0.078124,0.300781 -0.078124,0.453124 l -0.449219,2.25 c 0,0.148438 -0.074219,0.375 -0.074219,0.523438 0,0.07422 0,0.07422 -0.074219,0.07422 -0.300781,0 -0.601562,-0.07422 -0.902343,-0.07422 -0.074219,0 -0.074219,0 -0.074219,-0.07422 C 6.601562,13.015624 6.375,11.8125 6.074219,10.539062 6,10.3125 6,10.015624 5.925781,9.789062 V 9.714843 h 0.898438 c 0.152343,1.050781 0.375,2.097657 0.527343,3.222657 0,-0.148438 0.074219,-0.296876 0.074219,-0.449219 0.222657,-0.898438 0.375,-1.875 0.597657,-2.773438 0,-0.074219 0,-0.074219 0.078124,-0.074219 h 0.75 C 9,9.640624 9,9.640624 9.074219,9.789062 9.300781,10.839843 9.523438,11.890624 9.75,13.015624 v 0.07422 c 0.074219,-0.601562 0.226562,-1.199219 0.300781,-1.800781 0.07422,-0.523438 0.222657,-1.125 0.300781,-1.648438 0,0 0,-0.078124 0.07422,-0.078124 0.300781,0 0.597657,0 0.972657,-0.074219 h 0.07812 C 11.324219,9.488281 11.25,9.640624 11.25,9.714843 Z m 7.726562,-3.074219 c 0,0 0,0.074219 0,0 v 10.875 h -5.625 v -1.351562 h 4.421876 V 15.488281 H 13.5 c -0.07422,0 -0.07422,0 -0.07422,-0.07422 V 14.73828 c 0,-0.07422 0,-0.07422 0.07422,-0.07422 h 4.351562 V 13.988279 H 13.425781 V 13.16406 h 4.347657 c 0.07812,0 0.07812,0 0.07812,-0.07422 V 12.5625 c 0,-0.07422 0,-0.07422 -0.07812,-0.07422 H 13.5 c -0.07422,0 -0.07422,0 -0.07422,-0.07422 v -0.75 h 4.425781 v -0.675781 h -4.277343 c -0.07422,0 -0.07422,0 -0.07422,-0.07422 v -0.675781 c 0,-0.07422 0,-0.07422 0.07422,-0.07422 h 4.277343 V 9.488281 h -4.42578 V 8.589843 h 4.347657 c 0.07812,0 0.07812,0 0.07812,-0.074219 V 7.988281 c 0,-0.074219 0,-0.074219 -0.07812,-0.074219 h -4.421876 v -1.125 c 0,-0.074219 0,-0.074219 0.07422,-0.074219 h 5.472657 C 18.976562,6.5625 18.976562,6.5625 18.976562,6.640624 Z m 0,0"
       id="path2" />
  </g>
</svg>
