<?xml version="1.0" encoding="UTF-8" standalone="no"?>
<svg
   xmlns:dc="http://purl.org/dc/elements/1.1/"
   xmlns:cc="http://creativecommons.org/ns#"
   xmlns:rdf="http://www.w3.org/1999/02/22-rdf-syntax-ns#"
   xmlns:svg="http://www.w3.org/2000/svg"
   xmlns="http://www.w3.org/2000/svg"
   xmlns:sodipodi="http://sodipodi.sourceforge.net/DTD/sodipodi-0.dtd"
   xmlns:inkscape="http://www.inkscape.org/namespaces/inkscape"
   width="17.396667"
   height="17.396667"
   viewBox="0 0 17.396667 17.396667"
   version="1.1"
   id="svg7"
   sodipodi:docname="Dockerfile-symbolic.svg"
   inkscape:version="1.0.2 (e86c870879, 2021-01-15)">
  <metadata
     id="metadata13">
    <rdf:RDF>
      <cc:Work
         rdf:about="">
        <dc:format>image/svg+xml</dc:format>
        <dc:type
           rdf:resource="http://purl.org/dc/dcmitype/StillImage" />
      </cc:Work>
    </rdf:RDF>
  </metadata>
  <defs
     id="defs11" />
  <sodipodi:namedview
     pagecolor="#ffffff"
     bordercolor="#666666"
     borderopacity="1"
     objecttolerance="10"
     gridtolerance="10"
     guidetolerance="10"
     inkscape:pageopacity="0"
     inkscape:pageshadow="2"
     inkscape:window-width="1769"
     inkscape:window-height="1057"
     id="namedview9"
     showgrid="false"
     inkscape:zoom="42"
     inkscape:cx="8.698334"
     inkscape:cy="8.6388102"
     inkscape:window-x="26"
     inkscape:window-y="23"
     inkscape:window-maximized="0"
     inkscape:current-layer="svg7" />
  <g
     id="surface1"
     transform="translate(-3.5528235,-3.2645565)">
    <path
       style="fill:#4f99b8;fill-opacity:1;fill-rule:nonzero;stroke:none"
       d="m 10.875,6.449219 h 1.5 v 1.5 h -1.5 z m 0,1.726562 h 1.5 v 1.5 h -1.5 z m 0,1.800781 h 1.5 v 1.5 h -1.5 z M 9.148438,8.175781 h 1.5 v 1.5 h -1.5 z m 0,1.800781 h 1.5 v 1.5 h -1.5 z M 7.351562,8.175781 h 1.5 v 1.5 h -1.5 z m 0,1.800781 h 1.5 v 1.5 h -1.5 z m -1.726562,0 h 1.5 v 1.5 h -1.5 z m 7.050781,0 h 1.5 v 1.5 h -1.5 z m 0,0"
       id="path2" />
    <path
       style="fill:#4f99b8;fill-opacity:1;fill-rule:nonzero;stroke:none"
       d="m 20.324219,10.199219 c -0.300781,-0.07422 -0.675781,-0.148438 -0.972657,-0.148438 -0.375,0.07422 -0.601562,-0.074219 -0.75,-0.449219 -0.152343,-0.375 -0.375,-0.675781 -0.675781,-0.902343 -0.449219,-0.523438 -0.902343,-0.375 -1.125,0.226562 -0.152343,0.523438 -0.152343,1.125 -0.07422,1.648438 C 16.875,11.25 16.800781,11.398438 16.125,11.550781 15.300781,11.773438 3.898438,11.699219 3.898438,11.699219 c -0.148438,0 -0.222657,0.375 -0.222657,0.75 0,0.375 0.074219,1.5 0.300781,2.027343 0.75,1.648438 2.023438,2.847657 3.898438,3 h 3.375 c 2.175781,-0.07812 3.898438,-1.125 5.398438,-2.703124 0.601562,-0.671876 1.125,-1.421876 1.5,-2.25 0.152343,-0.296876 0.375,-0.449219 0.675781,-0.523438 0.527343,-0.07422 0.976562,-0.148438 1.351562,-0.449219 C 20.25,11.398438 20.398438,11.25 20.476562,11.175781 21,10.800781 20.925781,10.351562 20.324219,10.199219 Z M 9.148438,14.023438 C 9.449219,14.023438 9.75,14.25 9.75,14.625 9.75,15 9.523438,15.226562 9.148438,15.226562 8.851562,15.226562 8.550781,15 8.550781,14.625 c 0,-0.375 0.300781,-0.601562 0.597657,-0.601562 z M 5.476562,15.675781 C 6.074219,15.601562 6.675781,15.75 7.199219,15.601562 7.875,15.375 8.398438,15.449219 8.773438,16.199219 9,16.648438 9.523438,16.875 10.050781,17.175781 c -1.652343,0.222657 -3.449219,-0.375 -4.574219,-1.5 z m 0,0"
       id="path4" />
  </g>
</svg>
