<?xml version="1.0" encoding="UTF-8" standalone="no"?>
<svg
   xmlns:dc="http://purl.org/dc/elements/1.1/"
   xmlns:cc="http://creativecommons.org/ns#"
   xmlns:rdf="http://www.w3.org/1999/02/22-rdf-syntax-ns#"
   xmlns:svg="http://www.w3.org/2000/svg"
   xmlns="http://www.w3.org/2000/svg"
   xmlns:sodipodi="http://sodipodi.sourceforge.net/DTD/sodipodi-0.dtd"
   xmlns:inkscape="http://www.inkscape.org/namespaces/inkscape"
   width="16.880669"
   height="16.880669"
   viewBox="0 0 16.880669 16.880669"
   version="1.1"
   id="svg13"
   sodipodi:docname="go-symbolic.svg"
   inkscape:version="1.0.2 (e86c870879, 2021-01-15)">
  <metadata
     id="metadata19">
    <rdf:RDF>
      <cc:Work
         rdf:about="">
        <dc:format>image/svg+xml</dc:format>
        <dc:type
           rdf:resource="http://purl.org/dc/dcmitype/StillImage" />
      </cc:Work>
    </rdf:RDF>
  </metadata>
  <defs
     id="defs17" />
  <sodipodi:namedview
     pagecolor="#ffffff"
     bordercolor="#666666"
     borderopacity="1"
     objecttolerance="10"
     gridtolerance="10"
     guidetolerance="10"
     inkscape:pageopacity="0"
     inkscape:pageshadow="2"
     inkscape:window-width="2560"
     inkscape:window-height="1376"
     id="namedview15"
     showgrid="false"
     inkscape:zoom="42"
     inkscape:cx="8.4403346"
     inkscape:cy="8.3808108"
     inkscape:window-x="0"
     inkscape:window-y="0"
     inkscape:window-maximized="1"
     inkscape:current-layer="svg13" />
  <g
     id="surface1"
     transform="translate(-3.5782201,-3.6539698)">
    <path
       style="fill:#fdfdfa;fill-opacity:1;fill-rule:nonzero;stroke:none"
       d="m 13.726562,7.5 c -0.828124,0 -1.425781,-0.449219 -1.578124,-1.199219 -0.07422,-0.449219 0.07812,-0.824219 0.375,-1.125 C 12.976562,4.648438 13.726562,4.5 14.398438,4.726562 15,4.949219 15.375,5.476562 15.300781,6.148438 15.300781,6.75 14.925781,7.199219 14.25,7.425781 14.023438,7.5 13.875,7.5 13.726562,7.5 Z M 12.449219,6.148438 c 0,0.300781 0.226562,0.527343 0.449219,0.527343 0.226562,0 0.453124,-0.226562 0.453124,-0.527343 C 13.351562,5.851562 13.125,5.625 12.898438,5.625 12.675781,5.699219 12.449219,5.925781 12.449219,6.148438 Z m -2.625,-1.347657 C 11.25,4.800781 11.625,6 11.25,6.824219 c -0.226562,0.527343 -0.675781,0.75 -1.273438,0.824219 -0.75,0.152343 -1.425781,-0.296876 -1.652343,-0.972657 -0.300781,-0.824219 0.226562,-1.652343 1.125,-1.875 z m -0.300781,1.5 C 9.523438,6 9.300781,5.773438 9.074219,5.773438 8.851562,5.773438 8.625,6 8.625,6.300781 c 0,0.300781 0.226562,0.523438 0.449219,0.523438 0.226562,0 0.449219,-0.222657 0.449219,-0.523438 z m 2.402343,0.75 c 0.148438,0 0.300781,0 0.449219,0.074219 0.226562,0.074219 0.300781,0.300781 0.226562,0.449219 0,0.074219 0,0.074219 0.07422,0.152343 0.148438,0.074219 0.222657,0.148438 0.375,0.296876 0.148438,0.152343 0.148438,0.300781 0.07422,0.453124 C 13.050781,8.625 12.824219,8.699219 12.675781,8.625 c -0.07422,0 -0.226562,-0.074219 -0.300781,-0.148438 -0.226562,-0.078124 -0.449219,-0.078124 -0.675781,0 C 11.550781,8.550781 11.398438,8.625 11.25,8.625 c -0.300781,0 -0.449219,-0.148438 -0.375,-0.449219 0,-0.226562 0.148438,-0.375 0.300781,-0.449219 0,0 0.07422,0 0.07422,-0.078124 -0.07422,-0.296876 0.148438,-0.375 0.300781,-0.523438 0.07422,-0.074219 0.222657,-0.074219 0.375,-0.074219 z M 11.851562,7.875 c 0.222657,0 0.449219,-0.074219 0.597657,-0.148438 0.226562,-0.152343 0.226562,-0.300781 0.07422,-0.453124 C 12.449219,7.199219 12.300781,7.125 12.226562,7.125 12,7.050781 11.699219,7.125 11.550781,7.273438 11.324219,7.5 11.398438,7.726562 11.699219,7.800781 11.625,7.875 11.699219,7.875 11.851562,7.875 Z m 0,0"
       id="path2" />
    <path
       style="fill:#fdfdfa;fill-opacity:1;fill-rule:nonzero;stroke:none"
       d="m 12.523438,9.074219 v 0.152343 c 0,0.148438 -0.07422,0.296876 -0.222657,0.296876 C 12.148438,9.523438 12,9.375 12,9.300781 c -0.07422,-0.226562 0,-0.449219 0,-0.75 0,-0.074219 0,-0.074219 0.07422,-0.074219 0.152343,0 0.300781,0.074219 0.375,0.148438 0.07422,0 0.07422,0.074219 0.07422,0.074219 z M 11.851562,8.925781 v 0.222657 c 0,0.152343 -0.07812,0.226562 -0.152343,0.300781 C 11.550781,9.601562 11.398438,9.523438 11.324219,9.375 11.25,9.226562 11.25,9 11.25,8.773438 c 0,-0.074219 0,-0.074219 0.07422,-0.074219 C 11.476562,8.625 11.625,8.625 11.773438,8.550781 c 0.07812,0 0.07812,0 0.07812,0.074219 z m 0,0"
       id="path4" />
    <path
       style="fill:#5199b8;fill-opacity:1;fill-rule:nonzero;stroke:none"
       d="M 7.875,20.25 H 7.726562 C 7.648438,20.175781 7.5,20.101562 7.425781,19.949219 7.273438,19.800781 7.273438,19.574219 7.5,19.351562 7.648438,19.125 7.949219,18.976562 8.175781,18.824219 7.574219,18.300781 7.273438,17.699219 7.125,16.949219 6.976562,16.425781 6.976562,15.824219 6.976562,15.226562 6.976562,14.324219 7.125,13.5 7.125,12.601562 6.898438,12.75 6.675781,12.898438 6.375,12.976562 H 6.226562 C 6.074219,12.824219 6,12.675781 6,12.523438 6,12.375 6.148438,12.226562 6.226562,12.148438 6.449219,12 6.675781,11.925781 6.976562,11.925781 c 0.148438,0 0.148438,-0.07422 0.148438,-0.152343 -0.074219,-0.75 -0.148438,-1.5 -0.148438,-2.25 C 6.898438,8.773438 6.898438,7.949219 7.050781,7.199219 7.125,6.824219 7.125,6.824219 6.824219,6.75 6.449219,6.523438 6.226562,6.074219 6.300781,5.699219 6.449219,4.875 7.351562,4.5 8.101562,4.875 c 0.074219,0.074219 0.148438,0.074219 0.222657,0 0.375,-0.300781 0.75,-0.523438 1.199219,-0.675781 1.277343,-0.449219 2.625,-0.523438 3.902343,-0.300781 0.675781,0.078124 1.347657,0.300781 1.875,0.75 C 15.449219,4.800781 15.601562,4.800781 15.75,4.726562 16.351562,4.425781 17.023438,4.648438 17.324219,5.25 17.625,5.851562 17.398438,6.375 16.726562,6.675781 16.648438,6.75 16.648438,6.75 16.648438,6.824219 c 0.226562,0.75 0.300781,1.5 0.300781,2.324219 0,0.902343 0,1.726562 0.07422,2.625 0,0.152343 0,0.152343 0.152343,0.226562 0.300781,0 0.523438,0.148438 0.75,0.375 0.148438,0.148438 0.148438,0.226562 0,0.449219 v 0.07422 c 0,0.152343 -0.152343,0.226562 -0.300781,0.226562 -0.148438,0 -0.300781,-0.07422 -0.375,-0.148438 -0.07422,0 -0.148438,-0.07812 -0.226562,-0.07812 v 0.07812 c 0,0.449219 0.07812,0.898438 0.07812,1.421876 0,0.828124 0,1.578124 -0.152343,2.402343 -0.148438,0.75 -0.449219,1.5 -0.972657,2.097657 -0.07812,0.07812 -0.07812,0.152343 0,0.226562 0.222657,0.148438 0.449219,0.375 0.597657,0.675781 0.07422,0.222657 0,0.375 -0.222657,0.523438 -0.152343,0.152343 -0.300781,0.07422 -0.453124,0 l -0.296876,-0.300781 c -0.152343,-0.148438 -0.226562,-0.296876 -0.375,-0.375 -0.07812,-0.07422 -0.152343,-0.07422 -0.226562,0 C 14.175781,20.101562 13.273438,20.25 12.375,20.25 11.324219,20.324219 10.199219,20.175781 9.226562,19.726562 H 9.148438 C 9,19.875 8.699219,19.949219 8.550781,20.101562 8.324219,19.949219 8.101562,20.101562 7.875,20.25 Z M 13.726562,7.5 c 0.148438,0 0.375,0 0.523438,-0.074219 0.601562,-0.226562 0.976562,-0.675781 1.050781,-1.277343 0,-0.671876 -0.375,-1.199219 -0.902343,-1.421876 -0.597657,-0.226562 -1.421876,0 -1.875,0.449219 -0.296876,0.300781 -0.449219,0.675781 -0.375,1.125 0.152343,0.75 0.75,1.199219 1.578124,1.199219 z M 9.824219,4.800781 h -0.375 c -0.898438,0.148438 -1.425781,0.972657 -1.125,1.875 C 8.550781,7.351562 9.226562,7.726562 9.976562,7.648438 10.5,7.574219 10.949219,7.351562 11.25,6.824219 11.625,6 11.25,4.800781 9.824219,4.800781 Z m 2.101562,2.25 c -0.152343,0 -0.300781,0 -0.449219,0.074219 -0.226562,0.148438 -0.375,0.226562 -0.300781,0.523438 0,0.078124 -0.07422,0.078124 -0.07422,0.078124 -0.152343,0.074219 -0.300781,0.222657 -0.300781,0.449219 -0.07422,0.300781 0.148438,0.449219 0.375,0.449219 0.148438,0 0.300781,-0.074219 0.449219,-0.148438 0.226562,-0.078124 0.449219,-0.078124 0.675781,0 0.07422,0.074219 0.222657,0.074219 0.300781,0.148438 0.222657,0.074219 0.375,0 0.449219,-0.148438 C 13.125,8.324219 13.125,8.175781 12.976562,8.023438 12.898438,7.875 12.75,7.800781 12.601562,7.726562 c -0.07812,0 -0.07812,-0.078124 -0.07812,-0.152343 0.07812,-0.222657 0,-0.375 -0.222657,-0.449219 -0.07422,-0.074219 -0.226562,-0.074219 -0.375,-0.074219 z m 0.597657,2.023438 v -0.375 c 0,-0.074219 0,-0.074219 -0.07422,-0.074219 -0.148438,-0.074219 -0.300781,-0.074219 -0.375,-0.148438 -0.07422,0 -0.07422,0 -0.07422,0.074219 0,0.222657 -0.07422,0.449219 0,0.75 0,0.148438 0.148438,0.300781 0.300781,0.222657 0.148438,0 0.222657,-0.148438 0.222657,-0.296876 z M 11.851562,8.925781 V 8.625 c 0,-0.074219 0,-0.074219 -0.07812,-0.074219 C 11.625,8.625 11.476562,8.625 11.324219,8.699219 11.25,8.699219 11.25,8.773438 11.25,8.773438 c 0,0.226562 0,0.375 0.07422,0.601562 0.07422,0.148438 0.226562,0.226562 0.375,0.074219 0.07422,-0.074219 0.152343,-0.148438 0.152343,-0.300781 -0.07812,-0.074219 0,-0.148438 0,-0.222657 z m 0,0"
       id="path6" />
    <path
       style="fill:#5199b8;fill-opacity:1;fill-rule:nonzero;stroke:none"
       d="m 12.449219,6.148438 c 0,-0.296876 0.226562,-0.523438 0.449219,-0.523438 0.226562,0 0.453124,0.226562 0.453124,0.523438 0,0.300781 -0.226562,0.527343 -0.453124,0.527343 -0.222657,0 -0.449219,-0.226562 -0.449219,-0.527343 z m 0.824219,0.152343 c 0,-0.074219 0,-0.152343 -0.07422,-0.152343 -0.07422,0 -0.07422,0.078124 -0.07422,0.152343 0,0.074219 0,0.148438 0.07422,0.148438 0,0 0,-0.074219 0.07422,-0.148438 z m -3.75,0 c 0,0.300781 -0.222657,0.523438 -0.449219,0.523438 C 8.851562,6.824219 8.625,6.601562 8.625,6.300781 8.625,6 8.851562,5.773438 9.074219,5.773438 9.300781,5.773438 9.523438,6 9.523438,6.300781 Z M 9.300781,6.523438 C 9.375,6.523438 9.375,6.449219 9.375,6.449219 9.375,6.375 9.375,6.300781 9.300781,6.300781 9.226562,6.300781 9.226562,6.375 9.226562,6.375 c -0.078124,0.074219 0,0.148438 0.074219,0.148438 z M 11.851562,7.875 c -0.07812,0 -0.226562,0 -0.300781,-0.074219 C 11.25,7.726562 11.25,7.5 11.398438,7.273438 11.625,7.125 11.851562,7.050781 12.074219,7.125 c 0.152343,0 0.226562,0.074219 0.300781,0.148438 0.148438,0.152343 0.148438,0.375 -0.07422,0.453124 C 12.226562,7.800781 12.074219,7.875 11.851562,7.875 Z m 0,0"
       id="path8" />
    <path
       style="fill:#fdfdfa;fill-opacity:1;fill-rule:nonzero;stroke:none"
       d="m 13.273438,6.300781 c 0,0.074219 0,0.148438 -0.07422,0.148438 -0.07422,0 -0.07422,-0.074219 -0.07422,-0.148438 0,-0.074219 0,-0.152343 0.07422,-0.152343 0,0 0,0.078124 0.07422,0.152343 z M 9.300781,6.523438 c -0.074219,0 -0.074219,-0.074219 -0.074219,-0.148438 0,-0.074219 0,-0.148438 0.074219,-0.074219 C 9.375,6.300781 9.375,6.375 9.375,6.449219 c 0,0.074219 0,0.074219 -0.074219,0.074219 z m 0,0"
       id="path10" />
  </g>
</svg>
