<?xml version="1.0" encoding="UTF-8" standalone="no"?>
<svg
   xmlns:dc="http://purl.org/dc/elements/1.1/"
   xmlns:cc="http://creativecommons.org/ns#"
   xmlns:rdf="http://www.w3.org/1999/02/22-rdf-syntax-ns#"
   xmlns:svg="http://www.w3.org/2000/svg"
   xmlns="http://www.w3.org/2000/svg"
   xmlns:sodipodi="http://sodipodi.sourceforge.net/DTD/sodipodi-0.dtd"
   xmlns:inkscape="http://www.inkscape.org/namespaces/inkscape"
   width="15.49667"
   height="15.49667"
   viewBox="0 0 15.49667 15.49667"
   version="1.1"
   id="svg5"
   sodipodi:docname="gruntfile.js-symbolic.svg"
   inkscape:version="1.0.2 (e86c870879, 2021-01-15)">
  <metadata
     id="metadata11">
    <rdf:RDF>
      <cc:Work
         rdf:about="">
        <dc:format>image/svg+xml</dc:format>
        <dc:type
           rdf:resource="http://purl.org/dc/dcmitype/StillImage" />
      </cc:Work>
    </rdf:RDF>
  </metadata>
  <defs
     id="defs9" />
  <sodipodi:namedview
     pagecolor="#ffffff"
     bordercolor="#666666"
     borderopacity="1"
     objecttolerance="10"
     gridtolerance="10"
     guidetolerance="10"
     inkscape:pageopacity="0"
     inkscape:pageshadow="2"
     inkscape:window-width="2560"
     inkscape:window-height="1376"
     id="namedview7"
     showgrid="false"
     inkscape:zoom="42"
     inkscape:cx="7.7483347"
     inkscape:cy="7.6888109"
     inkscape:window-x="0"
     inkscape:window-y="0"
     inkscape:window-maximized="1"
     inkscape:current-layer="svg5" />
  <g
     id="surface1"
     transform="translate(-4.2717416,-4.3771001)">
    <path
       style="fill:#ee7521;fill-opacity:1;fill-rule:nonzero;stroke:none"
       d="M 16.875,12.300781 C 17.175781,12.148438 17.550781,12 17.851562,11.773438 c 0.671876,-0.449219 0.671876,-1.273438 0,-1.574219 C 17.699219,10.125 17.625,9.976562 17.550781,9.75 c -0.07422,-0.449219 0,-0.824219 0.222657,-1.199219 0.527343,-0.75 0.152343,-1.351562 -0.824219,-1.425781 H 16.875 L 16.800781,7.050781 C 16.726562,6.675781 16.648438,6.375 17.101562,6.074219 17.25,6 17.476562,5.925781 17.699219,5.851562 17.851562,5.773438 18,5.773438 18.074219,5.773438 18.074219,5.699219 18,5.699219 18,5.699219 17.476562,5.101562 16.726562,4.949219 16.050781,5.023438 15.148438,5.101562 14.625,5.550781 14.101562,6.148438 14.023438,6.300781 13.875,6.300781 13.726562,6.226562 13.574219,6.148438 13.574219,6.074219 13.574219,6 c 0,-0.148438 0.07422,-0.300781 0.07422,-0.449219 L 13.875,5.101562 c -0.449219,0 -0.75,0.222657 -1.125,0.449219 C 12.523438,5.175781 12.523438,4.875 12.675781,4.5 12,4.726562 11.550781,5.023438 11.398438,5.699219 11.175781,5.476562 11.25,5.175781 11.25,4.875 h -0.07422 c -0.07422,0 -0.07422,0.074219 -0.152343,0.074219 C 10.648438,5.25 10.425781,5.625 10.351562,6 c 0,0.074219 -0.07812,0.148438 -0.07812,0.226562 C 10.199219,6.148438 10.125,6.148438 10.050781,6.074219 9.75,5.851562 9.449219,5.550781 9.148438,5.324219 8.25,4.800781 7.425781,4.800781 6.523438,5.25 L 5.925781,5.851562 C 6.226562,6 6.523438,6 6.824219,6.148438 7.351562,6.300781 7.5,6.601562 7.273438,7.199219 7.125,7.199219 6.976562,7.273438 6.824219,7.273438 6.300781,7.425781 6.074219,7.800781 6.148438,8.25 6.226562,8.476562 6.375,8.699219 6.449219,8.925781 6.449219,9 6.523438,9.074219 6.523438,9.148438 v 0.75 c 0,0.152343 -0.148438,0.300781 -0.296876,0.453124 C 6.074219,10.5 5.851562,10.648438 5.773438,10.875 c -0.222657,0.375 0,0.824219 0.375,1.125 C 6.449219,12.226562 6.75,12.375 7.125,12.523438 7.574219,12.75 7.726562,13.050781 7.726562,13.425781 c 0,0.449219 0,0.824219 -0.078124,1.273438 0,0.152343 -0.074219,0.375 -0.074219,0.601562 -0.449219,-0.375 -0.75,-0.75 -0.824219,-1.277343 -0.449219,0.375 -0.675781,0.75 -0.675781,1.203124 C 5.925781,16.199219 6.300781,17.175781 7.5,17.625 c 0.074219,0 0.148438,0.07422 0.226562,0.148438 0.449219,0.75 1.125,1.203124 2.023438,1.351562 0.074219,0 0.148438,0 0.148438,0.07422 0.828124,0.527343 1.652343,0.601562 2.550781,0.527343 0.527343,-0.07812 0.976562,-0.152343 1.351562,-0.453124 0.07422,-0.07422 0.222657,-0.07422 0.300781,-0.148438 0.898438,-0.148438 1.5,-0.601562 1.949219,-1.273438 L 16.273438,17.625 c 0.453124,-0.148438 0.828124,-0.375 1.050781,-0.75 0.375,-0.523438 0.449219,-1.199219 0.375,-1.726562 -0.07422,-0.449219 -0.300781,-0.75 -0.675781,-1.125 -0.148438,0.527343 -0.375,0.902343 -0.824219,1.277343 C 16.125,14.625 16.125,13.949219 16.125,13.351562 16.273438,12.75 16.5,12.449219 16.875,12.300781 Z m -6.300781,3.972657 h 3.375 z m 0,0"
       id="path2" />
  </g>
</svg>
