<?xml version="1.0" encoding="UTF-8" standalone="no"?>
<svg
   xmlns:dc="http://purl.org/dc/elements/1.1/"
   xmlns:cc="http://creativecommons.org/ns#"
   xmlns:rdf="http://www.w3.org/1999/02/22-rdf-syntax-ns#"
   xmlns:svg="http://www.w3.org/2000/svg"
   xmlns="http://www.w3.org/2000/svg"
   xmlns:sodipodi="http://sodipodi.sourceforge.net/DTD/sodipodi-0.dtd"
   xmlns:inkscape="http://www.inkscape.org/namespaces/inkscape"
   width="19.267668"
   height="19.267668"
   viewBox="0 0 19.267668 19.267668"
   version="1.1"
   id="svg5"
   sodipodi:docname="gulpfile.js-symbolic.svg"
   inkscape:version="1.0.2 (e86c870879, 2021-01-15)">
  <metadata
     id="metadata11">
    <rdf:RDF>
      <cc:Work
         rdf:about="">
        <dc:format>image/svg+xml</dc:format>
        <dc:type
           rdf:resource="http://purl.org/dc/dcmitype/StillImage" />
      </cc:Work>
    </rdf:RDF>
  </metadata>
  <defs
     id="defs9" />
  <sodipodi:namedview
     pagecolor="#ffffff"
     bordercolor="#666666"
     borderopacity="1"
     objecttolerance="10"
     gridtolerance="10"
     guidetolerance="10"
     inkscape:pageopacity="0"
     inkscape:pageshadow="2"
     inkscape:window-width="2560"
     inkscape:window-height="1376"
     id="namedview7"
     showgrid="false"
     inkscape:zoom="42"
     inkscape:cx="9.6338342"
     inkscape:cy="9.5743104"
     inkscape:window-x="0"
     inkscape:window-y="0"
     inkscape:window-maximized="1"
     inkscape:current-layer="svg5" />
  <g
     id="surface1"
     transform="translate(-2.3661658,-2.3785156)">
    <path
       style="fill:#cc3d45;fill-opacity:1;fill-rule:nonzero;stroke:none"
       d="m 15.074219,17.101562 c -0.148438,0.222657 -0.222657,0.375 -0.300781,0.523438 C 14.699219,17.773438 14.625,18 14.625,18.148438 c -0.07422,0.75 -0.148438,1.578124 -0.226562,2.328124 0,0.296876 -0.148438,0.449219 -0.375,0.523438 -0.523438,0.148438 -1.125,0.375 -1.648438,0.523438 h -0.824219 c -0.07422,0 -0.226562,-0.07422 -0.300781,-0.07422 C 10.800781,21.300781 10.351562,21.148438 9.976562,20.925781 9.898438,20.851562 9.75,20.699219 9.75,20.550781 c -0.074219,-0.601562 -0.074219,-1.125 -0.074219,-1.726562 0,-0.597657 0,-1.199219 -0.449219,-1.648438 v -0.07422 c 1.875,0.523438 3.824219,0.523438 5.847657,0 z m 1.125,-9.527343 C 16.125,8.625 15.976562,9.675781 15.898438,10.726562 l -0.296876,3.074219 c -0.07812,0.75 -0.152343,1.574219 -0.226562,2.398438 0,0.527343 -0.300781,0.75 -0.75,0.824219 -0.75,0.152343 -1.425781,0.226562 -2.175781,0.300781 -1.050781,0.07422 -2.097657,0 -3.148438,-0.300781 -0.375,-0.07422 -0.449219,-0.375 -0.527343,-0.671876 0,-0.375 -0.074219,-0.75 -0.148438,-1.050781 C 8.550781,14.625 8.476562,13.949219 8.398438,13.199219 L 8.324219,12.523438 C 8.324219,12.449219 8.25,12.375 8.25,12.300781 8.175781,11.101562 7.949219,9.976562 7.800781,8.773438 7.726562,8.398438 7.726562,8.023438 7.726562,7.648438 10.574219,8.25 13.425781,8.25 16.199219,7.574219 Z M 7.726562,7.125 C 7.875,7.050781 8.023438,6.976562 8.175781,6.976562 8.851562,6.898438 9.601562,6.824219 10.273438,6.75 c 0.07812,0 0.300781,-0.148438 0.300781,-0.148438 C 10.351562,5.925781 10.351562,5.25 9.824219,4.726562 9.226562,4.125 8.699219,3.449219 8.101562,2.851562 8.550781,2.398438 8.550781,2.398438 8.925781,2.773438 9.226562,3.074219 9.449219,3.375 9.75,3.601562 c 0.824219,0.671876 1.351562,1.574219 1.5,2.625 C 11.398438,6.675781 11.625,6.75 12,6.75 c 1.273438,0.074219 2.476562,0.148438 3.75,0.226562 0.148438,0 0.300781,0.074219 0.523438,0.148438 C 15,8.101562 8.476562,8.023438 7.726562,7.125 Z m 0,0"
       id="path2" />
  </g>
</svg>
