<?xml version="1.0" encoding="UTF-8" standalone="no"?>
<svg
   xmlns:dc="http://purl.org/dc/elements/1.1/"
   xmlns:cc="http://creativecommons.org/ns#"
   xmlns:rdf="http://www.w3.org/1999/02/22-rdf-syntax-ns#"
   xmlns:svg="http://www.w3.org/2000/svg"
   xmlns="http://www.w3.org/2000/svg"
   xmlns:sodipodi="http://sodipodi.sourceforge.net/DTD/sodipodi-0.dtd"
   xmlns:inkscape="http://www.inkscape.org/namespaces/inkscape"
   width="13.728669"
   height="13.728669"
   viewBox="0 0 13.728669 13.728669"
   version="1.1"
   id="svg5"
   sodipodi:docname="haml-symbolic.svg"
   inkscape:version="1.0.2 (e86c870879, 2021-01-15)">
  <metadata
     id="metadata11">
    <rdf:RDF>
      <cc:Work
         rdf:about="">
        <dc:format>image/svg+xml</dc:format>
        <dc:type
           rdf:resource="http://purl.org/dc/dcmitype/StillImage" />
      </cc:Work>
    </rdf:RDF>
  </metadata>
  <defs
     id="defs9" />
  <sodipodi:namedview
     pagecolor="#ffffff"
     bordercolor="#666666"
     borderopacity="1"
     objecttolerance="10"
     gridtolerance="10"
     guidetolerance="10"
     inkscape:pageopacity="0"
     inkscape:pageshadow="2"
     inkscape:window-width="2560"
     inkscape:window-height="1376"
     id="namedview7"
     showgrid="false"
     inkscape:zoom="42"
     inkscape:cx="6.8643344"
     inkscape:cy="6.8048106"
     inkscape:window-x="0"
     inkscape:window-y="0"
     inkscape:window-maximized="1"
     inkscape:current-layer="svg5" />
  <g
     id="surface1"
     transform="translate(-5.1252749,-5.1357151)">
    <path
       style="fill:#cc3d45;fill-opacity:1;fill-rule:nonzero;stroke:none"
       d="M 15,11.25 C 14.25,10.949219 14.773438,9.75 14.773438,9.75 L 15.601562,9 c 0,0 0.222657,0.074219 0.449219,-0.074219 0.300781,-0.152343 0.222657,-0.527343 0.222657,-0.527343 L 16.875,7.726562 c 0,0 0.226562,-0.078124 -0.675781,-0.75 C 15.300781,6.300781 15,6.675781 15,6.675781 l -0.675781,0.523438 c 0,0 -0.222657,0 -0.375,0.074219 -0.148438,0.078124 0,0.375 0,0.375 L 10.875,10.199219 9.300781,6.601562 c 0,0 0.148438,-0.152343 0.074219,-0.375 C 9.375,6 9.148438,6 9.148438,6 8.773438,5.324219 8.625,5.324219 8.625,5.324219 7.351562,5.023438 6.824219,5.851562 6.824219,5.851562 6.75,5.925781 6.898438,6.375 6.898438,6.375 c 0,0 -0.148438,0.074219 -0.074219,0.449219 C 6.976562,7.351562 7.273438,7.125 7.273438,7.125 l 2.027343,4.5 c 0,0.375 -1.574219,6.300781 -1.574219,6.300781 1.199219,1.273438 3,0.675781 3,0.675781 0,-0.75 0.898438,-5.101562 0.898438,-5.101562 0.976562,0.898438 2.023438,1.050781 2.398438,1.050781 0,0.300781 0.07812,0.523438 0.07812,0.523438 0,0 1.421876,0.527343 2.171876,-0.597657 0.07812,-0.07812 0.07812,-0.152343 0.07812,-0.226562 0,0 0.824219,-0.300781 0.824219,-1.050781 C 17.175781,12.148438 15.75,11.550781 15,11.25 Z m 1.5,2.699219 C 16.648438,13.425781 16.351562,13.125 16.351562,13.125 c 0,0 -0.07812,0.449219 -0.902343,0.675781 -0.824219,0.222657 -1.050781,-0.152343 -1.050781,-0.152343 0,0 -0.148438,0.226562 -0.296876,0.527343 C 12.375,13.875 11.851562,12.976562 11.699219,12.75 11.625,12.523438 11.773438,12 11.773438,12 l 2.25,-1.648438 c -0.148438,1.046876 1.050781,1.421876 1.050781,1.421876 0,0 1.726562,0.601562 1.726562,1.5 C 16.875,13.648438 16.648438,13.875 16.5,13.949219 Z m 0,0"
       id="path2" />
  </g>
</svg>
