<?xml version="1.0" encoding="UTF-8" standalone="no"?>
<svg
   xmlns:dc="http://purl.org/dc/elements/1.1/"
   xmlns:cc="http://creativecommons.org/ns#"
   xmlns:rdf="http://www.w3.org/1999/02/22-rdf-syntax-ns#"
   xmlns:svg="http://www.w3.org/2000/svg"
   xmlns="http://www.w3.org/2000/svg"
   xmlns:sodipodi="http://sodipodi.sourceforge.net/DTD/sodipodi-0.dtd"
   xmlns:inkscape="http://www.inkscape.org/namespaces/inkscape"
   width="15.245669"
   height="15.245669"
   viewBox="0 0 15.245669 15.245669"
   version="1.1"
   id="svg7"
   sodipodi:docname="hs-symbolic.svg"
   inkscape:version="1.0.2 (e86c870879, 2021-01-15)">
  <metadata
     id="metadata13">
    <rdf:RDF>
      <cc:Work
         rdf:about="">
        <dc:format>image/svg+xml</dc:format>
        <dc:type
           rdf:resource="http://purl.org/dc/dcmitype/StillImage" />
      </cc:Work>
    </rdf:RDF>
  </metadata>
  <defs
     id="defs11" />
  <sodipodi:namedview
     pagecolor="#ffffff"
     bordercolor="#666666"
     borderopacity="1"
     objecttolerance="10"
     gridtolerance="10"
     guidetolerance="10"
     inkscape:pageopacity="0"
     inkscape:pageshadow="2"
     inkscape:window-width="2560"
     inkscape:window-height="1376"
     id="namedview9"
     showgrid="false"
     inkscape:zoom="42"
     inkscape:cx="7.6228345"
     inkscape:cy="7.5633107"
     inkscape:window-x="0"
     inkscape:window-y="0"
     inkscape:window-maximized="1"
     inkscape:current-layer="svg7" />
  <g
     id="surface1"
     transform="translate(-4.3771655,-4.3771655)">
    <path
       style="fill:#000000;fill-opacity:1;fill-rule:nonzero;stroke:none"
       d="m 10.648438,6.675781 c 0.902343,1.273438 1.726562,2.625 2.625,3.898438 1.5,2.25 3,4.425781 4.425781,6.675781 h -2.625 L 15,17.175781 C 14.324219,16.125 13.574219,15.074219 12.898438,14.023438 c -0.07422,-0.07422 0,-0.07422 -0.07422,0 -0.675781,1.050781 -1.425781,2.101562 -2.097657,3.152343 L 10.648438,17.25 h -2.625 V 17.17578 C 9.148438,15.449219 10.351562,13.726562 11.476562,12 V 11.92578 C 10.351562,10.199219 9.148438,8.476562 8.023438,6.75 V 6.675781 Z m 0,0"
       id="path2" />
    <path
       style="fill:#000000;fill-opacity:1;fill-rule:nonzero;stroke:none"
       d="M 7.125,17.324219 H 4.5 V 17.25 c 0.300781,-0.449219 0.601562,-0.976562 0.976562,-1.425781 0.824219,-1.273438 1.648438,-2.472657 2.472657,-3.75 V 12 C 6.824219,10.199219 5.699219,8.476562 4.5,6.75 H 7.125 L 7.199219,6.824219 C 7.800781,7.648438 8.324219,8.550781 8.925781,9.375 9.523438,10.273438 10.125,11.101562 10.648438,12 v 0.07422 c -1.125,1.726562 -2.324219,3.449219 -3.523438,5.25 0.074219,-0.07422 0.074219,-0.07422 0,0 z M 19.5,11.550781 h -4.726562 c -0.375,-0.601562 -0.75,-1.125 -1.125,-1.726562 V 9.75 H 19.5 Z m 0,2.699219 c 0,0 0,-0.07422 0,0 h -3 c -0.375,-0.601562 -0.75,-1.125 -1.125,-1.726562 v -0.07422 H 19.5 Z m 0,0"
       id="path4" />
  </g>
</svg>
