<?xml version="1.0" encoding="UTF-8" standalone="no"?>
<svg
   xmlns:dc="http://purl.org/dc/elements/1.1/"
   xmlns:cc="http://creativecommons.org/ns#"
   xmlns:rdf="http://www.w3.org/1999/02/22-rdf-syntax-ns#"
   xmlns:svg="http://www.w3.org/2000/svg"
   xmlns="http://www.w3.org/2000/svg"
   xmlns:sodipodi="http://sodipodi.sourceforge.net/DTD/sodipodi-0.dtd"
   xmlns:inkscape="http://www.inkscape.org/namespaces/inkscape"
   width="14.398438"
   height="14.398438"
   viewBox="0 0 14.398438 14.398438"
   version="1.1"
   id="svg5"
   sodipodi:docname="java-symbolic.svg"
   inkscape:version="1.0.2 (e86c870879, 2021-01-15)">
  <metadata
     id="metadata11">
    <rdf:RDF>
      <cc:Work
         rdf:about="">
        <dc:format>image/svg+xml</dc:format>
        <dc:type
           rdf:resource="http://purl.org/dc/dcmitype/StillImage" />
      </cc:Work>
    </rdf:RDF>
  </metadata>
  <defs
     id="defs9" />
  <sodipodi:namedview
     pagecolor="#ffffff"
     bordercolor="#666666"
     borderopacity="1"
     objecttolerance="10"
     gridtolerance="10"
     guidetolerance="10"
     inkscape:pageopacity="0"
     inkscape:pageshadow="2"
     inkscape:window-width="2560"
     inkscape:window-height="1376"
     id="namedview7"
     showgrid="false"
     inkscape:zoom="42"
     inkscape:cx="7.199219"
     inkscape:cy="7.199219"
     inkscape:window-x="0"
     inkscape:window-y="0"
     inkscape:window-maximized="1"
     inkscape:current-layer="svg5" />
  <g
     id="surface1"
     transform="translate(-4.800781,-4.800781)">
    <path
       style="fill:#000000;fill-opacity:1;fill-rule:nonzero;stroke:none"
       d="m 12,4.800781 c -3.976562,0 -7.199219,3.222657 -7.199219,7.199219 0,3.976562 3.222657,7.199219 7.199219,7.199219 3.976562,0 7.199219,-3.222657 7.199219,-7.199219 0,-3.976562 -3.222657,-7.199219 -7.199219,-7.199219 z m 2.566406,8.160157 c 0.09375,0.765624 -0.160156,1.53125 -0.691406,2.089843 -0.53125,0.558594 -1.285156,0.851563 -2.054688,0.800781 -0.917968,0.03906 -1.800781,-0.347656 -2.398437,-1.042968 l 0.875,-1.105469 c 0.351563,0.457031 0.898437,0.71875 1.476563,0.707031 0.789062,0 1.269531,-0.503906 1.269531,-1.582031 V 8.160156 h 1.511719 z m 0,0"
       id="path2" />
  </g>
</svg>
