<?xml version="1.0" encoding="UTF-8" standalone="no"?>
<svg
   xmlns:dc="http://purl.org/dc/elements/1.1/"
   xmlns:cc="http://creativecommons.org/ns#"
   xmlns:rdf="http://www.w3.org/1999/02/22-rdf-syntax-ns#"
   xmlns:svg="http://www.w3.org/2000/svg"
   xmlns="http://www.w3.org/2000/svg"
   xmlns:sodipodi="http://sodipodi.sourceforge.net/DTD/sodipodi-0.dtd"
   xmlns:inkscape="http://www.inkscape.org/namespaces/inkscape"
   width="13.143669"
   height="13.143669"
   viewBox="0 0 13.143669 13.143669"
   version="1.1"
   id="svg9"
   sodipodi:docname="jl-symbolic.svg"
   inkscape:version="1.0.2 (e86c870879, 2021-01-15)">
  <metadata
     id="metadata15">
    <rdf:RDF>
      <cc:Work
         rdf:about="">
        <dc:format>image/svg+xml</dc:format>
        <dc:type
           rdf:resource="http://purl.org/dc/dcmitype/StillImage" />
      </cc:Work>
    </rdf:RDF>
  </metadata>
  <defs
     id="defs13" />
  <sodipodi:namedview
     pagecolor="#ffffff"
     bordercolor="#666666"
     borderopacity="1"
     objecttolerance="10"
     gridtolerance="10"
     guidetolerance="10"
     inkscape:pageopacity="0"
     inkscape:pageshadow="2"
     inkscape:window-width="2560"
     inkscape:window-height="1376"
     id="namedview11"
     showgrid="false"
     inkscape:zoom="42"
     inkscape:cx="6.5718344"
     inkscape:cy="6.5123106"
     inkscape:window-x="0"
     inkscape:window-y="0"
     inkscape:window-maximized="1"
     inkscape:current-layer="svg9" />
  <g
     id="surface1"
     transform="translate(-5.4281656,-5.4281656)">
    <path
       style="fill:#9e73b3;fill-opacity:1;fill-rule:nonzero;stroke:none"
       d="m 11.398438,15.226562 c 0,1.613282 -1.308594,2.921876 -2.921876,2.921876 -1.617187,0 -2.925781,-1.308594 -2.925781,-2.921876 0,-1.617187 1.308594,-2.925781 2.925781,-2.925781 1.613282,0 2.921876,1.308594 2.921876,2.925781 z m 0,0"
       id="path2" />
    <path
       style="fill:#9e73b3;fill-opacity:1;fill-rule:nonzero;stroke:none"
       d="m 18.449219,15.226562 c 0,1.613282 -1.308594,2.921876 -2.925781,2.921876 -1.613282,0 -2.921876,-1.308594 -2.921876,-2.921876 0,-1.617187 1.308594,-2.925781 2.921876,-2.925781 1.617187,0 2.925781,1.308594 2.925781,2.925781 z m 0,0"
       id="path4" />
    <path
       style="fill:#9e73b3;fill-opacity:1;fill-rule:nonzero;stroke:none"
       d="m 14.925781,8.773438 c 0,1.617187 -1.308593,2.925781 -2.925781,2.925781 -1.617188,0 -2.925781,-1.308594 -2.925781,-2.925781 0,-1.613282 1.308593,-2.921876 2.925781,-2.921876 1.617188,0 2.925781,1.308594 2.925781,2.921876 z m 0,0"
       id="path6" />
  </g>
</svg>
