<?xml version="1.0" encoding="UTF-8" standalone="no"?>
<svg
   xmlns:dc="http://purl.org/dc/elements/1.1/"
   xmlns:cc="http://creativecommons.org/ns#"
   xmlns:rdf="http://www.w3.org/1999/02/22-rdf-syntax-ns#"
   xmlns:svg="http://www.w3.org/2000/svg"
   xmlns="http://www.w3.org/2000/svg"
   xmlns:sodipodi="http://sodipodi.sourceforge.net/DTD/sodipodi-0.dtd"
   xmlns:inkscape="http://www.inkscape.org/namespaces/inkscape"
   width="12.542669"
   height="12.542669"
   viewBox="0 0 12.542669 12.542669"
   version="1.1"
   id="svg5"
   sodipodi:docname="js-symbolic.svg"
   inkscape:version="1.0.2 (e86c870879, 2021-01-15)">
  <metadata
     id="metadata11">
    <rdf:RDF>
      <cc:Work
         rdf:about="">
        <dc:format>image/svg+xml</dc:format>
        <dc:type
           rdf:resource="http://purl.org/dc/dcmitype/StillImage" />
      </cc:Work>
    </rdf:RDF>
  </metadata>
  <defs
     id="defs9" />
  <sodipodi:namedview
     pagecolor="#ffffff"
     bordercolor="#666666"
     borderopacity="1"
     objecttolerance="10"
     gridtolerance="10"
     guidetolerance="10"
     inkscape:pageopacity="0"
     inkscape:pageshadow="2"
     inkscape:window-width="2560"
     inkscape:window-height="1376"
     id="namedview7"
     showgrid="false"
     inkscape:zoom="42"
     inkscape:cx="6.2713345"
     inkscape:cy="6.2118107"
     inkscape:window-x="0"
     inkscape:window-y="0"
     inkscape:window-maximized="1"
     inkscape:current-layer="svg5" />
  <g
     id="surface1"
     transform="translate(-5.7286655,-5.7286655)">
    <path
       style="fill:#f0dc3d;fill-opacity:1;fill-rule:nonzero;stroke:none"
       d="m 8.550781,7.5 h 2.023438 v 5.699219 c 0,2.550781 -1.199219,3.449219 -3.222657,3.449219 -0.453124,0 -1.125,-0.07422 -1.5,-0.222657 L 6.074219,14.773438 C 6.375,14.925781 6.75,15 7.125,15 7.949219,15 8.550781,14.625 8.550781,13.199219 Z M 12.375,14.398438 C 12.898438,14.699219 13.800781,15 14.625,15 c 0.976562,0 1.425781,-0.375 1.425781,-0.976562 0,-0.597657 -0.449219,-0.898438 -1.5,-1.273438 -1.5,-0.523438 -2.476562,-1.351562 -2.476562,-2.699219 0,-1.574219 1.277343,-2.699219 3.449219,-2.699219 1.050781,0 1.800781,0.222657 2.328124,0.449219 L 17.398438,9.449219 C 17.023438,9.300781 16.425781,9 15.523438,9 14.625,9 14.175781,9.375 14.175781,9.898438 c 0,0.601562 0.523438,0.828124 1.648438,1.277343 1.574219,0.597657 2.324219,1.425781 2.324219,2.699219 0,1.5 -1.199219,2.773438 -3.671876,2.773438 -1.050781,0 -2.027343,-0.296876 -2.550781,-0.523438 z m 0,0"
       id="path2" />
  </g>
</svg>
