<?xml version="1.0" encoding="UTF-8" standalone="no"?>
<svg
   xmlns:dc="http://purl.org/dc/elements/1.1/"
   xmlns:cc="http://creativecommons.org/ns#"
   xmlns:rdf="http://www.w3.org/1999/02/22-rdf-syntax-ns#"
   xmlns:svg="http://www.w3.org/2000/svg"
   xmlns="http://www.w3.org/2000/svg"
   xmlns:sodipodi="http://sodipodi.sourceforge.net/DTD/sodipodi-0.dtd"
   xmlns:inkscape="http://www.inkscape.org/namespaces/inkscape"
   width="13.52267"
   height="13.52267"
   viewBox="0 0 13.52267 13.52267"
   version="1.1"
   id="svg5"
   sodipodi:docname="json-symbolic.svg"
   inkscape:version="1.0.2 (e86c870879, 2021-01-15)">
  <metadata
     id="metadata11">
    <rdf:RDF>
      <cc:Work
         rdf:about="">
        <dc:format>image/svg+xml</dc:format>
        <dc:type
           rdf:resource="http://purl.org/dc/dcmitype/StillImage" />
      </cc:Work>
    </rdf:RDF>
  </metadata>
  <defs
     id="defs9" />
  <sodipodi:namedview
     pagecolor="#ffffff"
     bordercolor="#666666"
     borderopacity="1"
     objecttolerance="10"
     gridtolerance="10"
     guidetolerance="10"
     inkscape:pageopacity="0"
     inkscape:pageshadow="2"
     inkscape:window-width="2560"
     inkscape:window-height="1376"
     id="namedview7"
     showgrid="false"
     showguides="false"
     inkscape:zoom="42"
     inkscape:cx="6.7613347"
     inkscape:cy="6.7018109"
     inkscape:window-x="0"
     inkscape:window-y="0"
     inkscape:window-maximized="1"
     inkscape:current-layer="svg5" />
  <g
     id="surface1"
     transform="translate(-5.2386653,-5.2757748)">
    <path
       style="fill:#d9cc66;fill-opacity:1;fill-rule:nonzero;stroke:none"
       d="m 5.625,11.324219 c 1.125,0 1.273438,-0.597657 1.273438,-1.125 C 6.898438,9.75 6.824219,9.375 6.824219,8.925781 6.824219,8.476562 6.75,8.023438 6.75,7.648438 c 0,-1.574219 0.976562,-2.25 2.550781,-2.25 H 9.898438 V 6.824219 H 9.601562 C 8.851562,6.824219 8.625,7.273438 8.625,8.023438 8.625,8.324219 8.699219,8.625 8.699219,9 c 0,0.300781 0.074219,0.675781 0.074219,1.125 0,1.273438 -0.523438,1.726562 -1.421876,1.949219 C 8.25,12.300781 8.773438,12.75 8.773438,14.023438 c 0,0.453124 -0.074219,0.828124 -0.074219,1.125 0,0.300781 -0.074219,0.675781 -0.074219,0.902343 0,0.75 0.226562,1.199219 0.976562,1.199219 h 0.296876 v 1.425781 H 9.300781 c -1.5,0 -2.476562,-0.601562 -2.476562,-2.25 0,-0.449219 0,-0.824219 0.074219,-1.277343 C 6.976562,14.699219 6.976562,14.25 6.976562,13.875 c 0,-0.449219 -0.152343,-1.125 -1.277343,-1.125 z m 12.75,1.277343 c -1.125,0 -1.273438,0.671876 -1.273438,1.125 0,0.449219 0.07422,0.824219 0.07422,1.273438 0.07422,0.449219 0.07422,0.898438 0.07422,1.273438 0,1.652343 -1.050781,2.25 -2.550781,2.25 H 14.101562 V 17.25 h 0.296876 c 0.75,0 0.976562,-0.449219 0.976562,-1.199219 0,-0.300781 0,-0.601562 -0.07422,-0.902343 0,-0.375 -0.07422,-0.75 -0.07422,-1.125 0,-1.273438 0.523438,-1.722657 1.421876,-1.949219 C 15.75,11.851562 15.226562,11.398438 15.226562,10.125 c 0,-0.449219 0.07422,-0.824219 0.07422,-1.125 C 15.375,8.625 15.375,8.324219 15.375,8.023438 c 0,-0.75 -0.300781,-1.125 -0.976562,-1.199219 H 14.101562 V 5.398438 h 0.597657 c 1.574219,0 2.550781,0.675781 2.550781,2.25 0,0.453124 -0.07422,0.828124 -0.07422,1.277343 -0.07422,0.449219 -0.07422,0.898438 -0.07422,1.273438 0,0.527343 0.148438,1.125 1.273438,1.125 z m 0,0"
       id="path2" />
  </g>
</svg>
