<?xml version="1.0" encoding="UTF-8" standalone="no"?>
<svg
   xmlns:dc="http://purl.org/dc/elements/1.1/"
   xmlns:cc="http://creativecommons.org/ns#"
   xmlns:rdf="http://www.w3.org/1999/02/22-rdf-syntax-ns#"
   xmlns:svg="http://www.w3.org/2000/svg"
   xmlns="http://www.w3.org/2000/svg"
   xmlns:sodipodi="http://sodipodi.sourceforge.net/DTD/sodipodi-0.dtd"
   xmlns:inkscape="http://www.inkscape.org/namespaces/inkscape"
   width="15.169669"
   height="15.169669"
   viewBox="0 0 15.169669 15.169669"
   version="1.1"
   id="svg5"
   sodipodi:docname="jsx-symbolic.svg"
   inkscape:version="1.0.2 (e86c870879, 2021-01-15)">
  <metadata
     id="metadata11">
    <rdf:RDF>
      <cc:Work
         rdf:about="">
        <dc:format>image/svg+xml</dc:format>
        <dc:type
           rdf:resource="http://purl.org/dc/dcmitype/StillImage" />
      </cc:Work>
    </rdf:RDF>
  </metadata>
  <defs
     id="defs9" />
  <sodipodi:namedview
     pagecolor="#ffffff"
     bordercolor="#666666"
     borderopacity="1"
     objecttolerance="10"
     gridtolerance="10"
     guidetolerance="10"
     inkscape:pageopacity="0"
     inkscape:pageshadow="2"
     inkscape:window-width="2560"
     inkscape:window-height="1376"
     id="namedview7"
     showgrid="false"
     inkscape:zoom="42"
     inkscape:cx="7.5848344"
     inkscape:cy="7.5253106"
     inkscape:window-x="0"
     inkscape:window-y="0"
     inkscape:window-maximized="1"
     inkscape:current-layer="svg5" />
  <g
     id="surface1"
     transform="translate(-4.5076648,-4.4351925)">
    <path
       style="fill:#5199b8;fill-opacity:1;fill-rule:nonzero;stroke:none"
       d="m 16.5,14.550781 c 0.07422,0.824219 0.148438,1.574219 0.148438,2.398438 0,0.976562 -0.523438,1.652343 -1.273438,1.726562 -0.375,0.07422 -0.824219,0 -1.199219,-0.152343 C 13.425781,18.148438 12.75,17.625 12,17.175781 c -0.375,0.300781 -0.75,0.597657 -1.199219,0.898438 -0.226562,0.152343 -0.527343,0.300781 -0.75,0.375 C 8.699219,19.050781 7.574219,18.375 7.5,16.875 7.5,16.125 7.574219,15.300781 7.648438,14.476562 7.199219,14.324219 6.75,14.175781 6.300781,13.875 5.851562,13.648438 5.476562,13.351562 5.101562,12.976562 4.425781,12.300781 4.5,11.476562 5.175781,10.800781 5.773438,10.125 6.601562,9.824219 7.425781,9.523438 7.5,9.523438 7.648438,9.449219 7.726562,9.449219 7.648438,8.925781 7.574219,8.324219 7.5,7.800781 7.5,7.351562 7.574219,6.824219 7.648438,6.375 7.875,5.550781 8.625,5.175781 9.523438,5.398438 10.425781,5.625 11.101562,6.148438 11.699219,6.675781 11.851562,6.75 11.925781,6.898438 12,6.976562 12.601562,6.523438 13.199219,6.074219 13.875,5.699219 14.324219,5.398438 14.851562,5.25 15.375,5.398438 c 0.75,0.152343 1.199219,0.828124 1.273438,1.800781 v 1.199219 c 0,0.375 -0.148438,0.75 -0.222657,1.203124 C 16.875,9.75 17.25,9.898438 17.699219,10.125 c 0.601562,0.300781 1.199219,0.601562 1.574219,1.199219 0.375,0.527343 0.375,1.125 0,1.652343 -0.375,0.597657 -0.972657,0.898438 -1.574219,1.199219 C 17.25,14.25 16.875,14.398438 16.5,14.550781 Z m -4.351562,-0.07422 c 0.226562,0 0.601562,-0.07812 0.902343,-0.07812 0.222657,0 0.375,-0.07422 0.523438,-0.296876 0.375,-0.601562 0.75,-1.203124 1.050781,-1.875 0.07422,-0.152343 0.07422,-0.375 0,-0.453124 C 14.25,11.101562 13.875,10.5 13.5,9.898438 13.425781,9.75 13.273438,9.675781 13.125,9.675781 c -0.675781,0 -1.273438,0 -1.949219,-0.074219 C 10.800781,9.601562 10.5,9.75 10.273438,10.125 10.125,10.351562 9.976562,10.574219 9.824219,10.875 9,12.375 9,11.773438 9.824219,13.273438 c 0.902343,1.425781 0.449219,1.125 2.324219,1.203124 z M 7.800781,13.875 C 8.023438,13.273438 8.25,12.675781 8.476562,12.148438 V 11.851562 C 8.25,11.25 8.023438,10.726562 7.800781,10.125 c -0.75,0.226562 -1.5,0.523438 -2.101562,0.976562 -0.675781,0.523438 -0.675781,1.199219 0,1.722657 0.601562,0.601562 1.351562,0.824219 2.101562,1.050781 z m 8.472657,-3.824219 c -0.296876,0.675781 -0.523438,1.273438 -0.75,1.875 0,0.07422 -0.07422,0.148438 0,0.148438 0.226562,0.601562 0.453124,1.199219 0.75,1.949219 0.675781,-0.375 1.425781,-0.671876 2.027343,-1.046876 0.824219,-0.527343 0.824219,-1.277343 0,-1.800781 -0.601562,-0.527343 -1.351562,-0.75 -2.027343,-1.125 z M 8.25,9.300781 C 8.925781,9.226562 9.523438,9.148438 10.125,9 c 0.07422,0 0.148438,-0.074219 0.148438,-0.074219 0.375,-0.527343 0.75,-0.976562 1.203124,-1.5 C 10.875,6.898438 10.273438,6.375 9.523438,6.074219 c -0.824219,-0.300781 -1.347657,0 -1.5,0.902343 -0.074219,0.75 0.078124,1.5 0.226562,2.324219 z m 7.5,0 C 15.75,9.226562 15.824219,9.074219 15.824219,9 15.976562,8.25 16.125,7.425781 15.824219,6.675781 15.675781,6.148438 15.300781,5.925781 14.851562,6 13.875,6.148438 13.199219,6.824219 12.523438,7.425781 c 0.375,0.523438 0.75,0.972657 1.125,1.425781 L 13.875,9.074219 c 0.601562,0.074219 1.199219,0.152343 1.875,0.226562 z m -7.5,5.398438 c -0.148438,0.824219 -0.375,1.574219 -0.148438,2.402343 0.148438,0.75 0.671876,1.046876 1.421876,0.824219 0.828124,-0.226562 1.425781,-0.824219 2.027343,-1.351562 -0.375,-0.523438 -0.75,-0.972657 -1.199219,-1.5 C 10.273438,15 10.199219,14.925781 10.125,14.925781 c -0.601562,0 -1.199219,-0.07422 -1.875,-0.226562 z m 4.199219,1.875 c 0.449219,0.601562 1.351562,1.199219 1.949219,1.425781 0.75,0.226562 1.277343,0 1.425781,-0.824219 0.152343,-0.824219 0,-1.574219 -0.148438,-2.402343 -0.675781,0.07812 -1.351562,0.07812 -1.949219,0.300781 -0.453124,0.226562 -0.675781,0.75 -0.976562,1.125 -0.07422,0.152343 -0.148438,0.226562 -0.300781,0.375 z M 12.898438,8.925781 C 12.601562,8.550781 12.300781,8.25 12,7.875 11.699219,8.25 11.476562,8.550781 11.101562,8.925781 Z m 0,6.148438 h -1.722657 c 0.300781,0.375 0.597657,0.675781 0.898438,1.050781 0.226562,-0.375 0.527343,-0.675781 0.824219,-1.050781 z m -3.074219,-0.75 C 9.523438,13.800781 9.226562,13.351562 8.925781,12.75 8.773438,13.199219 8.625,13.574219 8.476562,14.023438 c 0.375,0.152343 0.824219,0.226562 1.347657,0.300781 z m 5.25,-1.574219 -0.898438,1.574219 C 14.699219,14.25 15.074219,14.175781 15.523438,14.101562 15.449219,13.648438 15.300781,13.273438 15.074219,12.75 Z M 8.925781,11.25 9.824219,9.675781 C 9.300781,9.75 8.925781,9.824219 8.476562,9.898438 8.625,10.425781 8.699219,10.800781 8.925781,11.25 Z m 5.25,-1.574219 c 0.148438,0.300781 0.300781,0.523438 0.449219,0.75 0.148438,0.222657 0.300781,0.449219 0.449219,0.75 0.152343,-0.449219 0.300781,-0.902343 0.449219,-1.277343 -0.449219,0 -0.824219,-0.074219 -1.347657,-0.222657 z m 0,0"
       id="path2" />
  </g>
</svg>
