<?xml version="1.0" encoding="UTF-8" standalone="no"?>
<svg
   xmlns:dc="http://purl.org/dc/elements/1.1/"
   xmlns:cc="http://creativecommons.org/ns#"
   xmlns:rdf="http://www.w3.org/1999/02/22-rdf-syntax-ns#"
   xmlns:svg="http://www.w3.org/2000/svg"
   xmlns="http://www.w3.org/2000/svg"
   xmlns:sodipodi="http://sodipodi.sourceforge.net/DTD/sodipodi-0.dtd"
   xmlns:inkscape="http://www.inkscape.org/namespaces/inkscape"
   width="17.421669"
   height="17.421669"
   viewBox="0 0 17.421669 17.421669"
   version="1.1"
   id="svg5"
   sodipodi:docname="license-symbolic.svg"
   inkscape:version="1.0.2 (e86c870879, 2021-01-15)">
  <metadata
     id="metadata11">
    <rdf:RDF>
      <cc:Work
         rdf:about="">
        <dc:format>image/svg+xml</dc:format>
        <dc:type
           rdf:resource="http://purl.org/dc/dcmitype/StillImage" />
      </cc:Work>
    </rdf:RDF>
  </metadata>
  <defs
     id="defs9" />
  <sodipodi:namedview
     pagecolor="#ffffff"
     bordercolor="#666666"
     borderopacity="1"
     objecttolerance="10"
     gridtolerance="10"
     guidetolerance="10"
     inkscape:pageopacity="0"
     inkscape:pageshadow="2"
     inkscape:window-width="2560"
     inkscape:window-height="1376"
     id="namedview7"
     showgrid="false"
     inkscape:zoom="42"
     inkscape:cx="8.7108348"
     inkscape:cy="8.651311"
     inkscape:window-x="0"
     inkscape:window-y="0"
     inkscape:window-maximized="1"
     inkscape:current-layer="svg5" />
  <g
     id="surface1"
     transform="translate(-3.2900885,-3.2520562)">
    <path
       style="fill:#d9cc66;fill-opacity:1;fill-rule:nonzero;stroke:none"
       d="M 14.023438,9.601562 C 13.875,7.949219 12.601562,6.824219 10.875,6.75 H 9.75 C 9.675781,5.773438 10.050781,4.425781 11.625,4.273438 12.300781,4.199219 12.898438,4.351562 13.425781,4.875 13.875,5.398438 14.023438,6 14.023438,6.675781 c 0,0.074219 0,0.222657 0.07812,0.300781 l 0.671876,0.671876 C 15,6.976562 15,6.300781 14.851562,5.625 c -0.375,-1.351562 -1.5,-2.175781 -2.925781,-2.25 -0.824219,0 -1.574219,0.148438 -2.175781,0.75 -1.050781,0.976562 -1.425781,3.148438 0.074219,4.574219 0.226562,0.226562 0.527343,0.375 0.824219,0.527343 0.375,0.148438 0.675781,-0.152343 0.675781,-0.453124 0,-0.296876 -0.148438,-0.523438 -0.523438,-0.597657 -0.07422,0 -0.152343,-0.074219 -0.226562,-0.152343 V 7.949219 c 0.300781,-0.074219 0.675781,0 0.902343,0.226562 0.222657,0.222657 0.296876,0.523438 0.222657,0.898438 -0.148438,0.527343 -0.597657,0.75 -1.199219,0.601562 -0.824219,-0.226562 -1.351562,-0.75 -1.726562,-1.5 C 8.699219,7.949219 8.550781,7.726562 8.476562,7.5 7.949219,8.023438 7.5,8.550781 7.351562,9.300781 c -0.300781,1.347657 0.074219,2.472657 1.046876,3.375 0.078124,0.07422 0.152343,0.148438 0.078124,0.300781 -0.078124,0.597657 -0.152343,1.125 -0.300781,1.722657 -0.226562,1.277343 -0.375,2.476562 -0.601562,3.75 -0.074219,0.375 -0.074219,0.824219 0,1.199219 0.074219,0.300781 0.226562,0.527343 0.601562,0.675781 C 8.25,20.023438 8.25,19.726562 8.324219,19.425781 c 0.226562,-1.277343 0.375,-2.476562 0.601562,-3.75 0.148438,-0.75 0.222657,-1.574219 0.375,-2.324219 0,-0.152343 0.074219,-0.226562 0.222657,-0.226562 0.152343,0 0.152343,0.148438 0.152343,0.300781 -0.074219,0.75 -0.226562,1.5 -0.375,2.175781 -0.226562,1.574219 -0.527343,3.148438 -0.75,4.722657 0,0.07422 0.074219,0.152343 0.074219,0.152343 0.375,0 0.675781,0.07422 1.050781,0.07422 0.375,0 0.675781,-0.300781 0.898438,-0.601562 0.226562,-0.222657 0.226562,-0.523438 0.07422,-0.824219 C 10.574219,19.050781 10.5,18.976562 10.5,18.898438 10.273438,18.601562 10.351562,18.375 10.648438,18.226562 10.726562,18.148438 10.875,18.148438 10.949219,18.074219 11.101562,18 11.175781,17.773438 11.023438,17.625 10.800781,17.398438 10.648438,17.175781 10.425781,17.023438 10.273438,16.875 10.351562,16.574219 10.5,16.5 c 0.226562,-0.148438 0.523438,-0.226562 0.75,-0.375 0.148438,-0.07422 0.226562,-0.226562 0.07422,-0.375 -0.07422,-0.07422 -0.148438,-0.148438 -0.222657,-0.300781 -0.226562,-0.222657 -0.152343,-0.597657 0.07422,-0.75 C 11.25,14.625 11.324219,14.550781 11.476562,14.550781 11.625,14.476562 11.699219,14.398438 11.699219,14.25 c 0,-0.226562 0.07422,-0.449219 0.07422,-0.675781 0,-0.07422 0.07812,-0.222657 0.152343,-0.300781 C 12.148438,13.050781 12.449219,12.898438 12.75,12.75 13.800781,12 14.175781,10.875 14.023438,9.601562 Z m 2.703124,8.546876 c 0,-0.148438 -0.07812,-0.296876 -0.300781,-0.296876 -0.152343,0 -0.375,0 -0.449219,-0.226562 -0.07812,-0.226562 -0.07812,-0.449219 0,-0.675781 0.148438,-0.300781 0.07422,-0.523438 -0.300781,-0.597657 -0.152343,0 -0.300781,-0.07812 -0.527343,-0.07812 -0.148438,0 -0.222657,-0.07422 -0.222657,-0.222657 0,-0.152343 -0.07422,-0.300781 -0.07422,-0.449219 0,-0.226562 0.148438,-0.375 0.296876,-0.527343 C 15.300781,14.851562 15.300781,14.773438 15.074219,14.625 15,14.550781 14.851562,14.476562 14.773438,14.398438 14.476562,14.25 14.476562,14.101562 14.625,13.800781 c 0.07422,-0.07422 0.148438,-0.152343 0.148438,-0.226562 0.152343,-0.148438 0.152343,-0.300781 0.07812,-0.449219 -0.07812,-0.148438 -0.152343,-0.375 -0.300781,-0.523438 -0.07422,-0.152343 -0.07422,-0.300781 0,-0.453124 0.597657,-1.199219 0.75,-2.398438 0.222657,-3.671876 C 14.398438,7.648438 13.726562,7.125 12.824219,6.898438 L 12.75,6.976562 c 0.07422,0.074219 0.148438,0.222657 0.226562,0.296876 0.898438,0.75 1.421876,1.726562 1.421876,2.925781 0,1.277343 -0.523438,2.324219 -1.648438,3.152343 -0.148438,0.07422 -0.226562,0.222657 -0.148438,0.375 0.296876,0.75 0.523438,1.421876 0.824219,2.171876 0.597657,1.425781 1.199219,2.777343 1.800781,4.203124 0.07422,0.07422 0.07422,0.148438 0.222657,0.148438 0.902343,-0.449219 1.425781,-1.273438 1.277343,-2.101562 z m -4.5,-4.421876 c -0.07812,0.296876 -0.07812,0.523438 -0.152343,0.75 0,0.148438 -0.07422,0.296876 0,0.449219 0.527343,1.273438 1.050781,2.625 1.574219,3.898438 0.152343,0.375 0.375,0.75 0.75,1.050781 0.152343,0.07422 0.300781,0.148438 0.375,0.226562 l 0.07812,-0.07812 c -0.828124,-2.097657 -1.726562,-4.199219 -2.625,-6.296876 z m 0,0"
       id="path2" />
  </g>
</svg>
