<?xml version="1.0" encoding="UTF-8" standalone="no"?>
<svg
   xmlns:dc="http://purl.org/dc/elements/1.1/"
   xmlns:cc="http://creativecommons.org/ns#"
   xmlns:rdf="http://www.w3.org/1999/02/22-rdf-syntax-ns#"
   xmlns:svg="http://www.w3.org/2000/svg"
   xmlns="http://www.w3.org/2000/svg"
   xmlns:sodipodi="http://sodipodi.sourceforge.net/DTD/sodipodi-0.dtd"
   xmlns:inkscape="http://www.inkscape.org/namespaces/inkscape"
   width="12.473669"
   height="12.473669"
   viewBox="0 0 12.473669 12.473669"
   version="1.1"
   id="svg5"
   sodipodi:docname="lock-symbolic.svg"
   inkscape:version="1.0.2 (e86c870879, 2021-01-15)">
  <metadata
     id="metadata11">
    <rdf:RDF>
      <cc:Work
         rdf:about="">
        <dc:format>image/svg+xml</dc:format>
        <dc:type
           rdf:resource="http://purl.org/dc/dcmitype/StillImage" />
      </cc:Work>
    </rdf:RDF>
  </metadata>
  <defs
     id="defs9" />
  <sodipodi:namedview
     pagecolor="#ffffff"
     bordercolor="#666666"
     borderopacity="1"
     objecttolerance="10"
     gridtolerance="10"
     guidetolerance="10"
     inkscape:pageopacity="0"
     inkscape:pageshadow="2"
     inkscape:window-width="2560"
     inkscape:window-height="1376"
     id="namedview7"
     showgrid="false"
     inkscape:zoom="42"
     inkscape:cx="6.2368343"
     inkscape:cy="6.1773105"
     inkscape:window-x="0"
     inkscape:window-y="0"
     inkscape:window-maximized="1"
     inkscape:current-layer="svg5" />
  <g
     id="surface1"
     transform="translate(-5.7631657,-5.762579)">
    <path
       style="fill:#000000;fill-opacity:1;fill-rule:nonzero;stroke:none"
       d="m 16.371094,11.132812 v 6.980469 H 7.628906 v -6.980469 h 1.46875 v -0.152343 c 0,-0.527344 0,-1.054688 0.00391,-1.582031 0,-0.171876 0.011719,-0.34375 0.03125,-0.511719 C 9.359375,6.964844 10.875,5.621094 12.46875,5.929688 c 1.410156,0.273437 2.457031,1.742187 2.457031,3.453124 v 1.746094 c 0.484375,0.0039 0.964844,0.0039 1.445313,0.0039 z m -2.90625,-0.0039 c 0.0039,-0.03906 0.0039,-0.0625 0.0039,-0.08594 0,-0.566407 0.0039,-1.132813 0,-1.703125 0,-0.097656 -0.01172,-0.199219 -0.02734,-0.296875 C 13.28125,8.113281 12.621094,7.550781 11.8125,7.644531 11.101562,7.734375 10.546875,8.5 10.546875,9.402344 v 1.726562 z m 0,0"
       id="path2" />
  </g>
</svg>
