<?xml version="1.0" encoding="UTF-8" standalone="no"?>
<svg
   xmlns:dc="http://purl.org/dc/elements/1.1/"
   xmlns:cc="http://creativecommons.org/ns#"
   xmlns:rdf="http://www.w3.org/1999/02/22-rdf-syntax-ns#"
   xmlns:svg="http://www.w3.org/2000/svg"
   xmlns="http://www.w3.org/2000/svg"
   xmlns:sodipodi="http://sodipodi.sourceforge.net/DTD/sodipodi-0.dtd"
   xmlns:inkscape="http://www.inkscape.org/namespaces/inkscape"
   width="15"
   height="15"
   viewBox="0 0 15 15"
   version="1.1"
   id="svg5"
   sodipodi:docname="lua-symbolic.svg"
   inkscape:version="1.0.2 (e86c870879, 2021-01-15)">
  <metadata
     id="metadata11">
    <rdf:RDF>
      <cc:Work
         rdf:about="">
        <dc:format>image/svg+xml</dc:format>
        <dc:type
           rdf:resource="http://purl.org/dc/dcmitype/StillImage" />
      </cc:Work>
    </rdf:RDF>
  </metadata>
  <defs
     id="defs9" />
  <sodipodi:namedview
     pagecolor="#ffffff"
     bordercolor="#666666"
     borderopacity="1"
     objecttolerance="10"
     gridtolerance="10"
     guidetolerance="10"
     inkscape:pageopacity="0"
     inkscape:pageshadow="2"
     inkscape:window-width="2560"
     inkscape:window-height="1376"
     id="namedview7"
     showgrid="false"
     inkscape:zoom="42"
     inkscape:cx="7.5"
     inkscape:cy="7.5"
     inkscape:window-x="0"
     inkscape:window-y="0"
     inkscape:window-maximized="1"
     inkscape:current-layer="svg5" />
  <g
     id="surface1"
     transform="translate(-4.5,-4.5)">
    <path
       style="fill:#000000;fill-opacity:1;fill-rule:nonzero;stroke:none"
       d="M 11.023438,19.5 C 7.425781,19.5 4.5,16.574219 4.5,12.976562 4.5,9.375 7.425781,6.375 11.175781,6.449219 c 3.523438,0.074219 6.375,2.925781 6.375,6.527343 C 17.550781,16.574219 14.625,19.5 11.023438,19.5 Z M 13.726562,8.324219 c -1.050781,0 -1.953124,0.902343 -1.953124,1.949219 0,1.050781 0.828124,1.953124 1.953124,1.953124 1.046876,0 1.949219,-0.828124 1.949219,-1.953124 0,-1.046876 -0.824219,-1.949219 -1.949219,-1.949219 z m 3.824219,0 C 16.5,8.324219 15.601562,7.5 15.675781,6.375 15.675781,5.324219 16.5,4.5 17.625,4.5 c 1.050781,0 1.875,0.898438 1.875,1.949219 0,1.050781 -0.898438,1.875 -1.949219,1.875 z m 0,0"
       id="path2" />
  </g>
</svg>
