<?xml version="1.0" encoding="UTF-8" standalone="no"?>
<svg
   xmlns:dc="http://purl.org/dc/elements/1.1/"
   xmlns:cc="http://creativecommons.org/ns#"
   xmlns:rdf="http://www.w3.org/1999/02/22-rdf-syntax-ns#"
   xmlns:svg="http://www.w3.org/2000/svg"
   xmlns="http://www.w3.org/2000/svg"
   xmlns:sodipodi="http://sodipodi.sourceforge.net/DTD/sodipodi-0.dtd"
   xmlns:inkscape="http://www.inkscape.org/namespaces/inkscape"
   width="16.721668"
   height="16.721668"
   viewBox="0 0 16.721668 16.721668"
   version="1.1"
   id="svg5"
   sodipodi:docname="mustache-symbolic.svg"
   inkscape:version="1.0.2 (e86c870879, 2021-01-15)">
  <metadata
     id="metadata11">
    <rdf:RDF>
      <cc:Work
         rdf:about="">
        <dc:format>image/svg+xml</dc:format>
        <dc:type
           rdf:resource="http://purl.org/dc/dcmitype/StillImage" />
      </cc:Work>
    </rdf:RDF>
  </metadata>
  <defs
     id="defs9" />
  <sodipodi:namedview
     pagecolor="#ffffff"
     bordercolor="#666666"
     borderopacity="1"
     objecttolerance="10"
     gridtolerance="10"
     guidetolerance="10"
     inkscape:pageopacity="0"
     inkscape:pageshadow="2"
     inkscape:window-width="2560"
     inkscape:window-height="1376"
     id="namedview7"
     showgrid="false"
     inkscape:zoom="42"
     inkscape:cx="8.3608344"
     inkscape:cy="8.3013106"
     inkscape:window-x="0"
     inkscape:window-y="0"
     inkscape:window-maximized="1"
     inkscape:current-layer="svg5" />
  <g
     id="surface1"
     transform="translate(-3.5468234,-3.6388224)">
    <path
       style="fill:#ee7521;fill-opacity:1;fill-rule:nonzero;stroke:none"
       d="m 5.550781,11.773438 c 0,-0.148438 0,-0.296876 -0.074219,-0.375 C 5.324219,11.25 5.023438,11.25 4.949219,11.476562 c -0.222657,0.375 0,0.75 0.449219,0.898438 0.300781,0.07422 0.527343,0.07422 0.75,-0.148438 0.375,-0.300781 0.75,-0.601562 1.125,-0.976562 C 7.800781,10.800781 8.25,10.351562 8.925781,10.125 9.824219,9.824219 10.726562,9.824219 11.476562,10.5 l 0.449219,0.449219 0.148438,0.152343 c 0.07422,-0.152343 0.152343,-0.226562 0.226562,-0.300781 0.449219,-0.527343 1.050781,-0.824219 1.800781,-0.824219 0.824219,0 1.574219,0.296876 2.171876,0.824219 0.453124,0.375 0.828124,0.75 1.277343,1.125 0.222657,0.222657 0.449219,0.375 0.75,0.449219 0.375,0.07422 0.75,-0.148438 0.898438,-0.449219 0.07422,-0.226562 0,-0.375 -0.148438,-0.527343 C 18.898438,11.25 18.75,11.25 18.601562,11.324219 c -0.152343,0.07422 -0.226562,0.226562 -0.152343,0.375 v 0.07422 c -0.222657,-0.148438 -0.300781,-0.375 -0.300781,-0.597657 0,-0.300781 0.226562,-0.449219 0.453124,-0.527343 0.671876,-0.222657 1.347657,0.152343 1.5,0.902343 0.07422,0.449218 0.07422,0.972656 -0.152343,1.42578 C 19.726562,13.5 19.273438,13.726562 18.75,13.875 c -1.050781,0.300781 -2.023438,0.07422 -3,-0.300781 L 13.726562,12.675781 C 12.898438,12.300781 12,12.148438 11.101562,12.375 10.574219,12.523438 9.976562,12.75 9.449219,12.976562 8.773438,13.273438 8.175781,13.574219 7.5,13.800781 6.675781,14.101562 5.851562,14.175781 5.023438,13.875 4.199219,13.574219 3.601562,12.976562 3.675781,11.851562 c 0.074219,-0.527343 0.222657,-0.976562 0.75,-1.125 0.300781,-0.152343 0.675781,-0.152343 0.972657,0 0.527343,0.222657 0.527343,0.75 0.152343,1.046876 z m 0,0"
       id="path2" />
  </g>
</svg>
