<?xml version="1.0" encoding="UTF-8" standalone="no"?>
<svg
   xmlns:dc="http://purl.org/dc/elements/1.1/"
   xmlns:cc="http://creativecommons.org/ns#"
   xmlns:rdf="http://www.w3.org/1999/02/22-rdf-syntax-ns#"
   xmlns:svg="http://www.w3.org/2000/svg"
   xmlns="http://www.w3.org/2000/svg"
   xmlns:sodipodi="http://sodipodi.sourceforge.net/DTD/sodipodi-0.dtd"
   xmlns:inkscape="http://www.inkscape.org/namespaces/inkscape"
   width="13.893669"
   height="13.893669"
   viewBox="0 0 13.893669 13.893669"
   version="1.1"
   id="svg5"
   sodipodi:docname="pdf-symbolic.svg"
   inkscape:version="1.0.2 (e86c870879, 2021-01-15)">
  <metadata
     id="metadata11">
    <rdf:RDF>
      <cc:Work
         rdf:about="">
        <dc:format>image/svg+xml</dc:format>
        <dc:type
           rdf:resource="http://purl.org/dc/dcmitype/StillImage" />
      </cc:Work>
    </rdf:RDF>
  </metadata>
  <defs
     id="defs9" />
  <sodipodi:namedview
     pagecolor="#ffffff"
     bordercolor="#666666"
     borderopacity="1"
     objecttolerance="10"
     gridtolerance="10"
     guidetolerance="10"
     inkscape:pageopacity="0"
     inkscape:pageshadow="2"
     inkscape:window-width="2560"
     inkscape:window-height="1376"
     id="namedview7"
     showgrid="false"
     inkscape:zoom="42"
     inkscape:cx="6.9468344"
     inkscape:cy="6.8873106"
     inkscape:window-x="0"
     inkscape:window-y="0"
     inkscape:window-maximized="1"
     inkscape:current-layer="svg5" />
  <g
     id="surface1"
     transform="translate(-5.1273846,-4.9398846)">
    <path
       style="fill:#000000;fill-opacity:1;fill-rule:nonzero;stroke:none"
       d="m 5.25,17.175781 c 0.074219,-0.449219 0.375,-0.75 0.675781,-1.050781 0.375,-0.375 0.824219,-0.601562 1.347657,-0.898438 0.527343,-0.300781 1.050781,-0.527343 1.578124,-0.75 C 8.925781,14.476562 9,14.398438 9,14.324219 9.449219,13.425781 9.898438,12.523438 10.273438,11.625 10.5,11.101562 10.648438,10.574219 10.875,10.050781 V 9.976562 C 10.648438,9.449219 10.425781,8.851562 10.351562,8.25 10.199219,7.648438 10.199219,7.050781 10.273438,6.449219 10.351562,6.074219 10.574219,5.773438 10.875,5.476562 10.949219,5.398438 11.101562,5.398438 11.25,5.398438 h 0.601562 c 0.148438,0 0.296876,0.078124 0.375,0.226562 0.222657,0.148438 0.375,0.375 0.523438,0.601562 0.148438,0.296876 0.148438,0.597657 0.226562,0.898438 0,0.898438 -0.152343,1.726562 -0.300781,2.550781 -0.07422,0.300781 -0.152343,0.523438 -0.226562,0.824219 v 0.07422 c 0.449219,0.824219 1.050781,1.574219 1.652343,2.25 0.07422,0.07422 0.07422,0.07422 0.222657,0.07422 C 15.148438,12.75 15.976562,12.75 16.726562,12.75 c 0.449219,0 0.972657,0.07422 1.421876,0.300781 0.226562,0.148438 0.453124,0.300781 0.601562,0.523438 0.07422,0.152343 0.148438,0.300781 0.148438,0.449219 v 0.527343 c 0,0.148438 -0.07422,0.300781 -0.222657,0.375 -0.152343,0.148438 -0.300781,0.375 -0.601562,0.375 -0.148438,0 -0.375,0.07422 -0.523438,0.07422 C 16.351562,15.449219 15.375,15.074219 14.398438,14.398438 14.25,14.25 14.023438,14.101562 13.875,13.949219 c -0.07422,0 -0.07422,-0.07422 -0.148438,-0.07422 -0.453124,0.07422 -0.902343,0.148438 -1.351562,0.300781 -0.601562,0.148438 -1.199219,0.375 -1.800781,0.523438 -0.07422,0 -0.07422,0.07422 -0.148438,0.07422 -0.375,0.675781 -0.824219,1.351562 -1.277343,1.953124 C 8.773438,17.175781 8.324219,17.625 7.875,18 7.648438,18.148438 7.351562,18.300781 7.050781,18.375 H 6.449219 c -0.148438,0 -0.222657,0 -0.375,-0.07422 -0.375,-0.152343 -0.675781,-0.449219 -0.75,-0.824219 C 5.25,17.476562 5.25,17.324219 5.25,17.175781 Z m 6.601562,-5.25 c -0.226562,0.597657 -0.527343,1.199219 -0.75,1.800781 l 1.796876,-0.453124 c -0.375,-0.449219 -0.75,-0.972657 -1.046876,-1.347657 z M 15.074219,13.875 c 0.449219,0.300781 0.976562,0.523438 1.5,0.675781 0.226562,0.07422 0.375,0 0.527343,-0.07422 0.148438,-0.07812 0.222657,-0.300781 0.07422,-0.375 0,-0.07812 -0.07422,-0.07812 -0.152343,-0.07812 -0.148438,-0.07422 -0.375,-0.07422 -0.597657,-0.148438 -0.449219,-0.07422 -0.902343,-0.07422 -1.351562,0 z m -7.050781,2.101562 c 0,0 -0.074219,0 0,0 C 7.574219,16.199219 7.125,16.5 6.75,16.800781 c -0.226562,0.148438 -0.375,0.375 -0.523438,0.597657 v 0.152343 C 6.300781,17.625 6.300781,17.625 6.375,17.625 6.601562,17.476562 6.75,17.324219 6.898438,17.25 c 0.453124,-0.375 0.75,-0.824219 1.125,-1.273438 z M 11.25,8.398438 c 0.07422,0 0.07422,0 0,0 C 11.398438,7.949219 11.476562,7.5 11.476562,7.125 c 0,-0.226562 0,-0.449219 -0.07812,-0.675781 C 11.398438,6.375 11.324219,6.375 11.25,6.375 c -0.07422,0 -0.07422,0.074219 -0.148438,0.074219 -0.152343,0.226562 -0.152343,0.449219 -0.152343,0.75 0,0.226562 0,0.375 0.07422,0.601562 0.152343,0.148438 0.152343,0.375 0.226561,0.597657 z m 0,0"
       id="path2" />
  </g>
</svg>
