<?xml version="1.0" encoding="UTF-8" standalone="no"?>
<svg
   xmlns:dc="http://purl.org/dc/elements/1.1/"
   xmlns:cc="http://creativecommons.org/ns#"
   xmlns:rdf="http://www.w3.org/1999/02/22-rdf-syntax-ns#"
   xmlns:svg="http://www.w3.org/2000/svg"
   xmlns="http://www.w3.org/2000/svg"
   xmlns:sodipodi="http://sodipodi.sourceforge.net/DTD/sodipodi-0.dtd"
   xmlns:inkscape="http://www.inkscape.org/namespaces/inkscape"
   width="15.18267"
   height="15.18267"
   viewBox="0 0 15.18267 15.18267"
   version="1.1"
   id="svg5"
   sodipodi:docname="php-symbolic.svg"
   inkscape:version="1.0.2 (e86c870879, 2021-01-15)">
  <metadata
     id="metadata11">
    <rdf:RDF>
      <cc:Work
         rdf:about="">
        <dc:format>image/svg+xml</dc:format>
        <dc:type
           rdf:resource="http://purl.org/dc/dcmitype/StillImage" />
      </cc:Work>
    </rdf:RDF>
  </metadata>
  <defs
     id="defs9" />
  <sodipodi:namedview
     pagecolor="#ffffff"
     bordercolor="#666666"
     borderopacity="1"
     objecttolerance="10"
     gridtolerance="10"
     guidetolerance="10"
     inkscape:pageopacity="0"
     inkscape:pageshadow="2"
     inkscape:window-width="2560"
     inkscape:window-height="1376"
     id="namedview7"
     showgrid="false"
     inkscape:zoom="42"
     inkscape:cx="7.5913346"
     inkscape:cy="7.5318108"
     inkscape:window-x="0"
     inkscape:window-y="0"
     inkscape:window-maximized="1"
     inkscape:current-layer="svg5" />
  <g
     id="surface1"
     transform="translate(-4.3660089,-4.3408304)">
    <path
       style="fill:#9e73b3;fill-opacity:1;fill-rule:nonzero;stroke:none"
       d="M 9.523438,14.773438 C 9.449219,14.324219 9.226562,13.949219 8.773438,13.800781 8.625,13.726562 8.398438,13.574219 8.25,13.5 8.023438,13.425781 7.800781,13.351562 7.648438,13.273438 c -0.148438,-0.07422 -0.296876,0 -0.449219,0.152343 -0.074219,0.148438 0,0.300781 0.074219,0.375 0.078124,0.148438 0.152343,0.222657 0.300781,0.375 0.152343,0.222657 0.300781,0.375 0.527343,0.597657 C 8.25,15 8.398438,15.148438 8.324219,15.449219 8.25,15.976562 8.023438,16.5 7.648438,16.875 7.574219,16.949219 7.5,16.949219 7.5,16.949219 c -0.226562,0 -0.523438,-0.148438 -0.675781,-0.300781 -0.222657,-0.222657 -0.148438,-0.449219 0.074219,-0.597657 0.078124,0 0.152343,-0.07422 0.152343,-0.152343 C 7.199219,15.75 7.273438,15.601562 7.199219,15.375 7.125,15.300781 7.125,15.226562 7.050781,15.148438 6.75,14.851562 6.375,14.550781 6,14.25 5.023438,13.5 4.574219,12.601562 4.5,11.550781 c -0.074219,-1.199219 0.226562,-2.324219 0.824219,-3.375 0.226562,-0.375 0.527343,-0.75 0.976562,-0.976562 0.300781,-0.148438 0.597657,-0.222657 0.898438,-0.300781 0.824219,-0.222657 1.726562,-0.375 2.625,-0.222657 0.75,0.148438 1.351562,0.523438 1.574219,1.273438 0.152343,0.527343 0.226562,0.976562 0.152343,1.5 -0.07422,1.050781 -0.902343,1.949219 -1.875,2.25 C 9.226562,11.851562 9,11.773438 8.773438,11.398438 8.625,11.175781 8.398438,10.875 8.25,10.574219 V 10.5 C 8.25,10.42578 8.175781,10.42578 8.175781,10.351562 8.25,10.800781 8.324219,11.25 8.550781,11.625 8.699219,11.851562 8.851562,12 9.148438,12 10.125,12.074219 10.875,11.773438 11.476562,11.023438 c 0.597657,-0.824219 0.75,-1.796876 0.597657,-2.847657 0,-0.226562 -0.07422,-0.375 -0.148438,-0.601562 0,-0.148438 0,-0.222657 0.148438,-0.300781 0.07422,0 0.152343,0 0.152343,-0.074219 0.75,-0.148438 1.574219,-0.222657 2.324219,-0.148438 0.898438,0.074219 1.722657,0.300781 2.472657,0.824219 1.203124,0.75 1.953124,1.875 2.328124,3.226562 0.07422,0.222657 0.07422,0.375 0.07422,0.597657 0,0.152343 -0.07422,0.152343 -0.226562,0.07422 -0.148438,-0.07422 -0.222657,-0.222657 -0.300781,-0.296876 C 18.824219,11.398438 18.75,11.25 18.675781,11.175781 c -0.07422,-0.07422 -0.152343,-0.07422 -0.152343,0 0,0.07422 -0.07422,0.148438 -0.07422,0.222657 -0.222657,0.75 -0.523438,1.425781 -1.050781,1.953124 -0.07422,0.07422 -0.148438,0.222657 -0.148438,0.296876 0,0.300781 -0.07422,0.601562 0,0.902343 0.07422,0.597657 0.148438,1.273438 0.226562,1.875 0.07422,0.375 -0.07812,0.523438 -0.375,0.675781 C 16.875,17.175781 16.648438,17.25 16.351562,17.25 h -1.203124 c 0,-0.449219 0,-0.898438 -0.375,-1.125 C 14.851558,15.824219 14.925781,15.523438 15,15.148438 15.07422,14.851562 15,14.625 14.851562,14.398438 14.699219,14.175781 14.476562,14.175781 14.25,14.25 c -0.601562,0.375 -1.199219,0.375 -1.875,0.148438 -0.300781,-0.07422 -0.523438,-0.07422 -0.675781,0.226562 -0.148438,0.300781 -0.222657,0.601562 -0.222657,0.898438 0,0.375 0.07422,0.828124 0.148438,1.203124 0,0.222657 0,0.296876 -0.226562,0.375 C 10.875,17.25 10.351562,17.25 9.898438,17.175781 H 9.824219 c 0,-0.449219 0,-0.902343 -0.523438,-1.125 C 9.601562,15.75 9.601562,15.226562 9.523438,14.773438 Z M 6.449219,13.050781 C 6.523438,12.976562 6.601562,12.898438 6.601562,12.75 6.675781,12.523438 6.449219,12.148438 6.226562,12.074219 6.074219,12 6,12.074219 5.925781,12.148438 c -0.226562,0.226562 -0.375,0.453124 -0.601562,0.675781 0,0.07422 -0.074219,0.07422 -0.074219,0.152343 -0.074219,0.148438 0,0.296876 0.148438,0.296876 0.078124,0 0.226562,0 0.300781,0.07812 0.300781,0 0.527343,-0.07812 0.75,-0.300781 z m 0,-2.476562 c 0,-0.148438 -0.148438,-0.300781 -0.300781,-0.300781 -0.148438,0 -0.375,0.152343 -0.296876,0.375 0,0.152343 0.148438,0.300781 0.375,0.300781 0.074219,-0.07422 0.222657,-0.222657 0.222657,-0.375 z m 0,0"
       id="path2" />
  </g>
</svg>
