<?xml version="1.0" encoding="UTF-8" standalone="no"?>
<svg
   xmlns:dc="http://purl.org/dc/elements/1.1/"
   xmlns:cc="http://creativecommons.org/ns#"
   xmlns:rdf="http://www.w3.org/1999/02/22-rdf-syntax-ns#"
   xmlns:svg="http://www.w3.org/2000/svg"
   xmlns="http://www.w3.org/2000/svg"
   xmlns:sodipodi="http://sodipodi.sourceforge.net/DTD/sodipodi-0.dtd"
   xmlns:inkscape="http://www.inkscape.org/namespaces/inkscape"
   width="15.245669"
   height="15.245669"
   viewBox="0 0 15.245669 15.245669"
   version="1.1"
   id="svg5"
   sodipodi:docname="procfile-symbolic.svg"
   inkscape:version="1.0.2 (e86c870879, 2021-01-15)">
  <metadata
     id="metadata11">
    <rdf:RDF>
      <cc:Work
         rdf:about="">
        <dc:format>image/svg+xml</dc:format>
        <dc:type
           rdf:resource="http://purl.org/dc/dcmitype/StillImage" />
      </cc:Work>
    </rdf:RDF>
  </metadata>
  <defs
     id="defs9" />
  <sodipodi:namedview
     pagecolor="#ffffff"
     bordercolor="#666666"
     borderopacity="1"
     objecttolerance="10"
     gridtolerance="10"
     guidetolerance="10"
     inkscape:pageopacity="0"
     inkscape:pageshadow="2"
     inkscape:window-width="2560"
     inkscape:window-height="1376"
     id="namedview7"
     showgrid="false"
     inkscape:zoom="42"
     inkscape:cx="7.6228345"
     inkscape:cy="7.5633107"
     inkscape:window-x="0"
     inkscape:window-y="0"
     inkscape:window-maximized="1"
     inkscape:current-layer="svg5" />
  <g
     id="surface1"
     transform="translate(-4.0021655,-4.3771655)">
    <path
       style="fill:#9175ae;fill-opacity:1;fill-rule:nonzero;stroke:none"
       d="m 6.75,19.5 v -4.285156 l 2.4375,2.140625 z m 8.804688,-8.683594 C 16.488281,11.746094 16.5,12.933594 16.5,13.070312 V 19.5 H 14.332031 V 13.101562 C 14.324219,12.601562 14.078125,12 12.980469,12 10.777344,12 8.304688,13.097656 8.28125,13.105469 L 6.75,13.792969 V 4.5 h 2.167969 v 6.082031 C 10,10.234375 11.511719,9.855469 12.980469,9.855469 c 1.335937,0 2.140625,0.523437 2.574219,0.960937 z M 12.707031,7.980469 C 13.558594,6.878906 14.09375,5.714844 14.332031,4.5 H 16.5 c -0.144531,1.21875 -0.644531,2.382812 -1.625,3.480469 z m 0,0"
       id="path2" />
  </g>
</svg>
