<?xml version="1.0" encoding="UTF-8" standalone="no"?>
<svg
   xmlns:dc="http://purl.org/dc/elements/1.1/"
   xmlns:cc="http://creativecommons.org/ns#"
   xmlns:rdf="http://www.w3.org/1999/02/22-rdf-syntax-ns#"
   xmlns:svg="http://www.w3.org/2000/svg"
   xmlns="http://www.w3.org/2000/svg"
   xmlns:sodipodi="http://sodipodi.sourceforge.net/DTD/sodipodi-0.dtd"
   xmlns:inkscape="http://www.inkscape.org/namespaces/inkscape"
   width="13.5"
   height="13.5"
   viewBox="0 0 13.5 13.5"
   version="1.1"
   id="svg7"
   sodipodi:docname="psd-symbolic.svg"
   inkscape:version="1.0.2 (e86c870879, 2021-01-15)">
  <metadata
     id="metadata13">
    <rdf:RDF>
      <cc:Work
         rdf:about="">
        <dc:format>image/svg+xml</dc:format>
        <dc:type
           rdf:resource="http://purl.org/dc/dcmitype/StillImage" />
      </cc:Work>
    </rdf:RDF>
  </metadata>
  <defs
     id="defs11" />
  <sodipodi:namedview
     pagecolor="#ffffff"
     bordercolor="#666666"
     borderopacity="1"
     objecttolerance="10"
     gridtolerance="10"
     guidetolerance="10"
     inkscape:pageopacity="0"
     inkscape:pageshadow="2"
     inkscape:window-width="2560"
     inkscape:window-height="1376"
     id="namedview9"
     showgrid="false"
     inkscape:zoom="42"
     inkscape:cx="6.75"
     inkscape:cy="6.75"
     inkscape:window-x="0"
     inkscape:window-y="0"
     inkscape:window-maximized="1"
     inkscape:current-layer="svg7" />
  <g
     id="surface1"
     transform="translate(-5.25,-5.25)">
    <path
       style="fill:#000000;fill-opacity:1;fill-rule:nonzero;stroke:none"
       d="M 18.75,5.550781 V 5.25 H 5.25 v 13.5 h 13.125 c 0.300781,0 0.375,-0.07422 0.375,-0.375 z m -7.949219,7.273438 C 10.199219,12.976562 9.75,12.976562 9,13.050781 V 15.75 H 7.648438 C 7.574219,15.75 7.5,15.523438 7.5,15.375 V 8.25 c 0,-0.074219 0.75,-0.148438 1.125,-0.148438 0.675781,0 1.351562,0 1.949219,0.074219 1.277343,0.148438 1.949219,0.972657 2.027343,2.097657 0.07422,1.277343 -0.601562,2.25 -1.800781,2.550781 z m 5.773438,1.5 C 16.5,15 16.125,15.449219 15.523438,15.675781 c -0.898438,0.375 -1.796876,0.300781 -2.699219,-0.07422 -0.07422,0 -0.148438,-0.152343 -0.148438,-0.226562 0.07422,-0.300781 0.148438,-0.601562 0.222657,-0.824219 0.527343,0.07422 1.050781,0.222657 1.5,0.300781 C 14.699219,14.925781 15,14.773438 15.074219,14.398438 15.148438,14.101562 15,13.875 14.625,13.648438 14.398438,13.5 14.101562,13.425781 13.875,13.351562 13.050781,12.976562 12.675781,12.449219 12.75,11.625 c 0.07422,-0.675781 0.601562,-1.199219 1.425781,-1.425781 0.675781,-0.148438 1.347657,-0.07422 1.949219,0.152343 0.07422,0 0.226562,0.222657 0.148438,0.296876 -0.07422,0.300781 -0.148438,0.527343 -0.222657,0.828124 -0.375,-0.07812 -0.75,-0.152343 -1.050781,-0.226562 -0.148438,0 -0.375,0 -0.523438,0.07422 -0.375,0.152343 -0.453124,0.601562 -0.152343,0.824219 0.152343,0.152343 0.300781,0.152343 0.527343,0.300781 0.222657,0.152343 0.523438,0.226562 0.824219,0.375 0.597657,0.226562 0.898438,0.75 0.898438,1.5 z m 0,0"
       id="path2" />
    <path
       style="fill:#000000;fill-opacity:1;fill-rule:nonzero;stroke:none"
       d="M 10.425781,9.375 C 9.976562,9.300781 9.75,9.300781 9,9.226562 v 2.546876 c 0.75,0.07812 1.050781,0.07812 1.574219,-0.148438 0.527343,-0.226562 0.601562,-0.75 0.601562,-1.199219 0,-0.527343 -0.300781,-0.902343 -0.75,-1.050781 z m 0,0"
       id="path4" />
  </g>
</svg>
