<?xml version="1.0" encoding="UTF-8" standalone="no"?>
<svg
   xmlns:dc="http://purl.org/dc/elements/1.1/"
   xmlns:cc="http://creativecommons.org/ns#"
   xmlns:rdf="http://www.w3.org/1999/02/22-rdf-syntax-ns#"
   xmlns:svg="http://www.w3.org/2000/svg"
   xmlns="http://www.w3.org/2000/svg"
   xmlns:sodipodi="http://sodipodi.sourceforge.net/DTD/sodipodi-0.dtd"
   xmlns:inkscape="http://www.inkscape.org/namespaces/inkscape"
   width="13.202669"
   height="13.202669"
   viewBox="0 0 13.202669 13.202669"
   version="1.1"
   id="svg5"
   sodipodi:docname="py-symbolic.svg"
   inkscape:version="1.0.2 (e86c870879, 2021-01-15)">
  <metadata
     id="metadata11">
    <rdf:RDF>
      <cc:Work
         rdf:about="">
        <dc:format>image/svg+xml</dc:format>
        <dc:type
           rdf:resource="http://purl.org/dc/dcmitype/StillImage" />
      </cc:Work>
    </rdf:RDF>
  </metadata>
  <defs
     id="defs9" />
  <sodipodi:namedview
     pagecolor="#ffffff"
     bordercolor="#666666"
     borderopacity="1"
     objecttolerance="10"
     gridtolerance="10"
     guidetolerance="10"
     inkscape:pageopacity="0"
     inkscape:pageshadow="2"
     inkscape:window-width="2560"
     inkscape:window-height="1376"
     id="namedview7"
     showgrid="false"
     inkscape:zoom="42"
     inkscape:cx="6.6013344"
     inkscape:cy="6.5418106"
     inkscape:window-x="0"
     inkscape:window-y="0"
     inkscape:window-maximized="1"
     inkscape:current-layer="svg5" />
  <g
     id="surface1"
     transform="translate(-5.3986656,-5.3986656)">
    <path
       style="fill:#336ea1;fill-opacity:1;fill-rule:nonzero;stroke:none"
       d="m 11.699219,11.625 h -1.5 c -1.050781,0 -1.722657,0.675781 -1.722657,1.726562 v 1.347657 c 0,0.152343 -0.078124,0.226562 -0.226562,0.226562 H 7.574219 c -0.675781,0 -1.199219,-0.300781 -1.5,-0.902343 C 5.851562,13.574219 5.699219,13.125 5.699219,12.675781 5.625,11.851562 5.625,11.023438 5.925781,10.199219 6.148438,9.523438 6.601562,9 7.351562,8.851562 h 4.347657 c 0.07422,0 0.226562,0 0.226562,-0.078124 v -0.375 c 0,0 -0.152343,-0.074219 -0.226562,-0.074219 H 9.148438 C 8.925781,8.324219 8.851562,8.25 8.851562,8.023438 V 7.050781 C 8.851562,6.523438 9.074219,6.148438 9.523438,6 c 0.375,-0.148438 0.75,-0.300781 1.125,-0.375 0.902343,-0.148438 1.800781,-0.148438 2.703124,0.074219 0.375,0.074219 0.75,0.226562 1.046876,0.449219 0.300781,0.300781 0.527343,0.601562 0.453124,1.050781 v 2.699219 c 0,1.050781 -0.601562,1.652343 -1.652343,1.652343 -0.523438,0.07422 -1.050781,0.07422 -1.5,0.07422 z m -2.097657,-4.5 c 0,0.300781 0.222657,0.601562 0.597657,0.601562 0.300781,0 0.601562,-0.300781 0.601562,-0.601562 0,-0.300781 -0.300781,-0.523438 -0.601562,-0.601562 -0.375,0 -0.597657,0.300781 -0.597657,0.601562 z m 2.699219,5.25 h 1.5 c 1.050781,0 1.722657,-0.675781 1.722657,-1.726562 V 9.300781 c 0,-0.152343 0.07812,-0.226562 0.226562,-0.226562 h 0.675781 c 0.675781,0 1.199219,0.300781 1.5,0.902343 0.222657,0.449219 0.375,0.898438 0.375,1.347657 0.07422,0.824219 0.07422,1.652343 -0.226562,2.476562 C 17.851562,14.476562 17.398438,15 16.648438,15.148438 h -4.347657 c -0.07422,0 -0.226562,0 -0.226562,0.07812 v 0.375 c 0,0 0.152343,0.07422 0.226562,0.07422 h 2.550781 c 0.222657,0 0.296876,0.07422 0.296876,0.300781 v 0.972657 c 0,0.527343 -0.222657,0.902343 -0.671876,1.050781 -0.375,0.148438 -0.75,0.300781 -1.125,0.375 -0.902343,0.148438 -1.800781,0.148438 -2.703124,-0.07422 -0.375,-0.07422 -0.75,-0.226562 -1.046876,-0.449219 C 9.300781,17.550781 9.074219,17.25 9.148438,16.800781 v -2.699219 c 0,-1.050781 0.601562,-1.652343 1.652343,-1.652343 0.523438,-0.07422 1.050781,-0.07422 1.5,-0.07422 z m 2.097657,4.5 c 0,-0.300781 -0.222657,-0.601562 -0.597657,-0.601562 -0.300781,0 -0.601562,0.300781 -0.601562,0.601562 0,0.300781 0.300781,0.523438 0.601562,0.601562 0.375,0 0.597657,-0.300781 0.597657,-0.601562 z m 0,0"
       id="path2" />
  </g>
</svg>
