<?xml version="1.0" encoding="UTF-8" standalone="no"?>
<svg
   xmlns:dc="http://purl.org/dc/elements/1.1/"
   xmlns:cc="http://creativecommons.org/ns#"
   xmlns:rdf="http://www.w3.org/1999/02/22-rdf-syntax-ns#"
   xmlns:svg="http://www.w3.org/2000/svg"
   xmlns="http://www.w3.org/2000/svg"
   xmlns:sodipodi="http://sodipodi.sourceforge.net/DTD/sodipodi-0.dtd"
   xmlns:inkscape="http://www.inkscape.org/namespaces/inkscape"
   width="13.667669"
   height="13.667669"
   viewBox="0 0 13.667669 13.667669"
   version="1.1"
   id="svg19"
   sodipodi:docname="r-symbolic.svg"
   inkscape:version="1.0.2 (e86c870879, 2021-01-15)">
  <metadata
     id="metadata23">
    <rdf:RDF>
      <cc:Work
         rdf:about="">
        <dc:format>image/svg+xml</dc:format>
        <dc:type
           rdf:resource="http://purl.org/dc/dcmitype/StillImage" />
      </cc:Work>
    </rdf:RDF>
  </metadata>
  <sodipodi:namedview
     pagecolor="#ffffff"
     bordercolor="#666666"
     borderopacity="1"
     objecttolerance="10"
     gridtolerance="10"
     guidetolerance="10"
     inkscape:pageopacity="0"
     inkscape:pageshadow="2"
     inkscape:window-width="2560"
     inkscape:window-height="1376"
     id="namedview21"
     showgrid="false"
     inkscape:zoom="42"
     inkscape:cx="6.8338345"
     inkscape:cy="6.7743107"
     inkscape:window-x="0"
     inkscape:window-y="0"
     inkscape:window-maximized="1"
     inkscape:current-layer="svg19" />
  <defs
     id="defs12">
    <linearGradient
       id="linear0"
       gradientUnits="userSpaceOnUse"
       x1="7.0999999"
       y1="10.197"
       x2="25"
       y2="22.184999"
       gradientTransform="matrix(0.75,0,0,0.75,5.1286655,4.3426655)">
      <stop
         offset="0"
         style="stop-color:rgb(79.607844%,80.784315%,81.568629%);stop-opacity:1;"
         id="stop2" />
      <stop
         offset="1"
         style="stop-color:rgb(51.764709%,51.372552%,54.509807%);stop-opacity:1;"
         id="stop4" />
    </linearGradient>
    <linearGradient
       id="linear1"
       gradientUnits="userSpaceOnUse"
       x1="14.475"
       y1="13.919"
       x2="24.355"
       y2="24"
       gradientTransform="matrix(0.75,0,0,0.75,5.1286655,4.3426655)">
      <stop
         offset="0"
         style="stop-color:rgb(15.294118%,42.745098%,76.47059%);stop-opacity:1;"
         id="stop7" />
      <stop
         offset="1"
         style="stop-color:rgb(8.627451%,36.078432%,66.666669%);stop-opacity:1;"
         id="stop9" />
    </linearGradient>
  </defs>
  <g
     id="surface1"
     transform="translate(-5.1661655,-5.1661655)">
    <path
       style="fill:url(#linear0);fill-rule:evenodd;stroke:none"
       d="m 12,15.816406 c -3.707031,0 -6.710938,-2.015625 -6.710938,-4.496094 0,-2.484374 3.003907,-4.496093 6.710938,-4.496093 3.707031,0 6.710938,2.011719 6.710938,4.496093 0,2.480469 -3.003907,4.496094 -6.710938,4.496094 z m 1.027344,-7.234375 c -2.816406,0 -5.101563,1.375 -5.101563,3.074219 0,1.695312 2.285157,3.070312 5.101563,3.070312 2.816406,0 4.898437,-0.9375 4.898437,-3.070312 0,-2.132812 -2.082031,-3.074219 -4.898437,-3.074219 z m 0,0"
       id="path14" />
    <path
       style="fill:url(#linear1);fill-rule:evenodd;stroke:none"
       d="m 15.511719,13.785156 c 0,0 0.40625,0.125 0.640625,0.242188 0.08203,0.04297 0.222656,0.125 0.324218,0.226562 0.101563,0.101563 0.148438,0.214844 0.148438,0.214844 l 1.601562,2.699219 h -2.585937 l -1.210937,-2.273438 c 0,0 -0.246094,-0.425781 -0.398438,-0.546875 -0.128906,-0.105468 -0.183594,-0.140625 -0.300781,-0.140625 h -0.617188 v 2.96875 H 10.824219 V 9.617188 h 4.597656 c 0,0 2.09375,0.035156 2.09375,2.027343 0,1.996094 -2,2.144531 -2,2.144531 z m -0.996094,-2.53125 h -1.386719 v 1.285156 h 1.386719 c 0,0 0.640625,-0.0039 0.640625,-0.652343 0,-0.667969 -0.640625,-0.632813 -0.640625,-0.632813 z m 0,0"
       id="path16" />
  </g>
</svg>
