<?xml version="1.0" encoding="UTF-8" standalone="no"?>
<svg
   xmlns:dc="http://purl.org/dc/elements/1.1/"
   xmlns:cc="http://creativecommons.org/ns#"
   xmlns:rdf="http://www.w3.org/1999/02/22-rdf-syntax-ns#"
   xmlns:svg="http://www.w3.org/2000/svg"
   xmlns="http://www.w3.org/2000/svg"
   xmlns:sodipodi="http://sodipodi.sourceforge.net/DTD/sodipodi-0.dtd"
   xmlns:inkscape="http://www.inkscape.org/namespaces/inkscape"
   width="12.995669"
   height="12.995669"
   viewBox="0 0 12.995669 12.995669"
   version="1.1"
   id="svg5"
   sodipodi:docname="rb-symbolic.svg"
   inkscape:version="1.0.2 (e86c870879, 2021-01-15)">
  <metadata
     id="metadata11">
    <rdf:RDF>
      <cc:Work
         rdf:about="">
        <dc:format>image/svg+xml</dc:format>
        <dc:type
           rdf:resource="http://purl.org/dc/dcmitype/StillImage" />
      </cc:Work>
    </rdf:RDF>
  </metadata>
  <defs
     id="defs9" />
  <sodipodi:namedview
     pagecolor="#ffffff"
     bordercolor="#666666"
     borderopacity="1"
     objecttolerance="10"
     gridtolerance="10"
     guidetolerance="10"
     inkscape:pageopacity="0"
     inkscape:pageshadow="2"
     inkscape:window-width="2560"
     inkscape:window-height="1376"
     id="namedview7"
     showgrid="false"
     inkscape:zoom="42"
     inkscape:cx="6.4978345"
     inkscape:cy="6.4383107"
     inkscape:window-x="0"
     inkscape:window-y="0"
     inkscape:window-maximized="1"
     inkscape:current-layer="svg5" />
  <g
     id="surface1"
     transform="translate(-5.539275,-5.5021655)">
    <path
       style="fill:#cc3d45;fill-opacity:1;fill-rule:nonzero;stroke:none"
       d="m 13.351562,5.625 h 3.074219 c 0.07422,0 0.148438,0.074219 0.222657,0.074219 0.902343,0.226562 1.5,0.75 1.652343,1.652343 0,0.148438 0.07422,0.296876 0.07422,0.449219 v 0.597657 c 0,0.152343 -0.07422,0.300781 -0.07422,0.453124 -0.07422,1.046876 -0.152343,2.171876 -0.226562,3.222657 -0.148438,1.800781 -0.300781,3.527343 -0.375,5.324219 0,0.300781 -0.07422,0.375 -0.375,0.375 C 16.5,17.851562 15.75,17.851562 14.925781,17.925781 13.273438,18 11.625,18.148438 9.976562,18.226562 9.523438,18.226562 9.074219,18.300782 8.625,18.375 H 7.875 C 7.800781,18.375 7.726562,18.30078 7.648438,18.30078 6.75,18.148438 6.074219,17.625 5.851562,16.726562 5.773438,16.5 5.773438,16.273438 5.699219,16.050781 v -0.375 c 0,-0.07422 0.074219,-0.152343 0.074219,-0.300781 0,-0.601562 0.078124,-1.273438 0.078124,-1.875 0,-0.375 0,-0.675781 0.074219,-0.976562 0.523438,-1.347657 1.125,-2.625 2.175781,-3.671876 C 9.375,7.5 10.800781,6.449219 12.601562,6 c 0.222657,-0.148438 0.449219,-0.226562 0.75,-0.375 z m 0,0"
       id="path2" />
  </g>
</svg>
