<?xml version="1.0" encoding="UTF-8" standalone="no"?>
<svg
   xmlns:dc="http://purl.org/dc/elements/1.1/"
   xmlns:cc="http://creativecommons.org/ns#"
   xmlns:rdf="http://www.w3.org/1999/02/22-rdf-syntax-ns#"
   xmlns:svg="http://www.w3.org/2000/svg"
   xmlns="http://www.w3.org/2000/svg"
   xmlns:sodipodi="http://sodipodi.sourceforge.net/DTD/sodipodi-0.dtd"
   xmlns:inkscape="http://www.inkscape.org/namespaces/inkscape"
   width="15.48267"
   height="15.48267"
   viewBox="0 0 15.48267 15.48267"
   version="1.1"
   id="svg5"
   sodipodi:docname="rs-symbolic.svg"
   inkscape:version="1.0.2 (e86c870879, 2021-01-15)">
  <metadata
     id="metadata11">
    <rdf:RDF>
      <cc:Work
         rdf:about="">
        <dc:format>image/svg+xml</dc:format>
        <dc:type
           rdf:resource="http://purl.org/dc/dcmitype/StillImage" />
      </cc:Work>
    </rdf:RDF>
  </metadata>
  <defs
     id="defs9" />
  <sodipodi:namedview
     pagecolor="#ffffff"
     bordercolor="#666666"
     borderopacity="1"
     objecttolerance="10"
     gridtolerance="10"
     guidetolerance="10"
     inkscape:pageopacity="0"
     inkscape:pageshadow="2"
     inkscape:window-width="2560"
     inkscape:window-height="1376"
     id="namedview7"
     showgrid="false"
     inkscape:zoom="42"
     inkscape:cx="7.7413347"
     inkscape:cy="7.6818109"
     inkscape:window-x="0"
     inkscape:window-y="0"
     inkscape:window-maximized="1"
     inkscape:current-layer="svg5" />
  <g
     id="surface1"
     transform="translate(-4.3714581,-4.4027469)">
    <path
       style="fill:#000000;fill-opacity:1;fill-rule:nonzero;stroke:none"
       d="M 16.273438,6.300781 V 6.75 l 0.07812,0.074219 h 0.07422 C 16.648438,6.75 16.875,6.75 17.101562,6.675781 17.25,6.601562 17.398438,6.75 17.324219,6.898438 17.25,7.125 17.25,7.351562 17.175781,7.574219 V 7.648438 L 17.25,7.726562 c 0,0.074219 0.07422,0.074219 0.148438,0.074219 h 0.675781 c 0.152343,0 0.226562,0.074219 0.226562,0.222657 V 8.175781 C 18.226562,8.398438 18.074219,8.625 18,8.773438 v 0.078124 c 0,0 0.07422,0.074219 0.07422,0.148438 h 0.07422 c 0.226562,0.074219 0.453124,0.074219 0.675781,0.148438 0.152343,0 0.226562,0.226562 0.152343,0.375 -0.152343,0.226562 -0.300781,0.375 -0.375,0.527343 v 0.148438 c 0,0.07422 0.07422,0.07422 0.148438,0.152343 0.226562,0.07422 0.375,0.148438 0.601562,0.222657 0.148438,0.07422 0.222657,0.226562 0.07422,0.375 C 19.273438,11.101562 19.125,11.25 18.898438,11.398438 V 11.625 c 0,0 0.07812,0.07422 0.152343,0.07422 0.148438,0.07422 0.300781,0.226562 0.523438,0.300781 0.152343,0.07422 0.152343,0.300781 0,0.375 -0.222657,0.148438 -0.375,0.226562 -0.597657,0.375 v 0.07422 c 0,0.152343 0,0.152343 0.07422,0.226562 0.148438,0.148438 0.300781,0.300781 0.449219,0.375 0.148438,0.148438 0.07422,0.300781 -0.07422,0.375 -0.226562,0.07422 -0.449219,0.148438 -0.601562,0.222657 0,0 -0.07422,0 -0.07422,0.07812 -0.07422,0.07422 0,0.148438 0,0.222657 0.148438,0.152343 0.226562,0.300781 0.375,0.527343 0.07422,0.07422 0.07422,0.222657 -0.07422,0.296876 -0.07422,0 -0.07422,0 -0.152343,0.07812 -0.222657,0 -0.375,0.07422 -0.597657,0.07422 h -0.07422 c 0,0.07422 -0.07812,0.07422 -0.07812,0.148438 0,0.07422 0,0.07422 0.07812,0.152343 0.07422,0.148438 0.148438,0.375 0.222657,0.523438 0.07422,0.07422 0,0.226562 -0.07422,0.300781 h -0.898438 c -0.07812,0.07422 -0.07812,0.148438 -0.07812,0.222657 0.07812,0.226562 0.07812,0.375 0.152343,0.601562 0.07422,0.148438 -0.07422,0.300781 -0.300781,0.300781 -0.226562,-0.07422 -0.449219,-0.07422 -0.675781,-0.152343 H 16.5 l -0.07422,0.07812 c 0,0 -0.07422,0.07422 0,0.07422 v 0.675781 c 0,0.148438 -0.07422,0.222657 -0.226562,0.222657 H 16.05078 c -0.226562,-0.07422 -0.375,-0.148438 -0.601562,-0.300781 H 15.375 c -0.07422,0 -0.148438,0.07812 -0.148438,0.152343 0,0.222657 -0.07812,0.375 -0.07812,0.597657 0,0.152343 -0.222657,0.226562 -0.375,0.152343 C 14.625,18.898438 14.398438,18.75 14.25,18.675781 h -0.07422 c -0.07422,0 -0.152343,0.07422 -0.152343,0.148438 -0.07422,0.226562 -0.148438,0.375 -0.222657,0.601562 -0.07422,0.148438 -0.152343,0.148438 -0.226562,0.148438 C 13.5,19.574219 13.5,19.5 13.5,19.5 13.351562,19.351562 13.199219,19.199219 13.050781,18.976562 h -0.152343 c -0.07422,0 -0.148438,0.07422 -0.148438,0.148438 -0.07422,0.148438 -0.226562,0.375 -0.300781,0.523438 -0.07422,0.152343 -0.300781,0.152343 -0.375,0 -0.148438,-0.222657 -0.222657,-0.375 -0.375,-0.597657 h -0.148438 c -0.07422,0 -0.07422,0 -0.152343,0.07422 l -0.449219,0.449219 c -0.07422,0.07422 -0.148438,0.07422 -0.300781,0.07422 -0.07422,0 -0.07422,-0.07422 -0.07422,-0.148438 l -0.222657,-0.675781 c 0,0 0,-0.07422 -0.07812,-0.07422 h -0.22266 C 9.898438,18.898438 9.75,18.976562 9.523438,19.125 9.226562,18.976562 9,18.898438 9,18.75 8.925781,18.523438 8.925781,18.300781 8.925781,18.074219 c 0,0 0,-0.07422 -0.074219,-0.07422 -0.078124,0 -0.078124,-0.07422 -0.152343,-0.07422 -0.074219,0 -0.074219,0 -0.148438,0.07422 -0.152343,0.07422 -0.375,0.148438 -0.527343,0.226562 -0.148438,0.07422 -0.296876,0 -0.296876,-0.152343 V 17.25 L 7.648438,17.175781 H 7.574219 C 7.351562,17.25 7.125,17.25 6.898438,17.324219 6.75,17.398438 6.601562,17.25 6.675781,17.101562 6.75,16.875 6.75,16.648438 6.824219,16.425781 v -0.07422 L 6.75,16.273438 H 6 c -0.148438,0 -0.226562,-0.07422 -0.226562,-0.222657 V 15.898438 C 5.851562,15.675781 6,15.449219 6.074219,15.300781 v -0.07422 c 0,0 0,-0.07812 -0.074219,-0.07812 0,-0.07422 -0.074219,-0.07422 -0.074219,-0.07422 C 5.699219,15.074219 5.476562,15 5.25,15 5.101562,15 5.023438,14.773438 5.101562,14.625 5.25,14.476562 5.398438,14.25 5.476562,14.101562 v -0.07812 c 0,-0.07422 0,-0.07422 -0.078124,-0.148438 0,0 -0.074219,-0.07422 -0.148438,-0.07422 C 5.101562,13.726562 4.875,13.648438 4.726562,13.574219 4.574219,13.5 4.5,13.351562 4.648438,13.199219 4.875,13.125 5.023438,12.898438 5.25,12.75 v -0.148438 c 0,-0.07812 0,-0.152343 -0.074219,-0.152343 C 5.023438,12.375 4.800781,12.226562 4.648438,12.148438 4.5,12.074219 4.5,11.851562 4.648438,11.773438 4.875,11.625 5.023438,11.550781 5.25,11.398438 V 11.25 L 4.726562,10.726562 c -0.078124,-0.07812 -0.078124,-0.226562 0,-0.300781 0,0 0.074219,0 0.074219,-0.07422 L 5.476562,10.125 v -0.07422 c 0.074219,-0.074219 0,-0.152343 0,-0.226562 C 5.324219,9.675781 5.25,9.523438 5.101562,9.375 5.023438,9.226562 5.101562,9 5.25,9 5.476562,8.925781 5.699219,8.925781 5.925781,8.851562 H 6 C 6,8.773438 6.074219,8.773438 6.074219,8.699219 6.074219,8.625 6.074219,8.625 6,8.550781 5.925781,8.398438 5.851562,8.175781 5.773438,8.023438 5.699219,7.875 5.773438,7.726562 5.925781,7.726562 H 6.75 c 0,0 0,-0.078124 0.074219,-0.078124 V 7.574219 C 6.75,7.351562 6.675781,7.125 6.675781,6.898438 6.601562,6.75 6.75,6.601562 6.898438,6.675781 7.125,6.675781 7.351562,6.75 7.574219,6.824219 H 7.648438 L 7.726562,6.75 c 0,0 0.074219,-0.074219 0,-0.074219 V 6 c 0,-0.148438 0.074219,-0.226562 0.222657,-0.226562 H 8.101562 C 8.324219,5.851562 8.550781,6 8.699219,6.074219 h 0.074219 c 0,0 0.078124,0 0.078124,-0.074219 C 8.925781,6 8.925781,5.925781 8.925781,5.925781 8.925781,5.699219 9,5.476562 9,5.25 9,5.101562 9.226562,5.023438 9.375,5.101562 9.523438,5.25 9.75,5.398438 9.898438,5.476562 h 0.078124 c 0.074219,0 0.074219,0 0.148438,-0.078124 0,0 0,-0.074219 0.07422,-0.148438 C 10.27344,5.101562 10.351563,4.875 10.425782,4.726562 10.5,4.574219 10.574219,4.574219 10.726562,4.574219 l 0.07422,0.074219 C 10.875,4.875 11.101562,5.023438 11.25,5.25 h 0.07422 c 0.07422,0 0.152343,-0.074219 0.152343,-0.074219 0.07422,-0.152343 0.222657,-0.375 0.296876,-0.527343 C 11.925781,4.5 12.074219,4.5 12.148438,4.574219 l 0.07812,0.074219 C 12.375,4.875 12.449219,5.023438 12.601562,5.25 h 0.222657 c 0.07422,0 0.07422,-0.074219 0.07422,-0.074219 0.152343,-0.152343 0.300781,-0.300781 0.375,-0.449219 0.07812,-0.078124 0.226562,-0.078124 0.300781,0 V 4.800781 C 13.648438,5.023438 13.726562,5.25 13.800781,5.398438 L 13.875,5.476562 h 0.148438 C 14.25,5.398438 14.476562,5.25 14.625,5.101562 14.773438,5.023438 15,5.101562 15,5.25 c 0,0.226562 0.07422,0.449219 0.07422,0.675781 0,0 0,0.074219 0.07422,0.074219 h 0.07812 C 15.300781,6.074219 15.375,6.074219 15.375,6 15.523438,5.925781 15.75,5.851562 15.976562,5.773438 16.125,5.699219 16.273438,5.773438 16.273438,6 Z M 7.949219,8.324219 h 5.699219 c 0.226562,0 0.453124,0 0.675781,0.074219 0.449219,0.152343 0.824219,0.375 1.050781,0.675781 0.226562,0.226562 0.375,0.527343 0.375,0.902343 0,0.296876 -0.07422,0.597657 -0.226562,0.898438 -0.148438,0.226562 -0.375,0.449219 -0.597657,0.601562 -0.07422,0.07422 -0.152343,0.148438 -0.226562,0.148438 0.07422,0.07422 0.152343,0.07422 0.226562,0.148438 0.148438,0.152343 0.375,0.300781 0.449219,0.527343 0.148438,0.222657 0.226562,0.523438 0.226562,0.75 0,0.07422 0.07422,0.148438 0.148438,0.222657 0.148438,0.152343 0.375,0.152343 0.601562,0.152343 0.148438,0 0.296876,-0.07422 0.375,-0.152343 C 16.875,13.125 16.875,12.976562 16.949219,12.824219 v -0.375 c 0,-0.07422 0,-0.07422 0.07422,-0.07422 h 0.527343 v -0.976562 c -0.226562,-0.07422 -0.449219,-0.222657 -0.675781,-0.296876 -0.07422,-0.07812 -0.226562,-0.07812 -0.300781,-0.152343 -0.222657,-0.07422 -0.300781,-0.300781 -0.222657,-0.597657 0.148438,-0.375 0.296876,-0.75 0.523438,-1.125 V 9.148438 C 16.574219,8.699219 16.273438,8.25 15.824219,7.875 15.074219,7.199219 14.175781,6.75 13.125,6.523438 h -0.07422 c -0.226562,0.226562 -0.449219,0.453124 -0.75,0.675781 -0.152343,0.152343 -0.449219,0.152343 -0.601562,0 l -0.67578,-0.675781 h -0.07422 C 10.648438,6.601562 10.425781,6.675781 10.199219,6.75 9.375,7.050781 8.699219,7.5 8.101562,8.101562 8.023438,8.175781 7.949219,8.25 7.949219,8.324219 Z m 8.476562,6.902343 h -2.25 c -0.152343,0 -0.226562,0 -0.300781,-0.07812 C 13.574219,15 13.425781,14.699219 13.351562,14.398438 13.273438,14.101562 13.199219,13.875 13.199219,13.574219 13.199219,13.425781 13.125,13.273438 13.050781,13.125 12.898438,12.75 12.601562,12.523438 12.226562,12.523438 H 10.875 V 13.5 h 1.351562 c 0.07422,0 0.07422,0 0.07422,0.07422 v 1.5 c 0,0.07422 0,0.07422 -0.07422,0.07422 h -4.5 C 7.875,15.375 8.023438,15.523438 8.175781,15.675781 H 8.25 C 8.550781,15.601562 8.851562,15.523438 9.148438,15.523438 9.375,15.449219 9.601562,15.601562 9.675781,15.824219 9.75,16.125 9.824219,16.5 9.898438,16.800781 V 16.875 c 0.601562,0.226562 1.203124,0.449219 1.800781,0.449219 0.527343,0.07422 1.050781,0 1.574219,-0.07422 0.375,-0.07422 0.75,-0.226562 1.125,-0.375 v -0.07422 C 14.476562,16.5 14.550781,16.125 14.625,15.824219 c 0.07422,-0.222657 0.226562,-0.375 0.523438,-0.300781 L 16.050781,15.75 H 16.125 c 0,-0.148438 0.148438,-0.375 0.300781,-0.523438 z M 7.5,9.976562 7.726562,10.425781 c 0,0.07422 0.074219,0.148438 0,0.222657 0,0.152343 -0.152343,0.226562 -0.226562,0.300781 -0.300781,0.152343 -0.601562,0.300781 -0.898438,0.375 0,0 -0.078124,0 -0.078124,0.07422 v 0.375 c 0,0.527343 0.078124,1.050781 0.226562,1.652343 0,0 0,0.07422 0.074219,0.07422 h 1.574219 v -3.52344 z m 3.226562,1.046876 c 0.07422,0 0.07422,0 0,0 h 1.722657 c 0.152343,0 0.300781,0 0.449219,-0.07422 0.07812,-0.07422 0.152343,-0.07422 0.226562,-0.222657 0.07422,-0.152343 0.07422,-0.375 -0.07422,-0.527343 -0.152343,-0.148438 -0.375,-0.222657 -0.527343,-0.222657 h -1.875 c 0.07812,0.375 0.07812,0.671876 0.07812,1.046876 z m -4.5,-0.75 c 0,0.226562 0.222657,0.453124 0.449219,0.453124 0.222657,0 0.449219,-0.226562 0.449219,-0.453124 0,-0.222657 -0.226562,-0.449219 -0.449219,-0.449219 -0.226562,0 -0.449219,0.226562 -0.449219,0.449219 z M 15.75,16.574219 c 0,-0.222657 -0.226562,-0.449219 -0.449219,-0.449219 -0.226562,0 -0.449219,0.226562 -0.449219,0.449219 0,0.226562 0.222657,0.449219 0.449219,0.449219 0.222657,0 0.449219,-0.148438 0.449219,-0.449219 z M 8.699219,16.125 C 8.476562,16.125 8.25,16.351562 8.25,16.574219 c 0,0.226562 0.226562,0.449219 0.449219,0.449219 0.226562,0 0.449219,-0.222657 0.449219,-0.449219 0,-0.222657 -0.222657,-0.449219 -0.449219,-0.449219 z m 3.75,-9.824219 C 12.449219,6.074219 12.300781,5.851562 12,5.851562 11.773438,5.851562 11.550781,6 11.550781,6.300781 11.550781,6.523438 11.699219,6.75 12,6.75 c 0.226562,0 0.375,-0.226562 0.449219,-0.449219 z m 4.875,4.5 c 0.226562,0 0.449219,-0.226562 0.449219,-0.449219 0,-0.226562 -0.222657,-0.453124 -0.449219,-0.453124 -0.222657,0 -0.449219,0.226562 -0.449219,0.453124 0,0.222657 0.148438,0.449219 0.449219,0.449219 z m 0,0"
       id="path2" />
  </g>
</svg>
