<?xml version="1.0" encoding="UTF-8" standalone="no"?>
<svg
   xmlns:dc="http://purl.org/dc/elements/1.1/"
   xmlns:cc="http://creativecommons.org/ns#"
   xmlns:rdf="http://www.w3.org/1999/02/22-rdf-syntax-ns#"
   xmlns:svg="http://www.w3.org/2000/svg"
   xmlns="http://www.w3.org/2000/svg"
   xmlns:sodipodi="http://sodipodi.sourceforge.net/DTD/sodipodi-0.dtd"
   xmlns:inkscape="http://www.inkscape.org/namespaces/inkscape"
   width="13.758669"
   height="13.758669"
   viewBox="0 0 13.758669 13.758669"
   version="1.1"
   id="svg5"
   sodipodi:docname="sass-symbolic.svg"
   inkscape:version="1.0.2 (e86c870879, 2021-01-15)">
  <metadata
     id="metadata11">
    <rdf:RDF>
      <cc:Work
         rdf:about="">
        <dc:format>image/svg+xml</dc:format>
        <dc:type
           rdf:resource="http://purl.org/dc/dcmitype/StillImage" />
      </cc:Work>
    </rdf:RDF>
  </metadata>
  <defs
     id="defs9" />
  <sodipodi:namedview
     pagecolor="#ffffff"
     bordercolor="#666666"
     borderopacity="1"
     objecttolerance="10"
     gridtolerance="10"
     guidetolerance="10"
     inkscape:pageopacity="0"
     inkscape:pageshadow="2"
     inkscape:window-width="2560"
     inkscape:window-height="1376"
     id="namedview7"
     showgrid="false"
     inkscape:zoom="42"
     inkscape:cx="6.8793343"
     inkscape:cy="6.8198105"
     inkscape:window-x="0"
     inkscape:window-y="0"
     inkscape:window-maximized="1"
     inkscape:current-layer="svg5" />
  <g
     id="surface1"
     transform="translate(-5.1490849,-5.0705201)">
    <path
       style="fill:#cf6399;fill-opacity:1;fill-rule:nonzero;stroke:none"
       d="m 13.5,12.976562 c -0.824219,0.523438 -1.800781,1.125 -2.625,1.648438 0.300781,0.675781 0.300781,1.351562 0.07422,2.023438 -0.375,1.203124 -1.273438,1.875 -2.398438,2.027343 -0.300782,0.07422 -0.601563,0 -0.82422,-0.07422 C 7.425781,18.523438 7.273438,18.300781 7.199219,18.074219 6.898438,17.398438 6.976562,16.800781 7.425781,16.273438 7.726562,15.976562 8.023438,15.601562 8.398438,15.375 8.773438,15.074219 9.300781,14.851562 9.75,14.550781 9.824219,14.476562 9.898438,14.476562 10.050781,14.398438 9.824219,14.25 9.75,14.101562 9.601562,14.101562 9,13.726562 8.398438,13.273438 7.875,12.75 7.574219,12.449219 7.273438,12.148438 7.050781,11.773438 6.375,11.25 6.300781,10.5 6.675781,9.824219 6.976562,9.074219 7.5,8.476562 8.023438,7.949219 9.226562,6.898438 10.574219,6.148438 12.074219,5.625 13.125,5.25 14.175781,5.101562 15.226562,5.25 c 0.296876,0.148438 0.75,0.226562 1.046876,0.375 1.125,0.449219 1.578124,1.351562 1.203124,2.550781 C 17.175781,9.148438 16.574219,9.976562 15.675781,10.5 14.476562,11.25 13.273438,11.550781 11.851562,11.324219 11.398438,11.25 11.023438,11.023438 10.648438,10.648438 10.574219,10.5 10.5,10.351562 10.425781,10.273438 c 0,0 0,-0.07422 0.07422,-0.148438 0,0 0.07422,0 0.148438,0.07422 C 11.25,10.800781 11.925781,10.875 12.601562,10.726562 13.875,10.5 15,10.050781 15.824219,9.074219 16.125,8.699219 16.425781,8.25 16.574219,7.726562 16.726562,7.125 16.425781,6.675781 15.898438,6.375 15.300781,6.074219 14.699219,6.074219 14.101562,6.148438 12.601562,6.375 11.25,6.976562 10.050781,7.726562 9.375,8.101562 8.773438,8.550781 8.324219,9.148438 8.101562,9.449219 7.949219,9.75 7.800781,10.050781 7.574219,10.648438 7.648438,11.25 8.101562,11.699219 8.398438,12 8.699219,12.300781 9,12.523438 c 0.449219,0.375 0.976562,0.828124 1.425781,1.203124 0.07422,0 0.148438,0.07422 0.222657,0 C 10.875,13.574219 11.023438,13.5 11.25,13.425781 c 0.675781,-0.375 1.351562,-0.675781 2.101562,-0.824219 0,0.296876 0.07422,0.296876 0.148438,0.375 0,-0.07812 0,-0.07812 0,0 z m -3.226562,1.875 c -0.671876,0.375 -1.199219,0.75 -1.722657,1.273438 C 8.25,16.425781 8.101562,16.726562 8.023438,17.101562 7.949219,17.550781 8.25,17.773438 8.699219,17.699219 9.300781,17.550781 9.75,17.175781 10.050781,16.726562 c 0.375,-0.601562 0.375,-1.125 0.222657,-1.875 z m 0,0"
       id="path2" />
  </g>
</svg>
