<?xml version="1.0" encoding="UTF-8" standalone="no"?>
<svg
   xmlns:dc="http://purl.org/dc/elements/1.1/"
   xmlns:cc="http://creativecommons.org/ns#"
   xmlns:rdf="http://www.w3.org/1999/02/22-rdf-syntax-ns#"
   xmlns:svg="http://www.w3.org/2000/svg"
   xmlns="http://www.w3.org/2000/svg"
   xmlns:sodipodi="http://sodipodi.sourceforge.net/DTD/sodipodi-0.dtd"
   xmlns:inkscape="http://www.inkscape.org/namespaces/inkscape"
   width="13.745669"
   height="13.745669"
   viewBox="0 0 13.745669 13.745669"
   version="1.1"
   id="svg5"
   sodipodi:docname="scala-symbolic.svg"
   inkscape:version="1.0.2 (e86c870879, 2021-01-15)">
  <metadata
     id="metadata11">
    <rdf:RDF>
      <cc:Work
         rdf:about="">
        <dc:format>image/svg+xml</dc:format>
        <dc:type
           rdf:resource="http://purl.org/dc/dcmitype/StillImage" />
      </cc:Work>
    </rdf:RDF>
  </metadata>
  <defs
     id="defs9" />
  <sodipodi:namedview
     pagecolor="#ffffff"
     bordercolor="#666666"
     borderopacity="1"
     objecttolerance="10"
     gridtolerance="10"
     guidetolerance="10"
     inkscape:pageopacity="0"
     inkscape:pageshadow="2"
     inkscape:window-width="2560"
     inkscape:window-height="1376"
     id="namedview7"
     showgrid="false"
     inkscape:zoom="42"
     inkscape:cx="6.8728345"
     inkscape:cy="6.8133107"
     inkscape:window-x="0"
     inkscape:window-y="0"
     inkscape:window-maximized="1"
     inkscape:current-layer="svg5" />
  <g
     id="surface1"
     transform="translate(-5.1271655,-5.1271655)">
    <path
       style="fill:#000000;fill-opacity:1;fill-rule:nonzero;stroke:none"
       d="M 16.199219,5.25 V 8.398438 C 16.125,8.476562 16.125,8.550781 16.050781,8.550781 15.824219,8.773438 15.523438,8.925781 15.226562,9 14.550781,9.226562 13.800781,9.375 13.125,9.523438 11.925781,9.75 10.800781,9.898438 9.601562,10.050781 9,10.125 8.398438,10.199219 7.800781,10.351562 V 7.199219 C 7.875,7.125 7.949219,7.125 8.101562,7.125 9,6.976562 9.976562,6.824219 10.949219,6.75 12.375,6.523438 13.800781,6.375 15.148438,5.925781 15.523438,5.773438 15.976562,5.625 16.199219,5.25 Z m 0,4.199219 v 3.152343 L 16.050781,12.75 c -0.375,0.300781 -0.824219,0.449219 -1.199219,0.601562 C 14.25,13.5 13.648438,13.648438 13.050781,13.726562 12.300781,13.875 11.625,13.949219 10.875,14.101562 9.824219,14.25 8.851562,14.324219 7.800781,14.550781 v -3.152343 c 0.074219,-0.07422 0.148438,-0.07422 0.222657,-0.07422 1.277343,-0.148438 2.550781,-0.375 3.828124,-0.523438 1.046876,-0.152343 2.171876,-0.375 3.222657,-0.675781 0.449219,-0.148438 0.824219,-0.300781 1.125,-0.675781 z M 7.875,18.75 H 7.800781 v -3.148438 c 0.074219,-0.07812 0.148438,-0.07812 0.222657,-0.07812 0.902343,-0.148438 1.726562,-0.222657 2.625,-0.375 1.5,-0.222657 2.925781,-0.375 4.351562,-0.824219 0.449219,-0.148438 0.898438,-0.300781 1.199219,-0.675781 v 3.152343 c -0.07422,0.148438 -0.222657,0.222657 -0.375,0.375 -0.449219,0.222657 -0.898438,0.375 -1.425781,0.523438 -0.898438,0.226562 -1.875,0.375 -2.773438,0.527343 -0.976562,0.148438 -1.949219,0.296876 -2.925781,0.375 -0.300781,0 -0.523438,0.07422 -0.824219,0.148438 z m 0,0"
       id="path2" />
  </g>
</svg>
