<?xml version="1.0" encoding="UTF-8" standalone="no"?>
<svg
   xmlns:dc="http://purl.org/dc/elements/1.1/"
   xmlns:cc="http://creativecommons.org/ns#"
   xmlns:rdf="http://www.w3.org/1999/02/22-rdf-syntax-ns#"
   xmlns:svg="http://www.w3.org/2000/svg"
   xmlns="http://www.w3.org/2000/svg"
   xmlns:sodipodi="http://sodipodi.sourceforge.net/DTD/sodipodi-0.dtd"
   xmlns:inkscape="http://www.inkscape.org/namespaces/inkscape"
   width="13.81967"
   height="13.81967"
   viewBox="0 0 13.81967 13.81967"
   version="1.1"
   id="svg7"
   sodipodi:docname="slim-symbolic.svg"
   inkscape:version="1.0.2 (e86c870879, 2021-01-15)">
  <metadata
     id="metadata13">
    <rdf:RDF>
      <cc:Work
         rdf:about="">
        <dc:format>image/svg+xml</dc:format>
        <dc:type
           rdf:resource="http://purl.org/dc/dcmitype/StillImage" />
      </cc:Work>
    </rdf:RDF>
  </metadata>
  <defs
     id="defs11" />
  <sodipodi:namedview
     pagecolor="#ffffff"
     bordercolor="#666666"
     borderopacity="1"
     objecttolerance="10"
     gridtolerance="10"
     guidetolerance="10"
     inkscape:pageopacity="0"
     inkscape:pageshadow="2"
     inkscape:window-width="2560"
     inkscape:window-height="1376"
     id="namedview9"
     showgrid="false"
     inkscape:zoom="42"
     inkscape:cx="6.9098347"
     inkscape:cy="6.8503109"
     inkscape:window-x="0"
     inkscape:window-y="0"
     inkscape:window-maximized="1"
     inkscape:current-layer="svg7" />
  <g
     id="surface1"
     transform="translate(-5.1272748,-5.0530558)">
    <path
       style="fill:#000000;fill-opacity:1;fill-rule:nonzero;stroke:none"
       d="M 5.25,16.800781 V 7.199219 C 5.25,7.125 5.324219,7.125 5.324219,7.050781 5.476562,6.523438 5.773438,6 6.300781,5.699219 L 7.199219,5.25 h 9.601562 C 16.875,5.25 16.875,5.324219 16.949219,5.324219 17.625,5.550781 18.148438,6 18.523438,6.601562 c 0.07812,0.222657 0.152343,0.375 0.300781,0.523438 v 9.601562 c 0,0.07422 -0.07422,0.07422 -0.07422,0.148438 -0.148438,0.523438 -0.449219,0.976562 -0.976562,1.351562 -0.296876,0.222657 -0.597657,0.375 -0.972657,0.449219 H 7.199219 C 7.125,18.675781 7.125,18.601562 7.050781,18.601562 6.375,18.375 5.851562,17.925781 5.476562,17.324219 5.398438,17.25 5.324219,17.023438 5.25,16.800781 Z m 2.101562,-7.875 C 8.023438,9.75 8.625,10.574219 9.300781,11.324219 9.375,11.398438 9.523438,11.476562 9.601562,11.476562 h 4.796876 c 0.07812,0 0.226562,-0.07812 0.300781,-0.07812 C 15.375,10.574219 15.976562,9.75 16.648438,9 14.398438,6.300781 9.824219,6.074219 7.351562,8.925781 Z m 0,0"
       id="path2" />
    <path
       style="fill:#000000;fill-opacity:1;fill-rule:nonzero;stroke:none"
       d="m 13.726562,7.800781 c -0.300781,0.972657 -0.453124,2.097657 -0.75,3.074219 h -1.425781 c 0.824219,-1.050781 1.5,-2.101562 2.175781,-3.074219 z m 0,0"
       id="path4" />
  </g>
</svg>
