<?xml version="1.0" encoding="UTF-8" standalone="no"?>
<svg
   xmlns:dc="http://purl.org/dc/elements/1.1/"
   xmlns:cc="http://creativecommons.org/ns#"
   xmlns:rdf="http://www.w3.org/1999/02/22-rdf-syntax-ns#"
   xmlns:svg="http://www.w3.org/2000/svg"
   xmlns="http://www.w3.org/2000/svg"
   xmlns:sodipodi="http://sodipodi.sourceforge.net/DTD/sodipodi-0.dtd"
   xmlns:inkscape="http://www.inkscape.org/namespaces/inkscape"
   width="15.245669"
   height="15.245669"
   viewBox="0 0 15.245669 15.245669"
   version="1.1"
   id="svg5"
   sodipodi:docname="swift-symbolic.svg"
   inkscape:version="1.0.2 (e86c870879, 2021-01-15)">
  <metadata
     id="metadata11">
    <rdf:RDF>
      <cc:Work
         rdf:about="">
        <dc:format>image/svg+xml</dc:format>
        <dc:type
           rdf:resource="http://purl.org/dc/dcmitype/StillImage" />
      </cc:Work>
    </rdf:RDF>
  </metadata>
  <defs
     id="defs9" />
  <sodipodi:namedview
     pagecolor="#ffffff"
     bordercolor="#666666"
     borderopacity="1"
     objecttolerance="10"
     gridtolerance="10"
     guidetolerance="10"
     inkscape:pageopacity="0"
     inkscape:pageshadow="2"
     inkscape:window-width="2560"
     inkscape:window-height="1376"
     id="namedview7"
     showgrid="false"
     inkscape:zoom="42"
     inkscape:cx="7.6228345"
     inkscape:cy="7.5633107"
     inkscape:window-x="0"
     inkscape:window-y="0"
     inkscape:window-maximized="1"
     inkscape:current-layer="svg5" />
  <g
     id="surface1"
     transform="translate(-4.3771655,-3.590056)">
    <path
       style="fill:#000000;fill-opacity:1;fill-rule:nonzero;stroke:none"
       d="M 7.199219,8.25 C 7.199219,8.175781 7.125,8.175781 7.125,8.101562 6.976562,7.875 6.75,7.648438 6.601562,7.425781 6.300781,7.125 6.074219,6.898438 5.925781,6.601562 6.148438,6.824219 6.449219,7.050781 6.675781,7.199219 6.824219,7.273438 6.898438,7.425781 7.050781,7.5 7.351562,7.726562 7.574219,7.949219 7.875,8.175781 c 0.300781,0.300781 0.675781,0.523438 0.976562,0.75 0.375,0.300781 0.75,0.597657 1.125,0.824219 0.597657,0.449219 1.199219,0.824219 1.796876,1.273438 v -0.07422 C 11.324219,10.425781 10.875,9.898438 10.351562,9.375 10.050781,9 9.75,8.625 9.449219,8.324219 9.226562,8.023438 8.925781,7.648438 8.699219,7.351562 8.699219,7.273438 8.625,7.273438 8.625,7.199219 L 7.949219,6.300781 C 7.875,6.148438 7.726562,6 7.648438,5.773438 8.023438,6.074219 8.324219,6.449219 8.699219,6.75 9.074219,7.125 9.523438,7.5 9.898438,7.875 10.199219,8.101562 10.5,8.398438 10.800781,8.625 l 0.898438,0.675781 c 0.226562,0.148438 0.375,0.300781 0.601562,0.449219 0.824219,0.601562 1.648438,1.199219 2.550781,1.800781 C 14.925781,11.625 15,11.625 15,11.476562 c 0.300781,-0.75 0.375,-1.5 0.375,-2.328124 C 15.375,8.476562 15.226562,7.726562 15,7.125 15,6.976562 14.925781,6.75 14.851562,6.523438 14.699219,6.226562 14.550781,5.851562 14.324219,5.550781 14.25,5.25 14.023438,4.949219 13.800781,4.726562 c 0,-0.078124 -0.07422,-0.078124 -0.07422,-0.152343 0.296876,0.152343 0.523438,0.300781 0.75,0.449219 1.125,0.828124 2.023438,1.800781 2.773438,2.925781 0.226562,0.449219 0.523438,0.976562 0.675781,1.425781 0.300781,0.75 0.523438,1.574219 0.523438,2.398438 v 0.07812 c 0,0.296876 0,0.671876 -0.07422,0.972657 -0.07422,0.300781 -0.07422,0.601562 -0.148438,0.902343 0,0.07422 0,0.148438 0.07422,0.222657 0.597657,0.75 0.972657,1.574219 1.125,2.476562 C 19.5,16.648438 19.5,16.875 19.5,17.175781 c 0,0.222657 0,0.375 -0.07422,0.597657 0,0.07812 0,0.07812 -0.07422,0.07812 -0.07812,0 -0.07812,-0.07812 -0.07812,-0.07812 -0.296876,-0.597657 -0.75,-1.046876 -1.421876,-1.125 -0.601562,-0.148438 -1.125,0 -1.652343,0.226562 -0.375,0.148438 -0.675781,0.375 -0.972657,0.449219 -1.050781,0.449219 -2.175781,0.601562 -3.300781,0.449219 -0.75,-0.07422 -1.5,-0.222657 -2.25,-0.523438 H 9.601562 C 9.148438,17.023438 8.699219,16.875 8.25,16.648438 6.75,15.824219 5.550781,14.699219 4.574219,13.273438 L 4.5,13.199219 c 0.074219,0 0.074219,0 0.148438,0.07422 0.226562,0.152343 0.453124,0.300781 0.75,0.453124 0.300781,0.148438 0.601562,0.375 0.902343,0.449219 0.375,0.222657 0.824219,0.375 1.273438,0.449219 0.074219,0.07422 0.074219,0 0.152343,0.07422 C 8.476562,14.925781 9.300781,15 10.125,15 11.101562,14.92578 12,14.699219 12.824219,14.25 c 0.152343,-0.07422 0.152343,-0.07422 0,-0.148438 -0.523438,-0.375 -0.972657,-0.828124 -1.5,-1.277343 -0.375,-0.300781 -0.675781,-0.675781 -1.050781,-0.972657 C 9.976562,11.625 9.75,11.324219 9.523438,11.023438 9.375,10.800781 9.148438,10.648438 9,10.425781 8.699219,10.125 8.398438,9.75 8.101562,9.449219 7.875,9.148438 7.648438,8.925781 7.425781,8.625 7.425781,8.476562 7.273438,8.324219 7.199219,8.25 Z m 0,0"
       id="path2" />
  </g>
</svg>
