<?xml version="1.0" encoding="UTF-8" standalone="no"?>
<svg
   xmlns:dc="http://purl.org/dc/elements/1.1/"
   xmlns:cc="http://creativecommons.org/ns#"
   xmlns:rdf="http://www.w3.org/1999/02/22-rdf-syntax-ns#"
   xmlns:svg="http://www.w3.org/2000/svg"
   xmlns="http://www.w3.org/2000/svg"
   xmlns:sodipodi="http://sodipodi.sourceforge.net/DTD/sodipodi-0.dtd"
   xmlns:inkscape="http://www.inkscape.org/namespaces/inkscape"
   width="17.495668"
   height="17.495668"
   viewBox="0 0 17.495668 17.495668"
   version="1.1"
   id="svg9"
   sodipodi:docname="tex-symbolic.svg"
   inkscape:version="1.0.2 (e86c870879, 2021-01-15)">
  <metadata
     id="metadata15">
    <rdf:RDF>
      <cc:Work
         rdf:about="">
        <dc:format>image/svg+xml</dc:format>
        <dc:type
           rdf:resource="http://purl.org/dc/dcmitype/StillImage" />
      </cc:Work>
    </rdf:RDF>
  </metadata>
  <defs
     id="defs13" />
  <sodipodi:namedview
     pagecolor="#ffffff"
     bordercolor="#666666"
     borderopacity="1"
     objecttolerance="10"
     gridtolerance="10"
     guidetolerance="10"
     inkscape:pageopacity="0"
     inkscape:pageshadow="2"
     inkscape:window-width="2560"
     inkscape:window-height="1376"
     id="namedview11"
     showgrid="false"
     inkscape:zoom="42"
     inkscape:cx="8.7478345"
     inkscape:cy="8.6883107"
     inkscape:window-x="0"
     inkscape:window-y="0"
     inkscape:window-maximized="1"
     inkscape:current-layer="svg9" />
  <g
     id="surface1"
     transform="translate(-3.2521655,-3.175994)">
    <path
       style="fill:#000000;fill-opacity:1;fill-rule:nonzero;stroke:none"
       d="M 5.925781,13.125 H 4.875 v 0.976562 H 8.175781 V 13.125 H 7.199219 V 8.25 H 7.5 C 8.398438,8.25 8.550781,8.324219 8.699219,9 H 9.601562 L 9.449219,7.273438 H 3.601562 L 3.375,9.976562 h 0.898438 v -0.375 C 4.425781,8.324219 4.5,8.25 5.625,8.25 h 0.300781 z m 0,0"
       id="path2" />
    <path
       style="fill:#000000;fill-opacity:1;fill-rule:nonzero;stroke:none"
       d="m 11.851562,15.824219 h -1.277343 v -2.097657 h 0.449219 c 0.527343,0 0.527343,0 0.527343,0.671876 v 0.375 h 0.898438 v -3.074219 h -0.898438 v 0.375 c 0,0.675781 0,0.675781 -0.527343,0.675781 h -0.449219 v -1.800781 h 1.199219 c 1.125,0 1.203124,0.300781 1.277343,1.351562 h 0.898438 L 13.726562,9.898438 h -5.25 V 10.875 h 0.75 v 4.800781 h -0.75 v 0.972657 h 5.324219 l 0.300781,-1.949219 H 13.125 c 0,0.824219 -0.300781,1.125 -1.273438,1.125 z m 0,0"
       id="path4" />
    <path
       style="fill:#000000;fill-opacity:1;fill-rule:nonzero;stroke:none"
       d="m 16.273438,13.199219 h -0.375 l 1.125,-1.648438 1.125,1.648438 h -0.222657 v 0.824219 H 20.625 V 13.125 H 20.25 c -0.449219,0 -0.449219,0 -0.523438,-0.148438 l -1.800781,-2.625 L 19.125,8.625 c 0.148438,-0.148438 0.300781,-0.449219 0.824219,-0.449219 h 0.375 V 7.199219 H 18 v 0.902343 h 0.375 L 18.300781,8.175781 17.398438,9.449219 16.425781,8.25 h 0.222657 V 7.199219 H 13.949219 V 8.25 h 0.375 c 0.449219,0 0.449219,0 0.527343,0.148438 L 16.425781,10.726562 15.074219,12.75 14.851562,12.976562 C 14.699219,13.125 14.476562,13.199219 14.25,13.199219 h -0.375 v 0.902343 h 2.398438 z m 0,0"
       id="path6" />
  </g>
</svg>
