<?xml version="1.0" encoding="UTF-8" standalone="no"?>
<svg
   xmlns:dc="http://purl.org/dc/elements/1.1/"
   xmlns:cc="http://creativecommons.org/ns#"
   xmlns:rdf="http://www.w3.org/1999/02/22-rdf-syntax-ns#"
   xmlns:svg="http://www.w3.org/2000/svg"
   xmlns="http://www.w3.org/2000/svg"
   xmlns:sodipodi="http://sodipodi.sourceforge.net/DTD/sodipodi-0.dtd"
   xmlns:inkscape="http://www.inkscape.org/namespaces/inkscape"
   width="14.792669"
   height="14.792669"
   viewBox="0 0 14.792669 14.792669"
   version="1.1"
   id="svg5"
   sodipodi:docname="ts-symbolic.svg"
   inkscape:version="1.0.2 (e86c870879, 2021-01-15)">
  <metadata
     id="metadata11">
    <rdf:RDF>
      <cc:Work
         rdf:about="">
        <dc:format>image/svg+xml</dc:format>
        <dc:type
           rdf:resource="http://purl.org/dc/dcmitype/StillImage" />
      </cc:Work>
    </rdf:RDF>
  </metadata>
  <defs
     id="defs9" />
  <sodipodi:namedview
     pagecolor="#ffffff"
     bordercolor="#666666"
     borderopacity="1"
     objecttolerance="10"
     gridtolerance="10"
     guidetolerance="10"
     inkscape:pageopacity="0"
     inkscape:pageshadow="2"
     inkscape:window-width="2560"
     inkscape:window-height="1376"
     id="namedview7"
     showgrid="false"
     inkscape:zoom="42"
     inkscape:cx="7.3963345"
     inkscape:cy="7.3368107"
     inkscape:window-x="0"
     inkscape:window-y="0"
     inkscape:window-maximized="1"
     inkscape:current-layer="svg5" />
  <g
     id="surface1"
     transform="translate(-4.6036655,-4.640775)">
    <path
       style="fill:#5199b8;fill-opacity:1;fill-rule:nonzero;stroke:none"
       d="M 11.699219,8.851562 H 9.148438 V 16.5 h -1.875 V 8.851562 H 4.726562 V 7.5 H 11.625 v 1.351562 z m 5.777343,5.324219 c 0,-0.375 -0.152343,-0.601562 -0.375,-0.824219 C 16.875,13.125 16.425781,12.976562 15.824219,12.75 c -1.050781,-0.300781 -1.875,-0.675781 -2.472657,-1.125 -0.527343,-0.449219 -0.828124,-0.976562 -0.828124,-1.726562 0,-0.75 0.300781,-1.347657 0.976562,-1.796876 0.601562,-0.453124 1.425781,-0.675781 2.398438,-0.675781 0.976562,0 1.800781,0.300781 2.402343,0.824219 0.597657,0.523438 0.898438,1.199219 0.898438,1.949219 h -1.722657 c 0,-0.449219 -0.152343,-0.75 -0.453124,-1.050781 -0.296876,-0.222657 -0.671876,-0.375 -1.199219,-0.375 -0.449219,0 -0.824219,0.078124 -1.125,0.300781 -0.300781,0.226562 -0.375,0.527343 -0.375,0.824219 0,0.300781 0.152343,0.527343 0.449219,0.75 0.300781,0.226562 0.75,0.375 1.5,0.601562 0.976562,0.300781 1.726562,0.675781 2.25,1.125 0.527343,0.449219 0.75,1.050781 0.75,1.800781 0,0.75 -0.296876,1.425781 -0.898438,1.800781 -0.601562,0.449219 -1.425781,0.671876 -2.398438,0.671876 -0.976562,0 -1.875,-0.222657 -2.550781,-0.75 C 12.75,15.375 12.300781,14.699219 12.375,13.726562 h 1.800781 c 0,0.523438 0.148438,0.898438 0.523438,1.199219 0.300781,0.222657 0.824219,0.375 1.351562,0.375 0.523438,0 0.898438,-0.07422 1.125,-0.300781 0.148438,-0.226562 0.300781,-0.523438 0.300781,-0.824219 z m 0,0"
       id="path2" />
  </g>
</svg>
