<?xml version="1.0" encoding="UTF-8" standalone="no"?>
<svg
   xmlns:dc="http://purl.org/dc/elements/1.1/"
   xmlns:cc="http://creativecommons.org/ns#"
   xmlns:rdf="http://www.w3.org/1999/02/22-rdf-syntax-ns#"
   xmlns:svg="http://www.w3.org/2000/svg"
   xmlns="http://www.w3.org/2000/svg"
   xmlns:sodipodi="http://sodipodi.sourceforge.net/DTD/sodipodi-0.dtd"
   xmlns:inkscape="http://www.inkscape.org/namespaces/inkscape"
   width="14.527669"
   height="14.527669"
   viewBox="0 0 14.527669 14.527669"
   version="1.1"
   id="svg417"
   sodipodi:docname="twig-symbolic.svg"
   inkscape:version="1.0.2 (e86c870879, 2021-01-15)">
  <metadata
     id="metadata423">
    <rdf:RDF>
      <cc:Work
         rdf:about="">
        <dc:format>image/svg+xml</dc:format>
        <dc:type
           rdf:resource="http://purl.org/dc/dcmitype/StillImage" />
      </cc:Work>
    </rdf:RDF>
  </metadata>
  <defs
     id="defs421" />
  <sodipodi:namedview
     pagecolor="#ffffff"
     bordercolor="#666666"
     borderopacity="1"
     objecttolerance="10"
     gridtolerance="10"
     guidetolerance="10"
     inkscape:pageopacity="0"
     inkscape:pageshadow="2"
     inkscape:window-width="2560"
     inkscape:window-height="1376"
     id="namedview419"
     showgrid="false"
     inkscape:zoom="42"
     inkscape:cx="7.2638343"
     inkscape:cy="7.2043105"
     inkscape:window-x="0"
     inkscape:window-y="0"
     inkscape:window-maximized="1"
     inkscape:current-layer="svg417" />
  <g
     id="surface1"
     transform="translate(-4.7361657,-4.7356775)">
    <path
       style="fill:#d4e3a1;fill-opacity:1;fill-rule:nonzero;stroke:none"
       d="m 15.378906,4.859375 c 0.08984,0 0.183594,-0.00391 0.277344,0.00391 v 0.019531 c -0.09375,0 -0.1875,0 -0.277344,0 z m 0,0"
       id="path2" />
    <path
       style="fill:#b0ca51;fill-opacity:1;fill-rule:nonzero;stroke:none"
       d="M 14.609375,5.222656 C 14.832031,5.058594 15.09375,4.902344 15.378906,4.882812 h 0.277344 c 0.03125,0.00781 0.105469,-0.023437 0.105469,0.019532 -0.07031,0 -0.136719,0 -0.207031,0.00391 -0.285157,-0.015625 -0.535157,0.15625 -0.75,0.316406 z m 0,0"
       id="path4" />
    <path
       style="fill:#aebf28;fill-opacity:1;fill-rule:nonzero;stroke:none"
       d="m 14.804688,5.222656 c 0.214843,-0.160156 0.464843,-0.332031 0.75,-0.316406 -0.191407,0.058594 -0.382813,0.140625 -0.535157,0.277344 -0.132812,0.101562 -0.238281,0.226562 -0.359375,0.34375 -0.07422,-0.015625 -0.148437,0.00391 -0.203125,0.054687 0.09766,-0.136719 0.21875,-0.253906 0.347657,-0.359375 z m 0,0"
       id="path6" />
    <path
       style="fill:#858c23;fill-opacity:1;fill-rule:nonzero;stroke:none"
       d="m 15.554688,4.90625 c 0.07031,-0.00391 0.136718,-0.00391 0.207031,-0.00391 0.3125,0.054687 0.570312,0.28125 0.769531,0.511718 L 16.51562,5.46484 C 16.304688,5.25 16.042969,5.070312 15.742188,5.019531 c -0.05469,-0.015625 -0.105469,-0.027343 -0.152344,0 -0.125,0.03125 -0.246094,0.074219 -0.359375,0.140625 -0.09375,0.050782 -0.160157,0.132813 -0.242188,0.195313 -0.06641,-0.058594 0,-0.113281 0.03125,-0.171875 0.152344,-0.136719 0.34375,-0.21875 0.535157,-0.277344 z m 0,0"
       id="path8" />
    <path
       style="fill:#b0b36e;fill-opacity:1;fill-rule:nonzero;stroke:none"
       d="m 15.589844,5.019531 c 0.04687,-0.027343 0.09766,-0.015625 0.152344,0 -0.04688,0.027344 -0.105469,0.027344 -0.152344,0 z m 0,0"
       id="path10" />
    <path
       style="fill:#8a991e;fill-opacity:1;fill-rule:nonzero;stroke:none"
       d="m 14.660156,5.527344 c 0.121094,-0.117188 0.226563,-0.242188 0.359375,-0.34375 -0.03125,0.058594 -0.09766,0.113281 -0.03125,0.171875 C 14.75,5.65625 14.570312,6.003906 14.390625,6.347656 c -0.02734,0.050782 -0.03125,0.121094 -0.07813,0.15625 0.0039,-0.035156 0.01563,-0.070312 0.01953,-0.105468 -0.07031,-0.00391 -0.140625,-0.00391 -0.210937,-0.00391 0,-0.011719 0.0039,-0.027343 0.0039,-0.039062 0.09375,-0.15625 0.183594,-0.316407 0.277344,-0.46875 0.07813,-0.125 0.179687,-0.234375 0.257812,-0.363281 z m 0,0"
       id="path12" />
    <path
       style="fill:#a8c54c;fill-opacity:1;fill-rule:nonzero;stroke:none"
       d="m 14.082031,5.71875 c 0.179688,-0.164062 0.328125,-0.359375 0.527344,-0.496094 0.06641,0 0.128906,0 0.195313,0 -0.128907,0.105469 -0.246094,0.226563 -0.347657,0.359375 -0.05859,0.058594 -0.105469,0.121094 -0.160156,0.179688 -0.0625,0.035156 -0.113281,-0.015625 -0.167969,-0.042969 -0.01953,0.027344 -0.03516,0.058594 -0.07422,0.0625 z m 0,0"
       id="path14" />
    <path
       style="fill:#9ca35c;fill-opacity:1;fill-rule:nonzero;stroke:none"
       d="m 16.53125,5.414062 c 0.03906,0.046876 0.07813,0.09375 0.105469,0.148438 L 16.625,5.585938 C 16.59375,5.542969 16.523438,5.511719 16.515625,5.464844 Z m 0,0"
       id="path16" />
    <path
       style="fill:#a3b823;fill-opacity:1;fill-rule:nonzero;stroke:none"
       d="m 14.457031,5.582031 c 0.05469,-0.050781 0.128907,-0.070312 0.203125,-0.054687 -0.08203,0.125 -0.179687,0.234375 -0.257812,0.359375 -0.03516,0.023437 -0.0625,0.046875 -0.09375,0.074219 C 14.265625,5.949219 14.226562,5.933594 14.1875,5.921875 l 0.109375,-0.160156 c 0.05469,-0.058594 0.101563,-0.121094 0.160156,-0.179688 z m 0,0"
       id="path18" />
    <path
       style="fill:#c5ca9e;fill-opacity:1;fill-rule:nonzero;stroke:none"
       d="m 16.636719,5.5625 c 0.04297,0.042969 0.07422,0.09375 0.08594,0.152344 -0.04297,-0.03125 -0.07813,-0.078125 -0.09766,-0.128906 z m 0,0"
       id="path20" />
    <path
       style="fill:#99bd47;fill-opacity:1;fill-rule:nonzero;stroke:none"
       d="m 14.128906,5.71875 c 0.05469,0.027344 0.105469,0.078125 0.167969,0.042969 L 14.1875,5.921875 c -0.152344,0.222656 -0.289062,0.449219 -0.414062,0.683594 -0.07813,0.148437 -0.152344,0.300781 -0.226563,0.453125 -0.101563,0 -0.199219,-0.015625 -0.296875,-0.023438 -0.03125,0.027344 -0.05469,0.0625 -0.08984,0.085938 0.21875,-0.433594 0.480469,-0.84375 0.78125,-1.222656 0.03516,-0.042969 0.0625,-0.097657 0.113282,-0.117188 0.03906,-0.00391 0.05469,-0.035156 0.07422,-0.0625 z m 0,0"
       id="path22" />
    <path
       style="fill:#99b321;fill-opacity:1;fill-rule:nonzero;stroke:none"
       d="m 14.308594,5.960938 c 0.03125,-0.027344 0.05859,-0.050782 0.09375,-0.074219 C 14.308594,6.039062 14.21875,6.199219 14.125,6.355469 14.09766,6.371094 14.07422,6.390625 14.05078,6.40625 14.01562,6.39844 13.98828,6.378906 13.95312,6.375 c -0.08594,0.050781 -0.07813,0.207031 -0.179687,0.230469 0.125,-0.234375 0.261718,-0.464844 0.414062,-0.683594 0.03906,0.011719 0.07813,0.027344 0.121094,0.039063 z m 0,0"
       id="path24" />
    <path
       style="fill:#94b01e;fill-opacity:1;fill-rule:nonzero;stroke:none"
       d="m 14.050781,6.40625 c 0.02344,-0.015625 0.04687,-0.035156 0.07422,-0.050781 l -0.0039,0.039062 c -0.167969,0.292969 -0.289063,0.613281 -0.417969,0.925781 -0.07422,0.21875 -0.179687,0.425782 -0.222656,0.652344 l -0.02344,0.058594 c -0.09375,0.074219 -0.08984,0.230469 -0.171875,0.324219 -0.121094,0.011719 -0.08594,-0.15625 -0.1875,-0.175781 0.01953,-0.070313 0.04687,-0.140626 0.0625,-0.210938 0.128906,-0.304688 0.25,-0.609375 0.386719,-0.910156 C 13.621094,6.90625 13.695312,6.753906 13.773438,6.605469 13.875,6.582031 13.867188,6.425781 13.953125,6.375 c 0.03516,0.00391 0.0625,0.023438 0.09766,0.03125 z m 0,0"
       id="path26" />
    <path
       style="fill:#82971c;fill-opacity:1;fill-rule:nonzero;stroke:none"
       d="m 14.121094,6.394531 c 0.07031,0 0.140625,0 0.210937,0.00391 -0.0039,0.035156 -0.01563,0.070312 -0.01953,0.105468 -0.21875,0.492188 -0.414062,0.992188 -0.578125,1.503906 H 13.71875 C 13.640625,8 13.558594,7.996094 13.480469,7.972656 c 0.04297,-0.226562 0.148437,-0.433594 0.222656,-0.652344 0.128906,-0.3125 0.25,-0.632812 0.417969,-0.925781 z m 0,0"
       id="path28" />
    <path
       style="fill:#97b847;fill-opacity:1;fill-rule:nonzero;stroke:none"
       d="M 13.160156,7.121094 C 13.195312,7.097656 13.21875,7.0625 13.25,7.035156 c 0.09766,0.00781 0.195312,0.023438 0.296875,0.023438 -0.136719,0.300781 -0.257813,0.605468 -0.386719,0.910156 -0.0625,0.023438 -0.03516,0.132812 -0.101562,0.132812 -0.05078,-0.070312 -0.113282,-0.144531 -0.117188,-0.234374 -0.04297,-0.00781 -0.08594,0 -0.09375,0.046874 -0.07422,0.097657 -0.05859,0.238282 -0.152344,0.320313 0.0078,-0.097656 0.05859,-0.183594 0.09375,-0.273437 0.109376,-0.285157 0.21875,-0.578126 0.371094,-0.839844 z m 0,0"
       id="path30" />
    <path
       style="fill:#91b545;fill-opacity:1;fill-rule:nonzero;stroke:none"
       d="m 12.847656,7.914062 c 0.0078,-0.046874 0.05078,-0.054687 0.09375,-0.046874 0.0039,0.09375 0.06641,0.164062 0.117188,0.234374 0.06641,0 0.03906,-0.109374 0.101562,-0.132812 -0.01563,0.070312 -0.04297,0.140625 -0.0625,0.210938 C 12.96875,8.542969 12.839844,8.914062 12.75,9.292969 c -0.105469,0.324219 -0.164062,0.664062 -0.25,0.996093 -0.05469,0.03125 -0.101562,0.07031 -0.164062,0.08203 -0.105469,0.05469 -0.203126,0.148437 -0.234376,0.269531 -0.0078,-0.03125 -0.0078,-0.07031 0,-0.105469 0.140626,-0.75 0.316407,-1.492187 0.554688,-2.21875 L 12.69922,8.234373 C 12.78906,8.152342 12.77344,8.011717 12.847657,7.91406 Z m 0,0"
       id="path32" />
    <path
       style="fill:#7d9419;fill-opacity:1;fill-rule:nonzero;stroke:none"
       d="M 13.480469,7.972656 C 13.558594,7.996094 13.640625,8 13.71875,8.007812 13.664062,8.035156 13.671875,8.09375 13.671875,8.144531 13.625,8.382812 13.53125,8.617188 13.46875,8.855469 c -0.08203,0.308593 -0.160156,0.621093 -0.234375,0.9375 -0.01563,0.019531 0.0078,0.082031 -0.03125,0.078125 -0.07031,0 -0.140625,-0.00781 -0.207031,-0.019532 -0.04687,0.046876 -0.08203,0.09375 -0.113282,0.148438 0.06641,-0.355469 0.183594,-0.703125 0.277344,-1.050781 0.08594,-0.308594 0.199219,-0.613281 0.296875,-0.917969 z m 0,0"
       id="path34" />
    <path
       style="fill:#8fa138;fill-opacity:1;fill-rule:nonzero;stroke:none"
       d="m 13.671875,8.144531 c 0,-0.050781 -0.0078,-0.113281 0.04687,-0.136719 -0.01172,0.042969 -0.0039,0.117188 -0.04687,0.136719 z m 0,0"
       id="path36" />
    <path
       style="fill:#8cab1c;fill-opacity:1;fill-rule:nonzero;stroke:none"
       d="m 13.285156,8.355469 c 0.08203,-0.09375 0.07813,-0.25 0.171875,-0.324219 -0.09766,0.304688 -0.210937,0.609375 -0.296875,0.917969 -0.04687,0.046875 -0.07813,0.105469 -0.113281,0.164062 -0.03906,0.00781 -0.07813,0.011719 -0.117187,0.00781 -0.03516,-0.035156 0.02344,-0.109375 -0.0625,-0.078125 -0.02734,0.085937 -0.04688,0.183593 -0.117188,0.25 0.08984,-0.378907 0.21875,-0.75 0.347656,-1.113281 0.101563,0.019531 0.06641,0.1875 0.1875,0.175781 z m 0,0"
       id="path38" />
    <path
       style="fill:#87a619;fill-opacity:1;fill-rule:nonzero;stroke:none"
       d="M 13.046875,9.113281 C 13.082031,9.054688 13.113281,8.996094 13.160156,8.949219 13.066406,9.296875 12.949219,9.644531 12.882812,10 c -0.04297,0.105469 -0.05078,0.222656 -0.08594,0.335938 -0.08203,0.125 -0.08984,0.285156 -0.152344,0.421874 -0.07031,0.01563 -0.152343,0.02344 -0.203125,0.07813 -0.01953,0.07812 -0.03516,0.15625 -0.06641,0.234374 0,-0.05469 0.0039,-0.109374 0.01563,-0.160156 C 12.40625,10.699219 12.492188,10.5 12.5,10.289062 c 0.08594,-0.332031 0.140625,-0.671874 0.25,-0.996093 0.07031,-0.066407 0.08984,-0.164063 0.117188,-0.25 0.08594,-0.03125 0.02734,0.042969 0.0625,0.078125 0.03906,0.00391 0.07812,0 0.117187,-0.00781 z m 0,0"
       id="path40" />
    <path
       style="fill:#758f19;fill-opacity:1;fill-rule:nonzero;stroke:none"
       d="m 12.996094,9.851562 c 0.06641,0.011719 0.136718,0.019532 0.207031,0.019532 -0.07813,0.496094 -0.199219,0.988281 -0.257813,1.488281 l -0.01953,0.0039 c -0.0078,-0.109375 0.01563,-0.214843 0.03516,-0.316406 -0.09766,-0.05469 -0.183594,0.04297 -0.28125,0.04687 -0.02734,0.01953 -0.03516,0.05078 -0.05078,0.08203 0.03125,-0.285156 0.125,-0.558593 0.167969,-0.839843 0.03516,-0.109376 0.04687,-0.230469 0.08594,-0.335938 0.03125,-0.054688 0.06641,-0.101562 0.113282,-0.148438 z m 0,0"
       id="path42" />
    <path
       style="fill:#8ab035;fill-opacity:1;fill-rule:nonzero;stroke:none"
       d="m 12.335938,10.371094 c 0.0625,-0.01172 0.109374,-0.05078 0.164062,-0.08203 -0.0078,0.210938 -0.09375,0.410157 -0.109375,0.621094 -0.109375,-0.01953 -0.222656,-0.01953 -0.335937,0 -0.01563,-0.09375 0.05078,-0.175781 0.04687,-0.269531 0.03125,-0.117187 0.128907,-0.214844 0.234376,-0.269531 z m 0,0"
       id="path44" />
    <path
       style="fill:#7fa119;fill-opacity:1;fill-rule:nonzero;stroke:none"
       d="m 12.644531,10.757812 c 0.0625,-0.136718 0.07031,-0.296874 0.152344,-0.421874 -0.04297,0.28125 -0.136719,0.554687 -0.167969,0.839843 0,0.03516 -0.0039,0.07031 -0.01172,0.105469 l -0.01172,-0.07031 c -0.03906,0.0078 -0.0078,0.07031 -0.03516,0.09375 -0.03906,0.07031 -0.125,0.01953 -0.1875,0.02344 -0.01562,0.03516 -0.03125,0.06641 -0.05078,0.101563 l -0.0039,-0.152344 c 0.01563,-0.07031 0.02344,-0.140625 0.04687,-0.207032 0.03125,-0.07812 0.04687,-0.15625 0.07031,-0.234374 0.04688,-0.05469 0.132813,-0.0625 0.199219,-0.07813 z m 0,0"
       id="path46" />
    <path
       style="fill:#85ab35;fill-opacity:1;fill-rule:nonzero;stroke:none"
       d="m 12.054688,10.910156 c 0.113281,-0.01563 0.226562,-0.02344 0.335937,0 -0.01172,0.05078 -0.01563,0.105469 -0.01563,0.160156 -0.02344,0.06641 -0.03125,0.136719 -0.04687,0.207032 -0.09375,0.03125 -0.195313,-0.01172 -0.289063,0.02734 -0.05078,0.03125 -0.05469,0.09375 -0.07031,0.144531 0,-0.183594 0.03125,-0.363281 0.08594,-0.539063 z m 0,0"
       id="path48" />
    <path
       style="fill:#6b8a14;fill-opacity:1;fill-rule:nonzero;stroke:none"
       d="m 12.679688,11.09375 c 0.09766,-0.0039 0.183593,-0.101562 0.28125,-0.04687 -0.01953,0.101563 -0.04297,0.207031 -0.03516,0.316406 -0.0078,0.148438 -0.02734,0.296875 -0.04687,0.445313 l -0.02344,0.0039 c 0.01563,-0.05469 0,-0.113281 -0.03906,-0.152344 h -0.226562 c -0.03516,0.05469 -0.03906,0.117188 -0.07031,0.171875 0.0039,-0.07422 0.02344,-0.144531 0.01953,-0.21875 0.03125,-0.109375 0.05469,-0.222656 0.07813,-0.332031 0.0078,-0.03516 0.01172,-0.07031 0.01172,-0.105469 0.01563,-0.03125 0.02344,-0.0625 0.05078,-0.08594 z m 0,0"
       id="path50" />
    <path
       style="fill:#789c17;fill-opacity:1;fill-rule:nonzero;stroke:none"
       d="m 12.570312,11.304688 c 0.02734,-0.02344 -0.0039,-0.08594 0.03906,-0.09375 l 0.0078,0.07031 c -0.02344,0.109375 -0.04688,0.222656 -0.07813,0.332031 -0.02734,0.04687 -0.04297,0.101563 -0.06641,0.152344 -0.04687,-0.01172 -0.08984,-0.03125 -0.140625,-0.03906 -0.02734,0.03906 -0.04297,0.08594 -0.0625,0.128907 0,-0.05078 0.0039,-0.09766 0.0039,-0.148438 0.02344,-0.08984 0.01562,-0.195312 0.05859,-0.277343 0.01953,-0.03516 0.03516,-0.06641 0.05078,-0.101563 0.0625,-0.0039 0.148438,0.04687 0.1875,-0.02344 z m 0,0"
       id="path52" />
    <path
       style="fill:#7da633;fill-opacity:1;fill-rule:nonzero;stroke:none"
       d="m 12.039062,11.304688 c 0.09375,-0.03906 0.195313,0.0039 0.289063,-0.02734 l 0.0039,0.152344 c -0.04297,0.08203 -0.03516,0.1875 -0.05859,0.277343 -0.07422,0.07422 -0.1875,0.0039 -0.28125,0.0039 -0.03516,0.05469 -0.05469,0.113281 -0.08203,0.167968 -0.0078,-0.144531 0.01172,-0.289062 0.05859,-0.429687 0.01563,-0.05078 0.01953,-0.113281 0.07031,-0.144531 z m 0,0"
       id="path54" />
    <path
       style="fill:#b5c22b;fill-opacity:1;fill-rule:nonzero;stroke:none"
       d="m 14.398438,11.40625 c 0.0625,-0.03125 0.117187,-0.09375 0.195312,-0.08594 -0.714844,0.765626 -1.0625,1.796876 -1.246094,2.808594 l -0.01563,-0.0039 c -0.07031,-0.01953 -0.144531,-0.03516 -0.214843,-0.03906 0.167968,-0.707032 0.335937,-1.4375 0.730468,-2.058594 0.02734,-0.04297 0.07813,-0.08594 0.04687,-0.140625 0,-0.03906 0.04297,-0.07422 0.07031,-0.105469 0.136718,-0.132812 0.265625,-0.28125 0.433594,-0.375 z m 0,0"
       id="path56" />
    <path
       style="fill:#6e9714;fill-opacity:1;fill-rule:nonzero;stroke:none"
       d="m 12.472656,11.765625 c 0.02344,-0.05078 0.03906,-0.105469 0.06641,-0.152344 0.0039,0.07422 -0.01172,0.144531 -0.01562,0.21875 -0.04297,0.08594 -0.0625,0.179688 -0.09375,0.273438 -0.04688,-0.0078 -0.09375,-0.02344 -0.140626,-0.03516 -0.03125,0.05078 -0.03906,0.113282 -0.0625,0.167969 l -0.0078,-0.02734 c 0.01172,-0.117188 0.02734,-0.238282 0.05078,-0.355469 0.01953,-0.04297 0.03516,-0.08984 0.0625,-0.128907 0.05078,0.0078 0.09375,0.02734 0.140625,0.03906 z m 0,0"
       id="path58" />
    <path
       style="fill:#617f11;fill-opacity:1;fill-rule:nonzero;stroke:none"
       d="m 12.589844,11.660156 h 0.226562 c 0.03906,0.03906 0.05469,0.09766 0.03906,0.152344 -0.01953,0.04297 -0.02344,0.09375 -0.01563,0.140625 0.01172,0.1875 -0.04687,0.371094 -0.04297,0.558594 h -0.01953 c -0.01563,-0.07031 0.03906,-0.183594 -0.05078,-0.226563 -0.07422,0.02344 -0.234374,-0.09375 -0.242187,0.04297 l -0.02344,-0.0078 -0.0078,-0.08984 c 0.01953,-0.132813 0.07031,-0.261719 0.07031,-0.398438 0.02734,-0.05469 0.03125,-0.117187 0.06641,-0.171875 z m 0,0"
       id="path60" />
    <path
       style="fill:#709e30;fill-opacity:1;fill-rule:nonzero;stroke:none"
       d="m 11.992188,11.710938 c 0.09375,0 0.207031,0.07031 0.28125,-0.0039 0,0.05078 -0.0039,0.09766 -0.0039,0.148438 -0.02344,0.117187 -0.03906,0.238281 -0.05078,0.355469 -0.01172,0.04297 -0.02734,0.08594 -0.04297,0.128906 -0.101562,0.03906 -0.246093,-0.105469 -0.304687,0.03125 -0.0039,0.07813 -0.01953,0.15625 -0.04687,0.234375 -0.0078,-0.167969 0.02734,-0.339844 0.04687,-0.503907 0.0039,-0.07422 0.01172,-0.152343 0.03906,-0.222656 0.02734,-0.05469 0.04687,-0.113281 0.08203,-0.167968 z m 0,0"
       id="path62" />
    <path
       style="fill:#859c45;fill-opacity:1;fill-rule:nonzero;stroke:none"
       d="m 12.839844,11.953125 c -0.0078,-0.04687 -0.0039,-0.09766 0.01563,-0.140625 0.01563,0.03906 0.03516,0.128906 -0.01563,0.140625 z m 0,0"
       id="path64" />
    <path
       style="fill:#638f11;fill-opacity:1;fill-rule:nonzero;stroke:none"
       d="m 12.429688,12.105469 c 0.03125,-0.09375 0.05078,-0.1875 0.09375,-0.273438 0,0.136719 -0.05078,0.265625 -0.07031,0.398438 -0.01953,0.0625 -0.04297,0.125 -0.06641,0.191406 -0.03906,-0.01172 -0.07813,-0.02344 -0.117188,-0.03125 -0.03906,0.03125 -0.05078,0.08203 -0.0625,0.125 0.0039,-0.09375 0.01172,-0.183594 0.01953,-0.277344 0.02344,-0.05469 0.03125,-0.117187 0.0625,-0.167969 0.04688,0.01172 0.09375,0.02734 0.140626,0.03516 z m 0,0"
       id="path66" />
    <path
       style="fill:#bdcc2e;fill-opacity:1;fill-rule:nonzero;stroke:none"
       d="m 13.671875,12.171875 c 0.07031,-0.09375 0.125,-0.21875 0.222656,-0.285156 0.03125,0.05469 -0.02344,0.09766 -0.04687,0.140625 -0.394531,0.621094 -0.5625,1.351562 -0.730468,2.058594 -0.08203,0.15625 -0.07031,0.347656 -0.109376,0.515624 -0.08203,0.0039 -0.117187,-0.09766 -0.171874,-0.144531 -0.03906,-0.01172 -0.07813,0.0078 -0.117188,0.01563 0.05078,-0.300781 0.167969,-0.589844 0.265625,-0.878906 0.183594,-0.496094 0.390625,-0.984375 0.6875,-1.421875 z m 0,0"
       id="path68" />
    <path
       style="fill:#619428;fill-opacity:1;fill-rule:nonzero;stroke:none"
       d="m 12.175781,12.339844 c 0.01563,-0.04297 0.02734,-0.08594 0.04297,-0.125 l 0.0078,0.02344 c -0.0078,0.09375 -0.01562,0.183594 -0.01953,0.277344 -0.02344,0.179687 -0.03125,0.355469 -0.04297,0.535156 -0.01172,0.316407 -0.04297,0.632813 -0.05078,0.949219 -0.03125,0.222656 -0.01563,0.445312 -0.01172,0.671875 -0.01172,0.261719 -0.0039,0.523437 -0.0078,0.789063 l -0.03125,-0.01563 c -0.101562,-0.167968 -0.160156,-0.359374 -0.273438,-0.515624 -0.04297,-0.02344 -0.128906,-0.09766 -0.04687,0.07031 0.05469,0.3125 0.203124,0.605469 0.203124,0.929688 -0.01172,-0.04688 -0.02344,-0.09375 -0.03516,-0.140626 -0.05078,-0.246093 -0.121094,-0.488281 -0.214844,-0.722656 -0.01562,-0.04687 -0.03125,-0.08984 -0.04687,-0.136718 0.01172,-0.06641 0.02344,-0.132813 0.02344,-0.199219 0,-0.04297 0,-0.08203 0.0039,-0.125 0.01172,-0.101563 0.01953,-0.203125 0.01563,-0.304688 0,-0.04687 0,-0.09375 0,-0.144531 -0.01172,-0.132812 0.01563,-0.269531 0.02734,-0.402344 l 0.01953,-0.175781 0.0039,-0.02344 c 0.01562,-0.04688 0.01953,-0.09766 0.01172,-0.144532 v -0.148437 c 0,-0.140625 0.01563,-0.285157 0.05078,-0.421875 0.0078,-0.06641 0.01562,-0.132813 0.01562,-0.199219 l 0.0039,-0.03516 c 0.02734,-0.07422 0.04297,-0.15625 0.04687,-0.234375 0.05859,-0.136719 0.203125,0.0039 0.304687,-0.03125 z m 0,0"
       id="path70" />
    <path
       style="fill:#5c8a0f;fill-opacity:1;fill-rule:nonzero;stroke:none"
       d="m 12.386719,12.421875 c 0.02344,-0.06641 0.04687,-0.128906 0.06641,-0.191406 l 0.0078,0.08984 c -0.04297,0.171876 -0.05859,0.34375 -0.113282,0.511719 -0.04297,-0.0039 -0.07813,-0.01563 -0.117187,-0.01953 -0.01172,0.08203 -0.03906,0.160156 -0.06641,0.238281 0.01172,-0.179687 0.01953,-0.355469 0.04297,-0.535156 0.01172,-0.04297 0.02344,-0.09375 0.0625,-0.125 0.03906,0.0078 0.07813,0.01953 0.117188,0.03125 z m 0,0"
       id="path72" />
    <path
       style="fill:#4c750c;fill-opacity:1;fill-rule:nonzero;stroke:none"
       d="m 12.484375,12.328125 c 0.0078,-0.136719 0.167969,-0.01953 0.242187,-0.04297 0.08984,0.04297 0.03516,0.15625 0.05078,0.226563 0.0039,0.179687 -0.01172,0.355469 -0.04687,0.527343 -0.01172,0.05859 -0.01563,0.113282 -0.02344,0.171876 -0.01172,0.07422 -0.01563,0.144531 -0.01563,0.21875 0,0.05859 0,0.113281 0,0.171874 0.0039,0.05469 0,0.109376 -0.0039,0.164063 -0.0078,0.05469 -0.01563,0.113281 -0.02344,0.171875 -0.01172,0.08594 -0.01562,0.171875 -0.01172,0.261719 l -0.0039,0.144531 v 0.01563 c -0.0078,0.140625 -0.03516,0.277344 -0.03516,0.417969 -0.01563,0.08203 -0.05078,0.160156 -0.05078,0.246094 -0.05078,0 -0.03906,0.05078 -0.04297,0.08594 -0.03906,0.03516 -0.07422,0.07031 -0.101562,0.113281 0.02344,-0.25 -0.02344,-0.5 -0.02734,-0.75 -0.0625,-0.519531 -0.01172,-1.039062 0,-1.558594 0.01953,-0.199218 0.05469,-0.390624 0.09375,-0.585937 z m 0,0"
       id="path74" />
    <path
       style="fill:#51850c;fill-opacity:1;fill-rule:nonzero;stroke:none"
       d="m 12.460938,12.320312 0.02344,0.0078 c -0.03906,0.195313 -0.07422,0.386719 -0.09375,0.585937 -0.07422,0.59375 -0.08203,1.195313 -0.02344,1.796876 -0.04688,0.308593 -0.144532,0.605468 -0.207032,0.914062 -0.0039,0.02734 -0.04297,0.03516 -0.0625,0.04687 0,-0.07031 0,-0.140625 -0.0039,-0.210937 0.0039,-0.265626 -0.0039,-0.527344 0.0078,-0.789063 0.03125,-0.222656 0.01172,-0.449219 0.01172,-0.671875 0.0078,-0.316406 0.03516,-0.632812 0.05078,-0.949219 0.02734,-0.07813 0.05469,-0.15625 0.06641,-0.238281 0.03906,0.0039 0.07422,0.01563 0.117187,0.01953 0.05469,-0.167969 0.07031,-0.339843 0.113282,-0.511719 z m 0,0"
       id="path76" />
    <path
       style="fill:#c7d99e;fill-opacity:1;fill-rule:nonzero;stroke:none"
       d="m 8.023438,12.40625 c 0.035156,0.0078 0.03125,0.07031 0.035156,0.101562 L 8.046875,12.640625 H 8.023438 Z m 0,0"
       id="path78" />
    <path
       style="fill:#b0d130;fill-opacity:1;fill-rule:nonzero;stroke:none"
       d="m 8.046875,12.640625 0.011719,-0.132813 c 0.050781,0.195313 0.082031,0.398438 0.125,0.59375 0.011718,0.02734 0.011718,0.05859 0.00391,0.08984 -0.054688,0.285156 0.121094,0.601563 -0.015625,0.878906 -0.019531,-0.01562 -0.042969,-0.03125 -0.0625,-0.04687 v -0.0625 c 0,-0.06641 0.00781,-0.132813 -0.015625,-0.195313 -0.00391,-0.05469 -0.00391,-0.113281 -0.00781,-0.167969 l 0.00391,-0.144531 c 0.0078,-0.05078 0.0039,-0.105469 -0.011729,-0.152344 C 8.066406,13.246094 8.0625,13.1875 8.066406,13.132812 c 0,-0.08984 0.00391,-0.179687 -0.011718,-0.265624 -0.00781,-0.07422 -0.011719,-0.152344 -0.00781,-0.226563 z m 0,0"
       id="path80" />
    <path
       style="fill:#97b870;fill-opacity:1;fill-rule:nonzero;stroke:none"
       d="m 11.804688,12.839844 c 0.01172,-0.05469 -0.03906,-0.179688 0.01562,-0.199219 0,0.06641 -0.0078,0.132813 -0.01562,0.199219 z m 0,0"
       id="path82" />
    <path
       style="fill:#ccdea8;fill-opacity:1;fill-rule:nonzero;stroke:none"
       d="m 8.054688,12.871094 c 0.015624,0.08203 0.011718,0.171875 0.011718,0.261718 H 8.046875 c -0.00781,-0.08984 -0.00391,-0.175781 0.00781,-0.261718 z m 0,0"
       id="path84" />
    <path
       style="fill:#4f7d0c;fill-opacity:1;fill-rule:nonzero;stroke:none"
       d="m 12.367188,14.710938 c -0.05859,-0.601563 -0.05078,-1.203126 0.02344,-1.796876 -0.01172,0.519532 -0.0625,1.042969 0,1.558594 0.0039,0.25 0.05078,0.5 0.02734,0.75 0.02734,-0.04297 0.0625,-0.07813 0.101562,-0.113281 l 0.0078,0.05078 c -0.04297,0.195313 -0.08594,0.390625 -0.121094,0.585938 -0.0078,0.03906 -0.01563,0.07422 -0.01953,0.109375 l -0.01953,0.136719 -0.01563,-0.0039 c -0.01953,-0.01563 -0.03125,-0.05469 -0.0625,-0.03906 -0.0625,0.02734 -0.148437,0.01953 -0.191406,0.08203 0,-0.08203 -0.0039,-0.160156 -0.0039,-0.242188 l 0.0039,-0.117187 c 0.01953,-0.01172 0.05859,-0.01563 0.0625,-0.04687 0.0625,-0.308594 0.160156,-0.605469 0.207032,-0.914062 z m 0,0"
       id="path86" />
    <path
       style="fill:#7f9c51;fill-opacity:1;fill-rule:nonzero;stroke:none"
       d="m 12.707031,13.210938 c 0.0078,-0.05859 0.01172,-0.113282 0.02344,-0.171876 0.0078,0.05859 0.0078,0.121094 0,0.179688 z m 0,0"
       id="path88" />
    <path
       style="fill:#a8d438;fill-opacity:1;fill-rule:nonzero;stroke:none"
       d="m 9.402344,13.226562 c -0.0625,0.0625 -0.242188,-0.148437 -0.015625,-0.05469 0.277343,-0.01563 0.550781,0.02734 0.808593,0.113281 l 0.0078,0.01953 c -0.05469,0.05859 -0.113281,0.117187 -0.171875,0.171874 -0.207031,-0.08984 -0.402344,-0.21875 -0.628906,-0.25 z m 0,0"
       id="path90" />
    <path
       style="fill:#a3cc2e;fill-opacity:1;fill-rule:nonzero;stroke:none"
       d="M 8.171875,14.070312 C 8.308594,13.792969 8.132812,13.476562 8.1875,13.191406 8.242188,13.367188 8.265625,13.5625 8.300781,13.75 8.242188,13.69531 8.203125,13.80859 8.242188,13.855469 c 0.03125,0.199219 0,0.394531 -0.00781,0.59375 -0.011719,0.03125 -0.027344,0.0625 -0.042969,0.08984 -0.050781,-0.02344 -0.0625,-0.08203 -0.078125,-0.132812 l -0.00391,-0.05859 v -0.324218 z m 0,0"
       id="path92" />
    <path
       style="fill:#6b8c38;fill-opacity:1;fill-rule:nonzero;stroke:none"
       d="m 12.691406,13.429688 c 0,-0.07422 0.0039,-0.144532 0.01563,-0.21875 0.0039,0.07422 0.01172,0.144531 0.0039,0.21875 z m 0,0"
       id="path94" />
    <path
       style="fill:#c7dcb8;fill-opacity:1;fill-rule:nonzero;stroke:none"
       d="m 11.746094,13.410156 c -0.01953,-0.04297 -0.03516,-0.125 0.0078,-0.148437 v 0.148437 z m 0,0"
       id="path96" />
    <path
       style="fill:#b0cf5c;fill-opacity:1;fill-rule:nonzero;stroke:none"
       d="m 8.078125,13.300781 c 0.015625,0.05078 0.019531,0.101563 0.011719,0.152344 H 8.078125 c -0.023437,-0.05078 -0.023437,-0.105469 0,-0.152344 z m 0,0"
       id="path98" />
    <path
       style="fill:#a6d130;fill-opacity:1;fill-rule:nonzero;stroke:none"
       d="m 10.203125,13.304688 c 0.09766,0.01953 0.191406,0.0625 0.269531,0.121093 -0.01953,0.01563 -0.03906,0.03516 -0.05859,0.05078 0.05859,0.0625 0.140626,0.09375 0.191407,0.164063 0.128906,0.09766 0.05078,0.285156 0.160156,0.394531 -0.01953,0.0625 0.02344,0.121094 0.01172,0.1875 -0.07813,-0.05469 -0.113282,-0.164062 -0.179688,-0.234375 -0.164062,-0.160156 -0.316406,-0.339843 -0.515625,-0.464843 -0.01563,-0.01563 -0.05078,-0.01953 -0.05078,-0.04688 0.05859,-0.05469 0.117188,-0.113281 0.171875,-0.171874 z m 0,0"
       id="path100" />
    <path
       style="fill:#7fa854;fill-opacity:1;fill-rule:nonzero;stroke:none"
       d="m 11.746094,13.410156 h 0.0078 c 0.0078,0.04687 0.0039,0.09766 -0.01172,0.144532 -0.01953,-0.04297 -0.02344,-0.101563 0.0039,-0.144532 z m 0,0"
       id="path102" />
    <path
       style="fill:#9cca2b;fill-opacity:1;fill-rule:nonzero;stroke:none"
       d="m 10.414062,13.476562 c 0.01953,-0.01562 0.03906,-0.03516 0.05859,-0.05078 0.410156,0.230469 0.710938,0.617188 0.9375,1.023438 -0.04687,0.02344 -0.08594,0.05469 -0.121094,0.09375 0,0.105469 0.03516,0.203125 0.07813,0.296875 0.05469,0.222656 0.04687,0.460937 -0.03125,0.679687 0.0039,0.08594 0.01562,0.167969 0.01562,0.253907 h -0.01953 c -0.0625,-0.550782 -0.28125,-1.082032 -0.554687,-1.550782 0.0078,-0.06641 -0.03125,-0.125 -0.01172,-0.1875 -0.109375,-0.105468 -0.03125,-0.296875 -0.160156,-0.394531 -0.05078,-0.07031 -0.132813,-0.101563 -0.191407,-0.164063 z m 0,0"
       id="path104" />
    <path
       style="fill:#b3c299;fill-opacity:1;fill-rule:nonzero;stroke:none"
       d="m 12.691406,13.429688 h 0.01953 c -0.0078,0.05078 0.03125,0.152343 -0.01953,0.171874 0,-0.05859 0,-0.117187 0,-0.171874 z m 0,0"
       id="path106" />
    <path
       style="fill:#c5d98f;fill-opacity:1;fill-rule:nonzero;stroke:none"
       d="m 8.078125,13.453125 h 0.011719 l -0.00391,0.144531 H 8.074219 c -0.019531,-0.04687 -0.015625,-0.101562 0.00391,-0.144531 z m 0,0"
       id="path108" />
    <path
       style="fill:#a1bf82;fill-opacity:1;fill-rule:nonzero;stroke:none"
       d="m 11.71875,13.753906 c 0.0039,-0.05469 -0.03516,-0.160156 0.01953,-0.175781 -0.0078,0.05859 -0.01172,0.117187 -0.01953,0.175781 z m 0,0"
       id="path110" />
    <path
       style="fill:#d9e6c2;fill-opacity:1;fill-rule:nonzero;stroke:none"
       d="m 8.074219,13.597656 h 0.011719 c 0.00391,0.05469 0.00391,0.109375 0.00781,0.167969 l -0.023438,0.0078 C 8.0625,13.714845 8.06641,13.65625 8.074219,13.597656 Z m 0,0"
       id="path112" />
    <path
       style="fill:#99c223;fill-opacity:1;fill-rule:nonzero;stroke:none"
       d="m 8.242188,13.855469 c -0.039063,-0.04687 0,-0.160157 0.058593,-0.105469 0.015625,0.117188 0.039063,0.238281 0.058594,0.355469 -0.042969,0.02734 -0.117187,0.04297 -0.058594,0.132812 -0.023437,0.121094 0.050781,0.25 0.00391,0.367188 -0.011719,0.03516 -0.027344,0.07031 -0.039063,0.109375 C 8.257812,14.625 8.242188,14.539062 8.234375,14.449219 8.242188,14.25 8.273438,14.054688 8.242188,13.855469 Z m 0,0"
       id="path114" />
    <path
       style="fill:#94bd26;fill-opacity:1;fill-rule:nonzero;stroke:none"
       d="m 8.09375,13.765625 c 0.023438,0.0625 0.015625,0.128906 0.015625,0.195313 H 8.089844 c -0.00391,-0.0625 -0.00391,-0.128907 0.00391,-0.195313 z m 0,0"
       id="path116" />
    <path
       style="fill:#b5c599;fill-opacity:1;fill-rule:nonzero;stroke:none"
       d="m 12.664062,13.9375 c 0.0078,-0.05859 0.01563,-0.117188 0.02344,-0.171875 0.0039,0.0625 0.0078,0.132813 0.0039,0.199219 l -0.02344,-0.0039 z m 0,0"
       id="path118" />
    <path
       style="fill:#63872e;fill-opacity:1;fill-rule:nonzero;stroke:none"
       d="m 12.652344,14.199219 c 0,-0.08984 0,-0.175781 0.01172,-0.261719 l 0.0039,0.02344 c 0,0.07812 0.01172,0.160156 -0.0039,0.238281 z m 0,0"
       id="path120" />
    <path
       style="fill:#a1c25c;fill-opacity:1;fill-rule:nonzero;stroke:none"
       d="m 8.089844,13.960938 h 0.019531 v 0.191406 H 8.089844 c -0.00391,-0.0625 -0.00391,-0.125 0,-0.191406 z m 0,0"
       id="path122" />
    <path
       style="fill:#598a19;fill-opacity:1;fill-rule:nonzero;stroke:none"
       d="m 12.101562,14.671875 c -0.0039,-0.226563 -0.01953,-0.449219 0.01172,-0.671875 0,0.222656 0.01953,0.449219 -0.01172,0.671875 z m 0,0"
       id="path124" />
    <path
       style="fill:#b5c728;fill-opacity:1;fill-rule:nonzero;stroke:none"
       d="m 13.007812,14.601562 c 0.03906,-0.167968 0.02734,-0.359374 0.109376,-0.515624 0.07422,0.0039 0.144531,0.01953 0.214843,0.03906 -0.03906,0.07422 -0.03906,0.160156 -0.04297,0.242188 -0.0039,0.07812 -0.01562,0.15625 -0.03125,0.234374 -0.01562,0.04688 -0.01953,0.09766 -0.01172,0.144532 0.0039,0.04297 -0.01563,0.08594 -0.02734,0.125 -0.0039,0.0078 -0.01172,0.01953 -0.01563,0.02734 -0.03516,0 -0.07031,0.01172 -0.08594,0.03906 -0.03125,0.04297 -0.08984,0.05469 -0.121094,0.09766 -0.07422,0.253906 -0.05078,0.539063 -0.179688,0.78125 -0.05078,0.0078 -0.08984,-0.03125 -0.132812,-0.05078 C 12.609375,15.75 12.429688,15.777344 12.5,15.625 c 0.01953,-0.277344 0.07422,-0.554688 0.140625,-0.824219 0.01953,-0.03516 0.01953,-0.08203 0.0039,-0.117187 l 0.01172,-0.05469 c 0.03125,-0.04687 0.05078,-0.101562 0.0625,-0.15625 0.03906,-0.0078 0.07813,-0.02734 0.117188,-0.01563 0.05469,0.04687 0.08984,0.148438 0.171874,0.144531 z m 0,0"
       id="path126" />
    <path
       style="fill:#8cba1e;fill-opacity:1;fill-rule:nonzero;stroke:none"
       d="m 8.300781,14.238281 c -0.058593,-0.08984 0.015625,-0.105469 0.058594,-0.132812 0.027344,0.179687 0.0625,0.359375 0.089844,0.535156 -0.035157,-0.02344 -0.058594,0.0039 -0.078125,0.03125 -0.00391,0.109375 -0.00781,0.222656 -0.00781,0.332031 -0.023437,0.04687 -0.070312,0.07813 -0.066406,0.132813 -0.011719,-0.05859 -0.03125,-0.117188 -0.058594,-0.171875 0.00781,-0.08203 0.019531,-0.167969 0.027344,-0.25 0.011719,-0.03906 0.027344,-0.07422 0.039063,-0.109375 0.046874,-0.117188 -0.027344,-0.246094 -0.00391,-0.367188 z m 0,0"
       id="path128" />
    <path
       style="fill:#c5cf51;fill-opacity:1;fill-rule:nonzero;stroke:none"
       d="m 13.289062,14.367188 c 0.0039,-0.08203 0.0039,-0.167969 0.04297,-0.242188 -0.03125,0.05859 0.02344,0.210938 -0.04297,0.242188 z m 0,0"
       id="path130" />
    <path
       style="fill:#bad18f;fill-opacity:1;fill-rule:nonzero;stroke:none"
       d="m 8.089844,14.15625 h 0.019531 v 0.191406 H 8.089844 c -0.00391,-0.06641 -0.00391,-0.128906 0,-0.191406 z m 0,0"
       id="path132" />
    <path
       style="fill:#ccdebd;fill-opacity:1;fill-rule:nonzero;stroke:none"
       d="m 11.675781,14.300781 c -0.01172,-0.03906 -0.02734,-0.121093 0.01563,-0.144531 v 0.144531 z m 0,0"
       id="path134" />
    <path
       style="fill:#97ae73;fill-opacity:1;fill-rule:nonzero;stroke:none"
       d="m 12.652344,14.199219 h 0.01172 c 0.01563,0.04687 0.01563,0.09766 0,0.144531 h -0.01562 z m 0,0"
       id="path136" />
    <path
       style="fill:#7fa857;fill-opacity:1;fill-rule:nonzero;stroke:none"
       d="m 11.675781,14.300781 h 0.01563 c 0,0.101563 0,0.203125 -0.01563,0.304688 l -0.0078,-0.08984 c 0,-0.07031 -0.0078,-0.144531 0.0078,-0.214844 z m 0,0"
       id="path138" />
    <path
       style="fill:#dce6c7;fill-opacity:1;fill-rule:nonzero;stroke:none"
       d="m 8.089844,14.347656 h 0.019531 l 0.00391,0.05859 -0.00391,0.152344 c -0.0625,-0.01563 -0.00391,-0.152344 -0.019531,-0.210938 z m 0,0"
       id="path140" />
    <path
       style="fill:#cfd79c;fill-opacity:1;fill-rule:nonzero;stroke:none"
       d="m 12.648438,14.34375 h 0.01562 l 0.0078,0.152344 c 0,0.0625 0.02344,-0.03125 0.04687,-0.02344 -0.01172,0.05469 -0.03125,0.109375 -0.0625,0.15625 -0.0039,-0.08984 -0.0078,-0.179687 -0.0078,-0.269531 z m 0,0"
       id="path142" />
    <path
       style="fill:#6e8f28;fill-opacity:1;fill-rule:nonzero;stroke:none"
       d="m 12.613281,14.777344 c 0,-0.140625 0.02734,-0.277344 0.03516,-0.417969 l 0.0039,0.269531 c 0,0.01563 -0.0039,0.03516 -0.0078,0.05469 -0.01172,0.03125 -0.01953,0.0625 -0.03125,0.09375 z m 0,0"
       id="path144" />
    <path
       style="fill:#91c22b;fill-opacity:1;fill-rule:nonzero;stroke:none"
       d="m 8.113281,14.40625 c 0.015625,0.05078 0.027344,0.109375 0.078125,0.132812 0.015625,-0.02734 0.03125,-0.05859 0.042969,-0.08984 0.00781,0.08984 0.023437,0.175781 0.03125,0.265625 -0.00781,0.08203 -0.019531,0.167968 -0.027344,0.25 -0.035156,0 -0.070312,-0.0078 -0.105469,-0.01953 -0.00391,-0.0625 0,-0.121093 -0.015624,-0.179687 -0.011719,-0.07031 -0.00781,-0.136719 -0.00781,-0.207031 z m 0,0"
       id="path146" />
    <path
       style="fill:#94c228;fill-opacity:1;fill-rule:nonzero;stroke:none"
       d="m 11.289062,14.542969 c 0.03516,-0.03906 0.07422,-0.07031 0.121094,-0.09375 0.06641,0.113281 0.121094,0.238281 0.167969,0.363281 -0.02344,0.02344 -0.05078,0.04687 -0.07422,0.07031 0.03516,0.1875 0.132813,0.371094 0.09375,0.5625 -0.07422,0.1875 -0.167968,0.367188 -0.207031,0.5625 h -0.01953 c 0.0078,-0.07812 -0.02734,-0.152343 -0.01953,-0.234374 0,-0.08594 -0.01172,-0.167969 -0.01562,-0.253907 0.07812,-0.21875 0.08594,-0.457031 0.03125,-0.679687 -0.04688,-0.09375 -0.07422,-0.195313 -0.07813,-0.296875 z m 0,0"
       id="path148" />
    <path
       style="fill:#c7d9b8;fill-opacity:1;fill-rule:nonzero;stroke:none"
       d="m 11.648438,14.730469 c 0.02344,-0.05469 -0.03516,-0.1875 0.01953,-0.214844 l 0.0078,0.08984 c -0.0039,0.04297 -0.0039,0.08203 -0.0039,0.125 z m 0,0"
       id="path150" />
    <path
       style="fill:#dee399;fill-opacity:1;fill-rule:nonzero;stroke:none"
       d="m 13.246094,14.746094 c -0.0078,-0.04687 -0.0039,-0.09766 0.01172,-0.144532 0.01953,0.03906 0.03516,0.128907 -0.01172,0.144532 z m 0,0"
       id="path152" />
    <path
       style="fill:#7fae19;fill-opacity:1;fill-rule:nonzero;stroke:none"
       d="m 8.371094,14.671875 c 0.019531,-0.02734 0.042968,-0.05469 0.078125,-0.03125 -0.00391,0.109375 0.058593,0.214844 0.035156,0.316406 -0.035156,0.03516 -0.046875,0.08594 -0.035156,0.136719 -0.00391,0.25 0.015625,0.503906 0.054687,0.753906 0.019532,0.121094 0.00781,0.253906 0.054688,0.375 l 0.00391,0.01172 c -0.019535,0.02344 -0.03516,0.04687 -0.050785,0.0664 C 8.453125,16.292969 8.390625,16.25 8.34375,16.308594 L 8.328125,16.175781 c -0.00391,-0.08984 -0.00391,-0.179687 -0.00781,-0.269531 0.015626,-0.257812 -0.03125,-0.511719 -0.023437,-0.769531 -0.00391,-0.05469 0.042969,-0.08594 0.066406,-0.132813 0,-0.109375 0.00391,-0.222656 0.00781,-0.332031 z m 0,0"
       id="path154" />
    <path
       style="fill:#abc226;fill-opacity:1;fill-rule:nonzero;stroke:none"
       d="m 12.613281,14.777344 0.03125,-0.09375 c 0.01563,0.03906 0.01563,0.08203 -0.0039,0.117187 -0.07031,0.269531 -0.117187,0.546875 -0.140625,0.824219 -0.07031,0.152344 0.109375,0.125 0.183594,0.140625 0.04297,0.01953 0.08203,0.05859 0.132812,0.05078 0.128906,-0.242187 0.105469,-0.527344 0.179688,-0.78125 0.03125,-0.04297 0.08984,-0.05469 0.121094,-0.09766 0.01562,-0.02734 0.05078,-0.03906 0.08594,-0.03906 v 0.152343 c 0.0039,0.09766 -0.01172,0.195313 -0.02734,0.292969 -0.0078,0.07031 -0.01172,0.140625 -0.01953,0.210938 -0.0078,0.02344 -0.01172,0.04297 -0.01953,0.06641 -0.03516,0.05859 -0.08984,0.07813 -0.160157,0.07422 -0.09375,0.105469 -0.08594,0.25 -0.140624,0.375 -0.128907,-0.0039 -0.195313,-0.179687 -0.34375,-0.160156 -0.08594,0 -0.09766,-0.08984 -0.08594,-0.164062 0.03516,-0.195313 0.07813,-0.390625 0.121094,-0.585938 0.01563,-0.04297 0.02734,-0.08984 0.03516,-0.136718 0,-0.08594 0.03516,-0.164063 0.05078,-0.246094 z m 0,0"
       id="path156" />
    <path
       style="fill:#82ab59;fill-opacity:1;fill-rule:nonzero;stroke:none"
       d="m 11.648438,14.730469 h 0.02344 c 0,0.06641 -0.01172,0.132812 -0.02344,0.199219 0,-0.06641 -0.0039,-0.132813 0,-0.199219 z m 0,0"
       id="path158" />
    <path
       style="fill:#91b851;fill-opacity:1;fill-rule:nonzero;stroke:none"
       d="m 8.117188,14.765625 c 0.015624,0.05859 0.011718,0.117187 0.015624,0.179687 v 0.03906 l -0.023437,0.0039 c 0,-0.07813 -0.00391,-0.148437 0.00781,-0.222656 z m 0,0"
       id="path160" />
    <path
       style="fill:#8cbd23;fill-opacity:1;fill-rule:nonzero;stroke:none"
       d="m 11.503906,14.882812 c 0.02344,-0.02344 0.05078,-0.04687 0.07422,-0.07031 0.02344,0.03906 0.03125,0.08594 0.07031,0.117188 0.01562,0.04687 0.03125,0.08984 0.04687,0.136718 0,0.02734 0,0.05469 -0.0039,0.07813 -0.07813,0.03906 -0.01563,0.136719 -0.01563,0.195313 0.01563,0.136718 0.04687,0.273437 0.03516,0.410156 -0.07813,0.164062 -0.203126,0.308594 -0.234376,0.492188 -0.04297,0.113281 0.02344,0.234374 -0.01562,0.347656 l -0.02344,-0.0039 c 0,-0.05859 -0.0039,-0.117188 -0.0039,-0.175782 0.01172,-0.04687 0.0078,-0.09766 -0.0078,-0.144531 -0.03906,-0.08203 -0.03516,-0.171875 -0.03516,-0.257813 0.03906,-0.195312 0.132813,-0.375 0.207031,-0.5625 0.03906,-0.195312 -0.05859,-0.375 -0.09375,-0.5625 z m 0,0"
       id="path162" />
    <path
       style="fill:#d1dc82;fill-opacity:1;fill-rule:nonzero;stroke:none"
       d="m 13.203125,14.898438 c 0.0039,-0.0078 0.01172,-0.01953 0.01563,-0.02734 -0.0039,0.05469 0.03516,0.15625 -0.01563,0.179687 z m 0,0"
       id="path164" />
    <path
       style="fill:#5c8f28;fill-opacity:1;fill-rule:nonzero;stroke:none"
       d="m 11.742188,15 c -0.08203,-0.167969 0.0039,-0.09375 0.04687,-0.07031 0.113282,0.15625 0.171876,0.347656 0.273438,0.515624 l 0.03125,0.01563 c 0.0039,0.07031 0.0039,0.140624 0.0039,0.210937 l -0.0039,0.117187 c -0.03516,0.05469 -0.07422,0.101563 -0.121094,0.140626 l -0.01172,0.144531 c -0.02734,0 -0.05469,-0.0039 -0.08203,-0.0039 0.04297,-0.03906 0.08203,-0.08203 0.06641,-0.140624 0,-0.324219 -0.148437,-0.617188 -0.203124,-0.929688 z m 0,0"
       id="path166" />
    <path
       style="fill:#85b826;fill-opacity:1;fill-rule:nonzero;stroke:none"
       d="m 8.132812,14.945312 c 0.03125,0.01172 0.066407,0.01953 0.105469,0.01953 0.027344,0.05469 0.046875,0.113281 0.058594,0.171875 -0.00781,0.257812 0.039063,0.511719 0.019531,0.769531 -0.019531,-0.09766 -0.00781,-0.210938 -0.058594,-0.300781 -0.0625,0 -0.078124,0.07422 -0.121093,0.109375 -0.00781,-0.08203 -0.00781,-0.160156 -0.00781,-0.238282 v -0.492187 z m 0,0"
       id="path168" />
    <path
       style="fill:#73a117;fill-opacity:1;fill-rule:nonzero;stroke:none"
       d="m 8.449219,15.09375 c -0.011719,-0.05078 0,-0.101562 0.035156,-0.136719 0.070313,0.335938 0.097656,0.679688 0.144531,1.015625 -0.00781,0.09375 0.046875,0.179688 0.03125,0.273438 -0.011718,-0.01953 -0.027344,-0.04297 -0.042968,-0.06641 -0.019532,0.01172 -0.039063,0.02734 -0.058594,0.04297 -0.046875,-0.121094 -0.035156,-0.253906 -0.054688,-0.375 -0.039062,-0.25 -0.058594,-0.503906 -0.054687,-0.753906 z m 0,0"
       id="path170" />
    <path
       style="fill:#b0ca8a;fill-opacity:1;fill-rule:nonzero;stroke:none"
       d="m 8.109375,14.988281 0.023437,-0.0039 V 15.21875 H 8.109375 c 0,-0.07813 0,-0.15625 0,-0.230469 z m 0,0"
       id="path172" />
    <path
       style="fill:#7a9717;fill-opacity:1;fill-rule:nonzero;stroke:none"
       d="m 12.519531,15.109375 c 0.0039,-0.03516 -0.0078,-0.08594 0.04297,-0.08594 -0.0078,0.04687 -0.01953,0.09375 -0.03516,0.136718 z m 0,0"
       id="path174" />
    <path
       style="fill:#7dab28;fill-opacity:1;fill-rule:nonzero;stroke:none"
       d="m 11.695312,15.066406 c 0.09375,0.234375 0.164063,0.476563 0.214844,0.722656 l -0.01953,-0.0039 -0.02734,-0.0078 c -0.0078,-0.02734 -0.01172,-0.05078 -0.01953,-0.07813 -0.03125,-0.1875 -0.08203,-0.371094 -0.152344,-0.554688 z m 0,0"
       id="path176" />
    <path
       style="fill:#85b31e;fill-opacity:1;fill-rule:nonzero;stroke:none"
       d="m 11.675781,15.339844 c 0,-0.05859 -0.0625,-0.15625 0.01563,-0.195313 0.06641,0.183594 0.121094,0.367188 0.152344,0.554688 -0.01953,0.01953 -0.03516,0.03516 -0.05469,0.05469 -0.04297,0.03516 0.0078,0.113282 -0.02734,0.15625 -0.0625,0.08594 -0.160157,0.15625 -0.179688,0.269532 -0.09766,0.253906 0.117188,0.492187 0.05469,0.75 -0.0078,0.08594 -0.05078,0.160156 -0.08594,0.238281 -0.04687,0.08594 -0.03516,0.191406 -0.08984,0.273437 v -0.02344 c -0.0078,-0.214844 -0.0039,-0.425781 -0.0039,-0.640625 0,-0.0625 0,-0.125 0.0039,-0.1875 0.03906,-0.117188 -0.02734,-0.234375 0.01562,-0.347656 0.03125,-0.183594 0.15625,-0.328126 0.234376,-0.492188 0.01172,-0.136719 -0.01953,-0.273438 -0.03516,-0.410156 z m 0,0"
       id="path178" />
    <path
       style="fill:#d7e3c2;fill-opacity:1;fill-rule:nonzero;stroke:none"
       d="m 8.109375,15.21875 h 0.023437 v 0.257812 H 8.109375 c 0,-0.08594 0,-0.171874 0,-0.257812 z m 0,0"
       id="path180" />
    <path
       style="fill:#d1dc85;fill-opacity:1;fill-rule:nonzero;stroke:none"
       d="m 13.15625,15.554688 c 0.0078,-0.07031 0.01172,-0.140626 0.01953,-0.210938 0.0039,0.07031 0.01172,0.144531 0.0039,0.21875 z m 0,0"
       id="path182" />
    <path
       style="fill:#c2d166;fill-opacity:1;fill-rule:nonzero;stroke:none"
       d="m 13.136719,15.621094 0.01953,-0.06641 c 0.0039,0.09375 0.0078,0.1875 0.0039,0.28125 h -0.01953 c 0,-0.07031 0,-0.140626 -0.0039,-0.214844 z m 0,0"
       id="path184" />
    <path
       style="fill:#7fba35;fill-opacity:1;fill-rule:nonzero;stroke:none"
       d="m 8.136719,15.714844 c 0.042969,-0.03516 0.058593,-0.109375 0.121093,-0.109375 0.050782,0.08984 0.039063,0.203125 0.0625,0.300781 0.00391,0.08984 0.00391,0.179688 0.00781,0.269531 0.00391,0.06641 0.023437,0.160157 -0.066406,0.128907 -0.058594,-0.02734 -0.0625,-0.121094 -0.105469,-0.171876 0,-0.05078 -0.00391,-0.09766 -0.00391,-0.144531 0,-0.08984 0,-0.175781 -0.011719,-0.261719 z m 0,0"
       id="path186" />
    <path
       style="fill:#a3bd21;fill-opacity:1;fill-rule:nonzero;stroke:none"
       d="m 12.976562,15.699219 c 0.07031,0 0.125,-0.01953 0.160157,-0.07813 0.0039,0.07422 0.0039,0.144531 0.0039,0.21875 l -0.0039,0.144531 c -0.09766,0.0078 -0.109375,0.148437 -0.226563,0.117187 -0.05859,0.07422 -0.07031,0.167969 -0.101562,0.253907 -0.0039,-0.171875 -0.121094,-0.34375 -0.292969,-0.378907 -0.07422,0 -0.117187,-0.05469 -0.128906,-0.121093 0.0039,-0.03516 0.01172,-0.07031 0.01953,-0.109375 -0.0078,0.07813 0,0.164062 0.08594,0.164062 0.148437,-0.01953 0.214843,0.15625 0.34375,0.160156 0.05469,-0.125 0.04687,-0.269531 0.140624,-0.375 z m 0,0"
       id="path188" />
    <path
       style="fill:#7fab1c;fill-opacity:1;fill-rule:nonzero;stroke:none"
       d="m 11.789062,15.753906 c 0.01953,-0.01953 0.03516,-0.03516 0.05469,-0.05469 l 0.01953,0.07813 c -0.02734,-0.0078 -0.05078,-0.01563 -0.07422,-0.02344 z m 0,0"
       id="path190" />
    <path
       style="fill:#91ba59;fill-opacity:1;fill-rule:nonzero;stroke:none"
       d="m 8.140625,15.726562 c 0.011719,0.08594 0.011719,0.171876 0.011719,0.261719 H 8.132812 c -0.00391,-0.08594 -0.00391,-0.175781 0.00781,-0.261719 z m 0,0"
       id="path192" />
    <path
       style="fill:#7dae19;fill-opacity:1;fill-rule:nonzero;stroke:none"
       d="m 11.761719,15.910156 c 0.03516,-0.04297 -0.01563,-0.121094 0.02734,-0.15625 l 0.07422,0.02344 0.02734,0.0078 c -0.08594,0.05078 -0.08594,0.160156 -0.152344,0.226563 -0.109375,0.105469 -0.160156,0.273437 -0.105469,0.417969 0.03125,0.121093 0.113282,0.210937 0.179688,0.3125 0.03906,0.277343 -0.128906,0.519531 -0.175781,0.789062 0,0.292969 -0.0039,0.59375 0.07813,0.878906 -0.03516,-0.0078 -0.07422,-0.01172 -0.109375,-0.01953 -0.01953,-0.01563 -0.05859,-0.01172 -0.0625,-0.03906 -0.05078,-0.152343 -0.08594,-0.308593 -0.125,-0.464843 0.03906,-0.03516 0.01953,-0.08594 0.01563,-0.128907 0,-0.02734 0.0039,-0.05469 0.0078,-0.08203 0.0078,-0.07813 0.01563,-0.15625 0.01953,-0.234375 0.05469,-0.08203 0.04297,-0.1875 0.08984,-0.273437 0.03516,-0.07813 0.07813,-0.152344 0.08594,-0.238281 0.0625,-0.257813 -0.152344,-0.496094 -0.05469,-0.75 0.01953,-0.113282 0.117188,-0.183594 0.179688,-0.269532 z m 0,0"
       id="path194" />
    <path
       style="fill:#78a819;fill-opacity:1;fill-rule:nonzero;stroke:none"
       d="m 11.738281,16.011719 c 0.06641,-0.06641 0.06641,-0.175781 0.152344,-0.226563 l 0.01953,0.0039 c 0.0078,0.06641 -0.03125,0.105469 -0.08203,0.144532 -0.03125,0.109375 -0.144531,0.167968 -0.167969,0.28125 -0.05859,0.171875 0.06641,0.339844 0.203125,0.429687 0.04687,0.02344 0.04297,0.07422 0.05078,0.117188 0.02734,0.242187 0.0078,0.484375 -0.02344,0.726562 0,0.273438 -0.01563,0.546875 0.01953,0.820313 0.0039,0.04687 0.0039,0.09375 -0.0039,0.140625 -0.06641,-0.01172 -0.128906,-0.02734 -0.191406,-0.03906 -0.08203,-0.285156 -0.08203,-0.585937 -0.07813,-0.878906 0.04687,-0.269531 0.214843,-0.511719 0.175781,-0.789062 -0.06641,-0.101563 -0.148438,-0.191407 -0.179688,-0.3125 -0.05469,-0.144532 -0.0039,-0.3125 0.105469,-0.417969 z m 0,0"
       id="path196" />
    <path
       style="fill:#73a119;fill-opacity:1;fill-rule:nonzero;stroke:none"
       d="m 11.910156,15.789062 0.03516,0.140626 c 0.01563,0.05859 -0.02344,0.101562 -0.06641,0.140624 -0.09766,0.04688 -0.167968,0.136719 -0.15625,0.253907 -0.03906,0.128906 0.128906,0.203125 0.195313,0.285156 0.06641,0.191406 0.04687,0.394531 0.06641,0.59375 0.02734,0.417969 0.03125,0.839844 0.02734,1.257813 -0.03516,0 -0.07422,-0.0039 -0.105469,-0.01172 0.0078,-0.04687 0.0078,-0.09375 0.0039,-0.140625 -0.03516,-0.273438 -0.01563,-0.546875 -0.01953,-0.820313 0.03125,-0.242187 0.05078,-0.484375 0.02344,-0.726562 -0.0078,-0.04297 -0.0039,-0.09375 -0.05078,-0.117188 -0.136719,-0.08984 -0.261719,-0.257812 -0.203125,-0.429687 0.02344,-0.113282 0.136719,-0.171875 0.167969,-0.28125 0.05078,-0.03906 0.08984,-0.07813 0.08203,-0.144532 z m 0,0"
       id="path198" />
    <path
       style="fill:#578523;fill-opacity:1;fill-rule:nonzero;stroke:none"
       d="m 11.972656,15.929688 c 0.04687,-0.03906 0.08594,-0.08594 0.121094,-0.140626 0.0039,0.08203 0.0039,0.160157 0.0039,0.242188 l -0.04687,0.08594 c -0.02734,-0.01563 -0.05859,-0.02734 -0.08984,-0.04297 z m 0,0"
       id="path200" />
    <path
       style="fill:#dee6b3;fill-opacity:1;fill-rule:nonzero;stroke:none"
       d="m 13.140625,15.839844 h 0.01953 c 0,0.105468 0.0039,0.210937 0,0.320312 l -0.01953,-0.0078 z m 0,0"
       id="path202" />
    <path
       style="fill:#9cba1e;fill-opacity:1;fill-rule:nonzero;stroke:none"
       d="m 12.367188,15.992188 0.01953,-0.136719 c 0.01172,0.06641 0.05469,0.121093 0.128906,0.121093 0.171875,0.03516 0.289063,0.207032 0.292969,0.378907 0.03125,-0.08594 0.04297,-0.179688 0.101562,-0.253907 0.113282,0.03125 0.128906,-0.113281 0.226563,-0.117187 v 0.167969 c -0.0039,0.0078 -0.01172,0.01563 -0.01953,0.02344 -0.05859,0.04687 -0.101563,0.101563 -0.132813,0.164063 -0.02734,-0.01953 -0.05469,-0.05078 -0.09766,-0.05469 -0.0078,0.07422 -0.02344,0.15625 -0.01172,0.234375 -0.0078,0.246094 -0.07813,0.484375 -0.07422,0.730469 l -0.0039,0.03516 c -0.01563,0.05469 -0.02734,0.113282 -0.04687,0.167969 -0.128906,-0.03516 -0.242188,0.03906 -0.371094,0.01953 -0.04297,-0.05469 -0.06641,-0.121094 -0.07031,-0.1875 0.02344,0.03516 0.04297,0.07031 0.06641,0.105469 0.06641,-0.02734 0.117188,-0.117187 0.195312,-0.09375 0.0625,0 0.121094,-0.03516 0.179688,-0.05859 0.04687,-0.1875 0.04687,-0.378906 0.06641,-0.570312 0.01172,-0.08594 0.0039,-0.171875 -0.01953,-0.253907 -0.04297,0.05859 -0.08203,0.125 -0.132813,0.183594 -0.08594,0.02344 -0.171874,0.0625 -0.261718,0.04297 -0.04687,-0.01563 -0.09375,-0.0039 -0.140625,0.0039 l 0.0039,-0.01563 c 0.08203,-0.08984 0.238281,-0.01953 0.335937,-0.09375 0.136719,-0.09375 0.148438,-0.3125 0.03516,-0.425781 -0.0625,-0.08594 -0.179688,-0.07813 -0.269531,-0.117187 z m 0,0"
       id="path204" />
    <path
       style="fill:#b5cf42;fill-opacity:1;fill-rule:nonzero;stroke:none"
       d="m 7.277344,15.878906 c 0.136718,0.06641 0.238281,0.183594 0.34375,0.292969 -0.035156,0.0078 -0.0625,0.03516 -0.070313,0.07031 l -0.015625,-0.0039 C 7.472656,16.101562 7.371094,15.996094 7.277344,15.878906 Z m 0,0"
       id="path206" />
    <path
       style="fill:#47700f;fill-opacity:1;fill-rule:nonzero;stroke:none"
       d="m 12.097656,16.03125 c 0.04297,-0.0625 0.128906,-0.05469 0.191406,-0.08203 0.03125,-0.01563 0.04297,0.02344 0.0625,0.03906 l 0.0039,0.105469 c -0.121094,0.05859 -0.148438,0.21875 -0.06641,0.320312 0,0.05078 -0.0078,0.09766 -0.02344,0.148438 -0.03906,0.04297 -0.125,0.07422 -0.144531,-0.0039 -0.02344,-0.04687 -0.05469,-0.09375 -0.07422,-0.144532 0.04297,-0.03906 0.06641,-0.08984 0.07031,-0.148437 0,-0.05859 -0.02344,-0.109375 -0.06641,-0.148437 z m 0,0"
       id="path208" />
    <path
       style="fill:#aec78a;fill-opacity:1;fill-rule:nonzero;stroke:none"
       d="m 8.132812,15.988281 h 0.019532 c 0,0.03516 0.00391,0.109375 0.00391,0.144531 -0.00391,0.04297 -0.00391,0.08594 -0.00391,0.132813 H 8.132812 c -0.00391,-0.09375 -0.00391,-0.1875 0,-0.277344 z m 0,0"
       id="path210" />
    <path
       style="fill:#91b321;fill-opacity:1;fill-rule:nonzero;stroke:none"
       d="m 12.351562,15.988281 0.01563,0.0039 c 0.08984,0.03906 0.207031,0.03125 0.269531,0.117187 0.113281,0.113281 0.101562,0.332031 -0.03516,0.425781 -0.09766,0.07422 -0.253906,0.0039 -0.335937,0.09375 l 0.0039,-0.06641 c 0.01172,-0.05078 0.01953,-0.09766 0.01953,-0.148438 0.08984,0.09766 0.277344,0.06641 0.320313,-0.0625 0.08594,-0.148426 -0.109369,-0.304676 -0.2539,-0.257801 z m 0,0"
       id="path212" />
    <path
       style="fill:#f8faf5;fill-opacity:1;fill-rule:nonzero;stroke:none"
       d="m 11.722656,16.324219 c -0.01172,-0.117188 0.05859,-0.207031 0.15625,-0.253907 l 0.08203,0.0078 c 0.03125,0.01172 0.0625,0.02344 0.08984,0.03906 0.04297,0.03906 0.06641,0.08984 0.06641,0.148437 -0.0039,0.05859 -0.02734,0.109375 -0.07031,0.148437 l -0.05859,0.04297 c -0.113281,0.03516 -0.21875,-0.03906 -0.265625,-0.132812 z m 0,0"
       id="path214" />
    <path
       style="fill:#f8faf5;fill-opacity:1;fill-rule:nonzero;stroke:none"
       d="m 12.355469,16.09375 c 0.144531,-0.04687 0.339843,0.109375 0.253906,0.257812 -0.04297,0.128907 -0.230469,0.160157 -0.320313,0.0625 -0.08203,-0.101562 -0.05469,-0.261718 0.06641,-0.320312 z m 0,0"
       id="path216" />
    <path
       style="fill:#75b335;fill-opacity:1;fill-rule:nonzero;stroke:none"
       d="m 8.15625,16.132812 c 0.042969,0.05078 0.046875,0.144532 0.105469,0.171876 0.089843,0.03125 0.070312,-0.0625 0.066406,-0.128907 l 0.015625,0.132813 c 0,0.07031 0,0.144531 0,0.21875 -0.042969,-0.01172 -0.082031,-0.02344 -0.121094,-0.03516 -0.039062,-0.03125 -0.046875,-0.08203 -0.066406,-0.125 -0.00391,-0.03516 -0.00391,-0.07031 -0.00391,-0.101563 0,-0.04687 0.00391,-0.08984 0.00391,-0.132813 z m 0,0"
       id="path218" />
    <path
       style="fill:#b0c54c;fill-opacity:1;fill-rule:nonzero;stroke:none"
       d="m 13.117188,16.175781 0.02344,-0.02344 c 0,0.06641 0,0.132812 0,0.199218 h -0.02344 z m 0,0"
       id="path220" />
    <path
       style="fill:#a8c733;fill-opacity:1;fill-rule:nonzero;stroke:none"
       d="m 7.550781,16.242188 c 0.00781,-0.03516 0.035157,-0.0625 0.070313,-0.07031 C 7.773438,16.316406 7.886719,16.5 7.976562,16.6875 7.917969,16.75 7.84375,16.800781 7.804688,16.875 L 7.792969,16.8828 C 7.746094,16.660156 7.640625,16.453125 7.550781,16.242188 Z m 0,0"
       id="path222" />
    <path
       style="fill:#618f0f;fill-opacity:1;fill-rule:nonzero;stroke:none"
       d="m 8.558594,16.222656 c 0.019531,-0.01563 0.039062,-0.02734 0.058594,-0.04297 0.015624,0.02344 0.03125,0.04687 0.042968,0.06641 0.00781,0.07422 0.039063,0.152344 0.019532,0.226562 -0.121094,0.04687 -0.046876,0.207032 -0.101563,0.304688 -0.03125,0.08203 -0.148437,0.05078 -0.210937,0.08594 v -0.148437 c 0.03125,-0.101563 0.152343,-0.03125 0.207031,-0.09375 0.00391,-0.05469 0.00391,-0.109375 0.00391,-0.167969 0,-0.07031 0.015625,-0.148437 -0.015625,-0.21875 z m 0,0"
       id="path224" />
    <path
       style="fill:#99b31e;fill-opacity:1;fill-rule:nonzero;stroke:none"
       d="m 12.984375,16.34375 c 0.03125,-0.06641 0.07422,-0.121094 0.132813,-0.167969 v 0.171875 c 0,0.167969 0,0.332032 0.0039,0.496094 -0.0039,0.03516 -0.0039,0.07031 -0.0039,0.105469 -0.113282,-0.08594 -0.164063,0.08984 -0.265626,0.113281 -0.01953,0.0625 -0.03516,0.125 -0.05078,0.1875 -0.0039,-0.246094 0.06641,-0.484375 0.07422,-0.730469 -0.01172,-0.07813 0.0039,-0.160156 0.01172,-0.234375 0.04297,0.0039 0.07031,0.03516 0.09766,0.05469 z m 0,0"
       id="path226" />
    <path
       style="fill:#73a317;fill-opacity:1;fill-rule:nonzero;stroke:none"
       d="m 8.511719,16.300781 c 0.015625,-0.01953 0.03125,-0.04297 0.050781,-0.06641 0.03125,0.07031 0.015625,0.148437 0.015625,0.21875 -0.058594,0.08594 -0.191406,-0.02734 -0.234375,0.07422 0,-0.07422 0,-0.148438 0,-0.21875 0.046875,-0.05859 0.109375,-0.01563 0.167969,-0.0078 z m 0,0"
       id="path228" />
    <path
       style="fill:#d4e3c5;fill-opacity:1;fill-rule:nonzero;stroke:none"
       d="M 8.132812,16.265625 H 8.152344 L 8.15625,16.367188 8.152344,16.5625 H 8.132812 c -0.00391,-0.101562 -0.00391,-0.199219 0,-0.296875 z m 0,0"
       id="path230" />
    <path
       style="fill:#a3ca51;fill-opacity:1;fill-rule:nonzero;stroke:none"
       d="m 11.425781,16.265625 c 0.01563,0.04687 0.01953,0.09766 0.0078,0.144531 h -0.01172 c -0.01953,-0.04687 -0.01953,-0.09766 0.0039,-0.144531 z m 0,0"
       id="path232" />
    <path
       style="fill:#689917;fill-opacity:1;fill-rule:nonzero;stroke:none"
       d="m 11.917969,16.609375 c -0.06641,-0.08203 -0.234375,-0.15625 -0.195313,-0.285156 0.04687,0.09375 0.152344,0.167969 0.265625,0.132812 -0.02344,0.01953 -0.05469,0.01953 -0.08203,0.02734 0.01953,0.06641 0.101562,0.07422 0.140625,0.128906 0.02344,0.06641 0.02734,0.144531 0.0625,0.210938 0.01953,0.09766 0.03125,0.195312 0.03125,0.292969 -0.01953,-0.0078 -0.04297,-0.01563 -0.0625,-0.02344 -0.0078,0.06641 -0.04297,0.132812 -0.03516,0.203125 0.03516,0.394531 -0.01953,0.792969 0.02734,1.183594 h -0.05859 v -0.01953 c 0.0039,-0.417969 0,-0.839844 -0.02734,-1.257813 -0.01953,-0.199219 0,-0.402344 -0.06641,-0.59375 z m 0,0"
       id="path234" />
    <path
       style="fill:#c2cf78;fill-opacity:1;fill-rule:nonzero;stroke:none"
       d="m 13.117188,16.351562 h 0.02344 c -0.0039,0.160157 0.01172,0.328126 -0.0078,0.492188 h -0.01172 c -0.0039,-0.164062 -0.0039,-0.328125 -0.0039,-0.492188 z m 0,0"
       id="path236" />
    <path
       style="fill:#68ab33;fill-opacity:1;fill-rule:nonzero;stroke:none"
       d="m 8.15625,16.367188 c 0.019531,0.04297 0.027344,0.09375 0.066406,0.125 0.039063,0.01562 0.078125,0.02344 0.121094,0.03516 0.00391,0.02344 0.00391,0.04687 0.00781,0.07422 -0.015624,0.06641 -0.011718,0.195313 -0.132812,0.128907 -0.035156,-0.0039 -0.039062,-0.0625 -0.0625,-0.08594 -0.00391,-0.02734 -0.00781,-0.05469 -0.00391,-0.08203 z m 0,0"
       id="path238" />
    <path
       style="fill:#d1e3ae;fill-opacity:1;fill-rule:nonzero;stroke:none"
       d="m 11.421875,16.414062 0.01172,-0.0039 c 0,0.05859 0.0039,0.117188 0.0039,0.175782 -0.05078,-0.01563 -0.01563,-0.125 -0.01563,-0.175782 z m 0,0"
       id="path240" />
    <path
       style="fill:#5e8a1e;fill-opacity:1;fill-rule:nonzero;stroke:none"
       d="m 11.988281,16.457031 c 0.01953,-0.01563 0.03906,-0.03125 0.05859,-0.04297 0.01953,0.05078 0.05078,0.09766 0.07422,0.144532 l -0.01172,0.265625 c -0.03516,-0.06641 -0.03906,-0.144531 -0.0625,-0.210938 -0.03906,-0.05469 -0.121094,-0.0625 -0.140625,-0.128906 0.02734,-0.0078 0.05859,-0.0078 0.08203,-0.02734 z m 0,0"
       id="path242" />
    <path
       style="fill:#9ec221;fill-opacity:1;fill-rule:nonzero;stroke:none"
       d="m 12.664062,16.597656 c 0.04688,-0.05859 0.08984,-0.125 0.132813,-0.183594 0.02734,0.08203 0.02344,0.167969 0.02344,0.253907 -0.02344,0.191406 -0.02344,0.382812 -0.07031,0.570312 -0.05859,0.02344 -0.117188,0.05859 -0.179688,0.05859 -0.07812,-0.01953 -0.128906,0.06641 -0.195312,0.09375 -0.02344,-0.03516 -0.04297,-0.07031 -0.06641,-0.105469 -0.04687,-0.160156 -0.05078,-0.328125 -0.07031,-0.492187 0,-0.05078 0.0078,-0.101563 0.02344,-0.148438 0.04687,-0.0078 0.09375,-0.01953 0.140625,-0.0039 0.08984,0.01953 0.175781,-0.01953 0.261718,-0.04297 z m 0,0"
       id="path244" />
    <path
       style="fill:#669911;fill-opacity:1;fill-rule:nonzero;stroke:none"
       d="m 8.34375,16.527344 c 0.042969,-0.09766 0.175781,0.01172 0.234375,-0.07422 0,0.05859 0,0.113281 -0.00391,0.167969 -0.054688,0.0625 -0.175781,-0.0078 -0.207031,0.09375 0,-0.03906 -0.00781,-0.07813 -0.015626,-0.113282 -0.00391,-0.02734 -0.00391,-0.05078 -0.00781,-0.07422 z m 0,0"
       id="path246" />
    <path
       style="fill:#51820c;fill-opacity:1;fill-rule:nonzero;stroke:none"
       d="m 8.578125,16.777344 c 0.054687,-0.09766 -0.019531,-0.257813 0.101563,-0.304688 0.015624,0.07031 0.035156,0.140625 0.023437,0.214844 -0.027344,0.01953 -0.0625,0.02734 -0.0625,0.06641 -0.027344,0.128906 -0.011719,0.273438 -0.070313,0.394532 -0.0625,0.05469 -0.121093,0.109374 -0.179687,0.164062 -0.00781,-0.128906 -0.023437,-0.257812 -0.027344,-0.390625 l 0.00391,-0.05859 c 0.0625,-0.03516 0.179687,-0.0039 0.210937,-0.08594 z m 0,0"
       id="path248" />
    <path
       style="fill:#4f780c;fill-opacity:1;fill-rule:nonzero;stroke:none"
       d="m 12.121094,16.558594 c 0.01953,0.07813 0.105468,0.04687 0.148437,0.0039 l -0.0039,0.06641 -0.0039,0.01563 c -0.01953,0.04687 -0.02344,0.09766 -0.02344,0.148438 -0.02344,0.128906 -0.02734,0.261719 -0.0625,0.390625 -0.01172,-0.02344 -0.02344,-0.04297 -0.03516,-0.06641 0,-0.09766 -0.01172,-0.195313 -0.03125,-0.292969 z m 0,0"
       id="path250" />
    <path
       style="fill:#a3ca54;fill-opacity:1;fill-rule:nonzero;stroke:none"
       d="m 11.4375,16.585938 0.02344,0.0039 c -0.0039,0.0625 -0.0039,0.125 -0.0039,0.1875 H 11.4375 c -0.0039,-0.06641 -0.0039,-0.128906 0,-0.191406 z m 0,0"
       id="path252" />
    <path
       style="fill:#61a330;fill-opacity:1;fill-rule:nonzero;stroke:none"
       d="m 8.351562,16.601562 c 0.00781,0.03516 0.015626,0.07422 0.015626,0.113282 v 0.148437 l -0.00391,0.05859 c -0.0625,0.0078 -0.125,0.02344 -0.1875,0.02734 -0.00391,-0.03125 -0.00781,-0.0625 -0.015625,-0.09375 -0.011718,-0.07031 -0.011718,-0.140625 -0.00391,-0.210938 0.023438,0.02344 0.023438,0.08203 0.0625,0.08594 0.121094,0.06641 0.117188,-0.0625 0.132812,-0.128907 z m 0,0"
       id="path254" />
    <path
       style="fill:#a1c22b;fill-opacity:1;fill-rule:nonzero;stroke:none"
       d="m 7.804688,16.875 c 0.039062,-0.07422 0.113281,-0.125 0.171874,-0.1875 0.066407,0.109375 0.121094,0.226562 0.160157,0.347656 0.011719,0.02344 0.019531,0.04297 0.027343,0.06641 0.042969,0.109376 0.085938,0.21875 0.109376,0.332032 -0.128907,0.02734 -0.00391,0.214844 -0.074219,0.285156 C 8.121094,17.761719 7.996094,17.800781 8,17.90625 H 7.980469 C 7.984375,17.554688 7.878906,17.214844 7.804688,16.875 Z m 0,0"
       id="path256" />
    <path
       style="fill:#45730a;fill-opacity:1;fill-rule:nonzero;stroke:none"
       d="m 8.640625,16.753906 c 0,-0.03906 0.035156,-0.04687 0.0625,-0.06641 0.027344,0.160156 0.039063,0.328125 0.046875,0.492188 -0.00391,0.08984 0.039062,0.191406 -0.042969,0.253906 -0.058593,0.03906 -0.085937,0.109375 -0.109375,0.171875 -0.035156,0.06641 -0.042968,0.140625 -0.058594,0.214843 -0.019531,0.01953 -0.035156,0.03906 -0.050781,0.0625 -0.015625,0.09375 -0.023437,0.199219 -0.042969,0.296876 L 8.429688,18.1875 C 8.417969,18.117188 8.410156,18.039062 8.40625,17.964844 c 0,-0.03125 -0.011719,-0.06641 -0.015625,-0.09766 0.039063,-0.183594 -0.023437,-0.371094 0,-0.554688 L 8.570312,17.148434 C 8.628906,17.02734 8.613281,16.882808 8.640625,16.753902 Z m 0,0"
       id="path258" />
    <path
       style="fill:#c2d98f;fill-opacity:1;fill-rule:nonzero;stroke:none"
       d="m 11.4375,16.777344 h 0.01953 c 0,0.214844 -0.0039,0.425781 0.0039,0.640625 l -0.02344,-0.0039 c -0.0039,-0.210937 -0.0039,-0.425781 0,-0.636718 z m 0,0"
       id="path260" />
    <path
       style="fill:#94b81c;fill-opacity:1;fill-rule:nonzero;stroke:none"
       d="m 12.175781,17.183594 c 0.03516,-0.128906 0.03906,-0.261719 0.0625,-0.390625 0.01953,0.164062 0.02344,0.332031 0.07031,0.492187 0.0039,0.06641 0.02734,0.132813 0.07031,0.1875 0.128906,0.01953 0.246094,-0.05469 0.371094,-0.01953 0.01953,-0.05469 0.03125,-0.113281 0.04687,-0.167969 0,0.03906 0,0.08203 0,0.125 -0.01953,0.105469 -0.03125,0.214844 -0.04297,0.320313 -0.121094,-0.05078 -0.222656,0.113281 -0.332031,0.0625 -0.02734,-0.07422 -0.05078,-0.148438 -0.07813,-0.222657 -0.03125,-0.04687 -0.09766,-0.05859 -0.144531,-0.08984 -0.0078,-0.08594 0.01563,-0.179688 -0.01172,-0.261719 z m 0,0"
       id="path262" />
    <path
       style="fill:#abbf4f;fill-opacity:1;fill-rule:nonzero;stroke:none"
       d="m 13.121094,16.84375 h 0.01172 c 0.01953,0.03906 0.01172,0.08594 0.0078,0.128906 l -0.0078,0.01563 c -0.0078,-0.01563 -0.01172,-0.02734 -0.01562,-0.03906 0,-0.03516 0,-0.07031 0.0039,-0.105469 z m 0,0"
       id="path264" />
    <path
       style="fill:#8ab859;fill-opacity:1;fill-rule:nonzero;stroke:none"
       d="m 8.160156,16.855469 c 0.00781,0.03125 0.011719,0.0625 0.015625,0.09375 l -0.011719,0.152343 c -0.00781,-0.02344 -0.015624,-0.04687 -0.027343,-0.06641 0.00781,-0.0625 0.015625,-0.121094 0.023437,-0.179687 z m 0,0"
       id="path266" />
    <path
       style="fill:#579c33;fill-opacity:1;fill-rule:nonzero;stroke:none"
       d="m 8.175781,16.949219 c 0.0625,-0.0039 0.125,-0.01953 0.1875,-0.02734 0.00391,0.132813 0.019531,0.261719 0.027344,0.390625 -0.023437,0.183594 0.039063,0.371094 0,0.554688 L 8.320312,17.824219 C 8.367188,17.691406 8.296875,17.5625 8.273438,17.433594 8.25,17.320312 8.207031,17.210938 8.164062,17.101562 Z m 0,0"
       id="path268" />
    <path
       style="fill:#91ae1c;fill-opacity:1;fill-rule:nonzero;stroke:none"
       d="m 12.851562,17.0625 c 0.101563,-0.02344 0.152344,-0.199219 0.265626,-0.113281 l 0.01562,0.03906 v 0.01563 c -0.01172,0.07422 -0.01172,0.152344 0.0039,0.222656 v 0.109376 c -0.01172,-0.03906 -0.02344,-0.07813 -0.04297,-0.113282 -0.121094,0.05469 -0.300781,0.08594 -0.292969,0.261719 0,-0.02344 -0.0039,-0.05078 -0.0039,-0.07422 0,-0.04297 0,-0.08203 0,-0.125 l 0.0039,-0.03516 c 0.01563,-0.0625 0.03125,-0.125 0.05078,-0.1875 z m 0,0"
       id="path270" />
    <path
       style="fill:#ebeed1;fill-opacity:1;fill-rule:nonzero;stroke:none"
       d="m 13.140625,16.972656 0.01953,-0.0078 c 0,0.09375 0.0078,0.1875 0,0.277344 l -0.02344,0.0039 v -0.01953 c 0,-0.07422 0.0039,-0.148437 -0.0039,-0.222656 v -0.01563 z m 0,0"
       id="path272" />
    <path
       style="fill:#a3b83f;fill-opacity:1;fill-rule:nonzero;stroke:none"
       d="m 13.136719,17.226562 c -0.01563,-0.07422 -0.01563,-0.148437 -0.0039,-0.222656 0.0078,0.07422 0.0039,0.148438 0.0039,0.222656 z m 0,0"
       id="path274" />
    <path
       style="fill:#c5d457;fill-opacity:1;fill-rule:nonzero;stroke:none"
       d="m 9.347656,17.03125 h 0.234375 v 0.02344 c -0.078125,0 -0.15625,0 -0.234375,0 z m 0,0"
       id="path276" />
    <path
       style="fill:#b3c72e;fill-opacity:1;fill-rule:nonzero;stroke:none"
       d="m 8.773438,17.332031 c 0.144531,-0.15625 0.351562,-0.277343 0.574218,-0.277343 0.078125,0 0.15625,0 0.234375,0 0.027344,0.0078 0.113281,-0.02344 0.101563,0.01953 -0.050782,-0.0078 -0.097656,-0.0078 -0.144532,0.0078 -0.191406,0.03906 -0.355468,0.164063 -0.445312,0.335938 -0.015625,0.05469 -0.054688,0.101562 -0.082031,0.152343 -0.046875,0.152344 -0.074219,0.308594 -0.09375,0.464844 L 8.902344,18.03125 C 8.878906,17.945312 8.847656,17.863281 8.804688,17.785156 8.730469,17.738281 8.59375,17.726562 8.617188,17.605469 8.648438,17.550781 8.6875,17.496094 8.707031,17.433594 8.789062,17.371094 8.746094,17.269531 8.75,17.179688 h 0.019531 z m 0,0"
       id="path278" />
    <path
       style="fill:#e8ebc2;fill-opacity:1;fill-rule:nonzero;stroke:none"
       d="m 9.539062,17.082031 c 0.046876,-0.01563 0.09375,-0.01563 0.144532,-0.0078 -0.019532,0.04687 -0.109375,0.03125 -0.144532,0.0078 z m 0,0"
       id="path280" />
    <path
       style="fill:#669111;fill-opacity:1;fill-rule:nonzero;stroke:none"
       d="m 12.078125,17.09375 c 0.02344,0.0078 0.04297,0.01563 0.0625,0.02344 l 0.03516,0.06641 0.01172,0.03516 c 0.01172,0.08984 -0.03516,0.199219 0.01172,0.285156 0.02344,0.03516 0.02344,0.07813 0.02734,0.121094 0,0.105469 -0.01172,0.210938 0,0.316406 0.02734,0.152344 0.01563,0.308594 0.05859,0.453125 -0.05078,-0.0078 -0.07031,0.01563 -0.0625,0.06641 0,0.02734 -0.01172,0.04297 -0.03906,0.04687 -0.03906,-0.0078 -0.07422,-0.01562 -0.113282,-0.02734 -0.04687,-0.390625 0.0078,-0.789063 -0.02734,-1.183594 -0.0078,-0.07031 0.02734,-0.136719 0.03516,-0.203125 z m 0,0"
       id="path282" />
    <path
       style="fill:#7da61c;fill-opacity:1;fill-rule:nonzero;stroke:none"
       d="m 12.1875,17.21875 c 0.02734,0.08203 0.0039,0.175781 0.01172,0.261719 v 0.02344 c -0.04687,-0.08594 0,-0.195312 -0.01172,-0.285156 z m 0,0"
       id="path284" />
    <path
       style="fill:#8aa817;fill-opacity:1;fill-rule:nonzero;stroke:none"
       d="m 12.800781,17.484375 c -0.0078,-0.175781 0.171875,-0.207031 0.292969,-0.261719 0.01953,0.03516 0.03125,0.07422 0.04297,0.113282 0,0.03125 0,0.0625 0.0039,0.09375 -0.09766,0.06641 -0.210937,0.121093 -0.296875,0.199218 -0.05859,0.230469 -0.04687,0.472656 -0.03906,0.707032 l -0.0078,0.05859 -0.01953,0.0039 c 0,-0.304688 -0.0078,-0.613282 0.02344,-0.914063 z m 0,0"
       id="path286" />
    <path
       style="fill:#cfd999;fill-opacity:1;fill-rule:nonzero;stroke:none"
       d="m 13.136719,17.246094 0.02344,-0.0039 c 0,0.06641 0.0039,0.132812 0,0.195312 l -0.01953,-0.0078 c 0,-0.03125 -0.0039,-0.0625 -0.0039,-0.09375 z m 0,0"
       id="path288" />
    <path
       style="fill:#e3f0c2;fill-opacity:1;fill-rule:nonzero;stroke:none"
       d="m 11.265625,17.414062 c 0.02344,0.01172 0.05078,0.02734 0.03516,0.05859 -0.01172,0.06641 -0.01563,0.128906 -0.0078,0.191406 l -0.0039,0.02344 -0.02344,0.0078 c 0,-0.09766 -0.0039,-0.1875 0,-0.28125 z m 0,0"
       id="path290" />
    <path
       style="fill:#a1c557;fill-opacity:1;fill-rule:nonzero;stroke:none"
       d="m 11.4375,17.414062 0.02344,0.0039 v 0.02344 c -0.0039,0.07813 -0.01172,0.15625 -0.01953,0.234375 -0.0078,-0.08594 -0.0078,-0.175781 -0.0039,-0.261719 z m 0,0"
       id="path292" />
    <path
       style="fill:#8fb517;fill-opacity:1;fill-rule:nonzero;stroke:none"
       d="m 12.753906,17.730469 c 0.01172,-0.105469 0.02344,-0.214844 0.04297,-0.320313 l 0.0078,0.07422 c -0.03516,0.300781 -0.02734,0.609375 -0.02734,0.914063 h -0.01563 c -0.04297,0 -0.08594,0 -0.128907,0 -0.05469,0 -0.113281,0 -0.171874,0 -0.03906,-0.21875 -0.03516,-0.445313 -0.117188,-0.65625 -0.05859,-0.01953 -0.105469,-0.05078 -0.117188,-0.117188 -0.0039,-0.04297 -0.0039,-0.08594 -0.02734,-0.121094 v -0.02344 c 0.04687,0.03125 0.113281,0.04297 0.144531,0.08984 0.02734,0.07422 0.05078,0.148438 0.07813,0.222657 0.109375,0.05078 0.210937,-0.113281 0.332031,-0.0625 z m 0,0"
       id="path294" />
    <path
       style="fill:#91b821;fill-opacity:1;fill-rule:nonzero;stroke:none"
       d="m 8.199219,17.71875 c 0.070312,-0.07031 -0.054688,-0.257812 0.074219,-0.285156 0.023437,0.128906 0.089843,0.257812 0.046874,0.390625 -0.082031,-0.02344 -0.148437,0.02344 -0.167968,0.105469 0.00391,0.08203 0.078125,0.132812 0.152344,0.152343 l -0.0625,0.01953 c 0.035156,0.02734 0.0625,0.05859 0.085937,0.09766 -0.00391,0.07813 0.00781,0.164062 -0.03125,0.238281 -0.082031,0 -0.167969,0 -0.25,0 -0.00391,-0.02344 -0.00781,-0.04687 -0.015625,-0.07031 C 8.03125,18.214844 8.003906,18.058594 8,17.902344 7.996094,17.800781 8.121094,17.761719 8.199219,17.71875 Z m 0,0"
       id="path296" />
    <path
       style="fill:#7d9e11;fill-opacity:1;fill-rule:nonzero;stroke:none"
       d="m 8.597656,17.605469 c 0.023438,-0.0625 0.050782,-0.132813 0.109375,-0.171875 -0.019531,0.0625 -0.058593,0.117187 -0.089843,0.171875 z m 0,0"
       id="path298" />
    <path
       style="fill:#85a117;fill-opacity:1;fill-rule:nonzero;stroke:none"
       d="m 12.84375,17.628906 c 0.08594,-0.07813 0.195312,-0.132812 0.296875,-0.199218 0,0.07422 -0.0078,0.152343 0.01563,0.226562 l 0.0078,0.07813 v 0.01953 l -0.03516,-0.0078 c -0.07813,0.08984 -0.175781,0.167968 -0.199218,0.289062 0,0.04687 -0.05078,0.03906 -0.08203,0.05078 0,0.08594 -0.01953,0.167968 -0.04297,0.25 -0.0078,-0.234376 -0.01953,-0.480469 0.03906,-0.707032 z m 0,0"
       id="path300" />
    <path
       style="fill:#a6b851;fill-opacity:1;fill-rule:nonzero;stroke:none"
       d="m 13.140625,17.429688 0.01953,0.01172 c 0.0039,0.03906 0.0039,0.08203 0,0.121094 l -0.0039,0.09375 c -0.02344,-0.07422 -0.01563,-0.152344 -0.01563,-0.226562 z m 0,0"
       id="path302" />
    <path
       style="fill:#a1ca2e;fill-opacity:1;fill-rule:nonzero;stroke:none"
       d="m 11.292969,17.664062 c -0.0078,-0.0625 -0.0039,-0.125 0.0078,-0.191406 0.02344,0.125 0.05859,0.246094 0.09766,0.363282 0.04297,0.02344 -0.01563,-0.09766 0.03516,-0.07813 0.0039,0.04297 0.01953,0.09375 -0.01563,0.128907 0.03906,0.15625 0.07422,0.3125 0.125,0.464843 0.0039,0.02734 0.04297,0.02344 0.0625,0.03906 -0.0625,-0.0078 -0.04297,0.05859 -0.02734,0.09375 l 0.01953,0.06641 0.0078,0.05859 c -0.09375,-0.02734 -0.214844,0.01172 -0.296875,-0.04687 -0.01172,-0.296875 0.01953,-0.601562 -0.01563,-0.898438 z m 0,0"
       id="path304" />
    <path
       style="fill:#d7dcae;fill-opacity:1;fill-rule:nonzero;stroke:none"
       d="m 13.160156,17.566406 c 0.05078,0.01563 0.01172,0.117188 0.02344,0.167969 h -0.02344 c 0,-0.02734 -0.0039,-0.05078 -0.0039,-0.07813 l 0.0039,-0.09375 z m 0,0"
       id="path306" />
    <path
       style="fill:#9eba23;fill-opacity:1;fill-rule:nonzero;stroke:none"
       d="m 8.597656,17.605469 h 0.019532 c -0.023438,0.121093 0.113281,0.132812 0.1875,0.179687 0.042968,0.07813 0.074218,0.160156 0.097656,0.246094 0,0.03516 -0.00391,0.07031 -0.00781,0.105469 C 8.882812,18.191406 8.878906,18.25 8.875,18.308594 c -0.046875,0 -0.097656,0 -0.140625,0.02734 -0.023437,0.06641 -0.023437,0.136718 -0.027344,0.207031 v 0.01563 c -0.015625,0.04297 -0.027343,0.08984 -0.050781,0.128906 -0.066406,0.01563 -0.132812,0.02344 -0.203125,0.02734 -0.011719,-0.09375 -0.023437,-0.1875 -0.027344,-0.285156 0.023438,0.02344 0.039063,0.05469 0.070313,0.06641 0.054687,-0.01563 0.109375,-0.03125 0.164062,-0.04297 0.035156,-0.101563 0.058594,-0.207031 0.066406,-0.3125 -0.089843,0.01172 -0.207031,-0.03906 -0.28125,0.03906 0.019532,-0.09766 0.027344,-0.203126 0.042969,-0.296876 -0.078125,0.144532 0.167969,0.246094 0.21875,0.109376 0.078125,-0.09766 -0.074219,-0.230469 -0.171875,-0.171876 0.019532,-0.07422 0.027344,-0.148437 0.0625,-0.214843 z m 0,0"
       id="path308" />
    <path
       style="fill:#87ab17;fill-opacity:1;fill-rule:nonzero;stroke:none"
       d="m 12.226562,17.625 c 0.01172,0.06641 0.05859,0.09766 0.117188,0.117188 0.08203,0.210937 0.07813,0.4375 0.117188,0.65625 H 12.4375 c -0.02734,-0.08984 -0.03516,-0.183594 -0.06641,-0.269532 -0.113282,0.04297 -0.07031,-0.136718 -0.144532,-0.1875 -0.01172,-0.105468 0,-0.210937 0,-0.316406 z m 0,0"
       id="path310" />
    <path
       style="fill:#b3d459;fill-opacity:1;fill-rule:nonzero;stroke:none"
       d="m 11.292969,17.664062 c 0.03516,0.296876 0.0039,0.601563 0.01563,0.898438 l -0.01953,0.0039 -0.0039,-0.04297 V 18.4414 c 0,-0.08203 0,-0.160156 0,-0.242187 v -0.08203 c 0.0039,-0.144532 -0.0078,-0.285157 0.0039,-0.429688 z m 0,0"
       id="path312" />
    <path
       style="fill:#7f9c17;fill-opacity:1;fill-rule:nonzero;stroke:none"
       d="m 13.128906,17.746094 0.03125,0.0078 c 0,0.06641 -0.0078,0.136719 0.01563,0.199219 0.01172,0.05469 0.03125,0.109375 0.03125,0.164063 0.0039,0.09375 0.01172,0.183593 0.01563,0.277343 -0.140625,0 -0.28125,0 -0.425781,0 l 0.0078,-0.05859 c 0.02344,-0.08203 0.04297,-0.164063 0.04297,-0.25 0.03125,-0.01172 0.08203,-0.0039 0.08203,-0.05078 0.02344,-0.121094 0.121093,-0.199218 0.199218,-0.289062 z m 0,0"
       id="path314" />
    <path
       style="fill:#a6b857;fill-opacity:1;fill-rule:nonzero;stroke:none"
       d="m 13.164062,17.734375 h 0.01953 c 0,0.07422 0.0039,0.148437 -0.0078,0.21875 -0.02344,-0.0625 -0.01172,-0.132813 -0.01563,-0.199219 v -0.01953 z m 0,0"
       id="path316" />
    <path
       style="fill:#f8faf0;fill-opacity:1;fill-rule:nonzero;stroke:none"
       d="m 8.535156,17.820312 c 0.097656,-0.05859 0.25,0.07422 0.171875,0.171876 -0.050781,0.136718 -0.296875,0.03906 -0.214843,-0.109376 0.011718,-0.02344 0.027343,-0.04297 0.042968,-0.0625 z m 0,0"
       id="path318" />
    <path
       style="fill:#f5f8ee;fill-opacity:1;fill-rule:nonzero;stroke:none"
       d="m 8.152344,17.929688 c 0.019531,-0.08203 0.085937,-0.128907 0.167968,-0.105469 l 0.070313,0.04297 c 0.00781,0.03125 0.015625,0.06641 0.015625,0.09766 -0.027344,0.04687 -0.0625,0.08594 -0.101562,0.117187 -0.074219,-0.01563 -0.152344,-0.07031 -0.152344,-0.152343 z m 0,0"
       id="path320" />
    <path
       style="fill:#a6cf38;fill-opacity:1;fill-rule:nonzero;stroke:none"
       d="m 13.414062,18.226562 c 0.07813,-0.136718 0.140626,-0.285156 0.238282,-0.410156 -0.03516,0.199219 -0.128906,0.390625 -0.183594,0.585938 -0.02344,0.0625 -0.03516,0.132812 -0.07422,0.183594 -0.05859,0.0039 -0.113281,0.0039 -0.171875,0 0.0039,-0.01953 0.01563,-0.04297 0.02734,-0.05859 0.01953,-0.02734 0.03516,-0.05469 0.04687,-0.08594 0.03516,-0.07422 0.08594,-0.140625 0.117187,-0.214844 z m 0,0"
       id="path322" />
    <path
       style="fill:#7fa114;fill-opacity:1;fill-rule:nonzero;stroke:none"
       d="m 12.226562,17.941406 c 0.07422,0.05078 0.03125,0.230469 0.144532,0.1875 0.03125,0.08594 0.03906,0.179688 0.06641,0.269532 -0.05078,0 -0.101562,-0.0039 -0.152344,-0.0039 -0.04297,-0.144531 -0.03125,-0.300781 -0.05859,-0.453125 z m 0,0"
       id="path324" />
    <path
       style="fill:#7fa617;fill-opacity:1;fill-rule:nonzero;stroke:none"
       d="m 8.304688,18.082031 c 0.039062,-0.03125 0.074218,-0.07031 0.101562,-0.117187 0.00391,0.07813 0.00781,0.152344 0.023438,0.222656 0,0.08203 0,0.164062 -0.00391,0.242188 -0.027343,0.117187 -0.019531,0.234374 0.00391,0.351562 C 8.410156,18.75781 8.386719,18.73438 8.363281,18.71484 8.308594,18.546871 8.382812,18.363277 8.328125,18.199215 c -0.023437,-0.03906 -0.050781,-0.07031 -0.085937,-0.09766 0.019531,-0.0039 0.042968,-0.01172 0.0625,-0.01953 z m 0,0"
       id="path326" />
    <path
       style="fill:#a6cf3a;fill-opacity:1;fill-rule:nonzero;stroke:none"
       d="m 10.644531,18.011719 c 0.07031,0.03906 0.105469,0.121093 0.167969,0.175781 0.04687,0.05078 0.08984,0.109375 0.132812,0.167969 -0.128906,0.05469 -0.15625,-0.06641 -0.207031,-0.136719 -0.03125,-0.07031 -0.07813,-0.132812 -0.09375,-0.207031 z m 0,0"
       id="path328" />
    <path
       style="fill:#abcf3f;fill-opacity:1;fill-rule:nonzero;stroke:none"
       d="m 14.0625,18.105469 0.01563,-0.0078 C 14.042969,18.199219 14,18.300781 13.945312,18.394531 h -0.144531 c 0.0625,-0.113281 0.167969,-0.199219 0.261719,-0.289062 z m 0,0"
       id="path330" />
    <path
       style="fill:#f3f5f0;fill-opacity:1;fill-rule:nonzero;stroke:none"
       d="m 10.8125,18.1875 c 0.160156,0.04297 0.3125,-0.08203 0.472656,-0.07031 v 0.04297 c -0.07422,0.0039 -0.148437,0.02734 -0.210937,0.06641 -0.04297,0.02734 -0.105469,0.0625 -0.08594,0.121094 0.08203,0.07422 0.191407,0.109375 0.296875,0.136719 v 0.03906 c -0.203125,-0.03516 -0.410156,-0.07813 -0.59375,-0.171876 -0.0078,-0.04687 0,-0.109374 0.04687,-0.132812 0.05078,0.07031 0.07813,0.191406 0.207031,0.136719 -0.04297,-0.05859 -0.08594,-0.117188 -0.132812,-0.167969 z m 0,0"
       id="path332" />
    <path
       style="fill:#e1e3d9;fill-opacity:1;fill-rule:nonzero;stroke:none"
       d="m 13.207031,18.117188 c 0.03906,-0.0039 0,0.07031 0.03906,0.06641 0.05859,0.01563 0.113281,0.02344 0.167968,0.04297 -0.03125,0.07422 -0.08203,0.140626 -0.117187,0.214844 0.0039,-0.05469 -0.03516,-0.03906 -0.07031,-0.03125 v -0.01563 c -0.0039,-0.09375 -0.01562,-0.183593 -0.01953,-0.277343 z m 0,0"
       id="path334" />
    <path
       style="fill:#a3c223;fill-opacity:1;fill-rule:nonzero;stroke:none"
       d="m 8.445312,18.179688 c 0.074219,-0.07813 0.191407,-0.02734 0.28125,-0.03906 -0.00781,0.105469 -0.03125,0.210937 -0.066406,0.3125 -0.054687,0.01172 -0.109375,0.02734 -0.164062,0.04297 -0.03125,-0.01172 -0.046875,-0.04297 -0.070313,-0.06641 0.00391,-0.07813 0.00391,-0.160157 0.00391,-0.242188 z m 0,0"
       id="path336" />
    <path
       style="fill:#cad98a;fill-opacity:1;fill-rule:nonzero;stroke:none"
       d="m 8.875,18.308594 c 0.00391,-0.05469 0.00781,-0.117188 0.019531,-0.171875 0,0.07031 0.011719,0.148437 -0.00391,0.21875 H 8.878906 Z m 0,0"
       id="path338" />
    <path
       style="fill:#ebebeb;fill-opacity:1;fill-rule:nonzero;stroke:none"
       d="m 11.074219,18.226562 c 0.0625,-0.03906 0.136719,-0.0625 0.210937,-0.06641 v 0.03906 c -0.06641,0.0078 -0.136718,0.03906 -0.148437,0.109375 0.01953,0.07422 0.08203,0.117187 0.148437,0.132812 v 0.04297 c -0.105468,-0.02734 -0.214844,-0.05859 -0.296875,-0.136719 -0.01953,-0.05859 0.04297,-0.09375 0.08594,-0.121094 z m 0,0"
       id="path340" />
    <path
       style="fill:#85b011;fill-opacity:1;fill-rule:nonzero;stroke:none"
       d="m 8.328125,18.199219 c 0.054687,0.164062 -0.015625,0.347656 0.035156,0.515625 0.00391,0.09766 0,0.195312 0.00391,0.296875 -0.042969,-0.0039 -0.085938,-0.0039 -0.125,0.0039 -0.050782,-0.01172 -0.101563,-0.01953 -0.152344,-0.02734 -0.019532,-0.05078 -0.035156,-0.105469 -0.050782,-0.160156 0,-0.06641 0.00781,-0.132813 0.00781,-0.199219 V 18.4375 c 0.082031,0 0.167969,0 0.25,0 0.039063,-0.07422 0.027344,-0.160156 0.03125,-0.238281 z m 0,0"
       id="path342" />
    <path
       style="fill:#e1e1e1;fill-opacity:1;fill-rule:nonzero;stroke:none"
       d="m 11.136719,18.308594 c 0.01172,-0.07031 0.08203,-0.101563 0.148437,-0.109375 0,0.08203 0,0.164062 0,0.242187 -0.06641,-0.01563 -0.128906,-0.05859 -0.148437,-0.132812 z m 0,0"
       id="path344" />
    <path
       style="fill:#bddc6b;fill-opacity:1;fill-rule:nonzero;stroke:none"
       d="m 7.832031,18.265625 c 0.035157,0.0039 0.027344,0.05859 0.03125,0.08203 L 7.851562,18.4375 C 7.78125,18.44922 7.847652,18.3125 7.832031,18.265625 Z m 0,0"
       id="path346" />
    <path
       style="fill:#91ae1e;fill-opacity:1;fill-rule:nonzero;stroke:none"
       d="m 8.734375,18.335938 c 0.042969,-0.02734 0.09375,-0.02734 0.140625,-0.02734 0,0.01172 0.00391,0.03516 0.00391,0.04687 0,0.04297 -0.00391,0.08203 -0.00391,0.125 -0.058594,0 -0.128906,0.01172 -0.167969,0.0625 0.00391,-0.07031 0.00391,-0.140625 0.027344,-0.207031 z m 0,0"
       id="path348" />
    <path
       style="fill:#a1cc2e;fill-opacity:1;fill-rule:nonzero;stroke:none"
       d="m 7.851562,18.4375 c 0.00391,-0.03125 0.00781,-0.05859 0.011719,-0.08984 0.066407,0.15625 0.109375,0.324219 0.175781,0.480469 0.015626,0.05469 0.03125,0.109375 0.050782,0.160156 l 0.019531,0.04687 0.023437,0.07031 c -0.027343,0.0078 -0.054687,0.01563 -0.085937,0.01953 -0.042969,0 -0.085937,-0.0039 -0.125,-0.0078 l -0.00391,-0.01953 v -0.03906 C 7.90625,18.957031 7.898438,18.855469 7.882812,18.753906 7.875,18.648438 7.851562,18.542969 7.851562,18.4375 Z m 0,0"
       id="path350" />
    <path
       style="fill:#d9deb5;fill-opacity:1;fill-rule:nonzero;stroke:none"
       d="m 8.878906,18.355469 h 0.011719 c 0.015625,0.04687 0.015625,0.09766 0,0.144531 L 8.878906,18.496094 8.875,18.480469 c 0,-0.04297 0.00391,-0.08203 0.00391,-0.125 z m 0,0"
       id="path352" />
    <path
       style="fill:#d4e3a3;fill-opacity:1;fill-rule:nonzero;stroke:none"
       d="m 8.03125,18.367188 0.015625,0.07031 v 0.191406 H 8.023438 c -0.00391,-0.08594 0,-0.171875 0.00781,-0.261718 z m 0,0"
       id="path354" />
    <path
       style="fill:#babdb8;fill-opacity:1;fill-rule:nonzero;stroke:none"
       d="m 11.578125,18.484375 c -0.01563,-0.03516 -0.03516,-0.101563 0.02734,-0.09375 l 0.02734,0.04297 c 0.144532,0.03906 0.292969,0.05469 0.4375,0.04687 0.03906,0.0078 0.07422,0.01953 0.113282,0.02734 l -0.0039,0.01563 c -0.203126,0.02344 -0.402344,-0.03516 -0.601562,-0.03906 z m 0,0"
       id="path356" />
    <path
       style="fill:#979c8f;fill-opacity:1;fill-rule:nonzero;stroke:none"
       d="m 11.605469,18.390625 c 0.03516,0.0078 0.07422,0.01172 0.109375,0.01953 0.0625,0.01172 0.125,0.02734 0.191406,0.03906 0.03125,0.0078 0.07031,0.01172 0.101562,0.01172 l 0.0039,0.01953 c -0.128907,0 -0.253907,-0.01563 -0.378907,-0.04687 z m 0,0"
       id="path358" />
    <path
       style="fill:#61635c;fill-opacity:1;fill-rule:nonzero;stroke:none"
       d="m 12.222656,18.460938 c -0.0078,-0.05078 0.01172,-0.07422 0.0625,-0.06641 l 0.152344,0.0039 h 0.02344 c -0.0625,0.04687 -0.148438,0.02734 -0.222657,0.05469 z m 0,0"
       id="path360" />
    <path
       style="fill:#7d7d78;fill-opacity:1;fill-rule:nonzero;stroke:none"
       d="m 12.460938,18.398438 c 0.05859,0 0.117187,0 0.171874,0 -0.121093,0.05859 -0.261718,0.07031 -0.394531,0.05469 0.07422,-0.02734 0.160157,-0.0078 0.222657,-0.05469 z m 0,0"
       id="path362" />
    <path
       style="fill:#979991;fill-opacity:1;fill-rule:nonzero;stroke:none"
       d="m 12.632812,18.398438 c 0.04297,0 0.08594,0 0.128907,0 -0.08203,0.06641 -0.191407,0.04297 -0.285157,0.07812 l -0.222656,0.0078 -0.01563,0.03906 h -0.05859 l 0.0039,-0.01563 c 0.02734,-0.0039 0.03906,-0.01953 0.03906,-0.04687 l 0.01563,-0.0078 c 0.132813,0.01172 0.273438,0.0039 0.394531,-0.05469 z m 0,0"
       id="path364" />
    <path
       style="fill:#b0b3a6;fill-opacity:1;fill-rule:nonzero;stroke:none"
       d="m 12.761719,18.398438 h 0.01563 l 0.01953,-0.0039 c 0.144531,0 0.285156,0 0.425781,0 l 0.0039,0.01563 -0.08203,0.01172 h -0.148437 c -0.167969,-0.01563 -0.324219,0.07031 -0.492188,0.0625 l -0.02734,-0.0078 c 0.09375,-0.03516 0.203126,-0.01172 0.285157,-0.07812 z m 0,0"
       id="path366" />
    <path
       style="fill:#e8ebe8;fill-opacity:1;fill-rule:nonzero;stroke:none"
       d="m 13.226562,18.410156 c 0.03516,-0.0078 0.07422,-0.02344 0.07031,0.03125 -0.01172,0.03125 -0.02734,0.05859 -0.04687,0.08594 l -0.0078,-0.04687 c -0.542969,0.08594 -1.09375,0.109375 -1.640626,0.07031 -0.01172,-0.02344 -0.01953,-0.04297 -0.02344,-0.06641 0.199219,0.0039 0.398437,0.0625 0.601563,0.03906 h 0.0625 c 0.148437,0.0039 0.296874,0.0039 0.445312,-0.02734 0.15625,0.01953 0.316406,-0.0078 0.457031,-0.07422 z m 0,0"
       id="path368" />
    <path
       style="fill:#a8cf3d;fill-opacity:1;fill-rule:nonzero;stroke:none"
       d="m 9.394531,18.421875 0.015625,-0.0039 C 9.390625,18.632812 9.332031,18.84375 9.300781,19.054688 H 9.171875 C 9.183594,19 9.207031,18.945312 9.226562,18.894531 c 0.050782,-0.160156 0.121094,-0.3125 0.167969,-0.472656 z m 0,0"
       id="path370" />
    <path
       style="fill:#cacaca;fill-opacity:1;fill-rule:nonzero;stroke:none"
       d="m 12.503906,18.484375 c 0.167969,0.0078 0.324219,-0.07813 0.492188,-0.0625 -0.09766,0.04687 -0.203125,0.05469 -0.308594,0.07422 -0.148438,0.02734 -0.296875,0.03516 -0.449219,0.02734 l 0.0078,-0.01953 c 0.08203,-0.01172 0.175781,0.01172 0.257812,-0.01953 z m 0,0"
       id="path372" />
    <path
       style="fill:#dcdcdc;fill-opacity:1;fill-rule:nonzero;stroke:none"
       d="m 12.996094,18.421875 h 0.148437 c -0.140625,0.06641 -0.300781,0.09375 -0.457031,0.07422 0.105469,-0.01953 0.210938,-0.02734 0.308594,-0.07422 z m 0,0"
       id="path374" />
    <path
       style="fill:#91b51e;fill-opacity:1;fill-rule:nonzero;stroke:none"
       d="m 8.429688,18.78125 c -0.027344,-0.113281 -0.027344,-0.234375 -0.00391,-0.351562 0.00391,0.09766 0.011719,0.191406 0.027344,0.285156 0.070313,-0.0039 0.136719,-0.01172 0.203125,-0.02734 0.023438,-0.03906 0.035156,-0.08594 0.050781,-0.128906 0.015625,0.08984 0.011719,0.179687 0.019531,0.269531 v 0.03516 c -0.097656,0.02344 -0.195312,0.04687 -0.296874,0.06641 z m 0,0"
       id="path376" />
    <path
       style="fill:#85a11c;fill-opacity:1;fill-rule:nonzero;stroke:none"
       d="m 8.707031,18.542969 c 0.039063,-0.05078 0.109375,-0.0625 0.167969,-0.0625 l 0.00391,0.01563 c 0,0.07422 -0.011718,0.152344 0.015625,0.226562 l 0.00391,0.07813 C 8.867188,18.777344 8.835938,18.75 8.792969,18.757812 8.769531,18.777344 8.75,18.804688 8.726562,18.828125 8.71875,18.738281 8.722656,18.648438 8.707031,18.558594 Z m 0,0"
       id="path378" />
    <path
       style="fill:#b5b5b5;fill-opacity:1;fill-rule:nonzero;stroke:none"
       d="m 12.253906,18.484375 0.222656,-0.0078 0.02734,0.0078 c -0.08203,0.03125 -0.171875,0.0078 -0.257812,0.01953 z m 0,0"
       id="path380" />
    <path
       style="fill:#bfcf85;fill-opacity:1;fill-rule:nonzero;stroke:none"
       d="M 8.878906,18.496094 8.894531,18.5 c 0.00781,0.07422 0.00781,0.148438 0,0.222656 -0.027343,-0.07422 -0.015625,-0.152344 -0.015625,-0.226562 z m 0,0"
       id="path382" />
    <path
       style="fill:#a6cf38;fill-opacity:1;fill-rule:nonzero;stroke:none"
       d="M 9.671875,18.679688 9.6875,18.671875 C 9.683594,18.746094 9.640625,18.8125 9.640625,18.886719 H 9.535156 c 0.035156,-0.07813 0.085938,-0.144531 0.136719,-0.207031 z m 0,0"
       id="path384" />
    <path
       style="fill:#abcf45;fill-opacity:1;fill-rule:nonzero;stroke:none"
       d="m 7.445312,18.695312 c 0.078126,0.03516 0.109376,0.121094 0.171876,0.175782 0.035156,0.03125 0.113281,0.105468 0.019531,0.113281 C 7.578125,18.949219 7.550781,18.890625 7.519531,18.835938 7.492188,18.789062 7.457031,18.75 7.445312,18.695312 Z m 0,0"
       id="path386" />
    <path
       style="fill:#6b970a;fill-opacity:1;fill-rule:nonzero;stroke:none"
       d="m 8.363281,18.714844 c 0.023438,0.01953 0.046875,0.04297 0.066407,0.06641 V 19.03516 H 8.386719 C 8.378909,19.02736 8.375,19.01953 8.367188,19.01172 c -0.00391,-0.101563 0,-0.199219 -0.00391,-0.296875 z m 0,0"
       id="path388" />
    <path
       style="fill:#b0ba85;fill-opacity:1;fill-rule:nonzero;stroke:none"
       d="m 8.894531,18.722656 c 0.046875,-0.02344 0.015625,0.07031 0.027344,0.101563 l -0.00391,0.03906 -0.00391,0.05078 C 8.902344,18.875 8.898438,18.839844 8.898438,18.800781 8.894531,18.777344 8.894531,18.75 8.894531,18.722656 Z m 0,0"
       id="path390" />
    <path
       style="fill:#caccc2;fill-opacity:1;fill-rule:nonzero;stroke:none"
       d="m 7.882812,18.753906 c 0.015626,0.101563 0.023438,0.203125 0.035157,0.304688 -0.074219,0 -0.152344,-0.07031 -0.125,-0.144532 0.03125,-0.03125 0.089843,-0.04297 0.082031,-0.09375 z m 0,0"
       id="path392" />
    <path
       style="fill:#78941c;fill-opacity:1;fill-rule:nonzero;stroke:none"
       d="m 8.726562,18.828125 c 0.023438,-0.02344 0.042969,-0.05078 0.066407,-0.07031 0.042969,-0.0078 0.074219,0.01953 0.105469,0.04297 0,0.03906 0.00391,0.07813 0.015624,0.113281 0.00781,0.03125 0.019532,0.0625 0.027344,0.09766 -0.058594,0.03516 -0.128906,0.03906 -0.195312,0.04687 -0.00781,-0.06641 -0.015625,-0.128906 -0.019532,-0.195313 z m 0,0"
       id="path394" />
    <path
       style="fill:#e3e3e1;fill-opacity:1;fill-rule:nonzero;stroke:none"
       d="m 7.617188,18.871094 c 0.085937,-0.0078 0.171874,-0.04297 0.257812,-0.05078 0.00781,0.05078 -0.050781,0.0625 -0.082031,0.09375 -0.027344,0.07422 0.050781,0.144532 0.125,0.144532 v 0.03906 c -0.097657,-0.02344 -0.207031,-0.03906 -0.28125,-0.113281 0.09375,-0.0078 0.015625,-0.08594 -0.019531,-0.113281 z m 0,0"
       id="path396" />
    <path
       style="fill:#d9d9d7;fill-opacity:1;fill-rule:nonzero;stroke:none"
       d="m 8.921875,18.824219 c 0.097656,0.01953 0.214844,0.01563 0.304687,0.07031 C 9.207031,18.945312 9.183594,19 9.171875,19.054688 c -0.21875,0.04297 -0.441406,0.0625 -0.664063,0.0625 0.082032,-0.01953 0.160157,-0.03906 0.242188,-0.03906 0.105469,-0.01563 0.238281,-0.0039 0.316406,-0.08984 0.023438,-0.08984 -0.085937,-0.109375 -0.148437,-0.125 z m 0,0"
       id="path398" />
    <path
       style="fill:#f3f5f3;fill-opacity:1;fill-rule:nonzero;stroke:none"
       d="m 7.40625,18.90625 c 0.042969,-0.01563 0.078125,-0.04297 0.113281,-0.07031 0.03125,0.05469 0.058594,0.113281 0.117188,0.148437 0.074219,0.07422 0.183593,0.08984 0.28125,0.113281 l 0.00391,0.01953 c -0.132813,0.01953 -0.257813,-0.03516 -0.386719,-0.05859 -0.070312,-0.0078 -0.140625,-0.03906 -0.191406,-0.09375 -0.019531,-0.03906 0.03125,-0.05078 0.0625,-0.05859 z m 0,0"
       id="path400" />
    <path
       style="fill:#87b021;fill-opacity:1;fill-rule:nonzero;stroke:none"
       d="m 8.429688,18.929688 c 0.101562,-0.01953 0.199218,-0.04297 0.296874,-0.06641 0.00391,0.06641 0.011719,0.128907 0.023438,0.195313 v 0.01953 c -0.082031,0 -0.160156,0.01953 -0.242188,0.03906 -0.023437,0.0039 -0.050781,0.0039 -0.078124,0.0039 z m 0,0"
       id="path402" />
    <path
       style="fill:#bfbfbd;fill-opacity:1;fill-rule:nonzero;stroke:none"
       d="m 8.917969,18.863281 c 0.0625,0.01563 0.171875,0.03906 0.148437,0.125 C 8.988281,19.074219 8.855469,19.0625 8.75,19.078125 l -0.00391,-0.01953 c 0.066406,-0.0078 0.136718,-0.01172 0.195312,-0.04687 -0.00781,-0.03516 -0.019531,-0.06641 -0.027344,-0.09766 z m 0,0"
       id="path404" />
    <path
       style="fill:#707568;fill-opacity:1;fill-rule:nonzero;stroke:none"
       d="m 8.089844,18.988281 c 0.050781,0.0078 0.101562,0.01563 0.152344,0.02734 0.042968,0.02734 0.09375,0.03516 0.144531,0.01953 h 0.042969 v 0.02344 c -0.109376,0 -0.214844,-0.01563 -0.320313,-0.02344 z m 0,0"
       id="path406" />
    <path
       style="fill:#595c4f;fill-opacity:1;fill-rule:nonzero;stroke:none"
       d="m 8.242188,19.015625 c 0.039062,-0.0078 0.082031,-0.0078 0.125,-0.0039 l 0.019531,0.02344 c -0.050781,0.01563 -0.101563,0.0078 -0.144531,-0.01953 z m 0,0"
       id="path408" />
    <path
       style="fill:#94948f;fill-opacity:1;fill-rule:nonzero;stroke:none"
       d="m 8.109375,19.035156 c 0.105469,0.0078 0.210937,0.02344 0.320313,0.02344 v 0.01953 C 8.332031,19.09375 8.21875,19.046875 8.125,19.082031 Z m 0,0"
       id="path410" />
    <path
       style="fill:#bababa;fill-opacity:1;fill-rule:nonzero;stroke:none"
       d="m 8.125,19.082031 c 0.09375,-0.03516 0.207031,0.01172 0.304688,-0.0039 v 0.01953 c -0.097657,0 -0.199219,0 -0.296876,0.0078 z m 0,0"
       id="path412" />
    <path
       style="fill:#dcded1;fill-opacity:1;fill-rule:nonzero;stroke:none"
       d="m 8.132812,19.105469 c 0.097657,-0.0078 0.199219,-0.0078 0.296876,-0.0078 v 0.02344 c -0.128907,0 -0.257813,-0.0039 -0.386719,0.01953 L 8.046875,19.125 c 0.03125,-0.0039 0.058594,-0.01172 0.085937,-0.01953 z m 0,0"
       id="path414" />
  </g>
</svg>
