
<svg xmlns="http://www.w3.org/2000/svg" xmlns:xlink="http://www.w3.org/1999/xlink" width="16px" height="16px" viewBox="0 0 16 16" version="1.1">
<g id="surface1">
<path style=" stroke:none;fill-rule:nonzero;fill:rgb(9.019608%,60.392159%,20%);fill-opacity:1;" d="M 9.074219 10.0625 C 9.101562 10.085938 9.148438 10.125 9.1875 10.125 L 9.851562 10.125 C 9.886719 10.125 9.9375 10.085938 9.960938 10.0625 L 10.136719 9.875 C 10.164062 9.851562 10.175781 9.824219 10.175781 9.800781 L 10.363281 9.164062 C 10.375 9.101562 10.363281 9.039062 10.324219 9 L 10.1875 8.886719 C 10.164062 8.863281 10.113281 8.875 10.074219 8.875 L 9.476562 8.875 L 9.449219 8.851562 L 9.4375 8.835938 C 9.414062 8.835938 9.386719 8.824219 9.363281 8.851562 L 9.125 9 C 9.101562 9 9.085938 9.0625 9.074219 9.085938 L 8.875 9.699219 C 8.851562 9.761719 8.863281 9.835938 8.914062 9.886719 Z M 9.175781 13.363281 L 9.125 13.375 L 8.976562 13.375 L 9.875 10.738281 C 9.898438 10.648438 9.863281 10.550781 9.773438 10.523438 L 9.726562 10.511719 L 8.210938 10.511719 C 8.148438 10.523438 8.101562 10.574219 8.085938 10.636719 L 8 10.949219 C 7.976562 11.039062 8.039062 11.113281 8.125 11.136719 L 8.164062 11.125 L 8.386719 11.125 L 7.476562 13.738281 C 7.449219 13.824219 7.488281 13.9375 7.574219 13.976562 L 7.625 14.011719 L 9.023438 14.011719 C 9.101562 14.011719 9.164062 13.949219 9.1875 13.875 L 9.273438 13.574219 C 9.3125 13.488281 9.261719 13.386719 9.175781 13.363281 Z M 15.8125 10.898438 L 15.574219 10.585938 L 15.574219 10.574219 C 15.539062 10.539062 15.5 10.5 15.449219 10.5 L 14.550781 10.5 C 14.5 10.5 14.460938 10.550781 14.425781 10.574219 L 14.175781 10.875 L 13.789062 10.875 L 13.523438 10.574219 L 13.523438 10.5625 C 13.5 10.523438 13.449219 10.5 13.398438 10.5 L 12.898438 10.5 L 15.425781 7.976562 L 12.601562 5.175781 L 15.125 2.574219 L 15.125 1.449219 L 14.773438 1 L 9.664062 1 L 9.25 1.4375 L 9.25 1.800781 L 7.835938 0.375 L 6.875 1.3125 L 6.574219 1 L 1.523438 1 L 1.125 1.460938 L 1.125 2.636719 L 1.5 3 L 1.875 3 L 1.875 6.261719 L 0.125 8.011719 L 1.875 9.761719 L 1.875 13.761719 L 2.523438 14.125 L 3.976562 14.125 L 5.113281 12.9375 L 7.8125 15.636719 L 9.625 13.824219 C 9.636719 13.875 9.675781 13.886719 9.738281 13.914062 L 9.789062 13.886719 L 10.960938 13.886719 C 11.039062 13.886719 11.101562 13.875 11.113281 13.8125 L 11.199219 13.5625 C 11.226562 13.476562 11.1875 13.398438 11.101562 13.375 L 11.050781 13.386719 L 11 13.386719 L 11.425781 12.050781 L 11.710938 11.761719 L 12.335938 11.761719 L 11.710938 13.75 C 11.6875 13.835938 11.738281 13.886719 11.824219 13.925781 L 11.875 13.898438 L 13.011719 13.898438 C 13.074219 13.898438 13.136719 13.886719 13.164062 13.824219 L 13.261719 13.601562 C 13.300781 13.511719 13.25 13.4375 13.175781 13.398438 C 13.164062 13.386719 13.136719 13.398438 13.113281 13.398438 L 13.0625 13.398438 L 13.585938 11.773438 L 14.351562 11.773438 L 13.710938 13.761719 C 13.6875 13.851562 13.738281 13.898438 13.824219 13.925781 L 13.875 13.886719 L 15.125 13.886719 C 15.1875 13.886719 15.25 13.875 15.273438 13.8125 L 15.375 13.5625 C 15.414062 13.476562 15.363281 13.398438 15.273438 13.375 C 15.261719 13.363281 15.238281 13.386719 15.210938 13.386719 L 15.125 13.386719 L 15.824219 11.074219 C 15.851562 11.011719 15.835938 10.9375 15.8125 10.898438 Z M 7.835938 0.613281 L 9.25 2.023438 L 9.25 2.613281 L 9.675781 3.125 L 9.875 3.125 L 6.25 6.625 L 6.25 3.125 L 6.664062 3.125 L 7 2.601562 L 7 1.488281 L 6.976562 1.449219 Z M 0.363281 8.011719 L 1.875 6.5 L 1.875 9.523438 Z M 5.226562 12.800781 L 12.523438 5.300781 L 15.199219 7.988281 L 12.675781 10.511719 L 12.664062 10.511719 C 12.625 10.523438 12.601562 10.550781 12.574219 10.574219 L 12.3125 10.875 L 11.949219 10.875 L 11.675781 10.574219 C 11.648438 10.539062 11.601562 10.5 11.550781 10.5 L 10.449219 10.5 C 10.375 10.5 10.3125 10.550781 10.289062 10.625 L 10.1875 10.9375 C 10.164062 11.023438 10.199219 11.101562 10.289062 11.136719 L 10.476562 11.136719 L 9.675781 13.5 L 7.789062 15.398438 Z M 5.226562 12.800781 "/>
</g>
</svg>
