<?xml version="1.0" encoding="UTF-8" standalone="no"?>
<svg
   xmlns:dc="http://purl.org/dc/elements/1.1/"
   xmlns:cc="http://creativecommons.org/ns#"
   xmlns:rdf="http://www.w3.org/1999/02/22-rdf-syntax-ns#"
   xmlns:svg="http://www.w3.org/2000/svg"
   xmlns="http://www.w3.org/2000/svg"
   xmlns:sodipodi="http://sodipodi.sourceforge.net/DTD/sodipodi-0.dtd"
   xmlns:inkscape="http://www.inkscape.org/namespaces/inkscape"
   width="15.171669"
   height="15.171669"
   viewBox="0 0 15.171669 15.171669"
   version="1.1"
   id="svg7"
   sodipodi:docname="xls-symbolic.svg"
   inkscape:version="1.0.2 (e86c870879, 2021-01-15)">
  <metadata
     id="metadata13">
    <rdf:RDF>
      <cc:Work
         rdf:about="">
        <dc:format>image/svg+xml</dc:format>
        <dc:type
           rdf:resource="http://purl.org/dc/dcmitype/StillImage" />
      </cc:Work>
    </rdf:RDF>
  </metadata>
  <defs
     id="defs11" />
  <sodipodi:namedview
     pagecolor="#ffffff"
     bordercolor="#666666"
     borderopacity="1"
     objecttolerance="10"
     gridtolerance="10"
     guidetolerance="10"
     inkscape:pageopacity="0"
     inkscape:pageshadow="2"
     inkscape:window-width="2560"
     inkscape:window-height="1376"
     id="namedview9"
     showgrid="false"
     inkscape:zoom="42"
     inkscape:cx="7.5858343"
     inkscape:cy="7.5263105"
     inkscape:window-x="0"
     inkscape:window-y="0"
     inkscape:window-maximized="1"
     inkscape:current-layer="svg7" />
  <g
     id="surface1"
     transform="translate(-4.4512752,-4.4883847)">
    <path
       style="fill:#000000;fill-opacity:1;fill-rule:nonzero;stroke:none"
       d="m 19.5,6.976562 v 10.199219 c 0,0.07422 -0.07422,0.148438 -0.07422,0.222657 -0.152343,0.226562 -0.375,0.375 -0.601562,0.375 H 13.05078 v 1.5 c -0.226562,-0.07422 -0.527343,-0.07422 -0.75,-0.148438 -0.527343,-0.07422 -1.125,-0.226562 -1.652343,-0.300781 C 10.050781,18.75 9.449219,18.601562 8.851562,18.523438 8.25,18.449219 7.648438,18.300781 7.050781,18.226562 6.523438,18.148438 5.925781,18 5.398438,17.925781 5.101562,17.851562 4.875,17.851562 4.574219,17.773438 V 6.75 C 4.648438,6.75 4.800781,6.675781 4.875,6.675781 5.398438,6.300781 6,6.148438 6.601562,6.074219 7.125,6 7.648438,5.851562 8.101562,5.773438 8.550781,5.699219 9.074219,5.625 9.523438,5.476562 10.050781,5.398438 10.648438,5.25 11.175781,5.175781 11.773438,5.101562 12.300781,4.949219 12.898438,4.875 h 0.07812 v 1.425781 h 5.847657 c 0.300781,0 0.601562,0.222657 0.675781,0.523438 z M 18.898438,6.898438 H 12.976562 V 7.800781 H 15 V 9.074219 H 12.976562 V 9.523438 H 15 v 1.277343 H 12.976562 V 11.25 H 15 v 1.273438 h -2.023438 v 0.527343 h 2.097657 v 1.273438 h -2.097657 v 0.449219 H 15 v 1.277343 h -2.023438 v 0.898438 h 5.921876 z m -7.875,8.625 c 0,0 0,-0.07422 -0.07422,-0.07422 C 10.42578,14.398437 9.824218,13.351561 9.30078,12.30078 V 12.148438 C 9.824219,11.101562 10.351562,10.125 10.949219,9.074219 V 9 H 10.875 c -0.148438,0 -0.375,0 -0.523438,0.074219 -0.226562,0 -0.453124,0 -0.75,0.074219 -0.078124,0 -0.078124,0 -0.078124,0.078124 C 9.300781,9.675781 9.148438,10.050781 8.925781,10.5 8.773438,10.875 8.625,11.175781 8.476562,11.550781 8.398438,11.398438 8.398438,11.175781 8.324219,11.023438 8.101562,10.5 7.875,9.898438 7.648438,9.375 7.574219,9.226562 7.574219,9.226562 7.425781,9.226562 7.125,9.226562 6.824219,9.300781 6.523438,9.300781 H 6.226562 V 9.375 C 6.300781,9.523438 6.375,9.75 6.449219,9.898438 l 1.125,2.25 v 0.07812 C 7.125,13.125 6.601562,14.023438 6.148438,14.925781 6.148438,15 6.074219,15 6.074219,15.074219 h 0.449219 c 0.300781,0 0.527343,0.07422 0.828124,0.07422 0.074219,0 0.074219,0 0.074219,-0.07422 C 7.648438,14.625 7.875,14.175781 8.101562,13.648438 c 0.074219,-0.222657 0.222657,-0.449219 0.296876,-0.671876 0,-0.07812 0,-0.152343 0.078124,-0.226562 v 0.07422 c 0.074219,0.152343 0.074219,0.300781 0.148438,0.375 0.300781,0.601562 0.523438,1.199219 0.824219,1.875 0.074219,0.07422 0.074219,0.152343 0.226562,0.152343 0.375,0 0.75,0.07422 1.125,0.07422 0.07422,0.222657 0.148438,0.222657 0.222657,0.222657 z m 0,0"
       id="path2" />
    <path
       style="fill:#000000;fill-opacity:1;fill-rule:nonzero;stroke:none"
       d="M 17.925781,7.800781 V 9.074219 H 15.601562 V 7.800781 Z m -2.324219,8.398438 v -1.273438 h 2.324219 v 1.273438 z m 0,-3.523438 v -1.277343 h 2.324219 v 1.277343 z M 17.925781,9.601562 V 10.875 H 15.601562 V 9.601562 Z m 0,3.597657 v 1.277343 h -2.324219 v -1.277343 z m 0,0"
       id="path4" />
  </g>
</svg>
