<?xml version="1.0" encoding="UTF-8" standalone="no"?>
<svg
   xmlns:dc="http://purl.org/dc/elements/1.1/"
   xmlns:cc="http://creativecommons.org/ns#"
   xmlns:rdf="http://www.w3.org/1999/02/22-rdf-syntax-ns#"
   xmlns:svg="http://www.w3.org/2000/svg"
   xmlns="http://www.w3.org/2000/svg"
   xmlns:sodipodi="http://sodipodi.sourceforge.net/DTD/sodipodi-0.dtd"
   xmlns:inkscape="http://www.inkscape.org/namespaces/inkscape"
   width="13.317004"
   height="13.316993"
   viewBox="0 0 13.317004 13.316993"
   version="1.1"
   id="svg7"
   sodipodi:docname="xul-symbolic.svg"
   inkscape:version="1.0.2 (e86c870879, 2021-01-15)">
  <metadata
     id="metadata13">
    <rdf:RDF>
      <cc:Work
         rdf:about="">
        <dc:format>image/svg+xml</dc:format>
        <dc:type
           rdf:resource="http://purl.org/dc/dcmitype/StillImage" />
      </cc:Work>
    </rdf:RDF>
  </metadata>
  <defs
     id="defs11" />
  <sodipodi:namedview
     pagecolor="#ffffff"
     bordercolor="#666666"
     borderopacity="1"
     objecttolerance="10"
     gridtolerance="10"
     guidetolerance="10"
     inkscape:pageopacity="0"
     inkscape:pageshadow="2"
     inkscape:window-width="2560"
     inkscape:window-height="1376"
     id="namedview9"
     showgrid="false"
     inkscape:zoom="42"
     inkscape:cx="6.658502"
     inkscape:cy="6.6584965"
     inkscape:window-x="0"
     inkscape:window-y="0"
     inkscape:window-maximized="1"
     inkscape:current-layer="svg7" />
  <g
     id="surface1"
     transform="matrix(1.1715298,0,0,0.99997464,-7.4044339,-5.3465887)"
     style="stroke-width:0.923908">
    <path
       style="fill:#000000;fill-opacity:1;fill-rule:nonzero;stroke:none;stroke-width:0.853606"
       d="m 17.660156,11.199219 c -0.04297,-0.292969 -0.08594,-0.585938 -0.128906,-0.902344 -0.07031,0.195313 -0.128906,0.351563 -0.1875,0.511719 -0.01563,0 -0.02734,-0.0039 -0.03906,-0.0039 0.117187,-1.359376 -0.15625,-2.542969 -1.042969,-3.476563 -0.01563,0.054687 -0.02344,0.082031 -0.03516,0.117187 -0.195312,-0.304687 -0.4375,-0.515624 -0.6875,-0.734374 -0.04687,0.1875 0,0.296874 0.101563,0.410156 0.355469,0.398437 0.671875,0.84375 0.921875,1.351562 0.01953,0.039063 0.03516,0.085938 0.05469,0.128906 C 16.359375,8.164062 16.035156,7.808594 15.726562,7.433594 15.316406,6.925781 14.824219,6.601562 14.269531,6.390625 14.171875,6.351562 14.070312,6.316406 13.992188,6.289062 14.269531,6.5625 14.566406,6.835938 14.839844,7.136719 15.175781,7.507812 15.503906,8.039062 15.523438,8.195312 15.246094,7.917969 14.953125,7.6875 14.554688,7.65625 c 0.824218,0.886719 1.199218,1.960938 1.113281,3.28125 -0.113281,-0.253906 -0.25,-0.457031 -0.46875,-0.609375 0.01563,0.210937 0.03125,0.386719 0.04297,0.5625 0.03516,0.46875 0.125,0.933594 0.03906,1.410156 -0.03906,0.210938 -0.07422,0.425781 -0.109375,0.636719 -0.05078,-0.117188 -0.09766,-0.21875 -0.144531,-0.328125 -0.08203,0.394531 -0.152344,0.761719 -0.242188,1.121094 -0.08984,0.363281 -0.238281,0.691406 -0.472656,0.953125 -0.05469,0.05859 -0.117188,0.109375 -0.179688,0.15625 -0.02344,0.01953 -0.0625,0.0078 -0.09375,0.01563 -0.0039,-0.03516 -0.0039,-0.07031 -0.0039,-0.105469 0,-0.01563 0,-0.03125 0.0039,-0.07422 -0.05078,0.01563 -0.09766,0.01563 -0.125,0.04297 -0.05469,0.05469 -0.105468,0.121094 -0.148437,0.191406 -0.101563,0.167969 -0.226563,0.296875 -0.390625,0.398438 0.01563,-0.08203 0.02734,-0.136719 0.03906,-0.195313 -0.128906,0.03906 -0.246093,0.08594 -0.363281,0.113281 -0.367187,0.08594 -0.730469,0.203126 -1.109375,0.125 -0.1875,-0.03906 -0.367187,-0.09766 -0.507812,-0.28125 h 0.347656 c -0.03906,-0.04297 -0.07813,-0.07812 -0.125,-0.09375 -0.1875,-0.05469 -0.378906,-0.09766 -0.566406,-0.160156 -0.144532,-0.05078 -0.300782,-0.101562 -0.429688,-0.199218 C 10.515625,14.5 10.386719,14.34375 10.261719,14.191406 9.816406,13.660156 9.699219,13.003906 9.78125,12.28125 9.820312,11.933594 9.863281,11.574219 10.121094,11.328125 9.992188,11.214844 9.851562,11.15625 9.699219,11.148438 9.285156,11.132812 8.863281,11.5 8.714844,12.027344 8.527344,12.6875 8.675781,13.273438 9.011719,13.8125 c 0.023437,0.03906 0.046875,0.07813 0.074219,0.121094 -0.457032,-0.476563 -0.714844,-1.375 -0.429688,-2.148438 0.351562,-0.941406 1.246094,-1.144531 1.855469,-0.421875 0.02734,0.03516 0.04687,0.07813 0.08203,0.128907 0.101562,-0.28125 0.07031,-0.707032 -0.05859,-0.921876 C 10.222656,10.054688 10.074219,9.496094 10.1875,8.855469 10.292969,8.226562 10.554688,7.703125 10.933594,7.253906 10.960938,7.222656 10.988281,7.1875 11.023438,7.144531 10.449219,7 9.828125,7.460938 9.242188,8.425781 9.269531,8.238281 9.292969,8.054688 9.320312,7.855469 9.265625,7.839844 9.210938,7.820312 9.152344,7.8125 8.546875,7.722656 8.007812,7.902344 7.53125,8.371094 7.042969,8.855469 6.75,9.488281 6.566406,10.203125 c -0.085937,0.335937 -0.164062,0.679687 -0.246094,1.023437 0.00781,0 0.015626,0.0039 0.023438,0.0039 0.042969,-0.07813 0.085938,-0.164063 0.148438,-0.277344 -0.101563,0.703125 -0.160157,1.671875 -0.125,2.066406 0.035156,-0.140625 0.074218,-0.28125 0.113281,-0.417969 0.164062,1.46875 0.617187,2.757813 1.46875,3.828126 0.816406,1.019531 2.441406,2.125 3.039062,2.078124 -0.07031,-0.05859 -0.144531,-0.121093 -0.21875,-0.183593 0.183594,0.03906 0.351563,0.113281 0.523438,0.164062 0.222656,0.07031 0.445312,0.117188 0.667969,0.175781 H 12.3125 c -0.05469,-0.05859 -0.109375,-0.113281 -0.179688,-0.1875 0.226563,-0.01172 0.429688,-0.01953 0.636719,-0.03906 0.617188,-0.05859 1.21875,-0.214844 1.808594,-0.453125 0.398437,-0.160156 0.644531,-0.515625 0.875,-0.902344 0.05078,-0.08203 0.113281,-0.15625 0.183594,-0.199219 0.597656,-0.402343 1.054687,-0.964843 1.390625,-1.675781 0.171875,-0.367187 0.191406,-0.75 0.113281,-1.152343 -0.01172,-0.07422 -0.0078,-0.160157 0.01563,-0.226563 0.09766,-0.289063 0.21875,-0.566406 0.308594,-0.859375 0.08203,-0.28125 0.136718,-0.574219 0.203125,-0.859375 0.0078,-0.01953 0.01172,-0.04297 0.01953,-0.0625 V 11.375 c -0.01172,-0.07031 -0.01953,-0.121094 -0.02734,-0.175781 z m 0,0"
       id="path2" />
    <path
       style="fill:#000000;fill-opacity:1;fill-rule:nonzero;stroke:none;stroke-width:0.853606"
       d="m 10.003906,12.417969 c -0.117187,0.675781 0.191406,1.488281 0.703125,1.832031 0.02344,0.01953 0.05859,0.02344 0.08594,0.02734 0.585937,0.05469 1.117187,-0.101563 1.578125,-0.5625 0.05078,-0.05078 0.113281,-0.08594 0.160156,-0.144532 0.125,-0.148437 0.273438,-0.1875 0.449219,-0.148437 0.136719,0.03125 0.207031,-0.06641 0.175781,-0.230469 -0.02734,-0.175781 -0.117188,-0.308594 -0.246094,-0.390625 -0.394531,-0.25 -0.792968,-0.273437 -1.191406,0 -0.09766,0.06641 -0.203125,0.125 -0.3125,0.15625 -0.28125,0.08203 -0.558594,0.01953 -0.816406,-0.128906 -0.203125,-0.117187 -0.394532,-0.273437 -0.585938,-0.410156 z M 8.171875,7.488281 C 8.195312,7.460938 8.214844,7.433594 8.238281,7.410156 9.597656,5.898438 11.1875,5.339844 13,5.785156 13.644531,5.941406 14.269531,6.203125 14.863281,6.40625 12.734375,4.671875 9.699219,5.125 7.984375,7.339844 8.039062,7.398438 8.09375,7.460938 8.140625,7.515625 8.160156,7.5 8.164062,7.496094 8.171875,7.488281 Z M 11.84375,9.28125 c 0.01172,-0.171875 -0.02734,-0.234375 -0.167969,-0.25 -0.230469,-0.023438 -0.460937,-0.027344 -0.6875,-0.035156 -0.195312,-0.00781 -0.390625,-0.00781 -0.539062,-0.207032 -0.175781,0.457032 -0.0078,1.316407 0.296875,1.625 0.269531,-0.179687 0.523437,-0.367187 0.789062,-0.523437 0.222656,-0.128906 0.292969,-0.34375 0.308594,-0.609375 z M 8.011719,7.679688 C 7.742188,7.410156 7.617188,7.074219 7.589844,6.644531 7.175781,7.203125 7.0625,7.84375 7.03125,8.53125 7.3125,8.175781 7.625,7.875 8.011719,7.679688 Z m 0,0"
       id="path4" />
  </g>
</svg>
