<?xml version="1.0" encoding="UTF-8" standalone="no"?>
<svg
   xmlns:dc="http://purl.org/dc/elements/1.1/"
   xmlns:cc="http://creativecommons.org/ns#"
   xmlns:rdf="http://www.w3.org/1999/02/22-rdf-syntax-ns#"
   xmlns:svg="http://www.w3.org/2000/svg"
   xmlns="http://www.w3.org/2000/svg"
   xmlns:sodipodi="http://sodipodi.sourceforge.net/DTD/sodipodi-0.dtd"
   xmlns:inkscape="http://www.inkscape.org/namespaces/inkscape"
   width="14.46067"
   height="14.46067"
   viewBox="0 0 14.46067 14.46067"
   version="1.1"
   id="svg5"
   sodipodi:docname="yml-symbolic.svg"
   inkscape:version="1.0.2 (e86c870879, 2021-01-15)">
  <metadata
     id="metadata11">
    <rdf:RDF>
      <cc:Work
         rdf:about="">
        <dc:format>image/svg+xml</dc:format>
        <dc:type
           rdf:resource="http://purl.org/dc/dcmitype/StillImage" />
      </cc:Work>
    </rdf:RDF>
  </metadata>
  <defs
     id="defs9" />
  <sodipodi:namedview
     pagecolor="#ffffff"
     bordercolor="#666666"
     borderopacity="1"
     objecttolerance="10"
     gridtolerance="10"
     guidetolerance="10"
     inkscape:pageopacity="0"
     inkscape:pageshadow="2"
     inkscape:window-width="2560"
     inkscape:window-height="1376"
     id="namedview7"
     showgrid="false"
     inkscape:zoom="42"
     inkscape:cx="7.2303346"
     inkscape:cy="7.1708108"
     inkscape:window-x="0"
     inkscape:window-y="0"
     inkscape:window-maximized="1"
     inkscape:current-layer="svg5" />
  <g
     id="surface1"
     transform="translate(-4.7353027,-4.7933951)">
    <path
       style="fill:#9e73b3;fill-opacity:1;fill-rule:evenodd;stroke:none"
       d="m 12.824219,14.476562 c -0.375,0 -0.597657,0.07422 -0.824219,0.07422 h -1.351562 c 0.300781,-3.226562 0.527343,-6.375 0.828124,-9.601562 0.898438,0 1.648438,-0.074219 2.398438,0 0.226562,0 0.523438,0.375 0.449219,0.601562 -0.222657,1.722657 -0.597657,3.523438 -0.898438,5.25 -0.152343,1.199219 -0.375,2.398438 -0.601562,3.675781 z m 0.300781,3 c 0.07422,0.824219 -0.601562,1.574219 -1.574219,1.648438 -0.976562,0.07422 -1.875,-0.523438 -1.949219,-1.351562 C 9.523438,16.875 10.199219,16.199219 11.25,16.125 c 1.050781,-0.07422 1.800781,0.449219 1.875,1.351562 z m 0,0"
       id="path2" />
  </g>
</svg>
