<?xml version="1.0" encoding="UTF-8" standalone="no"?>
<svg
   xmlns:dc="http://purl.org/dc/elements/1.1/"
   xmlns:cc="http://creativecommons.org/ns#"
   xmlns:rdf="http://www.w3.org/1999/02/22-rdf-syntax-ns#"
   xmlns:svg="http://www.w3.org/2000/svg"
   xmlns="http://www.w3.org/2000/svg"
   xmlns:sodipodi="http://sodipodi.sourceforge.net/DTD/sodipodi-0.dtd"
   xmlns:inkscape="http://www.inkscape.org/namespaces/inkscape"
   width="128"
   height="128"
   viewBox="0 0 128 128"
   fill="none"
   version="1.1"
   id="svg92"
   sodipodi:docname="icon.svg"
   inkscape:version="1.0.1 (3bc2e813f5, 2020-09-07)">
  <metadata
     id="metadata96">
    <rdf:RDF>
      <cc:Work
         rdf:about="">
        <dc:format>image/svg+xml</dc:format>
        <dc:type
           rdf:resource="http://purl.org/dc/dcmitype/StillImage" />
      </cc:Work>
    </rdf:RDF>
  </metadata>
  <sodipodi:namedview
     pagecolor="#ffffff"
     bordercolor="#666666"
     borderopacity="1"
     objecttolerance="10"
     gridtolerance="10"
     guidetolerance="10"
     inkscape:pageopacity="0"
     inkscape:pageshadow="2"
     inkscape:window-width="2018"
     inkscape:window-height="1192"
     id="namedview94"
     showgrid="false"
     inkscape:zoom="5.5684659"
     inkscape:cx="29.401639"
     inkscape:cy="58.368532"
     inkscape:window-x="26"
     inkscape:window-y="23"
     inkscape:window-maximized="0"
     inkscape:current-layer="sublime-merge" />
  <g
     id="sublime-merge">
    <path
       id="Vector"
       d="M104.889 17.7037H23.4074C19.3164 17.7037 16 21.2965 16 25.7284V105.975C16 110.407 19.3164 114 23.4074 114H104.889C108.98 114 112.296 110.407 112.296 105.975V25.7284C112.296 21.2965 108.98 17.7037 104.889 17.7037Z"
       fill="url(#paint0_linear)" />
    <path
       id="Vector_2"
       d="M 104.741,15.852 H 23.2594 c -4.091,0 -7.4074,3.5928 -7.4074,8.0247 v 80.2473 c 0,4.431 3.3164,8.024 7.4074,8.024 h 81.4816 c 4.091,0 7.407,-3.593 7.407,-8.024 V 23.8767 c 0,-4.4319 -3.316,-8.0247 -7.407,-8.0247 z"
       fill="url(#paint1_linear)"
       style="fill:url(#paint1_linear)" />
    <g
       id="g152"
       transform="matrix(0.22694644,0,0,0.2269098,16.279335,17.090206)"
       style="stroke-width:5.87558">
      <g
         id="g87"
         transform="matrix(1.0584194,0,0,1.0584194,7.0541663,-4.4209198)"
         style="stroke-width:102.705">
        <path
           d="M 44.344,94.031 128.719,30.75 v 337.5 L 44.344,304.969 Z"
           id="path71"
           inkscape:connector-curvature="0"
           style="opacity:0.3;fill:#00070a;stroke-width:102.705" />
        <path
           d="M 339.66,101.53 255.285,38.249 v 337.5 l 84.375,-63.281 z"
           id="path73"
           inkscape:connector-curvature="0"
           style="opacity:0.3;fill:#090909;stroke-width:102.705" />
        <path
           d="M 339.66,86.531 255.285,23.25 v 345 l 84.375,-63.281 z"
           id="path75"
           inkscape:connector-curvature="0"
           style="fill:#0aa15c;stroke-width:102.705" />
        <path
           d="M 44.344,86.531 128.719,23.25 v 337.5 L 44.344,297.469 Z"
           id="path77"
           inkscape:connector-curvature="0"
           style="fill:#4aaee6;stroke-width:102.705" />
        <path
           d="M 128.72,30.75 327.25,314.27 255.278,368.249 56.748,84.729 Z"
           id="path79"
           inkscape:connector-curvature="0"
           style="opacity:0.3;stroke-width:102.705" />
        <path
           d="M 128.72,23.25 327.25,306.77 255.278,360.749 56.748,77.229 Z"
           id="path81"
           inkscape:connector-curvature="0"
           style="fill:#51bd8c;stroke-width:102.705" />
        <path
           d="m 255.28,203.99 v 156.76 l 71.972,-53.979 z"
           id="path83"
           inkscape:connector-curvature="0"
           style="fill:#077f4a;stroke-width:102.705" />
        <path
           d="M 128.72,23.25 56.746,77.22 128.72,180.01 Z"
           id="path85"
           inkscape:connector-curvature="0"
           style="fill:#23a86e;stroke-width:102.705" />
      </g>
    </g>
  </g>
  <defs
     id="defs90">
    <linearGradient
       id="paint0_linear"
       x1="16"
       y1="65.8519"
       x2="112.296"
       y2="65.8519"
       gradientUnits="userSpaceOnUse">
      <stop
         stop-color="#241F31"
         id="stop78" />
    </linearGradient>
    <linearGradient
       id="paint1_linear"
       x1="16"
       y1="62.1481"
       x2="112.296"
       y2="62.1481"
       gradientUnits="userSpaceOnUse">
      <stop
         stop-color="#5E5C64"
         id="stop81" />
    </linearGradient>
    <linearGradient
       id="paint2_linear"
       x1="32"
       y1="52.0382"
       x2="71.5159"
       y2="52.0382"
       gradientUnits="userSpaceOnUse">
      <stop
         stop-color="#33D17A"
         id="stop84" />
    </linearGradient>
    <linearGradient
       id="paint3_linear"
       x1="32"
       y1="71.4544"
       x2="95.1142"
       y2="71.4544"
       gradientUnits="userSpaceOnUse">
      <stop
         stop-color="#33D17A"
         id="stop87" />
    </linearGradient>
  </defs>
</svg>
